<svg width="172" height="152" viewBox="0 0 172 152" fill="none" xmlns="http://www.w3.org/2000/svg">
<path d="M64.2901 58.9733C64.2901 44.6712 38.2368 38.33 34.4529 53.8001C32.7047 60.9477 37.345 67.2299 44.6605 67.8573C51.2319 68.4208 64.4141 67.7222 64.4141 58.9733" stroke="#131313" stroke-width="0.997868" stroke-linecap="round"/>
<path d="M78.1777 58.9733C78.1777 44.6712 104.231 38.33 108.015 53.8001C109.763 60.9477 105.123 67.2299 97.8073 67.8573C91.2359 68.4208 78.0537 67.7222 78.0537 58.9733" stroke="#131313" stroke-width="0.997868" stroke-linecap="round"/>
<path d="M31.269 56.1722C31.383 56.1227 31.8456 56.1881 32.2908 56.3696C32.7534 56.5516 33.1828 56.7161 33.4884 56.857C33.5632 56.882 33.6286 56.8983 33.8446 57.0142" stroke="#131313" stroke-width="0.997868" stroke-linecap="round"/>
<path d="M49.0004 42.0078C49.0004 42.1386 48.9841 42.2713 48.9593 42.4848C48.9509 42.8617 48.9346 43.2119 48.9098 43.5405C48.9014 43.7547 48.9014 44.0653 48.9014 44.3852" stroke="#131313" stroke-width="0.997868" stroke-linecap="round"/>
<path d="M64.4534 59.2931C64.5187 59.2931 64.6178 59.2768 64.7904 59.2357C64.8976 59.2109 65.0447 59.1782 65.3575 59.1614C65.6703 59.1445 66.1443 59.1445 66.6327 59.1445" stroke="#131313" stroke-width="0.997868" stroke-linecap="round"/>
<path d="M75.6594 59.0586C75.8882 59.0586 76.3003 59.0586 76.8033 59.0668C77.1265 59.0913 77.3261 59.1245 77.4908 59.1574C77.5737 59.174 77.6554 59.1903 77.8882 59.2567" stroke="#131313" stroke-width="0.997868" stroke-linecap="round"/>
<path d="M96.5608 42.4648V44.5946" stroke="#131313" stroke-width="0.997868" stroke-linecap="round"/>
<path d="M108.646 57.3247C108.81 57.3083 109.368 57.1444 110.252 56.9866C110.428 56.9616 110.526 56.9453 110.609 56.9287C110.692 56.9121 110.758 56.8957 110.825 56.8789" stroke="#131313" stroke-width="0.997868" stroke-linecap="round"/>
<path d="M64.7684 50.0397C64.4814 49.195 64.0431 48.452 62.8429 47.4359C62.5854 47.2467 62.4848 47.1964 62.3576 47.1202C62.2304 47.044 62.0795 46.9435 61.8225 46.7891" stroke="#131313" stroke-width="0.997868" stroke-linecap="round"/>
<path d="M77.9233 49.6335C78.1433 49.1434 78.546 48.3363 79.3003 47.3175C79.9042 46.5017 80.4446 46.3169 80.7664 46.1211C80.8514 46.0787 80.9352 46.0284 81.0119 45.9941C81.0886 45.9598 81.1557 45.9431 81.2248 45.9258" stroke="#131313" stroke-width="0.997868" stroke-linecap="round"/>
<path d="M51.7802 51.5488C51.7966 51.9285 51.8012 51.9229 51.8229 52.2386C51.8393 52.4774 51.8779 52.7144 51.9211 54.0268C51.9596 55.1977 52.0239 57.4291 52.0672 58.6277C52.1104 59.8263 52.1319 59.9872 52.1537 60.5485C52.1754 61.1098 52.1969 62.0431 51.1742 62.4489C50.1515 62.8548 48.1453 62.7368 47.076 62.6612C46.0066 62.5856 45.8779 62.5535 45.6809 60.5755C45.4839 58.5975 45.2264 54.7891 45.0976 52.8738L44.9819 51.1055" stroke="#131313" stroke-width="0.997868" stroke-linecap="round"/>
<path d="M90.499 51.1576C90.499 51.1791 90.499 50.9605 90.6277 52.8758C90.7565 54.791 91.0139 58.5994 91.2109 60.5774C91.4079 62.5554 91.5367 62.5876 92.606 62.6632C93.6754 62.7387 95.6815 62.8568 96.7043 62.4509C97.727 62.045 97.7055 61.1117 97.6837 60.5504C97.662 59.9892 97.6405 59.8282 97.5973 58.6296C97.554 57.4311 97.4897 55.1997 97.4511 54.0287C97.408 52.7163 97.3694 52.4793 97.353 52.2406C97.3313 51.9248 97.2719 50.9617 97.2554 50.582" stroke="#131313" stroke-width="0.997868" stroke-linecap="round"/>
<path d="M78.2896 59.3181C78.6437 58.8974 79.1681 58.1012 80.2277 57.1165C81.0454 56.3566 82.5282 55.176 83.8917 54.2271C85.2552 53.2782 86.4792 52.6243 87.4535 52.1784C89.0807 51.4338 89.9242 51.2732 90.2694 51.1975C91.4686 50.9346 92.4424 50.7494 93.1921 50.5454C93.3122 50.5127 93.3956 50.4943 94.1346 50.4857C94.8736 50.477 96.2653 50.477 97.1583 50.5022C98.8542 50.5499 99.2886 50.7301 99.941 50.9168C100.514 51.0809 101.471 51.3388 101.941 51.5098C102.342 51.6559 102.61 51.7971 103.142 52.0171C104.138 52.4292 104.421 52.6101 104.887 52.9317C105.2 53.148 105.891 53.7909 106.488 54.3539C107.117 54.9474 107.301 55.4707 107.488 55.8111C107.649 56.1036 107.793 56.4544 107.945 56.7679C107.997 56.9117 108.047 57.1317 108.115 57.419C108.149 57.5555 108.182 57.6728 108.217 57.8954" stroke="#131313" stroke-width="0.997868" stroke-linecap="round"/>
<path d="M64.4106 59.8037C64.1167 59.1234 63.9936 58.7227 63.7614 58.2653C63.501 57.7523 63.1429 57.3287 62.8717 56.9189C62.343 56.12 61.7192 55.6106 61.2625 55.2929C60.7452 54.9332 60.0187 54.5119 59.4359 54.1012C59.1437 53.8952 58.6553 53.6603 58.028 53.4042C57.5593 53.2129 57.123 53.0102 56.8269 52.7926C56.4704 52.5306 55.9295 52.5133 55.6045 52.4362C55.2972 52.3633 54.8624 52.2198 54.5671 52.1035C54.2749 51.9884 53.7025 51.8957 53.2288 51.8014C52.8453 51.7251 52.4784 51.6468 51.7287 51.5077C51.2272 51.4147 50.7287 51.3682 50.3577 51.3371C49.857 51.2951 49.6143 51.2289 49.1736 51.1745C48.857 51.1355 48.3623 51.1202 47.9349 51.0817C47.7731 51.0671 47.5711 51.0585 47.0022 51.0352C45.7908 50.9858 44.8778 51.0427 44.4392 51.0659C43.6186 51.1093 43.0352 51.0891 42.8274 51.1276C41.8149 51.3154 40.8843 51.5994 40.3359 51.8005C39.7496 52.0155 39.0594 52.2031 38.6094 52.3963C38.077 52.6248 37.7276 52.791 37.348 53.0076C36.6974 53.3788 36.4571 53.4875 36.2249 53.7274C35.9468 54.0146 35.6064 54.2918 35.3888 54.5479C35.1844 54.7885 35.0176 55.1741 34.7931 55.5688C34.5992 55.9097 34.5216 56.165 34.4597 56.413C34.3823 56.6609 34.3048 56.8467 34.2816 57.0315C34.2737 57.155 34.2737 57.3389 34.2737 57.5284" stroke="#131313" stroke-width="0.997868" stroke-linecap="round"/>
<path d="M65.8498 66.8264C65.8347 66.8415 65.8196 66.8566 67.4649 66.804C69.1102 66.7514 72.4164 66.6306 74.1195 66.6061C75.8227 66.5817 75.8227 66.6571 75.7699 66.7942C75.5278 67.422 75.2747 67.6938 74.9851 68.1211C74.8112 68.3777 74.5436 68.8658 74.1545 69.5232C73.7141 70.2674 73.1108 71.0013 72.7435 71.6354C72.5403 71.986 72.4081 72.2841 72.2018 72.6654C72.0163 73.0083 71.7979 73.2603 71.6526 73.5501C71.4527 73.949 71.2484 74.3436 71.127 74.3672C70.623 74.4649 70.3971 73.4332 69.9231 72.8673C69.308 72.1328 69.236 71.8595 68.9773 71.5249C68.4745 70.8745 68.1244 70.4285 67.7874 69.9388C67.4743 69.4837 67.2533 68.993 66.7135 68.2096C66.4756 67.8031 66.2624 67.5291 66.1101 67.3159C66.0483 67.2235 66.0182 67.1631 65.9413 67.1009" stroke="#131313" stroke-width="0.997868" stroke-linecap="round"/>
<path d="M71.0287 74.4336C71.0287 74.449 71.0287 74.4644 71.021 74.8463C71.0132 75.2283 70.9978 75.9762 70.9822 76.3962C70.9639 76.8862 70.8735 77.1653 70.7569 77.5308C70.6728 77.7945 70.531 78.0151 70.3216 78.3253C69.8114 79.0816 69.5422 79.1684 69.3122 79.2466C69.1733 79.294 68.6652 79.4016 67.961 79.5728C67.5615 79.67 67.3764 79.6675 67.2676 79.6713C67.1583 79.6752 66.8797 79.6908 66.2941 79.6561C65.9312 79.6346 65.4387 79.552 65.1421 79.5009C64.7576 79.4345 64.5884 79.3639 64.2826 79.1978C63.664 78.8618 63.272 78.4532 63.1476 78.3326C62.9282 78.1199 62.711 77.8225 62.5594 77.5697C62.4249 77.3456 62.3295 76.9594 62.2361 76.5819C62.1267 76.1566 62.0797 75.7582 62.072 75.6301C62.0643 75.5561 62.0488 75.4635 62.033 75.3682" stroke="#131313" stroke-width="0.997868" stroke-linecap="round"/>
<path d="M71.0255 74.4336C71.0255 74.449 71.0255 74.4644 71.0332 74.8463C71.041 75.2283 71.0564 75.9762 71.072 76.3962C71.0903 76.8862 71.1807 77.1653 71.2973 77.5308C71.3814 77.7945 71.5232 78.0151 71.7326 78.3253C72.2428 79.0816 72.512 79.1684 72.742 79.2466C72.8809 79.294 73.389 79.4016 74.0932 79.5728C74.4927 79.67 74.6778 79.6675 74.7866 79.6713C74.8959 79.6752 75.1745 79.6908 75.7601 79.6561C76.123 79.6346 76.6155 79.552 76.9121 79.5009C77.2966 79.4345 77.4658 79.3639 77.7716 79.1978C78.3902 78.8618 78.7822 78.4532 78.9066 78.3326C79.126 78.1199 79.3432 77.8225 79.4948 77.5697C79.6293 77.3456 79.7247 76.9594 79.8181 76.5819C79.9275 76.1566 79.9745 75.7582 79.9822 75.6301C79.9899 75.5561 80.0054 75.4635 80.0212 75.3682" stroke="#131313" stroke-width="0.997868" stroke-linecap="round"/>
<path d="M38.6694 70.2022C38.6426 70.2022 38.0265 70.2022 36.9599 70.2223C36.1856 70.2369 35.5226 70.3373 34.9417 70.371C34.1732 70.4155 33.4653 70.8374 33.1069 71.0396C32.8688 71.174 32.6678 71.6057 32.5447 71.9251C32.4835 72.084 32.5039 72.2968 32.5374 72.5193C32.6065 72.9788 33.4985 73.3758 34.2862 73.7573C34.5898 73.9043 34.8959 73.9067 35.5871 74.0542C36.1604 74.1765 37.1751 74.4426 37.9869 74.607C38.7988 74.7715 39.3743 74.8385 40.1594 74.8729C40.9445 74.9074 41.9216 74.9074 42.5789 74.8873C43.9591 74.8452 44.4397 74.6381 44.8202 74.3945C45.0788 74.2289 45.2128 73.9218 45.3077 73.4164C45.4279 72.7768 45.2814 72.2717 45.2071 72.1165C45.059 71.8068 44.7277 71.5286 44.4841 71.3049C44.389 71.2175 43.5717 70.9749 42.3686 70.6707C41.8923 70.5503 41.7797 70.5539 41.6383 70.5336C41.432 70.504 40.7571 70.433 39.6779 70.2844C38.0484 70.1888 37.644 70.1617 37.3454 70.128C37.2643 70.1211 37.1572 70.1211 37.0469 70.1211" stroke="#131313" stroke-width="0.997868" stroke-linecap="round"/>
<path d="M105.559 69.6436C105.586 69.6436 106.202 69.6436 107.269 69.6637C108.043 69.6783 108.706 69.7787 109.287 69.8124C110.056 69.8569 110.764 70.2788 111.122 70.481C111.36 70.6154 111.561 71.0471 111.684 71.3665C111.745 71.5254 111.725 71.7382 111.691 71.9607C111.622 72.4203 110.73 72.8172 109.943 73.1987C109.639 73.3457 109.333 73.3482 108.642 73.4956C108.068 73.6179 107.054 73.884 106.242 74.0485C105.43 74.2129 104.854 74.2799 104.069 74.3143C103.284 74.3488 102.307 74.3488 101.65 74.3287C100.27 74.2866 99.789 74.0795 99.4086 73.8359C99.15 73.6703 99.0159 73.3632 98.921 72.8578C98.8009 72.2182 98.9474 71.7131 99.0216 71.5579C99.1698 71.2482 99.5011 70.97 99.7446 70.7463C99.8398 70.6589 100.657 70.4163 101.86 70.1121C102.336 69.9917 102.449 69.9953 102.59 69.975C102.797 69.9454 103.472 69.8744 104.551 69.7258C106.18 69.6302 106.585 69.6031 106.883 69.5694C106.964 69.5625 107.072 69.5625 107.182 69.5625" stroke="#131313" stroke-width="0.997868" stroke-linecap="round"/>
<path d="M54.9788 39.7973C54.8972 39.7564 53.6923 39.6538 51.7569 39.4894C50.6297 39.3936 49.4439 39.2204 47.9827 39.1691C47.3576 39.1472 46.9703 39.0974 46.2708 39.0764C44.5722 39.0254 43.5416 38.9738 43.5518 38.7787C43.5808 38.2255 43.7271 37.6569 43.7784 37.2638C43.824 36.9148 43.8507 36.5021 43.9123 36.1407C43.9283 36.0468 43.9534 35.9457 44.0047 35.8523C44.1105 35.6598 45.0377 35.5729 46.3252 35.5522C47.8231 35.5281 49.6398 35.8196 50.1545 35.9123C50.8798 36.043 51.659 36.1497 52.3177 36.201C52.9573 36.2508 53.4914 36.3142 54.2342 36.3454C54.6051 36.361 54.8954 36.397 55.0601 36.4378C55.1643 37.1951 55.1439 38.4359 55.113 38.7438C55.1025 38.9293 55.1025 39.1741 55.0407 39.6118" stroke="#131313" stroke-width="0.997868" stroke-linecap="round"/>
<path d="M89.8864 39.7973C89.968 39.7564 91.1729 39.6538 93.1083 39.4894C94.2355 39.3936 95.4214 39.2204 96.8826 39.1691C97.5077 39.1472 97.8949 39.0974 98.5944 39.0764C100.293 39.0254 101.324 38.9738 101.313 38.7787C101.284 38.2255 101.138 37.6569 101.087 37.2638C101.041 36.9148 101.014 36.5021 100.953 36.1407C100.937 36.0468 100.912 35.9457 100.861 35.8523C100.755 35.6598 99.8275 35.5729 98.54 35.5522C97.0422 35.5281 95.2254 35.8196 94.7107 35.9123C93.9855 36.043 93.2063 36.1497 92.5476 36.201C91.908 36.2508 91.3738 36.3142 90.631 36.3454C90.2601 36.361 89.9699 36.397 89.8051 36.4378C89.7009 37.1951 89.7213 38.4359 89.7522 38.7438C89.7627 38.9293 89.7627 39.1741 89.8246 39.6118" stroke="#131313" stroke-width="0.997868" stroke-linecap="round"/>
<path d="M71.8937 31.2656C71.2714 31.2656 70.2301 31.3688 69.3437 31.5775C68.2083 31.8449 67.1564 31.9942 66.1386 32.2287C65.1243 32.4624 63.9263 32.8291 62.8553 32.9847C61.9284 33.1193 60.9025 33.5045 59.418 33.8962C57.9531 34.2826 54.3717 35.3139 51.713 35.9651M44.1266 39.0686C42.0644 40.4833 39.7426 42.829 38.7779 43.9C37.8148 44.9692 36.8752 46.2186 36.2748 47.2349C35.5334 48.4899 35.049 49.8146 34.555 50.9606C34.0326 52.1724 32.9696 54.5425 32.2356 57.159C31.7482 58.8962 31.7126 60.3899 31.5571 61.6969C31.4505 62.5924 31.2967 63.8295 31.1138 64.877C31.0421 65.2875 31.0356 65.7119 30.9575 67.495C30.7596 72.0084 31.0341 75.6618 31.242 76.9868C31.6878 79.8273 32.0753 81.9125 32.3372 83.0132C32.548 83.8992 32.7539 84.8362 32.9884 85.6711C33.0666 85.8806 33.1698 86.087 33.2487 86.2965C33.3277 86.506 33.3793 86.7124 33.4324 86.925" stroke="#131313" stroke-width="0.997868" stroke-linecap="round"/>
<path d="M72.2063 31.2656C73.3429 31.2656 76.0555 31.3688 78.1647 31.4736C80.3529 31.5823 81.684 31.891 82.7816 32.0466C84.1999 32.2476 85.4363 32.6196 86.6902 32.9323C87.6076 33.1611 88.876 33.4514 90.0001 33.7664C91.0237 34.0533 94.3606 35.166 95.6388 35.5053M101.353 38.7566C102.49 39.8437 106.234 43.8203 106.964 45.0194C107.72 46.2591 108.372 47.1035 109.255 49.308C109.811 50.6981 110.496 53.3105 111.126 55.6971C112.31 60.1766 112.752 62.8429 112.83 64.1398C113.044 67.6857 113.013 70.6931 113.143 72.6154C113.169 73.2634 113.221 73.8419 113.299 75.754C113.325 77.4598 113.325 80.6586 113.325 83.9544" stroke="#131313" stroke-width="0.997868" stroke-linecap="round"/>
<path d="M31.6438 79.2542C31.8729 79.7516 32.3324 80.3642 32.7935 80.9791C33.3236 81.6859 34.0573 82.704 34.7505 83.2061C35.9276 84.0586 37.7052 84.9724 38.7979 85.4129C39.61 85.7402 40.7727 86.0088 42.1176 86.4492C42.8331 86.6835 43.8425 86.6996 46.4282 86.7958C48.3259 86.8664 50.4785 87.1222 52.2811 87.2178C52.9831 87.255 53.2478 87.3514 55.4557 87.3905C57.6637 87.4297 61.8055 87.4297 64.0342 87.4677C66.4552 87.509 67.8266 87.66 69.8964 87.622C70.7888 87.6056 71.3582 87.508 72.7157 87.4498C74.0733 87.3917 76.2013 87.3537 77.5824 87.2961C80.4712 87.1757 81.9172 86.9691 83.1285 86.8545C83.5681 86.8129 84.2524 86.7779 85.7257 86.6064C89.4461 86.1731 91.9027 85.7796 92.342 85.703C93.9265 85.4268 95.6957 85.1659 96.6036 85.0312C97.4999 84.8982 98.579 84.7813 99.309 84.6667C100.494 84.4808 101.877 84.3598 103.853 83.7858C105.404 83.3351 106.333 83.1324 107.005 82.9971C107.994 82.7978 108.788 82.4023 109.577 82.0195C110.358 81.6403 110.978 80.9837 111.439 80.408C111.939 79.7841 112.132 79.0654 112.342 78.3549C112.4 78.181 112.438 78.029 112.515 77.8367C112.591 77.6444 112.705 77.4165 112.938 77.0664" stroke="#131313" stroke-width="0.997868" stroke-linecap="round"/>
<path d="M70.926 29.094C70.926 28.8097 70.8787 27.8105 70.7832 26.3764C70.7351 25.7949 70.6877 25.5107 70.6633 25.2458C70.6389 24.9809 70.6389 24.7441 70.6389 24.5" stroke="#131313" stroke-width="0.997868" stroke-linecap="round"/>
<path d="M70.7826 20.625C69.5968 20.625 67.0069 20.7198 63.4272 20.7923C61.6913 20.8274 59.691 21.1016 57.4155 21.4612M22.9108 55.4709C22.6508 56.6296 22.3075 59.1426 22.1159 60.2911C21.8937 61.6227 21.8768 62.6828 21.6615 64.0941C21.3144 66.3685 20.9207 69.1345 20.5848 71.4609C20.2178 74.0025 20.2977 75.457 20.1778 78.3232C19.9969 82.6477 19.7234 84.7426 19.6509 85.6556C19.4213 88.5475 19.6258 93.6462 19.9603 94.5557C20.3081 95.5014 21.3428 96.5146 23.4474 97.7141C24.3872 98.2497 26.2641 98.6709 28.7822 99.1282C30.4736 99.4353 31.2514 99.4404 32.5657 99.7024C33.8303 99.9545 34.7916 100.109 37.0563 100.182C39.7871 100.269 41.6855 100.349 42.4464 100.421C43.9587 100.564 47.2155 99.9716 50.7557 99.2301C52.0224 98.9648 52.2114 98.915 52.3801 98.7484C52.7698 98.3638 52.8847 97.7679 52.9565 95.9167C52.9809 94.3023 52.9809 91.3177 52.9572 89.6854C52.9335 88.0531 52.8862 87.8636 52.5502 87.3812M34.3265 30.4885L32.2908 32.125" stroke="#131313" stroke-width="0.997868" stroke-linecap="round"/>
<path d="M70.7676 20.4958C71.1057 20.4477 71.9771 20.35 74.0339 20.1081C76.7386 19.7901 78.9718 20.1548 80.3496 20.4207M105.535 30.7307C106.415 31.4839 108.944 33.4126 109.673 33.997C110.749 34.8606 112.421 36.5675 113.489 38.4123M119.006 53.0598C119.066 53.8942 119.923 58.0369 120.167 59.2777C120.437 60.6501 120.555 61.9248 120.653 63.1146C120.791 64.803 120.992 66.6316 121.284 69.1817C121.408 70.2687 121.381 71.0587 121.454 75.0544C121.522 78.761 121.479 85.8787 121.431 89.6653C121.383 93.4519 121.287 93.6923 121.141 93.9124C120.577 94.7645 119.929 95.3944 118.039 96.5827C116.142 97.7752 114.006 98.1631 112.668 98.6498C111.068 99.2315 110.019 99.4775 108.854 99.5985C107.831 99.7048 106.767 99.9147 105.528 100.036C104.096 100.175 103.124 100.206 101.981 100.327C100.843 100.447 99.577 100.594 98.6043 100.667C97.4362 100.756 96.1758 100.885 94.5269 100.815C93.2273 100.759 92.9204 99.2385 92.3367 98.1944C91.7843 97.2062 91.3174 96.3241 90.9997 95.5459C90.6653 94.7269 90.3935 93.8468 90.2223 92.7794C89.8092 91.0766 89.423 89.1458 89.1534 87.7745C89.1286 87.5312 89.1286 87.2426 89.1286 86.9454" stroke="#131313" stroke-width="0.997868" stroke-linecap="round"/>
<path d="M68.1513 20.6048C67.9586 20.6476 67.6344 20.6697 67.2722 20.659C67.0893 20.6536 66.5982 20.412 65.8578 20.0718C65.2214 19.7793 65.1021 19.3301 64.9714 19.0805C64.7959 18.7456 64.8412 18.3247 64.8143 17.9074C64.7888 17.5123 64.9594 16.974 65.1812 16.3446C65.2417 16.1728 65.3919 16.03 65.5594 15.8679C65.6673 15.7635 66.1244 15.5763 66.9177 15.3062C67.6347 15.062 68.2571 15.0879 68.6409 15.0933C68.8432 15.0961 68.9941 15.1204 69.3062 15.1471C69.8576 15.1945 70.3886 15.3362 70.7074 15.428C71.3149 15.603 72.2059 16.0712 72.499 16.2825C72.8186 16.5129 73.1581 17.0006 73.3432 17.3583C73.5149 17.6899 73.4735 18.3825 73.3174 19.0883C73.2256 19.2729 73.1279 19.4248 73.02 19.5814C72.9656 19.6523 72.9121 19.7059 72.8569 19.761" stroke="#131313" stroke-width="0.997868" stroke-linecap="round"/>
<path d="M66.2899 15.6855C66.066 15.1554 65.496 14.3811 64.7193 13.735C63.9046 13.0574 62.6554 12.6607 61.7154 12.3034C60.8503 11.9744 60.3411 11.8006 59.6773 11.7079C58.5509 11.5507 57.4833 12.1846 56.8023 12.7583C55.7507 13.6441 56.1053 14.8449 56.0544 15.5186C55.9648 16.7039 56.6943 18.1715 57.198 19.1087C57.4796 19.6326 57.8821 20.0587 58.4245 20.3885C58.866 20.6569 59.3349 20.5937 59.9681 20.6956C60.3988 20.7367 61.6983 20.7778 62.4949 20.7066C62.5873 20.6759 62.6885 20.6354 62.8542 20.5324" stroke="#131313" stroke-width="0.997868" stroke-linecap="round"/>
<path d="M66.2897 15.2526C66.1683 15.2931 66.0247 15.2937 65.8817 15.2226C65.4939 15.0295 65.1878 13.9299 64.5844 12.7016C63.8353 11.1766 64.1019 10.5321 64.1013 9.30597C64.1011 8.89075 64.2442 8.6682 64.3461 8.49488C64.4678 8.28773 64.7946 8.09578 65.3851 7.89178C66.2334 7.59874 67.4487 7.58348 68.5015 7.60373C69.1632 7.61645 69.5194 7.88902 69.9489 8.07369C70.5784 8.34438 71.4815 9.07436 71.8005 9.4431C71.9589 9.62619 71.995 10.1161 72.0971 11.2852C72.2889 13.4794 72.1797 14.6618 72.1898 14.2535C72.2042 13.6718 72.4447 12.9065 72.8119 11.719C73.1291 10.6931 74.4203 9.75907 75.3979 9.14921C76.2029 8.64709 77.9346 8.68784 78.9573 8.74888C79.3937 8.77493 79.8672 9.15658 80.1445 9.4842C80.4023 9.78878 80.4206 10.6254 80.5642 11.6187C80.7152 12.6637 80.2402 13.6096 79.5663 14.5839C78.3582 16.3303 77.5002 16.4564 76.9876 16.7549C76.4134 17.0892 76.067 17.1742 75.6888 17.3074C75.3666 17.4208 75.105 17.5632 75.043 17.5942C74.6232 17.8041 76.2449 17.1963 77.0026 17.0527C77.7209 16.9166 78.3137 17.0926 78.5383 17.215C78.826 17.481 78.9076 17.7264 78.969 18.0414C78.9899 18.2755 78.9899 18.6602 78.9899 19.0565" stroke="#131313" stroke-width="0.997868" stroke-linecap="round"/>
<path d="M22.1269 43.3771C22.015 43.5685 21.9663 44.0427 21.9663 44.3585C21.9665 44.7831 22.0491 45.1037 22.1872 45.3742C22.3537 45.7005 22.9452 45.9895 23.2699 46.1476C23.6555 46.3352 24.3291 46.3741 24.8031 46.429C25.3331 46.4905 26.2514 46.3027 27.0072 45.9447C27.2768 45.8169 27.3241 45.518 27.4353 45.2168C27.6519 44.6306 27.6797 43.9214 27.6839 43.4266C27.6887 42.864 27.5457 42.3568 27.4089 42.0453C27.2125 41.5981 26.9732 41.442 26.7474 41.1829C26.6397 41.0593 26.4457 40.9744 26.1523 40.8756C25.7524 40.7408 24.8934 40.8323 23.9238 40.9789C23.2346 41.0831 22.8481 41.3995 22.5302 41.7156C22.184 42.5428 22.0858 43.2703 22.0904 43.6758C22.0967 43.7784 22.1107 43.8854 22.125 43.9957" stroke="#131313" stroke-width="0.997868" stroke-linecap="round"/>
<path d="M119.046 45.7852C119.03 46.0063 119.194 46.4539 119.332 46.7376C119.518 47.1193 119.733 47.3712 119.976 47.5539C120.268 47.7743 120.927 47.7749 121.288 47.7746C121.717 47.7743 122.339 47.5141 122.789 47.3558C123.293 47.1788 124.036 46.6077 124.558 45.9546C124.745 45.7217 124.656 45.4323 124.624 45.1128C124.562 44.4909 124.276 43.8413 124.063 43.3947C123.821 42.8868 123.47 42.4936 123.211 42.2735C122.838 41.9576 122.555 41.9222 122.238 41.7882C122.087 41.7243 121.876 41.733 121.569 41.7727C121.15 41.8268 120.418 42.2854 119.611 42.8421C119.037 43.2378 118.828 43.6915 118.681 44.1149C118.732 45.0102 118.963 45.7072 119.144 46.0696C119.195 46.1591 119.255 46.2492 119.316 46.342" stroke="#131313" stroke-width="0.997868" stroke-linecap="round"/>
<path d="M21.868 43.2905C21.486 43.1898 20.84 43.0813 19.588 43.1551C18.554 43.216 16.7228 43.4796 15.7127 43.6177C14.5685 43.7741 14.1962 43.9722 13.7746 44.2121C13.2857 44.4904 13.1101 44.9227 12.9241 45.4556C12.6932 46.1169 12.8185 46.7043 12.7701 47.1255C12.6939 47.7877 13.0561 48.8589 13.2704 49.1832C13.5331 49.5807 14.0507 49.7607 14.7637 50.0057C15.358 50.2099 16.288 50.1587 16.6112 50.1509C17.0005 50.1414 17.8072 50.0434 18.5441 49.8586C19.0276 49.7374 19.5404 49.3932 19.9074 49.1935C20.2264 49.02 20.7908 48.5585 21.4154 48.031C21.9087 47.6145 22.076 47.4275 22.2499 47.233C22.4368 47.024 22.5696 46.7862 22.6584 46.6707C22.9692 46.2669 21.8102 47.5833 21.6023 47.8927C21.2412 48.4303 20.6635 49.2305 20.2549 49.7777C19.96 50.1727 19.8836 51.0448 19.8063 52.1931C19.7431 53.134 19.9412 53.6123 20.0743 53.8475C20.6161 54.8051 20.9183 55.2156 21.21 55.3433C21.3619 55.4097 21.5872 55.5003 21.9303 55.5585C22.3344 55.627 23.1414 55.5457 24.0615 55.4397C24.7079 55.3653 25.2306 54.796 25.5611 54.3049C25.8386 53.8926 25.7553 53.2034 25.7167 52.6439C25.6368 51.4867 25.5953 51.0238 25.4857 50.7075C25.2672 50.077 25.0561 48.991 24.9841 48.6504C24.8887 48.1987 24.7815 47.8313 24.6989 47.5673C24.6743 47.4888 24.6692 47.3933 24.6455 47.3678C24.6218 47.3422 24.5869 47.3876 24.5767 47.4711C24.5521 47.6736 24.7274 48.1632 25.042 48.9509C25.2136 49.3805 25.466 49.8469 25.6718 50.3107C26.3069 51.741 26.4248 52.1211 26.638 52.6016C26.8613 53.1047 27.2715 53.2484 27.5452 53.3987C27.9503 53.6211 28.3006 53.5546 28.6647 53.6105C28.8952 53.6459 29.0924 53.6169 29.5517 53.5845C30.6564 53.5066 31.5789 53.3076 31.9233 53.1599C32.338 52.9821 32.4957 52.64 32.7689 51.9934C32.948 51.5695 32.9109 50.9652 32.8488 50.1701C32.8249 49.8636 32.5184 49.4099 32.0961 48.854C31.6447 48.26 31.1823 47.5917 30.9086 47.2398C30.6591 46.9192 30.1512 46.5165 29.1882 45.9331C28.724 45.6518 28.5421 45.4728 28.2864 45.3546C28.175 45.3031 28.0409 45.3176 27.9947 45.337C27.6314 45.4898 28.666 45.7024 29.2242 45.9863C30.027 46.3946 31.0923 46.5135 31.669 46.6101C31.8892 46.647 32.0699 46.6204 32.5736 46.5616C32.9969 46.5122 33.7612 46.4274 34.2634 46.3283C35.3137 46.1208 35.5894 45.6964 35.9858 45.2535C36.3065 44.895 36.5153 44.2593 36.6 43.7858C36.7214 43.1071 36.2147 42.4567 35.8017 41.8635C35.5666 41.5258 35.2215 41.4706 34.7991 41.2245C34.0851 40.8084 33.4507 40.5329 33.0583 40.4607C32.4545 40.3497 31.8067 40.3483 31.2922 40.3467C30.8478 40.3452 30.5844 40.3698 30.2866 40.3879C28.9385 40.4701 28.3822 40.8621 27.8798 41.1672C27.7664 41.2361 27.7232 41.2909 27.7018 41.3419C27.6804 41.3929 27.6874 41.4464 27.7579 41.4652C28.1397 41.5674 28.6388 41.1873 29.7689 40.5806C30.2844 40.3038 30.5846 40.0676 30.9762 39.8113C31.5853 39.4128 31.8238 39.1371 32.5566 38.2408C33.0481 37.6397 33.1547 36.9045 33.2617 36.6144C33.3 36.5105 33.2821 36.2964 33.3159 35.9768C33.3523 35.6338 33.2414 34.7139 33.0701 33.555C32.965 32.8435 32.5504 32.6673 32.0546 32.2863C31.6641 31.9862 31.2592 31.7225 30.7617 31.3761C30.0972 30.9133 29.4377 30.9151 29.1483 30.9179C28.9977 30.9194 28.5655 30.9593 27.7969 31.209C26.782 31.5387 26.3464 32.1959 26.2325 32.3201C25.9228 32.6581 25.5512 33.2437 25.286 33.6523C25.1444 33.8704 24.9846 34.1856 24.7851 34.7037C24.4662 35.5321 24.3596 36.3544 24.2954 36.8089C24.2332 37.2485 24.2219 37.6237 24.2267 38.7122C24.2295 39.3316 24.3976 39.7176 24.5401 39.8637C24.6016 39.9268 24.6488 39.9598 24.6812 39.9426C24.7136 39.9254 24.7317 39.855 24.713 39.7612C24.6699 39.5436 24.5474 39.3835 24.4597 39.1833C24.2917 38.7995 24.1031 38.1804 23.6509 37.3836C23.0415 36.3099 22.3714 35.7513 22.1993 35.5886C21.8997 35.3052 21.3447 35.0205 20.636 34.8092C20.2917 34.7065 19.9869 34.7418 19.761 34.7438C19.5218 34.7459 18.8993 34.8009 18.0282 34.9073C17.0508 35.0267 16.7565 35.2583 16.4707 35.3844C16.0046 35.59 15.619 36.2292 15.4027 36.6285C15.2177 36.9699 15.1818 37.4114 15.1092 38.019C15.0526 38.4923 15.1229 39.3943 15.2572 40.427C15.3795 41.3684 15.6904 41.6478 15.8831 41.8632C16.192 42.2085 16.6615 42.5783 17.5991 42.9853C18.6808 43.4549 19.0394 43.3149 19.2758 43.3324C19.5078 43.3495 19.7546 43.3183 20.0569 43.3199C20.427 43.3132 20.7267 43.2878 20.9575 43.2783C21.1331 43.2625 21.4274 43.2242 21.7306 43.1847" stroke="#131313" stroke-width="0.997868" stroke-linecap="round"/>
<path d="M118.774 45.8147C118.387 45.8916 117.758 46.0772 116.665 46.6921C115.763 47.1999 114.232 48.2394 113.385 48.8061C112.425 49.448 112.177 49.7892 111.903 50.1896C111.585 50.654 111.617 51.1196 111.683 51.68C111.766 52.3757 112.135 52.8488 112.277 53.2486C112.498 53.8772 113.293 54.6814 113.628 54.879C114.038 55.1212 114.582 55.0562 115.331 54.964C115.954 54.8871 116.768 54.4336 117.055 54.2849C117.401 54.1058 118.083 53.6642 118.664 53.1753C119.046 52.8544 119.356 52.3203 119.598 51.98C119.809 51.6843 120.114 51.0221 120.444 50.2742C120.705 49.6837 120.774 49.4423 120.845 49.1912C120.921 48.9215 120.936 48.6495 120.966 48.5068C121.068 48.0077 120.603 49.6988 120.552 50.068C120.463 50.7095 120.294 51.6819 120.167 52.3529C120.075 52.8371 120.388 53.6545 120.822 54.7206C121.177 55.5941 121.565 55.9372 121.788 56.0902C122.694 56.7137 123.146 56.9502 123.464 56.9371C123.63 56.9303 123.872 56.913 124.206 56.8149C124.599 56.6994 125.289 56.2728 126.069 55.7744C126.618 55.4242 126.838 54.6834 126.92 54.0971C126.989 53.6049 126.612 53.0219 126.332 52.5359C125.753 51.5307 125.513 51.1329 125.276 50.8966C124.803 50.4256 124.138 49.5418 123.924 49.2672C123.64 48.903 123.383 48.6198 123.193 48.4187C123.136 48.3589 123.09 48.2752 123.057 48.2627C123.025 48.2501 123.013 48.3062 123.041 48.3857C123.107 48.5785 123.479 48.9418 124.107 49.512C124.45 49.823 124.881 50.1316 125.269 50.4583C126.467 51.4657 126.74 51.7557 127.142 52.0942C127.563 52.4486 127.995 52.398 128.306 52.4131C128.768 52.4356 129.054 52.2223 129.406 52.113C129.628 52.0438 129.793 51.9313 130.191 51.701C131.15 51.1469 131.892 50.5638 132.137 50.2801C132.432 49.9385 132.424 49.5619 132.386 48.861C132.361 48.4015 132.063 47.8746 131.659 47.1871C131.503 46.922 131.029 46.6485 130.406 46.3339C129.74 45.9977 129.031 45.5996 128.631 45.4033C128.266 45.2244 127.633 45.0849 126.512 44.9825C125.971 44.9331 125.73 44.8519 125.448 44.8577C125.325 44.8602 125.211 44.932 125.178 44.9696C124.918 45.2662 125.941 45.004 126.568 45.0146C127.468 45.0298 128.478 44.6699 129.039 44.504C129.253 44.4407 129.404 44.3376 129.831 44.064C130.189 43.8341 130.839 43.423 131.247 43.1138C132.1 42.4671 132.162 41.9648 132.324 41.393C132.456 40.9302 132.365 40.2673 132.233 39.8046C132.045 39.1413 131.305 38.7787 130.674 38.4265C130.314 38.2259 129.98 38.3275 129.492 38.2914C128.668 38.2302 127.977 38.2606 127.593 38.3677C127.001 38.5324 126.418 38.8151 125.955 39.039C125.555 39.2324 125.329 39.3699 125.07 39.5167C123.894 40.1813 123.565 40.7775 123.248 41.2719C123.176 41.3834 123.161 41.4516 123.164 41.5069C123.167 41.5621 123.197 41.6071 123.269 41.5932C123.657 41.5177 123.939 40.9573 124.689 39.9168C125.031 39.4421 125.197 39.0982 125.437 38.6963C125.81 38.0711 125.903 37.7188 126.169 36.592C126.348 35.8364 126.121 35.1287 126.09 34.8211C126.079 34.711 125.969 34.5263 125.86 34.2243C125.742 33.9 125.239 33.1217 124.577 32.155C124.171 31.5615 123.721 31.5849 123.109 31.4596C122.626 31.361 122.147 31.3013 121.548 31.2079C120.748 31.0832 120.156 31.3737 119.897 31.5031C119.762 31.5704 119.391 31.7957 118.809 32.357C118.042 33.098 117.938 33.8796 117.89 34.0412C117.76 34.4807 117.682 35.17 117.623 35.6535C117.591 35.9115 117.586 36.2649 117.634 36.818C117.71 37.7024 117.974 38.4882 118.116 38.925C118.253 39.3473 118.407 39.6896 118.888 40.6658C119.162 41.2214 119.482 41.4947 119.674 41.5636C119.757 41.5933 119.814 41.6023 119.836 41.5727C119.857 41.543 119.843 41.4719 119.785 41.3957C119.651 41.219 119.471 41.1288 119.304 40.9872C118.985 40.7159 118.544 40.242 117.788 39.7239C116.77 39.0258 115.923 38.8173 115.697 38.7465C115.303 38.623 114.68 38.6103 113.95 38.7309C113.596 38.7895 113.337 38.9548 113.135 39.0555C112.921 39.1622 112.386 39.4845 111.649 39.9618C110.823 40.4974 110.66 40.8346 110.458 41.0731C110.129 41.4622 110.063 42.2057 110.043 42.6595C110.027 43.0474 110.188 43.46 110.389 44.0379C110.545 44.4882 111.004 45.2682 111.577 46.1376C112.099 46.9302 112.501 47.0451 112.769 47.1543C113.198 47.3293 113.782 47.456 114.803 47.411C115.981 47.3591 116.242 47.0762 116.462 46.9883C116.678 46.902 116.886 46.7658 117.159 46.6348C117.489 46.4666 117.747 46.3124 117.95 46.2028C118.101 46.1116 118.349 45.9482 118.604 45.7799" stroke="#131313" stroke-width="0.997868" stroke-linecap="round"/>
<path d="M57.1007 21.6349C57.1007 21.3617 56.9797 20.7513 56.6589 19.9576C56.4096 19.3407 56.1548 18.7349 55.5297 17.1043C54.9609 15.6204 53.7113 13.7855 53.2535 13.0531C52.8762 12.4497 52.276 11.8314 51.2893 10.6765C49.4582 8.53328 47.7244 7.24677 47.2056 6.91131C46.1604 6.23547 44.9124 5.322 43.6494 4.52964C41.5852 3.2347 40.6357 2.96829 39.5226 2.54163C39.1194 2.38709 38.8319 2.38719 38.5579 2.43256C37.7829 2.56087 36.821 3.6942 36.0525 4.34083C35.5584 4.75658 35.3509 5.43932 34.861 6.3238C34.386 7.18139 34.097 8.73251 33.7918 10.3195C33.5082 11.7943 33.4536 12.3447 33.3014 13.4115C33.1325 14.5963 33.1786 15.548 33.1635 17.7665C33.1531 19.2894 33.1181 21.6184 33.1177 22.9089C33.117 24.6899 33.2996 25.4184 33.3771 26.1086C33.4412 26.6805 33.6662 27.466 33.8198 28.0489C33.9482 28.5368 34.064 29.026 34.1864 29.5154C34.2473 29.7592 34.3087 30.0048 34.3546 30.2486C34.3701 30.3715 34.3701 30.4924 34.3701 30.6171" stroke="#131313" stroke-width="0.997868" stroke-linecap="round"/>
<path d="M80.7195 20.5921C80.7233 20.3029 80.8657 19.6583 81.2317 18.8226C81.5161 18.1731 81.8065 17.5353 82.5208 15.818C83.1708 14.2551 84.5789 12.3305 85.0956 11.5617C85.5214 10.9283 86.1941 10.2824 87.3018 9.07394C89.3576 6.83133 91.2938 5.49442 91.8724 5.14679C93.0381 4.44643 94.4317 3.49742 95.8401 2.67686C98.1418 1.33584 99.196 1.06759 100.433 0.632059C100.882 0.474306 101.2 0.478598 101.502 0.530629C102.358 0.677774 103.406 1.89177 104.248 2.58763C104.788 3.03503 105.008 3.76095 105.538 4.70458C106.052 5.61953 106.35 7.26608 106.665 8.95088C106.959 10.5166 107.011 11.1 107.165 12.2319C107.335 13.4888 107.271 14.4958 107.257 16.845C107.247 18.4576 107.253 20.9241 107.236 22.2905C107.211 24.1762 106.999 24.9449 106.904 25.6746C106.825 26.2792 106.565 27.1076 106.387 27.7226C106.238 28.2373 106.103 28.7535 105.961 29.27C105.89 29.5272 105.819 29.7864 105.765 30.0439C105.746 30.1737 105.744 30.3018 105.742 30.4338" stroke="#131313" stroke-width="0.997868" stroke-linecap="round"/>
<path d="M101.424 4.81641C101.095 4.83273 100.603 4.93116 100.099 5.12876C99.5938 5.32648 98.8897 5.91743 98.4085 6.32376C97.8827 6.76769 97.4365 7.1065 96.8264 7.71587C96.6193 7.92277 96.0541 8.45533 95.2308 9.27862C94.1643 10.3451 93.5112 11.0803 93.2313 11.3934C92.7996 11.8762 92.3439 12.4622 91.7726 13.3288C91.2854 14.0679 91.0718 14.4269 90.7913 14.8058C90.1899 15.6182 89.8688 16.1887 89.6364 16.6366C89.3609 17.1673 88.9281 17.8724 88.6808 18.3252C88.0898 19.4074 87.9873 19.7856 87.8063 20.1729C87.74 20.4622 87.6084 20.7907 87.4435 21.1705C87.4101 21.2536 87.3938 21.3189 87.377 21.3862" stroke="#131313" stroke-width="0.997868" stroke-linecap="round"/>
<path d="M96.3696 8.32831C96.9835 8.22858 97.728 8.08501 98.9724 7.84924C99.8565 7.68173 100.55 7.61218 101.068 7.47634C101.56 7.34705 102.157 7.2107 102.73 7.11763C102.856 7.09706 102.377 7.79357 101.776 8.54517C101.181 9.2887 100.57 9.80098 100.233 10.1612C99.8103 10.6116 99.3812 10.8343 99.1142 11.0286C98.8877 11.1935 98.6203 11.351 98.1911 11.5655C97.7034 11.8093 97.4589 12.0818 97.4372 12.2103C97.3473 12.7426 98.5748 12.9269 98.9045 13.0704C99.479 13.3206 100.365 13.643 100.667 13.8085C100.913 13.9427 101.254 13.9877 101.891 14.2734C102.302 14.458 103.013 14.8302 103.604 15.1479C103.69 15.1938 103.748 15.2197 103.784 15.2627C103.82 15.3056 103.834 15.3624 103.757 15.3916C103.523 15.4795 103.276 15.435 103.155 15.4565C103.021 15.4802 102.351 15.5348 100.646 15.6493C99.5397 15.7237 97.9352 15.7071 97.0598 15.7215C95.6844 15.7442 95.0234 15.7789 94.9161 15.8217C94.8622 15.8432 94.823 15.8928 94.8082 15.9857C94.7389 16.4198 95.0216 16.7087 95.7646 18.3868C96.0767 19.0917 96.4113 19.5878 96.619 20.0172C96.8892 20.5762 97.0858 21.1937 97.3572 21.9516C97.5231 22.4147 97.6016 22.8556 97.6947 23.3426C97.7167 23.4581 97.7306 23.5433 97.7024 23.6084C97.6742 23.6736 97.6033 23.7161 97.51 23.7239C97.123 23.756 96.6172 23.4462 95.9561 23.1378C95.7716 23.0517 95.583 22.9153 95.1057 22.7085C94.2586 22.3417 93.3783 22.1128 92.8343 22.0055C92.6151 21.9623 92.5173 21.9125 91.9768 21.7983C91.4362 21.6842 90.4575 21.4998 89.9107 21.3835C88.8837 21.1651 88.1182 20.9522 87.7739 20.8731C87.6875 20.8516 87.6024 20.8232 87.5302 20.8015C87.458 20.7798 87.4012 20.7656 87.3428 20.751" stroke="#131313" stroke-width="0.997868" stroke-linecap="round"/>
<path d="M38.4346 6.03125C38.4602 6.03125 38.6403 6.10824 39.1625 6.39813C40.0848 6.9101 40.7404 7.42994 40.9669 7.62417C41.4247 8.01673 42.0369 8.57043 42.296 8.77185C42.6068 9.01335 42.9172 9.21825 43.1842 9.47158C43.4527 9.72642 43.5666 9.97028 44.0515 10.4944C44.3409 10.8073 44.6281 11.213 44.9077 11.6548C45.4239 12.4703 45.9386 12.9901 46.2294 13.3204C46.8002 13.9686 46.9488 14.3503 47.3431 14.9516C47.9622 15.8959 48.4925 16.5037 48.5827 16.6585C48.8874 17.1812 49.075 17.5139 49.3408 17.9284C49.516 18.2017 49.6715 18.486 49.9174 18.9647C50.2465 19.6051 50.513 20.2079 50.6506 20.5602C50.7818 20.8958 50.8637 21.3231 50.994 21.8492C51.0457 21.9989 51.0978 22.1416 51.1431 22.3034C51.1627 22.3753 51.1756 22.4266 51.1888 22.4795" stroke="#131313" stroke-width="0.997868" stroke-linecap="round"/>
<path d="M44.1044 10.8283C44.1355 10.8283 44.0894 10.8128 42.7841 10.7815C41.5413 10.7517 39.1187 10.7502 37.8165 10.75C36.4056 10.7497 36.2316 10.7968 36.153 10.8514C35.963 10.9834 36.6513 11.344 37.7834 11.8209C38.5384 12.139 39.9356 12.7453 40.6865 13.0883C41.6478 13.5274 41.9071 13.6666 42.9627 14.2606C43.8041 14.7341 44.104 14.7803 44.1668 14.8897C44.2367 15.0115 43.7944 15.5294 42.6244 16.7702C41.8315 17.611 40.5538 18.8029 39.7584 19.52C38.2108 20.9152 37.5646 21.2421 37.5561 21.3207C37.5128 21.7222 38.4553 21.1028 39.6452 20.8047C39.9468 20.7292 40.1633 20.6483 40.7877 20.5074C41.4121 20.3664 42.4369 20.1646 43.3685 19.9131C44.3002 19.6616 45.1076 19.3666 45.5701 19.1913C46.0327 19.016 46.1258 18.9694 46.1738 18.992C46.5363 19.1626 45.8153 19.9237 45.6266 20.4015C45.4958 20.7327 45.2351 21.2548 44.9846 21.9822C44.5853 23.1416 44.5599 23.4837 44.559 23.7905C44.5588 23.8541 44.6521 23.8771 44.7307 23.8853C44.8093 23.8935 44.9025 23.878 45.5017 23.738C46.1009 23.598 47.2034 23.3341 47.8412 23.167C48.8672 22.8983 49.5108 22.6094 50.0943 22.4429C50.1893 22.4194 50.2514 22.3883 50.3145 22.3568C50.3775 22.3253 50.4397 22.2942 50.6448 22.2622" stroke="#131313" stroke-width="0.997868" stroke-linecap="round"/>
<path d="M58.4207 87.3481C58.4207 88.157 58.4725 89.2048 58.6816 90.0301C58.8446 90.6736 59.2562 91.7429 59.7404 92.8819C60.2304 94.0345 60.7772 94.9445 61.1702 95.6511C61.5142 96.2695 62.0066 96.985 62.4672 97.7605C63.0185 98.6886 63.684 99.45 64.079 99.9103C64.4718 100.368 65.4101 101.412 66.2913 102.111C67.095 102.748 69.0983 102.91 71.07 102.977C71.9721 103.008 72.9043 102.391 73.6023 101.904C74.3201 101.404 75.602 100.351 76.3664 99.6257C77.0759 98.9527 77.4665 98.1484 78.5394 96.4592C79.0629 95.635 79.3278 94.6348 79.7601 93.2097C80.1042 92.0755 80.3512 90.5992 80.4817 89.8533C80.5603 89.2111 80.6657 88.425 80.7439 87.9267C80.7702 87.7695 80.7961 87.5619 80.8229 87.2695" stroke="#131313" stroke-width="0.997868" stroke-linecap="round"/>
<path d="M33.353 99.9844C32.6976 100.737 31.2462 103.109 30.4511 104.65C30.0261 105.473 29.7591 106.97 29.4596 108.149C29.2957 108.691 29.1294 109.125 29.014 109.388C28.964 109.521 28.9314 109.651 28.8977 109.786" stroke="#131313" stroke-width="0.997868" stroke-linecap="round"/>
<path d="M110.183 99.7852C110.314 99.8168 111.233 101.062 112.128 102.257C112.794 103.146 113.151 103.941 113.843 105.093C114.539 106.251 115.195 107.565 115.628 108.413C115.694 108.562 115.759 108.726 115.809 108.875C115.859 109.025 115.892 109.155 115.926 109.29" stroke="#131313" stroke-width="0.997868" stroke-linecap="round"/>
<path d="M27.1176 86.5273C27.1176 86.9805 27.0925 87.5384 27.0421 88.6545C26.9962 89.6697 26.9916 91.5991 26.9912 92.6427C26.9907 94.1171 27.1176 94.7733 27.1806 95.2036C27.2726 95.8323 27.3954 96.5433 27.4967 97.0757C27.5472 97.3281 27.598 97.6074 27.6485 97.8852C27.6739 98.0127 27.699 98.1129 27.7248 98.2162" stroke="#131313" stroke-width="0.997868" stroke-linecap="round"/>
<path d="M31.3679 89.7188C31.3679 90.2698 31.3679 91.7559 31.418 94.0284C31.4872 97.1688 31.8233 97.8129 31.8988 98.3062C31.9493 98.5962 31.9751 98.9013 31.9877 99.1791C32.0002 99.3066 32.0252 99.4068 32.051 99.5859" stroke="#131313" stroke-width="0.997868" stroke-linecap="round"/>
<path d="M37.7437 89.6406C37.7187 92.3184 37.6428 93.2323 37.6048 94.3359C37.5703 95.3388 37.5919 97.2429 37.6044 98.2987C37.642 99.5048 37.6929 99.7848 37.7433 100.037C37.7688 100.164 37.7938 100.29 37.8196 100.57" stroke="#131313" stroke-width="0.997868" stroke-linecap="round"/>
<path d="M45.0305 90.25V100.573" stroke="#131313" stroke-width="0.997868" stroke-linecap="round"/>
<path d="M49.9639 92.5234V98.8233" stroke="#131313" stroke-width="0.997868" stroke-linecap="round"/>
<path d="M98.4995 90.293C98.6226 91.2159 98.7783 92.1529 99.0873 93.3597C99.5453 95.1481 100.053 96.4432 100.207 97.1242C100.735 99.021 101.171 100.142 101.373 100.717C101.42 100.858 101.451 100.981 101.483 101.201" stroke="#131313" stroke-width="0.997868" stroke-linecap="round"/>
<path d="M105.119 89.2656C105.365 89.8809 105.645 90.8747 106.002 92.2387C106.364 93.6278 106.734 94.5153 106.996 95.4569C107.227 96.1831 107.658 97.4137 107.911 98.1861C108.163 98.9585 108.225 99.2354 108.382 99.7071" stroke="#131313" stroke-width="0.997868" stroke-linecap="round"/>
<path d="M110.899 86.5625C110.93 87.12 111.115 87.8024 111.287 88.6876C111.454 89.5514 111.552 90.1648 111.722 90.9717C111.974 92.1689 112.018 93.3644 112.188 94.1112C112.362 94.8767 112.359 95.6951 112.483 96.5812C112.545 96.9388 112.608 97.2818 112.654 97.6692C112.67 97.872 112.67 98.0873 112.763 98.5889" stroke="#131313" stroke-width="0.997868" stroke-linecap="round"/>
<path d="M116.959 83.0234C117.362 84.7314 117.486 86.2118 117.673 87.5263C117.717 87.8362 117.92 89.995 118.262 93.1331C118.419 94.3637 118.481 94.6135 118.528 94.9846C118.544 95.2325 118.544 95.6017 118.544 95.9821" stroke="#131313" stroke-width="0.997868" stroke-linecap="round"/>
<path d="M95.4231 94.1133C95.4231 95.163 95.5462 96.9679 95.7331 97.9156C96.0132 99.5494 96.1065 100.14 96.1685 100.435C96.1997 100.576 96.2304 100.699 96.2621 101.012" stroke="#131313" stroke-width="0.997868" stroke-linecap="round"/>
<path d="M62.3643 87.3125C62.503 87.7035 62.643 88.6813 62.9434 89.6302C63.2863 90.7132 63.409 91.5855 63.6515 92.2894C64.1501 93.7363 64.4544 94.9301 64.5704 95.3591C64.6662 95.7131 64.8252 96.5749 65.1726 97.9423C65.5121 99.2786 65.8253 100.272 65.9295 100.875C65.9746 101.136 66.0567 101.295 66.3682 102.551C66.6798 103.806 67.2317 106.152 67.5621 107.487C68.084 109.596 68.5657 110.401 68.7981 111.029C69.2713 112.307 69.7951 113.048 70.2035 113.759C70.6072 114.462 70.9116 114.909 71.2259 115.305C71.2929 115.39 71.3995 115.422 71.4929 115.388C72.1814 115.139 72.6066 113.617 72.899 112.823C73.1897 112.034 73.606 110.921 74.1988 108.972C74.5379 107.857 74.6528 106.718 74.9083 105.566C75.0979 104.71 75.1874 103.995 75.5564 101.634C75.8958 99.464 76.3855 95.2953 76.658 92.8748C76.9305 89.9024 76.9535 89.1957 76.9883 88.7336C77.0002 88.4095 77.0002 87.9035 77.0002 87.3822" stroke="#131313" stroke-width="0.997868" stroke-linecap="round"/>
<path d="M71.5803 115.418C71.381 115.444 70.9658 115.651 70.7201 115.761C70.5797 115.824 70.3215 116.051 70.0205 116.425C69.8554 116.631 69.6601 117.153 69.5547 117.62C69.5306 117.727 69.5372 117.8 69.5242 117.981C69.4951 118.385 69.6058 118.953 69.7578 119.444C69.9004 119.905 70.1452 120.138 70.5093 120.494C70.768 120.746 70.9882 120.782 71.3962 120.834C71.6397 120.865 72.0216 120.895 72.3314 120.839C72.5648 120.797 73.054 120.48 73.5914 120.014C74.0244 119.639 74.2481 119.116 74.3493 118.861C74.3772 118.791 74.4231 118.601 74.4622 118.238C74.5122 117.773 74.4497 117.41 74.4063 117.24C74.3098 116.864 73.9898 116.332 73.8023 116.062C73.6705 115.872 73.4416 115.766 73.2373 115.614C73.0579 115.48 72.7895 115.453 72.4121 115.349C72.2187 115.295 72.068 115.227 71.7381 115.231C71.6074 115.295 71.537 115.374 71.4808 115.461C71.4418 115.513 71.3815 115.582 71.3195 115.653" stroke="#131313" stroke-width="0.997868" stroke-linecap="round"/>
<path d="M33.084 23.7383C32.9675 23.7631 32.8505 23.8796 32.7379 24.0134C32.6101 24.1652 32.4581 24.3472 32.3744 24.5684C32.2709 24.8421 32.1824 25.14 32.1528 25.3871C32.1301 25.5753 32.198 26.0396 32.4523 26.7928C32.5439 27.0641 32.6828 27.1875 32.7618 27.2791C33.035 27.5961 33.5421 27.5886 33.7513 27.6054C33.943 27.6208 34.2018 27.639 34.4396 27.6182C34.8981 27.5781 35.3883 27.0464 35.7264 26.7714C35.8437 26.6759 36.006 26.3718 36.2479 25.9133C36.4916 25.3174 36.5668 25.0265 36.6044 24.6432C36.6172 24.4502 36.6172 24.26 36.6172 24.064" stroke="#131313" stroke-width="0.997868" stroke-linecap="round"/>
<path d="M107.448 23.7383C107.565 23.7631 107.682 23.8796 107.794 24.0134C107.922 24.1652 108.074 24.3472 108.158 24.5684C108.261 24.8421 108.35 25.14 108.379 25.3871C108.402 25.5753 108.334 26.0396 108.08 26.7928C107.988 27.0641 107.849 27.1875 107.77 27.2791C107.497 27.5961 106.99 27.5886 106.781 27.6054C106.589 27.6208 106.33 27.639 106.093 27.6182C105.634 27.5781 105.144 27.0464 104.806 26.7714C104.689 26.6759 104.526 26.3718 104.284 25.9133C104.041 25.3174 103.965 25.0265 103.928 24.6432C103.915 24.4502 103.915 24.26 103.915 24.064" stroke="#131313" stroke-width="0.997868" stroke-linecap="round"/>
<path d="M113.636 25.3163C113.73 24.9194 113.823 24.5226 114.046 23.8862C114.269 23.2499 114.62 22.3861 115.792 20.2719C116.965 18.1577 118.949 14.8193 120.462 12.5159C121.974 10.2125 122.955 9.04521 123.506 8.64233C124.058 8.23944 124.152 8.63631 124.211 8.98084C124.319 9.60173 124.389 10.1976 124.588 12.9687C124.766 15.4332 124.904 20.0586 125.012 22.5216C125.127 25.1487 125.167 25.7599 125.179 26.5253C125.191 26.8472 125.214 27.034 125.226 27.2002C125.238 27.3665 125.238 27.5065 125.238 27.6509" stroke="#FF0404" stroke-width="0.997868" stroke-linecap="round"/>
<path d="M117.103 18.3862C117.501 18.3155 118.349 18.3622 119.267 18.4446C120.972 18.5976 121.603 18.9748 122.17 19.1987C123.185 19.5415 123.75 19.6822 124.293 19.8594C124.412 19.8952 124.505 19.9185 124.814 20.0841" stroke="#FF0404" stroke-width="0.997868" stroke-linecap="round"/>
<path d="M132.29 11.7156C132.253 11.946 132.215 12.1764 131.551 14.3661C130.887 16.5559 129.597 20.698 128.919 22.9124C128.194 25.2818 127.991 26.0845 127.674 27.1545C127.516 27.8247 127.431 28.1966 127.342 28.5271C127.298 28.7231 127.256 28.9766 127.121 29.366" stroke="#FF0404" stroke-width="0.997868" stroke-linecap="round"/>
<path d="M129.691 19.75C130.045 19.9015 131.749 21.1302 132.767 21.8269C133.316 22.2027 133.759 22.6332 134.5 23.1364C135.011 23.4825 135.628 23.9168 136.018 24.244C136.134 24.3347 136.281 24.4532 136.41 24.5466C136.539 24.64 136.647 24.7049 136.967 24.8058" stroke="#FF0404" stroke-width="0.997868" stroke-linecap="round"/>
<path d="M139.403 13.3749C139.293 13.9011 139.184 14.4273 138.589 16.5503C137.995 18.6732 136.918 22.377 136.347 24.3887C135.718 26.6013 135.654 27.002 135.551 27.4139C135.456 27.9216 135.364 28.341 135.195 29.1554C135.072 29.8353 134.874 31.0565 134.691 32.1751" stroke="#FF0404" stroke-width="0.997868" stroke-linecap="round"/>
<path d="M149.882 23.9421C149.518 24.4751 149.079 25.1721 148.642 25.7771C148.394 26.1205 148.108 26.5209 147.672 27.1337C147.39 27.5303 147.041 28.1394 145.891 30.4245C144.74 32.7095 142.812 36.662 141.794 38.7793C140.726 41.0591 140.599 41.4583 140.45 41.844C140.376 41.9978 140.304 42.0663 140.157 42.2769" stroke="#FF0404" stroke-width="0.997868" stroke-linecap="round"/>
<path d="M150.156 23.9285C150.033 23.4493 149.604 22.43 149.201 21.9061C148.51 21.0068 147.869 20.6453 147.449 20.3971C146.996 20.1296 146.393 19.9483 145.667 19.82C144.66 19.6423 143.841 19.6941 143.442 19.7321C142.837 19.7895 142.557 19.9464 142.062 20.089C141.474 20.2582 141.058 20.9249 140.789 21.3661C140.565 21.7324 140.434 22.0588 140.368 22.3225C140.263 22.751 140.1 23.3806 140.026 24.0506C139.946 24.7767 139.937 25.4135 139.999 25.9048C140.067 26.4373 140.521 27.319 140.911 28.0104C141.464 28.9906 141.94 29.5617 142.044 29.6834C142.308 29.9934 142.653 30.4405 142.901 30.7203C143.122 30.9702 143.421 31.2836 143.676 31.5354C143.884 31.7416 144.154 31.8719 144.399 31.9907C144.456 32.0184 144.524 32.0267 144.478 32.0655C144.087 32.3959 143.668 32.3547 142.803 32.6208C142.062 32.8489 140.693 33.2167 139.61 33.5561C138.528 33.8955 137.77 34.1829 137.32 34.3428C136.4 34.67 135.666 34.8634 135.074 35.1035C134.615 35.29 133.998 35.653 133.54 35.8441C133.366 35.9201 133.203 36.0234 133.047 36.153C132.972 36.2183 132.905 36.2828 132.836 36.3493" stroke="#FF0404" stroke-width="0.997868" stroke-linecap="round"/>
<path d="M82.9145 129.508C83.1765 129.561 83.8534 129.609 84.8923 129.673C86.2653 129.757 86.7149 129.736 87.1957 129.687C87.9733 129.606 88.7319 129.395 89.2233 129.3C89.6436 129.219 90.0111 129.312 90.3769 129.318C90.4699 129.32 90.5614 129.31 92.002 129.594C93.4427 129.877 96.2297 130.448 97.7439 130.747C99.6784 131.129 100.011 131.063 100.17 131.015C100.559 130.899 100.676 130.284 101.041 128.451C101.138 127.962 100.922 127.744 100.772 127.53C100.451 127.074 99.7898 126.688 99.2461 126.312C98.7859 125.993 98.4051 125.83 97.9612 125.647C97.4034 125.417 96.6222 125.029 96.2253 124.89C95.7895 124.738 94.9197 124.52 93.3953 124.162C91.2653 123.661 89.8963 123.398 89.6657 123.408C89.2145 123.427 88.8398 123.525 88.1382 123.656C87.2652 123.819 86.7566 123.855 85.3885 124.112C85.0277 124.233 84.7808 124.321 84.4662 124.405C84.3175 124.455 84.1908 124.52 84.0602 124.586" stroke="#131313" stroke-width="0.997868" stroke-linecap="round"/>
<path d="M100.191 126.722C99.8633 126.655 99.327 126.363 99.0311 126.016C98.7725 125.711 98.4034 125.395 98.0248 125.167C97.8307 125.051 97.6774 124.902 97.1582 124.386C95.8631 123.099 94.6673 122.154 94.2447 121.816C93.6238 121.319 93.0616 120.932 92.6961 120.696C92.5188 120.581 92.3844 120.425 91.4535 120.2C90.6096 119.996 88.9941 119.685 88.0965 119.512C86.7574 119.255 86.1613 119.264 85.7728 119.254C85.3187 119.242 84.6735 119.371 83.713 119.586C83.0721 119.73 82.3999 119.845 81.6734 120.028C81.2182 120.143 80.7459 120.308 80.2333 120.512C79.45 120.825 79.2912 121.361 79.0792 121.72C78.8626 122.086 78.7291 122.756 78.8217 123.305C78.8935 123.731 79.28 123.973 79.7077 124.29C80.0717 124.559 80.448 124.648 80.8498 124.811C81.539 125.09 82.0628 124.819 82.4467 124.738C82.8226 124.658 83.291 124.636 83.7203 124.506C84.052 124.288 84.3476 124.073 84.5789 123.949C84.6835 123.89 84.7622 123.838 84.9888 123.745" stroke="#131313" stroke-width="0.997868" stroke-linecap="round"/>
<path d="M81.5721 119.951C82.448 119.81 83.5159 119.483 84.3144 119.197C84.6482 119.077 85.4499 118.892 86.6916 118.632C88.8914 118.171 89.5344 118.214 89.9924 118.102C90.7043 117.929 91.0895 118.006 91.482 117.937C91.9516 117.855 92.4243 117.867 94.1676 118.223C94.9651 118.386 95.4267 118.755 96.0834 119.074C96.5996 119.324 97.0475 119.569 97.3996 119.87C97.7134 120.139 98.1359 120.41 98.6447 120.835C99.2245 121.319 99.6622 121.8 100.092 122.163C100.59 122.585 101.157 123 101.574 123.372C102.001 123.752 102.302 124.014 102.63 124.207C102.98 124.415 103.232 124.845 103.523 125.215C103.843 125.621 104.16 126.021 104.434 126.364C104.701 126.697 104.755 127.151 104.825 127.532C104.86 127.717 104.795 128.075 104.664 128.494C104.509 128.989 103.657 129.057 102.894 129.2C102.381 129.347 101.533 129.265 100.952 129.055C100.872 128.993 100.799 128.91 100.723 128.825" stroke="#131313" stroke-width="0.997868" stroke-linecap="round"/>
<path d="M95.9148 118.842C95.6533 118.789 95.0505 118.566 94.5181 118.058C93.9873 117.552 93.4357 117.187 92.3806 116.262C91.7724 115.728 91.3719 115.567 90.6073 115.297C88.2741 114.474 87.7319 114.819 87.2895 114.903C86.8378 114.989 86.3258 115.105 85.4989 115.309C84.3916 115.582 83.7729 115.63 83.1487 115.813C81.8165 116.204 81.2789 116.591 80.1045 117.036C79.7114 117.184 79.5427 117.384 79.4196 117.62C79.2448 117.954 79.3025 118.308 79.3732 118.509C79.5873 118.866 79.8627 119.221 80.4567 119.605C80.6555 119.733 80.892 119.905 81.1358 120.082" stroke="#131313" stroke-width="0.997868" stroke-linecap="round"/>
<path d="M86.636 115.041C86.8106 114.925 87.1612 114.694 87.5977 114.415C87.9746 114.174 88.3722 114.074 88.6965 113.924C89.0289 113.769 89.4609 113.842 89.8155 113.859C90.2815 113.883 90.7654 113.826 91.5063 113.902C92.4293 113.996 93.0979 114.196 93.5695 114.26C95.3097 114.496 95.6449 114.782 96.1062 115.017C96.4543 115.195 96.7546 115.4 97.0689 115.562C97.42 115.743 97.731 116.033 98.1934 116.42C98.6498 116.802 98.9925 117.072 99.4304 117.422C100.124 117.975 100.62 118.229 101.053 118.557C101.387 118.81 101.725 119.086 102.068 119.372C102.397 119.647 102.952 120.072 103.533 120.529C104.009 120.903 104.361 121.251 104.681 121.599C104.958 121.9 105.215 122.272 105.456 122.69C105.749 123.2 105.964 123.596 106.094 123.97C106.224 124.345 106.239 124.694 106.012 125.697C105.962 125.921 105.826 125.976 105.709 126.017C105.592 126.059 105.46 126.075 105.346 126.095C105.233 126.116 105.142 126.14 104.848 126.189" stroke="#131313" stroke-width="0.997868" stroke-linecap="round"/>
<path d="M97.6597 115.815C97.3818 115.694 97.0885 115.411 96.7727 115.083C96.3258 114.618 96.0262 114.282 95.7187 113.868C95.4293 113.479 94.8129 112.806 94.4622 112.396C94.0662 111.933 93.8332 111.724 93.4801 111.38C93.2506 111.156 92.9109 110.848 92.5612 110.56C92.3037 110.348 91.5703 110.157 90.9702 110.097C90.5647 110.057 90.2022 110.259 89.8424 110.298C89.4498 110.34 88.8572 110.67 88.4858 110.834C88.0841 111.012 87.5322 111.212 87.0462 111.466C86.5695 111.715 85.8901 111.964 84.8411 112.53C84.0842 112.938 83.4659 113.497 83.2114 113.724C82.8571 114.203 82.6773 114.613 82.5105 115.425C82.4907 115.599 82.5086 115.666 82.5542 115.836" stroke="#131313" stroke-width="0.997868" stroke-linecap="round"/>
<path d="M100.918 130.118C100.7 131.178 100.181 133.199 99.9228 133.811C99.6252 134.514 99.3145 135.356 99.1406 135.945C98.9831 136.478 98.6751 136.923 98.4354 137.511C98.1538 138.171 97.9995 138.668 97.8008 139.119C97.7516 139.229 97.7006 139.35 97.556 139.535" stroke="#131313" stroke-width="0.997868" stroke-linecap="round"/>
<path d="M78.8092 123.839C78.6903 124.419 78.287 125.876 77.944 126.577C77.7003 127.075 77.6004 127.541 77.3255 128.042C77.1051 128.444 76.9163 128.938 76.6499 130.235C76.5168 130.882 76.9086 131.299 77.1683 131.777C77.4206 132.241 77.6251 132.719 77.8719 133.392C78.0574 133.899 78.3363 134.297 78.6191 134.859C78.9185 135.454 79.1846 135.982 79.3461 136.427C79.5093 136.877 79.8664 137.316 80.2029 137.81C80.4714 138.204 80.6956 138.574 81.3477 139.395C82.1571 140.414 82.6722 140.703 83.077 141.065C83.3993 141.353 83.9461 141.732 84.369 142.138C84.7138 142.47 85.1709 142.754 85.6159 142.978C85.8182 143.08 86.0158 143.166 86.2163 143.221C86.6371 143.335 87.0153 142.816 87.5125 142.137C88.1217 141.305 88.3297 140.937 88.531 140.409C88.9345 139.35 88.9812 138.922 89.1938 138.144C89.3309 137.643 89.6309 137.304 89.8245 136.814C90.0645 136.206 90.3256 135.723 90.571 135.176C90.8086 134.646 91.1437 134.193 91.3577 133.666C91.5646 133.158 91.7984 132.683 91.9762 132.201C92.0254 132.091 92.0713 131.995 92.1672 131.593C92.2631 131.191 92.4076 130.486 92.5566 129.758" stroke="#131313" stroke-width="0.997868" stroke-linecap="round"/>
<path d="M87.2047 143.063C87.3211 143.007 87.8476 143.273 88.3618 143.684C88.8697 144.089 89.4336 144.341 90.9438 144.652C92.3135 144.934 93.0921 144.218 93.648 143.907C94.3311 143.525 94.8991 142.653 95.4938 142.019C95.9201 141.564 96.314 140.928 96.7381 140.35C97.0691 139.966 97.3665 139.551 97.6971 139.1C97.7723 138.996 97.8181 138.9 97.881 138.725" stroke="#131313" stroke-width="0.997868" stroke-linecap="round"/>
<path d="M91.0368 109.92C91.1535 109.76 91.6536 109.369 92.1505 109.125C92.3731 109.016 92.5503 108.887 92.8741 108.923C93.5451 108.997 93.9804 109.442 94.1116 109.653C94.3785 110.08 94.4159 110.599 94.4584 111.148C94.4601 111.466 94.4353 111.74 94.3827 111.94C94.3535 112.034 94.3192 112.113 94.2838 112.193" stroke="#131313" stroke-width="0.997868" stroke-linecap="round"/>
<path d="M96.3514 114.518C96.5024 114.174 96.6788 113.828 96.7936 113.609C96.9356 113.339 97.1489 113.012 97.3824 112.665C97.55 112.415 97.7611 112.183 98.1759 111.779C98.4184 111.542 98.6619 111.467 98.8726 111.384C99.1798 111.264 99.4517 111.314 99.8946 111.483C100.23 111.61 100.449 111.937 100.679 112.101C100.965 112.305 101.089 113.347 101.149 113.915C101.162 114.035 101.198 114.581 101.217 115.375C101.232 115.959 101.134 116.265 101.072 116.55C100.953 116.935 100.837 117.257 100.746 117.536C100.726 117.596 100.698 117.658 100.67 117.722" stroke="#131313" stroke-width="0.997868" stroke-linecap="round"/>
<path d="M76.608 129.184C76.6207 129.155 76.5821 129.086 76.4788 129.006C76.2316 128.814 75.6738 129.102 75.3102 129.196C74.9932 129.277 74.7664 129.503 74.5763 129.759C74.3263 130.094 74.0945 130.441 73.9 130.825C73.4055 131.799 72.8508 133.196 72.7618 133.478C72.6778 133.745 72.8187 134.136 72.9534 134.543C73.1843 135.24 73.672 135.675 74.0895 136.265C74.3374 136.616 74.6167 137.044 74.9368 137.463C75.27 137.898 75.7803 138.543 76.0943 138.883C76.5362 139.36 76.9407 139.784 77.5605 140.523C77.8869 140.912 78.2368 141.375 78.6252 141.859C79.0541 142.392 79.4486 142.776 79.6144 142.97C79.8353 143.229 80.5371 143.843 81.4324 144.591C82.063 145.118 82.5448 145.454 82.8699 145.684C83.383 146.047 84.1339 146.188 84.6412 146.159C85.0059 146.137 85.4154 145.917 85.7362 145.684C86.1015 145.419 86.6298 144.46 86.8624 143.497C86.8764 143.345 86.8792 143.26 86.8789 143.181C86.8785 143.102 86.875 143.032 86.8905 142.916" stroke="#131313" stroke-width="0.997868" stroke-linecap="round"/>
<path d="M98.3329 138.505C98.4919 138.574 99.0524 138.717 99.4545 138.952C99.9457 139.24 99.7824 139.868 99.8219 140.216C99.8616 140.566 99.7206 140.883 99.5 141.445C99.3082 141.935 99.0858 142.567 98.9998 142.902C98.8196 143.604 98.3413 144.542 97.9577 145.18C97.7109 145.591 97.179 145.931 96.6809 146.33C96.2113 146.707 95.5702 147.066 95.079 147.33C94.6617 147.555 94.2361 147.768 93.8465 147.884C93.4537 148.001 93.129 147.995 92.598 147.962C91.7794 147.911 91.1191 147.669 90.2819 147.406C89.8247 147.223 89.5091 147.102 88.8494 146.839C88.2825 146.599 87.2445 146.144 86.1749 145.675" stroke="#131313" stroke-width="0.997868" stroke-linecap="round"/>
<path d="M101.237 129.336C101.314 129.336 101.49 129.394 101.734 129.555C101.807 129.603 101.871 129.677 101.915 129.731C101.96 129.785 101.979 129.824 101.883 129.844C101.786 129.864 101.573 129.864 101.444 129.869C101.315 129.874 101.276 129.883 101.237 129.893" stroke="#131313" stroke-width="0.997868" stroke-linecap="round"/>
<path d="M103.801 129.193C104 129.222 104.265 129.355 104.44 129.433C104.499 129.46 104.627 129.459 104.775 129.444C104.829 129.439 104.835 129.4 104.839 129.338C104.843 129.18 104.806 129.046 104.743 128.976C104.717 128.942 104.703 128.913 104.687 128.883" stroke="#131313" stroke-width="0.997868" stroke-linecap="round"/>
<path d="M105.618 126.245C105.67 126.267 105.846 126.385 105.994 126.481C106.022 126.499 106.053 126.503 106.079 126.492C106.127 126.452 106.165 126.393 106.187 126.305C106.194 126.246 106.194 126.158 106.172 126.023" stroke="#131313" stroke-width="0.997868" stroke-linecap="round"/>
<path d="M78.5677 122.891C78.4655 122.916 78.3244 122.993 78.2056 123.048C78.1466 123.075 78.1058 123.128 78.0769 123.192C78.0606 123.228 78.0671 123.281 78.0862 123.31C78.2462 123.353 78.4006 123.346 78.455 123.33C78.484 123.321 78.5157 123.308 78.5677 123.276" stroke="#131313" stroke-width="0.997868" stroke-linecap="round"/>
<path d="M79.03 117.942C78.9156 117.923 78.6072 117.936 78.4753 117.978C78.4461 117.987 78.4208 117.994 78.3982 118.016C78.3459 118.068 78.3305 118.141 78.3368 118.192C78.3539 118.333 78.5991 118.334 78.7247 118.363C78.7855 118.366 78.8436 118.372 78.9044 118.382C78.9397 118.385 78.9842 118.385 79.03 118.385" stroke="#131313" stroke-width="0.997868" stroke-linecap="round"/>
<path d="M99.6584 111.073C99.6835 111.003 99.7719 110.902 99.895 110.795C100.066 110.646 100.176 110.605 100.284 110.602C100.391 110.598 100.486 110.737 100.584 110.889C100.687 111.048 100.664 111.393 100.68 111.654C100.683 111.692 100.683 111.723 100.686 111.752C100.689 111.781 100.695 111.806 100.702 111.831" stroke="#131313" stroke-width="0.997868" stroke-linecap="round"/>
<path d="M100.417 111.074C100.411 111.074 100.404 111.074 100.395 111.087C100.386 111.099 100.373 111.124 100.36 111.15" stroke="#131313" stroke-width="0.997868" stroke-linecap="round"/>
<path d="M93.0381 108.569C93.0694 108.506 93.3082 108.367 93.4834 108.265C93.5588 108.222 93.6572 108.208 93.7425 108.218C93.8583 108.23 93.8788 108.41 93.9106 108.546C93.9169 108.581 93.9232 108.612 93.9264 108.669C93.9296 108.726 93.9296 108.807 93.9296 108.891" stroke="#131313" stroke-width="0.997868" stroke-linecap="round"/>
<path d="M150.177 84.538C149.675 84.1156 149.163 83.5531 148.181 82.5284C146.505 80.7787 145.292 79.4341 145.001 79.1728C144.728 78.9271 144.452 78.6275 143.624 77.7994C142.954 77.1298 141.834 75.8997 140.259 74.3901C138.685 72.8805 136.704 71.1149 135.605 70.1056C134.505 69.0964 134.346 68.8969 133.465 68.0726C132.584 67.2482 130.986 65.8049 130.104 64.9954C129.222 64.1859 129.105 64.054 128.862 63.8329C128.619 63.6118 128.256 63.3056 127.881 62.9902" stroke="#131313" stroke-width="0.598721" stroke-linecap="round"/>
<path d="M148.803 85.4631C148.348 84.9479 147.833 84.383 147.336 83.9139C146.8 83.4089 146.444 83.0477 145.381 82.0544C144.393 81.13 142.437 79.4112 141.327 78.3768C139.957 77.1007 139.541 76.5743 139.153 76.2315C138.895 76.0034 137.988 75.1352 136.649 73.9415C136.15 73.497 136.037 73.3602 135.163 72.6073C134.289 71.8545 132.662 70.4847 131.784 69.7292C130.811 68.8918 130.094 68.2233 129.068 67.3433C128.693 67.0112 128.613 66.9115 128.142 66.4975C127.67 66.0836 126.809 65.3584 125.921 64.6113" stroke="#131313" stroke-width="0.598721" stroke-linecap="round"/>
<path d="M127.915 62.9805C127.843 62.9202 127.637 62.7836 127.307 62.6908C127.072 62.6245 126.911 62.6652 126.773 62.6821C126.608 62.7025 126.451 62.7612 126.275 62.8122C126.122 62.8566 125.959 63.0189 125.817 63.1984C125.69 63.359 125.744 63.5313 125.739 63.6735C125.733 63.8055 125.705 63.9719 125.705 64.1241C125.705 64.258 125.786 64.3821 125.868 64.4987C125.891 64.5277 125.914 64.5563 125.948 64.5896C125.982 64.6228 126.026 64.6598 126.071 64.6979" stroke="#131313" stroke-width="0.598721" stroke-linecap="round"/>
<path d="M128.075 63.2305C128.008 63.2773 127.787 63.3373 127.6 63.4073C127.282 63.526 127.021 63.7062 126.815 63.888C126.546 64.2017 126.364 64.4524 126.348 64.5384C126.339 64.5831 126.328 64.6299 126.307 64.7561" stroke="#131313" stroke-width="0.598721" stroke-linecap="round"/>
<path d="M150.144 84.6094C150.009 84.594 149.795 84.6925 149.639 84.7933C149.538 84.859 149.452 84.9322 149.365 85.0113C149.278 85.09 149.111 85.2781 149.018 85.4768C149.01 85.5158 149.008 85.5469 149.013 85.5758C149.017 85.6046 149.028 85.6303 149.042 85.6833" stroke="#131313" stroke-width="0.598721" stroke-linecap="round"/>
<path d="M150.316 84.58C150.326 84.5881 150.477 84.8542 150.716 85.2894C150.85 85.5348 150.895 85.6437 150.933 85.7006C150.977 85.7658 151.183 86.0992 151.491 86.56C151.604 86.7301 151.618 86.7794 151.76 86.9894C151.903 87.1993 152.169 87.5704 152.314 87.7721C152.459 87.9737 152.474 87.9946 152.452 87.9924C152.269 87.9743 152.19 87.8542 152.087 87.7803C151.964 87.6913 151.782 87.5768 151.607 87.4705C151.444 87.3719 151.326 87.2754 151.214 87.1978C151.064 87.0937 150.924 87.0105 150.799 86.9226C150.631 86.8032 150.458 86.7419 150.355 86.6677C150.236 86.582 150.062 86.4987 149.647 86.253C149.446 86.1334 149.363 86.0754 149.271 86.0228C149.217 85.994 149.165 85.9669 149.09 85.9156C149.037 85.8756 148.956 85.8073 148.873 85.7369" stroke="#131313" stroke-width="0.598721" stroke-linecap="round"/>
<path d="M149.477 83.707C149.377 83.6231 149.22 83.509 149.06 83.464C148.893 83.4171 148.772 83.3662 148.607 83.3217C148.282 83.2342 147.68 83.2296 147.431 83.2242C147.011 83.2624 146.793 83.3495 146.678 83.406C146.652 83.4205 146.629 83.437 146.592 83.4698" stroke="#131313" stroke-width="0.598721" stroke-linecap="round"/>
<path d="M148.424 82.8971C148.391 82.8515 148.346 82.7867 148.189 82.6275C147.855 82.289 147.476 82.0539 147.279 81.951C147.047 81.8298 146.826 81.7324 146.673 81.6793C146.46 81.6061 146.333 81.6325 146.084 81.6073C145.824 81.5809 145.265 81.6845 144.877 81.7181C144.828 81.7175 144.784 81.7164 144.745 81.7196C144.706 81.7229 144.672 81.7306 144.609 81.7411" stroke="#131313" stroke-width="0.598721" stroke-linecap="round"/>
<path d="M146.256 80.5312C145.939 80.363 145.706 80.2753 145.569 80.228C145.375 80.1608 145.079 80.1526 144.676 80.0652C144.345 79.9936 144.172 80.0201 143.961 80.0452C143.725 80.0582 143.463 80.0903 143.293 80.1367C143.252 80.1476 143.219 80.1553 143.168 80.1499" stroke="#131313" stroke-width="0.598721" stroke-linecap="round"/>
<path d="M144.576 78.878C144.472 78.736 144.232 78.5701 144.064 78.5281C143.788 78.4589 143.574 78.3768 143.349 78.3227C143.118 78.2668 142.909 78.2674 142.672 78.2387C142.477 78.2152 142.318 78.2299 142.189 78.2384C142.049 78.238 141.919 78.264 141.82 78.27C141.755 78.278 141.659 78.2958 141.489 78.3351" stroke="#131313" stroke-width="0.598721" stroke-linecap="round"/>
<path d="M142.908 77.0625C142.768 76.9623 142.584 76.8799 142.445 76.8308C142.188 76.7393 141.743 76.6205 141.422 76.5463C141.211 76.4972 140.963 76.5782 140.817 76.6225C140.653 76.6723 140.407 76.7675 140.165 76.8667C140.117 76.8857 140.089 76.8978 140.063 76.9123C140.037 76.9267 140.015 76.9432 139.991 76.9602" stroke="#131313" stroke-width="0.598721" stroke-linecap="round"/>
<path d="M141.254 75.4648C141.186 75.4074 141.052 75.3306 140.906 75.2796C140.757 75.2277 140.575 75.1903 140.35 75.1584C140.097 75.1225 139.826 75.1174 139.637 75.1263C139.409 75.1369 139.249 75.1913 138.984 75.3238C138.855 75.4013 138.766 75.4432 138.705 75.4777C138.677 75.4949 138.654 75.5113 138.575 75.5625" stroke="#131313" stroke-width="0.598721" stroke-linecap="round"/>
<path d="M139.657 73.8438C139.597 73.8197 139.437 73.7749 139.289 73.7044C138.924 73.5304 138.542 73.6604 138.333 73.7149C138.191 73.7518 138.023 73.8465 137.888 73.9584C137.76 74.0945 137.617 74.2429 137.543 74.3894C137.533 74.4174 137.521 74.4426 137.524 74.482" stroke="#131313" stroke-width="0.598721" stroke-linecap="round"/>
<path d="M138.32 72.6367C138.248 72.5846 138.035 72.4949 137.726 72.5139C137.211 72.5454 137.07 72.6021 136.946 72.6516C136.792 72.7136 136.684 72.7915 136.557 72.9049C136.353 73.1528 136.315 73.2295 136.293 73.2826C136.283 73.3105 136.276 73.3402 136.284 73.3841" stroke="#131313" stroke-width="0.598721" stroke-linecap="round"/>
<path d="M136.983 71.4297C136.839 71.3347 136.548 71.252 136.331 71.2141C136.155 71.1833 136.006 71.2198 135.796 71.2768C135.622 71.3239 135.342 71.4524 135.179 71.5694C135.034 71.6741 134.911 71.749 134.783 71.8848C134.754 71.9145 134.731 71.931 134.708 71.9526C134.685 71.9741 134.663 72.0003 134.641 72.0272" stroke="#131313" stroke-width="0.598721" stroke-linecap="round"/>
<path d="M135.692 70.25C135.52 70.1866 135.419 70.1366 135.266 70.0935C135.035 70.0285 134.866 70.0222 134.671 70.0609C134.485 70.0977 134.303 70.1976 134.182 70.2716C134.066 70.3421 133.91 70.4611 133.706 70.5962C133.623 70.6619 133.541 70.7376 133.454 70.8257C133.411 70.8712 133.371 70.9182 133.33 70.9666" stroke="#131313" stroke-width="0.598721" stroke-linecap="round"/>
<path d="M134.592 69.1515C134.384 68.9493 134.27 68.871 134.109 68.8114C133.881 68.7274 133.674 68.7653 133.435 68.8027C133.212 68.8376 133.08 68.9237 132.975 68.984C132.862 69.049 132.762 69.1513 132.591 69.3173C132.214 69.7908 132.185 69.9011 132.161 69.9666C132.154 70.0016 132.157 70.04 132.208 70.1197" stroke="#131313" stroke-width="0.598721" stroke-linecap="round"/>
<path d="M132.999 67.6992C132.948 67.6647 132.797 67.6091 132.269 67.637C131.877 67.6578 131.622 67.8464 131.528 67.9255C131.409 68.0259 131.249 68.1181 131.102 68.2553C130.842 68.5694 130.8 68.6513 130.771 68.7124C130.759 68.7429 130.752 68.7726 130.718 68.8349" stroke="#131313" stroke-width="0.598721" stroke-linecap="round"/>
<path d="M131.636 66.3672C131.529 66.357 131.262 66.3308 131.1 66.3568C130.918 66.3859 130.747 66.4826 130.582 66.5334C130.432 66.5794 130.295 66.6973 130.179 66.8076C130.093 66.8895 130 66.9722 129.654 67.3777C129.565 67.4989 129.542 67.5696 129.526 67.6418C129.517 67.6747 129.504 67.7 129.491 67.7261" stroke="#131313" stroke-width="0.598721" stroke-linecap="round"/>
<path d="M130.41 65.2539C130.318 65.2032 130.16 65.1776 129.954 65.2073C129.816 65.2272 129.68 65.2968 129.545 65.3719C129.384 65.4607 129.278 65.5708 129.16 65.6837C128.938 65.8968 128.845 65.9997 128.545 66.3549C128.485 66.4369 128.474 66.4718 128.464 66.5047C128.455 66.5375 128.447 66.5672 128.432 66.6719" stroke="#131313" stroke-width="0.598721" stroke-linecap="round"/>
<path d="M129.131 64.1094C129.067 64.1105 128.909 64.1496 128.783 64.1689C128.656 64.1885 128.542 64.2872 128.41 64.3793C128.254 64.4877 128.176 64.5823 128.042 64.7276C127.935 64.8435 127.686 65.0991 127.551 65.3101C127.507 65.414 127.475 65.5356 127.454 65.6394C127.445 65.6832 127.439 65.709 127.448 65.7725" stroke="#131313" stroke-width="0.598721" stroke-linecap="round"/>
<path d="M146.949 67.3672C146.724 68.4616 146.44 69.9914 146.147 72.314C145.874 74.4717 145.266 78.606 144.964 80.8351C144.635 83.2564 144.55 83.9925 144.296 85.4961C143.899 87.853 143.815 89.5577 143.731 90.47C143.67 91.1333 143.479 92.193 143.379 93.2154C143.054 96.5217 143.052 97.4922 142.968 98.1271C142.858 98.9572 142.771 99.8623 142.643 100.836C142.519 101.778 142.432 102.403 142.444 102.956C142.454 103.441 144.059 103.507 145.555 103.761C146.337 103.894 147.699 104.269 149.534 104.608C150.698 104.823 151.716 105.033 153.223 105.272C154.887 105.536 156.123 105.71 156.671 105.837C158.286 106.21 159.311 106.444 160.174 106.67C161.223 106.945 162.78 107.572 163.774 107.701C163.945 107.715 164.085 107.743 164.213 107.772C164.341 107.8 164.452 107.828 164.822 108.026" stroke="#131313" stroke-width="0.598721" stroke-linecap="round"/>
<path d="M146.695 67.1992C147.144 67.2551 147.991 67.4804 150.34 68.0014C152.443 68.4675 153.239 68.8629 154.061 69.2025C155.343 69.7325 156.148 69.964 157.109 70.374C158.1 70.7968 159.059 70.8696 159.944 71.0237C161.595 71.3116 162.815 71.604 163.768 71.7577C167.383 72.3406 167.897 72.761 168.617 72.9584C168.803 73.0095 168.969 73.0711 169.111 73.1278C170.257 73.5846 169.425 76.5711 169.298 78.1331C169.126 80.2391 168.945 82.1008 168.846 83.1342C168.667 84.9869 168.437 87.295 168.365 88.4008C168.343 88.7419 168.267 89.2195 168.127 90.3148C167.705 93.6104 167.505 94.5526 167.406 95.4594C167.265 96.742 167.138 97.2395 166.913 98.4623C166.339 101.581 166.121 102.293 165.924 102.872C165.613 103.783 165.586 104.941 165.415 105.823C165.302 106.361 165.217 106.7 165.161 106.953C165.133 107.094 165.105 107.262 164.991 107.604" stroke="#131313" stroke-width="0.598721" stroke-linecap="round"/>
<path d="M146.835 67.1846C147.014 67.0851 147.413 66.9257 147.783 66.7854C148.094 66.6674 148.432 66.6655 148.861 66.5954C149.74 66.4517 150.11 66.7243 150.46 66.8543C151.033 67.0676 151.489 67.2841 151.988 67.3341C152.532 67.3887 152.907 67.5837 153.446 67.7135C153.808 67.8005 154.165 67.8834 154.684 67.9733C155.525 68.1189 156.044 68.2825 156.453 68.3928C156.985 68.5362 157.421 68.7021 157.971 68.9118C158.45 69.0945 158.86 69.142 159.469 69.3811C160.056 69.6121 160.637 69.7006 161.287 69.881C161.687 69.9919 162.195 70.2196 162.756 70.4105C163.163 70.5491 163.614 70.6199 163.975 70.7602C164.294 70.8842 164.674 70.88 165.132 70.94C166.241 71.0849 166.751 71.2588 167.161 71.3496C167.649 71.4577 168.03 71.6388 168.4 71.7889C168.729 71.9224 169.089 72.0787 169.578 72.2681C169.95 72.412 170.248 72.6181 170.498 72.8273C170.763 73.048 170.768 73.4955 170.868 73.8458C170.922 74.0316 170.948 74.2159 170.978 75.1566C171.006 76.0177 170.989 77.6597 170.979 78.5548C170.965 79.7505 170.889 80.2272 170.819 80.6581C170.756 81.0438 170.709 81.5661 170.679 82.1259C170.641 82.8237 170.589 83.9431 170.519 84.4933C170.46 84.9609 170.449 85.481 170.389 85.9221C170.314 86.4824 170.269 86.9206 170.22 87.3302C170.129 88.0758 170.09 88.9942 170.03 89.7371C169.977 90.4 169.87 90.9157 169.78 91.5942C169.638 92.6704 169.63 93.3921 169.56 93.8533C169.5 94.2519 169.351 94.7311 169.241 95.3903C169.067 96.431 168.891 97.3094 168.831 97.6393C168.764 98.0119 168.711 98.3678 168.642 98.7082C168.57 99.0583 168.452 99.4466 168.352 99.8565C168.23 100.355 168.252 100.925 168.222 101.345C168.193 101.75 168.072 102.144 167.982 102.603C167.89 103.073 167.773 103.423 167.673 103.752C167.554 104.146 167.373 104.441 167.253 104.761C167.117 105.125 166.874 105.4 166.684 105.77C166.518 106.094 166.255 106.399 166.055 106.739C165.847 107.093 165.496 107.239 165.176 107.459C165.096 107.519 165.017 107.578 164.936 107.629C164.856 107.679 164.777 107.719 164.576 107.819" stroke="#131313" stroke-width="0.598721" stroke-linecap="round"/>
<path d="M149.692 68.3998C149.709 68.3998 149.684 68.4162 149.618 68.4411C149.555 68.4647 149.485 68.4414 149.41 68.4166C149.316 68.3851 149.252 68.317 149.223 68.2425C149.146 68.0459 149.169 67.5066 149.223 67.1048C149.255 66.8607 149.368 66.6567 149.513 66.4192C149.627 66.2333 149.824 66.1239 149.953 66.0449C150.108 65.9504 150.281 65.9659 150.58 65.9656C150.772 65.9655 150.946 66.0736 151.083 66.1357C151.218 66.1965 151.328 66.3636 151.482 66.5507C151.594 66.7131 151.661 66.9114 151.769 67.1818C151.786 67.2364 151.786 67.2693 151.786 67.3032" stroke="#131313" stroke-width="0.598721" stroke-linecap="round"/>
<path d="M152.184 69.4166C152.027 69.4166 151.828 69.3673 151.658 69.284C151.394 69.1552 151.155 68.7951 151.051 68.4252C150.988 68.2037 151.013 67.701 151.125 67.1916C151.165 67.0067 151.328 66.7849 151.598 66.4975C151.771 66.3131 151.976 66.3099 152.13 66.2807C152.388 66.2316 152.656 66.4419 152.853 66.5957C153.023 66.8153 153.173 67.1313 153.247 67.397C153.264 67.4558 153.272 67.4887 153.281 67.5724" stroke="#131313" stroke-width="0.598721" stroke-linecap="round"/>
<path d="M154.402 69.7196C154.303 69.7941 154.187 69.8442 154.004 69.8649C153.822 69.8855 153.672 69.7949 153.531 69.7075C153.341 69.5907 153.331 69.3298 153.306 69.1762C153.244 68.7945 153.273 68.325 153.475 67.8565C153.634 67.4897 153.977 67.046 154.157 66.9245C154.447 66.7282 155.049 66.9029 155.241 67.0193C155.385 67.1069 155.564 67.2598 155.719 67.4428C155.806 67.5843 155.889 67.7662 155.947 67.9247C155.956 67.9581 155.964 67.991 155.973 68.0997" stroke="#131313" stroke-width="0.598721" stroke-linecap="round"/>
<path d="M156.346 70.2903C156.289 70.2985 156.156 70.3317 155.733 70.3278C155.602 70.3266 155.541 70.2325 155.479 70.158C155.332 69.9824 155.349 69.751 155.329 69.4776C155.295 69.0293 155.432 68.7636 155.536 68.501C155.67 68.1641 156.053 67.8335 156.403 67.5621C156.6 67.4101 156.901 67.4243 157.11 67.4821C157.286 67.5307 157.433 67.83 157.621 68.1085C157.716 68.2781 157.783 68.4124 157.812 68.4912C157.825 68.5288 157.833 68.5617 157.842 68.6704" stroke="#131313" stroke-width="0.598721" stroke-linecap="round"/>
<path d="M158.334 70.773C158.284 70.7977 158.169 70.8807 158.056 70.9679C157.943 71.0557 157.696 71.0472 157.508 70.9728C157.333 70.9036 157.254 70.7157 157.213 70.5411C157.143 70.2499 157.204 69.9097 157.316 69.6363C157.536 69.097 157.9 68.7643 158.109 68.6218C158.282 68.5034 158.515 68.3566 158.715 68.2644C158.897 68.1805 159.114 68.231 159.35 68.268C159.729 68.3273 159.771 68.7534 159.829 68.9034C159.838 68.9368 159.846 68.9697 159.85 69.036C159.854 69.1023 159.854 69.201 159.854 69.3026" stroke="#131313" stroke-width="0.598721" stroke-linecap="round"/>
<path d="M160.377 71.3948C160.344 71.4526 160.295 71.5852 160.224 71.7141C160.158 71.8346 159.93 71.8429 159.722 71.8518C159.534 71.86 159.447 71.5782 159.364 71.4328C159.257 71.2452 159.306 71.0055 159.285 70.8059C159.246 70.4338 159.372 70.0515 159.447 69.8087C159.524 69.5576 159.778 69.394 159.974 69.2188C160.231 68.9879 160.822 69.0023 161.141 68.9816C161.382 68.9659 161.598 69.1179 161.739 69.2674C161.922 69.492 161.989 69.633 162.018 69.7367C162.03 69.7828 162.039 69.8157 162.047 69.8496" stroke="#131313" stroke-width="0.598721" stroke-linecap="round"/>
<path d="M162.799 71.8011C162.359 72.0681 162.201 72.1112 162.053 72.1403C161.862 72.1778 161.66 72.0181 161.5 71.9134C161.336 71.8053 161.255 71.5065 161.204 71.117C161.134 70.5789 161.347 70.272 161.546 70.0151C161.677 69.846 161.781 69.708 162.055 69.5635C162.213 69.4799 162.38 69.4836 162.647 69.5231C162.847 69.5528 163.016 69.6924 163.142 69.7865C163.267 69.8796 163.34 70.0389 163.434 70.1581C163.499 70.2763 163.55 70.4 163.575 70.4901C163.586 70.5302 163.593 70.5587 163.601 70.5882" stroke="#131313" stroke-width="0.598721" stroke-linecap="round"/>
<path d="M164.684 72.1686C164.612 72.2909 164.511 72.4207 164.385 72.4968C164.175 72.6231 163.962 72.5944 163.768 72.591C163.583 72.5878 163.471 72.2994 163.388 72.1474C163.317 72.0178 163.319 71.8948 163.301 71.6357C163.269 71.1668 163.405 70.863 163.521 70.6497C163.641 70.4281 163.752 70.328 163.957 70.1694C164.149 70.0211 164.473 69.9811 164.669 70.0242C164.856 70.0654 165.036 70.1898 165.253 70.3415C165.377 70.4645 165.463 70.5797 165.532 70.6954C165.55 70.7244 165.571 70.753 165.593 70.8257" stroke="#131313" stroke-width="0.598721" stroke-linecap="round"/>
<path d="M166.481 72.5584C166.46 72.623 166.359 72.7815 166.233 72.9045C166.183 72.9534 166.15 73.013 166.088 73.0527C166.025 73.0938 165.862 73.0999 165.66 73.0856C165.443 73.0702 165.299 72.7763 165.132 72.3867C165.064 72.2288 165.074 71.9825 165.159 71.5798C165.285 70.9897 165.672 70.6102 165.802 70.4371C165.87 70.3462 165.968 70.2776 166.094 70.1982C166.177 70.1463 166.329 70.1543 166.509 70.1615C166.72 70.1698 166.864 70.4277 166.958 70.5834C167.052 70.7671 167.117 70.9914 167.128 71.067C167.131 71.1069 167.131 71.1498 167.131 71.1939" stroke="#131313" stroke-width="0.598721" stroke-linecap="round"/>
<path d="M167.976 72.8826C167.976 72.8969 167.976 72.9543 167.958 73.048C167.925 73.2222 167.745 73.272 167.63 73.3121C167.575 73.331 167.5 73.3015 167.406 73.2584C167.114 73.1236 167.095 72.6526 167.07 72.4467C167.027 72.0988 167.188 71.765 167.466 71.3392C167.669 71.0275 167.961 70.9771 168.098 70.9299C168.196 70.8962 168.329 70.89 168.451 70.8972C168.594 70.9055 168.683 71.0698 168.784 71.2034C168.849 71.3431 168.893 71.4672 168.903 71.5428C168.907 71.5827 168.907 71.6256 168.907 71.6697" stroke="#131313" stroke-width="0.598721" stroke-linecap="round"/>
<path d="M148.34 70.9352C148.547 70.8335 148.732 70.7369 148.956 70.6895C149.204 70.637 149.443 70.7262 150.004 70.8717C150.639 71.0365 150.816 71.3315 150.915 71.4917C151.075 71.7528 151.02 71.9984 151.002 72.1563C150.993 72.2396 150.997 72.3875 150.917 72.5954C150.732 73.072 150.234 73.2861 149.877 73.4032C149.381 73.5657 148.945 73.4215 148.775 73.3904C148.729 73.382 148.762 73.4172 148.817 73.4409C149.07 73.5498 149.936 73.6414 150.521 73.8683C150.836 73.9904 150.898 74.2582 150.962 74.4357C151.039 74.6495 151.02 74.8445 150.865 75.5092C150.797 75.7968 150.445 75.9305 150.091 76.0937C149.661 76.2923 149.162 76.1682 148.832 76.1289C148.076 75.8461 147.544 75.4024 147.386 75.2784C147.322 75.2269 147.289 75.1988 147.175 75.1203" stroke="#131313" stroke-width="0.598721" stroke-linecap="round"/>
<path d="M151.887 76.8056C151.857 76.3845 151.896 75.8127 152 75.2627C152.158 74.4217 152.31 74.1197 152.462 73.5934C152.542 73.3194 152.634 72.8414 152.787 72.31C152.913 71.8693 153.088 71.5882 153.142 71.5095C153.168 71.4718 153.225 71.4698 153.279 71.4745C153.523 71.4957 153.756 71.9494 153.876 72.217C153.987 72.4678 154.111 72.9229 154.186 73.3293C154.191 73.389 154.191 73.428 154.205 74.0231C154.22 74.6182 154.249 75.7684 154.279 76.9533" stroke="#131313" stroke-width="0.598721" stroke-linecap="round"/>
<path d="M151.946 74.3867C152.181 74.4062 152.515 74.5043 153.498 74.6815C153.855 74.7311 154.13 74.7707 154.382 74.8001C154.436 74.81 154.475 74.8197 154.604 74.8888" stroke="#131313" stroke-width="0.598721" stroke-linecap="round"/>
<path d="M155.195 77.4541C155.214 77.2489 155.254 76.8351 155.455 75.7164C155.603 74.8946 155.598 74.5118 155.613 74.0593C155.624 73.7422 155.677 73.3711 155.702 72.6865C155.709 72.4929 155.726 72.2382 155.741 71.9574C155.746 71.8705 155.785 71.9009 155.829 71.95C156.037 72.1805 156.237 72.3144 156.621 72.5159C156.99 72.71 157.281 72.8755 157.782 73.087C158.167 73.2496 158.502 73.25 158.782 73.2893C159.008 73.3208 158.73 73.7516 158.617 74.1442C158.438 74.7634 158.444 75.1693 158.414 75.4741C158.39 75.7307 158.365 76.0453 158.35 76.2619C158.331 76.5484 158.306 76.7441 158.272 76.9513C158.231 77.195 158.207 77.7459 158.183 78.0883C158.178 78.2303 158.158 78.3691 158.129 78.4772C158.119 78.5269 158.119 78.5658 158.119 78.606" stroke="#131313" stroke-width="0.598721" stroke-linecap="round"/>
<path d="M159.574 73.7539C159.574 73.9881 159.555 74.5791 159.54 75.4538C159.537 75.6339 159.525 75.6826 159.52 76.0293C159.506 77.0193 159.525 77.7211 159.539 77.8582C159.588 78.3095 159.574 78.4495 159.603 78.5137C159.644 78.6026 159.868 78.2548 160.104 77.8478C160.405 77.3275 160.499 76.905 160.583 76.7529C160.681 76.5742 160.814 76.208 160.976 75.7264C161.185 75.1054 161.237 74.8674 161.527 74.3027C161.601 74.1583 161.65 74.0611 161.671 74.0352C161.686 74.0154 161.671 74.5372 161.666 75.2162C161.664 75.5252 161.632 76.1017 161.612 76.9039C161.602 77.1895 161.592 77.2285 161.587 77.5604C161.582 77.8924 161.582 78.5162 161.582 79.1589" stroke="#131313" stroke-width="0.598721" stroke-linecap="round"/>
<path d="M164.3 75.2011C164.25 75.0638 164.152 74.8479 163.99 74.6358C163.889 74.5036 163.758 74.4335 163.621 74.3892C163.379 74.3109 163.168 74.4033 163.079 74.4769C162.846 74.6709 162.735 74.8951 162.621 75.1017C162.441 75.4301 162.321 75.6725 162.232 76.0463C162.156 76.3686 162.153 76.6466 162.139 77.129C162.129 77.4454 162.172 77.9745 162.281 78.3407C162.34 78.5411 162.487 78.7737 162.64 78.9809C162.775 79.1643 162.96 79.3154 163.117 79.4538C163.191 79.5185 163.314 79.5721 163.476 79.6164C163.785 79.7009 164.13 79.3969 164.353 79.1841C164.417 79.0909 164.476 79.0017 164.53 78.9183C164.555 78.8738 164.575 78.8251 164.595 78.7749" stroke="#131313" stroke-width="0.598721" stroke-linecap="round"/>
<path d="M165.629 74.8164C165.59 75.0893 165.56 75.2689 165.54 75.557C165.457 76.7827 165.481 76.9814 165.432 77.3156C165.372 77.7267 165.363 78.3164 165.338 78.7241C165.323 79.0096 165.294 79.2461 165.279 79.4225C165.274 79.5403 165.274 79.7158 165.274 79.8965" stroke="#131313" stroke-width="0.598721" stroke-linecap="round"/>
<path d="M165.392 77.9473C165.392 77.9083 165.431 77.8687 165.515 77.8343C165.838 77.7009 166.356 77.8191 166.539 77.883C166.733 77.9511 166.947 78.1138 167.066 78.3255C167.27 78.6905 167.008 79.4323 166.865 79.6008C166.743 79.7435 166.516 79.7879 166.333 79.8374C166.289 79.8473 166.24 79.857 166.088 79.862C165.936 79.8671 165.683 79.8671 165.422 79.8671" stroke="#131313" stroke-width="0.598721" stroke-linecap="round"/>
<path d="M150.702 80.3281C150.738 80.3281 151.026 80.3281 151.515 80.3461C151.9 80.3602 152.926 80.5448 154.736 80.825C155.688 80.9723 156.69 81.2309 157.424 81.3782C158.583 81.6109 159.159 81.6889 159.61 81.8424C161.119 82.2519 161.914 82.4681 162.435 82.5786C162.535 82.5966 162.661 82.6325 162.899 82.724" stroke="#131313" stroke-width="0.598721" stroke-linecap="round"/>
<path d="M150.321 81.8555C150.972 81.8734 152.13 82.0896 152.942 82.2543C153.298 82.3268 154.27 82.5617 155.522 82.8337C156.101 82.9594 157.136 83.3409 158.615 83.7855C159.603 84.0827 160.265 84.2328 160.711 84.3959C160.901 84.4506 161.066 84.5051 161.22 84.5685C161.301 84.596 161.391 84.614 161.484 84.687" stroke="#131313" stroke-width="0.598721" stroke-linecap="round"/>
<path d="M151.9 83.9766C152.044 83.9766 152.604 84.0305 153.94 84.3188C154.904 84.5269 156.425 84.9665 157.392 85.2423C159.196 85.8274 159.666 85.9728 160.392 86.181C160.557 86.2271 160.665 86.245 160.83 86.2635" stroke="#131313" stroke-width="0.598721" stroke-linecap="round"/>
<path d="M146.836 88.1133C146.872 88.1133 147.016 88.1133 147.719 88.2391C148.3 88.3431 149.32 88.6164 151.573 89.1413C153.826 89.6662 157.276 90.4569 159.134 90.8732C160.992 91.2895 161.154 91.3074 161.587 91.4245C162.722 91.7572 163.57 92.0333 163.958 92.1689C164.22 92.2505 164.616 92.3583 165.186 92.5239" stroke="#131313" stroke-width="0.598721" stroke-linecap="round"/>
<path d="M147.653 90.5664C148.372 90.7461 149.425 91.0184 151.439 91.4703C152.764 91.7678 154.729 92.1019 156.178 92.4398C157.627 92.7777 158.507 93.0832 159.186 93.2855C159.864 93.4877 160.313 93.5776 160.598 93.6418C160.884 93.7061 160.992 93.742 161.157 93.8335" stroke="#131313" stroke-width="0.598721" stroke-linecap="round"/>
<path d="M149.178 94.2148C149.935 94.2682 151.567 94.7387 152.379 94.9856C152.678 95.085 153.563 95.3382 154.724 95.6556C155.148 95.7754 155.238 95.8114 155.494 95.9029" stroke="#131313" stroke-width="0.598721" stroke-linecap="round"/>
<path d="M147.49 97.918C148.244 97.9898 148.759 98.0628 149.372 98.1712C149.857 98.2569 150.703 98.3514 151.713 98.5417C152.723 98.732 153.873 99.0016 154.529 99.1674C155.573 99.4316 156.18 99.6049 156.582 99.7598C156.938 99.897 157.775 100.059 158.387 100.25C158.832 100.388 159.123 100.495 159.602 100.631C160.313 100.802 160.866 100.913 161.226 100.967C161.497 101.021 161.946 101.128 162.518 101.294" stroke="#131313" stroke-width="0.598721" stroke-linecap="round"/>
<path d="M20.6437 110.613C20.4042 110.926 19.8501 111.996 19.4316 113.148C19.191 113.81 19.0142 114.206 18.5338 115.683C18.3805 116.155 18.2362 116.667 18.0608 117.783C17.9463 118.511 17.8305 119.577 17.7643 120.262C17.6719 121.221 17.6799 121.635 17.6521 122.223C17.5932 123.471 17.7527 124.67 17.9377 125.3C18.0376 125.639 18.1973 125.877 18.4649 126.136C19.0745 126.726 19.919 126.6 21.3973 126.61C21.7352 126.601 21.882 126.583 22.0217 126.555C22.1615 126.527 22.2899 126.49 22.5333 126.452" stroke="#131313" stroke-width="0.598721" stroke-linecap="round"/>
<path d="M28.7314 122.753C28.7314 122.628 28.5138 122.221 28.2065 121.835C27.9762 121.546 27.5407 121.325 27.0923 121.12C26.6674 120.926 26.0957 121.119 25.4686 121.463C24.5697 121.957 24.2419 122.688 24.0147 123.135C23.7819 123.592 23.7705 124.521 23.7858 125.493C23.7918 125.876 23.8943 126.031 23.9888 126.15C24.2917 126.531 24.9588 126.614 25.7298 126.6C26.2631 126.59 26.8286 126.021 27.3462 125.566C27.6646 125.286 27.8511 124.984 28.0781 124.6C28.3436 124.152 28.6508 123.292 28.9181 122.522C28.7479 123.282 28.5901 124.414 28.551 124.893C28.543 125.119 28.543 125.508 28.4959 125.955" stroke="#131313" stroke-width="0.598721" stroke-linecap="round"/>
<path d="M37.461 116.062C37.4766 116.187 37.4921 116.311 37.3214 117.642C37.1506 118.973 36.7932 121.506 36.5935 122.873C36.3938 124.241 36.3627 124.365 36.3 124.771C36.0026 126.699 36.017 127.207 35.9854 127.538C35.9642 127.76 35.8912 127.946 35.8521 128.01C35.8397 128.03 35.7975 127.948 35.797 127.256C35.7966 126.563 35.8276 125.242 35.7893 124.476C35.7418 123.529 35.4678 123.301 35.3503 123.183C35.153 122.986 34.7321 122.939 34.1896 122.884C33.7508 122.84 33.1006 122.86 32.0404 123.228C31.5898 123.384 30.8418 124.08 30.3501 124.703C30.0918 125.03 30.1607 125.59 30.1918 126.029C30.215 126.356 30.4579 126.58 30.7704 126.815C31.2225 127.154 31.7136 127.256 32.2752 127.342C33.3912 127.513 34.4434 127.57 34.9768 127.601C35.4365 127.628 35.7796 127.711 36.1018 127.829C36.1884 127.853 36.2817 127.868 36.3608 127.892C36.4399 127.915 36.5021 127.946 36.5662 127.978" stroke="#131313" stroke-width="0.598721" stroke-linecap="round"/>
<path d="M39.2756 123.652C39.2271 123.779 39.0607 124.141 38.8899 124.614C38.7796 124.919 38.6512 125.368 38.5812 125.821C38.3603 127.251 38.5798 127.493 38.6284 127.571C38.6885 127.668 38.9507 127.621 39.2052 127.616C39.3826 127.613 39.8691 127.465 40.5448 127.255C41.1321 127.072 41.4791 126.711 41.753 126.427C42.1636 126.002 42.538 125.701 42.6601 125.569C42.7823 125.437 43.0074 125.212 43.2861 124.855C43.5591 124.506 43.7041 124.231 43.7776 124.109C43.8273 124.026 43.5892 124.441 43.2464 125.215C43.1112 125.52 43.0783 125.658 42.9079 126.121C42.7376 126.584 42.4369 127.37 41.9861 128.284C41.5353 129.198 40.9435 130.217 40.5126 130.906C40.0816 131.596 39.8294 131.926 39.5443 132.241C39.2591 132.556 38.9487 132.848 38.6384 133.08C38.3281 133.312 38.0274 133.477 37.7561 133.615C37.4848 133.754 37.2519 133.861 36.8555 134.003C36.4591 134.145 35.9062 134.32 35.306 134.448C34.7059 134.577 34.0754 134.655 33.5517 134.695C33.028 134.735 32.6302 134.735 32.2653 134.681C31.5692 134.58 31.1922 134.382 31.0555 134.304C30.8724 134.2 30.7412 134.059 30.6291 133.869C30.4356 133.541 30.2712 133.023 30.1683 132.485C30.0925 132.088 30.2109 131.748 30.3673 131.454C30.4927 131.219 30.7007 131.061 30.9883 130.846C31.1721 130.709 31.4603 130.554 31.935 130.343C32.4098 130.132 33.0694 129.88 34.9905 129.59C36.9115 129.3 40.074 128.98 42.4549 128.815C44.8359 128.65 46.3395 128.65 47.8887 128.65" stroke="#131313" stroke-width="0.598721" stroke-linecap="round"/>
<path d="M19.4998 131.406C19.4834 131.455 19.4671 131.504 19.2871 133.009C19.107 134.513 18.7638 137.472 18.5788 139.216C18.3938 140.961 18.3775 141.402 18.32 141.891C18.2626 142.38 18.1645 142.903 18.114 143.23C18.0634 143.556 18.0634 143.671 18.0139 143.838" stroke="#131313" stroke-width="0.598721" stroke-linecap="round"/>
<path d="M19.7474 131.504C20.323 131.504 21.5067 131.765 22.1152 132.056C22.7509 132.36 23.3284 132.791 23.5604 133.079C23.7887 133.363 23.9564 133.78 24.0973 134.078C24.1563 134.203 24.1555 134.637 24.131 135.215C24.1186 135.507 23.8925 135.663 23.6701 135.82C23.2977 135.945 22.9361 136.076 21.8604 136.151C21.1313 136.16 19.791 136.16 18.4102 136.16" stroke="#131313" stroke-width="0.598721" stroke-linecap="round"/>
<path d="M25.6908 132.891C25.6908 133.055 25.6254 133.351 25.2629 135.573C25.1955 136.043 25.1955 136.125 25.1874 136.2C25.1792 136.274 25.1628 136.34 25.146 136.556" stroke="#131313" stroke-width="0.598721" stroke-linecap="round"/>
<path d="M26.2854 130.859C26.2854 130.876 26.2854 130.892 26.2854 130.958C26.2854 131.023 26.2854 131.138 26.2772 131.238C26.269 131.337 26.2527 131.419 26.2358 131.553" stroke="#131313" stroke-width="0.598721" stroke-linecap="round"/>
<path d="M27.7712 131.305C27.6563 131.996 27.2947 133.277 27.0453 134.134C26.855 134.788 26.7479 135.496 26.6407 135.991C26.5706 136.315 26.5498 136.62 26.4921 136.752C26.3721 137.028 26.4666 135.93 27.0496 134.4C27.9293 132.092 28.3972 131.934 28.6206 131.792C28.7984 131.678 28.844 132.244 28.9017 132.933C28.947 133.473 28.9431 134.406 28.739 136.308C28.5349 138.21 28.11 141.054 27.8829 142.568C27.6558 144.082 27.6394 144.18 27.6226 144.281" stroke="#131313" stroke-width="0.598721" stroke-linecap="round"/>
<path d="M31.0897 135.863C31.1392 136.192 30.9431 137.308 30.6296 138.759C30.431 139.678 30.3968 140.187 30.2898 140.729C30.101 141.685 30.0337 142.58 29.9102 143.23C29.8029 144.059 29.7524 144.596 29.7442 144.736C29.7361 144.811 29.7197 144.892 29.7029 145.076" stroke="#131313" stroke-width="0.598721" stroke-linecap="round"/>
<path d="M33.9127 137.051C33.7819 137.214 33.4858 137.593 33.09 138.087C32.8406 138.399 32.4298 138.863 31.747 139.76C30.2354 141.744 29.9013 142.102 29.8842 142.226C29.8532 142.45 30.5898 142.76 31.3156 143.181C32.1028 143.638 32.7884 144.247 33.2421 144.586C33.3827 144.677 33.5462 144.775 33.6794 144.842C33.8127 144.909 33.9107 144.942 34.0118 145.025" stroke="#131313" stroke-width="0.598721" stroke-linecap="round"/>
<path d="M40.3368 133.711C40.3239 133.828 40.3109 133.945 39.876 135.789C39.4411 137.633 38.5846 141.202 38.1305 143.066C37.6763 144.93 37.6504 144.982 37.6175 144.912C37.3888 144.42 37.6095 143.886 38.1708 142.754C38.3958 142.3 38.8733 141.744 39.1588 141.385C39.7776 140.607 40.4249 140.019 40.8665 139.669C40.9795 139.58 41.1225 139.57 41.2664 139.589C41.3969 139.607 41.4768 139.74 41.5488 139.877C41.5912 139.958 41.6077 140.079 41.6211 140.567C41.6345 141.056 41.6345 141.912 41.6085 142.541C41.5826 143.171 41.5307 143.547 41.5039 143.955C41.4772 144.363 41.4772 144.791 41.4772 145.232" stroke="#131313" stroke-width="0.598721" stroke-linecap="round"/>
<path d="M44.1214 139.815C43.7813 140.312 43.4938 140.886 43.2504 141.869C43.139 142.32 43.1777 142.619 43.145 142.959C43.1016 143.412 43.2292 143.877 43.4057 144.139C43.5147 144.301 43.7144 144.258 43.8581 144.252C44.4014 144.227 45.1414 143.735 45.6333 143.2C46.0226 142.775 46.1913 142.021 46.3486 141.198C46.6275 139.738 46.2582 139.397 46.1929 139.213C46.1392 139.063 45.7887 139.029 45.3565 139.042C44.7637 139.059 44.2142 139.487 43.9586 139.611C43.8084 139.761 43.7022 139.958 43.6434 140.141C43.6106 140.221 43.5717 140.273 43.5316 140.444" stroke="#131313" stroke-width="0.598721" stroke-linecap="round"/>
<path d="M48.508 135.797C48.508 135.907 48.4201 136.437 48.2371 137.373C48.1177 137.984 47.9015 139.139 47.7882 139.8C47.6529 140.589 47.6639 140.795 47.6473 141.06C47.583 142.081 47.8296 142.615 47.9135 142.866C47.9852 143.081 48.1628 143.227 48.3131 143.389C48.4656 143.552 48.74 143.561 49.3165 143.644C49.796 143.639 49.9516 143.584 50.1282 143.518C50.2609 143.462 50.4808 143.363 50.7074 143.261" stroke="#131313" stroke-width="0.598721" stroke-linecap="round"/>
<path d="M52.1907 142.181C52.233 142.107 52.5089 141.915 53.1646 141.452C53.7853 141.013 53.8766 140.368 53.9725 140.101C54.0241 139.958 54.0155 139.728 53.9944 139.493C53.9832 139.369 53.8135 139.332 53.6486 139.284C53.1634 139.143 52.7145 139.854 52.5701 140.104C52.4882 140.247 52.394 140.462 52.2664 140.886C51.9072 142.082 51.9564 142.445 51.9293 142.852C51.9166 143.044 51.9026 143.215 51.9132 143.364C51.9239 143.516 52.03 143.653 52.1525 143.754C52.4792 144.025 53.3407 143.761 54.0576 143.528C54.5305 143.374 55.1866 143.041 55.6563 142.783C56.4068 142.37 56.7146 142.032 56.8954 141.841C57.0021 141.734 57.1395 141.607 57.2525 141.484C57.3655 141.36 57.45 141.244 57.5371 141.125" stroke="#131313" stroke-width="0.598721" stroke-linecap="round"/>
<path d="M8.38763 117.113C8.38763 117.438 8.36442 117.745 7.31962 121.356C6.29803 124.828 4.27876 131.629 3.21532 135.26C2.15188 138.891 2.10546 139.146 1.9873 139.55" stroke="#131313" stroke-width="0.598721" stroke-linecap="round"/>
<path d="M12.5372 118.242C12.4444 118.637 12.3515 119.031 11.3985 122.252C10.4455 125.472 8.6351 131.507 7.62125 134.825C6.60739 138.142 6.44492 138.56 6.32641 138.961C6.02011 140.232 5.87945 140.839 5.82072 141.322C5.7859 141.428 5.71627 141.544 5.64453 141.663" stroke="#131313" stroke-width="0.598721" stroke-linecap="round"/>
<path d="M0.299316 124.922C1.36698 125.084 2.43463 125.247 4.43526 125.644C6.4359 126.041 9.33714 126.668 11.2495 127.13C14.0159 127.798 14.9744 128.227 15.2546 128.379C15.4189 128.461 15.6278 128.554 15.7818 128.613C15.9358 128.673 16.0287 128.696 16.1243 128.79" stroke="#131313" stroke-width="0.598721" stroke-linecap="round"/>
<path d="M1.00269 129.492C1.35084 129.539 1.69899 129.585 3.79316 130.131C5.88733 130.677 9.71698 131.722 12.0148 132.399C14.3126 133.076 14.9624 133.355 15.3436 133.533C15.7249 133.711 15.8177 133.781 16.054 133.923" stroke="#131313" stroke-width="0.598721" stroke-linecap="round"/>
</svg>
