<svg width="203" height="150" viewBox="0 0 203 150" fill="none" xmlns="http://www.w3.org/2000/svg">
<path d="M97.1397 44.6249C97.5151 44.6702 98.0351 44.7309 98.8122 44.7907C99.1474 44.883 100.293 44.9727 100.429 45.0329C100.99 45.307 101.713 45.7879 102.937 46.2109C103.586 46.5135 104.217 46.964 104.702 47.4342C105.216 47.9337 105.822 48.6556 106.241 49.3821C106.573 49.9572 107.281 50.7202 107.631 52.4885C108.023 54.4644 108.291 55.7825 108.308 56.9635C108.323 58.0241 108.323 59.967 108.107 61.9086C107.892 63.8501 107.499 65.7399 107.233 66.7364C106.933 67.8591 106.727 68.0832 106.479 68.4198C105.845 69.2794 105.571 70.0597 103.561 71.6073C102.312 72.5692 100.816 73.3991 99.4571 73.7467C98.8693 73.8971 97.4615 73.9117 95.8163 73.7902C94.3938 73.6851 93.0482 73.7519 92.0705 73.4868C89.9029 72.8989 89.2313 72.929 88.1335 71.7477L88.0536 71.6618C86.6559 70.1579 85.5446 68.9623 85.0416 67.8379C84.3161 66.216 83.4967 64.7396 83.4587 62.6323C83.4139 60.1437 83.4334 58.401 83.5357 57.7669C83.6865 56.8321 84.089 55.5048 84.4723 54.2507C84.7436 53.363 84.6836 52.5723 86.3763 50.1896C87.0407 49.2544 88.1824 48.1625 89.032 47.4306C89.575 46.9627 90.0145 46.4749 92.1117 45.8269C94.6003 45.0579 96.4997 44.5477 97.1397 44.6249Z" stroke="#131313" stroke-width="0.969196" stroke-linecap="round"/>
<path d="M132.268 44.6249C132.643 44.6702 133.163 44.7309 133.94 44.7907C134.276 44.883 135.421 44.9727 135.558 45.0329C136.118 45.307 136.841 45.7879 138.065 46.2109C138.714 46.5135 139.346 46.964 139.83 47.4342C140.344 47.9337 140.95 48.6556 141.369 49.3821C141.701 49.9572 142.409 50.7202 142.76 52.4885C143.151 54.4644 143.42 55.7825 143.436 56.9635C143.451 58.0241 143.451 59.967 143.236 61.9086C143.02 63.8501 142.628 65.7399 142.361 66.7364C142.062 67.8591 141.855 68.0832 141.607 68.4198C140.973 69.2794 140.699 70.0597 138.689 71.6073C137.44 72.5692 135.944 73.3991 134.585 73.7467C133.997 73.8971 132.59 73.9117 130.945 73.7902C129.522 73.6851 128.176 73.7519 127.199 73.4868C125.031 72.8989 124.359 72.929 123.262 71.7477L123.182 71.6618C121.784 70.1579 120.673 68.9623 120.17 67.8379C119.444 66.216 118.625 64.7396 118.587 62.6323C118.542 60.1437 118.562 58.401 118.664 57.7669C118.815 56.8321 119.217 55.5048 119.6 54.2507C119.872 53.363 119.812 52.5723 121.504 50.1896C122.169 49.2544 123.311 48.1625 124.16 47.4306C124.703 46.9627 125.143 46.4749 127.24 45.8269C129.728 45.0579 131.628 44.5477 132.268 44.6249Z" stroke="#131313" stroke-width="0.969196" stroke-linecap="round"/>
<path d="M92.3775 53.1315C92.3615 53.293 92.2968 53.6479 92.1755 54.319C92.0387 55.0759 92.0051 55.7068 91.9164 56.6475C91.8414 57.4423 91.7795 58.8877 91.7222 59.6877C91.6648 60.4877 91.6327 60.6 91.6082 61.6044C91.5836 62.6089 91.5676 64.502 91.5593 65.5093C91.5511 66.5167 91.5511 66.5808 91.5831 66.6219C91.8396 66.9503 92.571 66.7928 93.511 66.8891C94.3558 66.9756 95.9431 67.1778 96.7934 67.277C97.8849 67.4043 98.2426 67.4248 99.5594 67.6266C99.9257 67.6827 100.091 67.6839 100.268 67.7082C100.365 67.7215 100.478 67.7165 100.544 67.5561C100.61 67.3956 100.626 67.0748 100.69 66.5405C100.755 66.0062 100.867 65.2682 100.965 63.9976C101.063 62.727 101.143 60.9462 101.2 59.9726C101.258 58.9991 101.29 58.8868 101.331 57.8824C101.371 56.8779 101.419 54.9848 101.396 53.9935C101.373 53.0022 101.276 52.9701 101.034 52.9536C100.407 52.9371 99.9141 52.921 98.6532 52.8887C97.4886 52.8724 95.2585 52.8564 92.9609 52.8398" stroke="#131313" stroke-width="0.969196" stroke-linecap="round"/>
<path d="M126.567 51.832C126.567 52.1228 126.535 52.4305 126.358 54.0686C126.193 55.5925 125.956 58.5304 125.768 60.4279C125.58 62.3254 125.467 63.0955 125.401 63.773C125.281 65.0089 125.287 65.7028 125.263 66.1457C125.215 67.0205 125.238 67.6961 125.214 67.9064C125.203 68.004 125.206 68.0845 125.414 68.1098C126.036 68.1851 126.582 68.0379 126.905 67.9812C127.414 67.8919 127.83 67.9081 128.802 67.8838C129.678 67.8619 131.33 67.8755 132.23 67.8915C133.504 67.9143 134.277 68.1011 134.766 68.2559C135.042 68.3435 135.236 68.4263 135.366 68.4266C135.433 68.4267 135.495 68.3626 135.544 67.0544C135.593 65.7461 135.625 63.1791 135.682 61.5038C135.739 59.8285 135.819 59.1226 135.86 58.6867C135.94 57.846 135.999 57.2003 136.039 56.6468C136.086 55.9992 136.193 55.1885 136.274 54.5973C136.33 54.1852 136.371 53.7952 136.428 53.4057C136.449 53.2617 136.436 53.0358 136.388 52.9201C136.259 52.611 135.693 52.7237 134.829 52.5783C133.762 52.399 132.969 52.2861 132.182 52.1894C131.508 52.1066 130.271 52.0284 129.594 51.9708C128.918 51.9132 128.837 51.8972 128.563 51.8889C128.29 51.8806 127.824 51.8806 127.345 51.8806" stroke="#131313" stroke-width="0.969196" stroke-linecap="round"/>
<path d="M127.005 51.8789H127.296" stroke="#131313" stroke-width="0.969196" stroke-linecap="round"/>
<path d="M106.946 73.1813C107.304 73.1936 107.661 73.206 107.938 73.2C108.215 73.194 108.4 73.1693 110.012 73.1566C111.625 73.1439 114.659 73.1439 116.278 73.1501C118.007 73.1567 118.307 73.1813 118.575 73.206C118.668 73.2146 118.385 73.6021 118.031 74.0503C117.893 74.2237 117.861 74.3011 117.077 75.3013C116.293 76.3015 114.764 78.2256 113.945 79.2415C113.078 80.3175 112.952 80.4192 112.76 80.6483C112.077 81.4632 111.831 81.8137 111.569 82.0942C111.357 82.3216 111.307 82.5993 111.282 82.6683C111.25 82.7574 111.207 82.3523 110.633 81.0675C110.116 79.9094 109.06 77.7599 108.477 76.5678C107.812 75.2072 107.669 74.9761 107.582 74.7776C107.301 74.1341 107.108 73.7554 107.027 73.5435C106.996 73.407 106.959 73.2815 106.915 73.182C106.896 73.132 106.884 73.0826 106.834 72.957" stroke="#131313" stroke-width="0.969196" stroke-linecap="round"/>
<path d="M107.682 45.3472C107.693 45.2529 107.577 44.9252 107.277 44.5251C107.069 44.2467 106.674 43.8735 106.139 43.4485C105.604 43.0236 104.923 42.5731 104.473 42.3044C104.023 42.0356 103.823 41.9623 103.618 41.8867" stroke="#131313" stroke-width="0.969196" stroke-linecap="round"/>
<path d="M120.603 46.0104C120.603 45.9367 120.645 45.6945 120.85 45.2259C120.991 44.9038 121.296 44.4535 121.609 44.0274C121.923 43.6014 122.258 43.2242 122.53 42.9514C123.001 42.5214 123.311 42.3071 123.491 42.212C123.566 42.1693 123.608 42.1379 123.651 42.1055" stroke="#131313" stroke-width="0.969196" stroke-linecap="round"/>
<path d="M111.344 82.2276C111.228 82.5013 111.178 83.114 111.128 83.5207C111.106 83.6976 111.111 83.8583 111.098 84.0363C111.077 84.3372 111.193 84.8625 111.359 85.4073C111.444 85.6854 111.568 85.8634 111.693 86.0711C111.942 86.4866 112.309 86.9211 112.577 87.136C112.782 87.2996 113.118 87.5817 113.416 87.7796C113.713 87.9774 113.96 88.0845 114.294 88.1768C114.627 88.2691 115.039 88.3432 115.412 88.3814C115.785 88.4196 116.106 88.4196 116.387 88.4031C116.9 88.373 117.359 88.2126 117.828 87.9638C118.079 87.8306 118.338 87.6491 118.564 87.4693C118.991 87.1307 119.266 86.7732 119.478 86.4579C119.702 86.123 119.865 85.7251 120.019 85.3184C120.097 85.1118 120.148 84.8952 120.202 84.6241C120.257 84.3531 120.306 84.0318 120.332 83.6644C120.341 82.4031 120.307 82.2196 120.295 82.1285C120.283 82.0703 120.258 81.9879 120.182 81.8281" stroke="#131313" stroke-width="0.969196" stroke-linecap="round"/>
<path d="M111.169 82.3519C111.153 82.4922 111.037 83.1878 110.887 83.8139C110.18 86.7643 108.018 88.3591 105.009 87.3756C102.045 86.4066 102.4 82.4426 103.154 80.1797" stroke="#131313" stroke-width="0.969196" stroke-linecap="round"/>
<path d="M87.1607 76.0124C86.7619 75.8684 86.0231 75.708 85.2234 75.6274C84.7629 75.5809 83.9503 75.5954 83.3898 75.6269C82.5372 75.6749 81.7398 76.0582 80.9295 76.4432C80.5431 76.6268 80.4029 76.7661 80.2828 76.966C80.0022 77.4327 80.0976 77.8405 80.1371 78.2583C80.1766 78.677 80.5936 79.0291 81.0263 79.3342C81.7304 79.8306 82.7425 80.0087 83.5694 80.1457C84.0523 80.2257 84.4305 80.2341 84.9805 80.2902C86.1765 80.4122 87.111 80.315 87.4072 80.2589C88.2961 80.0905 89.4213 79.6745 89.7844 79.3046C90.004 79.0809 90.0974 78.8066 90.1865 78.4546C90.2998 78.0068 90.1788 77.6344 90.1388 77.5063C90.0157 77.1116 89.2816 76.912 88.8958 76.7035C88.4147 76.495 87.805 76.2696 87.4029 76.1653C87.3061 76.141 87.2107 76.1251 86.968 76.1087" stroke="#131313" stroke-width="0.969196" stroke-linecap="round"/>
<path d="M143.524 76.0124C143.125 75.8684 142.387 75.708 141.587 75.6274C141.126 75.5809 140.314 75.5954 139.753 75.6269C138.901 75.6749 138.103 76.0582 137.293 76.4432C136.907 76.6268 136.766 76.7661 136.646 76.966C136.366 77.4327 136.461 77.8405 136.501 78.2583C136.54 78.677 136.957 79.0291 137.39 79.3342C138.094 79.8306 139.106 80.0087 139.933 80.1457C140.416 80.2257 140.794 80.2341 141.344 80.2902C142.54 80.4122 143.475 80.315 143.771 80.2589C144.66 80.0905 145.785 79.6745 146.148 79.3046C146.368 79.0809 146.461 78.8066 146.55 78.4546C146.663 78.0068 146.542 77.6344 146.502 77.5063C146.379 77.1116 145.645 76.912 145.259 76.7035C144.778 76.495 144.169 76.2696 143.766 76.1653C143.67 76.141 143.574 76.1251 143.332 76.1087" stroke="#131313" stroke-width="0.969196" stroke-linecap="round"/>
<path d="M104.999 38.3512C103.651 37.5879 103.092 37.3839 102.632 37.2311C102.144 37.0689 101.512 37.0523 100.763 36.8876C100.47 36.8234 100.067 36.7482 98.7746 36.7092C97.4825 36.6703 95.3141 36.6703 94.1467 36.6829C92.9792 36.6955 92.8783 36.7207 92.8138 36.6706C92.2456 36.2303 92.7989 34.7892 92.9394 34.202C93.0857 33.5909 93.1809 33.1831 93.5492 32.8003C94.1958 32.1282 95.1659 32.4175 98.0475 32.4168C98.8614 32.4165 99.2162 32.5696 99.8618 32.7212C101.103 33.0129 102.749 33.6614 104.187 34.2467C104.745 34.4736 104.944 34.5798 105.086 34.6696C105.303 34.835 105.381 35.7198 105.369 36.9927C105.356 37.4588 105.331 37.5596 105.305 37.7399" stroke="#131313" stroke-width="0.969196" stroke-linecap="round"/>
<path d="M123.652 38.1064C123.905 37.9681 124.787 37.732 125.563 37.5546C126.327 37.3797 127.468 37.0502 129.08 37.0007C130.059 36.9707 131.812 37.2439 132.764 37.3255C133.716 37.4071 133.812 37.3941 133.908 37.3926C134.004 37.3911 134.098 37.4014 134.177 37.1264C134.749 35.1414 134.12 33.559 134.06 33.1338C133.991 32.6433 132.576 32.8832 131.289 33.0508C130.528 33.15 129.569 33.2664 128.013 33.416C127.224 33.4919 126.657 33.6602 125.771 33.7891C125.137 33.8813 124.587 34.004 124.099 34.2007C123.985 34.2467 123.887 34.2847 123.819 34.3489C123.608 35.2752 123.476 36.8898 123.513 37.42C123.523 37.5416 123.536 37.6377 123.605 37.8861" stroke="#131313" stroke-width="0.969196" stroke-linecap="round"/>
<path d="M115.775 30.4535C115.434 30.3567 114.267 29.5793 113.284 29.1341C112.537 28.7956 110.849 28.6933 109.374 29.1554C108.329 29.4825 107.76 30.4506 106.831 30.7703C105.867 31.1019 105.12 31.5771 104.215 31.7729C103.402 31.9488 100.867 32.5875 99.6423 32.4658M93.4564 36.854C93.0078 37.9836 92.2118 39.0051 90.8931 40.0333C89.8559 40.8421 88.5476 41.4987 87.6147 42.2101C86.7198 42.8926 85.614 44.0392 84.2183 45.4591C83.2098 46.4851 82.0907 48.1933 81.5993 49.5178C81.1574 50.709 81.1578 54.6238 80.9392 57.3389C80.7376 59.8443 79.4973 61.204 78.9597 62.0357C78.2582 63.121 77.7372 64.1376 76.8343 65.5538C76.1443 66.6362 75.7335 67.7548 75.292 68.8065C74.7541 70.0878 74.6568 71.5157 74.4111 73.3023" stroke="#131313" stroke-width="0.969196" stroke-linecap="round"/>
<path d="M115.75 30.3704C116.188 30.3704 117.992 29.7957 121.023 29.847C122.241 29.8676 126.257 30.9244 128.021 33.2392M131.234 37.1358C132.441 37.756 133.798 38.453 135.096 39.1402C136.219 39.7347 137.564 40.5565 138.616 41.3148C140.049 42.3479 140.548 43.2466 141.088 43.9558C142.033 45.1978 143.042 47.5943 143.557 48.8433C144.121 50.2094 145.242 51.0208 146.61 51.8759C147.594 52.4916 148.322 53.5613 148.984 54.7832C149.945 56.5581 149.939 58.352 150.013 59.2592C150.051 59.7261 150.135 60.6974 150.159 61.9185C150.174 62.659 150.282 65.3252 150.379 69.2343C150.917 71.9963 151.112 72.8764 151.259 74.9623C151.309 76.7576 151.309 80.0492 151.309 83.4405" stroke="#131313" stroke-width="0.969196" stroke-linecap="round"/>
<path d="M115.821 27.2205C115.821 27.151 115.821 26.8371 115.943 25.8595C116.065 25.16 116.308 24.0475 116.451 23.3875C116.593 22.7275 116.628 22.5537 116.769 22.0586" stroke="#131313" stroke-width="0.969196" stroke-linecap="round"/>
<path d="M74.3973 73.3477C74.2882 74.7281 74.9362 77.9316 75.6856 80.0423C76.5139 82.3753 77.5214 83.6068 78.1765 84.6284C78.5718 85.245 79.1206 85.8703 80.1192 87.11C81.6016 88.9501 82.5392 89.5603 83.1212 90.0352C84.2481 90.9549 87.1753 92.3277 88.793 93.1944C90.0214 93.8525 91.5866 94.4159 95.0734 95.1111C96.799 95.4551 97.3745 95.551 98.3006 95.7153C98.8677 95.8159 100.203 95.9892 102.181 96.153C103.912 96.2964 106.306 96.5009 108.796 96.5737C109.702 96.6002 109.882 96.6466 112.404 96.6471C114.927 96.6477 119.787 96.6115 123.01 96.4844C127.682 96.3002 129.301 95.9169 129.681 95.8988C130.758 95.8476 132.308 95.6989 134.792 95.3176C137.516 94.8996 139.261 94.0916 140.419 93.8194C142.317 93.3731 143.843 92.778 144.587 92.4137C146.049 91.6975 147.766 90.4828 148.607 89.5652C149.46 88.6345 150.461 87.3778 150.755 86.5704C150.972 85.5493 151.192 84.1634 151.21 83.1965C151.228 82.8081 151.264 82.6273 151.301 82.3315" stroke="#131313" stroke-width="0.969196" stroke-linecap="round"/>
<path d="M116.975 21.9322C116.773 21.6266 116.057 21.0138 115.136 20.679C114.168 20.327 113.345 20.2428 111.611 20.1153C107.364 19.8031 107.997 20.1153 107.997 20.1153M82.4489 29.8088C81.2084 30.5647 80.3555 31.6939 79.4555 32.5242C78.0348 33.8349 77.3537 34.5722 76.6372 35.4953C75.7023 36.6998 74.8964 37.3367 74.1284 38.4379C73.2621 39.6802 72.6479 43.1484 72.0021 45.7578C71.5997 47.3833 71.7202 48.8556 71.3877 50.1357C71.0675 51.3684 70.341 52.5938 69.8012 53.414C69.2232 54.2921 68.498 55.4075 67.3208 57.173C66.4792 58.435 66.142 59.2502 65.6797 60.5272C65.1114 62.0974 65.2697 63.2925 65.2428 65.1847C65.2238 66.5238 65.4724 68.2564 65.7281 69.5127C65.9129 70.4204 66.1896 71.3818 66.2664 73.4161C66.4273 77.6774 66.1912 80.6507 65.9869 81.1859C65.0643 83.6033 64.7076 87.0951 64.4756 88.912C64.0827 91.9903 64.8581 93.3429 65.4455 94.9048C65.8232 95.9089 66.5444 97.1303 67.3899 98.0817C68.566 99.4052 71.3547 99.4402 73.7552 99.5178C77.1998 99.6291 78.6223 100.257 79.6767 100.847C80.6507 101.392 81.3408 102.254 82.3375 102.945C84.0693 104.146 85.8439 105.018 87.1747 105.303C88.5785 105.602 89.7357 104.972 90.6833 104.257C91.6834 103.501 92.4511 102.619 93.1414 101.672C93.717 100.882 93.732 100.008 93.7588 97.6333C93.7335 97.0888 93.6828 96.8354 93.6567 96.5021C93.6306 96.1688 93.6306 95.7634 93.6306 95.3456" stroke="#131313" stroke-width="0.969196" stroke-linecap="round"/>
<path d="M116.939 21.9195C117.98 21.2067 121.023 19.7529 123.175 20.2376M147.123 32.223C148.275 32.8872 149.456 33.6828 150.198 34.2979C151.051 35.0041 152.269 36.0358 152.963 36.9081C153.574 37.6754 154.217 38.6467 154.806 39.9775C155.364 41.2348 155.243 42.4341 155.448 43.3587C155.628 44.1734 156.21 46.8205 156.549 48.6059C156.729 49.5541 157.033 50.4727 158.463 53.1551C159.168 54.4773 159.899 55.2861 160.717 56.537C162.724 59.6064 163.125 61.1223 164.097 63.8791C164.818 65.9247 165.02 67.7202 165.379 69.2361C165.588 70.1161 165.585 74.6008 165.407 77.6057C165.302 79.3693 165.023 80.5722 164.945 82.0343C164.911 82.6768 164.817 84.8618 164.842 87.8045C164.853 89.0769 164.971 92.1724 164.945 96.7017C164.93 99.4803 164.052 100.901 163.565 101.95C162.802 103.594 159.77 104.783 157.604 105.818C156.423 106.382 154.287 106.178 152.46 106C151.257 105.882 148.861 105.312 146.226 104.672C144.271 104.198 140.474 105.044 138.252 105.537C137.044 105.805 134.985 105.972 132.649 106.305C131.753 106.432 131.082 106.434 130.572 106.129C129.055 105.224 129.493 103.469 128.983 101.476C128.878 100.756 128.777 100.039 128.623 98.9678C128.571 98.3527 128.571 97.5924 128.571 96.8092" stroke="#131313" stroke-width="0.969196" stroke-linecap="round"/>
<path d="M76.647 35.1875C76.1211 35.7715 75.3032 36.9394 74.2469 38.4072C73.5869 39.3244 72.8407 40.2251 71.6974 40.9603C70.5551 41.6949 69.4987 42.0438 68.5304 42.6603C67.903 43.0598 67.5603 43.7447 67.3554 44.3296C67.156 44.8987 67.1488 45.7939 67.2939 46.7894C67.4916 48.146 68.5524 48.96 68.8778 50.2211C68.9734 50.5918 68.9077 51.0672 68.7626 51.4515C68.2326 52.8553 66.512 53.1849 65.1603 53.5086C63.7241 53.8524 62.8147 54.3001 61.5835 54.885C60.4793 55.4095 59.7647 56.2912 59.2643 57.1707C59.0218 57.5969 59.0576 58.3421 59.2608 59.2489C59.7058 61.235 61.9247 61.568 62.7488 62.3015C63.5113 63.1528 64.447 63.9707 65.0363 64.91C65.1541 65.1457 65.2702 65.3779 65.3898 65.6171" stroke="#131313" stroke-width="0.969196" stroke-linecap="round"/>
<path d="M152.006 35.4648C152.534 35.6749 153.906 36.5214 155.237 37.2127C156.463 37.8497 157.359 38.0616 158.235 38.6185C159.188 39.2245 160.064 40.1269 160.755 40.8986C161.094 41.2768 161.235 42.1413 161.051 43.4111C160.647 46.1999 157.429 48.7064 156.384 50.7598C155.809 51.8899 155.666 53.4369 155.771 54.8141C155.816 55.4111 156.086 55.7711 156.299 56.013C157.108 56.9301 159.211 56.8372 160.646 57.1825C162.32 57.5851 163.351 58.7975 163.964 59.6209C164.47 60.3377 164.576 61.7093 164.708 63.4866C164.735 64.252 164.735 65.5122 164.894 66.8105" stroke="#131313" stroke-width="0.969196" stroke-linecap="round"/>
<path d="M80.7793 55.3594C80.6269 56.5657 80.828 58.1284 81.2096 59.2631C81.4587 60.0038 81.6415 60.9419 81.5174 63.5555C81.4456 65.0656 78.3509 65.4365 77.1527 66.0056C75.5735 66.7558 74.5392 67.4693 73.7486 68.0185C72.933 68.585 72.0987 69.2676 71.6401 70.2828C71.3227 70.9856 71.2334 71.6122 71.2067 72.4521C71.1998 72.6692 71.2821 72.8618 71.4337 72.9808C72.1202 73.5197 73.4606 73.7997 74.6306 74.3683C75.1328 74.6123 75.4457 75.0517 75.6993 75.4808C76.3959 76.6591 75.502 79.1876 75.0168 80.0926C74.5861 80.896 75.0389 82.0457 75.5973 82.691C76.1069 83.4149 76.5106 83.9612 77.171 84.4307C77.3744 84.5485 77.6257 84.6646 77.8847 84.7842" stroke="#131313" stroke-width="0.969196" stroke-linecap="round"/>
<path d="M149.456 55.7383C149.883 56.1971 151.073 57.9152 151.903 58.7981C152.475 59.4058 153.26 59.8736 154.418 60.3051C155.211 60.6009 155.842 61.0653 156.275 61.6945C156.47 61.9787 156.408 62.4885 156.326 63.0337C156.173 64.0553 154.593 64.277 153.681 64.7076C152.281 65.3687 151.578 65.6674 150.042 66.4609C149.209 66.8914 148.664 67.3219 148.085 67.7202C147.41 68.1843 147.339 68.9109 147.337 69.5897C147.334 70.6054 149.848 70.6012 152.212 71.1623C152.874 71.3195 153.228 71.5277 153.575 71.775C154.257 72.261 154.156 73.6401 154.125 75.164C154.088 77.009 153.232 78.2422 152.818 79.123C152.324 80.1749 151.776 81.1579 151.526 81.7722C151.343 82.3854 151.212 82.9138 151.062 83.5588C151.045 83.8066 151.045 84.1671 151.045 84.5385" stroke="#131313" stroke-width="0.969196" stroke-linecap="round"/>
<path d="M98.4988 95.7539C98.5729 95.9811 98.8714 96.4805 99.2732 96.9689C99.8192 97.6328 100.199 97.8338 100.518 98.104C100.938 98.4602 101.602 98.8325 102.069 99.1852C103.122 99.9806 103.771 99.9773 104.361 100.247C104.632 100.371 105.802 100.869 107.522 101.441C108.686 101.828 109.382 101.85 109.851 101.892C110.099 101.914 111.227 101.996 112.974 101.934C113.722 101.908 114.183 101.749 114.848 101.603C116.36 101.27 117.538 101.019 118.042 100.832C118.602 100.625 119.109 100.333 119.503 100.072C119.875 99.8267 120.455 99.584 121.083 99.3752C121.999 99.0709 122.402 98.5653 122.916 98.1278C123.862 97.5023 124.42 97.0473 124.881 96.7533C124.966 96.7114 125.058 96.6702 125.21 96.5654" stroke="#131313" stroke-width="0.969196" stroke-linecap="round"/>
<path d="M107.828 20.0559C107.752 19.6744 107.295 19.1389 106.128 18.0686C105.375 17.3778 104.084 15.7791 102.242 12.637C101.033 10.574 100.097 9.56965 99.0803 8.47404C97.5813 6.85904 96.9534 6.11792 95.1 4.32081C94.1906 3.43899 93.2029 2.74661 92.4331 2.45705C91.7581 2.20319 90.675 2.16979 89.3329 2.1876C88.4826 2.19888 87.7243 3.31194 86.8803 4.29093C85.6977 5.66269 85.3457 7.18193 84.9062 8.25514C84.6275 8.93577 83.8957 10.4682 83.2401 12.3124C82.3701 14.76 82.0894 17.1419 81.994 17.7934C81.877 18.5924 81.8595 20.1202 81.7642 21.9236C81.5615 25.7556 81.8595 26.4492 81.9739 27.0627C82.0503 27.3684 82.0894 27.6763 82.1273 28.0389C82.1652 28.2497 82.4676 29.1534 82.5458 29.7716" stroke="#131313" stroke-width="0.969196" stroke-linecap="round"/>
<path d="M123.188 20.2957C123.283 19.8658 123.767 19.278 124.987 18.1143C125.774 17.3632 127.144 15.605 129.143 12.1184C130.456 9.82909 131.441 8.73005 132.513 7.53096C134.092 5.76344 134.757 4.94965 136.699 2.99106C137.652 2.03001 138.674 1.28759 139.458 0.992974C140.145 0.734681 141.229 0.744939 142.568 0.824881C143.417 0.875531 144.119 2.17342 144.912 3.32285C146.024 4.93343 146.299 6.67456 146.684 7.91301C146.928 8.69843 147.582 10.4714 148.143 12.5952C148.888 15.4136 149.048 18.1314 149.111 18.8756C149.187 19.7882 149.127 21.5242 149.131 23.5767C149.14 27.9378 148.807 28.7123 148.662 29.4041C148.57 29.7478 148.516 30.0958 148.459 30.5059C148.411 30.7436 148.07 31.9801 147.961 32.6787" stroke="#131313" stroke-width="0.969196" stroke-linecap="round"/>
<path d="M90.1521 6.77734C90.212 6.97825 91.0526 7.8194 91.9037 8.53953C93.2519 9.68024 93.7188 10.3029 94.1542 10.9801C94.9379 12.1989 95.5936 13.0442 96.1709 13.8642C97.1954 15.3193 97.5736 15.8327 98.1379 16.6881C98.6106 17.4046 98.986 18.0924 99.1782 18.4349C99.6993 19.3638 100.437 21.0527 100.741 21.6721C100.802 21.8231 100.862 22.0428 100.903 22.1959C100.944 22.349 100.964 22.4288 101.045 22.6322" stroke="#131313" stroke-width="0.969196" stroke-linecap="round"/>
<path d="M94.1458 11.1306C93.6859 11.1306 91.6768 10.9309 90.5679 10.818C90.3963 10.8006 90.216 10.7881 89.4145 10.7678C87.1955 10.7117 85.7942 10.8268 85.9748 11.0882C86.2168 11.4383 87.1394 12.0135 88.6275 12.9391C90.2918 13.9743 91.3815 14.3578 91.5924 14.448C92.2136 14.7136 92.4103 14.9224 92.5313 15.0229C92.5876 15.0696 92.5724 15.1633 92.4526 15.2943C91.8101 15.9969 90.924 16.6326 89.6475 17.7981C88.9143 18.4675 88.0714 19.363 87.5791 19.8556C86.8345 20.6007 86.7031 20.8928 86.6024 21.0538C86.5111 21.1996 87.7991 21.0574 89.9053 20.6444C91.082 20.4136 91.9619 20.1685 93.0783 19.9273C95.3303 19.4409 96.2021 18.776 96.3837 18.7554C96.8632 18.7011 96.023 20.0045 95.8212 20.7079C95.2826 22.5854 94.9942 23.835 94.9125 24.281C94.894 24.3823 94.8526 24.5019 94.9319 24.5337C95.1922 24.638 96.4151 23.9246 98.0877 23.098C99.0814 22.7107 99.5704 22.5485 99.9023 22.3775C100.074 22.2865 100.254 22.1866 100.56 21.9627" stroke="#131313" stroke-width="0.969196" stroke-linecap="round"/>
<path d="M141.229 5.07812C141.081 5.15223 139.707 6.59944 138.761 7.57425C138.39 7.95704 138.143 8.31441 137.882 8.64927C137.366 9.31383 136.481 10.3297 135.724 11.3677C135.25 12.0176 134.796 12.633 134.279 13.2348C134.057 13.4939 133.895 13.7782 133.57 14.2708C132.911 15.2666 132.418 16.2095 132.109 16.7041C131.456 17.7523 130.94 18.6981 130.611 19.2504C130.246 19.9898 129.984 20.5332 129.853 20.7667C129.797 20.8706 129.76 20.9447 129.721 21.021" stroke="#131313" stroke-width="0.969196" stroke-linecap="round"/>
<path d="M136.683 10.2941C136.701 10.2941 136.72 10.2941 137.368 10.2663C138.017 10.2386 139.295 10.183 140.352 10.0895C141.409 9.99604 142.205 9.86637 142.894 9.79956C143.582 9.73276 144.138 9.73276 144.192 9.89949C144.247 10.0662 143.784 10.3997 142.795 10.9975C141.806 11.5954 140.306 12.4475 139.505 12.9236C138.63 13.4437 138.517 13.5871 138.451 13.671C138.422 13.7084 138.552 13.7735 139.313 14.0893C140.074 14.405 141.5 14.9793 142.328 15.3307C143.353 15.7659 143.772 16.019 144.304 16.2985C145.562 16.9601 145.963 17.5723 146.02 17.7404C146.079 17.9144 144.851 17.9287 143.114 17.8639C141.624 17.8083 140.727 17.5173 140.316 17.4614C139.386 17.335 138.202 17.0317 137.247 16.9741C137.09 16.9647 137.113 17.1035 137.168 17.2809C137.436 18.132 137.859 18.9706 138.234 20.3258C138.711 22.0545 139.097 23.2421 139.032 23.3824C138.948 23.5643 138.592 23.3561 137.526 22.827C136.577 22.3567 134.773 21.5383 133.773 21.0904C132.398 20.5672 132.026 20.4931 131.576 20.4083C131.427 20.3988 130.595 20.1754 130.385 20.1754" stroke="#131313" stroke-width="0.969196" stroke-linecap="round"/>
<path d="M102.214 21.5742C102.057 21.7197 101.887 21.9375 101.728 22.1568C101.46 22.5289 101.291 22.8616 101.06 23.1474C100.901 23.3447 100.683 23.482 100.489 23.6699C99.8102 24.3286 98.8602 24.5882 98.4957 24.7344C97.9731 24.9441 97.6567 25.0382 96.9528 25.2086C96.5666 25.302 96.2095 25.4037 95.6879 25.4763C95.5521 25.4952 95.4567 25.5248 95.034 25.5793C94.6113 25.6338 93.8651 25.7181 93.3904 25.7675C92.7359 25.8356 92.3567 25.8774 91.9445 25.9743C91.7228 26.0264 91.4843 26.1193 91.0714 26.3131C90.6586 26.5069 90.0809 26.8078 89.705 27.017C89.3292 27.2261 89.1727 27.3345 89.032 27.4504C88.8912 27.5664 88.7708 27.6868 88.6104 27.8837" stroke="#131313" stroke-width="0.969196" stroke-linecap="round"/>
<path d="M129.108 19.5586C129.143 19.7659 129.35 20.2158 129.533 20.5816C129.702 20.9184 130.079 21.2583 130.417 21.5622C131.018 22.1015 131.658 22.2311 132.956 22.7675C133.846 23.1353 134.643 23.2383 135.154 23.3161C135.929 23.4341 136.328 23.6893 136.658 23.8108C137.365 24.0717 138.011 24.3485 138.851 24.643C140.353 25.1699 140.805 25.4932 141.396 25.7718C142.521 26.3023 143.098 26.8825 143.428 27.126C143.515 27.1955 143.601 27.2814 143.688 27.3429C143.776 27.4043 143.861 27.4387 144.002 27.6304" stroke="#131313" stroke-width="0.969196" stroke-linecap="round"/>
<path d="M76.5009 35.125C76.3024 35.2097 75.5649 35.6076 74.7781 36.1209C73.957 36.6567 73.5662 37.1477 72.7829 37.519C71.3067 38.2188 70.231 38.5748 69.4318 38.8456C67.8595 39.3784 67.3202 39.4595 66.8201 39.6448C66.2511 39.8555 65.8075 40.3425 65.3938 40.7276C64.9023 41.1849 64.9501 43.2927 65.1063 44.6771C65.1635 45.1846 65.4344 45.6182 65.7048 46.4015C65.9617 47.1459 66.0898 47.6717 66.4034 48.3271C66.7662 49.0853 66.7178 49.6396 66.7187 51.6589C66.719 52.4544 66.4338 52.8909 66.2062 53.4189C65.9623 53.9845 65.3232 54.147 64.8522 54.2762C64.2264 54.4478 63.5264 54.6039 63.0554 54.8032C62.4445 55.0618 61.7878 55.4595 61.2163 55.673C60.3723 55.9882 59.7617 56.428 59.2338 56.9123C58.5886 57.5042 58.5912 58.1957 58.2349 58.9649C57.6708 60.1825 58.1617 62.1316 58.6165 63.2558C58.9399 64.0554 59.3014 64.4417 59.7292 64.8704C60.1442 65.2863 60.8689 65.3281 61.5251 65.4274C62.3423 65.551 63.179 65.8124 64.0911 66.2107C64.6353 66.4396 64.9493 66.7245 65.1341 66.9662C65.2342 67.095 65.3472 67.2361 65.4635 67.6383" stroke="#131313" stroke-width="0.969196" stroke-linecap="round"/>
<path d="M150.457 34.6133C150.757 34.7052 151.313 35.0298 151.905 35.1587C153.031 35.4036 154.911 35.6568 155.609 35.7393C156.192 35.8083 156.562 35.9591 157.302 36.1796C159.148 36.7291 160.021 36.8187 160.474 36.958C160.83 37.0674 161.481 37.5585 161.972 38.0367C162.414 38.4668 162.807 39.045 163.134 39.4532C163.459 39.8599 163.482 40.3923 163.61 41.2031C163.899 43.0182 163.299 43.7805 162.811 44.7108C162.514 45.2777 161.955 45.802 161.395 46.2799C161.017 46.6027 160.606 46.918 160.245 47.2321C159.795 47.6243 159.398 47.8709 159.084 48.1611C158.782 48.4397 158.399 48.7291 158.051 49.1359C157.725 49.5169 157.4 50.029 157.284 50.4361C157.149 50.9072 157.028 51.5141 157.028 53.4256C157.027 54.3438 157.629 55.3426 157.956 55.9856C158.154 56.3761 158.488 56.8556 158.953 57.182C159.604 57.639 160.322 57.438 162.672 57.4847C163.72 57.5055 164.085 57.6929 164.537 57.8671C165.377 58.1902 165.757 58.4592 166.175 58.8531C166.561 59.2169 166.825 59.688 167.162 60.1881C167.825 61.1733 167.292 63.217 167.117 63.7178C166.96 64.1685 166.735 64.6812 166.491 64.9954C166.244 65.3138 165.992 65.6564 165.725 66.1441C165.481 66.6317 165.271 67.097 165.236 67.3168C165.224 67.4446 165.224 67.6055 165.224 67.7713" stroke="#131313" stroke-width="0.969196" stroke-linecap="round"/>
<path d="M77.4732 100.367C77.0509 100.525 76.0963 101.056 74.9282 102.036C73.8538 102.939 72.9091 103.762 72.1904 104.534C71.4218 105.361 70.5187 106.047 69.6151 107.215C69.3489 107.535 69.0334 107.851 68.792 108.119C68.5505 108.386 68.3928 108.597 68.2302 109.132" stroke="#131313" stroke-width="0.969196" stroke-linecap="round"/>
<path d="M145.432 104.445C145.735 104.81 147.075 105.542 148.484 106.459C149.648 107.217 150.501 108.351 151.45 109.241C152.336 110.491 153.193 112.202 153.987 113.396C154.172 113.673 154.293 113.915 154.601 114.347" stroke="#131313" stroke-width="0.969196" stroke-linecap="round"/>
<path d="M96.7852 96.3072C96.7852 96.6022 96.9616 97.8438 97.2446 98.6968C97.4255 99.242 98.0009 99.7494 98.5945 100.493C99.6623 101.83 100.523 102.275 101.373 102.93C102.172 103.547 103.497 104.09 104.032 104.387C104.65 104.73 105.368 104.744 106.759 105.114C107.518 105.316 108.821 105.513 109.973 105.649C112.088 105.898 113.331 105.785 113.82 105.696C115.384 105.411 117.253 105.399 117.744 105.266C119.218 104.867 121.293 103.47 122.524 102.846C123.429 102.388 124.469 101.63 125.26 100.929C126.144 100.146 127.232 98.9294 127.89 97.8407C128.337 97.0808 128.633 96.7243 128.826 96.4872C128.902 96.3678 128.931 96.2501 128.961 96.1289" stroke="#131313" stroke-width="0.969196" stroke-linecap="round"/>
<path d="M100.161 98.3555C100.161 98.3887 100.045 98.9538 99.8604 99.9751C99.7756 100.83 99.7917 101.29 99.8753 101.433C99.9256 101.508 99.992 101.591 100.06 101.677" stroke="#131313" stroke-width="0.969196" stroke-linecap="round"/>
<path d="M104.892 100.82C104.658 102.058 104.489 102.965 104.447 103.327C104.439 103.403 104.439 103.469 104.43 103.537C104.422 103.604 104.406 103.671 104.388 103.89" stroke="#131313" stroke-width="0.969196" stroke-linecap="round"/>
<path d="M107.81 101.523C107.81 101.59 107.794 101.757 107.76 102C107.743 102.11 107.727 102.193 107.718 102.559C107.71 102.926 107.71 103.574 107.71 104.241" stroke="#131313" stroke-width="0.969196" stroke-linecap="round"/>
<path d="M111.635 102.129C111.635 102.447 111.668 102.715 111.694 103.443C111.752 104.007 111.803 104.242 111.828 104.476C111.836 104.61 111.836 104.776 111.836 104.947" stroke="#131313" stroke-width="0.969196" stroke-linecap="round"/>
<path d="M115.309 101.879C115.191 102.28 115.191 103.148 115.292 104.057C115.309 104.276 115.325 104.428 115.35 104.612C115.359 104.713 115.359 104.829 115.359 104.949" stroke="#131313" stroke-width="0.969196" stroke-linecap="round"/>
<path d="M118.328 101.172C118.495 101.822 118.763 103.13 118.84 103.578C118.882 104.139 118.899 104.543 118.924 104.768C118.932 104.894 118.932 105.044 118.932 105.198" stroke="#131313" stroke-width="0.969196" stroke-linecap="round"/>
<path d="M121.448 99.8164C121.532 100.017 121.865 100.85 122.144 101.76C122.186 101.912 122.219 101.995 122.261 102.13C122.303 102.264 122.353 102.446 122.505 102.735" stroke="#131313" stroke-width="0.969196" stroke-linecap="round"/>
<path d="M124.216 97.6484C124.316 98.0153 124.717 99.1511 124.912 99.8026C124.937 99.8954 124.954 99.9784 124.962 100.054C124.971 100.13 124.971 100.197 124.971 100.265" stroke="#131313" stroke-width="0.969196" stroke-linecap="round"/>
<path d="M96.7842 41.9336C96.7842 42.2546 96.8088 42.7513 96.8585 43.0063C96.9007 43.2229 96.9942 43.6434 97.0757 43.9497C97.0821 44.0672 97.0944 44.1919 97.1253 44.3096C97.1439 44.3658 97.1685 44.415 97.1938 44.4656" stroke="#131313" stroke-width="0.969196" stroke-linecap="round"/>
<path d="M110.363 59.4648C110.319 59.5683 110.141 59.8056 109.925 59.9994C109.734 60.1718 109.532 60.2971 109.286 60.438C109.011 60.5647 108.833 60.6539 108.714 60.7058C108.654 60.7283 108.595 60.7431 108.49 60.7582" stroke="#131313" stroke-width="0.969196" stroke-linecap="round"/>
<path d="M81.8022 58.793C81.8788 58.8078 82.1569 59.0854 82.3972 59.2259C82.4977 59.3027 82.6216 59.396 82.776 59.4886C82.8537 59.5353 82.9303 59.5812 83.1021 59.6286" stroke="#131313" stroke-width="0.969196" stroke-linecap="round"/>
<path d="M116.574 59.5234C116.728 59.6158 116.975 59.7704 117.223 59.902C117.485 60.0411 117.748 60.1269 118.012 60.2117C118.074 60.2351 118.135 60.2504 118.198 60.2736C118.26 60.2969 118.321 60.3275 118.477 60.4055" stroke="#131313" stroke-width="0.969196" stroke-linecap="round"/>
<path d="M133.623 42.2656C133.623 42.3116 133.623 42.3575 133.623 42.6953C133.623 43.033 133.623 43.6611 133.576 44.4476" stroke="#131313" stroke-width="0.969196" stroke-linecap="round"/>
<path d="M144.778 60.5664C144.418 60.8321 144.114 60.9838 143.81 61.1834C143.734 61.2313 143.658 61.2689 143.582 61.3071C143.505 61.3453 143.43 61.383 143.296 61.5358" stroke="#131313" stroke-width="0.969196" stroke-linecap="round"/>
<path d="M154.746 25.5411C154.974 25.2682 155.409 24.4682 156.786 22.3015C157.773 20.7473 159.63 18.4593 161.321 16.5464C163.012 14.6334 164.552 13.2134 165.722 12.2002C166.893 11.1871 167.647 10.6241 168.193 10.2518C168.739 9.87955 169.054 9.71521 169.305 10.1852C169.557 10.6551 169.735 11.7644 169.484 15.5198C169.234 19.2753 168.549 25.6433 168.151 29.1171C167.662 32.9775 167.498 33.5665 167.381 33.9534C167.335 34.1496 167.313 34.3455 167.292 34.5474" stroke="#FF0404" stroke-width="0.969196" stroke-linecap="round"/>
<path d="M158.65 19.9531C160.101 20.8583 161.223 21.5781 164.487 23.5024C165.747 24.2191 166.505 24.5993 167.16 25.0195C167.444 25.2017 167.629 25.3207 168.101 25.6237" stroke="#FF0404" stroke-width="0.969196" stroke-linecap="round"/>
<path d="M174.152 21.0189C173.932 22.138 173.478 24.4931 173.059 26.5435C172.365 29.9345 171.898 32.6838 171.574 34.0687C171.21 36.2916 170.927 37.9865 170.687 39.5268C170.532 40.7294 170.311 42.7867 170.083 44.9064" stroke="#FF0404" stroke-width="0.969196" stroke-linecap="round"/>
<path d="M174.193 21.0494C174.199 20.9975 175.368 21.0962 177.268 21.3791C178.803 21.6076 179.827 22.7351 180.739 23.3005C181.569 23.8148 181.925 24.4727 182.373 25.1026C183.01 25.9994 183.443 26.8295 183.81 27.6271C184.125 28.3111 184.262 29.0922 184.303 30.191C184.384 32.3926 183.867 32.7825 183.215 33.6897C182.5 34.6844 181.919 34.9034 181.167 35.2721C179.43 36.1237 177.803 36.024 176.424 35.9687C174.411 35.7659 172.976 35.5854 172.694 35.5153C172.538 35.4851 172.356 35.4656 172.169 35.4455" stroke="#FF0404" stroke-width="0.969196" stroke-linecap="round"/>
<path d="M185.718 37.6813C184.212 38.9299 182.273 41.7362 181.163 43.2547C180.028 44.8075 179.057 46.0042 178.324 46.8457C175.944 49.5774 174.495 51.657 173.412 53.0596C172.825 53.8197 172.318 54.6224 172.082 55.0064C172.023 55.1017 172.349 55.0611 173.933 54.4415C175.517 53.8218 178.414 52.6414 180.99 51.2759C183.566 49.9105 185.732 48.3957 187.009 47.5048C188.606 46.3903 189.295 46.0326 189.761 45.9096C190.456 45.7263 187.676 47.9976 185.008 50.6518C183.312 52.3379 180.271 55.6232 178.612 57.3959C176.425 59.6724 175.592 60.2261 174.781 60.976C174.349 61.3829 173.873 61.8432 173.242 62.4315" stroke="#FF0404" stroke-width="0.969196" stroke-linecap="round"/>
<path d="M187.204 56.3109C186.706 56.5558 185.756 57.4005 184.793 58.1565C183.552 59.1298 182.035 60.3989 180.612 61.449C178.739 62.8297 177.309 63.935 175.356 65.2576C173.504 66.4181 172.395 67.1578 171.583 67.6756C171.377 67.7834 171.111 67.8826 170.695 68.0988" stroke="#FF0404" stroke-width="0.969196" stroke-linecap="round"/>
<path d="M179.978 62.2539C179.979 62.6389 180.334 64.9013 180.584 66.6202C180.801 67.8087 180.945 68.8523 181.274 70.0101C181.311 70.2737 181.284 70.5266 181.384 70.8008" stroke="#FF0404" stroke-width="0.969196" stroke-linecap="round"/>
<path d="M188.746 67.2009C187.995 67.4186 184.617 69.3663 182.726 70.3623C180.993 71.2747 178.78 72.6293 177.681 73.2416C176.593 73.8486 175.751 74.3704 175.127 74.7554C174.966 74.8466 174.789 74.9128 174.646 75.0266C174.503 75.1404 174.401 75.2999 174.168 75.4505" stroke="#FF0404" stroke-width="0.969196" stroke-linecap="round"/>
<path d="M171.006 79.6274C171.295 79.3175 171.901 78.866 173.066 78.1975C174.669 77.278 176.195 76.5724 178.54 75.4334C180.35 74.5548 183.546 73.3443 185.288 72.6332C187.03 71.9221 187.254 71.8183 187.394 71.9379C188.155 72.5901 187.141 73.7359 185.99 75.6704C185.3 76.8313 183.828 78.7246 182.74 80.1524C181.652 81.5803 180.92 82.4394 179.925 83.4762C176.267 87.1653 175.722 87.839 175.318 88.2037C175.146 88.3803 175.044 88.5398 174.655 88.9321" stroke="#FF0404" stroke-width="0.969196" stroke-linecap="round"/>
<path d="M177.332 76.0469C177.931 77.2698 178.558 78.6276 178.903 79.4423C179.225 80.2008 179.72 81.0362 180.121 81.7264C180.235 81.8691 180.395 81.9715 180.489 82.1108C180.583 82.25 180.607 82.4231 180.632 82.6014" stroke="#FF0404" stroke-width="0.969196" stroke-linecap="round"/>
<path d="M50.4824 107.315C50.167 106.812 49.0095 105.093 47.7557 102.872C47.1484 101.796 46.7259 100.554 46.3851 99.8185C45.8777 98.7239 45.5037 97.834 44.8118 96.6189C44.2698 95.6671 43.5563 94.3452 42.7367 92.7963C42.507 92.2229 42.2105 91.5237 41.7867 90.7035C41.5982 90.3538 41.4636 90.1391 41.325 89.918" stroke="#131313" stroke-width="0.969196" stroke-linecap="round"/>
<path d="M41.0749 89.7126C40.7766 89.7795 40.1234 90.1474 39.6744 90.6703C39.2015 91.2211 39.0005 92.0176 38.8599 93.7491C38.5042 98.1287 39.7401 99.3052 40.2338 100.652C41.4585 103.992 41.6678 104.562 42.0527 105.177C42.151 105.587 42.2705 106.038 42.4266 106.462C42.4856 106.669 42.5038 106.857 42.5226 107.05" stroke="#131313" stroke-width="0.969196" stroke-linecap="round"/>
<path d="M42.0635 108.245C41.5942 107.72 40.4826 106.524 37.9066 103.811C36.5385 102.371 36.0176 101.591 35.3155 100.871C34.6252 100.164 33.763 99.2771 33.1268 98.6499C32.5651 98.0961 32.2136 97.5481 31.8708 97.3513C31.6465 97.2225 31.2043 97.3376 30.9403 97.4201C30.2205 97.6449 30.1258 98.5504 29.8722 99.6846C29.5102 101.304 30.4455 103.494 31.7876 105.285C32.5401 106.289 33.8899 107.837 35.3853 109.436C36.5001 110.582 37.0681 111.295 37.3059 111.578C37.4164 111.722 37.5061 111.865 37.8485 112.218" stroke="#131313" stroke-width="0.969196" stroke-linecap="round"/>
<path d="M38.7378 111.902C38.7342 111.865 38.7305 111.827 38.8245 111.818C39.6368 111.734 40.8272 112.961 41.5791 113.56C42.6007 114.375 43.4743 116.147 44.9197 118.197C45.2618 118.682 45.3116 119.235 45.3006 119.906C45.2807 121.128 43.969 121.973 43.4536 122.368C42.3148 123.24 41.1712 122.363 40.3478 121.964C38.8235 121.094 38.3104 120.533 37.0936 119.425C36.8363 119.179 36.7466 119.036 36.4152 118.796" stroke="#131313" stroke-width="0.969196" stroke-linecap="round"/>
<path d="M35.9998 113.316C35.7877 113.488 35.3845 114.063 35.1434 114.757C34.9331 115.362 34.9356 116.174 34.943 117.438C34.9489 118.455 34.0795 119.21 33.8936 119.861C33.6711 120.64 33.6806 121.433 33.6353 122.147C33.5918 122.831 33.5373 123.517 33.8568 124.062C34.1946 124.638 35.3351 124.723 36.1929 125.044C36.8929 125.306 37.4267 125.709 38.0386 126.092C38.335 126.277 38.7122 126.315 39.1268 126.257C39.6571 126.182 39.9904 125.657 40.2077 125.33C40.2892 125.168 40.3122 125.014 40.3544 124.856C40.3966 124.697 40.4573 124.54 40.5197 124.377" stroke="#131313" stroke-width="0.969196" stroke-linecap="round"/>
<path d="M39.2815 127.023C39.6236 127.41 40.5224 128.012 41.3227 128.339C41.9215 128.583 42.6686 128.802 43.5858 129.154C44.3608 129.451 44.9106 129.774 45.5355 129.886C46.2194 130.009 46.9097 130.232 49.8655 130.768C52.3592 131.22 54.8019 130.583 55.7196 130.187C56.8823 129.685 57.4014 128.952 58.1266 128.307C58.7635 127.74 59.3218 127.005 59.8898 126.125C60.0257 125.937 60.1652 125.81 60.2879 125.682C60.4107 125.555 60.5126 125.431 60.7315 125.293" stroke="#131313" stroke-width="0.969196" stroke-linecap="round"/>
<path d="M57.4771 96.5925C57.5344 97.1845 57.5055 98.2486 57.4696 99.4372C57.4561 99.8849 57.4986 100.253 57.5299 101.093C57.668 104.793 58.6232 106.371 58.7968 107.138C58.9869 107.978 59.5835 109.437 59.9536 110.489C60.37 111.673 60.7068 112.764 60.8272 113.487C60.8982 113.913 61.171 115.837 61.4628 118.506C61.6345 120.077 61.4144 120.758 61.4008 121.475C61.3879 122.161 61.1382 123.047 60.9151 124.02C60.8533 124.244 60.7743 124.449 60.6925 124.642C60.6106 124.834 60.5284 125.007 60.2649 125.402" stroke="#131313" stroke-width="0.969196" stroke-linecap="round"/>
<path d="M57.48 96.7026C57.4489 96.2272 57.4395 95.1995 57.5145 94.0268C57.5487 93.4917 57.5352 92.9145 57.5449 92.0795C57.5578 90.9666 57.3313 90.1719 57.192 89.8991C57.0209 89.564 56.6359 89.3644 56.3522 89.2471C56.0816 89.1352 55.7326 89.0735 53.834 89.2638C52.893 89.3581 52.4105 90.1163 52.1663 90.4203C51.9892 90.6408 51.893 91.0262 51.7051 91.4974C51.5438 91.902 51.4866 92.4376 51.3702 93.1055C51.3165 93.4137 51.3267 93.751 51.3468 94.1941C51.3771 94.8651 51.3578 95.1662 51.3567 95.5433C51.3555 95.9753 51.4082 96.309 51.4231 96.6967C51.4848 98.305 51.6613 98.7708 51.7908 99.3329C51.8721 99.6858 51.9233 100.075 52.1608 100.977C52.2791 101.426 52.4011 101.898 52.4841 102.208C52.5151 102.324 52.5368 102.519 52.6434 103.31C52.7321 103.968 52.8517 105.151 52.9173 105.828C53.0297 106.985 52.8424 107.543 52.8045 107.774C52.7413 108.158 52.0205 107.926 51.76 107.808C51.612 107.755 51.403 107.625 51.1813 107.435C51.0894 107.353 51.0392 107.298 50.9876 107.241" stroke="#131313" stroke-width="0.969196" stroke-linecap="round"/>
<path d="M36.0998 113.25C36.1235 113.173 36.2249 113.049 36.3607 112.926C36.7161 112.604 36.8626 112.603 37.1511 112.465C37.3542 112.404 37.4634 112.362 37.5505 112.319C37.5899 112.299 37.6197 112.284 37.669 112.266" stroke="#131313" stroke-width="0.969196" stroke-linecap="round"/>
<path d="M42.5187 106.815C42.5515 107.153 42.5535 107.45 42.5336 107.593C42.5179 107.709 42.5062 107.798 42.499 107.863C42.4953 107.893 42.4912 107.92 42.4871 107.948" stroke="#131313" stroke-width="0.969196" stroke-linecap="round"/>
<path d="M52.2873 110.037C52.0504 110.283 51.5771 111.208 51.017 112.512C50.5759 113.539 50.4462 114.331 50.3704 114.915C50.3539 115.041 50.3021 115.174 50.2404 116.086C50.1787 116.997 50.0996 118.681 50.0466 119.615C49.9936 120.549 49.9692 120.681 50.006 121.453C50.0428 122.224 50.1416 123.63 50.3156 125.241" stroke="#131313" stroke-width="0.969196" stroke-linecap="round"/>
<path d="M47.4683 116.59C47.5571 116.581 47.8028 116.557 48.2634 116.535C48.8394 116.547 49.4975 116.529 50.0723 116.507C50.3139 116.518 50.4536 116.571 50.6649 116.62" stroke="#131313" stroke-width="0.969196" stroke-linecap="round"/>
<path d="M44.1394 122.111C44.3886 122.327 44.5928 122.451 44.8258 122.556C44.9363 122.605 45.0352 122.662 45.1121 122.649C45.1396 122.617 45.1434 122.533 45.1259 122.289C45.1084 122.045 45.0696 121.644 44.9614 121.273" stroke="#131313" stroke-width="0.969196" stroke-linecap="round"/>
<path d="M40.5003 125.568C40.604 125.653 40.7057 125.704 40.7886 125.69C40.823 125.669 40.8421 125.62 40.8266 125.579C40.811 125.538 40.7604 125.507 40.7082 125.475" stroke="#131313" stroke-width="0.969196" stroke-linecap="round"/>
<path d="M31.1081 97.1068C31.0966 96.9884 31.0026 96.7565 30.8332 96.5623C30.788 96.5105 30.7343 96.4696 30.6781 96.4505C30.6218 96.4314 30.5628 96.4371 30.5352 96.4696C30.5134 96.5611 30.512 96.6703 30.5079 96.8145C30.511 96.9103 30.5247 97.052 30.5389 97.198" stroke="#131313" stroke-width="0.969196" stroke-linecap="round"/>
<path d="M40.7981 89.5391C40.7558 89.4713 40.6418 89.2905 40.5361 89.0056C40.5121 88.941 40.4952 88.8951 40.4584 88.886C40.4216 88.8769 40.3648 88.9062 40.3319 88.9455C40.1976 89.1062 40.192 89.368 40.157 89.5703C40.1561 89.6247 40.1619 89.6838 40.1612 89.7384C40.1605 89.793 40.1533 89.8414 40.1527 89.9628" stroke="#131313" stroke-width="0.969196" stroke-linecap="round"/>
<path d="M54.6455 88.8134C54.7171 88.6873 54.911 88.2119 55.0764 87.9833C55.1014 87.9488 55.1683 88.0035 55.2091 88.0477C55.3163 88.2782 55.3702 88.4658 55.4396 88.5612C55.4689 88.6127 55.4865 88.6706 55.5114 88.8019" stroke="#131313" stroke-width="0.969196" stroke-linecap="round"/>
<path d="M61.4388 114.242C61.783 114.413 62.8834 115.396 63.5661 116.469C63.9211 117.027 64.2184 117.83 64.4657 118.412C64.665 118.882 64.7121 119.541 64.8281 120.165C64.8897 120.496 64.9155 121.965 64.8151 124.437C64.7244 126.669 64.1923 128.058 63.9468 128.752C63.4931 130.034 63.005 130.868 62.6426 131.609C62.3073 132.294 61.5292 132.839 61.006 133.247C60.5857 133.575 58.8452 133.969 57.4007 134.305C56.2003 134.584 54.489 134.349 53.5194 134.075C52.0235 133.652 51.3878 133.306 50.7364 133.003C49.9954 132.658 49.7068 132.149 49.4165 131.685C49.3296 131.54 49.2149 131.368 49.1271 131.222C49.0393 131.076 48.982 130.961 48.9229 130.843" stroke="#131313" stroke-width="0.969196" stroke-linecap="round"/>
<path d="M52.5691 130.773C52.5691 131.564 52.6475 132.037 52.7962 132.484C52.9051 132.811 53.1023 133.127 53.4189 133.385C53.518 133.445 53.6356 133.504 53.7354 133.554C53.8351 133.604 53.9135 133.643 53.9943 133.683" stroke="#131313" stroke-width="0.969196" stroke-linecap="round"/>
<path d="M55.7163 129.527C56.6064 131.07 56.9218 131.544 57.2784 132.059C57.952 132.912 58.3077 133.109 59.4134 133.702C59.6545 133.822 59.7329 133.842 59.9324 133.743" stroke="#131313" stroke-width="0.969196" stroke-linecap="round"/>
<path d="M58.6855 127.922C59.0003 128.296 59.6333 128.89 60.2369 129.227C60.9865 129.646 61.7117 130.058 62.0887 130.188C62.3055 130.257 62.505 130.336 62.663 130.415C62.7425 130.455 62.8209 130.494 63.0798 130.594" stroke="#131313" stroke-width="0.969196" stroke-linecap="round"/>
<path d="M61.1199 123.469C61.7279 123.665 63.4298 124.376 63.9788 124.636C64.0682 124.695 64.1662 124.793 64.246 124.883C64.3259 124.972 64.3847 125.051 64.4453 125.191" stroke="#131313" stroke-width="0.969196" stroke-linecap="round"/>
<path d="M62.0107 119.787C62.544 119.51 62.9395 119.431 63.4234 119.332C63.9442 119.312 64.3848 119.331 64.6022 119.381C64.7019 119.41 64.7803 119.45 64.9205 119.549" stroke="#131313" stroke-width="0.969196" stroke-linecap="round"/>
<path d="M178.731 114.96C179.102 114.497 180.45 112.922 181.95 110.86C182.677 109.861 183.24 108.675 183.663 107.984C184.292 106.955 184.766 106.114 185.593 104.987C186.241 104.103 187.101 102.872 188.093 101.428C188.387 100.884 188.762 100.224 189.277 99.4577C189.505 99.132 189.663 98.9342 189.826 98.7305" stroke="#131313" stroke-width="0.969196" stroke-linecap="round"/>
<path d="M190.098 98.5553C190.387 98.6559 190.993 99.0964 191.379 99.6674C191.786 100.269 191.894 101.083 191.835 102.819C191.685 107.211 190.322 108.238 189.677 109.518C188.077 112.696 187.804 113.238 187.351 113.805C187.206 114.201 187.035 114.635 186.832 115.039C186.749 115.237 186.709 115.422 186.669 115.612" stroke="#131313" stroke-width="0.969196" stroke-linecap="round"/>
<path d="M186.988 116.851C187.514 116.384 188.756 115.323 191.626 112.924C193.151 111.65 193.758 110.935 194.538 110.301C195.305 109.677 196.263 108.895 196.967 108.345C197.589 107.86 198.001 107.356 198.364 107.2C198.602 107.098 199.028 107.263 199.281 107.375C199.97 107.681 199.96 108.591 200.082 109.747C200.255 111.397 199.075 113.465 197.536 115.09C196.673 116.001 195.154 117.384 193.485 118.8C192.246 119.811 191.6 120.455 191.331 120.708C191.205 120.838 191.099 120.97 190.719 121.281" stroke="#131313" stroke-width="0.969196" stroke-linecap="round"/>
<path d="M189.871 120.864C189.879 120.827 189.887 120.79 189.795 120.769C188.998 120.593 187.674 121.675 186.859 122.184C185.75 122.876 184.679 124.536 183.008 126.406C182.612 126.849 182.499 127.392 182.433 128.06C182.312 129.276 183.518 130.266 183.985 130.718C185.016 131.715 186.253 130.975 187.116 130.673C188.731 129.985 189.305 129.486 190.641 128.525C190.925 128.31 191.03 128.178 191.387 127.979" stroke="#131313" stroke-width="0.969196" stroke-linecap="round"/>
<path d="M192.429 122.582C192.62 122.778 192.954 123.395 193.114 124.112C193.253 124.738 193.158 125.544 193.005 126.799C192.883 127.808 193.659 128.658 193.769 129.326C193.901 130.125 193.8 130.912 193.763 131.626C193.728 132.311 193.703 132.998 193.323 133.503C192.922 134.037 191.779 133.99 190.89 134.21C190.165 134.39 189.588 134.73 188.936 135.039C188.62 135.189 188.241 135.184 187.836 135.078C187.318 134.943 187.047 134.383 186.869 134.033C186.807 133.863 186.801 133.707 186.778 133.545C186.754 133.383 186.712 133.22 186.668 133.051" stroke="#131313" stroke-width="0.969196" stroke-linecap="round"/>
<path d="M187.594 135.828C187.209 136.173 186.248 136.667 185.415 136.9C184.792 137.074 184.025 137.206 183.073 137.45C182.269 137.656 181.686 137.914 181.052 137.954C180.359 137.997 179.648 138.139 176.65 138.332C174.121 138.495 171.767 137.582 170.901 137.083C169.804 136.45 169.372 135.663 168.726 134.938C168.158 134.303 167.688 133.507 167.225 132.568C167.112 132.366 166.988 132.224 166.88 132.083C166.773 131.942 166.686 131.808 166.485 131.645" stroke="#131313" stroke-width="0.969196" stroke-linecap="round"/>
<path d="M173.014 103.506C172.889 104.087 172.796 105.148 172.695 106.333C172.657 106.779 172.573 107.139 172.445 107.971C171.883 111.63 170.753 113.088 170.492 113.83C170.207 114.642 169.447 116.024 168.958 117.026C168.409 118.154 167.949 119.2 167.746 119.903C167.627 120.318 167.134 122.199 166.538 124.817C166.187 126.357 166.328 127.059 166.259 127.773C166.193 128.456 166.339 129.365 166.449 130.357C166.484 130.586 166.539 130.8 166.599 131C166.658 131.201 166.72 131.382 166.936 131.805" stroke="#131313" stroke-width="0.969196" stroke-linecap="round"/>
<path d="M172.999 103.614C173.084 103.145 173.212 102.126 173.272 100.952C173.3 100.417 173.379 99.8447 173.466 99.0141C173.581 97.9071 173.897 97.1437 174.067 96.8887C174.275 96.5755 174.68 96.4214 174.976 96.3374C175.257 96.2574 175.611 96.2362 177.475 96.6433C178.399 96.845 178.791 97.6537 178.999 97.9837C179.15 98.223 179.201 98.617 179.334 99.1066C179.447 99.527 179.443 100.066 179.482 100.743C179.499 101.055 179.451 101.389 179.38 101.827C179.273 102.49 179.257 102.791 179.215 103.166C179.167 103.595 179.076 103.92 179.017 104.304C178.77 105.894 178.542 106.337 178.348 106.88C178.227 107.222 178.132 107.602 177.792 108.471C177.623 108.904 177.448 109.358 177.329 109.657C177.285 109.769 177.241 109.96 177.045 110.733C176.881 111.377 176.626 112.538 176.483 113.203C176.239 114.339 176.361 114.916 176.372 115.149C176.391 115.538 177.133 115.39 177.406 115.303C177.559 115.267 177.781 115.162 178.023 114.999C178.124 114.928 178.18 114.879 178.238 114.829" stroke="#131313" stroke-width="0.969196" stroke-linecap="round"/>
<path d="M192.337 122.509C192.322 122.429 192.236 122.295 192.115 122.157C191.799 121.796 191.654 121.778 191.383 121.608C191.188 121.524 191.084 121.47 191.003 121.417C190.966 121.393 190.938 121.374 190.891 121.351" stroke="#131313" stroke-width="0.969196" stroke-linecap="round"/>
<path d="M186.7 115.377C186.628 115.71 186.592 116.004 186.596 116.149C186.598 116.266 186.599 116.355 186.599 116.42C186.599 116.451 186.6 116.478 186.601 116.507" stroke="#131313" stroke-width="0.969196" stroke-linecap="round"/>
<path d="M176.626 117.455C176.833 117.727 177.197 118.7 177.604 120.06C177.924 121.131 177.962 121.932 177.97 122.521C177.972 122.649 178.008 122.787 177.965 123.699C177.921 124.611 177.806 126.293 177.752 127.227C177.697 128.161 177.706 128.296 177.581 129.058C177.456 129.82 177.196 131.205 176.838 132.786" stroke="#131313" stroke-width="0.969196" stroke-linecap="round"/>
<path d="M180.66 124.52C180.573 124.501 180.332 124.449 179.876 124.374C179.303 124.319 178.651 124.226 178.083 124.139C177.842 124.121 177.697 124.158 177.481 124.183" stroke="#131313" stroke-width="0.969196" stroke-linecap="round"/>
<path d="M183.333 130.383C183.061 130.569 182.844 130.669 182.6 130.746C182.485 130.782 182.38 130.828 182.305 130.806C182.282 130.771 182.288 130.687 182.333 130.447C182.378 130.206 182.463 129.812 182.613 129.456" stroke="#131313" stroke-width="0.969196" stroke-linecap="round"/>
<path d="M186.551 134.238C186.438 134.311 186.331 134.35 186.25 134.327C186.219 134.302 186.205 134.251 186.225 134.212C186.246 134.173 186.299 134.148 186.355 134.123" stroke="#131313" stroke-width="0.969196" stroke-linecap="round"/>
<path d="M199.15 107.044C199.175 106.928 199.295 106.709 199.486 106.535C199.537 106.489 199.595 106.454 199.653 106.442C199.711 106.429 199.769 106.442 199.792 106.477C199.804 106.571 199.792 106.679 199.78 106.823C199.766 106.918 199.736 107.057 199.705 107.2" stroke="#131313" stroke-width="0.969196" stroke-linecap="round"/>
<path d="M190.393 98.4142C190.443 98.3517 190.577 98.1852 190.715 97.9143C190.746 97.8529 190.768 97.8092 190.806 97.8044C190.843 97.7996 190.896 97.8353 190.925 97.8781C191.04 98.0531 191.015 98.3138 191.027 98.5188C191.021 98.573 191.009 98.631 191.003 98.6853C190.997 98.7396 190.999 98.7885 190.986 98.9092" stroke="#131313" stroke-width="0.969196" stroke-linecap="round"/>
<path d="M176.721 96.1002C176.664 95.9667 176.526 95.4721 176.388 95.2261C176.368 95.1889 176.295 95.2356 176.249 95.2749C176.116 95.4914 176.041 95.6717 175.961 95.7584C175.926 95.8062 175.902 95.8618 175.862 95.9893" stroke="#131313" stroke-width="0.969196" stroke-linecap="round"/>
<path d="M167.428 120.867C166.951 120.604 166.376 120.461 165.873 120.424C165.655 120.409 165.346 120.364 164.916 120.447C164.04 120.616 163.6 121.51 163.047 122.266C162.629 122.837 162.019 124.281 161.692 125.213C161.456 125.887 161.488 126.59 161.452 126.997C161.429 127.261 161.392 128.948 161.428 131.449C161.446 132.745 161.75 133.771 162.001 134.907C162.316 136.332 163.164 137.512 163.546 138.384C163.765 138.884 164.429 139.664 165.421 140.645C166.893 142.1 168.381 142.493 169.067 142.711C169.608 142.883 170.868 142.546 171.904 142.377C172.686 142.249 173.675 141.754 174.288 141.36C174.745 141.066 175.138 140.534 175.356 140.078C175.571 139.742 175.667 139.455 175.751 139.264C175.787 139.168 175.811 139.073 175.835 138.903" stroke="#131313" stroke-width="0.969196" stroke-linecap="round"/>
<path d="M166.416 124.182C166.163 124.034 165.685 123.764 165.199 123.585C164.847 123.54 164.607 123.495 164.237 123.472C163.925 123.465 163.362 123.465 162.783 123.465" stroke="#131313" stroke-width="0.969196" stroke-linecap="round"/>
<path d="M165.877 126.828C165.684 126.724 165.355 126.515 164.721 126.284C164.261 126.115 163.047 126.201 162.306 126.245C162.171 126.275 162.051 126.305 161.946 126.357C161.901 126.394 161.872 126.454 161.841 126.515" stroke="#131313" stroke-width="0.969196" stroke-linecap="round"/>
<path d="M166.236 130.013C166.043 129.923 164.974 129.656 164.346 129.557C164.039 129.508 163.682 129.445 162.906 129.459C162.261 129.638 162.021 129.787 161.797 129.967C161.737 130.012 161.678 130.056 161.617 130.102" stroke="#131313" stroke-width="0.969196" stroke-linecap="round"/>
<path d="M167.313 133.199C167.105 133.154 166.537 133.213 166.156 133.311C165.613 133.449 165.311 133.825 164.914 134.117C164.572 134.37 164.1 134.603 163.771 134.902C163.425 135.215 163.277 135.485 163.149 135.709C163.112 135.829 163.067 135.949 163.022 136.076C163.007 136.143 163.007 136.217 163.007 136.293" stroke="#131313" stroke-width="0.969196" stroke-linecap="round"/>
<path d="M169.286 135.762C169.093 135.836 168.704 136.075 168.376 136.5C168.076 136.887 167.897 137.315 167.762 137.637C167.637 137.933 167.478 138.197 167.381 138.578C167.223 139.197 167 139.691 166.88 140.11C166.85 140.5 166.805 140.754 166.782 141C166.775 141.142 166.775 141.319 166.775 141.502" stroke="#131313" stroke-width="0.969196" stroke-linecap="round"/>
<path d="M171.977 137.828C171.977 137.887 171.977 138.747 171.962 140.069C171.858 140.922 171.679 141.576 171.484 142.095C171.439 142.192 171.395 142.296 171.304 142.537" stroke="#131313" stroke-width="0.969196" stroke-linecap="round"/>
<path d="M11.0364 28.2977C9.3217 29.4665 7.41633 30.5966 6.31482 31.3208L1.25849 35.5796C0.82983 36.2022 -0.0176942 37.1168 0.416118 38.169C0.667004 38.7775 1.01549 39.345 1.96878 40.5233C2.55113 41.2432 3.79446 42.3253 4.84025 43.4218C5.98875 44.626 6.88341 45.4912 7.82387 46.2642C8.61224 46.9122 9.96915 48.0809 10.7389 48.6817C11.995 49.6619 12.7074 50.1656 13.6686 50.6705C14.4341 51.0725 15.2859 51.4512 17.2927 52.6227C18.7158 53.4535 21.2653 54.9064 22.639 55.6753C24.0126 56.4441 24.2092 56.5183 24.597 56.7511L24.651 56.7835C25.6201 57.3653 27.0838 58.244 28.5983 58.7432C29.6882 59.1025 30.7099 59.9435 31.515 59.6953C31.6538 59.6525 31.7634 59.5428 32.6515 58.9372C33.5396 58.3316 35.157 57.2624 36.0505 56.6855C36.944 56.1085 37.1084 56.0263 37.8403 55.5191C38.5722 55.0119 39.8333 54.1073 40.5344 53.6125C41.2356 53.1178 41.3727 53.0356 42.9947 51.794C44.6167 50.5525 47.6323 48.2223 49.2248 46.9724C50.8174 45.7225 50.9819 45.5581 52.4481 44.346C53.9144 43.1339 56.601 40.9408 58.1703 39.6889C59.7396 38.4369 60.186 38.1454 60.5105 37.8857C61.0621 37.4442 61.8288 37.0634 62.729 36.3468C64.4133 35.0059 64.9301 34.4143 65.799 33.6768C66.7112 32.9025 67.2588 32.5492 68.5953 30.8933C69.2333 30.1029 69.8767 29.4007 69.9075 28.8738C69.9212 28.6391 69.8977 28.3925 69.7401 28.2096L69.7047 28.1685C69.3629 27.7715 68.9246 27.2623 67.9502 26.5319C67.2869 26.0347 65.8274 25.1935 64.3768 23.9832C63.7172 23.4328 62.2924 22.3564 60.346 20.8667C59.6449 20.33 59.5078 20.1929 58.4224 19.4889C57.3371 18.7848 55.3508 17.5701 53.995 16.666C51.8866 15.26 50.9602 14.6804 50.6454 14.4604C49.8105 13.8768 48.6979 13.1752 48.0423 12.7852C47.3216 12.3565 45.0013 11.2753 43.4433 10.5276C42.7517 10.1958 41.9595 9.89026 41.3822 10.018C40.8152 10.1434 40.3943 10.3426 39.8719 10.6431C38.7649 11.2799 37.7982 11.4636 35.7024 13.0265C35 13.5503 34.6606 13.7876 32.8226 14.9684C31.0872 16.0832 27.8453 18.2272 26.0384 19.3202L25.9459 19.3761C23.9322 20.5943 23.3285 20.9596 21.6994 21.7992C20.3623 22.4883 18.0595 23.6397 16.1454 24.8086C14.2314 25.9774 12.751 27.1288 11.0364 28.2977Z" stroke="#131313" stroke-width="0.581518" stroke-linecap="round"/>
<path d="M33.8282 29.548C33.703 29.5836 33.2734 29.7628 32.8761 29.9342C32.3842 30.1464 31.9241 30.553 31.5266 30.8514C31.2128 31.0871 31.0411 31.5968 30.7796 32.3249C30.6323 32.735 30.6082 33.2872 30.5988 34.0428C30.5915 34.6286 30.8414 34.9797 31.3344 36.0921C31.4969 36.4586 31.6326 36.6178 31.8474 36.7255C32.4539 37.0295 33.1395 37.1386 33.7543 37.2298C34.0773 37.2778 34.7587 37.3734 35.728 37.4544C36.6234 37.5291 37.12 37.4285 37.29 37.2852C37.5687 37.0502 38.4628 36.5681 39.5509 35.9747C40.2208 35.6093 40.5013 35.0737 40.6729 34.6592C40.8242 34.2938 41.0416 33.8501 41.1854 33.4637C41.2682 33.2411 41.312 32.1133 41.2858 30.3252C41.2689 29.1746 40.8095 28.7212 40.6478 28.5776C40.191 28.1719 39.4607 27.6784 38.7343 27.3276C37.7331 26.8441 36.6423 26.9034 35.6484 27.136C35.4199 27.1895 35.2002 27.333 35.072 27.4326C34.926 27.6212 34.9076 28.1226 34.8898 28.7878C34.872 29.0434 34.8364 29.1324 34.7997 29.3861" stroke="#131313" stroke-width="0.581518" stroke-linecap="round"/>
<path d="M33.5584 27.5489C33.7009 26.979 33.9168 25.9373 34.1505 24.7594C34.2978 24.0165 34.368 23.5037 34.1988 23.0989C34.1146 22.8977 33.6912 22.9613 33.4901 22.988C32.8763 23.0696 32.3548 23.9306 32.1198 24.3004C32.0328 24.4371 32.0472 24.6868 32.065 24.9742C32.1184 25.1904 32.4935 25.6561 33.033 26.2585C33.234 26.4868 33.2874 26.558 33.4504 26.7933" stroke="#131313" stroke-width="0.581518" stroke-linecap="round"/>
<path d="M0.322946 37.3828C0.322946 37.7048 0.282771 38.3957 0.292207 39.8018C0.29663 40.461 0.788005 40.6687 1.40616 41.2762C1.78285 41.6464 2.14666 42.1284 2.52315 42.5554C2.86079 42.9383 3.162 43.2046 3.5881 43.6307C3.94404 43.9866 4.33804 44.562 5.09863 45.3947C5.45409 45.7839 5.7393 46.0254 6.03361 46.2792C6.34971 46.5518 6.9129 47.0383 7.56453 47.678C8.01619 48.1215 8.4773 48.459 8.90432 48.8054C9.29364 49.1212 9.89683 49.5547 10.3552 49.9415C10.6472 50.1879 11.0546 50.4081 11.4509 50.7429C11.7418 50.9887 12.2099 51.32 12.6683 51.7269C12.9909 52.0133 13.3482 52.1734 13.7637 52.4577C14.1315 52.7093 14.5243 52.9842 15.3244 53.5722C16.0203 54.0836 16.6122 54.4244 17.1923 54.8715C17.953 55.4578 18.4809 55.6845 19.2001 55.9675C20.1643 56.347 20.9146 56.8812 21.8882 57.4175C22.5407 57.7768 24.1724 58.6209 25.1464 59.0421C26.0743 59.4435 27.0833 59.702 27.4805 59.8338C27.9611 59.9933 31.0504 61.1109 31.538 61.1517" stroke="#131313" stroke-width="0.581518" stroke-linecap="round"/>
<path d="M69.835 28.582C69.9519 28.6982 70.0927 29.1199 70.1282 29.4959C70.1814 30.0582 70.1405 30.8096 69.9533 31.2087C69.7014 31.7456 69.2971 31.9839 68.8515 32.3816C68.0948 33.057 67.7947 33.368 67.466 33.6732C67.1114 34.0023 66.9034 34.424 66.5743 34.7644C66.2197 35.1311 65.8009 35.5026 65.3542 36.0077C65.05 36.3518 64.5802 36.629 63.924 37.2975C63.2767 37.957 62.8201 38.2497 62.4325 38.4609C61.966 38.7152 61.6233 39.0002 61.1657 39.3406C60.6965 39.6896 60.2392 39.9619 59.816 40.3262C59.3566 40.7218 58.8776 41.0644 58.3615 41.5343C57.7196 42.1188 56.8838 42.6372 56.3667 43.0715C55.7388 43.599 54.9829 43.9523 54.2669 44.5493C53.7024 45.02 52.616 45.8968 52.013 46.3808C51.452 46.8311 50.6884 47.5174 50.2061 47.9297C49.737 48.3306 48.8368 49.0184 48.2232 49.4317C47.6185 49.839 47.026 50.3814 46.5691 50.7222C45.9117 51.2124 45.5011 51.5557 45.0667 51.8838C44.5942 52.2407 44.0931 52.4949 43.4133 52.9743C42.9141 53.3264 42.2429 53.9227 41.6871 54.313L31.5381 61.0964" stroke="#131313" stroke-width="0.581518" stroke-linecap="round"/>
<path d="M13.533 40.7776C13.1835 40.7776 12.751 40.6785 12.1597 40.5944C11.8541 40.5509 11.324 40.4952 10.6469 40.3538C9.15033 40.0412 8.21034 39.7597 7.779 39.619C7.45651 39.5138 6.95114 39.2636 6.36509 38.9131C5.09937 38.1561 4.32209 37.5407 4.06374 37.3577C3.83648 37.1968 3.80339 36.9399 3.77835 36.7652C3.76523 36.6736 3.76984 36.5739 3.83593 36.4816C4.11917 36.0857 4.50283 36.1053 4.91138 35.9634C5.34666 35.8121 5.70445 35.7208 6.21189 35.6792C7.40297 35.5817 8.00656 35.854 8.54854 36.0535C9.56322 36.427 10.2736 36.5539 10.7282 36.7134C10.7959 36.7371 10.8614 36.7552 10.8789 36.7141C11.0143 36.3969 10.0673 35.7258 9.6285 35.2296C9.33581 34.8987 9.12807 34.2218 9.06875 33.8445C9.03628 33.638 9.02694 33.3195 9.07651 32.9696C9.1174 32.6808 9.40996 32.5835 9.57643 32.5252C10.0355 32.3643 10.7603 32.5325 11.3779 32.9403C11.8565 33.2563 12.047 33.7501 12.2721 34.2668C12.4207 34.608 12.5317 35.0168 12.5732 35.3693C12.6164 35.7356 12.748 36.5008 12.7903 36.9957C12.8453 37.6397 12.9152 38.0379 12.9405 38.7721C12.9602 39.3452 13.1485 39.9074 13.2406 40.2259C13.2657 40.2929 13.2987 40.359 13.3322 40.4344C13.3658 40.5097 13.3988 40.5924 13.4329 40.7275" stroke="#131313" stroke-width="0.581518" stroke-linecap="round"/>
<path d="M18.4098 39.9555C18.2477 39.9393 17.7624 39.7455 17.2969 39.5656C16.5414 39.2737 16.037 38.9487 15.4093 38.5896C14.963 38.3343 14.6845 38.0855 14.2612 37.3463C14.0279 36.9389 13.9834 36.6208 14.0071 36.2541C14.0266 35.9531 14.6328 36.3581 14.9016 36.456C15.065 36.5155 15.203 36.635 15.3329 36.7162C15.395 36.7551 15.4628 36.7653 15.496 36.7092C15.6922 36.3774 15.578 35.9382 15.7076 35.3275C15.748 35.1374 15.8378 35.0086 15.9676 34.8949C16.083 34.7938 16.2283 34.7801 16.3824 34.8124C16.805 34.9008 17.0085 35.4607 17.2698 35.9988C17.4973 36.4675 17.612 36.8132 17.6528 37.09C17.7109 37.485 17.8561 37.8219 17.9618 38.0992C18.0583 38.3523 18.1325 38.6519 18.2953 39.0508C18.3444 39.2055 18.4093 39.3203 18.4906 39.4257C18.5235 39.4828 18.5397 39.5473 18.6051 39.7602" stroke="#131313" stroke-width="0.581518" stroke-linecap="round"/>
<path d="M63.4141 30.6841C62.8442 30.6841 61.6177 30.6604 61.2885 30.6244C60.5095 30.5394 59.7766 30.4094 59.161 30.2413C58.7683 30.1341 58.4645 30.0254 58.339 29.9416C58.2143 29.8584 57.6299 29.5367 56.7917 28.9682C56.2506 28.6012 56.1028 28.3354 56.0789 28.2338C56.0523 28.1209 56.0309 28.0117 56.0604 27.9161C56.1094 27.757 56.6148 27.7003 57.2605 27.5865C57.8985 27.474 58.6278 27.6029 59.2567 27.7406C59.7817 27.8556 60.1765 28.0707 60.5364 28.2088C60.8393 28.325 60.0348 27.5328 59.7117 26.9528C59.4972 26.5677 59.4588 26.0707 59.4289 25.7061C59.4138 25.5218 59.4228 25.2128 59.4525 25.036C59.4821 24.8593 59.5415 24.8237 59.667 24.8054C60.3062 24.7119 60.6684 25.1696 61.0096 25.4213C61.4153 25.7205 61.9147 26.3311 62.1786 26.6676C62.4141 26.9679 62.5022 27.2904 62.6522 27.6556C63.0578 28.6435 63.1739 29.0531 63.2579 29.3044C63.4215 29.7943 63.4379 29.988 63.4799 30.18C63.4861 30.2756 63.4979 30.3839 63.5218 30.4975C63.5339 30.5518 63.5457 30.5993 63.5939 30.7201" stroke="#131313" stroke-width="0.581518" stroke-linecap="round"/>
<path d="M59.8183 34.531C59.4141 34.531 58.5734 34.5547 58.2498 34.5907C57.8651 34.6334 57.1621 34.7108 56.4016 34.693C55.7766 34.6784 55.5522 34.3404 55.396 34.1542C55.2201 33.9444 55.2398 33.7644 55.2396 33.6628C55.2395 33.6074 55.2869 33.5493 55.3408 33.5069C55.5589 33.3354 56.2412 33.3803 57.0711 33.4699C57.3605 33.5011 57.576 33.5242 57.7435 33.5301C57.8164 33.5327 57.8636 33.5479 57.7991 33.4591C57.3896 32.8956 57.1941 32.7698 57.0441 32.5722C56.8509 32.3176 56.846 32.0039 56.8039 31.757C56.7849 31.645 56.8334 31.5231 56.923 31.4214C57.0165 31.3151 57.1689 31.3189 57.2705 31.3009C57.5891 31.2445 58.1376 31.7953 58.4152 32.1089C58.6541 32.3787 58.7389 32.7072 58.8769 32.9958C59.0269 33.3091 59.1229 33.5831 59.2424 33.7453C59.3865 33.9312 59.4943 34.0632 59.572 34.1349C59.6141 34.1711 59.6615 34.2067 59.7824 34.3153" stroke="#131313" stroke-width="0.581518" stroke-linecap="round"/>
<path d="M30.405 80.2671C30.3292 80.1874 30.1366 79.9071 29.9526 79.5714C29.779 79.2548 29.5836 79.1363 29.4492 78.982C29.2594 78.764 28.7398 78.7026 28.5082 78.6711C28.2469 78.6355 28.0251 78.6953 27.6732 78.8518C27.3124 79.0122 27.0506 79.3736 26.8646 79.8119C26.706 80.1758 26.565 80.6214 26.5536 80.7541C26.5473 80.8155 26.5398 80.865 26.532 80.9159" stroke="#131313" stroke-width="0.581518" stroke-linecap="round"/>
<path d="M26.6997 81.0017C26.6702 80.991 26.5798 81.0083 25.3607 81.2769C24.2182 81.5287 22.0067 81.9906 20.7587 82.2337C19.5107 82.4768 19.2918 82.4809 18.5345 82.6C17.7772 82.7191 16.4882 82.9532 15.757 83.0744C15.0258 83.1957 14.8915 83.197 14.7149 83.2173C14.5383 83.2375 14.3234 83.2765 13.9515 83.3126" stroke="#131313" stroke-width="0.581518" stroke-linecap="round"/>
<path d="M46.6868 77.0955C46.6572 77.0848 46.5668 77.1021 45.3478 77.3707C44.2053 77.6224 41.9938 78.0844 40.7458 78.3275C39.4977 78.5706 39.2789 78.5747 38.5216 78.6938C37.7643 78.8129 36.4752 79.0469 35.744 79.1682C35.0128 79.2894 34.8785 79.2908 34.7019 79.311C34.5253 79.3312 34.3105 79.3702 33.9386 79.4064" stroke="#131313" stroke-width="0.581518" stroke-linecap="round"/>
<path d="M26.7325 80.9122C26.7018 80.7667 26.5418 80.3716 26.4051 79.6556C26.3582 79.4098 26.1568 78.8326 25.8403 77.8495C25.5295 76.8843 25.1543 76.2863 25.0419 75.9923C24.9612 75.7812 24.6282 75.37 24.1215 74.6551C23.8619 74.2888 23.5651 73.9388 23.0892 73.4361C21.985 72.2693 21.2221 71.5795 21.0701 71.4652C20.8842 71.3255 20.368 71.1506 19.4369 70.8876C18.2188 70.5435 17.2586 70.5439 16.8975 70.5391C16.5011 70.5339 16.193 70.7304 15.7705 70.9894C14.5286 71.7508 14.2886 72.251 13.9278 72.7105C13.6832 73.022 13.2819 73.7217 12.9121 74.3429C12.5156 75.0087 12.3787 75.5077 12.0277 76.358C11.5591 77.4932 11.2614 78.5816 11.1336 79.1426C11.0485 79.516 10.8125 80.3736 10.566 81.5167C10.4272 82.1601 10.4014 83.3129 10.4822 84.0025C10.5238 84.3574 13.6251 83.4061 14.2524 83.2625" stroke="#131313" stroke-width="0.581518" stroke-linecap="round"/>
<path d="M46.7196 77.0059C46.6888 76.8605 46.5288 76.4653 46.3922 75.7493C46.3453 75.5035 46.1439 74.9263 45.8273 73.9433C45.5165 72.9781 45.1413 72.38 45.0289 72.0861C44.9482 71.875 44.6153 71.4638 44.1085 70.7488C43.8489 70.3826 43.5521 70.0326 43.0763 69.5298C41.972 68.3631 41.2092 67.6733 41.0571 67.559C40.8712 67.4193 40.3551 67.2444 39.4239 66.9813C38.2058 66.6372 37.2456 66.6377 36.8845 66.6329C36.4881 66.6277 36.1801 66.8242 35.7576 67.0832C34.5156 67.8446 34.2756 68.3447 33.9148 68.8043C33.6703 69.1157 33.269 69.8155 32.8991 70.4367C32.5027 71.1025 32.3657 71.6015 32.0148 72.4517C31.5462 73.587 31.2484 74.6754 31.1207 75.2363C31.0356 75.6097 30.7996 76.4674 30.553 77.6104C30.4143 78.2538 30.3885 79.4066 30.4693 80.0963C30.5109 80.4512 31.3018 80.2401 31.9291 80.0966C32.5492 79.9547 33.7657 79.4278 34.1325 79.3493" stroke="#131313" stroke-width="0.581518" stroke-linecap="round"/>
<path d="M26.2465 79.1898C26.2504 79.1791 26.3324 78.9368 26.4677 78.5558C26.5366 78.3618 26.6562 78.2289 26.8607 78.0173C27.1395 77.7287 27.4125 77.5752 27.5358 77.5042C27.7334 77.3904 27.8308 77.3484 28.1511 77.3124C28.4489 77.279 28.6309 77.3278 29.1243 77.5035C29.7325 77.7201 29.8712 77.8634 29.9653 77.9251C30.0603 77.9993 30.1868 78.0877 30.2704 78.176C30.3104 78.2182 30.3454 78.2551 30.3814 78.2931" stroke="#131313" stroke-width="0.581518" stroke-linecap="round"/>
<path d="M46.3609 75.0985C46.4882 74.986 46.8382 74.8218 47.1121 74.8481C47.453 74.8808 47.4999 75.3221 47.634 75.5531C47.756 75.7633 47.8712 75.9804 47.9211 76.2241C47.9444 76.3379 47.9757 76.4548 47.9207 76.5871C47.6091 76.787 47.3228 76.8142 47.1894 76.8019C47.1243 76.8001 47.0642 76.807 46.9497 76.8387" stroke="#131313" stroke-width="0.581518" stroke-linecap="round"/>
<path d="M10.5172 82.1132C10.336 82.1341 9.81096 82.1461 9.25423 82.2129C9.14598 82.2259 9.0794 82.2728 9.0281 82.3126C8.97679 82.3524 8.9456 82.3987 8.97924 82.4837C9.20606 83.0571 9.49843 83.5153 9.52019 83.7561C9.53048 83.8699 9.51614 83.9875 9.60295 84.1062C9.83536 84.2203 10.1254 84.2681 10.3545 84.2569C10.4507 84.255 10.5062 84.2608 10.5633 84.2667" stroke="#131313" stroke-width="0.581518" stroke-linecap="round"/>
<path d="M47.2702 74.6995C47.2834 74.663 47.4097 74.3155 47.6151 73.7075C47.8929 72.885 47.8545 72.5738 47.9269 72.2324C47.9893 71.938 48.0771 71.3922 48.2265 70.7918C48.3759 70.1913 48.5774 69.5514 48.7322 68.9819C48.887 68.4123 48.9889 67.9326 49.0774 67.4298C49.2555 66.4187 49.3256 65.8526 49.3655 65.6856C49.5194 65.0431 49.5865 64.6758 49.6558 64.4122C49.6846 64.3025 49.709 64.1653 49.7187 64.0384C49.7227 63.9875 49.6779 63.9655 49.6392 63.9565C49.3349 63.8853 48.8592 64.0639 48.6679 64.073C48.5176 64.0802 48.3709 64.0854 48.2617 64.0562C48.0076 63.9883 47.9229 63.4237 47.9523 62.9956C47.992 62.4152 48.3301 61.9531 48.5702 61.737C48.8494 61.4857 49.3322 61.5448 49.922 61.4761C50.1883 61.4451 50.4855 61.5341 50.8589 61.5708C51.1146 61.596 51.3427 61.647 51.5158 61.8189C51.7326 62.0342 51.6695 62.3595 51.7243 62.7393C51.7848 63.1584 51.6589 63.3379 51.5083 63.7954C51.3699 64.2158 51.0733 65.0074 50.9014 65.5373C50.6541 66.3 50.6088 66.6307 50.5615 66.775C50.4133 67.2277 50.2995 67.8544 50.2021 68.2097C50.0803 68.6535 50.0535 68.8195 49.958 69.2824C49.8805 69.6578 49.7183 70.3129 49.5891 70.8142C49.3749 71.6451 49.243 72.0848 49.2096 72.2914C49.152 72.6474 49.0916 72.8757 49.0237 73.1483C48.9698 73.3647 48.9139 73.5941 48.8659 73.8271C48.826 74.0204 48.7627 74.2689 48.6592 74.5973C48.604 74.8496 48.5293 75.1131 48.3645 75.7095C48.2837 75.9613 48.1477 76.3356 48.0353 76.7313" stroke="#131313" stroke-width="0.581518" stroke-linecap="round"/>
<path d="M8.88301 82.2601C8.896 82.2244 9.16573 81.4154 9.98752 79.6625C10.6295 78.293 11.1185 77.5968 11.4789 76.9352C12.1962 75.6185 12.8033 74.6916 12.9235 74.4495C13.1222 74.0489 13.4805 73.4471 14.5254 71.26C14.9147 70.4452 15.2538 69.3682 15.289 68.7658C15.3388 67.9134 14.5111 67.9084 13.9079 67.6393C13.4524 67.436 13.9266 65.5886 14.5634 65.4042C16.0042 64.9868 17.5033 65.5438 17.9418 66.6086C18.0059 66.7644 17.8463 67.2958 17.5006 68.1594C17.1456 69.0462 16.6605 70.2232 16.4757 70.644M10.7606 81.3585C10.7237 81.4374 10.6913 81.5268 10.6545 81.6061C10.6177 81.6853 10.5776 81.7517 10.4969 81.9285" stroke="#131313" stroke-width="0.581518" stroke-linecap="round"/>
<path d="M17.2563 70.5742C17.2382 70.6243 17.0537 71.2099 16.7866 72.0763C16.6817 72.4166 16.5641 72.8467 16.3713 73.4822C16.2972 73.7266 16.2876 73.8173 16.1548 74.3136C16.022 74.8099 15.7705 75.7102 15.5007 76.7938C15.231 77.8773 14.9507 79.1168 14.7927 79.7928C14.6166 80.5461 14.5558 80.7639 14.5081 81.0133C14.4488 81.3236 14.3229 81.6421 14.2622 81.8746C14.2157 82.0528 14.1541 82.3164 14.0398 82.6707C14.0138 82.7812 13.9735 82.9189 13.9165 83.0888C13.8959 83.1586 13.8921 83.195 13.8882 83.2325" stroke="#131313" stroke-width="0.581518" stroke-linecap="round"/>
<path d="M18.1711 70.7305C18.159 70.7638 18.1469 70.7972 17.8122 72.2253C17.4776 73.6533 16.8208 76.475 16.1441 79.3822" stroke="#131313" stroke-width="0.581518" stroke-linecap="round"/>
<path d="M36.9634 66.7695C36.9657 66.7893 36.9679 66.809 36.8744 67.1578C36.7809 67.5067 36.5914 68.184 36.4821 68.6043C36.3728 69.0245 36.3493 69.1671 35.9785 70.579C35.6076 71.9909 34.8901 74.6678 34.1509 77.4257" stroke="#131313" stroke-width="0.581518" stroke-linecap="round"/>
<path d="M38.2805 66.8477C38.2441 66.9478 38.2186 67.0441 38.153 67.3421C38.0941 67.5954 37.9835 68.0558 37.719 69.3322C37.4545 70.6085 37.0395 72.6869 36.6119 74.8282" stroke="#131313" stroke-width="0.581518" stroke-linecap="round"/>
</svg>
