<svg width="241" height="176" viewBox="0 0 241 176" fill="none" xmlns="http://www.w3.org/2000/svg">
<path d="M141.566 76.0826C140.704 75.5566 138.449 75.4014 137.017 75.3208C136.65 75.3001 136.25 75.324 132.991 75.1084C129.732 74.8927 123.626 74.4443 119.849 74.2341C116.072 74.1276 110.956 73.7018 107.178 73.7036" stroke="#131313" stroke-width="1.23049" stroke-linecap="round"/>
<path d="M151.928 78.4777C152.827 87.3755 153.979 96.7424 150.539 105.248C142.225 125.804 111.147 124.444 92.6278 124.143C80.9856 123.954 59.3603 121.211 52.5498 110.091C48.3406 103.218 52.6356 95.655 51.8189 88.4968" stroke="#131313" stroke-width="1.23049" stroke-linecap="round"/>
<path d="M141.316 76.4699C139.863 87.6944 129.464 106.686 116.29 98.9265C107.958 94.0189 105.981 82.5788 107.156 73.4989" stroke="#131313" stroke-width="1.23049" stroke-linecap="round"/>
<path d="M97.0707 74.1339C85.365 73.8844 70.3347 73.676 59.6668 73.2134" stroke="#131313" stroke-width="1.23049" stroke-linecap="round"/>
<path d="M97.2268 73.9131C97.3783 82.4262 94.4108 88.4627 90.0673 92.2113M59.6494 73.3008C56.1193 88.0488 65.6634 96.3576 76.0151 96.8989" stroke="#131313" stroke-width="1.23049" stroke-linecap="round"/>
<path d="M125.841 74.5207C125.836 74.5551 125.831 74.5895 125.638 75.9673C125.444 77.3451 125.061 80.0653 124.763 81.9185C124.465 83.7717 124.264 84.6755 124.129 85.2336C123.948 85.9806 123.746 86.8884 123.545 88.0485C123.446 88.6262 123.35 89.0383 123.272 89.5235M114.829 74.4833C114.812 74.6075 114.795 74.728 114.788 74.8426C114.782 74.9572 114.785 75.0626 114.529 77.6907C114.273 80.3188 113.742 85.3158 113.533 87.8731C113.315 90.5357 113.133 90.9109 113.33 90.9616L115.095 91.1572" stroke="#131313" stroke-width="1.23049" stroke-linecap="round"/>
<path d="M76.3398 73.9997C76.3081 74.6386 76.2922 75.2971 76.1197 77.6267C76.0813 78.1451 76.0957 78.3469 75.8984 79.9572C75.7011 81.5676 75.2961 84.5804 75.0667 86.2121C74.8146 88.0051 74.6973 88.5608 74.5987 89.1929C74.5615 89.4315 74.5267 89.5001 74.2655 89.5795C74.0043 89.6588 73.5117 89.746 72.8455 89.7874C72.1792 89.8287 71.3542 89.8216 70.0588 89.7235C68.7634 89.6254 67.0226 89.4365 66.1215 89.3022C65.2203 89.1679 65.2115 89.094 65.212 89.0201C65.2141 88.7265 65.2266 88.4332 65.3707 87.1346C65.4826 86.1263 65.7982 84.2321 65.9798 83.1494C66.1613 82.0667 66.2293 81.8561 66.3351 81.2459C66.6138 79.6365 66.7314 78.4346 66.7561 78.0524C66.7878 77.5629 66.8526 77.1603 66.8987 76.6264C67.0419 75.5391 67.1369 74.7277 67.1268 74.5245C67.1204 74.4309 67.1116 74.357 67.1102 74.2265" stroke="#131313" stroke-width="1.23049" stroke-linecap="round"/>
<path d="M107.146 98.7628C107.038 98.8019 106.774 98.848 105.053 98.9177C103.541 98.9614 100.732 99.022 99.2328 99.0597C97.7336 99.0974 97.6291 99.1104 97.3581 99.183" stroke="#131313" stroke-width="1.23049" stroke-linecap="round"/>
<path d="M107.345 99.0285C106.953 99.6694 105.397 101.709 104.47 102.91C103.295 104.433 102.679 105.41 102.099 106.286C101.973 106.475 101.905 106.57 101.795 106.624C101.684 106.677 101.529 106.684 101.381 106.625C101.065 106.501 100.485 105.751 99.6276 104.664C98.5224 103.03 97.9836 102.001 97.4384 100.482C97.3562 100.2 97.3444 100.093 97.3425 99.9029" stroke="#131313" stroke-width="1.23049" stroke-linecap="round"/>
<path d="M101.613 106.712C101.454 107.122 101.277 108.223 101.132 108.937C100.886 110.149 100.554 110.557 100.293 111.012C100.022 111.488 99.5549 112.04 99.2889 112.332C98.9739 112.677 98.5936 112.966 98.2809 113.27C97.9615 113.5 97.6098 113.78 97.2482 113.996C97.1511 114.065 97.0519 114.16 96.8393 114.298" stroke="#131313" stroke-width="1.23049" stroke-linecap="round"/>
<path d="M101.794 106.683C101.804 106.772 101.925 107.313 102.166 108.246C102.378 109.065 102.638 109.569 102.766 109.816C102.917 110.108 103.194 110.543 103.407 110.854C103.626 111.175 104.084 111.674 104.756 112.15C105.216 112.477 106.015 112.823 106.435 113.024C106.98 113.251 107.197 113.301 107.432 113.337C107.533 113.356 107.594 113.375 107.656 113.394" stroke="#131313" stroke-width="1.23049" stroke-linecap="round"/>
<path d="M117.294 68.6691C117.119 68.6464 116.943 68.6237 115.574 68.4925C114.206 68.3614 111.649 68.1226 109.016 67.8765" stroke="#131313" stroke-width="1.23049" stroke-linecap="round"/>
<path d="M96.4195 71.505C95.7149 71.4138 92.5075 71.2748 90.1615 71.1594C89.7987 71.1585 89.4799 71.2093 89.1591 71.2382C88.8384 71.2671 88.5254 71.2726 87.8041 71.2267" stroke="#131313" stroke-width="1.23049" stroke-linecap="round"/>
<path d="M134.091 103.242C134.18 103.153 134.572 103.123 135.626 103.159C137.074 103.209 138.129 103.522 138.383 103.666C138.819 103.911 139.291 104.336 139.454 104.749C139.562 105.025 139.484 105.426 139.427 105.791C139.354 106.259 138.21 106.888 136.818 107.296C136.383 107.423 136.048 107.418 135.266 107.557C133.493 107.871 132.117 107.956 131.737 107.967C131.367 107.977 130.478 108.005 129.337 107.938C128.766 107.904 128.262 107.92 127.695 107.787C127.477 107.736 127.446 107.575 127.412 107.46C127.232 106.848 127.576 105.803 127.821 105.269C128.03 104.811 128.624 104.469 129.125 104.079C129.585 103.72 130.472 103.599 131.095 103.468C131.775 103.326 132.647 103.358 133.204 103.298C133.342 103.286 133.537 103.271 133.707 103.253C133.876 103.234 134.014 103.212 134.214 103.197" stroke="#131313" stroke-width="1.23049" stroke-linecap="round"/>
<path d="M63.1933 101.196C63.5826 100.996 64.6671 100.838 67.227 100.854C69.3035 100.866 70.6248 101.28 71.0374 101.458C71.7417 101.762 72.2138 102.162 72.369 102.37C72.6438 102.738 72.5971 103.34 72.4456 104.423C72.3272 105.269 70.691 105.504 69.6895 105.737C68.6583 105.978 67.7976 105.858 67.4023 105.819C66.9819 105.778 65.573 105.645 63.6973 105.39C61.8401 105.138 60.2696 104.056 60.2048 103.711C60.0751 103.021 60.3661 102.363 60.5627 101.964C61.5138 101.182 62.3079 100.882 62.6532 100.839C62.8264 100.823 62.9953 100.82 63.1694 100.817" stroke="#131313" stroke-width="1.23049" stroke-linecap="round"/>
<path d="M71.0548 68.4953C71.6444 68.5906 70.6114 68.5248 72.434 68.5678C73.4419 68.5916 74.6872 68.6777 75.3765 68.289C76.845 67.4611 74.9444 60.1403 84.178 60.1403C90.0795 60.1403 91.6261 66.6744 91.5068 68.514C92.7412 68.4732 96.5163 69.29 96.3527 68.0718C95.771 63.7413 93.6825 57.1467 84.178 56.5388C75.5429 55.9864 71.5916 62.0703 71.0088 66.1728C70.8149 67.538 70.6568 68.431 71.0548 68.4953Z" stroke="#131313" stroke-width="1.23049" stroke-linecap="round"/>
<path d="M102.757 47.4676C103.164 47.6709 104.49 47.9419 105.534 48.1531C105.966 48.2403 106.428 48.3945 106.824 48.3464C107.109 48.3117 106.833 47.5465 107.056 47.1237C107.783 45.7467 110.201 48.1782 112.54 49.233C113.05 49.4631 113.238 49.5258 113.386 49.1483C113.534 48.7707 113.642 47.9399 113.839 47.5303C114.037 47.1207 114.321 47.1575 114.559 47.2132C115.387 47.4068 118.174 48.8036 120.109 49.8122C120.966 50.2589 121.681 50.8175 122.39 51.3624C123.054 51.8731 123.468 52.8043 123.968 53.2757C125.104 54.3444 124.185 51.0467 124.399 50.698C124.51 50.5163 124.913 50.6365 125.186 50.7961C126.241 51.4119 126.476 52.4921 127.023 53.3406C127.777 54.5097 128.447 55.3069 129.188 56.1556C129.563 56.5848 129.965 57.1099 130.443 57.5481C130.646 57.7343 130.857 57.7298 131.015 57.6508C131.353 57.4812 131.577 57.0716 131.987 56.8988C133.286 56.351 134.511 57.6998 134.862 57.9951C135.557 58.5805 135.013 60.219 135.268 61.2578C135.439 61.9549 135.526 62.6478 135.808 63.0857C136.409 64.0163 138.285 63.4613 139.322 63.3681C139.612 63.342 139.991 63.4291 140.239 63.6102C141.542 64.5644 142.847 67.9996 144.43 69.7472C144.792 70.1456 145.259 70.1337 145.574 70.3236C146.533 70.9003 145.429 72.61 144.74 74.1755C144.19 76.9035 143.75 80.677 143.767 81.1046C143.763 81.3307 143.731 81.575 143.699 81.8268" stroke="#131313" stroke-width="1.23049" stroke-linecap="round"/>
<path d="M143.7 82.1393C144.005 82.2791 144.56 82.4833 145.092 82.637C145.34 82.7187 146.507 82.9039 148.136 82.7175C148.723 82.3962 148.824 81.6148 148.928 80.8097" stroke="#131313" stroke-width="1.23049" stroke-linecap="round"/>
<path d="M102.614 47.1482C101.9 47.2356 101.214 47.7816 100.256 48.2255C99.7415 48.4636 99.2888 48.7146 98.8611 48.7955C98.6614 48.8332 98.4878 48.7934 98.3124 48.6134C97.4764 47.7554 97.3931 46.704 96.8381 45.723C96.6901 45.4612 96.4861 45.2245 96.2619 45.0797C95.3135 44.4672 92.0188 46.2209 89.91 46.7284C88.965 46.9558 87.9749 47.0677 86.608 47.2544C85.4907 47.4071 84.1448 47.7515 83.3488 47.7656C82.9419 47.7728 83.2368 46.9121 83.1558 46.6966C82.7557 45.6327 81.0081 48.5251 80.1825 48.9419C79.2349 49.4203 78.7293 50.137 77.716 51.0042C76.7223 51.8547 76.0452 52.5137 75.5332 53.0624C74.9709 53.6651 73.6415 52.0718 72.3878 51.8844C71.4051 51.7374 70.5752 53.3013 69.3864 54.3304C68.5034 55.0948 67.6137 55.781 66.8191 56.4729C65.9015 57.272 65.5521 58.1021 65.1772 58.6011C65.1754 58.6035 65.2842 58.4379 65.263 58.2751C65.2418 58.1123 65.0876 57.9575 64.8796 57.8611C64.6716 57.7648 64.4145 57.7315 64.2063 57.7944C63.3007 58.0683 62.2918 59.8512 61.2525 61.4036C60.6358 62.3247 59.467 61.9482 58.4895 62.5232C57.5091 63.0999 56.8372 63.5583 56.2149 64.2712C55.3696 65.2395 55.6973 66.2248 55.3508 67.54C55.0272 68.7684 54.857 69.6574 54.6902 70.4306" stroke="#131313" stroke-width="1.23049" stroke-linecap="round"/>
<path d="M54.6295 70.5753C54.4573 71.9055 54.0679 74.4747 53.9458 75.0813C53.7709 75.9505 53.6227 76.581 53.4967 77.2182C53.2977 78.1993 53.1093 79.2151 52.9082 80.1024C52.7893 80.7948 52.636 81.9789 52.4781 83.1988L50.9197 82.9971" stroke="#131313" stroke-width="1.23049" stroke-linecap="round"/>
<path d="M151.772 78.3113C151.915 77.2106 152.06 74.5667 152.131 72.8548C152.187 71.5212 151.843 70.4861 151.722 69.4941C151.577 68.3087 151.311 66.9334 150.936 65.9833C150.567 65.0468 149.394 63.7151 149.049 62.3329C148.777 61.2415 148.292 59.932 148.017 58.791C147.897 58.2939 147.563 57.8851 147.265 57.5137M118.169 37.7659C115.956 36.1411 112.884 36.4823 111.993 36.4446C110.95 36.4005 109.963 36.4117 108.719 35.8441C107.61 35.3378 107.018 34.5977 106.038 34.291C104.958 33.9528 103.926 35.0646 103.275 35.6729C102.548 36.3509 101.362 35.3016 100.374 34.8908C98.485 34.1057 97.54 34.1396 94.368 33.7783C91.089 33.4047 90.0775 33.8379 89.28 34.0414C88.7885 34.1668 87.7024 35.6998 87.0192 36.3793M60.4222 51.2006C59.7359 51.9266 59.3697 51.9461 58.6958 52.7321C58.0724 53.4591 57.5647 54.3783 56.8697 55.5175C56.2491 56.5345 56.0389 57.7168 55.2402 58.3321C54.244 59.0997 53.6609 59.9703 53.1826 60.7816C52.7476 61.5196 52.2765 62.6076 51.7928 63.6503C51.3748 64.5515 51.2032 65.9031 50.3937 71.9556C50.1438 73.8242 50.3756 74.968 50.5764 77.6306C50.6834 79.0503 50.9141 81.5377 50.9603 83.5008C51.0409 84.7949 51.1747 85.6839 51.2312 86.2024C51.2717 86.4652 51.7098 88.1461 51.9031 88.5862" stroke="#131313" stroke-width="1.23049" stroke-linecap="round"/>
<path d="M147.59 57.4337C147.594 56.9792 147.616 55.9535 147.33 51.5537C147.244 50.2349 147.014 49.0833 146.412 47.1185C144.953 42.3583 143.677 39.246 143.539 38.5998C143.423 38.0552 142.993 36.4206 142.095 33.111C141.573 31.1824 140.666 28.8259 139.971 27.0585C138.835 24.1699 137.442 21.9066 136.149 19.9098C134.674 17.6333 132.685 15.3931 131.384 14.6736C129.9 13.8535 128.259 15.6685 127.442 16.8187C126.697 17.8681 126.358 19.1962 125.59 20.4138C124.541 22.0791 123.293 24.462 122.417 26.069C121.858 27.0942 121.482 28.5784 121.108 29.9627C120.591 31.8727 120.045 33.2547 119.613 34.4359C119.26 35.4504 119.019 36.446 118.662 38.1432C118.564 38.6758 118.485 39.2888 118.403 39.9203" stroke="#131313" stroke-width="1.23049" stroke-linecap="round"/>
<path d="M131.383 20.8776C131.365 21.0112 131.447 21.3976 131.695 22.0458C131.968 22.763 132.883 24.3878 134.103 27.7752C134.83 29.7962 135.404 32.5661 135.751 34.078C136.142 35.7854 136.145 36.2478 136.195 37.1412C136.369 40.2568 136.092 41.2844 135.973 42.5884C135.948 42.914 135.95 43.1521 135.886 43.7759C135.822 44.3998 135.693 45.4022 135.461 46.4223" stroke="#131313" stroke-width="1.23049" stroke-linecap="round"/>
<path d="M88.662 34.4623C88.6039 34.2783 88.232 33.3452 86.8065 30.7001C85.8037 28.8393 83.9083 26.1438 82.3069 24.0234C80.7055 21.9031 79.3724 20.4952 77.5151 18.8464C75.6578 17.1976 73.3168 15.3504 72.033 14.3668C70.6177 13.2823 69.6682 13.1536 68.4572 13.0851C67.5339 13.0329 66.8997 15.0118 65.8081 17.5397C65.2185 18.9047 64.3826 21.4187 63.8676 22.9576C63.3526 24.4966 63.2449 25.0121 62.9474 26.0404C62.6498 27.0687 62.1657 28.5943 61.5952 31.5445C61.0247 34.4947 60.3825 38.8234 60.0606 41.1427C59.6595 44.0325 59.9675 46.4595 59.9994 48.6388C59.9717 49.0162 59.9267 49.3633 59.9186 49.7426C59.9105 50.1219 59.9405 50.5229 60.0424 51.3462" stroke="#131313" stroke-width="1.23049" stroke-linecap="round"/>
<path d="M80.4814 33.8474C80.5819 33.9675 80.3417 33.2244 79.7573 31.7211C79.2495 30.4147 78.686 29.6008 77.9322 28.4147C77.3609 27.5159 76.4844 25.9437 75.6954 24.723C74.3197 22.5947 73.2517 21.4671 72.5125 20.7846C72.098 20.4329 71.6034 20.0702 71.0902 19.7315C70.577 19.3928 70.0601 19.0891 69.5277 18.7762" stroke="#131313" stroke-width="1.23049" stroke-linecap="round"/>
<path d="M73.7318 22.1164C73.6309 22.115 73.53 22.1136 73.0654 22.1129C72.6009 22.1123 71.7757 22.1123 71.1777 22.1494C69.8076 22.2344 69.6782 22.4706 69.6205 22.5436C69.5685 22.6093 69.5853 22.7534 69.5991 22.8957C69.6101 23.0089 69.7453 23.1425 70.6238 23.7475C71.3992 24.2814 72.8777 25.1938 73.6629 25.686C74.5003 26.2109 74.6839 26.3285 74.8888 26.5075C74.9725 26.5807 75.0092 26.629 74.8245 26.7117C74.6398 26.7944 74.2311 26.9128 73.646 27.1546C73.0609 27.3964 72.3118 27.7581 71.8106 28.0611C71.3093 28.3642 71.0786 28.5977 70.6237 29.2318C70.1687 29.8658 69.4965 30.8934 69.1253 31.5013C68.7541 32.1092 68.7042 32.2663 68.6749 32.3753C68.6455 32.4844 68.6382 32.5406 68.6803 32.5702C69.0531 32.8324 69.6067 32.464 70.0873 32.3859C70.4505 32.3268 71.05 32.1903 71.7491 31.9837C72.4483 31.7771 73.2275 31.4947 73.6649 31.3272C74.2929 31.0867 74.4034 31.0156 74.4819 31.0107C74.5172 31.0085 74.5354 31.0843 74.5425 31.1529C74.5578 31.3 74.324 31.8969 73.9401 32.8743C73.7605 33.3313 73.6438 33.7289 73.5501 34.1505C73.4564 34.5722 73.3975 35.0108 73.35 35.5521C73.2475 36.7202 73.2343 37.4188 73.2401 37.4533C73.2531 37.5325 73.4172 37.1163 73.7295 36.7796C73.8759 36.6218 74.0265 36.5328 74.8176 36.1251C75.6086 35.7174 77.043 35.0045 77.8267 34.6041C78.6103 34.2036 78.6998 34.1372 78.8721 34.0371C79.0444 33.937 79.2968 33.8052 79.445 33.7319C79.5932 33.6587 79.6295 33.6479 79.6947 33.6372" stroke="#131313" stroke-width="1.23049" stroke-linecap="round"/>
<path d="M80.5539 38.8272C80.0597 38.697 79.391 38.5667 78.6544 38.4817C78.3042 38.4412 77.9197 38.8585 77.546 39.3502C77.1325 39.8943 77.0622 40.841 76.7853 41.8317C76.6859 42.1878 76.3864 42.1291 76.1968 42.0937C75.6266 41.987 74.8892 41.8029 74.2557 41.7868C73.6687 41.7719 73.1251 42.1693 72.6017 42.4986C72.1562 42.7788 71.9474 43.164 71.3577 43.9255C71.137 44.2105 71.075 44.4432 70.9821 44.5855C70.649 44.7636 70.1072 45.0015 68.8237 45.7497C68.5514 45.9267 68.4333 46.0207 68.3116 46.1175" stroke="#131313" stroke-width="1.23049" stroke-linecap="round"/>
<path d="M139.913 54.012C139.773 53.7352 139.499 53.1268 138.206 51.1542C137.588 50.2113 136.939 49.9039 136.439 49.6551C136.188 49.5306 134.454 49.2939 132.07 48.8946C131.212 48.751 131.081 48.1313 130.024 46.667C129.387 45.7851 128.483 45.1879 127.897 44.8381C127.554 44.5737 127.227 44.347 126.968 44.2094C126.849 44.1417 126.757 44.0783 126.663 44.0129" stroke="#131313" stroke-width="1.23049" stroke-linecap="round"/>
<path d="M109.018 64.6821C109.062 64.6599 109.107 64.6377 110.195 64.6596C111.283 64.6814 113.414 64.748 116.131 64.9599C118.849 65.1717 122.089 65.5268 123.803 65.7097C126.053 65.9499 126.95 66.0944 127.276 66.0836C127.708 66.0694 127.489 65.134 127.624 63.7365C127.677 63.1898 127.647 62.4332 127.558 62.0223C127.469 61.6114 127.292 61.567 127.134 61.533C126.844 61.4707 126.528 61.4318 126.137 61.3982C125.681 61.359 125.161 61.3424 122.372 61.264C119.85 61.1932 115.077 61.2079 112.575 61.1853C109.983 61.162 109.715 61.1178 109.423 61.2065C108.726 61.4193 109.135 63.8231 109.029 64.5234" stroke="#131313" stroke-width="1.23049" stroke-linecap="round"/>
<path d="M74.9347 122.908C74.7643 123.119 74.5093 123.971 73.9756 125.252C73.2028 127.107 73.9506 129.954 74.3972 130.189C75.0041 130.507 75.6587 130.553 79.9541 130.892C84.0332 131.215 91.9879 131.57 99.3183 131.534C106.649 131.498 113.119 130.991 117.234 130.603C121.349 130.214 122.914 129.961 123.91 129.767C125.298 129.496 126.694 129.146 128.612 128.784C131.317 128.273 132.125 127.567 132.831 127.053C133.647 126.46 133.709 125.517 134.007 124.663C134.093 124.322 134.178 123.815 134.221 123.067C134.265 122.32 134.265 121.347 134.265 120.345" stroke="#131313" stroke-width="1.23049" stroke-linecap="round"/>
<path d="M79.1559 123.771C79.1559 123.846 78.9853 124.511 78.6889 125.667C78.4483 126.606 78.4091 127.594 78.4281 128.475C78.485 128.9 78.543 129.13 78.6001 129.369C78.6383 129.476 78.6952 129.551 78.8687 129.744" stroke="#131313" stroke-width="1.23049" stroke-linecap="round"/>
<path d="M83.8662 123.786C83.8283 123.976 83.6755 124.587 83.5698 125.516C83.4939 126.183 83.4262 126.636 83.4256 128.699C83.5595 129.74 83.6744 130.122 83.9989 130.639C84.0764 130.755 84.1144 130.831 84.2683 130.909" stroke="#131313" stroke-width="1.23049" stroke-linecap="round"/>
<path d="M89.5523 124.193C89.5523 124.268 89.5523 124.44 89.5429 124.698C89.534 124.938 89.4759 126.191 89.4662 128.057C89.5713 129.438 89.6477 129.857 89.6862 130.652C89.7051 130.817 89.743 130.892 89.8395 131.028" stroke="#131313" stroke-width="1.23049" stroke-linecap="round"/>
<path d="M94.3775 124.075C94.4539 125.05 94.4924 126.572 94.5401 127.539C94.5688 128.057 94.6073 128.799 94.6168 129.727C94.6263 130.068 94.6452 130.143 94.6648 130.394" stroke="#131313" stroke-width="1.23049" stroke-linecap="round"/>
<path d="M99.5472 124.591C99.6236 124.724 99.6621 126.584 99.7098 127.749C99.7385 128.208 99.777 129.54 99.8247 130.381C99.8344 130.562 99.8344 130.846 99.8344 131.139" stroke="#131313" stroke-width="1.23049" stroke-linecap="round"/>
<path d="M105.119 124.708C105.119 124.86 105.271 125.394 105.568 126.769C105.693 127.968 105.77 128.747 105.799 129.241C105.809 129.66 105.809 130.418 105.866 131.199" stroke="#131313" stroke-width="1.23049" stroke-linecap="round"/>
<path d="M110.059 124.591C110.059 124.838 110.097 125.488 110.479 126.702C110.71 127.672 110.748 128.113 110.758 128.636C110.767 129.027 110.786 129.671 110.806 130.335" stroke="#131313" stroke-width="1.23049" stroke-linecap="round"/>
<path d="M114.252 124.302C114.442 124.624 114.863 125.961 114.979 126.626C115.19 127.403 115.229 128.335 115.238 129.445C115.248 129.854 115.266 129.948 115.343 130.218" stroke="#131313" stroke-width="1.23049" stroke-linecap="round"/>
<path d="M118.618 123.728C118.655 123.861 118.922 124.28 119.153 124.646C119.372 124.992 119.593 125.315 120.042 126.194C120.277 126.652 120.417 127.21 120.589 127.67C120.819 128.513 120.858 128.858 120.867 129.011C120.877 129.088 120.896 129.164 120.915 129.242" stroke="#131313" stroke-width="1.23049" stroke-linecap="round"/>
<path d="M125.051 122.927C125.278 123.516 125.892 124.705 126.17 125.385C126.314 125.798 126.505 126.37 126.687 127.555C126.717 127.995 126.717 128.583 126.717 129.188" stroke="#131313" stroke-width="1.23049" stroke-linecap="round"/>
<path d="M130.278 121.661C130.506 122.629 130.966 124.588 131.034 124.982C131.063 125.144 131.101 125.355 131.13 125.907C131.14 126.326 131.14 127.027 131.025 127.922" stroke="#131313" stroke-width="1.23049" stroke-linecap="round"/>
<path d="M73.191 127.927C72.7819 127.927 71.5228 128.119 70.8641 128.254C70.0108 128.429 69.217 128.872 68.1849 129.368C67.2969 129.796 66.933 130.23 66.5327 130.679C66.3013 131.104 66.0836 131.516 65.8657 131.831C65.7678 131.977 65.6957 132.097 65.5487 132.294" stroke="#131313" stroke-width="1.23049" stroke-linecap="round"/>
<path d="M134.68 124.403C136.014 124.317 138.827 124.487 139.416 124.674C139.952 124.844 140.744 125.145 141.605 125.518C142.593 125.946 143.209 126.605 143.625 126.964C144.109 127.381 145.237 128.29 146.628 129.837C147.584 130.901 148.703 132.012 149.179 132.717C149.739 133.547 150.308 134.132 150.895 134.934C152.228 136.753 152.371 137.397 152.886 138.768C153.171 139.455 153.402 139.946 153.588 140.261C153.688 140.405 153.802 140.518 153.918 140.721" stroke="#131313" stroke-width="1.23049" stroke-linecap="round"/>
<path d="M132.9 24.8438C132.686 24.7371 132.201 24.4136 131.249 24.2244C129.689 23.9145 128.507 24.2235 128.319 24.3574C128.209 24.4354 128.184 24.6514 128.183 24.801C128.179 25.4771 129.338 26.1345 129.865 26.7415C130.791 27.8087 132.135 28.931 132.845 29.8153C133.086 30.1149 133.196 30.4498 133.237 30.6649C133.257 30.7721 133.144 30.88 133.036 30.9483C132.564 31.2474 131.799 31.2585 130.157 31.8229C128.654 32.3401 128.104 33.2527 127.645 33.6704C127.524 33.7801 127.43 33.9256 127.362 34.0477C127.241 34.2639 129.321 34.4933 131.265 34.6959C131.889 34.7609 132.225 34.9526 132.427 35.006C132.511 35.0282 132.496 35.1661 132.389 35.2878C131.841 35.9121 130.883 36.0557 129.951 36.6085C129.297 36.9968 128.832 37.458 128.172 38.0233C128.004 38.1669 127.915 38.346 127.86 38.4818C127.805 38.6177 127.805 38.7244 127.859 38.8195C128.162 39.3592 129.602 40.096 130.606 40.7332C131.374 41.2203 132.919 41.9043 133.693 42.3106C134.139 42.6612 134.729 43.1448 135.23 43.4566C135.325 43.5241 135.405 43.6042 135.488 43.8484" stroke="#131313" stroke-width="1.23049" stroke-linecap="round"/>
<path d="M7.81081 124.502C7.81081 124.481 7.81081 124.46 7.76917 124.46C7.72753 124.46 7.64425 124.48 7.58053 124.543C7.43993 124.682 7.3698 124.88 7.26475 125.016C7.16132 125.15 7.17989 125.675 7.22153 126.348C7.25783 126.934 7.93447 127.192 8.89978 127.634C9.6061 127.957 10.332 127.909 10.7834 127.93C10.9858 127.939 11.1307 127.992 12.8714 128.034C14.6121 128.077 17.9434 128.118 20.6692 128.004C23.3951 127.891 25.4147 127.62 26.6633 127.408C28.3423 127.122 28.9447 126.858 29.3952 126.732C30.0037 126.563 30.5012 126.291 30.7744 126.091C30.9618 125.954 30.9655 125.66 30.9551 125.366C30.9476 125.153 30.7983 124.945 30.5573 124.714C30.2991 124.466 29.8116 124.356 29.2557 124.198C28.6856 124.037 28.1914 123.976 25.6485 123.903C23.2933 123.835 18.7749 123.768 15.8645 123.797C12.9541 123.827 11.7881 123.973 11.1146 124.069C10.0369 124.223 9.62155 124.291 8.84425 124.323C8.59063 124.354 8.35908 124.376 8.09662 124.386C7.97989 124.397 7.89661 124.417 7.81081 124.439" stroke="#131313" stroke-width="0.995193" stroke-linecap="round"/>
<path d="M6.89936 124.704C6.65999 125.132 6.52335 125.473 6.36052 126.234C6.25013 126.75 6.19769 127.202 6.17175 127.528C6.13213 128.027 5.99223 129.083 5.93213 129.998C5.83931 131.412 5.94035 132.476 5.96603 132.699C6.04102 133.347 6.24803 134.308 6.41883 135.041C6.84466 136.871 7.15516 137.32 7.3013 137.699C7.48703 138.181 7.87429 138.863 8.07128 139.265C8.35904 139.852 8.71258 140.181 9.12352 140.66C9.58127 141.194 10.1837 141.687 10.7582 142.252C11.26 142.746 11.8613 143.022 12.8275 143.477C13.6167 143.848 14.498 144 15.1051 144.154C16.0194 144.385 16.9486 144.514 18.2117 144.634C18.524 144.663 18.6931 144.702 19.3482 144.72C20.0034 144.737 21.1391 144.737 21.7835 144.712C22.7804 144.672 23.2821 144.43 23.9067 144.327C24.2049 144.277 24.7132 144.174 25.3989 143.91C26.0846 143.646 26.9322 143.222 27.5383 142.876C29.0906 141.992 29.4646 141.314 29.7137 140.989C30.0538 140.544 30.3388 139.911 30.5782 139.397C30.9014 138.704 30.9727 138.301 31.3566 137.268C31.5229 136.82 31.5721 136.52 31.6232 136.306C31.6804 136.067 31.8623 135.445 32.0164 134.081C32.1126 133.23 32.0688 132.039 32.0095 131.106C31.9088 129.522 31.6415 128.628 31.5387 128.234C31.4464 127.881 31.4185 127.531 31.2904 127.052C31.2475 126.881 31.1966 126.644 31.1704 126.488C31.1442 126.332 31.1442 126.264 31.1442 126.194" stroke="#131313" stroke-width="0.995193" stroke-linecap="round"/>
<path d="M30.9978 125.63C31.0317 125.63 31.1339 125.613 31.2877 125.545C31.6327 125.392 31.7333 124.98 31.9555 124.638C32.2658 124.16 32.8603 123.885 33.2568 123.687C33.545 123.542 34.5174 123.524 35.2083 123.617C35.6958 123.684 36.1673 123.967 36.4585 124.165C36.8486 124.429 37.1432 124.687 37.4006 124.876L37.911 125.545M30.9464 139.858C31.0152 139.686 31.0322 139.618 31.0581 139.549C31.0841 139.48 31.118 139.412 31.1524 139.308C31.307 138.864 31.6278 138.288 31.8892 137.853C32.1977 137.339 32.4787 136.879 32.84 136.5C33.3637 135.951 33.7843 135.517 34.3142 135.087C35.1256 134.429 35.4096 134.166 35.7255 133.803C36.3779 133.055 36.9184 132.466 37.2588 131.978L37.911 130.623" stroke="#131313" stroke-width="0.995193" stroke-linecap="round"/>
<path d="M31.6578 128.244C31.7426 127.817 31.9825 127.406 32.2729 127.038C32.5757 126.654 33.129 126.566 33.497 126.54M34.2195 130.421C33.9022 130.768 33.167 131.563 32.8487 131.975C32.6104 132.284 32.4632 132.677 32.3518 133.019C32.1598 133.609 31.9331 134.351 31.8207 135.065C31.8119 135.211 31.8119 135.347 31.8034 135.476C31.795 135.605 31.778 135.724 31.7606 135.846" stroke="#131313" stroke-width="0.995193" stroke-linecap="round"/>
<path d="M33.4549 126.812C33.5928 126.693 33.9088 126.456 34.2751 126.258C34.9655 125.884 35.9263 125.842 36.483 125.733C36.9668 125.638 37.8643 125.564 38.592 125.722C38.9828 125.807 39.4327 126.235 39.7612 126.553C40.0094 126.793 40.3048 127.323 40.4649 127.899C40.5448 128.186 40.5246 128.69 40.4658 129.253C40.3997 129.887 39.8331 130.019 39.506 130.197C39.1395 130.398 38.7245 130.475 38.2887 130.544C37.7005 130.638 36.2792 130.614 35.1505 130.505C34.6419 130.457 34.2486 130.318 33.9412 130.07C33.6736 129.587 33.5144 128.677 33.465 128.033C33.4549 127.786 33.4549 127.394 33.4549 126.99" stroke="#131313" stroke-width="0.995193" stroke-linecap="round"/>
<path d="M40.1816 121.02C40.142 120.928 40.0089 120.715 39.869 120.429C39.7237 120.131 39.5692 119.783 39.2368 118.899C39.0764 118.472 38.996 118.197 38.7838 117.593C38.4325 116.593 38.2238 116.238 38.0505 115.965C37.8312 115.62 37.6114 115.465 37.2519 115.166C36.8235 114.809 36.1213 114.745 35.7524 114.824C35.4401 114.892 35.2259 115.357 34.9597 115.723C34.7601 115.998 34.6 116.315 34.2736 117.518C34.1886 117.832 34.1727 118.18 34.1461 118.632C34.1319 118.875 34.1059 119.47 34.1323 120.375C34.1581 121.26 34.3721 121.538 34.4853 122.011C34.5536 122.297 34.6783 122.67 34.7916 122.951C34.825 123.018 34.8646 123.097 34.9114 123.184C34.9581 123.271 35.0109 123.364 35.1452 123.539" stroke="#131313" stroke-width="0.995193" stroke-linecap="round"/>
<path d="M40.1842 120.775C40.28 121.137 40.6183 121.57 41.1138 122.128C41.5677 122.639 42.2866 122.878 42.8079 123.169C43.3101 123.449 44.0987 123.652 44.8044 123.884C45.2097 124.016 45.6029 124.137 45.9906 124.391C46.3579 124.632 46.8124 124.934 47.2731 125.419C47.6442 125.809 47.8303 126.241 48.0724 126.654C48.282 127.011 48.459 127.571 48.6172 128.045C48.775 128.517 49.0151 129.144 49.2583 129.811C49.3548 130.041 49.4282 130.236 49.4764 130.429C49.5007 130.526 49.5247 130.622 49.622 130.938" stroke="#131313" stroke-width="0.995193" stroke-linecap="round"/>
<path d="M40.7972 129.441C41.1383 129.441 41.782 129.399 42.2861 129.323C43.1047 129.201 43.8393 129.739 44.7315 130.191C45.2476 130.452 45.4949 130.77 45.7311 131.156C46.0795 131.726 46.2248 132.057 46.2155 133.491C46.2097 134.38 44.5165 134.866 43.1673 135.456C42.5489 135.726 42.0305 135.854 40.7376 136.068C39.4448 136.283 37.3843 136.559 36.2697 136.702C34.7696 136.865 34.1697 136.908 33.4201 136.962C33.0992 136.973 32.6107 136.973 32.1073 136.973" stroke="#131313" stroke-width="0.995193" stroke-linecap="round"/>
<path d="M45.2386 134.786C45.7098 134.85 46.0947 135.192 46.5565 135.664C46.8654 135.98 47.0177 136.5 47.0309 137.988C47.0398 138.986 46.3341 139.269 46.0551 139.549C45.6959 139.909 44.9631 139.999 44.2968 140.342C43.7772 140.61 43.2663 140.686 42.4539 140.815C41.4717 140.97 40.6278 141.179 40.0613 141.351C38.6323 141.694 37.4357 141.867 36.2989 141.878C35.8844 141.888 35.7994 141.909 35.5831 141.931" stroke="#131313" stroke-width="0.995193" stroke-linecap="round"/>
<path d="M49.1441 129.517C49.6398 130.535 49.97 131.142 50.3151 131.502C50.7361 131.94 51.7591 132.163 52.8775 132.275C53.1684 132.302 53.4688 132.357 53.6781 132.399C53.8875 132.44 53.9967 132.468 54.2748 132.579" stroke="#131313" stroke-width="0.995193" stroke-linecap="round"/>
<path d="M54.1092 132.575C54.3285 132.63 54.8788 132.959 55.5413 133.607C55.9696 134.026 56.1499 134.503 56.3427 135.042C56.6185 135.812 56.7292 136.379 56.7437 139.638C56.7493 140.919 56.0423 141.84 55.4221 142.544C55.2421 142.751 55.051 142.997 54.9388 143.178C54.8267 143.36 54.7994 143.469 54.6885 143.581" stroke="#131313" stroke-width="0.995193" stroke-linecap="round"/>
<path d="M29.9769 141.103C29.9769 141.356 30.0741 141.984 30.2758 142.452C30.3697 142.669 30.4772 142.811 30.6342 142.978C30.8579 143.216 31.2815 143.371 31.5326 143.43C31.9753 143.535 32.7156 143.411 33.0689 143.352C33.1667 143.335 33.2648 143.342 33.3343 143.366C33.4576 143.409 33.512 143.518 33.6631 143.645C33.9898 143.919 34.4818 144.205 35.2052 144.474C35.6575 144.642 36.3175 144.772 37.5864 144.896C38.8553 145.02 40.722 145.108 42.8746 145.051C45.0271 144.994 47.4091 144.789 49.3896 144.519C51.3701 144.249 52.8771 143.918 53.6679 143.733C54.5667 143.45 54.6751 143.332 54.7579 143.254C54.8309 143.214 54.967 143.176 55.1073 143.136" stroke="#131313" stroke-width="0.995193" stroke-linecap="round"/>
<path d="M9.07823 127.096C9.23383 127.013 10.0017 126.58 10.5 126.367C10.8474 126.218 11.5342 126 12.2936 125.813C12.9589 125.649 13.6225 125.864 13.9862 126.07C14.4896 126.355 14.8058 126.564 15.0843 126.692C15.3164 126.798 15.5788 126.662 16.1056 126.542C16.5341 126.445 17.3012 126.327 17.7546 126.241C18.2081 126.156 18.3275 126.12 18.5084 126.078C18.6893 126.035 18.9282 125.987 20.2036 125.969C21.4789 125.95 23.7837 125.962 25.1023 126.058C26.4209 126.154 26.6836 126.333 27.0267 126.59" stroke="#131313" stroke-width="0.995193" stroke-linecap="round"/>
<path d="M17.4297 120.656C17.5686 120.401 17.9896 119.886 18.5964 119.314C19.2108 118.735 19.3001 118.18 19.4404 117.329C19.6386 116.127 19.3948 115.232 19.278 115.033C18.9756 114.52 18.2056 113.993 17.2343 113.677C16.7168 113.508 16.2167 113.5 15.7144 113.57C15.0796 113.657 15.1623 114.666 15.1377 115.24C15.1321 115.372 15.2072 115.486 15.2889 115.592C15.46 115.813 16.0918 115.886 16.8863 115.839C17.3319 115.813 17.4992 115.512 17.616 115.303C18.0156 114.585 17.5714 113.316 17.2908 112.824C16.7996 111.962 15.217 111.353 14.3334 110.859C13.6897 110.624 12.7356 110.321 11.337 110.006C10.5635 109.853 9.6606 109.715 8.73033 109.571" stroke="#131313" stroke-width="0.995193" stroke-linecap="round"/>
<path d="M20.3243 112.086C20.1192 112.086 19.6712 112.052 19.2759 111.846C18.1484 111.26 17.6561 110.589 17.0371 109.979C16.6226 109.57 16.1081 108.409 15.8895 107.516C15.7777 107.059 15.9319 106.679 16.0435 106.516C16.2782 106.172 17.0816 106.042 18.0648 106.006C18.363 105.995 18.5495 106.161 18.7383 106.349C19.2593 106.87 19.2734 107.417 19.2654 108.251C19.2628 108.514 19.0507 108.658 18.8703 108.787C18.7852 108.848 18.673 108.831 18.535 108.746C17.7586 108.266 17.4494 107.37 17.1562 105.929C16.832 104.335 17.1033 103.183 17.2061 102.883C17.3771 102.463 17.653 101.962 18.0137 101.463C18.2038 101.221 18.4084 100.999 18.6192 100.771" stroke="#131313" stroke-width="0.995193" stroke-linecap="round"/>
<path d="M10.6681 131.945C10.7702 131.962 11.2396 132.167 11.8898 132.368C12.2203 132.471 12.574 132.493 13.9125 132.503C15.2511 132.512 17.5695 132.486 18.887 132.456C20.2045 132.426 20.4508 132.392 21.1679 132.298C21.8849 132.204 23.0654 132.051 23.9707 131.879C24.8761 131.707 25.4705 131.52 25.8065 131.42C26.3096 131.269 26.5364 131.233 26.7511 131.182C26.9665 131.13 27.1548 131.207 27.2362 131.284C27.4143 131.453 27.5741 131.798 27.8963 132.415C27.9905 132.595 28.0893 132.887 28.2649 133.289C28.4888 133.802 28.5015 134.131 28.579 134.607C28.6078 134.784 28.6307 135.244 28.6095 135.989C28.5906 136.651 28.4426 137.133 28.2973 137.493C28.1326 137.9 27.8854 138.24 27.6291 138.552C27.3093 138.942 26.993 139.142 26.8518 139.236C26.6967 139.339 26.3347 139.544 25.6212 139.814C25.2046 139.971 24.6444 140.075 24.0586 140.174C23.4728 140.274 22.8698 140.342 22.3214 140.373C21.773 140.403 21.2974 140.395 20.6873 140.323C20.0771 140.25 19.3468 140.114 18.7879 139.985C18.2291 139.856 17.8639 139.737 17.5697 139.612C17.2754 139.487 17.0631 139.359 16.8093 139.171C16.5556 138.982 16.2669 138.736 15.9525 138.528C15.6382 138.32 15.307 138.159 15.0132 138C14.7194 137.84 14.4732 137.687 14.2614 137.519C14.0496 137.351 13.8797 137.173 13.7158 136.988C13.5519 136.802 13.399 136.616 13.1589 136.26C12.9188 135.905 12.5961 135.387 12.3067 134.899C12.0173 134.412 11.7711 133.97 11.5847 133.573C11.3984 133.175 11.2795 132.836 11.1928 132.563C11.1061 132.29 11.0551 132.095 11.0246 131.965C10.9941 131.834 10.9856 131.775 10.9769 131.714" stroke="#131313" stroke-width="0.995193" stroke-linecap="round"/>
<path d="M10.7705 132.07C10.6598 131.908 10.3176 131.617 9.77353 131.171C9.43477 130.894 9.03109 130.69 8.72241 130.574C8.6142 130.533 8.58357 130.602 8.57044 130.951C8.55732 131.3 8.55732 131.946 8.60827 132.592C8.65923 133.239 8.76114 133.868 8.83487 134.28C8.99127 135.156 9.10624 135.372 9.13184 135.411C9.2002 135.515 9.40501 134.998 9.71807 134.513C10.1259 133.883 10.2985 133.332 10.3412 133.191C10.4009 133.075 10.4614 132.954 10.5297 132.83C10.5726 132.774 10.632 132.732 10.7705 132.662" stroke="#131313" stroke-width="0.995193" stroke-linecap="round"/>
<path d="M27.9742 137.535C27.9419 137.535 27.9037 137.541 27.7716 137.549C27.4625 137.568 27.1115 137.519 26.8134 137.438C26.6606 137.389 26.5045 137.325 26.3596 137.248C26.2147 137.172 26.0855 137.086 25.9525 136.997" stroke="#131313" stroke-width="0.995193" stroke-linecap="round"/>
<path d="M26.2072 134.357C26.1952 134.357 26.1589 134.357 26.0984 134.378C25.9274 134.437 25.9645 134.69 25.9674 134.817C25.9691 134.892 26.0491 134.921 26.1156 134.948C26.2108 134.987 26.3221 134.933 26.3978 134.888C26.4578 134.852 26.4863 134.806 26.4984 134.752C26.5131 134.686 26.5167 134.588 26.5017 134.494C26.4922 134.434 26.3776 134.448 26.2958 134.457C26.244 134.484 26.2134 134.526 26.1952 134.578C26.189 134.605 26.189 134.635 26.189 134.666" stroke="#131313" stroke-width="0.995193" stroke-linecap="round"/>
<path d="M20.3553 136.331C20.8323 136.377 20.9912 136.386 21.0747 136.415C21.0461 136.509 21.0184 136.546 20.9902 136.593C20.9343 136.695 20.8315 136.863 20.4617 137.294C20.1286 137.556 19.7243 138.012 19.3731 138.022C19.0277 138.031 18.5873 138.048 18.0841 137.67C17.803 137.459 17.4654 137.157 17.3373 136.946C17.1785 136.685 17.0629 136.501 17.0436 136.227C17.039 136.161 17.0358 136.088 17.1438 136.078C17.4521 136.05 17.8777 136.116 18.6451 136.186C19.1107 136.229 19.925 136.289 20.3553 136.331Z" stroke="#131313" stroke-width="0.995193" stroke-linecap="round"/>
<path d="M96.7818 135.532C96.7818 135.629 96.7818 135.725 97.2163 139.508C97.6507 143.29 98.5195 150.756 98.967 154.682C99.4146 158.608 99.4146 158.769 99.5121 158.74" stroke="#FF0404" stroke-width="1.23049" stroke-linecap="round"/>
<path d="M96.099 144.598C96.4208 144.405 97.1979 143.983 98.2852 143.431C99.0651 143.036 100.541 142.586 102.714 141.953C104.668 141.384 106.395 141.186 107.886 141.04C108.636 140.966 109.378 140.99 109.904 141.183C110.43 141.376 110.72 141.762 110.885 142.025C111.118 142.397 111.116 143.515 110.955 145.3C110.816 146.834 109.883 147.779 108.817 148.943C108.044 149.787 106.657 151.008 104.851 152.298C103.045 153.588 100.824 154.875 99.5357 155.587C97.9575 156.394 97.5304 156.623 97.255 156.834C97.1082 156.916 96.9473 156.948 96.7816 156.981" stroke="#FF0404" stroke-width="1.23049" stroke-linecap="round"/>
<path d="M97.0743 136.607C97.4605 136.479 98.1099 136.316 100.257 135.928C101.953 135.637 104.881 135.155 106.47 134.89C108.059 134.625 108.22 134.593 108.385 134.56" stroke="#FF0404" stroke-width="1.23049" stroke-linecap="round"/>
<path d="M115.225 140.808C114.711 141.888 114.503 142.646 114.409 143.33C114.272 144.328 114.468 145.394 114.733 146.174C115.14 147.369 115.534 147.717 115.851 148.181C116.363 148.93 116.925 149.213 117.817 149.703C118.342 149.991 118.8 150.005 119.142 150.031C119.687 150.072 120.55 149.972 121.511 149.826C122.763 149.636 123.354 149.097 123.692 148.777C124.013 148.473 124.369 147.946 125.211 146.752C125.961 145.689 126.039 144.541 126.159 143.939C126.395 142.756 126.229 141.669 126.049 141.197C125.678 140.223 124.617 139.574 124.106 139.209C123.961 139.106 123.295 138.833 122.315 138.489C121.792 138.305 121.502 138.281 120.981 138.203C119.098 137.924 118.631 138.229 117.927 138.434C117.513 138.692 117.238 138.898 116.673 139.454C116.332 139.821 115.736 140.485 115.122 141.169" stroke="#FF0404" stroke-width="1.23049" stroke-linecap="round"/>
<path d="M128.016 136.337C128.016 136.643 128.084 137.925 128.213 139.78C128.264 140.512 128.324 140.818 128.64 143.401C128.956 145.985 129.534 150.835 129.841 153.368C130.148 155.901 130.165 155.969 130.182 156.143" stroke="#FF0404" stroke-width="1.23049" stroke-linecap="round"/>
<path d="M128.171 136.119C128.497 135.93 128.975 135.691 130.289 135.184C130.719 135.018 131.312 134.831 132.409 134.668C133.832 134.456 134.857 134.589 135.311 134.708C136.481 135.016 136.816 135.739 137.127 136.537C137.301 136.984 137.248 137.696 137.231 138.444C137.221 138.904 137.06 139.348 136.829 139.991C136.34 141.351 135.823 141.687 134.831 142.416C134.223 142.862 133.025 143.447 132.293 143.823C130.799 144.589 129.892 144.543 129.213 144.663C129.066 144.681 128.981 144.681 128.894 144.689C128.808 144.698 128.723 144.715 128.583 144.733" stroke="#FF0404" stroke-width="1.23049" stroke-linecap="round"/>
<path d="M143.03 131.126C143.03 131.172 143.053 131.491 143.679 133.75C144.228 135.728 145.467 139.332 146.304 141.686C147.142 144.041 147.597 145.02 147.866 145.581C148.455 146.783 148.894 147.729 149.065 148.072C149.169 148.302 149.305 148.643 149.446 149.133" stroke="#FF0404" stroke-width="1.23049" stroke-linecap="round"/>
<path d="M143.099 130.571C142.871 130.777 142.274 131.373 141.824 131.972C141.347 132.608 141.1 132.916 140.354 134.622C139.914 135.63 139.994 136.343 139.983 136.595C139.969 136.894 139.925 137.967 139.937 139.427C139.946 140.579 140.338 141.492 141.027 142.835C141.373 143.512 141.809 143.884 142.418 144.345C143.186 144.927 144.976 144.853 145.925 144.373C146.531 144.066 146.755 143.52 146.893 143.348C146.959 143.264 147.03 143.198 146.508 144.381C145.985 145.564 144.869 148 144.249 149.415C143.497 151.13 143.216 151.977 142.814 152.929C142.64 153.381 142.526 153.768 142.456 154.013C142.386 154.258 142.364 154.349 142.34 154.443" stroke="#FF0404" stroke-width="1.23049" stroke-linecap="round"/>
<path d="M53.8435 131.896C53.7801 131.435 53.801 130.459 53.8275 130.021C53.8423 129.776 54.547 129.205 55.1633 128.667C55.4029 128.458 55.6817 128.344 56.2294 128.16C56.9226 127.926 57.4688 127.9 57.6478 127.889C58.1053 127.862 58.3983 127.815 58.9316 127.81C59.259 127.806 59.5502 127.942 60.1943 128.158C60.5235 128.268 60.7981 128.449 61.1141 128.628C61.8453 129.042 62.067 129.347 62.2313 129.558C62.4282 129.812 62.5535 129.981 62.8177 130.398C62.9905 130.671 63.0825 130.901 63.225 131.265C63.3402 131.559 63.4104 131.852 63.7315 132.874C64.1572 134.228 64.0447 134.474 64.0659 134.759C64.0848 135.012 64.1189 135.204 64.1293 135.33C64.1469 135.542 64.1928 136.025 64.2139 137.182C64.2285 137.983 64.235 139.218 64.2351 139.906C64.2353 140.7 64.2036 140.849 64.1877 140.934C64.1721 141.017 64.13 141.385 64.0402 141.914C63.9316 142.553 63.739 143.311 63.6119 143.845C63.5107 144.27 63.3584 144.643 63.2369 145.039C62.9675 145.916 62.7241 146.134 62.4655 146.488C62.2737 146.751 62.079 146.98 61.8317 147.328C61.4217 147.905 60.8866 147.942 60.4998 148.159C59.919 148.485 59.5749 148.492 59.2782 148.519C59.2144 148.525 59.162 148.535 58.753 148.556C58.3441 148.577 57.5801 148.608 57.108 148.598C56.2556 148.58 56.0331 148.429 55.7421 148.298C55.5479 148.21 55.3144 148.05 55.097 147.88C54.8001 147.649 54.4264 147.373 54.0565 146.883C53.5799 146.251 53.5905 145.862 53.5476 145.56C53.5002 145.226 53.4738 144.952 53.4577 144.588C53.4525 144.487 53.442 144.393 53.4367 144.297C53.4313 144.202 53.4313 144.107 53.4313 144.01" stroke="#131313" stroke-width="1.23049" stroke-linecap="round"/>
<path d="M55.461 132.95C55.5448 132.448 55.7554 131.875 56.0352 131.368C56.2999 130.888 56.8006 130.321 57.3241 129.912C57.9325 129.438 58.5259 129.271 58.6894 129.203C59.0837 129.038 59.5401 128.849 59.8783 128.727C60.3865 128.605 60.5771 128.595 60.74 128.6C60.861 128.615 61.0598 128.657 61.3599 128.7" stroke="#131313" stroke-width="1.23049" stroke-linecap="round"/>
<path d="M56.6346 134.595C56.6346 134.49 56.7184 134.227 56.8661 133.873C56.9595 133.65 57.2664 133.287 57.8249 132.707C58.1165 132.404 58.488 132.148 58.8388 131.924C59.5042 131.499 59.9323 131.318 60.0902 131.228C60.5163 130.987 60.8723 130.895 61.1894 130.821C61.7292 130.736 62.0457 130.694 62.5631 130.615C62.6911 130.599 62.7852 130.599 62.8823 130.599" stroke="#131313" stroke-width="1.23049" stroke-linecap="round"/>
<path d="M56.888 136.403C57.4047 135.918 57.8483 135.643 58.5657 135.311C59.3093 134.966 59.7201 134.976 60.1318 134.892C60.3208 134.853 60.7223 134.85 61.2451 134.865C61.9484 134.886 62.6169 135.092 62.7862 135.14C62.9556 135.209 63.0824 135.272 63.1668 135.346C63.2093 135.378 63.2511 135.399 63.2943 135.42" stroke="#131313" stroke-width="1.23049" stroke-linecap="round"/>
<path d="M57.11 138.462C58.2387 137.945 58.9576 137.754 59.3545 137.68C60.1704 137.528 60.7761 137.869 61.1048 138.023C61.4156 138.168 61.7282 138.345 62.0244 138.535C62.4225 138.792 62.6802 138.874 62.8443 138.98C63.0297 139.099 63.1876 139.307 63.5306 139.571C63.8641 139.878 64.1077 140.111 64.1974 140.227C64.2348 140.28 64.2558 140.322 64.3091 140.365" stroke="#131313" stroke-width="1.23049" stroke-linecap="round"/>
<path d="M56.9195 140.587C57.2256 140.872 57.4155 141.125 57.7533 141.479C58.0146 141.753 58.3029 142.013 58.8836 142.378C59.3777 142.688 60.0478 142.923 60.4961 143.129C60.82 143.277 61.3455 143.303 61.6757 143.409C62.1609 143.473 62.6065 143.463 62.7013 143.447C62.7543 143.441 62.8171 143.441 62.8818 143.41" stroke="#131313" stroke-width="1.23049" stroke-linecap="round"/>
<path d="M55.2392 143.189C55.2075 143.335 55.2493 143.8 55.413 144.276C55.4913 144.504 55.6502 144.751 55.9094 145.138C56.1479 145.493 56.5058 145.798 56.7289 146.047C56.988 146.337 57.4141 146.601 57.9858 146.988C58.3139 147.21 58.6313 147.301 58.948 147.39C59.6782 147.544 60.0787 147.565 60.318 147.591C60.3657 147.597 60.4181 147.597 60.472 147.597" stroke="#131313" stroke-width="1.23049" stroke-linecap="round"/>
<path d="M153.226 124.798L195.053 150.555" stroke="#131313" stroke-width="1.23049" stroke-linecap="round"/>
<path d="M153.389 124.401L173.355 112.749L173.355 81.8996L221.287 102.646L221.287 132.448L195.25 150.979" stroke="#131313" stroke-width="1.23049" stroke-linecap="round"/>
<path d="M173.569 112.536L221.214 132.519" stroke="#131313" stroke-width="1.23049" stroke-linecap="round"/>
<path d="M173.372 81.2582L175.095 80.6183L224.462 100.921" stroke="#131313" stroke-width="1.23049" stroke-linecap="round"/>
<path d="M224.541 100.946C224.541 111.716 224.462 122.726 224.462 133.628" stroke="#131313" stroke-width="1.23049" stroke-linecap="round"/>
<path d="M153.242 124.423L153.242 128.641L194.911 154.599L194.982 150.715" stroke="#131313" stroke-width="1.23049" stroke-linecap="round"/>
<path d="M195.496 155.012L224.413 133.798" stroke="#131313" stroke-width="1.23049" stroke-linecap="round"/>
<path d="M176.153 85.591L176.153 110.348" stroke="#131313" stroke-width="0.738294" stroke-linecap="round"/>
<path d="M176.186 85.5675L219.1 104.655" stroke="#131313" stroke-width="0.738294" stroke-linecap="round"/>
<path d="M219.122 104.708L219.122 128.358" stroke="#131313" stroke-width="0.738294" stroke-linecap="round"/>
<path d="M176.153 110.349L219.097 128.339" stroke="#131313" stroke-width="0.738294" stroke-linecap="round"/>
<path d="M165.251 131.632L170.246 128.556L181.616 135.274" stroke="#131313" stroke-width="0.738294" stroke-linecap="round"/>
<path d="M164.393 131.388L176.891 139.386L181.649 135.229" stroke="#131313" stroke-width="0.738294" stroke-linecap="round"/>
<path d="M162.273 121.716L200 143.077" stroke="#131313" stroke-width="0.738294" stroke-linecap="round"/>
<path d="M162.227 121.695L173.47 114.946" stroke="#131313" stroke-width="0.738294" stroke-linecap="round"/>
<path d="M164.389 122.706L175.633 115.958" stroke="#131313" stroke-width="0.738294" stroke-linecap="round"/>
<path d="M166.85 124.03L178.094 117.282" stroke="#131313" stroke-width="0.738294" stroke-linecap="round"/>
<path d="M169.213 125.359L180.78 118.419" stroke="#131313" stroke-width="0.738294" stroke-linecap="round"/>
<path d="M180.583 131.756L193.281 123.29" stroke="#131313" stroke-width="0.738294" stroke-linecap="round"/>
<path d="M183.24 133.033L195.939 124.568" stroke="#131313" stroke-width="0.738294" stroke-linecap="round"/>
<path d="M185.652 134.318L198.351 125.853" stroke="#131313" stroke-width="0.738294" stroke-linecap="round"/>
<path d="M190.722 137.663L203.667 128.114" stroke="#131313" stroke-width="0.738294" stroke-linecap="round"/>
<path d="M193.084 139.089L206.029 129.54" stroke="#131313" stroke-width="0.738294" stroke-linecap="round"/>
<path d="M195.496 140.222L208.835 130.427" stroke="#131313" stroke-width="0.738294" stroke-linecap="round"/>
<path d="M197.81 141.55L211.444 131.755" stroke="#131313" stroke-width="0.738294" stroke-linecap="round"/>
<path d="M181.124 128.26L190.181 122.255" stroke="#131313" stroke-width="0.738294" stroke-linecap="round"/>
<path d="M198.351 128.8L200.467 127.028" stroke="#131313" stroke-width="0.738294" stroke-linecap="round"/>
<path d="M187.818 136.086L190.722 133.821" stroke="#131313" stroke-width="0.738294" stroke-linecap="round"/>
<path d="M178.466 127.029L187.523 121.025" stroke="#131313" stroke-width="0.738294" stroke-linecap="round"/>
<path d="M176.054 125.85L185.111 119.845" stroke="#131313" stroke-width="0.738294" stroke-linecap="round"/>
<path d="M173.938 124.916L182.994 118.911" stroke="#131313" stroke-width="0.738294" stroke-linecap="round"/>
<path d="M200.049 143.073L214.716 133.032" stroke="#131313" stroke-width="0.738294" stroke-linecap="round"/>
<path d="M173.471 114.946L214.694 132.949" stroke="#131313" stroke-width="0.738294" stroke-linecap="round"/>
<path d="M170.692 116.505L211.615 135.178" stroke="#131313" stroke-width="0.738294" stroke-linecap="round"/>
<path d="M167.602 118.419L207.407 138.058" stroke="#131313" stroke-width="0.738294" stroke-linecap="round"/>
<path d="M164.628 120.091L203.861 140.475" stroke="#131313" stroke-width="0.738294" stroke-linecap="round"/>
<path d="M181.083 91.4503C181.645 91.2414 182.371 91.2152 183.094 91.3908C183.309 91.443 183.939 91.8388 184.808 92.4391C185.278 92.7646 185.33 93.0308 185.362 93.148C185.402 93.2927 185.434 93.6298 185.408 94.08C185.39 94.397 185.148 94.6242 184.875 94.833C184.215 95.3363 183.125 95.2134 182.64 95.2459C182.547 95.2521 182.483 95.2526 182.488 95.2332C182.516 95.1356 182.768 95.1091 183.254 95.0764C184.244 95.0099 184.989 95.1346 185.198 95.2063C185.587 95.3403 185.929 95.5387 186.159 95.7939C186.314 95.9664 186.478 96.7359 186.578 97.2701C186.689 97.8663 186.533 98.6613 186.408 98.9688C186.35 99.1121 186.09 99.4182 185.699 99.8424C185.399 100.167 185.005 100.308 184.433 100.439C184.061 100.524 183.499 100.518 183.044 100.512C182.252 100.501 181.531 100.323 180.743 100.07C179.333 99.4606 178.981 99.1999 178.753 98.978C178.666 98.8855 178.64 98.8338 178.575 98.7805" stroke="#131313" stroke-width="0.738294" stroke-linecap="round"/>
<path d="M187.286 100.74C187.391 100.322 187.521 100.062 187.794 99.443C187.915 99.1711 188.131 98.7876 188.354 98.4324C188.577 98.0773 188.81 97.7668 189.176 97.3482C189.542 96.9296 190.033 96.4121 190.409 96.0421C191.014 95.4472 191.336 95.2389 191.44 95.2517C191.577 95.2684 191.624 95.4604 191.702 95.6552C191.85 96.0244 192.041 96.8531 192.269 97.9421C192.368 98.4489 192.433 98.8628 192.466 99.5353C192.5 100.208 192.5 101.126 192.5 102.033" stroke="#131313" stroke-width="0.738294" stroke-linecap="round"/>
<path d="M188.58 98.4269C189.062 98.5182 189.479 98.6221 189.95 98.7466C190.498 98.884 191.099 99.0141 191.889 99.2036C192.055 99.2497 192.119 99.2885 192.225 99.3677" stroke="#131313" stroke-width="0.738294" stroke-linecap="round"/>
<path d="M195.518 97.2511C195.544 97.6811 195.674 98.1503 195.948 99.2265C196.077 99.7303 196.197 100.098 196.334 100.477C196.372 100.58 196.393 100.698 196.575 101.224C196.756 101.75 197.092 102.681 197.285 103.187C197.478 103.692 197.517 103.744 197.556 103.836" stroke="#131313" stroke-width="0.738294" stroke-linecap="round"/>
<path d="M198.419 98.6222C198.367 98.7257 198.237 98.9084 198.048 99.1561C197.885 99.3691 197.352 99.9503 196.543 100.714C195.795 101.42 195.297 101.561 194.951 101.874C194.526 102.202 194.265 102.384 194.036 102.574C193.99 102.62 193.951 102.659 193.911 102.699" stroke="#131313" stroke-width="0.738294" stroke-linecap="round"/>
<path d="M199.281 104.617C199.307 104.318 199.541 103.511 199.783 102.926C199.877 102.702 200.038 102.307 200.324 101.74C200.839 100.722 201.123 100.528 201.579 100.182C201.681 100.105 201.737 100.071 201.828 100.141C202.093 100.346 202.337 100.955 202.624 101.736C202.771 102.138 202.859 102.57 202.984 103.333C203.108 104.096 203.25 105.183 203.324 105.801C203.397 106.419 203.397 106.535 203.397 106.655" stroke="#131313" stroke-width="0.738294" stroke-linecap="round"/>
<path d="M200.222 103.208C200.365 103.234 200.756 103.312 201.76 103.508C202.351 103.652 202.716 103.73 203.016 103.828C203.135 103.874 203.187 103.913 203.24 103.953" stroke="#131313" stroke-width="0.738294" stroke-linecap="round"/>
<path d="M206.023 101.685C206.023 101.749 206.023 101.814 206.004 102.514C205.984 103.213 205.945 104.545 205.906 105.355C205.867 106.164 205.828 106.41 205.788 107.215C205.749 108.021 205.71 109.379 205.684 110.124C205.654 110.96 205.631 111.183 205.625 111.353C205.618 111.393 205.605 111.342 205.599 111.27C205.592 111.198 205.592 111.107 205.592 111.014" stroke="#131313" stroke-width="0.738294" stroke-linecap="round"/>
<path d="M206.063 101.486C206.347 101.563 206.662 101.681 207.078 101.857C207.641 102.094 208.397 102.411 209.076 102.764C209.437 102.951 209.952 103.273 210.631 103.807C211.311 104.343 211.379 104.75 211.472 105.013C211.507 105.114 211.511 105.235 211.479 105.385C211.373 105.876 210.651 106.123 210.174 106.41C209.83 106.528 209.086 106.581 208.056 106.555C207.569 106.53 207.155 106.478 206.651 106.425" stroke="#131313" stroke-width="0.738294" stroke-linecap="round"/>
<path d="M183.846 102.47C183.818 102.667 183.719 103.417 183.591 104.504C183.514 105.152 183.519 105.584 183.462 106.411C183.42 107.027 183.405 108.042 183.384 108.592C183.362 109.143 183.348 109.199 183.341 109.285C183.334 109.37 183.334 109.483 183.334 109.599" stroke="#131313" stroke-width="0.738294" stroke-linecap="round"/>
<path d="M183.675 102.213C184.21 102.184 184.838 102.17 185.618 102.233C187.197 102.362 187.586 102.823 187.964 103.065C188.527 103.427 188.74 104.088 188.862 104.573C188.886 104.671 188.855 104.744 188.791 104.809C188.728 104.873 188.615 104.929 188.184 105.043C187.752 105.157 187.006 105.326 186.177 105.42C185.349 105.514 184.461 105.528 184.448 105.542C184.434 105.557 185.322 105.571 186.054 105.606C186.786 105.641 187.335 105.698 187.773 105.762C188.525 105.872 188.939 106.012 189.152 106.118C189.405 106.244 189.608 106.48 189.757 106.764C190.072 107.362 189.95 107.916 189.908 108.321C189.846 108.917 188.646 109.098 188.06 109.206C187.527 109.305 186.712 109.242 185.485 109.073C184.796 108.978 184.018 108.622 183.563 108.463C183.008 108.289 182.85 108.246 182.793 108.218C182.792 108.217 182.849 108.246 182.907 108.275" stroke="#131313" stroke-width="0.738294" stroke-linecap="round"/>
<path d="M191.658 105.333C191.658 105.474 191.658 105.603 191.531 106.21C191.416 106.762 191.151 107.802 191.013 108.417C190.781 109.454 190.634 110.11 190.619 110.597C190.61 110.88 192.102 111.094 193.178 111.281C193.336 111.309 193.476 111.351 193.669 111.387C193.861 111.423 194.101 111.451 194.433 111.48" stroke="#131313" stroke-width="0.738294" stroke-linecap="round"/>
<path d="M191.188 108.232C191.415 108.232 191.643 108.26 192.133 108.466C192.525 108.63 193.12 108.828 193.571 108.985C193.649 109.014 193.72 109.028 193.798 109.042C193.877 109.057 193.961 109.071 194.134 109.085" stroke="#131313" stroke-width="0.738294" stroke-linecap="round"/>
<path d="M191.53 105.239C191.969 105.324 192.735 105.608 193.98 106.148C194.26 106.264 194.429 106.306 194.58 106.328C194.73 106.349 194.857 106.349 194.987 106.349" stroke="#131313" stroke-width="0.738294" stroke-linecap="round"/>
<path d="M196.396 106.693C196.396 106.805 196.382 106.92 196.305 107.378C196.11 108.524 195.998 109.522 195.97 109.913C195.95 110.178 195.927 110.419 195.955 110.647C195.966 110.737 196.04 110.762 196.111 110.783C196.804 110.833 197.973 110.89 198.579 110.884C198.687 110.848 198.715 110.778 198.787 110.577" stroke="#131313" stroke-width="0.738294" stroke-linecap="round"/>
<path d="M199.128 107.595C199.086 109.045 198.973 110.035 198.887 110.73C198.784 111.556 198.716 111.834 198.694 112.324C198.673 112.489 198.659 112.857 198.666 113.362C198.673 113.556 198.687 113.627 198.787 113.742" stroke="#131313" stroke-width="0.738294" stroke-linecap="round"/>
<path d="M200.665 108.403C200.665 108.544 200.665 108.685 200.644 109.483C200.623 110.281 200.581 111.732 200.552 112.515C200.507 113.723 200.551 114.379 200.664 114.514C201.146 114.678 202.226 114.906 202.937 114.998C203.197 115.034 203.254 115.048 203.354 115.106" stroke="#131313" stroke-width="0.738294" stroke-linecap="round"/>
<path d="M200.281 111.138C200.563 111.279 200.793 111.408 201.266 111.606C201.654 111.747 202.345 111.973 202.743 112.096C203.14 112.219 203.225 112.233 203.397 112.205" stroke="#131313" stroke-width="0.738294" stroke-linecap="round"/>
<path d="M200.708 108.486C201.412 108.781 202.117 109.077 202.761 109.335C203.969 109.805 204.663 110.079 204.862 110.171C204.948 110.207 205.004 110.221 205.19 110.278" stroke="#131313" stroke-width="0.738294" stroke-linecap="round"/>
<path d="M207.111 110.111C207.111 110.167 207.111 110.223 206.816 111.95C206.52 113.676 205.928 117.071 205.318 120.697" stroke="#131313" stroke-width="0.738294" stroke-linecap="round"/>
<path d="M207.111 109.857C208.177 110.084 208.689 110.226 209.256 110.424C210.037 110.697 210.568 111.08 210.738 111.215C211.172 111.558 211.804 112.173 212.303 113.013C212.447 113.255 212.447 113.47 212.405 113.683C212.313 114.147 211.54 114.281 210.683 114.508C210.136 114.622 209.361 114.735 208.49 114.793C207.619 114.851 206.675 114.851 205.702 114.851" stroke="#131313" stroke-width="0.738294" stroke-linecap="round"/>
<path d="M76.0812 90.6535L89.9588 90.6535L89.9588 97.7185" stroke="#131313" stroke-width="1.23049" stroke-linecap="round"/>
<path d="M76.0812 90.6535C76.0812 90.6535 76.0811 97.7929 76.0813 97.7929L89.8953 97.7929" stroke="#131313" stroke-width="1.23049" stroke-linecap="round"/>
<path d="M90.5265 94.1866C90.7202 94.1135 91.158 94.0652 93.7163 93.7977C96.1623 93.5419 97.713 93.6274 97.8954 93.3844C98.2368 92.9294 98.6135 92.5317 99.2213 92.1659C100.328 91.4995 100.806 91.6283 101.269 91.5676C101.677 91.5141 102.026 91.5793 102.232 91.652C102.993 91.92 103.609 92.9177 103.926 93.2956C104.178 93.5966 104.34 93.9417 104.51 94.1486C104.827 94.5336 105.797 94.188 107.786 94.0769C109.187 94.0886 111.841 94.1369 113.256 94.1738C114.671 94.2107 114.767 94.2348 114.867 94.2597" stroke="#131313" stroke-width="1.23049" stroke-linecap="round"/>
<path d="M115.38 97.993L115.046 90.2277L130.34 90.2277L130.228 97.68L115.38 97.993Z" stroke="#131313" stroke-width="1.23049" stroke-linecap="round"/>
<path d="M161.328 61.0128C161.328 61.3155 161.328 61.7363 160.798 64.4456C160.318 66.9004 159.209 71.5061 158.607 74.0165C158.004 76.5269 157.891 76.7918 157.813 77.0795C157.736 77.3673 157.698 77.67 157.544 77.9819" stroke="#131313" stroke-width="0.738294" stroke-linecap="round"/>
<path d="M155.481 72.016C157.042 71.9013 158.799 72.0526 160.555 72.3582C163.545 72.8784 165.332 73.3895 167.017 73.6395C167.742 73.7725 168.433 73.8883 169.025 73.9456C169.276 73.9651 169.427 73.9651 169.583 73.9651" stroke="#131313" stroke-width="0.738294" stroke-linecap="round"/>
<path d="M156.169 67.091C157.304 67.091 159.288 67.091 161.693 67.1288C164.153 67.3203 166.584 67.4716 168.564 67.7588C169.079 67.8167 169.836 67.8546 170.615 67.8936" stroke="#131313" stroke-width="0.738294" stroke-linecap="round"/>
<path d="M169.125 60.4386C169.087 60.6656 169.049 60.8927 168.538 63.4122C168.026 65.9318 167.043 70.737 166.517 73.5151C165.991 76.2932 165.953 76.8986 165.782 78.0618C165.612 79.225 165.309 80.9276 165.134 81.8804C164.959 82.8332 164.921 82.9845 164.882 83.1405" stroke="#131313" stroke-width="0.738294" stroke-linecap="round"/>
<path d="M181.817 68.5314C181.817 68.486 181.817 68.4406 181.76 68.3946C181.61 68.2728 180.702 68.2337 179.045 68.3241C178.154 68.3727 177.184 68.6868 176.353 68.9401C174.849 69.3983 173.981 69.8136 173.559 70.0762C172.675 70.6249 172.514 71.4615 172.41 71.9554C172.379 72.1015 172.398 72.3084 172.466 72.4817C172.731 73.1548 174.335 73.4105 176.223 73.7312C177.4 73.931 178.555 74.0299 179.894 74.2589C180.506 74.3517 180.982 74.397 181.33 74.4431C181.677 74.4892 181.881 74.5345 182.092 74.5813" stroke="#131313" stroke-width="0.738294" stroke-linecap="round"/>
<path d="M189.07 68.975C188.203 68.975 187.102 68.9296 185.079 68.9402C184.123 68.9453 183.801 69.6377 183.605 70.0048C183.38 70.4246 184.891 71.1708 186.324 71.7562C188.174 72.5124 189.549 73.168 189.983 73.3391C190.482 73.5357 190.765 73.8094 190.834 73.9923C190.867 74.0812 190.857 74.1751 190.823 74.2559C190.625 74.7261 189.532 74.7265 188.335 74.7952C186.212 74.9172 184.672 74.7279 184.226 74.5563C183.985 74.4756 183.713 74.4075 183.516 74.3384C183.319 74.2693 183.206 74.2013 183.02 74.1311" stroke="#131313" stroke-width="0.738294" stroke-linecap="round"/>
<path d="M194.501 70.1491C194.501 70.1037 194.478 69.9669 194.375 69.727C194.12 69.1299 193.064 68.9364 192.154 68.8315C191.756 68.7856 191.113 68.7741 190.449 68.8422C190.123 68.8756 190.147 69.3001 190.112 69.5627C190.069 69.8908 190.237 70.3299 190.511 70.7761C190.737 71.1435 191.334 71.4986 192.531 72.0809C194.404 72.9917 195.896 73.4016 196.263 73.699C196.505 73.8959 196.517 74.1585 196.551 74.4435C196.563 74.6377 196.563 74.9327 195.916 75.0959C195.27 75.2592 193.977 75.2819 192.644 75.3053" stroke="#131313" stroke-width="0.738294" stroke-linecap="round"/>
<path d="M199.038 64.0753C199.015 64.824 198.993 65.5727 198.913 67.6032C198.833 69.6337 198.697 72.9233 198.557 76.3127" stroke="#131313" stroke-width="0.738294" stroke-linecap="round"/>
<path d="M202.338 68.6886C201.334 69.7391 200.141 70.7937 199.556 71.2763C199.176 71.5904 198.947 71.8731 198.946 72.0446C198.946 72.4669 199.812 73.1752 200.73 73.9562C201.028 74.2078 201.436 74.5708 201.715 74.8032C201.993 75.0355 202.129 75.1263 202.338 75.3573" stroke="#131313" stroke-width="0.738294" stroke-linecap="round"/>
<path d="M204.77 70.4816C204.77 70.5723 204.77 70.6631 204.759 71.4925C204.747 72.322 204.725 73.8874 204.633 75.569" stroke="#131313" stroke-width="0.738294" stroke-linecap="round"/>
<path d="M204.908 67.7316L204.908 68.7628" stroke="#131313" stroke-width="0.738294" stroke-linecap="round"/>
<path d="M212.444 64.2902L212.444 76.5275" stroke="#131313" stroke-width="0.738294" stroke-linecap="round"/>
<path d="M212.149 71.837C211.987 71.7556 211.781 71.6934 211.326 71.6676C210.995 71.6489 210.455 71.6724 210.02 71.7285C209.259 71.8265 208.843 72.0114 208.434 72.1643C207.593 72.479 207.024 72.8635 206.896 72.9968C206.676 73.226 206.531 73.49 206.459 73.782C206.382 74.0941 206.509 74.4956 206.642 74.8595C206.762 75.187 206.981 75.4108 207.258 75.6207C207.65 75.9191 208.111 76.0993 208.444 76.2224C208.702 76.3176 209.055 76.377 209.445 76.4386C209.672 76.4595 209.827 76.4697 210.352 76.4851C210.796 76.4904 211.599 76.4904 212.427 76.4904" stroke="#131313" stroke-width="0.738294" stroke-linecap="round"/>
</svg>
