<svg width="239" height="205" viewBox="0 0 239 205" fill="none" xmlns="http://www.w3.org/2000/svg">
<path d="M164.734 95.5096C163.822 100.316 159.125 109.096 147.64 109.461C134.696 109.872 131.069 103.887 129.322 95.5096C127.477 86.6655 134.608 75.1513 147.64 75.8379C161.539 76.5702 166.906 84.0715 164.734 95.5096Z" stroke="#131313" stroke-width="1.1135" stroke-linecap="round"/>
<path d="M124.56 95.5096C123.647 100.316 118.951 109.096 107.465 109.461C94.5215 109.872 90.8939 103.887 89.147 95.5096C87.3029 86.6655 94.433 75.1513 107.465 75.8379C121.365 76.5702 126.731 84.0715 124.56 95.5096Z" stroke="#131313" stroke-width="1.1135" stroke-linecap="round"/>
<path d="M105.798 86.0931C105.743 86.6116 105.524 87.6017 104.88 91.0801C104.688 92.1149 104.425 93.3104 104.192 94.8483C104.014 96.0211 103.847 97.4314 103.682 98.8118C103.555 99.8811 103.38 100.876 103.325 101.095C103.27 101.314 104.847 101.426 107.592 101.454C110.199 101.479 110.688 101.81 110.88 101.838C111.403 101.915 111.128 100.36 111.17 99.6016C111.214 98.7891 111.347 97.8584 111.54 96.2118C111.698 94.8702 111.842 93.4893 111.912 92.7317C112.031 91.433 112.254 89.0658 112.324 88.3214C112.355 87.9913 112.393 87.389 112.27 86.7023C112.121 85.8656 110.858 86.258 110.225 86.1623C109.207 86.0107 108.604 85.9562 106.602 85.5177C106.184 85.4336 106.075 85.4336 105.963 85.4336" stroke="#131313" stroke-width="1.1135" stroke-linecap="round"/>
<path d="M146.091 84.1562C146.072 84.4908 145.973 84.8063 145.787 85.3454C145.643 85.762 145.464 86.4901 145.011 88.8261C144.559 91.162 143.856 95.0891 143.493 97.1512C143.09 99.4465 143.072 100.078 143.013 100.732C142.988 101.009 142.992 101.226 143.091 101.364C143.189 101.502 143.465 101.562 144.376 101.778C145.126 101.955 146.478 102.189 147.857 102.349C149.235 102.509 150.603 102.568 151.346 102.608C152.169 102.652 152.405 102.687 152.651 102.648C152.81 102.623 152.801 101.259 152.86 99.1893C152.9 97.7813 153.077 96.9671 153.185 96.3084C153.328 95.442 153.373 94.6971 153.471 94.2051C153.523 93.9496 153.531 93.6741 153.678 92.566C153.825 91.458 154.098 89.5238 154.259 88.459C154.473 87.0343 154.576 86.6452 154.715 86.1414C154.745 86.034 154.735 85.9537 154.608 85.8451C153.672 85.3415 152.687 85.0254 151.245 84.8972C150.194 84.8472 148.494 84.8276 146.742 84.8075" stroke="#131313" stroke-width="1.1135" stroke-linecap="round"/>
<path d="M120.844 107.766C120.869 107.766 120.893 107.766 122.567 107.766C124.241 107.766 127.563 107.766 129.398 107.79C131.884 107.824 132.278 108.014 132.402 108.1C132.712 108.316 131.882 108.734 131.386 109.39C130.458 110.618 129.921 111.958 129.545 112.81C129.184 113.627 128.354 114.944 127.967 115.767C127.456 116.855 127.358 117.532 127.172 117.918C127.011 118.25 126.613 117.04 126.117 116.383C125.489 115.551 124.602 114.36 123.746 112.984C122.479 110.944 122.064 110.626 121.592 110.03C121.118 109.184 120.771 108.589 120.497 108.078C120.447 107.965 120.422 107.867 120.322 107.766" stroke="#131313" stroke-width="1.1135" stroke-linecap="round"/>
<path d="M122.376 77.7693C122.282 77.5482 121.901 76.978 121.251 76.2944C120.375 75.3733 119.615 75.134 118.17 74.5138C117.388 74.2426 116.69 73.988 115.358 73.7025C115.036 73.6381 114.848 73.6066 114.653 73.5742" stroke="#131313" stroke-width="1.1135" stroke-linecap="round"/>
<path d="M133.15 77.4859C133.34 77.0741 133.909 76.441 135.005 75.7721C135.862 75.2491 136.483 74.8506 139.304 73.5501C140.545 73.1344 141.221 73.0048 141.617 72.9733C141.855 72.9419 142.17 72.8789 142.78 72.7188" stroke="#131313" stroke-width="1.1135" stroke-linecap="round"/>
<path d="M114.356 70.0489C113.962 70.0161 113.233 69.9169 111.577 69.8836C110.052 69.853 107.137 69.9159 105.521 69.9655C102.453 70.0597 100.069 70.3446 99.504 70.4463C99.226 70.4964 99.2708 68.9026 99.5328 67.1003C99.7808 65.3941 101.976 66.0473 103.302 65.9634C104.625 65.8798 105.95 65.8151 107.172 65.7486C107.807 65.7141 109.643 65.5828 112.073 65.632C113.554 65.6619 113.991 66.0126 114.222 66.1277C114.455 66.7708 114.488 67.533 114.538 68.0595C114.554 68.4222 114.554 68.979 114.554 69.5526" stroke="#131313" stroke-width="1.1135" stroke-linecap="round"/>
<path d="M140.606 65.536C140.606 66.3687 140.541 68.2215 140.41 69.0064C140.362 69.2896 140.278 69.5122 140.294 69.708C140.33 70.1575 141.488 69.9609 142.782 70.0034C143.097 70.0137 143.324 70.0449 145.26 70.1563C147.195 70.2676 150.832 70.4617 152.804 70.5756C154.775 70.6894 154.97 70.7172 155.119 70.676C155.268 70.6348 155.365 70.5239 155.415 70.3974C155.633 69.8494 155.564 69.2635 155.727 68.4522C155.907 67.5592 156.219 66.5737 156.237 66.3221C156.273 65.7827 154.912 65.9847 153.345 65.8587C150.269 65.6114 147.891 65.6486 147.318 65.5646C146.296 65.4146 144.587 65.452 143.251 65.3822C142.366 65.3602 141.463 65.3344 140.606 65.3047" stroke="#131313" stroke-width="1.1135" stroke-linecap="round"/>
<path d="M127.064 118.909C127.064 118.933 127.064 119.493 127.074 120.366C127.081 121.008 127.526 121.388 128.046 121.845C128.324 122.089 128.798 122.302 129.885 122.694C130.341 122.857 131.167 122.845 132.178 122.828C133.33 122.807 133.774 122.533 134.171 122.406C134.79 122.208 135.646 121.811 136.071 121.445C136.456 121.112 136.553 120.812 136.727 120.547C136.804 120.439 136.882 120.211 136.94 119.743C136.959 119.455 136.959 119.061 136.959 118.656" stroke="#131313" stroke-width="1.1135" stroke-linecap="round"/>
<path d="M127.297 118.847C127.297 119.012 127.258 119.291 127.228 119.699C127.203 120.044 127.14 120.476 127.052 120.75C126.917 121.169 126.728 121.47 126.572 121.693C126.269 122.125 125.555 122.527 124.878 122.795C124.319 123.016 123.127 123.063 121.783 123.07C120.864 123.075 120.418 122.809 120.006 122.663C119.511 122.487 119.143 122.122 118.742 121.721C117.999 120.981 118.084 120.188 117.966 119.772C117.946 119.437 117.965 119.141 118.034 118.957C118.082 118.861 118.16 118.76 118.24 118.656" stroke="#131313" stroke-width="1.1135" stroke-linecap="round"/>
<path d="M96.2011 112.416C95.9093 112.105 95.5066 111.959 95.186 111.867C95.0875 111.839 94.9583 111.83 94.1858 111.821C93.4133 111.812 91.999 111.812 90.9894 111.866C88.6708 111.991 88.2178 112.434 87.8967 112.544C87.4145 112.709 86.8816 113.329 86.5047 114.052C86.2682 114.506 86.3662 114.961 86.3934 115.189C86.4353 115.541 87.2585 115.729 88.6596 116.06C89.1388 116.173 89.5507 116.207 90.9501 116.334C92.1293 116.442 94.2715 116.498 95.6275 116.491C98.157 116.476 98.5439 116.061 98.9466 115.86C99.4803 115.594 99.7164 114.982 99.7908 114.442C99.8172 114.251 99.7186 113.996 99.618 113.82C99.3072 113.276 98.7307 113.205 97.8071 112.83C97.3016 112.563 96.4445 112.289 95.3486 112.097C94.7786 112.032 94.1803 112.032 93.5638 112.032" stroke="#131313" stroke-width="1.1135" stroke-linecap="round"/>
<path d="M163.191 111.188C162.295 111.188 161.784 111.224 159.984 111.361C158.843 111.448 157.903 111.681 156.768 111.864C155.783 112.023 154.952 112.413 154.404 112.633C153.878 112.844 153.504 112.872 153.367 113C152.936 113.4 153.1 114.242 153.182 114.846C153.282 115.586 154.815 115.692 155.734 115.766C155.937 115.782 156.154 115.82 157.3 115.839C158.445 115.858 160.512 115.858 161.686 115.84C162.859 115.821 163.077 115.785 163.57 115.748C164.063 115.712 164.824 115.675 165.697 115.575C167.537 115.364 168.72 115.071 169.059 114.934C169.284 114.843 169.417 114.65 169.536 114.44C169.737 114.086 169.675 113.752 169.629 113.597C169.502 113.162 168.871 113.093 167.975 112.709C167.3 112.42 166.638 112.214 165.44 111.912C165.028 111.829 164.502 111.757 163.089 111.71C161.676 111.664 159.391 111.646 157.038 111.627" stroke="#131313" stroke-width="1.1135" stroke-linecap="round"/>
<path d="M133.24 52.332C132.445 52.8069 129.898 55.0373 128.208 56.1661C126.588 57.248 125.888 58.0847 125.356 58.4589C123.761 59.5795 124.767 53.2929 124.316 53.0531C123.681 52.7153 121.531 53.3937 118.499 54.1387C114.55 55.1089 113.366 55.4754 111.025 56.3252C109.202 56.987 108.09 57.4452 106.199 58.299C105.804 58.4774 105.739 57.5587 105.555 56.9991C105.371 56.4428 103.67 57.5475 102.175 58.4573C99.0972 60.3305 97.2173 61.2824 95.6991 62.7974C93.6605 64.8317 93.1658 68.4645 92.7892 70.4471C92.5487 71.7136 92.523 73.2195 92.2304 73.7568C91.5983 74.9174 91.5093 71.7358 90.8994 70.3248C90.62 69.6785 90.3374 69.2288 90.1519 68.9882C89.4407 68.0655 88.9512 71.5663 88.4483 73.2131C87.6451 75.8436 86.7703 78.7548 86.1044 80.6191C85.5879 82.065 84.8517 84.0822 84.5015 85.6635C84.1375 87.3077 84.1546 88.834 83.7301 90.7502C83.4011 92.2353 83.2496 93.3108 83.0626 94.9848C82.9654 95.8544 83.0354 97.3367 82.9299 98.045C82.8243 98.7533 82.6133 98.6478 82.4254 98.3824C81.8634 97.0489 81.7035 96.3566 81.5972 95.8514C81.5436 95.61 81.4909 95.3989 81.4365 95.0216" stroke="#131313" stroke-width="1.1135" stroke-linecap="round"/>
<path d="M133.359 52.6928C133.836 53.4315 135.323 56.1975 136.102 57.4862C136.369 57.9275 136.715 58.2872 137.034 58.3424C138.281 58.558 137.622 56.108 137.729 53.529C137.753 52.9595 137.887 52.7504 138.047 52.6153C138.207 52.4802 138.418 52.4274 138.764 52.4002C139.583 52.3359 142.713 54.0087 147.106 56.6452C150.84 58.8865 152.488 59.5647 153.448 60.2051C154.705 61.0435 157.011 62.6537 158.716 63.2157C159.285 63.403 159.366 62.7752 159.367 62.3723C159.37 60.9533 159.155 59.6798 159.127 59.0091C159.03 56.7551 163.623 63.4467 164.534 64.9449C166.033 67.4095 166.612 69.3146 167.279 70.939C168.184 73.1428 168.637 75.3263 168.88 76.8852C168.971 77.467 169.067 78.006 169.252 78.2994C169.649 78.9269 171.296 77.7949 172.841 77.9004C173.393 77.9381 173.436 78.217 173.464 78.5104C173.584 79.8143 173.651 80.8807 174.234 83.1943C174.815 85.4962 175.352 89.6457 175.94 92.9209C176.574 96.447 176.794 97.6144 176.928 98.7903C177.04 99.7769 178.655 96.3481 179.537 95.0674C179.725 94.746 179.883 94.4295 180.07 94.1345C180.257 93.8395 180.468 93.5757 180.846 92.9841" stroke="#131313" stroke-width="1.1135" stroke-linecap="round"/>
<path d="M135.398 35.4228C135.149 35.0068 132.653 33.3388 130.23 32.2415C129.75 32.0238 129.249 31.7827 127.624 31.3019C125.998 30.8211 123.261 30.116 121.643 29.6697C118.787 28.882 117.471 28.3864 114.544 27.4864C113.39 27.1315 112.732 27.1269 112.398 27.1062C112.229 27.0957 112.064 27.044 112.165 27.2715C112.881 28.8825 114.897 30.4227 117.225 32.5035C119.853 34.8515 121.192 35.2946 122.238 36.0902C122.481 36.2752 122.657 36.3429 122.639 36.4478C122.484 37.3398 120.073 36.9311 116.181 37.3899C115.071 37.5208 113.913 37.8512 111.763 38.393M90.4222 56.495C89.7492 57.3028 88.4758 58.2113 87.3238 59.6757C86.27 61.0153 85.8764 62.0651 85.1851 63.1763C84.6585 64.0227 84.7854 64.6243 84.5975 64.7512C83.9225 65.2073 84.1142 63.3724 83.739 61.3656C83.6574 60.9294 83.4882 60.8157 83.3412 60.7724C83.1941 60.729 83.0282 60.7705 82.8805 60.8748C82.5672 61.0961 82.3557 61.6063 82.105 62.2537C81.8118 63.0104 81.2697 65.5268 80.5577 68.8143C80.1331 70.7745 80.009 71.7009 79.9455 72.5833C79.852 73.8826 79.7576 75.3863 79.3604 77.0002C79.1023 78.0489 79.0864 78.8278 79.0657 79.2451C79.0365 79.8309 78.9192 82.4931 78.7734 86.054C78.7226 87.2955 78.5032 87.3751 78.0444 87.4178C77.5856 87.4606 76.839 87.4606 76.4543 87.8754C74.7078 89.7588 76.7786 92.1037 77.2412 92.9886C77.4467 93.3818 77.7867 93.6598 77.9954 93.932C78.6653 94.1639 79.4182 94.414 79.9644 94.8747C80.0907 95.001 80.2151 95.1254 80.3433 95.2537" stroke="#131313" stroke-width="1.1135" stroke-linecap="round"/>
<path d="M135.53 34.8626C135.79 35.0721 136.838 34.9698 139.351 34.2105C142.836 33.1575 143.299 32.4479 143.718 32.3952C143.927 32.3688 144.137 32.4464 144.244 32.915C144.795 35.3235 143.984 36.0157 143.879 36.4346C143.775 36.8536 148.919 37.3789 154.133 37.6656M176.598 60.1304C178.728 61.7444 181.043 63.3634 181.969 64.3416C182.284 64.674 182.416 65.1559 182.444 65.419C182.479 65.7569 181.476 65.263 180.821 65.367C180.239 65.4592 180.003 66.101 179.82 66.52C179.643 66.9222 179.998 68.0368 180.809 69.8176C182.649 73.8546 184.829 76.7017 185.695 78.2249C187.025 80.5655 187.403 82.2148 187.667 83.3733C187.727 83.6356 187.772 83.897 187.694 84.0829C187.617 84.2688 187.409 84.3727 187.094 84.4263C185.687 84.6655 184.836 83.5379 184.126 83.2197C182.823 82.6354 184.095 87.6711 184.072 92.5981C184.057 95.8442 183.205 96.5533 183.049 96.7132C182.627 95.7947 181.948 94.1201 180.946 93.0289" stroke="#131313" stroke-width="1.1135" stroke-linecap="round"/>
<path d="M180.207 94.6055C180.425 94.8761 180.535 97.1577 180.698 98.9201C180.836 100.407 181.027 101.816 181.163 104.648C182.249 127.231 154.989 134.114 136.857 135.09C133.582 135.267 127.3 135.227 123.876 135.228C120.452 135.229 120.073 135.175 118.551 135.147C114.379 135.071 111.375 135.065 110.504 134.956C107.725 134.608 106.511 134.627 105.444 134.355C104.191 134.035 101.112 133.538 99.1041 133.234C96.82 132.888 93.1435 131.74 90.3018 130.612C88.035 129.712 87.1009 129.054 86.1159 128.261C85.048 127.401 83.1709 124.694 82.1236 123.285C81.4217 122.341 81.0845 120.856 80.6736 119.841C80.2823 118.875 80.2086 117.631 80.1258 115.445C80.0652 113.845 79.8248 108.538 80.0151 105.274C80.1627 102.74 80.4251 101.665 80.617 100.461C80.6991 98.4895 80.8631 97.7252 80.9722 97.1249C81.0271 96.8493 81.0812 96.6328 81.301 96.0817" stroke="#131313" stroke-width="1.1135" stroke-linecap="round"/>
<path d="M112.064 38.1775C111.763 37.6393 106.963 33.2197 103.107 30.8871C101.393 29.8506 100.242 29.2283 97.6934 27.9974C94.5368 26.4728 92.52 26.1579 90.9318 25.6757C90.3591 25.5018 89.5937 25.3127 88.6819 25.4319C87.4356 25.5948 86.3717 28.365 85.6041 30.544C85.0085 32.2348 84.601 34.0938 84.4166 35.5712C84.1784 37.4805 83.9913 38.432 83.8991 42.0948C83.7711 47.1826 85.1889 54.0253 87.5229 58.6437" stroke="#131313" stroke-width="1.1135" stroke-linecap="round"/>
<path d="M91.1548 32.7344C93.903 33.5955 94.5232 33.8869 95.221 34.2085C96.1046 34.6159 97.2857 35.3495 98.1539 35.8944C99.1339 36.5095 99.803 37.0761 100.126 37.3705C100.475 37.6896 100.813 37.9756 101.225 38.3322C101.651 38.7013 101.931 38.8917 102.251 39.2117C103.003 39.9642 103.269 40.2476 103.471 40.6326C103.526 40.7249 103.58 40.7975 103.645 40.8621C103.709 40.9267 103.782 40.9812 103.857 41.0922" stroke="#131313" stroke-width="1.1135" stroke-linecap="round"/>
<path d="M95.8282 34.5C95.281 34.627 94.6196 34.9575 93.6744 35.3578C92.8472 35.7081 91.2775 36.2661 90.3829 36.6106C89.2997 37.0277 89.0473 37.1756 89.0008 37.2578C88.9748 37.3038 89.154 37.3582 90.3535 37.5314C91.553 37.7046 93.8212 37.9949 95.0622 38.1626C96.6917 38.3828 96.9455 38.4221 97.0827 38.4859C97.1544 38.5193 97.2017 38.6041 97.2116 38.6778C97.2591 39.0316 96.8553 39.4102 96.4531 40.1605C96.2776 40.4879 96.0311 40.9301 95.6844 41.7334C95.2031 42.8485 94.7295 43.626 94.5374 43.946C94.1846 44.5335 93.6144 45.6907 93.199 46.7588C92.906 47.5123 92.8039 48.3367 92.7855 48.4942C92.7539 48.7642 93.5308 47.464 94.5563 46.5573C94.9565 46.2034 95.1463 46.1042 95.6662 45.7215C96.1861 45.3388 97.0389 44.6856 97.5781 44.2402C98.6559 43.3498 98.7413 42.8777 98.8155 42.5013C98.8798 42.1754 99.0525 43.6211 99.2367 44.2677C99.3293 44.5926 99.5837 44.9814 100.051 45.5775C100.421 46.049 100.702 46.2846 101.041 46.3404C101.533 46.4213 101.784 45.462 102.114 44.8855C102.224 44.6559 102.298 44.4717 102.398 44.3342C102.462 44.2875 102.553 44.2875 102.646 44.2875" stroke="#131313" stroke-width="1.1135" stroke-linecap="round"/>
<path d="M106.48 41.3753C106.024 41.2078 105.319 40.9934 103.801 40.6954C103.425 40.6216 103.21 40.6408 103.1 41.4816C102.991 42.3224 102.991 44.004 102.999 44.9005C103.007 45.858 103.052 45.9807 103.052 46.1029C103.053 46.4064 102.458 46.5463 101.884 46.7915C101.286 47.0467 100.56 47.3727 99.6461 47.7613C99.0862 47.9994 98.1443 48.5268 97.539 48.8828C96.4269 49.6992 96.2134 49.9586 96.007 50.1955C95.9219 50.296 95.8764 50.3566 95.7378 50.5109" stroke="#131313" stroke-width="1.1135" stroke-linecap="round"/>
<path d="M154.186 37.9051C154.719 36.702 155.883 35.2679 158.172 33.3324C159.938 31.8397 163.558 29.3195 165.539 27.8841C167.808 26.2402 168.549 25.9559 169.286 25.6659C171.542 24.7786 174.236 23.4034 174.593 23.5363C176.424 24.2176 176.967 27.4719 177.658 30.2622C178.11 32.0855 178.355 32.7543 178.467 34.3381C178.587 36.0453 178.534 37.2767 178.601 39.5835C178.663 41.7124 178.624 45.7897 178.602 48.0006C178.572 50.9311 178.267 52.0872 177.508 55.8832C177.014 58.2599 176.655 60.7722 176.499 61.5322C176.431 61.849 176.387 62.0263 176.341 62.3432" stroke="#131313" stroke-width="1.1135" stroke-linecap="round"/>
<path d="M172.965 28.4531C171.846 29.1487 171.303 29.5101 170.697 29.98C170.034 30.4943 168.136 32.0127 166.552 33.3684C165.972 33.8647 165.461 34.3827 164.991 34.8231C164.444 35.3357 163.886 36.108 163.447 36.8499C163.077 37.4761 162.586 38.5561 162.161 39.2721C162.069 39.4088 161.98 39.5586 161.918 39.6957C161.857 39.8328 161.827 39.9527 161.705 40.3486" stroke="#131313" stroke-width="1.1135" stroke-linecap="round"/>
<path d="M167.449 33.0713C167.458 33.0713 167.791 33.0226 169.003 32.9244C169.96 32.8469 171.619 32.8262 172.545 32.8206C173.821 32.8129 173.994 32.9727 174.123 33.0561C174.153 33.0757 174.114 33.1392 174.074 33.1741C173.991 33.2483 173.78 33.3265 173.534 33.4592C173.354 33.5568 173.16 33.6319 171.964 34.1542C170.88 34.6278 168.81 35.4854 167.726 35.9468C166.642 36.4083 166.603 36.4375 166.597 36.477C166.585 36.5674 166.866 36.7128 167.473 36.9579C167.863 37.115 168.432 37.3005 169.176 37.5958C169.92 37.8912 170.827 38.281 171.352 38.5257C172.008 38.831 172.251 39.0264 172.775 39.4028C173.172 39.6882 173.795 40.2178 174.443 40.825C175.091 41.4322 175.735 42.1144 176.081 42.5C176.427 42.8856 176.456 42.9538 176.471 43.0084C176.486 43.0631 176.486 43.102 176.437 43.1319C176.388 43.1617 176.291 43.1812 175.861 43.1035C175.43 43.0258 174.67 42.8504 173.596 42.531C172.522 42.2116 171.158 41.7535 170.411 41.4883C169.343 41.109 169.064 40.9668 169 40.986C168.955 40.9992 168.965 41.1221 169.106 41.7473C169.247 42.3726 169.54 43.5226 169.768 44.6072C169.997 45.6918 170.153 46.6762 170.233 47.3489C170.313 48.0217 170.313 48.3531 170.294 48.5238C170.274 48.6945 170.235 48.6945 170.142 48.6506C169.895 48.5343 169.635 48.38 168.995 48.0332C168.466 47.7465 167.546 47.1895 167.011 46.8596C166.475 46.5297 165.234 45.8216 164.555 45.3718" stroke="#131313" stroke-width="1.1135" stroke-linecap="round"/>
<path d="M156.982 40.7224C157.298 40.6909 157.602 40.6589 159.008 40.635C160.272 40.6135 162.655 40.6268 163.882 40.6742C165.109 40.7215 165.109 40.8161 165.101 40.8965C165.074 41.1759 164.65 42.3057 164.361 43.0161C164.261 43.2608 164.121 43.5094 164.026 43.8285C164.009 43.9875 163.994 44.1634 163.97 44.3462C163.962 44.4344 163.962 44.5133 163.962 44.5946" stroke="#131313" stroke-width="1.1135" stroke-linecap="round"/>
<path d="M163.961 44.5938C164.245 45.3036 164.529 46.0135 164.944 46.7105C165.358 47.4075 165.895 48.0701 166.242 48.4745C166.712 49.0221 167.004 49.2929 167.495 49.8159C168.459 50.749 169.171 51.3815 169.354 51.4847C169.442 51.5406 169.521 51.6037 169.746 51.7644" stroke="#131313" stroke-width="1.1135" stroke-linecap="round"/>
<path d="M121.364 136.27C121.364 136.634 121.364 136.998 121.312 141.167C121.26 145.336 121.156 153.298 121.049 161.501" stroke="#131313" stroke-width="1.1135" stroke-linecap="round"/>
<path d="M131.141 135.797C131.351 137.267 131.457 137.897 132.029 140.867C132.563 143.636 133.747 148.936 134.388 151.775C135.502 156.077 136.082 158.502 136.213 159.079C136.292 159.344 136.396 159.552 136.503 159.925" stroke="#131313" stroke-width="1.1135" stroke-linecap="round"/>
<path d="M158.423 131.223C159.89 131.798 162.508 132.951 163.861 133.769C165.004 134.461 166.04 135.108 167.198 136.16C168.009 136.898 168.932 137.631 170.167 138.787C171.09 139.999 171.824 140.891 172.376 141.599C172.615 141.943 172.771 142.255 172.931 142.577" stroke="#131313" stroke-width="1.1135" stroke-linecap="round"/>
<path d="M101.336 133.906C100.026 133.906 98.5578 134.323 96.1151 135.244C94.9711 135.675 93.7228 136.215 91.5931 137.868C90.8811 138.527 90.2488 139.211 89.5407 140.154C89.1969 140.681 88.8847 141.305 88.563 141.949" stroke="#131313" stroke-width="1.1135" stroke-linecap="round"/>
<path d="M116.119 145.515C115.753 145.65 115.591 145.893 115.204 146.537C115.007 146.866 114.993 147.197 114.986 147.914C114.981 148.353 115.356 148.999 115.806 149.504C116.012 149.736 117.316 149.736 118.052 149.635C118.49 149.575 118.548 149.072 118.812 148.517C118.964 148.199 118.956 147.85 119.003 147.371C119.126 146.132 118.943 145.828 118.733 145.428C118.55 145.079 117.524 145.026 116.894 145.073C116.699 145.088 116.527 145.162 116.385 145.216C116.283 145.323 116.187 145.514 116.086 145.724C116.038 145.813 115.998 145.867 115.875 146.003" stroke="#131313" stroke-width="1.1135" stroke-linecap="round"/>
<path d="M117.178 157.558C117.029 157.558 116.759 157.639 116.075 157.903C115.695 158.05 115.482 158.141 115.204 158.29C114.963 158.42 114.804 158.845 114.559 159.483C114.439 159.795 114.464 160.027 114.463 160.921C114.463 161.286 114.679 161.574 115.194 162.13C115.55 162.515 116.023 162.404 116.43 162.437C116.783 162.467 117.296 162.189 117.801 161.76C118.131 161.48 118.181 161.035 118.358 160.627C118.521 160.252 118.562 159.894 118.596 159.4C118.657 158.51 118.346 158.048 118.129 157.763C117.803 157.333 117.559 157.192 117.254 157.117C117.139 157.11 116.978 157.11 116.841 157.144C116.704 157.177 116.597 157.244 116.486 157.314" stroke="#131313" stroke-width="1.1135" stroke-linecap="round"/>
<path d="M122.881 135.879C122.95 136.136 123.12 136.717 123.31 137.191C123.626 137.981 123.877 138.642 124.203 139.346C124.553 140.102 124.598 140.55 124.702 140.825C124.758 140.976 124.908 141.066 125.062 141.118C125.632 141.308 126.827 141.238 127.551 141.281C127.757 141.293 128.046 141.29 128.237 141.213C128.789 140.993 128.653 140.314 128.696 139.738C128.773 138.7 128.876 138.114 129.047 137.616C129.17 137.26 129.22 136.877 129.314 136.55C129.34 136.464 129.357 136.379 129.374 136.301C129.391 136.223 129.408 136.155 129.477 135.93" stroke="#131313" stroke-width="1.1135" stroke-linecap="round"/>
<path d="M125.114 141.211C124.893 141.918 124.627 142.762 124.438 143.25C124.225 143.801 123.829 145.02 123.573 145.768C123.283 146.613 123.052 147.11 122.973 147.533C122.94 147.71 122.939 147.888 123.016 148.076C123.208 148.543 123.648 148.995 124.179 150.244C124.981 152.134 125.512 153.611 125.634 154.01C125.8 154.552 126.044 155.162 126.355 156.183C126.796 157.635 127.242 158.976 127.443 159.603C127.599 160.091 127.775 160.666 127.931 161.112C128.078 161.532 128.176 159.437 128.253 158.355C128.318 157.441 128.485 156.282 128.652 155.373C128.802 154.553 128.908 153.749 129.372 151.327C129.595 150.163 129.884 149.157 130.028 148.679C130.139 148.308 130.283 147.914 130.527 147.248C130.734 146.682 130.195 146.027 129.985 145.672C129.765 145.3 129.508 144.896 129.275 144.474C128.878 143.758 128.643 143.123 128.498 142.666C128.465 142.565 128.421 142.456 128.387 142.355C128.353 142.255 128.331 142.167 128.309 142.076" stroke="#131313" stroke-width="1.1135" stroke-linecap="round"/>
<path d="M115.152 135.309C115.003 135.631 114.754 136.127 114.48 136.714C114.233 137.243 113.907 137.598 113.807 137.997C113.782 138.097 113.757 138.196 113.819 138.296C114.116 138.782 114.751 138.645 115.348 138.758C116.287 138.934 117.565 139.367 118.064 139.517C118.62 139.684 119.01 140.065 119.458 140.264C120.107 140.588 120.406 140.738 120.604 140.862C120.705 140.936 120.803 141.035 120.905 141.211" stroke="#131313" stroke-width="1.1135" stroke-linecap="round"/>
<path d="M137.716 135.008C137.989 135.231 138.486 135.579 139.183 136.114C139.795 136.584 140.229 136.949 140.678 137.261C140.82 137.359 141.024 137.447 141.114 137.547C141.203 137.647 141.178 137.745 141.079 137.846C140.369 138.564 138.964 138.618 137.387 139.115C136.021 139.545 134.784 140.334 134.057 140.822C133.808 140.984 133.533 141.208 133.26 141.469C133.134 141.582 133.036 141.656 132.785 141.882" stroke="#131313" stroke-width="1.1135" stroke-linecap="round"/>
<path d="M99.8618 6.74609C99.8578 6.80187 99.9132 7.19921 100.069 7.97289C100.24 8.82385 100.557 10.0448 101.041 12.6988C101.381 14.5661 102.045 17.465 102.529 19.4776C103.266 22.539 103.679 23.6995 103.732 23.9433C103.811 24.217 103.942 24.7633 104.078 25.4239C104.131 25.686 104.151 25.7995 104.159 26.0856" stroke="#FF0404" stroke-width="1.1135" stroke-linecap="round"/>
<path d="M99.3547 6.71156C99.9263 6.58373 101.245 6.33991 103.057 6.13033C105.027 5.90237 107.485 5.43074 108.058 5.37137C108.715 5.29178 109.203 5.21309 109.499 5.22042C109.655 5.21769 109.824 5.20187 109.999 5.18557" stroke="#FF0404" stroke-width="1.1135" stroke-linecap="round"/>
<path d="M112.596 4.52344C112.588 4.635 112.625 4.89172 112.798 6.19676C112.945 7.30067 113.149 9.30887 113.295 10.4709C113.536 12.387 113.582 13.2275 113.672 14.5215C113.708 15.0391 114.082 16.8478 114.411 19.3488C114.604 21.0303 114.841 22.4661 114.886 23.2195C114.885 23.4327 114.869 23.6558 114.852 23.8857" stroke="#FF0404" stroke-width="1.1135" stroke-linecap="round"/>
<path d="M112.168 4.55294C112.433 4.37497 113.183 4.20133 113.93 4.04368C114.492 3.92503 115.299 3.87318 117.028 4.011C119.013 4.16931 119.517 4.7143 119.955 4.92982C120.37 5.13396 121.092 5.98328 121.901 7.58519C122.515 8.80284 122.108 10.4418 121.068 12.3662C120.082 14.1902 118.324 14.3112 117.361 14.6534C116.616 14.7844 115.641 14.9401 114.369 15.1317C114.094 15.1691 113.98 15.189 113.694 15.1972" stroke="#FF0404" stroke-width="1.1135" stroke-linecap="round"/>
<path d="M125.209 3.96094C125.265 3.96496 125.199 5.27784 125.064 7.34859C124.968 8.81221 125.011 9.83395 124.992 10.6957C124.977 11.3653 125.03 11.9302 125.036 12.4421C125.042 12.9554 125.085 13.5212 125.084 14.3264C125.082 15.5692 125.152 16.5232 125.136 17.7275C125.117 19.1306 125.238 19.6488 125.294 20.2471C125.336 20.6949 125.303 21.0986 125.443 21.307C125.507 21.4021 125.679 21.3542 125.797 21.3062C126.571 20.9903 127.163 19.6517 127.573 18.8738C128.038 17.9905 128.502 16.8021 129.201 15.7083C130.16 14.211 130.91 12.0486 131.127 11.6106C131.583 10.6899 132.162 8.43654 132.374 7.48254C132.629 6.33824 132.765 5.9799 132.892 5.3982C132.953 4.95193 133.008 4.19891 132.795 6.94756C132.583 9.69621 132.102 15.9693 131.607 22.4326" stroke="#FF0404" stroke-width="1.1135" stroke-linecap="round"/>
<path d="M137.114 3.80003C137.087 4.16513 137.033 4.52906 136.785 7.56909C136.549 10.4696 136.195 16.1353 136.008 19.1236C135.812 22.2518 135.877 22.5127 135.962 22.7028C136.003 22.7944 136.136 22.8152 137.464 22.8973C138.791 22.9795 141.333 23.1067 142.698 23.1903C144.541 23.3032 145.262 23.5023 145.848 23.615C147.208 23.8769 148.34 23.9791 148.929 24.0921C149.069 24.1189 149.237 24.1288 149.413 22.88C149.59 21.6311 149.771 19.1211 149.844 17.7284C149.926 16.1383 149.857 15.5686 149.89 14.9207C149.961 13.5095 149.911 11.6927 149.915 11.0409C149.921 10.05 149.933 9.0335 149.936 8.39403C149.931 8.26541 149.912 8.15184 149.942 7.53554C149.972 6.91925 150.052 5.80367 150.135 4.65428" stroke="#FF0404" stroke-width="1.1135" stroke-linecap="round"/>
<path d="M143.455 5.41016C143.447 5.52171 143.354 6.80632 143.182 9.58799C143.085 11.1418 143.021 12.9872 142.99 14.0083C142.959 15.0293 142.977 15.1708 142.927 16.2626C142.876 17.3545 142.757 19.3924 142.705 20.513C142.679 22.0603 142.678 22.4569 142.702 22.7127C142.707 22.8549 142.694 23.0222 142.767 23.2007" stroke="#FF0404" stroke-width="1.1135" stroke-linecap="round"/>
<path d="M152.655 25.1138C152.753 24.6339 152.851 24.154 153.13 22.3459C153.41 20.5378 153.868 17.416 154.33 15.0301C154.791 12.6441 155.242 11.0887 155.523 10.1956C155.866 9.10695 156.32 8.06356 156.93 6.55902C157.588 4.93583 158.162 4.78814 158.567 4.35796C158.661 4.25814 158.757 4.23184 158.851 4.26973C159.34 4.46728 159.764 5.64415 160.21 6.4825C160.768 7.53261 161 8.43195 161.271 9.41165C161.569 10.4912 161.666 11.3685 161.768 11.8654C161.93 12.6488 161.958 13.2509 162.035 13.8085C162.204 15.0365 162.207 16.0271 162.237 16.6459C162.337 18.6974 162.185 19.2965 162.179 20.118C162.121 21.0794 162.101 21.9429 162.102 22.8149C162.079 23.4312 162.009 24.4001 161.937 25.3984" stroke="#FF0404" stroke-width="1.1135" stroke-linecap="round"/>
<path d="M154.425 15.6851C154.643 15.6155 156.551 15.6254 158.366 15.6594C160.233 15.7831 161.578 15.8378 161.795 15.7893C161.903 15.7753 162.009 15.7829 162.117 15.7908" stroke="#FF0404" stroke-width="1.1135" stroke-linecap="round"/>
<path d="M197.168 89.7305C197.168 89.9915 197.168 90.8439 196.972 93.6938C196.583 99.3671 195.981 103.503 195.916 104.816C195.825 106.66 195.586 108.119 195.358 110.312C194.835 115.33 194.202 119.258 194.136 120.508C193.984 123.42 193.675 126.836 193.411 131.935C193.213 134.421 193.082 138.094 192.851 140.354C192.817 140.815 192.817 141.468 192.817 142.14" stroke="#131313" stroke-width="0.6681" stroke-linecap="round"/>
<path d="M197.168 89.1406C197.233 89.1406 197.299 89.1406 202.553 89.1406C207.808 89.1406 218.25 89.1406 223.826 89.1733C229.792 89.2712 230.457 89.4037 231.081 89.5352C231.444 89.6014 231.901 89.6667 232.965 89.7339" stroke="#131313" stroke-width="0.6681" stroke-linecap="round"/>
<path d="M193.213 142.539C193.409 142.539 193.605 142.539 197.132 142.539C200.659 142.539 207.512 142.539 212.968 142.702C218.423 142.865 222.274 143.192 224.779 143.458C226.722 143.664 228.108 143.829 229.158 143.96" stroke="#131313" stroke-width="0.6681" stroke-linecap="round"/>
<path d="M232.883 89.3438C232.883 89.375 232.883 89.4062 232.836 90.5309C232.789 91.6556 232.695 93.8728 232.569 95.499C232.442 97.1252 232.286 98.0933 232.175 99.8411C232.063 101.589 232.001 104.087 231.625 109.762C231.249 115.436 230.562 124.211 230.177 128.872C229.792 133.533 229.729 133.814 229.697 134.521C229.614 136.351 229.603 138.572 229.492 140.259C229.412 141.485 229.319 142.553 229.271 143.501C229.255 143.692 229.224 143.817 229.208 144.037" stroke="#131313" stroke-width="0.6681" stroke-linecap="round"/>
<path d="M199.576 92.8673C199.781 92.8673 200.806 92.8417 202.315 92.7774C202.905 92.7523 203.134 92.6876 205.258 92.6357C207.383 92.5838 211.395 92.5327 213.615 92.5447C215.835 92.5567 216.142 92.6334 217.015 92.6985C219.317 92.8698 220.973 92.8928 221.334 92.9315C222.054 93.0089 223.085 93.0221 223.748 93.0992C224.405 93.177 225.129 93.2026 226.013 93.2413C226.744 93.2545 228.047 93.2545 229.467 93.177" stroke="#131313" stroke-width="0.6681" stroke-linecap="round"/>
<path d="M199.344 93.0156C199.344 93.6816 199.293 95.1281 199.189 95.8777C199.054 96.8566 199.034 97.3243 198.841 98.5861C198.743 99.2312 198.673 100.21 198.583 101.169C198.497 102.07 198.492 103.154 198.428 103.983C198.364 104.809 198.337 106.807 198.273 108.742C198.188 111.288 198.182 111.96 198.118 112.695C198.069 113.25 198.027 113.819 197.963 114.501C197.845 115.75 197.872 116.374 197.808 116.98C197.725 117.765 197.666 119.101 197.576 120.091C197.507 120.839 197.485 121.457 197.421 122.066C197.333 122.903 197.175 124.345 197.047 125.24C196.89 126.328 196.943 127.468 196.879 128.338C196.823 129.098 196.788 129.822 196.724 130.287C196.639 130.902 196.582 131.577 196.543 132.364C196.517 132.902 196.401 134.075 196.337 134.856C196.292 135.399 196.246 135.964 196.182 136.597C196.169 137.225 196.143 137.773 196.105 138.057C196.091 138.187 196.091 138.289 196.014 138.549" stroke="#131313" stroke-width="0.6681" stroke-linecap="round"/>
<path d="M195.86 138.559C195.885 138.559 195.911 138.559 198.211 138.547C200.511 138.534 205.086 138.508 207.531 138.508C209.977 138.507 210.156 138.533 212.242 138.559C214.327 138.585 218.314 138.61 220.533 138.649C223.533 138.701 223.942 138.843 224.42 138.882C224.639 138.92 224.974 138.947 225.374 138.959C225.543 138.972 225.645 138.998 225.751 139.101" stroke="#131313" stroke-width="0.6681" stroke-linecap="round"/>
<path d="M229.468 93.5664C229.442 93.7461 229.39 94.2091 229.236 95.4714C229.198 95.7862 229.133 95.9887 229.043 97.0395C228.953 98.0903 228.825 99.9814 228.734 101.045C228.584 102.783 228.436 103.759 228.345 104.584C228.146 106.393 228.1 107.011 228.035 107.927C227.982 108.691 227.79 110.333 227.687 112.293C227.608 113.808 227.481 114.574 227.416 116.219C227.38 117.143 227.301 118.728 227.236 119.684C227.123 121.344 227.016 122.059 226.977 122.835C226.943 123.51 226.81 124.381 226.745 125.095C226.732 125.237 226.706 125.39 226.693 126.517C226.68 127.644 226.68 129.739 226.667 130.883C226.653 132.154 226.602 133.103 226.59 134.419C226.581 135.36 226.448 136.637 226.383 137.729C226.37 137.986 226.37 138.344 226.357 138.58C226.345 138.815 226.319 138.917 226.293 139.177" stroke="#131313" stroke-width="0.6681" stroke-linecap="round"/>
<path d="M219.782 111.395C220.05 111.823 220.882 112.472 221.553 112.994C222.125 113.439 222.588 114.04 223.139 114.476C224.532 115.579 224.728 116.087 225.085 116.525C225.358 116.86 225.945 117.328 226.407 117.687C226.799 118.204 227.098 118.688 227.213 118.837C227.26 118.918 227.282 119.009 227.375 119.172" stroke="#131313" stroke-width="0.6681" stroke-linecap="round"/>
<path d="M205.97 113.367C205.576 113.924 204.947 114.505 204.384 115C204.016 115.324 203.477 115.839 202.785 116.381C202.226 116.819 201.406 117.473 200.979 117.853C200.4 118.368 199.611 118.9 199.104 119.348C198.74 119.671 198.345 119.912 198.011 120.303C197.771 120.555 197.539 120.787 197.367 120.97C197.286 121.063 197.217 121.154 197.147 121.317" stroke="#131313" stroke-width="0.6681" stroke-linecap="round"/>
<path d="M199.77 122.484C200.295 122.598 201.4 122.829 202.136 122.887C203.472 122.991 204.62 123.426 205.564 123.886C206.26 124.226 207.241 124.508 207.831 124.681C208.237 124.799 208.37 124.843 209.071 125.349M211.988 128.2C212.092 128.372 212.284 128.856 212.33 129.039C212.353 129.132 212.376 129.223 212.399 129.386" stroke="#131313" stroke-width="0.6681" stroke-linecap="round"/>
<path d="M212.43 129.483C212.43 129.643 212.384 130.101 212.166 130.608C211.923 131.174 212.169 132.008 211.825 132.286C211.411 132.62 210.973 132.494 210.767 132.437C210.093 132.251 210.144 130.955 209.995 130.608C209.855 130.284 209.959 131.456 209.869 132.398C209.85 132.597 209.527 132.563 209.33 132.506C208.951 132.396 208.741 132.149 208.615 132C208.339 131.674 208.327 130.706 208.109 130.148C207.952 129.744 207.409 129.551 207.017 129.274C204.821 127.722 201.909 128.404 200.143 125.949C200.073 125.845 200.005 125.754 199.797 125.453" stroke="#131313" stroke-width="0.6681" stroke-linecap="round"/>
<path d="M207.957 127.515C208.003 127.287 208.211 126.585 208.649 125.974C209.005 125.478 209.615 125.065 210.498 124.583C211.775 123.884 212.329 123.845 212.893 123.672C213.553 123.47 214.534 123.453 215.57 123.396C217.595 123.284 218.696 123.315 219.87 123.235C221.557 123.155 222.843 123.085 223.244 123.051C223.485 123.039 223.804 123.039 224.133 123.039" stroke="#131313" stroke-width="0.6681" stroke-linecap="round"/>
<path d="M207.982 127.592C207.982 127.753 208.028 128.12 208.211 128.465C208.304 128.64 208.647 128.628 208.98 128.548C209.637 128.391 209.477 127.503 209.5 127.316C209.615 126.403 209.615 128.741 209.707 129.121C209.823 129.598 210.006 129.961 210.086 130.099C210.254 130.387 210.969 129.826 211.363 129.434C211.815 128.985 211.869 128.262 211.973 127.652C212.053 127.182 213.402 127.225 215.306 127.076C217.523 126.902 218.839 126.949 219.057 126.903C220.257 126.65 222.036 126.788 223.172 126.753C223.44 126.742 223.576 126.719 223.988 126.707C224.4 126.695 225.083 126.695 225.787 126.695" stroke="#131313" stroke-width="0.6681" stroke-linecap="round"/>
<path d="M210.566 105.031V105.688" stroke="#131313" stroke-width="0.6681" stroke-linecap="round"/>
<path d="M214.618 105.066C214.618 105.09 214.618 105.115 214.618 105.175C214.618 105.236 214.618 105.332 214.606 105.406C214.594 105.48 214.569 105.528 214.545 105.687" stroke="#131313" stroke-width="0.6681" stroke-linecap="round"/>
<path d="M211.697 107.622C211.697 107.876 211.721 108.266 211.921 108.503C212.161 108.787 212.499 108.838 212.949 108.839C213.157 108.839 213.279 108.656 213.364 108.517C213.425 108.341 213.461 108.182 213.48 107.94C213.486 107.759 213.486 107.457 213.486 107.184" stroke="#131313" stroke-width="0.6681" stroke-linecap="round"/>
<path d="M212.233 100.501C211.937 100.385 211.684 100.321 211.315 100.284C210.294 100.182 209.579 100.458 209.489 100.511C209.329 100.605 209.251 100.849 208.977 101.734C208.783 102.359 208.87 102.615 208.844 102.853C208.828 102.994 208.828 103.133 208.791 103.276C208.7 103.627 208.227 103.757 207.877 103.853C207.579 103.934 207.168 103.959 206.973 104.059C206.746 104.174 206.535 104.486 206.343 104.777C206.138 105.089 206.131 105.7 206.163 106.417C206.196 107.188 206.396 107.701 206.401 107.928C206.405 108.103 206.427 108.304 206.406 108.531C206.358 109.057 205.625 109.415 205.266 109.768C204.982 110.047 204.958 110.482 204.868 110.783C204.692 111.373 204.757 111.687 204.741 111.931C204.714 112.29 204.725 112.64 204.741 112.745C204.746 112.799 204.746 112.851 204.746 112.905" stroke="#131313" stroke-width="0.6681" stroke-linecap="round"/>
<path d="M212.169 97.9257C212.263 97.9257 212.579 97.9466 213.387 97.9417C213.827 97.939 214.459 97.8622 215.12 97.8674C215.362 97.8694 215.414 97.8831 215.457 97.9147C215.653 98.0595 215.721 98.3266 215.88 98.6167C216.042 98.9136 216.166 99.1308 216.245 99.2046C216.351 99.3038 216.472 99.3741 216.85 99.4268C217.766 99.5545 218.46 99.5749 218.597 99.6278C218.829 99.7168 219.104 99.9439 219.332 100.225C219.494 100.423 219.686 100.674 219.845 100.902C219.989 101.107 220.057 101.393 220.136 101.699C220.217 102.009 220.237 102.648 220.243 103.398C220.248 104.127 220.026 104.438 219.831 104.893C219.695 105.208 219.529 105.726 219.518 106.462C219.513 106.79 219.865 107.343 220.256 107.993C220.444 108.307 220.659 108.593 220.959 109.12C221.317 109.748 221.453 110.233 221.49 110.423C221.527 110.611 221.527 111.077 221.501 111.71C221.348 112.401 221.295 112.666 221.274 112.766C221.263 112.814 221.253 112.856 221.242 112.899" stroke="#131313" stroke-width="0.6681" stroke-linecap="round"/>
<path d="M212.486 100.718C212.665 100.718 213.255 100.655 213.695 100.601C214.05 100.559 214.42 100.496 214.694 100.569C215.338 100.741 215.088 101.731 215.124 102.185C215.216 103.317 215.256 103.53 215.378 103.662C215.44 103.73 215.929 103.784 216.7 103.9C217.291 103.989 217.593 104.143 217.72 104.222C217.862 104.311 217.984 104.617 218.095 105.165C218.161 105.488 218.133 105.922 218.091 106.436C218.001 107.54 217.879 108.214 217.869 108.398C217.831 109.059 217.921 109.903 218.153 110.271C218.389 110.643 219.231 110.668 219.433 110.715C219.523 110.737 219.592 110.816 219.64 110.905C219.677 111.133 219.751 111.344 219.814 111.487C219.846 111.566 219.877 111.66 219.91 111.789" stroke="#131313" stroke-width="0.6681" stroke-linecap="round"/>
<path d="M211.788 97.7994C211.736 97.8102 211.525 97.7049 211.224 97.6094C210.953 97.5238 210.784 97.4613 210.52 97.4609C210.232 97.4606 210.055 97.63 209.622 97.8459C209.17 98.0718 209.124 98.465 208.939 98.6974C208.791 98.8832 208.543 98.9307 208.363 98.973C208.104 99.0338 207.571 99.1096 207.2 99.3529C206.862 99.5744 206.65 100.05 206.512 100.3C206.407 100.489 206.301 100.727 206.189 101.17C205.977 102.014 206.036 102.293 205.841 102.52C205.566 102.839 205.423 103.053 205.227 103.355C205.126 103.512 205.042 103.793 204.952 104.157C204.872 104.485 204.872 104.945 204.909 105.567C204.975 106.688 205.179 106.903 205.327 107.252C205.419 107.471 205.496 107.686 205.602 107.997C205.734 108.387 205.729 108.731 205.64 109.086C205.519 109.567 205.117 109.978 204.952 110.392C204.838 110.679 204.904 111.057 204.878 111.412C204.867 111.554 204.872 111.795 204.935 112.176C205.084 113.077 205.295 113.702 205.364 113.882C205.401 113.999 205.433 114.084 205.48 114.173C205.507 114.221 205.538 114.273 205.602 114.391" stroke="#131313" stroke-width="0.6681" stroke-linecap="round"/>
<path d="M208.467 103.672C208.017 104.121 207.777 104.421 207.721 104.751C207.693 104.918 207.716 105.207 207.815 105.618C207.914 106.028 208.112 106.554 208.304 106.933C208.777 107.872 209.066 107.974 209.206 108.15C209.443 108.446 209.477 108.705 209.512 109.109C209.57 109.774 209.378 110.036 209.168 110.361C208.713 111.065 208.507 111.197 208.332 111.462C208.185 111.685 208.007 112.037 207.876 112.448C207.766 112.793 207.876 113.188 208.15 113.728C208.366 114.152 208.187 114.879 208.112 115.12C208.022 115.409 207.598 115.8 207.386 115.892C207.157 115.991 207.785 115.234 207.861 114.843C208.014 114.056 207.667 113.561 207.506 113.395C207.237 113.117 206.676 112.95 206.55 112.795C206.427 112.642 206.465 112.43 206.499 111.677C206.54 110.789 206.944 110.311 207.07 110.008C207.133 109.856 207.165 109.668 207.166 109.029C207.096 108.676 207.026 108.546 206.961 108.397C206.926 108.297 206.886 108.149 206.845 107.995" stroke="#131313" stroke-width="0.6681" stroke-linecap="round"/>
<path d="M216.672 103.684C216.899 104.443 217.057 104.939 217.171 105.553C217.25 105.975 217.127 106.596 217.042 107.168C217.002 107.436 216.99 107.574 216.917 107.974C216.756 108.852 216.706 109.537 216.701 109.735C216.695 109.922 216.684 110.655 216.729 111.765C216.774 112.885 216.967 113.122 217.097 113.467C217.263 113.908 217.567 114.131 218.179 114.483C218.552 114.697 218.827 114.937 218.997 115.242C219.405 115.976 219.395 116.355 219.406 116.486C219.426 116.713 219.633 115.916 219.758 115.592C219.814 115.446 219.804 114.92 219.798 114.222C219.793 113.594 219.52 113.056 219.401 112.733C219.261 112.352 219.18 112.069 219.1 111.774C219.078 111.558 219.055 111.287 219.117 111.048C219.156 110.98 219.224 110.89 219.293 110.797" stroke="#131313" stroke-width="0.6681" stroke-linecap="round"/>
<path d="M210.044 104.952C210.058 104.925 210.135 104.869 210.219 104.815C210.281 104.774 210.344 104.767 210.513 104.746C210.709 104.743 210.858 104.764 210.917 104.804C210.948 104.823 210.983 104.84 211.019 104.858" stroke="#131313" stroke-width="0.6681" stroke-linecap="round"/>
<path d="M214.088 104.914C214.081 104.914 214.088 104.896 214.116 104.865C214.195 104.775 214.343 104.771 214.437 104.758C214.589 104.738 214.736 104.746 214.832 104.758C214.914 104.769 215.013 104.826 215.081 104.88C215.097 104.896 215.111 104.91 215.123 104.922C215.136 104.935 215.146 104.945 215.157 104.966" stroke="#131313" stroke-width="0.6681" stroke-linecap="round"/>
<path d="M209.081 110.973C209.081 111.237 209.301 112.28 209.536 112.934C209.688 113.359 210.013 113.717 210.237 114.009C210.387 114.205 210.604 114.431 210.848 114.61C211.194 114.861 211.782 114.944 212.116 114.972C212.271 114.985 212.439 114.988 212.683 115.005C213.058 115.031 213.649 114.857 214.266 114.579C214.884 114.3 215.064 114.022 215.354 113.622C215.676 113.177 215.71 112.91 215.849 112.598C215.966 112.287 216.067 111.897 216.094 111.747C216.111 111.674 216.133 111.608 216.156 111.44" stroke="#131313" stroke-width="0.6681" stroke-linecap="round"/>
<path d="M233.106 89.8984C233.263 90.4025 233.577 90.9065 233.847 91.428C234.348 92.3972 233.896 94.0954 233.848 94.7278C233.722 96.3891 233.706 99.1167 233.658 99.6704C233.586 100.506 233.517 101.58 233.406 102.165C233.267 102.897 233.295 103.537 233.216 104.248C233.076 105.522 233.043 106.16 232.995 106.917C232.953 107.585 232.854 108.212 232.806 110.952C232.789 111.915 232.632 112.413 232.538 113.154C232.415 114.119 232.348 114.874 232.269 115.586C232.149 116.671 232.158 117.494 232.08 118.286C232.026 118.824 231.969 119.454 231.811 120.527C231.696 121.313 231.622 121.949 231.574 123.368C231.558 123.846 231.495 125.85 231.479 128.738C231.47 130.509 231.338 131.518 231.29 132.229C231.267 132.563 231.179 132.877 231.132 133.88C231.02 136.256 231.085 137.993 231.022 138.293C230.836 139.176 230.864 140.456 230.785 141.606C230.731 142.396 230.328 142.919 229.981 143.425C229.792 143.677 229.601 143.931 229.412 144.183C229.317 144.31 229.223 144.435 229.126 144.564" stroke="#131313" stroke-width="0.6681" stroke-linecap="round"/>
<path d="M213.116 90.412C213.014 89.6278 213.081 88.5651 213.261 88.0676C213.713 86.8153 214.246 86.0111 214.571 85.5149C214.866 85.0652 215.273 84.5552 215.572 84.3664C216.045 84.0676 216.421 85.1837 216.696 85.7169C216.878 86.0717 217.106 86.6226 217.236 87.1558C217.321 87.5067 217.415 87.8066 217.527 88.2007C217.57 88.4058 217.621 88.6802 217.689 88.9711C217.724 89.0923 217.758 89.1602 217.793 89.3328" stroke="#131313" stroke-width="0.6681" stroke-linecap="round"/>
<path d="M215.756 85.0543C215.741 85.0543 215.695 85.0467 215.599 85.0162C215.542 84.9933 215.465 84.9553 215.05 84.8445C214.635 84.7337 213.882 84.5512 213.107 84.3633" stroke="#131313" stroke-width="0.6681" stroke-linecap="round"/>
<path d="M212.093 83.2943C212.017 83.6392 212.001 84.2798 212.07 84.6873C212.084 84.7723 212.17 84.8144 212.231 84.8566C212.289 84.8964 212.362 84.9068 212.434 84.8954C212.606 84.8685 212.738 84.6543 212.865 84.4316C212.961 84.2611 212.976 84.0176 212.995 83.7903C213.036 83.3148 212.992 82.5344 212.9 82.4998C212.835 82.4752 212.718 82.4881 212.602 82.5565C212.217 82.9863 212.139 83.2625 212.116 83.5429C212.109 83.6011 212.101 83.6316 212.093 83.732" stroke="#131313" stroke-width="0.6681" stroke-linecap="round"/>
<path d="M213.329 83.4766C213.319 83.4766 213.462 83.524 213.922 83.6505C214.233 83.736 214.709 83.8386 214.999 83.9019C215.288 83.9652 215.378 83.9795 215.474 84.001C215.571 84.0226 215.67 84.0511 215.773 84.0804" stroke="#131313" stroke-width="0.6681" stroke-linecap="round"/>
<path d="M206.38 117.992C205.946 118.475 205.731 118.789 205.439 119.239C205.125 119.722 204.852 120.416 204.743 120.735C204.654 120.992 204.614 121.227 204.575 121.499C204.536 121.77 204.496 122.126 204.481 122.333C204.476 122.383 204.466 122.422 204.461 122.54C204.456 122.657 204.456 122.853 204.456 123.054" stroke="#131313" stroke-width="0.6681" stroke-linecap="round"/>
<path d="M217.866 117.664C218.014 117.851 218.171 118.145 218.448 118.742C218.621 119.116 218.804 119.578 218.853 119.809C218.899 120.026 219.02 120.307 219.257 121.217C219.4 121.769 219.376 121.975 219.455 122.281C219.475 122.37 219.484 122.458 219.49 122.567C219.495 122.675 219.495 122.802 219.495 122.933" stroke="#131313" stroke-width="0.6681" stroke-linecap="round"/>
<path d="M210.164 117.508C210.199 117.568 210.424 117.742 210.616 117.89C210.932 118.134 211.164 118.334 211.49 118.669C211.677 118.86 211.818 118.909 211.904 118.922C212.025 118.892 212.364 118.667 212.923 118.294C213.216 118.119 213.526 117.972 213.846 117.821" stroke="#131313" stroke-width="0.6681" stroke-linecap="round"/>
<path d="M202.337 127.59C202.179 127.603 201.811 127.708 201.27 128.037C200.923 128.248 200.767 128.578 200.641 128.968C200.524 129.329 200.647 129.661 200.877 130.03C201.151 130.468 201.36 131.163 201.367 131.812C201.373 132.331 200.504 132.776 200.186 133.08C199.908 133.346 199.449 133.831 199.209 134.057C199.009 134.245 198.893 134.57 198.78 134.914C198.632 135.367 198.786 136.101 198.793 136.84C198.797 137.193 198.457 137.422 198.298 137.62C198.153 137.858 198.087 138.017 198.067 138.187C198.06 138.306 198.06 138.489 198.06 138.677" stroke="#131313" stroke-width="0.6681" stroke-linecap="round"/>
<path d="M219.958 126.766C220.275 127.082 220.537 127.554 220.782 128.038C220.898 128.266 221.066 128.454 221.277 128.909C221.445 129.27 221.384 129.903 221.049 130.92C220.907 131.35 220.856 131.857 220.836 132.295C220.829 132.441 220.908 132.586 221.033 132.75C221.362 133.184 221.805 133.153 222.043 133.239C222.429 133.379 222.676 133.576 222.848 133.741C223.028 133.913 223.191 134.169 223.356 134.447C223.506 134.698 223.614 135 223.674 135.48C223.853 136.917 223.772 137.244 223.878 137.529C223.967 137.767 224.063 137.997 224.109 138.248C224.116 138.34 224.116 138.471 224.129 138.584C224.142 138.697 224.168 138.788 224.195 139.001" stroke="#131313" stroke-width="0.6681" stroke-linecap="round"/>
<path d="M73.3159 135.236C72.8816 133.623 72.7587 133.545 71.8198 131.617M67.8894 124.433C65.7117 120.617 63.4807 116.681 62.799 115.275C61.4877 112.571 60.4263 111.154 59.1789 108.737C58.523 107.513 58.2404 106.828 58.0086 106.276C57.8762 105.986 57.7136 105.678 57.546 105.361" stroke="#131313" stroke-width="1.054" stroke-linecap="round"/>
<path d="M72.7935 136.169C72.3847 135.732 70.7861 134.2 69.6856 133.05C68.4426 131.75 66.3498 129.036 65.4654 127.648M58.8587 117.416C57.7139 115.53 56.0798 112.493 55.0541 111.248C54.5233 110.263 54.0484 109.438 53.7841 109.032C53.6644 108.825 53.5741 108.617 53.4539 108.237" stroke="#131313" stroke-width="1.054" stroke-linecap="round"/>
<path d="M57.1714 103.694C57.2097 103.688 57.2644 103.777 57.3269 103.975C57.4767 104.449 56.9325 105.004 56.6448 105.548C56.2552 106.286 55.2166 106.878 54.8186 107.183C54.3682 107.528 53.6271 107.599 52.2252 107.822C51.9355 107.84 51.8494 107.795 51.7716 107.748C51.6938 107.701 51.6268 107.653 51.5578 107.604" stroke="#131313" stroke-width="1.054" stroke-linecap="round"/>
<path d="M55.2974 101.742C55.3036 102.018 55.0915 102.884 54.7744 103.378C54.5086 103.792 54.1158 103.964 53.8466 104.138C53.5556 104.327 53.1946 104.514 52.8181 104.646C52.3 104.762 51.9014 104.868 51.5407 104.908C51.3907 104.913 51.3078 104.887 51.0871 104.764" stroke="#131313" stroke-width="1.054" stroke-linecap="round"/>
<path d="M53.5874 100.056C53.6065 100.053 53.6257 100.05 53.6419 100.086C53.756 100.344 53.2983 100.817 52.9589 101.113C52.3851 101.614 51.3373 101.462 50.9942 101.311C50.6822 101.214 50.3831 101.103 50.2029 100.975C50.1311 100.907 50.0993 100.833 50.0665 100.758" stroke="#131313" stroke-width="1.054" stroke-linecap="round"/>
<path d="M54.536 99.6573C54.7375 99.9203 55.0535 100.385 55.3745 100.947C55.5706 101.29 55.7353 101.623 56.2212 102.584C56.4556 103.095 56.6483 103.539 56.8477 104.023C56.8867 104.137 56.9026 104.232 57.0638 104.486" stroke="#131313" stroke-width="1.054" stroke-linecap="round"/>
<path d="M49.0989 101.75C49.2039 102.266 49.5178 103.208 49.7918 103.72C50.1237 104.34 50.6801 105.319 50.9695 105.792C51.173 106.125 51.5758 106.761 51.8412 107.217C51.9247 107.421 51.9958 107.61 52.0695 107.756C52.1114 107.829 52.1624 107.899 52.2149 107.972" stroke="#131313" stroke-width="1.054" stroke-linecap="round"/>
<path d="M53.726 99.3541C53.699 99.1911 53.6131 98.8396 53.5028 98.5136C53.3973 98.2016 53.3404 97.9566 53.253 97.5568C53.1827 97.2354 52.8725 96.4791 52.62 95.9805C52.4751 95.6944 52.2435 95.3134 51.8576 94.6394C51.3891 93.8212 50.8653 93.2659 50.3488 92.7009C50.1247 92.4557 49.834 92.2233 49.5124 91.939C49.151 91.6196 48.4355 90.6339 48.0181 90.0487C47.6883 89.5863 47.4691 89.3232 47.3792 89.2885C46.9173 89.1103 47.4009 90.6119 47.43 90.9169C47.4632 91.2643 47.4749 91.5698 47.4835 91.9622C47.494 92.4393 47.4822 93.0569 47.439 94.028C47.4169 94.527 47.4522 95.0893 47.4803 95.555C47.4992 95.869 47.5751 96.5973 47.7357 97.4842C47.8565 98.151 48.1359 98.631 48.2593 98.9496C48.3626 99.2166 48.5229 99.4403 48.7311 99.638C49.1418 99.9559 49.5749 100.363 49.7896 100.553C49.8399 100.601 49.8895 100.648 49.9953 100.773" stroke="#131313" stroke-width="1.054" stroke-linecap="round"/>
<path d="M77.2373 132.738C76.2208 131.412 74.809 130.19 73.2063 128.766C71.7443 127.467 69.7803 125.982 67.4448 124.165C63.9767 121.467 61.0715 119.332 59.9054 118.293C57.6625 116.293 56.1411 115.388 54.0666 113.629C52.9937 112.747 52.471 112.221 52.0463 111.799C51.8135 111.582 51.5457 111.359 51.2698 111.129" stroke="#131313" stroke-width="1.054" stroke-linecap="round"/>
<path d="M77.1101 133.798C76.5657 133.551 74.5037 132.743 73.0478 132.099C71.4034 131.372 68.9288 129.986 67.582 129.04C66.2889 128.131 65.0348 127.412 63.9019 126.481C61.523 124.527 59.3444 123.296 56.7534 121.39C54.9759 120.082 52.6331 118.281 51.2105 117.521C50.3442 116.813 49.5908 116.231 49.1916 115.957C49.0021 115.811 48.8391 115.653 48.5833 115.348" stroke="#131313" stroke-width="1.054" stroke-linecap="round"/>
<path d="M50.2899 109.735C50.3229 109.715 50.4075 109.777 50.5407 109.936C50.8597 110.316 50.5681 111.037 50.5098 111.65C50.4308 112.481 49.6964 113.424 49.4446 113.857C49.1596 114.348 48.5016 114.696 47.2905 115.437C47.0297 115.564 46.933 115.555 46.8431 115.542C46.7532 115.528 46.6731 115.509 46.5905 115.49" stroke="#131313" stroke-width="1.054" stroke-linecap="round"/>
<path d="M47.8118 108.645C47.9226 108.897 48.0567 109.779 47.9518 110.356C47.8639 110.84 47.5662 111.149 47.3838 111.413C47.1867 111.698 46.9244 112.009 46.6267 112.274C46.1918 112.579 45.8636 112.829 45.5454 113.003C45.4087 113.065 45.3223 113.073 45.0712 113.043" stroke="#131313" stroke-width="1.054" stroke-linecap="round"/>
<path d="M45.5888 107.736C45.6053 107.726 45.6218 107.716 45.6508 107.743C45.8547 107.939 45.6116 108.55 45.4108 108.953C45.0714 109.635 44.0446 109.894 43.6697 109.885C43.3443 109.914 43.0258 109.926 42.8101 109.876C42.7178 109.84 42.6604 109.784 42.6013 109.727" stroke="#131313" stroke-width="1.054" stroke-linecap="round"/>
<path d="M46.3151 107.012C46.6016 107.179 47.0708 107.488 47.582 107.885C47.8941 108.128 48.1732 108.373 48.9887 109.076C49.4001 109.458 49.7474 109.795 50.1163 110.167C50.1958 110.257 50.2469 110.34 50.4926 110.513" stroke="#131313" stroke-width="1.054" stroke-linecap="round"/>
<path d="M42.0857 111.022C42.3793 111.459 43.0288 112.211 43.4772 112.58C44.0204 113.026 44.9078 113.719 45.3557 114.046C45.6708 114.276 46.2857 114.711 46.705 115.032C46.8599 115.188 46.9975 115.335 47.1215 115.443C47.188 115.494 47.2619 115.54 47.3381 115.587" stroke="#131313" stroke-width="1.054" stroke-linecap="round"/>
<path d="M45.4504 107.035C45.3633 106.894 45.1498 106.602 44.9236 106.343C44.7072 106.095 44.5612 105.89 44.328 105.554C44.1405 105.283 43.5654 104.702 43.1419 104.338C42.8989 104.128 42.5395 103.864 41.9258 103.388C41.1808 102.81 40.485 102.497 39.792 102.171C39.4914 102.03 39.134 101.926 38.7283 101.786C38.2724 101.628 37.2353 100.99 36.6263 100.608C36.1451 100.306 35.8422 100.146 35.7459 100.149C35.2509 100.16 36.2703 101.364 36.4136 101.635C36.5767 101.943 36.704 102.221 36.8615 102.581C37.053 103.018 37.2776 103.593 37.6078 104.507C37.7776 104.977 38.0245 105.484 38.228 105.903C38.3653 106.187 38.713 106.831 39.1996 107.59C39.5654 108.16 40.0067 108.497 40.2422 108.745C40.4396 108.952 40.6729 109.098 40.9408 109.201C41.4417 109.339 41.9973 109.55 42.2681 109.644C42.333 109.669 42.397 109.694 42.5421 109.768" stroke="#131313" stroke-width="1.054" stroke-linecap="round"/>
<path d="M41.9816 112.142C40.5097 112.267 38.5604 112.527 36.6419 112.86C35.6799 113.026 34.474 113.533 32.5266 114.396C31.5449 114.831 30.6274 115.37 29.5958 116.083C27.3943 117.606 26.2193 118.728 26.0045 118.974C25.512 119.538 25.0752 120.002 24.4747 120.839C23.8498 121.71 22.9537 123.034 22.6048 123.666C22.1335 124.52 22.0256 125.088 21.68 126.184C21.3599 127.198 20.8981 129.186 20.6719 130.301C20.5177 131.061 20.4079 131.718 20.339 132.657C20.2832 133.419 20.1331 134.753 20.1586 136.023C20.2075 138.463 20.6612 139.816 20.8896 140.199C21.4934 141.211 22.2461 141.753 23.756 142.797C25.7097 144.147 26.4341 144.107 27.7368 144.524C28.492 144.766 29.6858 144.835 30.6392 144.844C31.6518 144.854 33.4558 144.875 35.5212 144.715C37.081 144.593 38.2113 144.421 39.2424 144.386C41.2562 144.318 42.2449 144.026 43.5425 143.661C44.8331 143.298 46.7517 142.828 48.2481 142.416C49.3069 142.124 50.1045 141.942 50.909 141.644C53.8908 140.539 54.8976 140.305 56.1651 139.87C56.9163 139.612 58.2093 139.395 59.3911 139.5C60.7056 139.616 61.7799 140.368 62.465 140.755C63.1186 141.125 64.495 141.308 66.742 140.955C68.2152 140.723 68.3665 139.528 68.5568 138.937C68.7964 138.193 68.6651 136.948 68.6022 136.291C68.4974 135.197 68.0893 133.456 67.8005 132.716C67.5178 131.992 67.0794 131.539 66.5035 130.611C66.2932 130.253 66.1798 129.939 66.1119 129.619C66.0729 129.473 66.0247 129.362 65.9749 129.247" stroke="#131313" stroke-width="1.054" stroke-linecap="round"/>
<path d="M64.6198 132.709C64.9553 132.893 65.4643 133.331 65.9823 133.946C66.5505 134.62 66.6373 135.781 66.5674 136.41C66.5322 136.727 66.1311 136.942 65.8458 137.131C65.3622 137.452 63.7315 137.321 62.7359 137.177C62.2215 137.103 61.8381 136.911 61.164 136.465C60.5665 136.071 60.3526 135.341 60.1055 134.64C59.8629 133.953 59.9422 133.396 60.0486 133.182C60.2998 132.677 60.5954 132.326 60.9257 132.139C61.6478 131.73 63.0251 131.812 63.7998 132.132C64.2618 132.322 64.5909 132.407 64.7537 132.467C65.0267 132.923 65.2392 133.415 65.3417 133.572C65.3881 133.652 65.4232 133.733 65.4593 133.817" stroke="#131313" stroke-width="1.054" stroke-linecap="round"/>
<path d="M52.605 130.858C52.3897 130.502 51.9414 130.001 51.516 129.494C51.0459 128.934 50.0947 128.654 49.567 128.636C49.4372 128.631 49.3167 128.702 49.2096 128.772C48.6631 129.13 48.9288 130.491 49.1828 131.16C49.2686 131.385 49.3613 131.68 49.2919 132.045C49.1232 132.933 47.8458 132.64 45.6353 133.097C45.1555 133.196 45.0611 133.387 44.9941 133.542C44.7479 134.115 44.9458 134.923 45.2419 135.532C45.5182 136.101 46.1959 136.161 46.7531 136.357C47.3092 136.554 47.9258 136.478 49.2932 136.292C50.0645 136.187 51.3665 136.561 52.2998 136.946C52.8518 137.173 53.2235 137.619 53.7609 137.779C53.9028 137.821 54.0596 137.77 54.1777 137.685C54.7082 137.306 54.6081 136.476 54.5644 135.972C54.4808 135.009 54.1245 133.543 53.9119 133.132C53.6503 132.627 53.4881 132.233 53.2549 131.852C53.1993 131.756 53.1573 131.659 53.1 131.55C53.0427 131.442 52.9714 131.324 52.7195 131.075" stroke="#131313" stroke-width="1.054" stroke-linecap="round"/>
<path d="M37.3821 131.49C38.033 131.486 38.9687 131.749 39.6774 131.999C40.7783 132.387 40.9698 133.383 41.5343 134.427C41.9814 135.254 42.2238 135.899 42.4676 137.207C42.6473 138.17 42.1541 139.108 41.9982 139.75C41.9623 139.898 41.9655 140.03 41.9023 140.12C41.5966 140.556 40.6938 140.401 40.1083 140.432C39.2081 140.48 38.7551 140.094 38.1625 139.838C37.5983 139.594 37.2126 139.171 36.8436 138.76C36.3366 138.196 36.1684 137.771 35.9863 137.226C35.6239 136.142 36.1353 135.837 36.206 135.551C36.3838 134.832 35.5914 134.435 35.3953 133.421C35.2524 132.681 35.7786 132.098 36.2147 131.658C36.4475 131.566 36.8262 131.503 37.1033 131.496C37.3804 131.489 37.5445 131.54 37.9044 131.797" stroke="#131313" stroke-width="1.054" stroke-linecap="round"/>
<path d="M27.7712 129.935C28.7273 130.193 29.7063 130.714 30.0103 131.121C30.5212 131.806 30.4696 132.629 30.6663 133.735C30.823 134.616 30.9591 135.589 31.7309 136.859C31.9536 137.226 32.0196 137.561 32.0617 137.973C32.0943 138.291 31.8501 138.742 31.519 139.268C31.2591 139.681 30.6521 139.729 30.1068 139.754C29.3089 139.791 28.4147 139.185 27.7624 138.82C27.0878 138.442 26.6011 137.259 26.2488 136.726C26.127 136.541 26.1236 136.287 25.9263 135.332C25.4393 132.975 25.2918 131.263 25.3598 131.043C25.4279 130.822 25.547 130.592 25.7211 130.38C25.8756 130.192 26.1462 130.099 26.4578 130.008C27.0943 129.967 27.5014 130.214 28.07 130.487C28.2113 130.543 28.3207 130.577 28.599 130.663" stroke="#131313" stroke-width="1.054" stroke-linecap="round"/>
<path d="M29.4765 122.891C30.2158 123.501 30.6128 124.075 30.7604 124.568C30.9444 125.183 30.8195 125.659 30.6758 125.985C30.4867 126.414 30.1783 126.895 29.9301 127.218C29.6308 127.608 29.2314 127.655 28.7946 127.802C28.3262 127.961 27.2785 127.998 26.6384 127.906C26.1369 127.834 25.9537 127.408 25.6635 127.08C25.3302 126.704 25.2353 125.577 25.233 124.94C25.2317 124.576 25.491 124.174 25.64 123.819C25.785 123.473 26.16 123.215 26.6164 122.905C26.9004 122.711 27.5493 122.533 28.3333 122.44C28.7123 122.49 28.8628 122.597 28.9906 122.689C29.0549 122.735 29.1183 122.78 29.2386 122.818" stroke="#131313" stroke-width="1.054" stroke-linecap="round"/>
<path d="M35.1031 119.702C35.1879 120.327 35.1389 120.71 34.9922 121.13C34.8427 121.558 34.3697 121.629 33.9927 121.739C33.8319 121.785 33.5976 121.739 33.3158 121.626C32.8931 121.457 32.6016 120.946 32.3483 120.563C32.1329 120.237 31.9023 119.913 31.6831 119.386C31.5833 119.146 31.5562 118.735 31.5918 118.443C31.6274 118.152 31.7666 117.98 31.9002 117.872C32.386 117.478 33.0833 117.626 33.4652 117.77C33.8462 117.914 34.2302 118.302 34.5706 118.65C34.6942 118.827 34.8194 119.014 34.9562 119.216C35.0206 119.319 35.0749 119.422 35.213 119.684" stroke="#131313" stroke-width="1.054" stroke-linecap="round"/>
<path d="M40.9569 116.533C41.0292 116.97 41.063 117.625 40.9093 117.828C40.727 118.07 40.3616 118.156 40.0204 118.193C39.4678 118.255 39.0556 117.884 38.7683 117.63C38.4863 117.381 38.2968 116.491 38.3961 115.96C38.4632 115.601 39.2333 115.689 39.6307 115.689C39.7874 115.728 39.9347 115.817 40.0791 115.952C40.157 116.024 40.2445 116.103 40.4537 116.221" stroke="#131313" stroke-width="1.054" stroke-linecap="round"/>
<path d="M60.3323 133.977C60.4262 133.858 60.5907 133.727 60.9516 133.631C61.65 133.445 61.8459 133.612 62.035 133.69C62.2742 133.788 62.6357 133.885 62.9518 134.035C63.2062 134.156 63.4059 134.276 63.6186 134.432C63.8724 134.619 64.0458 134.822 64.2286 135.051C64.5093 135.43 64.6198 135.66 64.7133 135.944C64.7571 136.113 64.7935 136.332 64.8309 136.559" stroke="#131313" stroke-width="1.054" stroke-linecap="round"/>
<path d="M20.6766 140.272C20.7554 140.748 20.8582 141.114 21.0806 141.494C21.3453 141.945 21.6448 142.264 21.8941 142.671C22.0911 142.992 22.3286 143.303 22.6142 143.544C22.964 143.84 23.3581 144.242 23.6905 144.507C24.093 144.828 24.8187 145.087 25.4145 145.331C26.4817 145.768 26.8818 145.815 27.3655 145.969C28.0846 146.197 28.8223 146.218 29.5707 146.276C30.1387 146.321 30.9204 146.383 31.3705 146.448C31.858 146.518 32.6663 146.5 33.173 146.513C33.6263 146.524 34.0947 146.477 34.9355 146.477C35.521 146.476 36.1546 146.435 36.7481 146.401C37.3672 146.366 37.9543 146.351 38.5176 146.333C39.2875 146.308 40.3192 146.109 42.0597 145.875C43.0224 145.745 44.767 145.438 45.7356 145.256C47.1662 144.988 47.6658 144.702 48.0933 144.578C48.9028 144.344 49.8012 144.094 50.597 143.791C51.1828 143.568 51.7573 143.385 52.1742 143.263C52.7113 143.106 53.1545 142.942 53.5351 142.782C53.8665 142.643 54.2768 142.5 55.0975 142.31C55.6202 142.19 55.9974 141.938 57.114 141.742C57.6613 141.646 58.0213 141.794 58.3712 141.843C58.7276 141.893 59.138 142.099 59.5125 142.166C59.8602 142.228 60.2279 142.367 60.8688 142.507C61.3363 142.609 61.6945 142.722 62.27 142.787C62.7606 142.843 63.2027 142.942 64.64 142.695C65.3215 142.577 65.6218 142.223 65.9601 141.944C66.3223 141.644 66.7983 141.475 67.172 141.273C67.4788 141.063 67.7211 140.852 67.8923 140.664C67.9742 140.576 68.0462 140.5 68.1204 140.423" stroke="#131313" stroke-width="1.054" stroke-linecap="round"/>
<path d="M194.5 29.4097C194.506 29.5171 194.591 30.9149 194.785 33.241C194.917 34.8242 195.328 37.7198 195.61 41.5104C195.765 43.5901 196.16 46.1112 196.372 49.1728C196.469 50.5729 196.782 52.8234 197.08 55.9614C197.339 58.6822 197.673 61.2766 198.11 64.9158C198.238 65.9822 198.371 66.5177 198.429 67.0303C198.481 67.4957 198.79 70.7647 199.795 75.3585C200.709 79.5389 205.163 76.3462 208.731 76.0485C209.771 75.9617 212.454 75.6876 216.275 75.4302C218.982 75.2479 220.652 74.976 224.034 74.6635C227.04 74.3857 232.679 74.0335 235.536 73.0789C238.394 72.1244 238.303 70.6208 238.217 69.6331C238.03 67.4989 237.731 66.5464 237.141 63.5141C236.811 61.8163 236.493 59.5529 236.244 58.1169C235.977 56.5801 235.808 55.3971 235.65 54.1515C235.484 52.8417 235.214 51.8923 235.012 50.7874C234.791 49.5805 234.683 48.4947 234.424 46.905C234.209 45.5805 233.981 44.0721 233.765 41.8575C233.643 40.6009 233.375 39.4281 233.033 37.3828C232.754 35.7108 232.41 33.3425 232.158 31.4453C231.864 29.2387 231.604 26.3066 231.392 24.1718C231.346 23.7054 231.271 23.4949 231.099 23.3403C229.468 21.8725 224.813 23.6589 223.299 23.9438C222.327 24.1266 221.146 24.3177 219.715 24.5135C217.464 24.8213 215.536 25.146 209.783 25.6293C207.622 25.8108 204.472 26.4664 200.688 26.8849C198.545 27.122 197.705 27.42 196.737 27.614C195.995 27.7626 195.329 27.7805 194.933 27.9669C194.748 28.0866 194.597 28.2574 194.54 28.6945C194.483 29.1315 194.525 29.8296 194.569 30.5488" stroke="#131313" stroke-width="0.812429" stroke-linecap="round"/>
<path d="M196.684 31.0277C197.143 31 198.649 30.8013 199.944 30.4914C201.603 30.0946 203.174 29.956 204.569 29.6806C206.053 29.3876 206.993 29.4249 208.221 29.2695C210.778 28.946 211.806 28.7537 212.468 28.6725C213.24 28.5777 214.153 28.3946 215.782 28.1599C217.84 27.8633 219.304 27.457 219.914 27.2436C221.84 26.5702 222.664 26.709 223.436 26.6212C224.983 26.4451 227.355 26.2896 227.65 26.2309C227.811 26.1989 228.001 26.1958 228.117 26.5126C228.748 28.2285 228.442 28.9196 228.544 29.4983C228.761 30.7191 228.766 31.5947 228.887 32.4618C229.04 33.5676 229.209 34.866 229.328 35.7181C229.45 36.587 229.465 37.3065 229.565 38.0584C229.777 39.6635 229.846 40.9078 229.916 41.3921C230.157 43.0621 230.387 44.9033 230.531 45.9468C230.716 47.2874 230.821 48.0411 230.938 48.6357C231.097 49.4405 231.166 50.1476 231.263 51.0807C231.353 51.9385 231.466 52.4187 231.539 52.9461C231.65 53.7448 231.952 55.0791 232.19 56.964C232.282 57.6861 232.475 58.7577 232.589 59.5054C232.657 59.955 232.767 60.4341 232.849 61.1106C232.944 61.8957 233.077 62.868 233.249 63.6883C233.417 64.4878 233.554 65.346 233.708 66.1002C233.809 66.5932 233.927 67.0141 234.04 67.5253C234.153 68.0421 234.293 69.0033 234.348 69.6876C234.385 70.148 233.401 69.9908 232.361 70.1083C231.332 70.2245 230.543 70.4901 229.825 70.5747C229.106 70.6595 228.407 70.7824 227.852 70.8572C226.869 70.9897 224.984 71.3143 224.026 71.5646C223.77 71.6314 223.043 71.706 222.04 71.78C220.359 71.904 217.976 72.2291 217.38 72.3063C215.902 72.4979 213.722 72.6491 212.981 72.7621C211.419 73.0002 210.89 73.1469 210.146 73.2331C209.32 73.3287 208.186 73.4735 207.232 73.6946C206.473 73.8704 205.49 73.9092 204.515 74.0628C203.589 74.2087 202.842 74.3681 202.424 74.4485C202.221 74.4875 202.064 72.7954 201.909 70.4485C201.812 68.9804 201.656 68.285 201.569 67.5128C201.449 66.4662 201.212 65.4486 201.105 64.8023C200.91 63.6184 200.899 62.9625 200.789 62.2591C200.641 61.3162 200.595 60.6369 200.439 58.9405C200.32 57.6461 200.068 55.4764 199.927 54.2782C199.718 52.5111 199.594 51.7033 199.514 51.0667C199.478 50.7809 199.38 49.9756 199.3 48.8775C199.179 47.2092 198.953 45.1459 198.861 44.3077C198.787 43.6277 198.643 42.7135 198.501 41.0485C198.444 40.3759 198.303 39.7908 198.209 38.9237C198.144 38.3195 197.937 37.7951 197.865 37.2811C197.758 36.5233 197.595 35.7195 197.391 34.6134C197.275 34.0456 197.112 33.1341 196.98 32.3204C196.943 32.1583 196.88 32.0002 196.8 31.593" stroke="#131313" stroke-width="0.812429" stroke-linecap="round"/>
<path d="M202.959 41.674L206.108 63.4511L227.431 61.3109L224.19 39.5747C224.19 39.5747 210.089 41.4267 202.959 41.674Z" fill="#131313"/>
<path d="M209.588 27.194C209.579 27.0452 209.545 26.4925 209.558 25.3349C209.565 24.6521 209.71 23.7806 209.786 23.2702C209.936 22.2665 210.107 21.5696 210.236 20.9592C210.398 20.1978 210.529 19.8104 210.637 19.4704C210.695 19.2882 210.821 19.1422 210.915 19.0834C211.168 18.9255 211.473 19.986 211.76 20.4714C212.038 20.9396 212.382 21.5193 212.54 21.7667C212.746 22.0887 212.959 22.5857 213.136 22.9064C213.401 23.3847 213.46 23.6414 213.573 24.0112C213.733 24.4094 213.777 24.6483 213.793 24.7752C213.804 24.8426 213.823 24.9161 213.846 25.0369" stroke="#131313" stroke-width="0.812429" stroke-linecap="round"/>
<path d="M211.187 21.3369C211.211 21.3354 211.763 21.2153 212.743 20.9813C213.184 20.8665 213.513 20.7599 214.227 20.5977C214.942 20.4354 216.033 20.2208 217.269 19.9929" stroke="#131313" stroke-width="0.812429" stroke-linecap="round"/>
<path d="M211.013 19.6883C211.555 19.6308 212.166 19.544 213.227 19.374C213.957 19.2612 215.075 19.0945 215.682 19.0006C216.289 18.9067 216.35 18.8906 216.523 18.8299" stroke="#131313" stroke-width="0.812429" stroke-linecap="round"/>
<path d="M216.816 17.8537C216.849 18.4024 216.896 18.8687 216.968 19.0566C217.045 19.2556 217.042 19.4314 217.149 19.6496C217.25 19.8565 217.388 20.0472 217.614 20.2257C217.931 20.4765 218.176 20.3845 218.425 20.3929C218.541 20.3967 218.669 20.3273 218.793 20.2123C219.006 20.0151 219.051 19.6681 218.989 18.7052C218.961 18.2793 218.815 18.0714 218.627 17.6573C218.47 17.3128 218.222 17.2357 217.954 17.1393C217.804 17.0853 217.687 17.0615 217.588 17.0534C217.445 17.0415 217.323 17.0924 217.231 17.1818C217.002 17.5046 216.982 17.805 216.972 18.0309C216.97 18.0782 216.973 18.1151 216.975 18.1532" stroke="#131313" stroke-width="0.812429" stroke-linecap="round"/>
<path d="M210.838 19.8139C210.86 20.1868 210.852 20.3553 210.855 20.6452C210.849 20.927 210.881 21.1498 211.048 21.369C211.103 21.4269 211.162 21.479 211.222 21.5326" stroke="#131313" stroke-width="0.812429" stroke-linecap="round"/>
<path d="M194.665 28.1328C194.558 28.3203 194.081 28.7564 193.328 29.4913C193.328 29.4913 193.385 36.6495 193.947 40.1571C194.059 40.8513 194.123 42.0912 194.19 42.9318C194.229 43.4177 194.338 44.0084 194.379 44.5753C194.425 45.2234 194.499 45.9223 194.54 47.6552C194.56 48.4879 194.689 49.1262 194.756 50.1098C194.834 51.2548 194.85 51.9567 195.119 53.3549C195.237 53.9729 195.308 54.7289 195.496 55.7946C195.651 56.6741 195.712 57.1569 195.753 58.5277C195.774 59.2376 195.954 59.8775 196.062 61.1145C196.131 61.9041 196.278 62.383 196.318 62.9092C196.353 63.3583 196.439 63.7845 196.493 64.6049C196.55 65.464 196.682 66.1543 196.79 66.8151C196.911 67.5589 197.086 68.3091 197.127 68.9973C197.168 69.6877 197.247 70.1697 197.288 71.2051C197.321 72.0292 197.409 72.9986 197.45 73.4435C197.496 73.9493 197.652 74.3726 197.786 74.8442C197.975 75.5067 198.324 75.9083 198.741 76.2461C199.214 76.5023 199.536 76.8782 199.941 77.1489C200.049 77.2031 200.156 77.2564 200.508 77.3922" stroke="#131313" stroke-width="0.6681" stroke-linecap="round"/>
<path d="M55.9763 46.2404C55.9763 46.1805 55.9763 45.7903 56.141 44.0334C56.2723 42.6322 56.635 40.2106 56.8196 38.9014C57.0214 37.4706 57.065 36.7802 57.11 36.0081C57.153 35.2677 58.0286 38.7898 58.6505 40.0813C59.433 41.7063 59.5138 42.1567 59.6798 42.2329C60.1104 42.4306 60.6887 39.9965 61.3124 38.4419C61.8175 37.1831 61.9934 36.2349 62.2206 35.5971C62.3347 35.2771 62.3871 34.8414 62.4778 34.6282C62.8091 33.8498 62.5994 36.3166 62.8698 38.0926C63.043 39.2303 63.2599 41.2993 63.4282 42.4983C63.7789 44.5438 63.8387 45.6905 63.8846 46.9467C63.8995 47.2066 63.9295 47.3563 64.051 47.7827" stroke="#131313" stroke-width="0.6681" stroke-linecap="round"/>
<path d="M65.5024 46.9692C65.5324 45.7707 65.7129 42.8629 65.8345 41.5772C66.0603 39.1898 66.1974 38.6549 66.2432 37.8996C66.3002 36.9606 66.3789 36.1146 66.5903 35.5248C66.6502 35.3576 66.7109 35.1782 66.8017 35.1156C66.8924 35.053 67.0121 35.1129 67.0888 35.2037C67.4163 35.5912 67.6182 36.2597 68.1617 37.3929C68.5871 38.28 69.0372 39.9396 69.3425 41.1749C69.7232 42.7154 70.34 44.8189 70.492 45.3492C70.6131 45.9694 70.7038 46.4538 70.7492 46.6952C70.7646 46.8167 70.7646 46.9365 70.7646 47.0599" stroke="#131313" stroke-width="0.6681" stroke-linecap="round"/>
<path d="M65.8657 42.0664H70.0392" stroke="#131313" stroke-width="0.6681" stroke-linecap="round"/>
<path d="M57.8876 47.3438C57.8415 47.6503 57.7806 48.2156 57.6656 49.4465C57.5891 50.2649 57.5658 51.4838 57.527 52.1716C57.4814 52.9829 57.3961 53.7456 57.3424 54.7594C57.2901 55.7456 57.273 56.6713 57.3032 56.7711C57.3486 56.8101 57.4551 56.8253 58.6054 56.9016C59.7556 56.9779 61.9465 57.1148 64.2959 57.302" stroke="#131313" stroke-width="0.6681" stroke-linecap="round"/>
<path d="M66.4169 48.5469C66.4321 48.5469 66.4474 48.5469 66.4324 49.6727C66.4174 50.7985 66.3717 53.0502 66.3406 54.2406C66.2987 55.8442 66.2482 56.5522 66.2934 56.8214C66.3069 56.9019 66.4759 56.9063 67.2841 56.9143C68.0923 56.9224 69.5833 56.9072 70.397 56.9146C71.2107 56.9219 71.302 56.9524 71.4023 56.968C71.5025 56.9837 71.609 56.9837 71.7188 56.9837" stroke="#131313" stroke-width="0.6681" stroke-linecap="round"/>
<path d="M66.4629 48.5883C66.6759 48.6187 66.8889 48.6492 67.6832 48.6572C68.4776 48.6653 69.8468 48.6501 70.6511 48.627C71.4554 48.604 71.6532 48.5735 71.7931 48.5503C71.933 48.527 72.0091 48.5118 72.1335 48.4961" stroke="#131313" stroke-width="0.6681" stroke-linecap="round"/>
<path d="M66.0022 52.2773C66.6716 52.3382 67.4272 52.4152 68.6049 52.492C69.3709 52.5419 70.4825 52.5383 71.085 52.5537C71.6876 52.5692 71.7485 52.5844 71.8102 52.5922C71.872 52.6001 71.9329 52.6001 71.9956 52.6001" stroke="#131313" stroke-width="0.6681" stroke-linecap="round"/>
<path d="M55.9705 58.8203C55.9884 59.2365 56.0249 59.5982 56.3407 61.965C56.4939 63.1137 56.6771 63.7692 56.9024 64.8039C57.0916 65.6733 57.361 67.2569 57.5359 68.1605C57.8309 69.685 58.0366 70.5133 58.2093 71.2572C58.2519 71.4405 58.3086 71.6013 58.4082 71.5769C58.5077 71.5524 58.6514 71.3369 58.8959 70.9028C59.1404 70.4687 59.4815 69.8224 60.124 67.9366C60.7665 66.0508 61.7 62.945 62.2078 61.2912C62.7157 59.6374 62.7695 59.5297 62.8152 59.4293C62.8609 59.329 62.8968 59.2392 62.9338 59.0923" stroke="#131313" stroke-width="0.6681" stroke-linecap="round"/>
<path d="M67.6124 60.4531C67.6124 60.6686 67.5765 61.731 67.4233 63.9177C67.3366 65.1554 67.1086 66.6429 67.0069 67.4823C66.855 68.7355 66.8507 69.4968 66.8056 70.0533C66.7963 70.315 66.7784 70.5348 66.7512 70.7692C66.7419 70.9319 66.7419 71.1832 66.7419 71.4422" stroke="#131313" stroke-width="0.6681" stroke-linecap="round"/>
<path d="M62.6074 71.9877C62.6254 71.9877 62.6433 71.9877 64.0259 71.9698C65.4085 71.9518 68.1553 71.9159 70.9852 71.8789" stroke="#131313" stroke-width="0.6681" stroke-linecap="round"/>
<path d="M64.9468 59.8516C66.921 59.9604 67.6641 59.9963 68.6107 60.0596C70.3651 60.1051 71.6185 60.1415 71.9528 60.1687C72.1435 60.178 72.3769 60.178 72.7262 60.2324" stroke="#131313" stroke-width="0.6681" stroke-linecap="round"/>
<path d="M60.2359 74.6495C60.1699 74.5836 60.0535 74.5331 59.5907 74.5081C58.536 74.4512 57.4425 74.5491 56.5216 74.7641C55.3041 75.0485 54.4274 75.7295 53.9453 76.1698C53.0569 76.9814 52.694 78.1432 52.6016 78.586C52.5659 78.7571 52.5766 78.9279 52.5434 79.4484C52.4651 80.6757 52.5591 81.7073 52.692 82.0979C52.8001 82.4157 53.1731 82.9047 53.7048 83.5531C54.1306 84.0722 54.6387 84.3723 55.1946 84.638C55.4982 84.7831 55.866 84.9038 56.4237 85.0129C57.7128 85.2652 58.8172 85.2894 59.4816 85.24C60.634 84.8908 61.166 84.5911 61.7075 84.1343C61.8334 83.9921 61.9323 83.8438 62.0841 83.591" stroke="#131313" stroke-width="0.6681" stroke-linecap="round"/>
<path d="M64.9814 74.3516C64.9814 74.467 64.9814 74.5823 64.9567 75.7215C64.932 76.8607 64.8825 79.0201 64.8405 80.2562C64.7986 81.4923 64.7656 81.7396 64.7321 82.5181C64.6987 83.2966 64.6657 84.5989 64.6405 85.2285C64.6153 85.8582 64.5988 85.7757 64.6068 85.6921C64.6148 85.6084 64.6477 85.526 64.6817 85.4411" stroke="#131313" stroke-width="0.6681" stroke-linecap="round"/>
<path d="M64.3818 79.6953C64.6126 79.7118 64.8434 79.7283 65.6299 79.7368C66.4164 79.7453 67.7516 79.7453 69.2272 79.6953" stroke="#131313" stroke-width="0.6681" stroke-linecap="round"/>
<path d="M69.8771 74.6016C69.8771 74.8818 69.8771 75.162 69.8441 76.5592C69.8112 77.9564 69.7452 80.462 69.736 81.9012C69.7268 83.3403 69.7762 83.637 69.8017 83.8805C69.8272 84.124 69.8272 84.3054 69.8272 84.4922" stroke="#131313" stroke-width="0.6681" stroke-linecap="round"/>
<path d="M200.862 158.647C201.079 158.574 201.569 158.417 202.528 158.152C204.297 157.662 206.162 157.578 207.195 157.66C208.081 157.731 208.798 157.949 209.354 158.041C210.348 158.204 211.271 158.698 212.062 159.079C212.773 159.421 213.711 159.837 214.195 160.073C215.054 160.493 216.152 160.856 217.111 161.142C218.294 161.496 219.26 161.423 220.408 161.569C221.424 161.699 222.422 161.688 223.225 161.7C223.841 161.71 224.696 161.579 225.302 161.616C225.829 161.649 225.868 162.619 226.044 163.845C226.244 165.245 225.003 165.816 223.925 166.44C223.009 166.971 221.877 167.464 220.298 167.956C218.461 168.528 217.018 168.588 216.431 168.547C215.606 168.468 215 168.384 214.743 168.334C214.609 168.317 214.465 168.318 214.132 168.268" stroke="#131313" stroke-width="1.1135" stroke-linecap="round"/>
<path d="M210.066 164.66C210.059 165.004 209.855 165.886 209.444 166.697C208.934 167.704 208.689 168.457 208.313 169.165C207.912 169.92 207.498 170.535 206.789 171.196C206.026 171.907 205.105 172.892 203.545 173.993C202.018 174.895 201.481 175.272 201.183 175.408C201.025 175.479 200.85 175.552 200.67 175.627" stroke="#131313" stroke-width="1.1135" stroke-linecap="round"/>
<path d="M207.766 170.592C207.808 170.802 207.886 171.19 208.01 171.716C208.078 171.961 208.155 172.164 208.265 172.619C208.376 173.074 208.517 173.774 208.662 174.495" stroke="#131313" stroke-width="1.1135" stroke-linecap="round"/>
<path d="M213.652 169.459C214.221 169.78 214.941 170.183 215.561 170.509C215.994 170.736 216.745 171.038 217.365 171.317C218.458 171.807 220.259 172.629 221.087 173.046C221.71 173.359 222.92 174.131 224.372 174.906C225.017 175.25 225.986 175.787 227.287 176.604C228.14 177.14 228.543 177.735 228.967 178.245C229.441 178.816 229.676 179.594 229.763 180.139C229.871 180.816 229.23 181.477 228.897 181.82C228.581 182.146 228.141 182.34 227.612 182.562C227.028 182.807 226.205 182.869 225.722 182.817C224.988 182.737 223.838 182.404 223.087 182.144C221.889 181.73 221.058 181.15 220.721 180.955C219.792 180.415 218.516 179.899 217.809 179.496C217.181 179.138 216.345 178.609 215.866 178.395C215.338 178.158 214.672 178.049 214.21 177.924C213.865 177.8 213.571 177.719 213.383 177.7C213.288 177.685 213.192 177.658 213.026 177.645" stroke="#131313" stroke-width="1.1135" stroke-linecap="round"/>
<path d="M212.509 177.125C212.466 177.134 212.439 177.23 212.446 177.435C212.463 177.956 213.349 178.695 213.892 179.153C214.383 179.567 215.231 180.177 215.898 180.564C216.532 180.932 217.307 181.233 218.07 181.617C220.075 182.625 220.426 183.039 221.088 183.479C221.874 184.001 222.269 184.436 222.733 184.916C223.257 185.46 223.71 186.233 224.122 187.024C224.301 187.368 224.402 187.954 224.432 188.67C224.48 189.794 223.177 190.177 222.688 190.495C221.839 191.047 220.422 190.987 219.882 190.867C218.569 190.575 217.542 189.571 217.095 189.121C216.293 188.313 215.512 187.8 214.223 186.533C213.121 185.451 211.945 183.9 211.543 183.384C211.038 182.933 210.598 182.792 209.955 182.395C209.802 182.264 209.684 182.129 209.496 182.003" stroke="#131313" stroke-width="1.1135" stroke-linecap="round"/>
<path d="M209.016 181.008C208.835 181.211 208.688 181.406 208.598 181.585C208.438 181.903 208.721 182.764 209.033 183.398C209.277 183.894 209.579 184.08 210.025 184.729C210.218 185.01 210.472 185.38 210.998 186.178C211.9 187.549 212.653 188.399 212.807 188.559C213.167 188.937 213.297 189.44 213.674 190.453C214.043 191.443 214.094 192.198 213.998 192.427C213.851 192.779 213.648 193.036 213.272 193.333C212.845 193.67 212.392 193.748 211.57 193.975C211.024 194.124 210.531 193.855 210.143 193.68C209.407 193.348 208.448 192.648 208 192.249C207.208 191.543 207.011 191.109 206.632 190.527C206.481 190.295 206.394 190.098 206.105 189.582C205.43 188.382 205.041 187.415 204.971 187.193C204.706 186.41 204.323 185.157 204.158 184.845C204.117 184.768 204.079 184.702 203.955 184.541" stroke="#131313" stroke-width="1.1135" stroke-linecap="round"/>
<path d="M201.541 158.375C200.896 158.505 199.46 158.755 198.885 158.734C198.401 158.717 197.757 158.766 197.19 158.772C196.7 158.778 196.186 158.769 195.731 158.792C195.047 158.827 193.962 159.08 193.213 159.357C192.697 159.548 192.463 160.025 191.856 160.636C191.346 161.148 190.929 161.839 190.616 162.565C190.076 163.822 190.192 164.586 190.107 165.843C190.071 166.383 190.001 166.893 189.978 167.378C189.96 167.774 189.934 168.081 189.936 168.413C189.938 168.843 189.957 169.384 190.289 171.093C190.412 171.723 190.742 172.315 191.354 173.247C192.07 174.338 192.787 174.563 193.614 175.042C194.108 175.328 194.59 175.492 195.003 175.644C195.455 175.81 195.889 176.091 196.286 176.266C196.613 176.41 196.812 176.765 197.006 177.127C197.272 177.625 197.677 178.677 198.164 179.522C198.448 180.014 198.912 180.584 199.397 181.092C200.028 181.755 200.206 182.123 200.472 182.363C200.788 182.649 201.114 182.84 201.406 183.094C201.757 183.401 202.249 183.706 202.606 183.909C203.03 184.116 203.504 184.296 203.679 184.357C203.765 184.399 203.842 184.461 203.922 184.525" stroke="#131313" stroke-width="1.1135" stroke-linecap="round"/>
<path d="M196.811 158.079C196.695 157.506 196.464 156.559 196.222 155.719C196.175 155.554 196.035 155.548 195.852 155.564C195.41 155.602 194.981 155.759 194.243 156.123C192.697 156.886 191.561 157.563 191.242 157.823C190.682 158.28 190.263 158.507 189.349 159.196C188.623 159.743 187.747 161.071 187.276 161.909C187.192 162.059 186.933 162.81 186.611 163.877C186.323 164.828 186.498 166.309 186.542 166.945C186.586 167.565 186.71 168.6 187.004 170.265C187.173 171.225 187.572 172.988 187.795 173.943C188.112 175.299 188.693 176.204 189.012 176.703C189.202 177 189.23 177.321 189.331 177.466C189.598 177.848 190.41 177.231 190.806 176.995C191.221 176.749 191.402 176.308 191.716 175.965C191.855 175.782 192.006 175.606 192.178 175.437C192.264 175.348 192.346 175.249 192.479 175.076" stroke="#131313" stroke-width="1.1135" stroke-linecap="round"/>
<path d="M196.084 155.239C195.879 155.208 195.351 155.098 194.005 154.753C192.769 154.436 192.551 154.082 192.26 153.905C191.662 153.539 190.434 154.109 190.025 154.109C189.602 154.11 189.188 153.961 188.814 153.728C188.445 153.499 187.928 153.47 187.617 153.46C187.31 153.45 186.906 153.62 186.399 153.894C185.484 154.389 184.871 155.115 184.351 155.622C184.088 155.878 183.711 156.401 183.237 157.069C182.332 158.344 182.292 158.739 182.165 159.101C181.958 159.693 181.741 160.769 181.629 161.394C181.381 162.787 181.678 164.433 181.701 164.728C181.727 165.069 181.694 166.218 181.821 167.487C181.889 168.175 181.843 168.863 181.9 169.594C181.929 169.971 181.974 170.504 181.994 170.92C182.017 171.385 182.053 172.069 182.072 173.287C182.082 173.908 182.261 174.997 182.49 175.547C182.605 175.827 183.019 175.885 183.502 175.988C184.024 176.099 184.529 175.909 184.86 176.013C185.309 176.155 185.602 176.996 185.825 177.334C186.034 177.651 186.374 177.95 186.831 178.102C187.02 178.182 187.178 178.242 187.552 178.221C187.85 178.18 188.368 178.075 188.891 177.916" stroke="#131313" stroke-width="1.1135" stroke-linecap="round"/>
<path d="M195.148 157.535C194.454 157.961 194.137 158.121 193.911 158.309C193.556 158.635 193.157 159.034 192.99 159.266C192.895 159.389 192.78 159.522 192.634 159.761" stroke="#131313" stroke-width="1.1135" stroke-linecap="round"/>
<path d="M189.964 169.277C189.918 169.523 189.968 170.403 190.004 170.86C190.035 171.251 190.107 171.651 190.132 172.013C190.154 172.277 190.167 172.5 190.196 172.763C190.228 172.963 190.295 173.296 190.364 173.64" stroke="#131313" stroke-width="1.1135" stroke-linecap="round"/>
<path d="M193.112 153.759C192.938 152.893 192.548 151.289 192.265 150.302C192.076 149.64 190.784 149.859 189.048 150.039C187.876 150.161 185.769 150.632 184.48 150.924C181.85 151.52 180.779 152.441 180.14 152.856C179.453 153.301 178.707 153.833 178.092 154.461C177.439 155.129 176.72 155.978 176.258 156.88C175.828 157.721 175.027 159.903 174.494 161.805C174.134 163.087 173.639 165.231 173.26 167.357C173.088 168.327 172.988 168.702 172.934 169.348C172.698 172.205 172.671 174.48 172.567 175.458C172.447 176.585 172.372 177.664 172.434 178.73C172.471 179.362 173.141 179.833 173.669 180.365C174.221 180.923 175.265 181.053 176.503 181.007C178.243 180.943 181.117 180.047 181.964 179.658C183.006 179.06 183.483 178.764 185.094 177.852C185.448 177.661 185.569 177.603 185.946 177.292" stroke="#131313" stroke-width="1.1135" stroke-linecap="round"/>
<path d="M181.754 174.253C181.587 174.086 180.93 173.816 179.644 173.269C178.638 172.841 177.527 172.617 176.787 172.447C176.175 172.307 175.344 172.116 174.478 172.003C174.171 171.981 173.841 172.013 173.483 172.069C173.317 172.085 173.182 172.079 172.947 172.092" stroke="#131313" stroke-width="1.1135" stroke-linecap="round"/>
<path d="M185.316 153.362C184.796 153.434 183.364 152.986 182.508 152.433C182.195 152.211 181.896 152.067 181.625 151.971C181.495 151.913 181.379 151.836 181.067 151.796" stroke="#131313" stroke-width="1.1135" stroke-linecap="round"/>
<path d="M192.037 149.556C191.826 149.47 191.303 149.121 190.759 148.921C190.247 148.733 189.735 148.591 189.151 148.514C188.975 148.49 188.757 148.56 188.615 148.508C188.066 148.309 187.91 147.597 187.622 147.135C187.311 146.636 186.563 146.697 186.006 146.679C184.422 146.628 181.399 147.637 180.319 148.099C179.603 148.404 178.64 148.777 177.467 149.321C175.776 150.106 174.593 151.084 173.377 151.994C172.781 152.441 172.42 153.208 171.784 154.488C171.41 155.241 170.961 155.97 170.575 156.633C170.151 157.36 169.945 158.025 169.573 158.75C169.201 159.474 168.934 160.885 168.767 161.85C168.631 162.636 168.219 163.79 167.916 164.716C167.703 165.368 167.565 166.037 167.311 167.189C167.004 168.581 166.752 169.576 166.68 170.192C166.569 171.132 166.791 172.036 166.945 173.043C167.084 173.96 167.176 175.233 167.32 176.441C167.439 177.436 167.435 178.46 167.685 179.631C167.751 179.94 168.464 179.721 169.04 179.686C169.751 179.642 170.014 180.479 170.644 180.791C171.151 181.041 171.91 180.878 172.614 180.817C173.217 180.745 173.753 180.831 175.434 180.575C175.801 180.517 175.931 180.523 176.065 180.529" stroke="#131313" stroke-width="1.1135" stroke-linecap="round"/>
<path d="M62.5648 160.483C62.3483 160.41 61.8578 160.253 60.899 159.988C59.1305 159.498 57.265 159.414 56.2319 159.496C55.3464 159.567 54.629 159.785 54.0731 159.877C53.0796 160.04 52.1559 160.534 51.3648 160.915C50.6543 161.257 49.7158 161.673 49.2318 161.909C48.3737 162.329 47.2754 162.692 46.3159 162.978C45.1335 163.332 44.1676 163.259 43.0196 163.405C42.0028 163.535 41.0055 163.524 40.2018 163.536C39.5864 163.546 38.7312 163.415 38.1256 163.452C37.5979 163.485 37.5593 164.455 37.3836 165.681C37.1829 167.081 38.4239 167.652 39.5018 168.276C40.4183 168.807 41.5498 169.3 43.1294 169.792C44.9658 170.364 46.4095 170.424 46.9966 170.383C47.8215 170.304 48.4277 170.22 48.6841 170.17C48.8187 170.153 48.9625 170.154 49.2951 170.104" stroke="#131313" stroke-width="1.1135" stroke-linecap="round"/>
<path d="M53.3618 166.492C53.3685 166.836 53.5724 167.718 53.9835 168.529C54.4939 169.536 54.739 170.289 55.1146 170.997C55.5151 171.753 55.9291 172.367 56.6382 173.028C57.401 173.739 58.3223 174.724 59.882 175.825C61.4093 176.727 61.9469 177.104 62.244 177.24C62.4028 177.311 62.5776 177.384 62.7577 177.459" stroke="#131313" stroke-width="1.1135" stroke-linecap="round"/>
<path d="M55.6617 172.428C55.6195 172.638 55.5413 173.026 55.4173 173.552C55.3496 173.797 55.2723 174 55.1621 174.455C55.0518 174.91 54.9109 175.61 54.7657 176.331" stroke="#131313" stroke-width="1.1135" stroke-linecap="round"/>
<path d="M49.7758 171.291C49.207 171.612 48.4866 172.015 47.8669 172.341C47.4341 172.568 46.6832 172.87 46.0627 173.149C44.97 173.639 43.1695 174.461 42.3409 174.878C41.7179 175.191 40.5085 175.963 39.0557 176.738C38.4105 177.082 37.4417 177.619 36.141 178.436C35.2885 178.972 34.8853 179.567 34.4613 180.077C33.9865 180.648 33.7519 181.426 33.665 181.971C33.557 182.648 34.1981 183.309 34.5307 183.652C34.8472 183.978 35.2865 184.172 35.816 184.394C36.4002 184.639 37.2232 184.701 37.7056 184.649C38.4405 184.569 39.59 184.236 40.3412 183.976C41.5388 183.562 42.3699 182.982 42.7065 182.787C43.6362 182.247 44.9122 181.731 45.6187 181.328C46.2474 180.97 47.0826 180.441 47.5623 180.227C48.0904 179.99 48.7563 179.881 49.2182 179.756C49.5629 179.632 49.8575 179.551 50.0446 179.532C50.14 179.517 50.2362 179.49 50.4015 179.477" stroke="#131313" stroke-width="1.1135" stroke-linecap="round"/>
<path d="M50.9183 178.961C50.962 178.97 50.9887 179.066 50.982 179.271C50.9648 179.792 50.0788 180.531 49.5353 180.989C49.0449 181.403 48.196 182.013 47.53 182.4C46.8959 182.768 46.121 183.068 45.3572 183.453C43.353 184.461 43.0019 184.875 42.3399 185.315C41.5534 185.837 41.1584 186.272 40.6949 186.752C40.1703 187.295 39.7179 188.069 39.3056 188.859C39.1261 189.204 39.0258 189.79 38.9953 190.506C38.9474 191.63 40.2508 192.013 40.7396 192.331C41.5884 192.883 43.0059 192.823 43.546 192.703C44.8584 192.411 45.885 191.407 46.3322 190.957C47.1345 190.149 47.9154 189.636 49.2048 188.369C50.3063 187.287 51.4821 185.736 51.8845 185.22C52.389 184.769 52.8293 184.628 53.4721 184.231C53.6258 184.1 53.744 183.965 53.9319 183.839" stroke="#131313" stroke-width="1.1135" stroke-linecap="round"/>
<path d="M54.4125 182.844C54.5933 183.047 54.7402 183.242 54.8302 183.421C54.9899 183.739 54.7071 184.599 54.3946 185.234C54.1505 185.73 53.8494 185.916 53.4031 186.565C53.21 186.846 52.9557 187.216 52.4303 188.014C51.5281 189.385 50.7747 190.235 50.6214 190.395C50.2608 190.773 50.1305 191.276 49.7536 192.289C49.3852 193.279 49.3335 194.034 49.4295 194.263C49.5767 194.615 49.7795 194.872 50.1555 195.169C50.583 195.506 51.036 195.584 51.8585 195.81C52.4039 195.96 52.8968 195.691 53.2847 195.516C54.0215 195.184 54.9804 194.484 55.4276 194.085C56.2197 193.379 56.4173 192.945 56.7962 192.363C56.9475 192.131 57.0336 191.934 57.3233 191.418C57.9982 190.218 58.3865 189.251 58.4572 189.029C58.7219 188.246 59.1047 186.993 59.2701 186.681C59.311 186.604 59.3489 186.538 59.473 186.377" stroke="#131313" stroke-width="1.1135" stroke-linecap="round"/>
<path d="M61.8869 160.207C62.5322 160.337 63.9682 160.588 64.5424 160.566C65.027 160.549 65.6706 160.598 66.2377 160.604C66.7274 160.61 67.2422 160.601 67.6968 160.624C68.3808 160.659 69.466 160.912 70.2147 161.189C70.7304 161.38 70.9645 161.857 71.5721 162.468C72.0822 162.98 72.4992 163.671 72.8114 164.397C73.3521 165.654 73.2356 166.418 73.3205 167.675C73.3569 168.215 73.4263 168.725 73.4493 169.21C73.4681 169.606 73.4938 169.913 73.4921 170.245C73.4899 170.675 73.4712 171.216 73.1387 172.925C73.0162 173.555 72.6861 174.147 72.074 175.079C71.3576 176.17 70.6403 176.396 69.8135 176.874C69.3197 177.16 68.8379 177.324 68.4245 177.476C67.9729 177.642 67.5383 177.923 67.1418 178.098C66.8146 178.242 66.6152 178.597 66.4218 178.959C66.1559 179.457 65.7507 180.509 65.2633 181.354C64.9798 181.846 64.5154 182.416 64.0307 182.924C63.3992 183.587 63.2216 183.955 62.9554 184.195C62.6394 184.481 62.3135 184.672 62.0222 184.926C61.671 185.233 61.1788 185.538 60.8212 185.741C60.3978 185.948 59.9242 186.128 59.7483 186.19C59.6629 186.231 59.5856 186.293 59.506 186.357" stroke="#131313" stroke-width="1.1135" stroke-linecap="round"/>
<path d="M66.6167 159.911C66.732 159.338 66.9634 158.391 67.2048 157.551C67.2523 157.386 67.3927 157.38 67.5753 157.396C68.0171 157.434 68.4462 157.591 69.1842 157.955C70.7303 158.718 71.8664 159.395 72.1852 159.655C72.7451 160.112 73.1643 160.339 74.0782 161.028C74.8045 161.575 75.6798 162.903 76.151 163.741C76.2354 163.891 76.494 164.642 76.8166 165.709C77.1041 166.66 76.929 168.141 76.8847 168.777C76.8416 169.397 76.7173 170.432 76.4234 172.097C76.2538 173.057 75.8552 174.82 75.632 175.775C75.3149 177.131 74.734 178.036 74.4149 178.535C74.2252 178.832 74.1972 179.153 74.0961 179.298C73.8296 179.68 73.0177 179.063 72.6208 178.827C72.2067 178.581 72.0251 178.14 71.7114 177.797C71.5726 177.614 71.4214 177.438 71.2491 177.27C71.1633 177.18 71.0808 177.081 70.9482 176.908" stroke="#131313" stroke-width="1.1135" stroke-linecap="round"/>
<path d="M67.3438 157.067C67.5487 157.036 68.0765 156.926 69.4229 156.581C70.6588 156.265 70.8775 155.91 71.1676 155.733C71.7663 155.367 72.9939 155.937 73.4031 155.937C73.8255 155.938 74.2397 155.789 74.6143 155.556C74.983 155.327 75.5001 155.298 75.8113 155.288C76.1184 155.278 76.5215 155.448 77.0287 155.722C77.9438 156.217 78.5569 156.943 79.0773 157.45C79.3402 157.706 79.7165 158.229 80.1907 158.897C81.0956 160.172 81.1359 160.567 81.2626 160.929C81.4701 161.521 81.6874 162.597 81.7989 163.222C82.0474 164.615 81.7501 166.261 81.7272 166.556C81.7007 166.897 81.7339 168.046 81.6074 169.315C81.5388 170.003 81.5845 170.692 81.5277 171.423C81.4985 171.799 81.4536 172.332 81.4335 172.748C81.4111 173.213 81.3748 173.897 81.3556 175.115C81.3458 175.736 81.1665 176.825 80.9384 177.375C80.8226 177.655 80.4086 177.713 79.9258 177.816C79.4043 177.927 78.8993 177.737 78.5676 177.842C78.1191 177.983 77.8259 178.824 77.6029 179.162C77.3941 179.479 77.0536 179.778 76.5967 179.931C76.408 180.01 76.2501 180.07 75.876 180.049C75.5779 180.008 75.06 179.903 74.5369 179.744" stroke="#131313" stroke-width="1.1135" stroke-linecap="round"/>
<path d="M68.2798 159.367C68.9733 159.793 69.2912 159.953 69.5164 160.141C69.8719 160.467 70.2703 160.866 70.4378 161.098C70.5327 161.221 70.6477 161.354 70.7937 161.593" stroke="#131313" stroke-width="1.1135" stroke-linecap="round"/>
<path d="M73.4639 171.105C73.5095 171.351 73.4599 172.231 73.4238 172.688C73.3929 173.079 73.3206 173.479 73.2952 173.841C73.2737 174.106 73.2609 174.328 73.2318 174.592C73.1998 174.791 73.1327 175.124 73.0636 175.468" stroke="#131313" stroke-width="1.1135" stroke-linecap="round"/>
<path d="M70.3156 155.591C70.49 154.725 70.8795 153.121 71.1623 152.134C71.352 151.472 72.644 151.691 74.3799 151.871C75.5518 151.993 77.6588 152.464 78.9481 152.756C81.578 153.352 82.6486 154.273 83.2879 154.688C83.9751 155.134 84.7208 155.665 85.3352 156.293C85.9889 156.961 86.7078 157.81 87.1692 158.712C87.5993 159.553 88.401 161.735 88.9341 163.637C89.2935 164.919 89.7888 167.063 90.1673 169.189C90.3398 170.159 90.4398 170.534 90.4933 171.18C90.7299 174.037 90.7564 176.312 90.8607 177.29C90.9809 178.417 91.0558 179.496 90.9934 180.562C90.9564 181.194 90.2863 181.665 89.7585 182.197C89.2065 182.755 88.1625 182.885 86.925 182.84C85.185 182.775 82.311 181.879 81.4639 181.49C80.4216 180.893 79.9447 180.596 78.3338 179.684C77.9799 179.493 77.8583 179.436 77.4813 179.124" stroke="#131313" stroke-width="1.1135" stroke-linecap="round"/>
<path d="M81.6741 176.089C81.8409 175.922 82.4984 175.652 83.7842 175.105C84.7897 174.677 85.901 174.453 86.6412 174.283C87.2533 174.143 88.0837 173.952 88.9496 173.839C89.2567 173.817 89.5871 173.849 89.9451 173.904C90.1112 173.921 90.2456 173.915 90.481 173.928" stroke="#131313" stroke-width="1.1135" stroke-linecap="round"/>
<path d="M78.1123 155.194C78.6323 155.266 80.064 154.818 80.9197 154.265C81.2328 154.043 81.532 153.899 81.8031 153.803C81.9333 153.745 82.0485 153.668 82.3612 153.628" stroke="#131313" stroke-width="1.1135" stroke-linecap="round"/>
<path d="M71.3902 151.384C71.6014 151.298 72.1244 150.949 72.6687 150.749C73.1803 150.562 73.6921 150.419 74.2759 150.342C74.4526 150.318 74.6703 150.388 74.8127 150.336C75.3616 150.137 75.5168 149.425 75.8051 148.963C76.1161 148.464 76.8647 148.525 77.4215 148.507C79.0048 148.456 82.0285 149.465 83.1078 149.927C83.8239 150.233 84.7873 150.605 85.9604 151.149C87.651 151.934 88.8345 152.912 90.0499 153.822C90.6466 154.269 91.0074 155.036 91.6434 156.316C92.0173 157.069 92.4658 157.798 92.8524 158.461C93.2762 159.188 93.4819 159.853 93.8546 160.578C94.2267 161.302 94.4937 162.714 94.6604 163.678C94.7963 164.464 95.2085 165.618 95.5113 166.545C95.7243 167.196 95.8626 167.865 96.1166 169.018C96.4233 170.41 96.6755 171.404 96.7477 172.02C96.8581 172.961 96.6361 173.864 96.4827 174.871C96.3429 175.788 96.2517 177.062 96.107 178.269C95.9878 179.264 95.9919 180.288 95.742 181.459C95.6761 181.768 94.9636 181.55 94.3869 181.514C93.6766 181.47 93.4135 182.307 92.7829 182.619C92.2759 182.87 91.5176 182.706 90.8135 182.646C90.2101 182.573 89.6746 182.659 87.9934 182.403C87.6262 182.345 87.4964 182.351 87.3627 182.357" stroke="#131313" stroke-width="1.1135" stroke-linecap="round"/>
</svg>
