<svg width="238" height="143" viewBox="0 0 238 143" fill="none" xmlns="http://www.w3.org/2000/svg">
<path d="M87.3704 72.9492C87.5077 72.9977 87.645 73.0461 92.7738 73.4103C97.9027 73.7744 108.019 74.4528 113.459 74.8507C119.362 75.2824 120.561 75.4938 121.762 75.5915C122.231 75.6407 122.414 75.6891 122.669 75.7383C122.923 75.7875 123.244 75.836 123.574 75.8859" stroke="#131313" stroke-width="1.14714" stroke-linecap="round"/>
<path d="M87.2261 72.9668C87.2261 72.0539 87.6098 69.2484 87.9762 67.5934C89.4201 61.0698 93.4344 54.6869 100.825 54.3847C113.489 53.867 121.368 62.7791 123.397 74.3681C123.422 74.6588 123.422 75.0426 123.567 75.8741" stroke="#131313" stroke-width="1.14714" stroke-linecap="round"/>
<path d="M133.118 76.1641C133.237 76.1641 133.355 76.1641 140.019 76.4518C146.684 76.7395 159.89 77.3149 173.497 77.9077" stroke="#131313" stroke-width="1.14714" stroke-linecap="round"/>
<path d="M133.04 75.9512C133.944 67.101 142.026 53.931 157.198 54.8937C168.573 55.6155 174.409 67.0505 173.354 77.4747" stroke="#131313" stroke-width="1.14714" stroke-linecap="round"/>
<path d="M105.855 60.2031C105.855 60.5077 105.754 61.5023 105.6 62.8857C105.514 63.6569 105.472 64.5044 105.356 65.6178C105.265 66.4989 105.292 67.0728 105.228 67.9766C105.087 69.9689 105.061 71.4064 105.022 71.6875C104.977 72.0166 106.786 72.2025 109.542 72.2152C110.932 72.2216 111.494 72.3302 112.135 72.4329C112.29 72.4577 112.417 72.484 112.52 72.4463C112.623 72.4086 112.7 72.3071 112.726 71.2014C112.753 70.0957 112.727 67.9889 112.727 66.8528C112.726 65.3056 112.957 64.5398 113.085 63.8464C113.222 63.1123 113.213 62.2307 113.163 61.5134C113.141 61.1887 112.677 61.1777 112.472 61.1392C112.267 61.1262 110.792 60.8469 108.423 60.4239C107.425 60.28 106.841 60.28 106.24 60.28" stroke="#131313" stroke-width="1.14714" stroke-linecap="round"/>
<path d="M158.322 63.0881C158.285 63.0881 158.248 63.1792 158.193 64.2015C158.143 65.132 158.102 66.9009 158.065 67.8574C158.011 69.2394 157.88 70.0818 157.825 70.682C157.786 71.1054 157.622 71.6473 157.594 72.0454C157.561 72.5201 157.401 73.2494 157.373 73.6656C157.358 73.8957 157.273 74.2266 157.244 74.5578C157.233 74.6906 157.38 74.7431 158.376 74.7257C159.371 74.7083 161.248 74.6172 162.27 74.5611C163.607 74.4878 164.046 74.4316 164.397 74.4037C164.546 74.3918 165.002 74.3575 165.582 73.8927C165.976 73.5769 165.779 72.4981 165.761 71.8642C165.743 71.2302 165.707 70.9203 165.679 70.2685C165.609 68.633 165.595 67.4903 165.568 67.0144C165.477 65.4484 165.614 64.605 165.66 63.7634C165.674 63.4976 165.669 63.0781 164.475 62.853C163.281 62.6279 160.893 62.6097 159.626 62.6094C158.359 62.6091 158.286 62.6273 158.101 62.6461" stroke="#131313" stroke-width="1.14714" stroke-linecap="round"/>
<path d="M123.727 81.3398C123.749 81.3398 123.77 81.3398 125.836 81.3829C127.901 81.4259 132.01 81.5119 134.18 81.567C136.351 81.6221 136.458 81.6436 136.47 81.6654C136.61 81.9121 135.81 81.8392 135.289 82.0667C134.768 82.2939 134.355 82.8365 133.682 83.6618C133.448 83.9483 133.03 84.3782 132.445 85.2011C131.763 86.1602 131.119 87.245 130.532 88.0592C129.909 88.9251 129.357 89.7905 129.074 90.2468C129.006 90.3553 128.943 90.4424 128.878 90.519C128.812 90.5956 128.748 90.6601 128.672 90.532C128.192 89.7261 128.247 89.2078 127.76 88.2965C127.486 87.7831 126.947 87.0162 126.153 85.7992C125.255 84.4237 124.816 83.6461 124.392 82.9395C124.207 82.6462 124.054 82.3841 123.945 82.1348C123.901 82.0145 123.88 81.907 123.792 81.6658" stroke="#131313" stroke-width="1.14714" stroke-linecap="round"/>
<path d="M128.72 90.1917C128.62 90.4273 128.471 90.6403 128.546 91.2972C128.589 91.6795 128.843 92.066 129.092 92.4813C129.366 92.9379 129.837 93.2312 130.518 93.6453C131.686 94.3558 132.544 94.4556 133.142 94.5056C133.762 94.5575 135.227 94.3549 136.954 93.6453C137.939 92.915 138.685 92.047 139.17 91.0127C139.259 90.6474 139.283 90.1784 139.309 89.6953" stroke="#131313" stroke-width="1.14714" stroke-linecap="round"/>
<path d="M128.572 89.9825C128.514 90.2227 128.223 91.081 127.901 91.8262C127.451 92.8715 126.412 93.1558 125.711 93.5013C125.089 93.8079 124.571 93.9509 123.651 94.0544C123.029 94.1245 122.496 94.1238 121.417 93.9696C119.952 93.7601 119.631 93.2966 119.135 92.892C118.117 92.0617 117.906 91.0199 117.862 90.5708C117.847 90.4665 117.818 90.3811 117.803 90.2004C117.789 90.0198 117.789 89.7465 117.789 89.4648" stroke="#131313" stroke-width="1.14714" stroke-linecap="round"/>
<path d="M90.2815 77.3241C90.1178 77.3092 89.0901 77.2791 87.7647 77.294C86.9576 77.303 86.1937 77.473 85.2216 77.7343C83.5462 78.1846 83.206 78.6878 83.1086 78.8222C83.0074 78.9619 83.0405 79.2711 83.0701 79.6154C83.0934 79.8847 83.2946 80.037 83.5257 80.1715C83.895 80.3863 84.5953 80.5165 85.8114 80.6737C86.5936 80.7747 87.7251 80.7863 88.9741 80.7573C90.2231 80.7283 91.5588 80.6244 92.2989 80.5486C93.4244 80.4334 93.9821 80.2034 94.3804 79.9936C94.6189 79.868 94.7337 79.5891 94.8011 79.3424C94.8704 79.0891 94.7944 78.8542 94.7197 78.697C94.6539 78.5583 94.2574 78.39 93.3475 78.0316C92.7446 77.794 91.8143 77.5544 90.6946 77.3945C89.575 77.2346 88.2837 77.1901 87.5888 77.1745C86.894 77.159 86.8346 77.1739 86.7734 77.1892" stroke="#131313" stroke-width="1.14714" stroke-linecap="round"/>
<path d="M173.335 81.7502C173.237 81.7502 172.255 81.7502 170.586 81.8238C169.316 81.8797 168.681 82.2449 168.153 82.4049C167.072 82.7319 166.255 82.9134 166.057 83.0366C165.835 83.1754 165.71 83.4325 165.635 83.7408C165.534 84.1603 165.659 84.5466 165.77 84.7691C166.056 85.3408 166.995 85.6362 168.732 85.81C170.532 85.99 171.798 85.8108 172.291 85.7737C173.725 85.6655 174.421 85.6377 175.349 85.1319C175.971 84.7928 176.156 84.2533 176.293 83.7701C176.397 83.4031 176.257 83.0389 176.121 82.8042C175.715 82.1002 174.624 81.826 174.215 81.6518C174.103 81.6024 173.981 81.5289 173.599 81.491C173.217 81.4531 172.58 81.4531 171.923 81.4531" stroke="#131313" stroke-width="1.14714" stroke-linecap="round"/>
<path d="M84.6025 70.2461C85.3398 70.2461 86.4953 70.2761 86.8055 70.3065C86.9339 70.3215 87.1289 70.3515 87.2744 70.367C87.4199 70.3825 87.5099 70.3825 87.6026 70.3825" stroke="#131313" stroke-width="1.14714" stroke-linecap="round"/>
<path d="M104.012 51.1094C103.951 51.3657 103.921 51.7594 103.845 52.3269C103.8 52.7894 103.739 53.6349 103.701 54.1006C103.694 54.199 103.694 54.334 103.694 54.4731" stroke="#131313" stroke-width="1.14714" stroke-linecap="round"/>
<path d="M123.058 71.4727H125.649" stroke="#131313" stroke-width="1.14714" stroke-linecap="round"/>
<path d="M130.33 71.1445H133.83" stroke="#131313" stroke-width="1.14714" stroke-linecap="round"/>
<path d="M157.615 51.3242C157.569 51.7024 157.479 52.1842 157.244 53.7352C157.206 54.0506 157.206 54.1406 157.198 54.232C157.191 54.3234 157.176 54.4134 157.115 54.597" stroke="#131313" stroke-width="1.14714" stroke-linecap="round"/>
<path d="M173.717 73.6189C173.717 73.5922 173.717 73.5655 173.77 73.5384C173.823 73.5112 173.93 73.4845 174.372 73.4708C174.815 73.457 175.589 73.457 176.387 73.457" stroke="#131313" stroke-width="1.14714" stroke-linecap="round"/>
<path d="M122.118 59.2357C122.096 59.0758 121.549 58.1177 120.892 57.2513C120.674 57.0107 120.333 56.6468 120.123 56.4138C119.913 56.1808 119.845 56.0898 119.775 55.9961" stroke="#131313" stroke-width="1.14714" stroke-linecap="round"/>
<path d="M135.601 59.8191C135.731 59.5478 135.938 59.1847 136.184 58.7964C136.465 58.3526 137.051 57.7728 137.685 57.2027C138.14 56.838 138.492 56.6287 138.784 56.4991C138.908 56.4465 138.986 56.4208 139.104 56.3555" stroke="#131313" stroke-width="1.14714" stroke-linecap="round"/>
<path d="M111.731 49.8689C111.571 49.7891 110.811 49.5885 109.185 49.3268C107.04 49.1847 105.369 49.0638 103.427 48.9629C101.925 48.9417 99.3714 48.9816 96.741 49.0227" stroke="#131313" stroke-width="1.14714" stroke-linecap="round"/>
<path d="M97.1037 48.7819C96.9442 48.7021 96.7423 48.5414 96.541 48.2803C96.1399 47.7599 96.2575 46.7329 96.3772 45.7664C96.4516 45.1654 97.7807 44.9559 99.9669 44.6537C105.471 43.8927 106.248 44.6718 107.114 44.7921C108.026 44.9188 108.907 45.1142 109.773 45.3155C110.229 45.4213 110.641 45.7586 111.043 46.0197C111.286 46.3207 111.408 46.6846 111.469 47.3458C111.489 47.8076 111.489 48.5257 111.489 49.2655" stroke="#131313" stroke-width="1.14714" stroke-linecap="round"/>
<path d="M149.845 48.9035C150.126 48.9035 150.407 48.9035 152.361 48.9035C154.315 48.9035 157.935 48.9035 159.862 48.9191C161.914 48.9357 162.167 48.998 162.403 48.8732C163.148 48.4789 162.829 47.2696 163.05 45.7417C163.171 44.9084 163.177 44.3367 163.193 43.8464C163.199 43.6425 161.676 43.7344 159.645 43.8129C158.452 43.8589 156.511 44.0804 154.069 44.2379C153.029 44.3049 151.778 44.365 150.093 44.5211C149.481 44.5776 149.436 44.9891 149.389 45.259C149.341 45.529 149.31 45.7474 149.294 46.2655C149.278 46.7837 149.278 47.5949 149.278 48.4307" stroke="#131313" stroke-width="1.14714" stroke-linecap="round"/>
<path d="M129.741 41.3521C129.328 40.7297 127.661 39.4765 124.948 37.8421C124.341 37.4765 123.901 37.4547 123.688 37.7293C123.124 38.4563 123.682 39.6081 124.064 40.2681C124.245 40.5804 124.377 40.8592 123.173 40.6911C119.374 40.1605 116.516 39.1945 116.236 39.1246C116.232 39.1235 116.507 39.1924 116.718 39.3658C116.929 39.5392 117.067 39.8149 116.966 39.9914C115.768 42.0791 110.809 40.4456 108.481 40.5511C107.083 40.6144 105.316 41.1433 102.671 41.3166C101.631 41.3847 100.044 41.3521 99.1588 41.5244C98.0333 41.7434 97.9933 43.4993 96.3328 45.59C93.4855 49.1752 91.1801 49.3517 89.8517 50.3648C88.7295 51.2205 88.5275 52.5558 88.0398 53.8779C86.8993 56.9698 85.1146 59.4484 84.489 60.5637C83.5289 62.2755 83.6567 65.7102 83.0259 67.7623C82.2245 70.3696 82.7481 72.678 82.3659 73.4425C82.0526 74.0691 81.6349 74.6289 81.0448 75.0466C80.7305 75.1886 80.3858 75.1886 80.1394 75.0508C79.8929 74.9129 79.7551 74.6372 79.613 74.3532" stroke="#131313" stroke-width="1.14714" stroke-linecap="round"/>
<path d="M129.962 41.3925C131.159 40.4444 132.555 39.6464 134.031 39.0449C136.172 38.1731 138.645 37.0513 140.533 36.3185C140.802 36.2145 141.009 36.1933 141.111 36.5885C141.421 37.7902 141.163 38.9894 141.212 39.5136C141.412 41.6582 146.859 39.2924 147.908 39.0434C149.37 38.6965 150.804 39.3404 152.679 39.6914C153.392 39.8248 154.491 39.7424 155.052 40.0642C155.613 40.3859 155.613 41.0295 155.737 41.4105C156.225 42.9122 159.904 42.1905 161.209 42.6405C162.718 43.1604 164.353 44.8846 165.859 46.0884C167.273 47.2186 168.109 48.0888 169.061 48.8898C169.982 49.6653 170.86 50.9869 171.586 51.7654C172.024 52.2349 172.662 52.6895 173.037 53.363C173.711 54.5747 173.314 56.0391 173.613 57.3629C173.852 58.4228 174.262 59.1892 176.206 61.2848C177.423 62.5958 178.012 63.8874 178.687 65.2885C179.197 66.3485 180.281 69.4269 181.206 71.806" stroke="#131313" stroke-width="1.14714" stroke-linecap="round"/>
<path d="M81.0721 75.7175C81.0208 76.1292 80.9167 77.2648 80.7878 78.92C80.5743 81.6607 81.0193 83.0127 81.3812 84.257C81.7886 85.6574 82.2092 87.002 82.6496 88.244C83.0798 89.4572 83.8652 90.4197 84.3585 91.2493C85.0114 92.3474 86.1427 93.4241 87.0491 94.2009C88.3413 95.3082 90.5359 96.3726 93.232 97.3599C93.9908 97.6377 94.5843 97.7242 95.1528 97.8795C95.6053 98.0031 98.3934 98.5988 102.764 99.6598C104.562 100.096 105.546 100.157 106.97 100.235C108.395 100.314 110.24 100.365 119.163 100.468C128.085 100.572 144.028 100.725 152.831 100.728C161.634 100.73 162.813 100.576 163.6 100.497C166.359 100.219 169.562 99.2808 170.807 98.6337C171.992 98.0184 174.219 97.0065 175.958 95.7621C177.613 94.5782 178.78 92.7095 179.328 91.619C179.991 90.3017 180.234 89.4441 181.01 84.9646C181.442 82.4717 181.219 78.287 181.22 76.0453C181.169 73.5986 181.065 73.1823 180.962 72.769C180.91 72.5609 180.858 72.3558 180.806 72.1445" stroke="#131313" stroke-width="1.14714" stroke-linecap="round"/>
<path d="M131.387 26.4453V34.7179" stroke="#131313" stroke-width="1.14714" stroke-linecap="round"/>
<path d="M131.24 25.411C130.7 25.2647 129.036 24.4803 127.453 23.7638C126.392 23.2836 125.679 22.6574 124.842 22.1381C123.875 21.5386 123.266 20.8847 122.33 19.8262C121.542 18.9335 121.392 17.5875 121.415 14.0007C121.424 12.5802 122.373 11.971 123.014 11.2567C123.772 10.4104 125.372 10.3933 126.679 10.2204C128.565 9.97112 129.952 11.0285 130.794 11.9156C131.78 12.9535 132.224 15.3095 132.396 16.6657C132.437 16.9861 132.421 17.2802 132.421 16.919C132.421 13.9902 132.814 12.3196 133.551 11.0366C133.812 10.5817 134.241 10.3933 134.634 10.2212C135.012 10.0559 135.618 10.0476 136.331 10.1451C137.505 10.3056 137.884 11.7169 138.158 13.0198C138.689 15.5544 137.743 16.3968 136.906 17.7485C136.296 18.7326 135.382 19.9865 134.346 21.3921C132.866 23.1921 132.374 23.981 131.981 24.3739C131.783 24.5719 131.588 24.7669 130.944 25.1155" stroke="#131313" stroke-width="1.14714" stroke-linecap="round"/>
<path d="M130.387 41.6256C130.081 41.656 129.53 41.9003 129.021 42.5296C128.438 43.2513 128.145 44.6314 127.899 45.5861C127.518 47.0621 127.56 47.7681 127.452 48.3545C127.352 48.9004 127.284 49.7043 127.176 51.0057C126.978 53.3879 127.13 55.147 127.083 56.5337C127.042 57.7677 127.068 60.0807 127.083 61.348C127.104 63.0795 127.252 63.6286 127.42 64.1209C127.463 64.2459 127.497 64.3662 127.331 64.2007C126.2 63.0798 125.932 62.4355 125.303 61.147C125.02 60.5659 124.918 60.0373 124.672 59.5016C124.344 58.7853 124.089 56.9753 123.766 54.81C123.512 53.1031 123.472 51.8046 123.395 50.4829C123.278 48.4542 123.564 47.6519 124.13 45.629C124.38 44.7378 125.004 43.844 125.606 43.1335C126.04 42.6211 126.513 42.3042 126.989 41.8118C127.558 41.4108 128.779 41.349 129.724 41.5172C129.863 41.5638 129.985 41.5942 130.203 41.6256" stroke="#131313" stroke-width="1.14714" stroke-linecap="round"/>
<path d="M127.898 24.2572C127.674 23.975 126.096 23.2985 124.842 23.0393C121.862 22.4236 116.009 23.1217 114.757 23.4064C113.337 23.7291 111.38 24.1462 109.896 24.6298M89.064 39.1526C88.1583 40.2704 85.8066 44.2473 84.7536 46.0381C84.2139 46.9559 83.7057 47.8237 83.1379 49.0417C82.5558 50.2904 81.8358 51.2234 81.3242 52.6955C80.9227 53.8505 80.4182 54.963 79.9363 56.3493C79.2286 58.385 78.8883 59.5526 78.7447 60.7986C78.5467 62.104 78.2084 63.6832 78.1208 70.6925C78.1489 72.1331 78.205 72.4135 78.2628 73.0425" stroke="#131313" stroke-width="1.14714" stroke-linecap="round"/>
<path d="M132.843 24.0021C133.58 24.0021 134.827 23.8911 137.173 23.723C141.803 23.3913 145.06 23.7213 145.568 23.8054C147.456 24.1176 148.889 24.2791 150.069 24.4463M172.461 38.2578C175.099 41.8369 176.905 46.3457 178.385 49.848C179.316 52.0499 180.371 55.6852 181.051 57.9823C181.387 59.117 181.629 60.4727 181.839 63.153C182.112 66.6398 181.908 70.2458 181.978 71.5284" stroke="#131313" stroke-width="1.14714" stroke-linecap="round"/>
<path d="M79.3979 73.9258C79.1325 73.9258 78.4486 74.0767 77.1345 75.046C76.1701 75.7574 75.8548 76.666 75.4539 77.6765C74.8827 79.1162 74.6333 80.1726 74.4995 81.3151C74.3192 82.8544 74.5178 84.0645 74.575 84.8222C74.6888 86.3305 74.1415 89.0429 73.4176 91.7489C72.9496 93.4982 72.4992 94.8505 72.2316 97.095C72.1631 97.6692 72.1927 98.0872 72.2682 98.3199C72.3437 98.5526 72.4946 98.5904 72.5535 98.5155C72.9547 98.0052 72.3459 97.0327 72.3448 95.5848C72.344 94.6268 73.4851 93.867 75.6335 91.6254C77.6468 89.5247 77.6412 88.3041 77.9294 87.4052C78.2106 86.5282 78.2153 85.5204 78.2919 83.7111C78.3395 82.589 79.0136 80.4242 79.5483 78.6194C79.8897 78.011 80.0841 77.549 80.1973 77.0372C80.3105 76.6763 80.537 76.1102 80.7703 75.1838" stroke="#131313" stroke-width="1.14714" stroke-linecap="round"/>
<path d="M182.212 72.1445C181.962 72.9563 181.836 74.8241 182.241 76.8986C182.481 78.1266 183.396 79.5256 184.307 80.9095C185.446 82.6419 187.53 82.9755 188.566 84.1349C189.499 85.1786 190.101 86.6698 190.448 88.9491C191.191 93.8206 190.668 94.9396 190.668 95.3183C190.668 96.7562 190.232 91.8899 189.668 90.0954C189.112 88.3244 187.605 87.6206 186.507 86.9291C185.307 86.1735 184.223 85.2417 183.468 83.9564C182.652 82.2972 182.276 80.482 182.088 78.7974C182.024 77.7949 182.024 76.4927 182.024 75.1511" stroke="#131313" stroke-width="1.14714" stroke-linecap="round"/>
<path d="M132.297 24.2042C132.56 23.764 133.912 22.6453 134.628 21.977C135.309 21.34 136.334 19.9011 137.078 19.0982C137.291 18.8682 138.808 18.1287 141.796 16.7885C143.389 16.0737 145.222 15.4776 146.272 15.0878C148.11 14.406 148.77 13.7539 149.316 13.0169C149.51 12.7559 149.715 12.2498 150.069 11.6453C150.504 10.9024 150.014 15.6388 149.63 16.1419C149.082 16.8594 147.686 17.4103 146.562 17.7518C145.293 18.1373 144.525 18.1207 142.998 18.751C141.886 19.2101 140.185 20.1704 139.063 20.6957C136.921 21.6983 135.964 21.8109 135.163 22.5912C134.957 22.872 134.694 23.2228 134.5 23.462C134.306 23.7011 134.189 23.818 133.891 24.2042" stroke="#131313" stroke-width="1.14714" stroke-linecap="round"/>
<path d="M124.059 21.6353C123.648 21.6353 122.647 21.5768 121.921 21.3115C120.927 20.9486 118.785 20.0763 117.347 19.2618C115.317 18.1121 114.526 16.6218 113.86 15.4242C113.314 14.4448 112.96 12.053 112.795 10.9639C112.739 10.5983 112.633 10.269 112.427 10.0772C112.325 9.98186 112.163 9.97315 112.161 10.0604C112.138 10.943 113.456 11.3585 114.386 12.2279C114.999 12.801 115.582 13.6899 116.012 14.2811C116.513 14.9712 117.176 15.6687 117.709 16.2152C118.417 16.942 119.568 17.3517 120.38 17.81C120.573 17.9141 120.719 18.0018 120.853 18.0616C120.987 18.1214 121.104 18.1506 121.402 18.3579" stroke="#131313" stroke-width="1.14714" stroke-linecap="round"/>
<path d="M181.973 71.8594C182.008 72.3552 182.15 73.0644 182.399 73.8471C182.635 74.5912 183.85 75.5149 184.902 76.1409C185.935 76.7558 186.697 77.0825 187.303 77.5096C187.88 77.9167 188.263 78.4688 189.026 79.356C189.504 79.9113 189.721 80.4587 189.864 81.1342C189.9 81.3128 189.935 81.4888 189.953 82.4768C189.971 83.4648 189.971 85.2595 189.971 87.1086" stroke="#131313" stroke-width="1.14714" stroke-linecap="round"/>
<path d="M78.2279 73.3363C78.2279 73.3085 78.1305 73.2663 77.4194 73.2172C76.8067 73.1749 75.6785 73.182 74.9935 73.1887C74.0991 73.1975 73.6064 73.3494 73.0247 73.5735C71.9934 73.9708 71.4298 74.3036 70.9063 74.6424C70.7311 74.7558 70.5687 75.0074 70.3096 75.3993C69.952 75.9402 69.711 76.5802 69.5637 77.2108C69.3994 77.9137 69.415 78.8268 69.4429 79.7113C69.4612 80.2953 69.5976 80.6021 69.7439 81.0419C70.0605 81.9934 70.4127 82.6682 70.5244 82.9828C70.7235 83.5431 71.0996 84.212 71.5133 84.8502C71.7128 85.158 71.913 85.4188 72.2012 85.9307C72.4894 86.4426 72.8651 87.194 73.1213 87.769C73.6317 89.1624 73.6874 89.4145 73.786 89.9614C73.8004 90.1584 73.8004 90.4088 73.8004 90.6669" stroke="#131313" stroke-width="1.14714" stroke-linecap="round"/>
<path d="M132.531 14.2309C132.483 14.1188 132.387 13.1607 132.234 12.3098C132.146 11.822 132.049 11.3194 131.945 10.9338C131.855 10.6021 131.551 10.1773 131.046 9.58327C129.968 8.3149 129.201 8.17894 128.694 7.96187C127.923 7.6315 127.431 7.63131 126.519 7.58302C125.831 7.54659 124.683 7.5666 124.004 7.58254C122.9 7.60846 122.585 7.79164 121.79 8.12051C120.991 8.45061 120.476 8.77293 120.138 9.02212C119.526 9.47373 119.461 10.0604 119.324 10.4617C118.959 11.5368 119.026 12.1205 119.002 12.6032C118.967 13.2934 118.993 14.2618 119.138 14.6317C119.314 15.0833 119.523 15.5802 120.222 16.6971C121.004 17.5944 121.295 17.7721 121.439 17.8042C121.52 17.8204 121.615 17.8364 121.714 17.8528" stroke="#131313" stroke-width="1.14714" stroke-linecap="round"/>
<path d="M132.483 10.9957C132.306 10.8683 132.242 10.2907 132.433 9.47817C132.593 8.80116 133.237 8.26194 133.695 7.76381C134.528 6.8565 135.731 6.90736 136.359 6.81077C137.132 6.69187 138.112 6.95372 138.844 7.21111C139.324 7.37985 139.564 7.61435 139.918 8.07191C140.443 8.74939 140.563 9.70442 140.692 10.2368C140.738 10.4265 140.756 10.7321 140.773 11.2944C140.789 11.8568 140.789 12.6695 140.709 13.3512C140.567 14.5738 140.179 15.3715 139.954 15.8377C139.714 16.3352 139.406 16.5638 138.765 16.9658C137.823 17.3654 137.088 17.6914 136.863 17.8281C136.765 17.8851 136.702 17.9169 136.588 17.9981" stroke="#131313" stroke-width="1.14714" stroke-linecap="round"/>
<path d="M120.609 100.906C120.233 100.906 119.631 100.956 118.713 101.282C117.464 101.726 115.932 102.766 115.228 103.181C113.905 103.961 113.088 104.528 112.772 104.818C112.214 105.329 115.114 104.833 116.93 104.806C117.192 104.802 117.162 104.955 117.025 105.28C116.654 106.16 116.307 106.942 116.107 107.705C115.487 110.066 115.377 110.989 115.313 111.936C115.295 112.203 115.25 112.528 115.312 112.855C115.335 112.973 115.499 112.933 115.613 112.883C118.151 111.765 121.74 108.761 123.276 106.652" stroke="#131313" stroke-width="1.14714" stroke-linecap="round"/>
<path d="M131.411 101.582C131.787 101.582 132.389 101.632 133.307 101.958C134.555 102.401 136.088 103.442 136.792 103.857C138.115 104.637 138.932 105.204 139.248 105.493C139.806 106.005 136.906 105.508 135.089 105.481C134.828 105.477 134.857 105.631 134.995 105.956C135.366 106.836 135.712 107.618 135.913 108.381C136.533 110.742 136.643 111.665 136.707 112.612C136.725 112.879 136.77 113.204 136.708 113.531C136.685 113.649 136.521 113.609 136.407 113.559C133.868 112.441 130.28 109.437 128.744 107.328" stroke="#131313" stroke-width="1.14714" stroke-linecap="round"/>
<path d="M92.5328 97.707C91.8275 97.707 89.7659 98.0907 87.8264 99.4121C84.7223 101.527 83.0464 103.896 81.6223 105.613C81.2328 106.29 80.8453 106.876 80.3939 107.391C80.1982 107.651 80.0703 107.906 79.551 108.751" stroke="#131313" stroke-width="1.14714" stroke-linecap="round"/>
<path d="M171.664 98.6445C171.835 98.6874 172.588 99.2237 173.722 100.142C174.498 100.77 175.251 101.883 176.127 103.127C177.031 104.41 177.873 105.783 178.306 106.519C178.886 107.506 179.301 108.614 179.692 109.518C179.887 110.027 179.974 110.417 179.985 110.612C179.996 110.72 180.017 110.849 180.039 110.981" stroke="#131313" stroke-width="1.14714" stroke-linecap="round"/>
<path d="M123.123 106.883C122.939 109.289 122.96 115.809 122.88 116.811C122.611 120.155 122.516 121.613 122.416 122.279C122.395 122.661 122.355 123.066 122.295 123.707C122.274 124.149 122.274 124.828 122.274 125.527" stroke="#131313" stroke-width="1.14714" stroke-linecap="round"/>
<path d="M128.583 107.57C128.603 111.001 128.643 122.539 128.663 123.121C128.684 123.702 128.684 124.66 128.684 125.647" stroke="#131313" stroke-width="1.14714" stroke-linecap="round"/>
<path d="M99.4793 98.7852C99.4117 99.191 99.3768 100.516 99.5797 102.207C99.6795 103.039 101.452 102.884 103.19 103.054C104.989 103.231 113.924 103.367 114.672 103.435" stroke="#131313" stroke-width="1.14714" stroke-linecap="round"/>
<path d="M136.468 103.512C136.62 103.512 136.772 103.512 138.678 103.495C140.584 103.478 144.239 103.444 146.217 103.444C148.195 103.443 148.385 103.477 149.816 103.494C151.247 103.512 153.912 103.512 155.284 103.005C156.657 102.497 156.657 101.483 156.657 100.438" stroke="#131313" stroke-width="1.14714" stroke-linecap="round"/>
<path d="M120.676 100.977C120.761 101.159 121.004 101.621 121.329 102.19C121.615 102.693 121.775 102.991 122.055 103.46C122.822 104.743 122.838 105.093 122.918 105.302C123.025 105.581 123.144 105.949 123.199 106.175C123.206 106.231 123.206 106.279 123.224 106.346C123.242 106.414 123.278 106.498 123.352 106.695" stroke="#131313" stroke-width="1.14714" stroke-linecap="round"/>
<path d="M131.343 101.648C131.258 101.831 131.015 102.293 130.691 102.862C130.405 103.365 130.244 103.663 129.964 104.132C129.198 105.415 129.181 105.765 129.101 105.974C128.994 106.253 128.875 106.621 128.82 106.847C128.814 106.902 128.814 106.951 128.796 107.018C128.777 107.085 128.741 107.17 128.667 107.367" stroke="#131313" stroke-width="1.14714" stroke-linecap="round"/>
<path d="M123.477 110.868C123.739 110.965 124.015 110.993 124.92 111.131C125.498 111.173 126.269 111.2 127.365 111.001C127.684 110.911 128.068 110.787 128.463 110.66" stroke="#131313" stroke-width="1.14714" stroke-linecap="round"/>
<path d="M119.203 115.941C118.934 116.187 118.326 116.957 118.041 117.507C117.864 117.849 117.829 118.335 117.8 118.617C117.759 119.015 117.899 119.297 118.016 119.556C118.092 119.723 118.204 119.885 118.321 119.997C118.492 120.16 118.848 120.097 119.272 119.934C119.543 119.829 119.73 119.64 120.017 119.161C120.297 118.694 120.306 118.255 120.324 117.893C120.36 117.138 120.283 116.541 120.189 116.371C120.096 116.282 119.978 116.224 119.82 116.171C119.732 116.153 119.627 116.153 119.52 116.153" stroke="#131313" stroke-width="1.14714" stroke-linecap="round"/>
<path d="M118.644 126.096C118.01 126.932 117.82 127.256 117.746 127.647C117.697 127.903 117.645 128.135 117.604 128.51C117.524 129.257 117.644 129.877 117.778 130.166C117.938 130.51 118.143 130.702 118.272 130.742C118.331 130.761 118.386 130.756 118.467 130.716C119.091 130.407 119.467 129.595 119.603 129.164C119.66 128.979 119.657 128.317 119.65 127.399C119.563 126.759 119.401 126.421 119.3 126.205C119.252 126.11 119.212 126.043 119.13 125.934" stroke="#131313" stroke-width="1.14714" stroke-linecap="round"/>
<path d="M150.027 24.3125C150.17 22.8787 150.672 21.7651 152.383 18.5395C153.885 15.7077 156.655 10.4399 158.316 7.38952C159.977 4.33912 160.439 3.66316 161.087 2.95918C162.466 1.45936 163.538 0.739435 163.913 0.631628C164.9 0.348539 165.655 1.16635 166.501 1.90375C167.254 2.56014 167.917 4.17633 168.818 5.7805C169.155 6.38023 169.532 7.47307 169.983 8.78778C170.953 11.6136 171.444 13.7421 171.588 14.6751C171.689 15.3315 171.84 15.8292 171.929 16.3488C172.026 16.9097 172.341 18.9405 172.665 21.7063C172.813 22.974 172.81 23.5547 172.864 25.783C172.91 27.6907 172.882 31.1777 172.811 33.3651C172.598 36.3352 172.451 37.4262 172.398 37.9108C172.344 38.1108 172.238 38.2175 172.128 38.4353" stroke="#131313" stroke-width="1.14714" stroke-linecap="round"/>
<path d="M109.942 24.2326C109.785 23.3268 109.037 22.0261 107.25 18.8858C105.854 16.4327 103.624 12.1458 102.397 9.79223C101.015 7.14422 100.305 5.70757 99.2777 3.87155C98.679 2.80107 98.4418 2.25962 98.1857 1.98335C97.944 1.72266 97.5336 1.70472 97.1002 1.78297C95.8465 2.00936 94.8883 3.43818 94.0566 4.11343C93.6452 4.44735 93.226 4.94281 92.5573 5.82733C91.425 7.325 90.461 9.36183 89.6921 11.6075C88.8058 14.1961 88.5604 16.0479 88.5011 16.6988C88.4526 17.2305 88.3244 18.1003 88.0873 19.3423C87.8612 20.5265 87.9284 21.6976 87.8098 24.2688C87.7166 26.2904 87.7695 29.7745 87.7891 31.6858C87.8151 34.2321 87.9663 34.861 88.1637 36.1428C88.36 37.0285 88.5592 37.7079 88.6973 38.0825C88.7572 38.2616 88.7963 38.4181 88.8366 38.8165" stroke="#131313" stroke-width="1.14714" stroke-linecap="round"/>
<path d="M96.7212 9.31641C96.8189 9.97578 96.9166 10.6352 97.2721 11.683C97.6277 12.7309 98.2383 14.1474 98.5772 14.9869C98.9161 15.8265 98.965 16.0463 99.3809 16.9288C99.7968 17.8113 100.578 19.3498 100.993 20.1912C101.451 21.1211 101.726 21.7682 102.231 22.8143C103.059 24.5582 103.602 25.3485 103.861 25.6812C103.973 25.8185 104.046 25.8917 104.196 26.0412" stroke="#131313" stroke-width="1.14714" stroke-linecap="round"/>
<path d="M98.3493 16.0499C97.6166 15.5615 96.7996 15.2122 96.0237 15.0153C94.3502 14.5908 92.2839 14.1998 91.8521 14.2853C91.6923 14.3169 91.7378 14.5417 91.8725 14.7397C92.1897 15.206 92.796 15.5792 93.4354 15.9729C94.9023 16.8761 96.2239 17.3538 96.7793 17.9573C96.9886 18.1848 96.8707 18.3899 96.1125 19.4792C95.3544 20.5686 93.9135 22.5711 93.2201 23.6149C92.5267 24.6587 92.6244 24.6832 93.3341 24.4149C94.0438 24.1466 95.3625 23.5849 96.2372 23.1613C97.1119 22.7376 97.5027 22.469 97.6795 22.4405C97.9068 22.4039 97.7328 23.6641 97.7447 25.2393C97.7505 26.0094 97.8786 26.7168 97.9778 27.0938C98.0769 27.4709 98.1746 27.4953 98.2982 27.459C98.5875 27.3741 99.3298 26.2232 100.34 24.4863C100.74 23.7507 100.911 23.3111 101.085 22.9626C101.258 22.614 101.429 22.3698 101.605 21.9702" stroke="#131313" stroke-width="1.14714" stroke-linecap="round"/>
<path d="M163.097 8.58594C163.05 8.67978 163.003 8.77363 162.075 11.0391C161.148 13.3045 159.341 17.7387 158.375 20.0816C157.249 22.8155 157.031 23.277 156.841 23.8329C156.747 24.0576 156.583 24.386 156.44 24.7077C156.296 25.0294 156.179 25.3344 155.987 25.7198" stroke="#131313" stroke-width="1.14714" stroke-linecap="round"/>
<path d="M160.901 15.183C163.651 14.4167 165.541 13.8867 166.337 13.648C166.825 13.5015 167.047 13.3396 167.206 13.2372C167.288 13.1842 167.41 13.2023 167.412 13.2812C167.417 13.5425 166.869 13.996 165.816 15.139C165.065 15.9541 163.929 17.2962 163.427 18.0038C162.925 18.7114 163.106 18.7565 163.413 18.8811C164.159 19.1839 165.311 19.8684 166.516 20.6641C167.71 21.4522 168.026 21.8758 168.05 22.0008C168.067 22.0868 167.758 22.1032 166.617 22.0814C165.475 22.0595 163.424 21.9693 162.559 22.3399C161.367 22.8507 162.562 24.7416 162.778 25.4793C163.211 26.9625 163.292 27.3849 163.269 27.4767C163.224 27.6622 162.501 26.5045 161.387 25.4018C160.678 24.6371 160.017 23.5915 159.357 22.4194C159.103 21.9912 158.284 20.757 158.191 20.6641" stroke="#131313" stroke-width="1.14714" stroke-linecap="round"/>
<path d="M107.068 25.3125C106.363 25.5475 105.507 25.9153 104.612 26.389C104.205 26.6047 103.917 26.8157 103.519 27.042C103.121 27.2683 102.628 27.515 102.174 27.7714C101.306 28.2615 100.803 28.6818 100.484 29.0068C99.6017 29.9064 99.2479 30.1302 98.8647 30.525C98.568 30.8306 98.0936 31.3781 97.7515 31.7917C97.4093 32.2052 97.2213 32.4754 97.0657 32.6734C96.9101 32.8714 96.7926 32.9889 96.636 33.1099" stroke="#131313" stroke-width="1.14714" stroke-linecap="round"/>
<path d="M154.154 25.5117C154.131 25.5117 154.56 25.602 155.374 25.7896C156.052 25.946 156.501 26.1722 157.164 26.4613C157.665 26.6798 158.515 27.0099 159.194 27.3198C159.873 27.6297 160.358 27.9006 160.715 28.1135C161.073 28.3265 161.287 28.4732 162.013 29.0906C162.738 29.708 163.969 30.7916 164.648 31.3837C165.327 31.9758 165.417 32.0435 165.51 32.1133" stroke="#131313" stroke-width="1.14714" stroke-linecap="round"/>
<path d="M137.025 134.214C137.151 133.709 137.5 132.945 137.977 132.07C138.292 131.493 138.962 130.053 139.917 128.064C140.293 127.282 140.368 126.926 140.905 125.628C141.443 124.33 142.42 122.091 142.987 120.859C143.554 119.627 143.68 119.469 143.808 119.356C143.936 119.243 144.062 119.18 144.206 119.353C144.626 119.857 144.922 120.768 145.415 121.672C145.969 122.69 146.229 123.541 146.783 124.742C148.018 127.421 148.746 129.497 148.984 130.226C149.692 132.401 149.957 133.002 149.847 133.288C149.641 133.824 148.561 133.926 147.639 134.117C146.897 134.27 144.878 134.657 142.156 135.039C140.859 135.221 139.772 135.264 138.468 135.439C136.797 135.663 134.833 136.123 134.002 136.49C133.837 136.562 133.715 136.633 133.666 136.745C133.838 137.397 134.285 138.003 134.554 138.32C134.698 138.48 134.856 138.638 135.114 138.896" stroke="#FF0404" stroke-width="1.14714" stroke-linecap="round"/>
<path d="M150.116 133.448C150.338 133.416 151.067 133.352 151.784 133.573C151.901 135.1 151.519 136.184 151.28 136.774C151.232 136.918 151.2 137.044 151.168 137.174" stroke="#FF0404" stroke-width="1.14714" stroke-linecap="round"/>
<path d="M154.125 136.853C154.125 136.828 154.125 136.803 154.454 134.235C154.783 131.667 155.44 126.555 155.909 123.37C156.378 120.185 156.639 119.081 156.792 118.475C156.944 117.869 156.982 117.795 157.1 117.756C157.218 117.718 157.417 117.718 157.6 117.786C157.783 117.854 157.944 117.991 158.275 118.421C158.606 118.851 159.103 119.571 159.408 120.04C159.713 120.51 159.812 120.709 159.932 120.917C160.051 121.124 160.188 121.335 160.822 122.697C161.457 124.058 162.586 126.564 163.192 127.955C163.799 129.345 163.848 129.543 163.911 129.739C163.974 129.934 164.048 130.12 164.205 130.731C164.361 131.341 164.597 132.371 164.737 132.951C164.914 133.63 165.039 134.266 165.177 135.105C165.228 135.411 165.24 135.473 165.253 135.612" stroke="#FF0404" stroke-width="1.14714" stroke-linecap="round"/>
<path d="M165.841 117.555C165.807 117.892 165.824 118.722 165.892 119.793C165.918 120.208 165.96 120.359 166.179 122.172C166.399 123.985 166.803 127.455 167.028 129.302C167.268 131.269 167.338 131.64 167.381 132.074C167.428 132.554 167.559 132.917 167.721 133.47C167.884 134.028 168.087 134.381 168.239 134.526C168.325 134.607 168.492 134.62 169.514 134.494C170.535 134.368 172.422 134.082 174.067 133.867C175.713 133.652 177.061 133.517 178.151 133.364C180.041 133.097 180.916 132.868 181.009 132.632C181.097 132.412 181.019 131.925 180.724 129.837C180.429 127.75 179.856 124.061 179.552 121.975C179.249 119.89 179.232 119.519 179.207 119.261C179.147 118.868 179.045 118.055 178.918 116.941C178.858 116.502 178.807 116.316 178.704 116.023" stroke="#FF0404" stroke-width="1.14714" stroke-linecap="round"/>
<path d="M172.528 116.125C172.562 116.748 172.595 117.371 172.621 117.802C172.647 118.233 172.664 118.452 172.975 120.704C173.287 122.956 173.894 127.234 174.223 129.497C174.552 131.76 174.586 131.878 174.629 132.141C174.671 132.404 174.722 132.808 174.748 133.075C174.774 133.343 174.774 133.461 174.774 133.582" stroke="#FF0404" stroke-width="1.14714" stroke-linecap="round"/>
<path d="M185.468 132.026C185.468 131.925 185.468 131.824 185.476 131.528C185.484 131.232 185.501 130.743 185.695 128.007C185.889 125.271 186.26 120.302 186.467 117.674C186.686 114.91 186.76 114.706 186.803 114.57C186.825 114.501 186.862 114.435 186.905 114.442C187.033 114.464 187.168 114.957 187.683 116.335C188.074 117.379 188.755 119.111 189.439 121.403C190.123 123.695 190.797 126.491 191.169 127.991C191.541 129.49 191.592 129.608 191.66 129.93C191.933 131.447 192.035 131.788 192.086 131.856C192.103 131.857 192.103 131.79 192.103 131.72" stroke="#FF0404" stroke-width="1.14714" stroke-linecap="round"/>
<path d="M154.962 128.703C155.926 128.565 156.35 128.515 157.157 128.446C157.402 128.425 157.663 128.415 158.256 128.346C158.85 128.278 159.768 128.154 160.532 128.09C161.297 128.026 161.88 128.026 162.593 127.988" stroke="#FF0404" stroke-width="1.14714" stroke-linecap="round"/>
<path d="M185.657 127.142C186.009 126.939 186.328 126.767 187.159 126.469C187.852 126.24 189.095 125.851 189.761 125.642C190.427 125.433 190.477 125.416 190.567 125.398" stroke="#FF0404" stroke-width="1.14714" stroke-linecap="round"/>
<path d="M205.433 99.3594C205.374 99.651 205.452 100.597 205.512 101.001C205.557 101.306 205.61 102.459 205.581 104.013C205.559 105.203 205.158 105.813 204.67 107.081C204.214 108.267 203.365 110.569 202.728 112.504C202.092 114.438 201.702 115.938 201.492 116.828C201.222 118.289 201.183 118.565 201.173 118.732C201.163 118.821 201.144 118.918 201.124 119.137" stroke="#131313" stroke-width="1.14714" stroke-linecap="round"/>
<path d="M205.435 99.4474C205.206 98.6309 204.985 95.8542 205.181 95.4409C205.362 95.0599 205.868 94.7915 206.244 94.6035C206.79 94.3297 207.875 94.612 208.662 95.0828C209.478 95.5709 209.747 96.402 210.228 97.3047C210.761 98.3066 211.064 99.4471 211.253 100.062C211.302 100.336 211.341 101.042 211.273 102.2C211.186 102.812 210.991 103.475 210.791 104.157" stroke="#131313" stroke-width="1.14714" stroke-linecap="round"/>
<path d="M217.742 104.201C216.937 103.808 216.27 103.69 214.101 103.709C213.071 103.718 212.569 104.377 212.273 104.898C211.969 105.431 211.918 105.99 211.908 106.541C211.899 107.026 212.329 107.446 212.751 107.986C213.363 108.769 214.139 109.316 214.707 109.64C216.049 110.281 216.423 110.557 216.6 110.645C216.679 110.695 216.738 110.753 216.798 110.813" stroke="#131313" stroke-width="1.14714" stroke-linecap="round"/>
<path d="M213.078 108.924C213.078 108.885 212.923 108.865 212.638 108.904C212.157 108.97 211.939 109.591 211.555 109.897C211.074 110.279 211.071 111.086 211.022 111.745C210.939 112.857 211.443 113.525 211.769 114.009C212.284 114.776 213.234 115.575 213.804 115.86C213.982 115.929 214.177 115.968 214.316 115.998C214.455 116.028 214.533 116.047 214.613 116.067" stroke="#131313" stroke-width="1.14714" stroke-linecap="round"/>
<path d="M218.98 104.594C219.325 104.719 220.144 105.097 220.791 105.365C221.516 105.666 221.973 106.262 222.368 106.767C222.73 107.23 222.921 107.776 223.204 108.202C223.807 109.11 223.206 110.992 222.703 111.717C222.356 112.216 222.321 112.881 222.323 115.273C222.324 116.487 221.474 116.918 220.953 117.268C220.369 117.52 219.866 117.709 219.361 117.82C219.234 117.836 219.109 117.836 218.697 118.025" stroke="#131313" stroke-width="1.14714" stroke-linecap="round"/>
<path d="M201.292 120.01C201.48 121.016 202.232 122.397 202.773 123.318C203.259 124.147 204.19 124.516 205.933 125.397C209.063 126.981 210.999 126.033 211.663 125.922C212.617 125.762 213.993 124.459 214.549 123.999C215.004 123.623 215.853 123.165 216.754 122.676C217.433 122.156 218.814 120.838 219.829 119.447C220.019 119.069 220.206 118.6 220.493 118.023" stroke="#131313" stroke-width="1.14714" stroke-linecap="round"/>
<path d="M210.845 104.781C210.658 106.03 210.343 107.703 209.965 109.357C209.477 111.497 208.923 114.142 208.749 114.962C208.572 115.797 208.261 117.04 208.103 118.083C207.992 118.813 207.913 119.376 207.85 119.929C207.731 120.979 210.055 121.491 210.56 121.696C210.685 121.747 210.811 121.775 210.985 121.76C212.205 121.653 212.957 119.573 213.649 118.155C213.995 117.431 214.187 116.922 214.25 116.623C214.282 116.48 214.313 116.355 214.345 116.226" stroke="#131313" stroke-width="1.14714" stroke-linecap="round"/>
<path d="M211.224 103.911C211.255 103.565 211.318 102.749 211.664 101.19C212.077 99.3213 212.484 97.2348 212.909 95.719C213.466 93.7347 214.029 92.216 214.516 91.0677C214.789 90.4247 214.913 89.9449 214.975 89.6772C215.093 89.1741 216.013 89.3443 216.564 89.4067C216.78 89.4311 216.835 89.594 216.883 89.7207C216.976 89.9675 216.994 90.3507 217.025 90.8695C217.058 91.4264 217.183 94.8946 217.167 97.6367" stroke="#131313" stroke-width="1.14714" stroke-linecap="round"/>
<path d="M215.859 88.4896C215.89 88.239 216.016 87.6724 216.095 87.2766C216.104 87.2276 216.235 87.3527 216.299 87.4634C216.363 87.574 216.394 87.6989 216.41 87.9193C216.426 88.1397 216.426 88.4518 216.426 88.7734" stroke="#131313" stroke-width="1.14714" stroke-linecap="round"/>
<path d="M215.172 103.892C214.852 103.413 214.145 101.937 213.998 101.112C213.819 100.111 214.108 99.2634 214.51 98.7143C214.953 98.1104 216.42 98.1671 217.772 98.1333C218.703 98.1101 219.51 98.8697 220.203 99.4824C220.928 100.191 221.633 100.896 221.99 102.227C222.023 102.915 222.023 104.062 222.023 105.243" stroke="#131313" stroke-width="1.14714" stroke-linecap="round"/>
<path d="M205.379 94.6105C205.347 94.4459 205.3 94.2422 205.261 94.0844C205.251 94.0454 205.245 93.9983 205.257 93.9703C205.268 93.9424 205.3 93.9346 205.331 93.9384C205.488 94.0282 205.692 94.17 205.901 94.2956C205.945 94.3273 205.968 94.3506 206.039 94.3983" stroke="#131313" stroke-width="1.14714" stroke-linecap="round"/>
<path d="M213.817 99.2151C213.762 99.1715 213.522 99.1278 213.232 99.1383C213.345 99.2697 213.564 99.3787 213.739 99.5156C213.773 99.554 213.794 99.5974 213.849 99.7077" stroke="#131313" stroke-width="1.14714" stroke-linecap="round"/>
<path d="M211.846 104.797C211.705 104.797 211.421 104.71 211.261 104.605C211.485 104.742 211.605 104.895 211.698 105.015C211.737 105.07 211.758 105.113 211.846 105.224" stroke="#131313" stroke-width="1.14714" stroke-linecap="round"/>
<path d="M211.073 109.965C211.044 109.965 210.835 109.965 210.587 110.009C210.621 110.143 210.758 110.324 210.833 110.497C210.863 110.58 210.878 110.654 210.938 110.776" stroke="#131313" stroke-width="1.14714" stroke-linecap="round"/>
<path d="M200.964 118.234C200.712 118.284 200.309 118.436 199.903 118.55C199.462 118.674 199.094 119.068 198.916 119.472C198.547 120.305 198.889 121.546 199.079 122.153C199.35 123.021 199.723 123.62 200.241 124.417C200.617 124.993 200.937 125.367 201.279 125.81C201.641 126.277 202.201 126.682 202.821 127.125C203.892 127.892 204.629 128.199 205.4 128.479C207.059 129.08 208.095 129.213 208.691 129.252C209.686 129.316 211.257 129.365 212.823 129.467C213.838 129.532 214.802 129.518 215.003 129.417C215.564 129.138 215.738 128.508 215.839 128.09C215.916 127.17 215.765 125.651 215.524 124.916C215.461 124.738 215.386 124.563 215.233 124.306" stroke="#131313" stroke-width="1.14714" stroke-linecap="round"/>
<path d="M215.953 124.325C215.953 124.485 216.092 125.107 216.304 125.964C216.401 126.357 216.516 127.324 216.738 129.316C216.862 130.425 216.84 131.747 216.831 132.527C216.814 133.863 216.378 134.376 216.135 134.741C215.929 135.05 215.47 135.085 214.786 135.155C212.775 135.364 212.24 135.105 211.775 135.035C211.311 134.965 210.568 134.642 209.738 134.369C208.659 134.015 208.002 133.774 207.556 133.552C206.85 133.2 206.044 132.685 205.537 132.461C204.77 132.122 203.585 130.995 203.003 130.322C202.674 129.941 202.007 128.854 201.459 127.881C200.992 127.05 200.329 126.185 200.035 125.729C199.826 125.406 199.681 124.993 199.49 124.428C199.318 124.043 199.157 123.56 198.995 123.075C198.955 122.934 198.915 122.754 198.874 122.387" stroke="#131313" stroke-width="1.14714" stroke-linecap="round"/>
<path d="M198.752 119.359C198.531 119.5 197.809 120.262 197.21 121.113C196.893 121.563 196.554 122.343 196.23 123.413C196.169 123.658 196.129 123.837 196.098 124.01C196.068 124.183 196.048 124.343 196.027 124.568" stroke="#131313" stroke-width="1.14714" stroke-linecap="round"/>
<path d="M216.722 134.363C215.544 135.5 214.002 137.287 212.775 138.556C211.748 139.616 211.103 139.861 209.843 140.675C209.514 140.88 209.272 141.041 209.087 141.185C208.901 141.329 208.78 141.45 208.656 141.574" stroke="#131313" stroke-width="1.14714" stroke-linecap="round"/>
<path d="M214.723 129.789C214.165 129.966 213.355 130.573 212.577 131.452C212.03 131.999 211.167 132.811 210.694 133.36C210.604 133.475 210.529 133.576 210.299 133.756" stroke="#131313" stroke-width="1.14714" stroke-linecap="round"/>
<path d="M204.833 56.1602L206.213 53.0283C207.284 50.5983 210.522 45.8278 211.395 44.8798C211.798 44.4427 212.309 43.745 212.662 43.3149C213.015 42.8848 213.176 42.727 213.449 44.8109C213.721 46.8947 214.962 51.4274 215.142 53.7432C215.323 56.059 215.37 57.25 215.34 57.4227" stroke="#131313" stroke-width="1.14714" stroke-linecap="round"/>
<path d="M204.804 56.233C204.419 56.0632 203.096 55.9378 200.595 55.7382C199.828 55.677 199.033 55.8139 198.02 55.7589C197.105 55.7093 195.152 55.626 192.348 55.2895C191.057 55.1345 190.021 55.1172 189.504 55.2159C188.987 55.3146 189.018 55.5568 189.219 55.8319C189.42 56.107 189.791 56.4076 191.198 57.2812C192.604 58.1549 195.036 59.5924 196.404 60.3836C198.413 61.5032 198.904 61.8582 199.198 62.0799C199.355 62.1958 199.53 62.3185 200.058 62.5984" stroke="#131313" stroke-width="1.14714" stroke-linecap="round"/>
<path d="M215.567 57.4648C215.6 57.4795 215.633 57.4942 218.048 58.5581C220.462 59.6219 225.256 61.7345 227.499 62.842C229.742 63.9496 229.287 63.9879 228.981 64.0356C228.212 64.1557 225.994 64.7365 223.744 65.3588C219.6 65.9069 218.98 66.0363 218.629 66.0615C218.44 66.0788 218.229 66.1053 217.722 66.2455" stroke="#131313" stroke-width="1.14714" stroke-linecap="round"/>
<path d="M217.762 66.2969C218.658 69.0423 219.297 75.2113 219.369 77.7921C219.374 77.9643 219.297 78.0942 218.809 77.7845C217.325 76.8403 215.856 75.5588 214.258 74.2491C211.682 72.1368 210.334 70.2124 209.941 69.9015C209.284 69.3828 208.895 68.8322 208.414 68.0491C208.298 67.8604 208.212 67.7043 208.122 67.6823C207.592 67.5531 206.988 69.3169 205.4 70.8251C204.607 71.578 203.808 72.332 202.982 73.0491C202.081 73.8315 201.192 74.5233 200.598 74.9726C200.084 75.362 199.1 75.883 198.33 76.1007C197.645 76.2945 198.223 74.2874 198.234 73.3274C198.272 70.01 199.435 65.8807 199.996 62.6272" stroke="#131313" stroke-width="1.14714" stroke-linecap="round"/>
<path d="M189.994 33.709L189.593 31.277C189.282 29.3901 189.356 25.2386 189.51 24.323C189.58 23.901 189.614 23.2789 189.658 22.8805C189.701 22.4821 189.736 22.3236 190.721 23.4728C191.706 24.6221 194.238 26.867 195.259 28.1923C196.28 29.5176 196.777 30.2174 196.827 30.3332" stroke="#131313" stroke-width="1.14714" stroke-linecap="round"/>
<path d="M190.005 33.7632C189.706 33.8126 188.859 34.2578 187.272 35.1222C186.785 35.3873 186.36 35.7827 185.727 36.1486C185.156 36.4789 183.946 37.1974 182.122 38.0985C181.283 38.5135 180.651 38.911 180.378 39.1741C180.106 39.4371 180.219 39.5711 180.449 39.6578C180.678 39.7445 181.02 39.7798 182.213 39.7527C183.405 39.7256 185.437 39.635 186.574 39.5736C188.226 39.4577 188.662 39.4784 188.926 39.4964C189.067 39.5042 189.221 39.5094 189.649 39.4702" stroke="#131313" stroke-width="1.14714" stroke-linecap="round"/>
<path d="M196.98 30.2656C197.006 30.2614 197.032 30.2571 198.907 29.948C200.782 29.639 204.504 29.0252 206.293 28.81C208.081 28.5948 207.823 28.7968 207.657 28.9461C207.24 29.3216 206.131 30.5451 205.019 31.8063C202.736 33.7684 202.414 34.0904 202.212 34.244C202.104 34.3288 201.988 34.4277 201.737 34.7121" stroke="#131313" stroke-width="1.14714" stroke-linecap="round"/>
<path d="M201.782 34.7307C203.403 36.0335 206.217 39.502 207.277 41.0297C207.348 41.1316 207.352 41.2405 206.936 41.2455C205.669 41.2609 204.279 41.0665 202.8 40.9057C200.414 40.6464 198.844 40.0167 198.484 39.984C197.884 39.9296 197.433 39.7507 196.834 39.4681C196.69 39.4 196.577 39.3398 196.514 39.362C196.143 39.4926 196.474 40.7938 196.11 42.3288C195.928 43.095 195.743 43.8642 195.528 44.6219C195.292 45.4486 195.028 46.2158 194.847 46.7204C194.69 47.1578 194.302 47.8593 193.924 48.2936C193.587 48.6803 193.145 47.2424 192.774 46.6592C191.49 44.644 190.566 41.696 189.624 39.513" stroke="#131313" stroke-width="1.14714" stroke-linecap="round"/>
<path d="M222.63 34.9753L223.344 33.4079C223.898 32.1918 225.557 29.8113 226.002 29.3397C226.207 29.1223 226.469 28.7743 226.649 28.5601C226.83 28.3458 226.912 28.2674 227.036 29.3177C227.16 30.368 227.756 32.6565 227.833 33.8229C227.909 34.9894 227.926 35.589 227.91 35.6757" stroke="#131313" stroke-width="1.14714" stroke-linecap="round"/>
<path d="M222.615 35.0137C222.422 34.9258 221.757 34.8545 220.5 34.7386C220.114 34.7031 219.714 34.767 219.204 34.7331C218.744 34.7025 217.762 34.6484 216.353 34.4617C215.704 34.3757 215.183 34.3606 214.922 34.4071C214.662 34.4535 214.676 34.5756 214.775 34.7153C214.875 34.8549 215.059 35.0085 215.762 35.4568C216.464 35.9052 217.679 36.6436 218.362 37.0502C219.366 37.626 219.611 37.8077 219.758 37.9211C219.836 37.9804 219.923 38.0432 220.188 38.1873" stroke="#131313" stroke-width="1.14714" stroke-linecap="round"/>
<path d="M228.023 35.6992C228.04 35.7068 228.057 35.7144 229.265 36.2647C230.473 36.815 232.872 37.9078 233.994 38.479C235.116 39.0502 234.887 39.0666 234.733 39.0888C234.344 39.1444 233.225 39.4229 232.089 39.7221C230 39.9722 229.688 40.0335 229.511 40.044C229.415 40.0515 229.309 40.0636 229.053 40.131" stroke="#131313" stroke-width="1.14714" stroke-linecap="round"/>
<path d="M229.073 40.1567C229.507 41.5437 229.79 44.6519 229.811 45.951C229.812 46.0376 229.772 46.1025 229.529 45.9437C228.788 45.4594 228.056 44.8054 227.261 44.1365C225.977 43.0576 225.311 42.0809 225.115 41.922C224.788 41.6569 224.596 41.3775 224.358 40.9804C224.301 40.8847 224.259 40.8057 224.213 40.794C223.948 40.7258 223.633 41.6095 222.824 42.3586C222.421 42.7326 222.014 43.107 221.594 43.4627C221.136 43.8509 220.684 44.1935 220.382 44.4159C220.121 44.6086 219.623 44.8647 219.234 44.9695C218.888 45.0628 219.192 44.0564 219.203 43.5734C219.242 41.9043 219.853 39.8337 220.156 38.2" stroke="#131313" stroke-width="1.14714" stroke-linecap="round"/>
<path d="M45.9065 60.1719C46.3025 60.9764 46.5605 61.5971 46.7028 62.0393C46.7911 62.2753 46.912 62.5346 47.6043 64.1895C48.2967 65.8445 49.5569 68.8871 50.8553 72.022" stroke="#131313" stroke-width="1.14714" stroke-linecap="round"/>
<path d="M45.8363 60.3628C47.5205 60.1693 50.0621 59.8167 50.732 59.3575C51.2492 59.003 51.5901 58.4158 52.8879 56.9366C53.5973 56.128 53.7151 55.2925 53.9391 54.2995C54.218 53.063 53.6625 51.343 53.0247 50.1753C52.0578 48.4049 51.0547 48.0844 50.2193 47.7792C49.3949 47.4781 48.3472 46.953 46.6688 46.7001C44.4549 46.3665 42.8384 47.0614 42.4652 47.2722C41.574 47.7754 41.1924 48.4758 40.1363 49.8049C39.8654 50.1458 39.7303 50.4191 39.5972 50.6051C39.464 50.791 39.3545 50.8946 39.2653 50.6634C38.7055 49.2108 38.6058 48.381 38.1609 47.5872C37.6618 46.6967 36.8667 46.3105 36.182 45.8354C35.3472 45.2561 33.6381 44.871 32.7554 44.6946C31.8264 44.5089 31.1906 44.6903 29.3475 44.8859C28.3945 44.9871 27.4875 45.5425 26.7686 45.9627C25.9042 46.4679 25.6363 47.3172 25.2583 48.3108C25.0462 48.8684 25.16 49.3368 25.2163 50.0911C25.349 51.8696 25.6237 53.3899 26.0174 54.0181C26.723 55.1441 27.7151 56.1246 28.0775 56.4533C28.4152 56.7593 26.6213 56.1325 25.4213 56.1002C23.347 56.0443 22.0851 56.924 21.2947 57.4467C20.805 57.7705 20.3652 58.288 20.0192 58.8953C19.6518 59.5401 19.2623 61.2277 19.1639 62.1369C19.0397 63.2842 19.4887 65.104 20.4427 66.6304C21.2001 67.8423 22.7104 67.8615 24.1956 68.1053C27.6278 68.6688 28.3282 68.4139 29.3125 68.3018C30.1324 68.2084 30.6247 67.5688 31.3044 67.2152C31.901 66.9319 32.5087 66.6164 32.9008 66.4339C33.09 66.3353 33.2595 66.2248 33.5144 66.0097" stroke="#131313" stroke-width="1.14714" stroke-linecap="round"/>
<path d="M30.5559 68.2812C30.6607 68.6648 31.0134 69.6049 31.6474 71.261C32.2002 72.7048 33.052 74.0272 33.5096 74.9152C33.6877 75.5245 33.7963 75.9416 33.9448 76.1692C34.0196 76.2839 34.0933 76.3968 34.1796 76.604" stroke="#131313" stroke-width="1.14714" stroke-linecap="round"/>
<path d="M34.3113 77.1384C34.5402 77.1792 35.2527 77.5018 35.6826 77.7817C35.8465 77.8884 36.4676 78.0628 37.617 78.3701C38.9823 78.7351 40.467 78.6894 41.5857 78.6059C42.1737 78.5621 42.9766 78.5143 44.0968 78.3521C45.3833 78.1658 46.2086 77.3558 46.9427 76.9307C47.734 76.4724 48.126 76.1179 48.9122 75.407C49.388 74.9769 49.7938 74.3234 50.036 73.8661C50.3466 73.22 50.4626 72.6667 50.5146 72.0283C50.4979 71.7826 50.4548 71.4074 50.4104 71.0209" stroke="#131313" stroke-width="1.14714" stroke-linecap="round"/>
<path d="M34.3752 70.2773C34.6134 71.057 34.8379 71.5396 35.0835 72.1918C35.4725 73.225 35.7543 73.7744 36.1627 74.8394C37.1578 77.1014 37.2618 77.4512 37.3369 77.6441C37.3793 77.7356 37.4304 77.8139 37.4975 78.0206" stroke="#131313" stroke-width="1.14714" stroke-linecap="round"/>
<path d="M36.7092 71.1562C36.9611 72.0606 37.314 72.9113 37.6026 73.5713C37.8184 74.065 38.0762 74.5487 38.3893 75.33C38.6454 75.9693 39.0945 76.7488 39.3576 77.1871C39.5674 77.7165 39.7557 78.0565 39.8204 78.2507C39.8524 78.3433 39.8828 78.4241 39.9842 78.563" stroke="#131313" stroke-width="1.14714" stroke-linecap="round"/>
<path d="M38.9954 70.5117C39.3231 71.5152 39.5938 72.034 39.8992 72.7434C40.4513 74.0258 40.6863 74.3136 40.9897 74.8312C41.3422 75.4324 41.9847 76.5644 42.3214 77.1665C42.3862 77.2665 42.4557 77.3217 42.517 77.3893C42.5784 77.4569 42.6295 77.5352 42.8298 77.7904" stroke="#131313" stroke-width="1.14714" stroke-linecap="round"/>
<path d="M40.2896 68.4492C40.5465 69.2197 40.7299 69.6949 41.0935 70.3807C42.0087 72.1067 42.6608 73.3646 42.9174 73.6627C43.9311 74.8405 44.3164 75.9367 44.6436 76.4637C44.7098 76.5741 44.7609 76.6525 44.8024 76.7332C44.8439 76.8139 44.8742 76.8946 44.9199 77.1037" stroke="#131313" stroke-width="1.14714" stroke-linecap="round"/>
<path d="M42.7576 67.7188C43.4696 69.1527 44.1526 70.4446 44.6468 71.323C45.106 72.1393 45.6568 72.9767 46.6992 74.4789C46.9433 74.9124 47.1048 75.2128 47.3135 75.5499C47.3945 75.6912 47.4248 75.7719 47.5262 75.9108" stroke="#131313" stroke-width="1.14714" stroke-linecap="round"/>
<path d="M44.96 65.2344C45.7274 66.7398 46.037 67.2133 46.6179 68.1131C47.0782 68.8262 47.5908 69.8214 47.8429 70.3449C48.0462 70.7668 48.2895 71.461 48.7336 72.2725C49.0163 72.7842 49.2277 73.142 49.4789 73.6656C49.536 73.7879 49.5663 73.8687 49.6822 74.1335" stroke="#131313" stroke-width="1.14714" stroke-linecap="round"/>
<path d="M34.7017 56.8164C35.4844 57.0683 36.7084 57.5483 37.395 57.6594C37.5542 57.6928 37.7301 57.7407 37.8899 57.7745C38.0497 57.8083 38.1881 57.8265 38.3424 57.9471" stroke="#131313" stroke-width="1.14714" stroke-linecap="round"/>
<path d="M37.246 55.5939C37.1156 55.9517 36.8109 56.8768 36.6702 57.6199C36.6685 57.7585 36.684 57.893 36.666 58.0334C36.6481 58.1738 36.5963 58.3161 36.5546 58.5646" stroke="#131313" stroke-width="1.14714" stroke-linecap="round"/>
<path d="M34.3055 76.8483C34.3461 77.0515 34.4959 77.4508 34.5829 77.8243C34.698 78.3183 34.8715 78.7483 34.9376 79.0195C35.0345 79.4168 35.8112 79.84 36.6189 80.1226C37.3024 80.3617 37.7064 80.2686 39.0652 80.3811C39.8064 80.4425 40.432 80.3554 40.924 80.3252C41.1075 80.314 41.4009 80.3141 41.7858 80.2612C42.0532 80.2245 43.1502 80.0092 44.7114 79.743C45.5506 79.5999 45.8126 79.4774 46.3166 79.254C46.9642 78.9669 47.3857 78.7924 47.9636 78.3791C48.8491 77.7459 49.5768 77.2528 49.9395 76.9428C50.9865 76.048 51.1997 75.3296 51.4025 74.8855C51.539 74.5863 51.5828 74.2561 51.5674 73.8924C51.5514 73.3738 51.3429 72.4586 51.1334 72.0021C51.0879 71.911 51.0442 71.8299 50.9298 71.5977" stroke="#131313" stroke-width="1.14714" stroke-linecap="round"/>
<path d="M58.9801 83.5432C58.9613 83.3797 58.8672 82.56 58.7555 81.3471C58.6936 80.6755 58.8189 79.7217 58.9227 78.208C59.0939 75.7116 59.37 75.054 59.506 74.1739C59.6116 73.4911 59.849 72.4379 59.98 71.6232C60.179 70.3862 60.9 68.4948 61.3854 67.726C61.4654 67.5625 61.5042 67.42 61.6055 67.2131C61.7067 67.0061 61.8693 66.739 62.1734 66.1972" stroke="#131313" stroke-width="1.14714" stroke-linecap="round"/>
<path d="M62.1896 65.6131C62.0828 65.4038 61.5269 64.9114 60.8233 64.3783C60.5423 64.1654 60.2367 63.8878 59.9223 63.576C59.7872 63.4419 59.7263 63.3333 59.7925 63.0756C59.9713 62.3793 60.5443 61.513 60.9848 60.7381C61.2144 60.3341 61.6279 59.5501 62.3337 58.4248C62.8197 57.6501 63.5253 56.6565 64.3493 55.3507C65.3628 53.7448 66.2448 53.1348 66.8643 52.448C67.3301 51.9317 68.164 52.3523 70.4217 53.0097C71.3703 53.2859 71.776 53.9431 72.4709 54.532C73.0353 55.0102 73.4255 55.6774 73.7126 56.1048C74.1094 56.6957 73.8823 57.6875 73.5541 58.4637C73.1777 59.3538 72.2729 60.8466 71.683 61.9549C71.0315 63.1787 70.272 63.845 69.6319 64.7273C69.1277 65.4223 68.7395 66.0568 68.3809 66.5869C67.8061 67.4367 66.9348 68.5492 66.5074 68.9642C66.0237 69.4339 64.7521 67.7226 64.0301 67.2987C63.7202 67.1167 63.3831 67.01 63.1174 66.9983C62.9914 66.9927 62.8946 67.1197 62.836 67.2243C62.5956 67.6529 62.4493 68.3401 62.2435 68.8673C62.0758 69.2967 62.1168 69.8286 61.8231 70.7816C61.5839 71.5578 61.4515 72.9931 61.2344 73.9176C61.109 74.4519 60.9928 75.0866 60.9849 75.6333C60.9761 76.2414 60.7981 77.0327 60.709 77.8375C60.5421 79.3463 60.4665 79.9715 60.2862 81.3141C60.1869 82.0533 60.2561 83.0034 60.2262 83.7082C60.2209 83.8327 60.1117 83.9166 59.9382 83.9792C59.7648 84.0418 59.4923 84.0731 59.3049 84.0394C59.1174 84.0057 59.0232 83.9061 58.9261 83.8035" stroke="#131313" stroke-width="1.14714" stroke-linecap="round"/>
<path d="M58.6523 83.8902C58.656 83.9229 58.7311 84.5768 58.8404 85.6001C58.8939 86.1009 58.9375 86.8104 59.0628 87.7567C59.1886 88.7073 59.7209 89.4171 59.9088 89.5292C60.2998 89.7624 60.894 89.6009 61.2613 89.5256C61.4732 89.4821 61.5382 89.227 61.6245 89.0335C61.69 88.8869 61.5772 87.9596 61.4165 86.6328C61.2969 85.6454 61.1153 84.6635 61.0475 84.2934C61.0289 84.2035 60.9994 84.0911 60.9723 84.0014C60.9452 83.9117 60.9213 83.8483 60.8302 83.6401" stroke="#131313" stroke-width="1.14714" stroke-linecap="round"/>
<path d="M62.3249 61.7973C62.2319 61.625 62.1556 61.448 62.1163 61.2682C62.0383 60.9104 62.4066 60.5882 62.6973 60.3873C62.7893 60.3238 62.9491 60.3396 63.0627 60.3539C63.2625 60.3792 63.4245 60.5976 63.5722 60.839C63.9095 61.39 63.7687 62.2962 63.653 62.4109C63.5224 62.5405 63.3201 62.57 63.143 62.5538C62.7796 62.2091 62.5396 61.7366 62.5108 61.5647C62.4922 61.4831 62.4659 61.413 62.4387 61.3407" stroke="#131313" stroke-width="1.14714" stroke-linecap="round"/>
<path d="M64.692 58.751C64.6317 58.7036 64.4313 58.2476 64.3699 57.718C64.3569 57.606 64.4031 57.529 64.4514 57.4674C64.5487 57.3436 64.7825 57.2991 65.0406 57.2969C65.4033 57.2938 65.6216 57.8469 65.8268 58.176C66.0326 58.506 66.0616 59.0904 66.0663 59.4499C66.0692 59.6726 65.844 59.764 65.7047 59.8355C65.637 59.8702 65.5613 59.8708 65.4616 59.8091C65.0216 59.3612 64.7483 58.913 64.6237 58.557C64.6018 58.4486 64.5852 58.3042 64.5681 58.1553" stroke="#131313" stroke-width="1.14714" stroke-linecap="round"/>
<path d="M66.7323 56.2436C66.5748 56.1519 66.2774 55.8168 66.1456 55.3979C66.0931 55.2311 66.1335 55.0566 66.2125 54.8632C66.3032 54.6411 66.4981 54.5335 66.6586 54.4874C66.852 54.4317 67.0654 54.4861 67.2508 54.5754C67.5736 54.7308 67.7627 55.0885 67.924 55.44C68.0048 55.6163 68.0936 56.0284 68.1071 56.5442C68.1121 56.7363 67.9971 56.7813 67.8083 56.8219C67.6194 56.8624 67.3305 56.8956 67.1414 56.8807C66.9523 56.8658 66.8718 56.8019 66.7998 56.6627C66.7278 56.5235 66.6668 56.311 66.604 56.092" stroke="#131313" stroke-width="1.14714" stroke-linecap="round"/>
<path d="M70.0859 58.4093C70.0331 58.2684 69.8416 57.8852 69.7129 57.4927C69.6387 57.2667 69.7073 57.049 69.8119 56.917C70.021 56.6529 70.4615 56.7029 70.7033 56.7209C71.1512 56.7541 71.3188 57.2498 71.5523 57.6662C71.7546 58.0268 71.8896 58.3485 71.9387 59.0899C71.9498 59.257 71.8005 59.32 71.6757 59.3626C71.159 59.3771 70.838 59.1556 70.6418 58.9752C70.5664 58.8908 70.5401 58.8206 70.3846 58.5967" stroke="#131313" stroke-width="1.14714" stroke-linecap="round"/>
<path d="M67.7736 61.4464C67.6632 61.1276 67.5 60.6673 67.4391 60.1468C67.4169 59.9572 67.6837 59.8678 67.8594 59.7922C68.2153 59.639 68.628 59.888 68.9404 60.1099C69.3456 60.3977 69.4237 61.014 69.5387 62.0897C69.5626 62.3137 69.4912 62.3934 69.4325 62.447C69.3205 62.5492 69.123 62.5666 68.9127 62.5816C68.7188 62.5954 68.5427 62.5046 68.3873 62.3567C68.3126 62.2727 68.2459 62.1706 68.1933 62.0377C68.1406 61.9049 68.1039 61.7445 68.066 61.5792" stroke="#131313" stroke-width="1.14714" stroke-linecap="round"/>
<path d="M65.0675 64.9198C64.8298 64.6167 64.6686 63.8601 64.6471 63.3545C64.6394 63.1733 64.7331 63.1475 64.8595 63.1236C65.1643 63.0658 65.4269 63.0673 65.5898 63.122C66.0394 63.2731 66.1373 63.779 66.3358 64.0614C66.5486 64.3641 66.5572 64.8568 66.5602 65.2814C66.5618 65.4975 66.1183 65.5198 65.7154 65.5478C65.4528 65.5231 65.2931 65.4306 65.1672 65.2975C65.1038 65.2305 65.0413 65.1645 64.9769 65.0965" stroke="#131313" stroke-width="1.14714" stroke-linecap="round"/>
<path d="M23.6223 82.5703C24.3381 82.8014 25.0538 83.0324 25.8604 83.2813C26.6669 83.5302 27.5426 83.7899 28.0514 83.9483C29.1159 84.2799 29.8997 84.4751 30.8505 84.7584C31.6682 85.0021 33.1757 85.4164 33.9925 85.6528C35.179 85.996 35.7242 86.148 36.2876 86.3043C36.4116 86.3382 36.4752 86.3466 36.5897 86.3806C36.7042 86.4147 36.8677 86.4743 37.0829 86.5302" stroke="#131313" stroke-width="1.14714" stroke-linecap="round"/>
<path d="M18.1096 88.7109C19.1006 89.02 20.0916 89.3291 20.8533 89.5613C21.615 89.7935 22.1173 89.9394 22.4501 90.0453C22.7829 90.1511 22.9309 90.2124 23.956 90.5266C24.981 90.8408 26.8786 91.406 29.3299 92.1858C31.7812 92.9656 34.7286 93.9428 36.2874 94.4572C37.8461 94.9717 37.927 94.9937 38.0625 95.0579" stroke="#131313" stroke-width="1.14714" stroke-linecap="round"/>
<path d="M36.984 86.4956C37.4482 86.5524 37.9099 86.7205 38.2858 86.8202C38.5786 86.8979 38.8114 87.123 39.2401 87.4848C39.5572 87.7525 39.6442 88.1665 39.817 88.5734C40.0876 89.2107 40.0975 90.1868 40.2616 90.5164C40.4758 90.9464 41.1601 91.3302 41.5697 91.6477C41.8936 91.8988 42.1861 91.9889 42.6494 92.2357C43.0031 92.424 43.2338 92.5644 43.5207 92.7216C43.8819 92.9194 44.3091 93.2478 44.7718 93.4951C45.147 93.6957 45.692 94.006 46.1234 94.3758C46.4825 94.6836 46.756 95.2603 46.784 95.6371C46.7904 95.7222 46.7057 95.7731 46.6225 95.8068C46.0024 96.0584 44.9826 95.6406 44.4307 95.5217C44.0816 95.4465 43.7876 95.3032 43.0849 95.0208C42.1391 94.6407 41.1172 94.1879 40.5908 94.0559C40.2283 93.9649 39.8944 93.9144 39.6513 94.0048C39.3072 94.1327 39.2764 94.6006 39.238 94.8903C39.2276 94.9687 39.2497 95.0622 39.2251 95.1212C39.1405 95.2029 38.7534 95.1225 38.2135 94.9631C37.9987 94.9073 37.9042 94.9025 37.8068 94.8975" stroke="#131313" stroke-width="1.14714" stroke-linecap="round"/>
<path d="M15.9064 82.4386C15.8108 82.3201 15.314 82.0943 14.7033 81.8687C14.345 81.7363 13.6361 81.6043 13.1524 81.5098C12.4258 81.3678 11.9687 81.4006 11.6627 81.465C11.5481 81.4891 11.5368 81.5673 11.5389 81.6909C11.5484 82.2387 11.7391 82.4077 12.0804 82.764C12.4551 83.1551 12.79 83.2217 13.1747 83.3844C13.3896 83.4753 13.718 83.5877 14.4063 83.8442C14.8801 84.0207 15.6256 84.2387 16.0381 84.3718C16.5149 84.5255 16.6623 84.5987 16.8014 84.6771C16.898 84.7316 16.9004 84.9137 16.9007 85.1202C16.9012 85.4892 16.6717 85.6969 16.5969 85.9246C16.5055 86.203 16.6096 86.7068 16.6959 87.0487C16.7683 87.3359 17.0481 87.7565 17.3335 88.1758C17.4807 88.3921 17.7688 88.575 18.0998 88.7742C18.3405 88.9124 18.683 89.015 18.9581 89.037C19.0176 89.0362 19.0638 89.0309 19.1114 89.0254" stroke="#131313" stroke-width="1.14714" stroke-linecap="round"/>
<path d="M23.4336 82.5651C23.422 82.4641 23.3919 82.393 23.3401 82.3584C23.2186 82.2773 22.9864 82.1966 22.6565 82.057C22.565 82.0182 22.0838 81.8952 21.3955 81.6864C21.1247 81.6043 21.0749 81.5664 20.8392 81.491C20.245 81.301 19.794 81.145 19.6808 81.1543C19.4141 81.1763 18.9842 81.2889 18.7675 81.4947C18.5647 81.6875 18.3881 82.0803 18.1683 82.3828C18.1063 82.4682 17.7404 82.525 17.1885 82.5996C16.6574 82.6713 16.4968 82.5208 16.1243 82.291C16.0435 82.2404 16.0194 82.2213 15.9873 82.199C15.9552 82.1768 15.9158 82.1521 15.8752 82.1266" stroke="#131313" stroke-width="1.14714" stroke-linecap="round"/>
<path d="M2.34448 53.6953C3.0928 54.0159 3.84111 54.3365 5.61763 54.9314C7.39415 55.5263 10.1762 56.3858 11.6742 56.8618C13.3018 57.4042 13.5201 57.5035 13.6834 57.587C13.7619 57.6396 13.8313 57.7129 13.9028 57.7885" stroke="#131313" stroke-width="1.14714" stroke-linecap="round"/>
<path d="M5.40479 49.7695C5.66939 51.5422 5.99302 52.5738 6.33948 53.713C6.45306 54.0865 6.70526 54.6665 7.03395 55.3883C7.15687 55.6582 7.31195 55.6686 8.64772 55.4243C9.9835 55.18 12.5263 54.6644 13.8752 54.3841C15.2241 54.1038 15.302 54.0745 15.3823 54.0443" stroke="#131313" stroke-width="1.14714" stroke-linecap="round"/>
<path d="M7.07104 47.1172C7.74413 47.8179 8.9152 48.3813 9.67536 48.5422C10.6257 48.7434 11.3756 48.5324 11.9482 48.385C12.2622 48.1638 12.4738 48.0372 12.5811 47.902C12.6352 47.8339 12.6885 47.7668 12.7434 47.6976" stroke="#131313" stroke-width="1.14714" stroke-linecap="round"/>
<path d="M9.78467 44.4648C10.1756 44.8487 10.8541 45.388 11.4954 45.97C11.872 46.3119 12.5485 46.9354 13.1516 47.5151C13.9432 48.2759 14.3593 48.9068 14.9535 49.8833C15.0722 50.0989 15.1015 50.1768 15.1964 50.3806C15.2912 50.5844 15.4508 50.9116 15.6222 51.3096" stroke="#131313" stroke-width="1.14714" stroke-linecap="round"/>
<path d="M11.22 41.4062C11.6936 41.6364 12.1673 41.8666 13.4678 42.4229C14.7683 42.9791 16.8814 43.8545 18.1173 44.3494C19.6479 44.9325 20.389 45.1154 21.1031 45.2591C21.3798 45.3108 21.4824 45.3193 21.5952 45.3889" stroke="#131313" stroke-width="1.14714" stroke-linecap="round"/>
<path d="M15.5452 37.7653C15.8825 40.8848 16.0898 41.9704 16.3431 42.8428C16.6794 44.001 16.8601 44.9225 17.0382 45.677C17.8395 48.4451 18.0023 48.7954 18.1526 49.1172C18.1935 49.2052 18.2452 49.3009 18.3592 49.3925" stroke="#131313" stroke-width="1.14714" stroke-linecap="round"/>
<path d="M17.8582 36.453C18.518 35.4132 18.845 35.0473 19.1571 34.7238C19.3276 34.547 19.7629 34.4688 20.5326 34.3188C21.7164 34.088 22.8514 34.1941 23.4851 34.4389C23.851 34.5802 23.8702 35.1637 23.8708 35.7886C23.8722 37.1343 22.768 38.0636 22.3287 38.7094C22.0427 39.1299 21.6184 39.4892 21.1025 39.8377C20.7212 40.0953 21.9025 39.1523 23.4983 38.5171C25.0139 37.9139 25.9428 38.4171 26.5923 38.7645C27.0887 39.03 27.2144 39.7914 27.2989 41.1434C27.3411 41.8184 26.4767 42.6038 25.241 43.5693C24.6766 43.9219 24.1476 44.1693 23.7239 44.3205C23.5541 44.3816 23.4761 44.4109 23.2134 44.462" stroke="#131313" stroke-width="1.14714" stroke-linecap="round"/>
<path d="M29.5507 36.8173C29.9275 36.1024 30.7027 34.6115 31.1911 33.6831C31.4271 33.2347 32.0895 32.0547 32.9805 30.3409C33.3005 29.7253 33.3779 29.6392 33.43 29.5507C33.482 29.4622 33.5129 29.3773 33.5473 29.4941C33.6725 29.9196 33.7875 30.6948 34.0282 31.6294C34.5038 33.4758 34.5566 34.3444 34.7858 35.2729C34.9634 35.9923 35.082 36.2374 35.0582 36.384C35.0384 36.5055 33.6244 36.4886 31.647 36.603C29.8425 36.7074 28.3919 36.9646 28.0447 37.2613C27.9774 37.3188 28.0104 37.4187 28.0699 37.4944C28.5739 38.1354 29.5802 39.3081 29.8358 39.8172C29.9249 39.9708 30.0389 40.2448 30.186 40.546C30.2698 40.6513 30.3724 40.6598 30.4782 40.6686" stroke="#131313" stroke-width="1.14714" stroke-linecap="round"/>
<path d="M34.7876 36.3555C35.8548 36.5403 36.4343 36.5975 36.9013 36.6255C37.1016 36.6375 37.2419 36.8121 37.3493 36.943C37.4048 37.0106 37.4012 37.1209 37.3604 37.2085C37.1794 37.5971 36.6637 38.0052 36.2765 38.4011C36.0248 38.7174 35.8544 39.0247 35.782 39.1968C35.7406 39.2841 35.6897 39.3713 35.6371 39.4611" stroke="#131313" stroke-width="1.14714" stroke-linecap="round"/>
<path d="M40.4772 29.7118C40.3864 32.4881 40.3462 33.9342 40.3493 34.4063C40.3509 34.6507 40.3531 35.0619 40.3212 35.5883C40.2958 36.0069 40.3511 37.0075 40.3268 38.3134C40.3103 39.2016 40.2906 39.5265 40.2958 39.7514C40.2982 39.8542 40.3365 39.9315 40.5468 39.9899C41.1328 40.1526 42.1385 40.1157 43.2169 40.135C43.7065 40.161 44.0792 40.2198 44.3973 40.2865C44.7155 40.3531 44.9677 40.4258 45.2955 40.5545" stroke="#131313" stroke-width="1.14714" stroke-linecap="round"/>
<path d="M40.4087 35.0195C42.0059 35.1207 43.3487 35.2756 44.188 35.4358C44.5072 35.4931 44.6098 35.5016 44.714 35.5103C44.8181 35.519 44.9208 35.5275 45.2159 35.5762" stroke="#131313" stroke-width="1.14714" stroke-linecap="round"/>
<path d="M40.5234 29.582C40.6886 29.6037 40.8963 29.6211 41.7785 29.764C42.5403 29.8874 43.9307 30.1676 44.7218 30.3272C45.5129 30.4867 45.6603 30.5308 45.85 30.5709C46.0397 30.611 46.2673 30.6458 46.6304 30.7286" stroke="#131313" stroke-width="1.14714" stroke-linecap="round"/>
<path d="M49.2642 30.0596C49.336 31.393 49.3912 32.769 49.399 33.9068C49.4034 34.5449 49.2774 35.3496 49.1817 36.742C49.1281 37.5218 49.0202 38.4468 48.994 39.3073C48.9678 40.1678 49.0152 40.9348 49.2584 41.376C49.6758 42.1332 50.595 42.0211 51.2833 42.146C53.4283 42.5351 53.7141 42.71 53.9353 42.6751C54.2573 42.6242 54.613 41.445 55.0887 40.0466C55.2737 39.5026 55.2701 39.2714 55.3243 38.4995C55.3785 37.7276 55.4718 36.4158 55.5473 35.6252C55.6895 34.1355 55.6777 32.8021 55.5816 31.9661C55.5762 31.9193 55.7022 33.0161 55.6786 34.3149C55.655 35.6137 55.4891 37.1777 55.3827 38.0671C55.2153 39.4677 55.1443 39.9573 55.1064 40.5148C55.0371 41.5344 54.9306 41.8508 55.0164 42.0664C55.2319 42.6083 56.0802 42.5812 56.4431 42.6941C56.5352 42.7228 56.6198 42.8063 56.674 42.9131C56.8913 43.3417 56.5334 43.9841 56.1828 44.6007C55.4598 45.8723 55.4855 46.6708 55.4674 47.1484C55.4667 47.231 55.4559 47.3136 55.456 47.4063C55.4562 47.499 55.4677 47.5993 55.4796 47.7027" stroke="#131313" stroke-width="1.14714" stroke-linecap="round"/>
</svg>
