<svg width="198" height="184" viewBox="0 0 198 184" fill="none" xmlns="http://www.w3.org/2000/svg">
<path d="M127.917 103.64C127.917 103.213 127.971 102.567 128.265 101.12C128.804 98.4702 129.959 95.6774 131.088 93.6593C132.411 91.2941 135.065 89.8583 136.857 88.8788C138.254 88.1149 139.443 87.6923 141.353 87.3424C143.714 86.91 148.265 87.7925 150.756 88.9265C152.224 89.5947 152.859 90.7053 153.723 91.8344C155.106 93.6421 155.555 94.9597 156.283 96.5487C156.873 97.8361 157.763 100.659 158.331 102.422C159.119 104.866 159.328 107.293 159.464 108.7C159.491 109.024 159.544 109.398 159.572 109.99C159.599 110.582 159.599 111.382 159.599 112.207" stroke="#131313" stroke-width="1.04383" stroke-linecap="round"/>
<path d="M127.647 103.789C127.847 103.688 130.45 104.287 132.685 104.813C134.9 105.333 135.847 105.771 137.653 106.24C140.898 107.082 143.182 107.487 143.668 107.621C144.857 107.95 145.435 108.16 146.887 108.593C148.116 108.96 150.303 109.759 151.618 110.187C153.917 110.935 154.816 111.186 155.406 111.355C156.127 111.561 156.868 111.825 157.841 112.177C158.711 112.429 159.392 112.666 159.727 112.834C159.896 112.902 160.062 112.935 160.234 113.07" stroke="#131313" stroke-width="1.04383" stroke-linecap="round"/>
<path d="M118.299 101.259C118.328 100.948 118.413 100.377 118.47 98.4281C118.523 96.593 118.527 93.0375 118.527 91.1214C118.528 89.036 118.414 88.6642 118.258 87.9841C117.756 85.7982 117.588 85.1596 117.402 84.4757C117.183 83.6667 116.565 82.8546 115.852 81.912C114.463 80.0772 113.145 79.8297 112.105 79.3304C111.338 78.9627 110.721 78.973 110.165 78.9298C108.876 78.8296 107.044 78.9148 105.637 79.5539C104.688 79.9849 103.854 80.4247 102.999 81.0215C102.07 81.6693 101.66 82.7007 101.045 83.4159C100.207 84.3908 99.6042 85.9223 99.2917 86.7495C98.8815 87.8355 98.3525 88.9421 97.9947 90.3096C97.6595 91.5911 97.0154 93.547 96.6545 95.0993C96.5893 95.3801 96.5554 95.7512 96.5122 96.0107C96.469 96.2702 96.4408 96.4112 96.8636 96.498C99.1892 96.9754 100.196 96.8969 101.877 97.0974C103.097 97.2429 104.043 97.6937 106.264 98.2362C106.753 98.3557 107.008 98.4358 108.282 98.691C109.555 98.9463 111.841 99.3695 113.075 99.6016C114.65 99.9474 115.5 100.231 116.458 100.432C116.701 100.489 116.983 100.573 117.53 100.831" stroke="#131313" stroke-width="1.04383" stroke-linecap="round"/>
<path d="M103.946 97.0792C103.908 97.0792 104.004 96.4045 104.208 95.3148C104.313 94.7555 104.664 93.7199 105.073 92.164C105.337 91.1593 105.406 90.5971 105.503 90.2378C105.816 89.0819 106.088 87.58 106.253 86.9857C106.398 86.4646 106.438 86.1372 106.545 86.0108C106.967 85.5097 108.247 85.9608 108.638 86.0292C108.848 86.0659 110.107 86.2704 111.869 86.6305C112.494 86.7582 112.571 86.7786 112.581 86.8367C112.651 87.2094 112.242 87.6139 112.105 88.1303C111.986 88.5809 111.872 89.0345 111.764 89.7749C111.667 90.4453 111.54 91.1783 111.415 92.115C111.305 92.9381 111.039 94.4588 110.91 95.2915C110.727 96.4692 110.684 97.2883 110.606 97.9245C110.586 98.0325 110.567 98.1096 110.557 98.265C110.547 98.4204 110.547 98.6517 110.489 99.0069" stroke="#131313" stroke-width="1.04383" stroke-linecap="round"/>
<path d="M137.701 106.192C137.76 106.034 137.82 105.876 138.058 104.499C138.296 103.123 138.711 100.534 138.925 99.1304C139.159 97.5918 139.178 97.1497 139.258 96.6313C139.4 95.7067 139.558 94.6728 139.777 93.3184C139.846 92.8899 139.957 92.6948 140.126 92.575C140.674 92.1857 141.826 92.4744 142.671 92.6035C143.2 92.6843 143.53 92.8733 144.018 93.0228C145.131 93.3629 146.145 93.7108 146.625 93.8716C146.87 93.9538 147.065 94.0318 147.185 94.0812C147.508 94.2145 147.166 94.9076 147.116 95.388C147.097 95.567 147.086 95.7875 146.997 96.5112C146.798 98.123 146.686 99.3217 146.637 99.7488C146.49 101.016 146.347 101.437 146.277 101.818C146.212 102.173 146.207 103.248 146.157 104.014C146.128 104.474 145.948 105.269 145.898 105.841C145.849 106.39 145.769 106.829 145.708 107.268C145.688 107.389 145.649 107.507 145.619 107.608C145.588 107.709 145.569 107.788 145.488 108.049" stroke="#131313" stroke-width="1.04383" stroke-linecap="round"/>
<path d="M121.12 85.6676C121.043 85.0932 120.735 83.8595 120.542 83.2209C120.409 82.782 119.985 81.9137 119.617 81.2924C119.327 80.9448 119.134 80.6556 118.971 80.4728C118.884 80.3855 118.789 80.3091 118.69 80.2305" stroke="#131313" stroke-width="1.04383" stroke-linecap="round"/>
<path d="M132.047 87.9445C132.124 87.5624 132.791 86.7726 133.774 85.8576C134.297 85.4808 134.966 85.0239 136.114 84.4721C136.497 84.2887 136.997 84.0311 137.512 83.7656" stroke="#131313" stroke-width="1.04383" stroke-linecap="round"/>
<path d="M117.051 104.438C117.051 104.497 117.155 104.571 117.814 104.735C118.366 104.871 119.375 105.046 120.01 105.152C120.646 105.258 120.883 105.273 121.477 105.362C122.072 105.451 123.018 105.613 123.609 105.727C124.818 105.959 125.556 106.138 126.177 106.34C126.291 106.377 126.35 106.393 126.35 106.415C126.36 106.654 125.889 106.736 124.328 107.902C123.805 108.293 123.36 108.816 122.998 109.149C122.426 109.674 121.949 110.033 121.569 110.435C120.999 111.039 120.605 111.6 120.054 112.518C119.967 112.662 119.932 112.574 119.925 112.462C119.917 112.35 119.917 112.203 119.762 111.624C119.607 111.045 119.297 110.04 119.129 109.471C118.933 108.802 118.814 108.248 118.605 107.503C118.418 106.834 118.306 106.574 118.179 106.312C118.141 106.171 118.037 105.932 117.866 105.604C117.783 105.439 117.71 105.277 117.589 105.064" stroke="#131313" stroke-width="1.04383" stroke-linecap="round"/>
<path d="M119.942 111.995C119.929 112.26 119.771 112.71 119.663 113.144C119.564 113.545 119.451 114.002 119.337 114.355C119.217 114.728 118.986 115.408 118.779 115.978C118.625 116.4 118.32 116.822 118.001 117.122C117.753 117.355 117.456 117.501 117.19 117.588C116.757 117.73 116.034 117.848 115.276 117.901C114.821 117.933 114.291 117.889 113.566 117.683C113.184 117.574 112.735 117.158 112.447 116.977C112.223 116.836 112.001 116.625 111.835 116.419C111.515 116.022 111.269 115.349 111.189 114.936C111.14 114.681 111.069 114.312 111.043 113.92C111.028 113.698 111.003 112.894 111.029 111.592C111.108 110.659 111.215 110.094 111.315 109.683C111.362 109.457 111.401 109.193 111.442 108.922" stroke="#131313" stroke-width="1.04383" stroke-linecap="round"/>
<path d="M119.737 112.293C119.614 112.77 119.533 113.339 119.478 113.881C119.442 114.234 119.356 114.744 119.321 115.38C119.256 116.573 119.654 117.421 119.798 117.721C119.997 118.137 120.281 118.511 120.636 118.921C121.019 119.364 121.82 119.753 122.583 120.101C123.058 120.317 123.365 120.355 123.555 120.423C123.69 120.471 124.558 120.492 125.84 120.499C126.42 120.502 126.706 120.356 127.236 120.024C127.603 119.793 128.116 119.354 128.509 119.024C129.158 118.478 129.585 117.984 129.945 117.454C130.333 116.883 130.473 116.427 130.595 116.203C130.922 115.379 131.141 114.776 131.196 114.654C131.223 114.586 131.25 114.505 131.278 114.38" stroke="#131313" stroke-width="1.04383" stroke-linecap="round"/>
<path d="M96.4691 99.9091C96.1405 99.8387 95.7599 99.7672 94.9704 99.7139C94.3931 99.6749 93.4531 99.6957 92.8403 99.7192C91.9671 99.7526 91.5859 99.8732 91.3787 99.9442C90.8625 100.121 90.1867 100.418 90.0026 100.561C89.7905 100.724 89.8538 101.41 89.9244 101.829C90.0142 102.361 90.94 102.775 91.5297 103.092C91.6919 103.179 91.8565 103.193 92.0691 103.234C92.3791 103.294 92.862 103.406 93.9229 103.495C94.6773 103.558 95.8759 103.572 96.5689 103.566C97.6596 103.558 97.938 103.383 98.6063 102.999C99.0983 102.716 99.4546 102.059 99.5929 101.594C99.6837 101.289 99.5872 101.024 99.5401 100.888C99.3632 100.378 98.3698 100.088 97.9876 99.9687C97.5617 99.8266 97.0631 99.7313 96.4602 99.6722C96.2465 99.6602 95.9883 99.6602 95.7222 99.6602" stroke="#131313" stroke-width="1.04383" stroke-linecap="round"/>
<path d="M159.958 116.054C159.558 116.036 159.313 116.001 159.13 115.958C159.053 115.94 158.946 115.94 158.491 115.931C158.106 115.924 157.406 115.94 156.941 115.975C156.264 116.025 155.917 116.219 155.669 116.415C155.43 116.603 155.375 116.891 155.335 117.117C155.291 117.375 155.348 117.572 155.4 117.673C155.449 117.766 155.592 117.938 155.831 118.178C156.064 118.412 156.611 118.619 157.299 118.889C157.613 119.013 157.867 119.073 158.506 119.213C159.145 119.352 160.165 119.56 160.919 119.679C161.674 119.799 162.132 119.825 162.394 119.826C162.854 119.826 163.421 119.453 163.721 119.22C163.977 119.021 163.957 118.796 163.957 117.995C163.958 117.612 163.844 117.478 163.688 117.255C163.334 116.753 162.561 116.56 162.317 116.478C162.19 116.435 161.997 116.318 161.709 116.225C161.42 116.133 161.049 116.055 160.702 116.015C160.354 115.975 160.043 115.975 159.723 115.975" stroke="#131313" stroke-width="1.04383" stroke-linecap="round"/>
<path d="M117.501 76.375C117.165 76.1734 116.662 75.8383 115.706 75.2926C115.102 74.9475 114.183 74.5969 113.653 74.3909C112.557 73.9655 111.673 73.9489 111.084 73.865C110.866 73.8339 110.595 73.8145 109.925 73.7556C108.659 73.6443 107.747 73.7462 107.537 73.8304C107.43 73.8732 107.31 73.8812 107.25 73.5812C106.912 71.8948 107.291 71.3226 107.333 70.943C107.345 70.8337 107.342 70.6999 107.392 70.6145C107.682 70.1192 108.838 70.243 109.839 70.1247C111.524 69.9256 112.007 70.2248 112.881 70.385C113.133 70.4311 113.722 70.5776 114.572 70.8803C115.625 71.2551 116.823 71.8745 117.289 72.1119C117.559 72.249 117.837 72.4316 118.149 72.7179C118.469 73.012 118.764 73.492 118.908 73.8382C119.105 74.3142 118.934 75.1266 118.783 75.4304C118.479 75.7847 118.344 75.9869 118.21 76.1046C118.142 76.1557 118.075 76.189 118.007 76.274" stroke="#131313" stroke-width="1.04383" stroke-linecap="round"/>
<path d="M141.283 80.7273C141.465 80.7047 141.921 80.5681 142.55 80.4305C142.83 80.3692 144.176 80.2922 146.414 80.4288C148.996 80.5863 149.425 81.0238 149.803 81.1501C150.285 81.311 150.729 81.5275 151.198 81.7557C151.647 81.9739 152.238 82.4636 152.617 82.7738C152.939 83.0372 153.247 83.1973 153.429 83.2662C153.883 83.4378 154.115 82.1726 154.242 81.4616C154.335 80.9404 154.437 80.2496 154.574 79.5404C154.679 78.9984 154.711 78.4872 154.791 78.0981C154.815 77.9853 154.803 77.8476 154.712 77.755C154.257 77.2896 153.23 77.3206 152.586 77.1476C152.014 76.9941 151.557 76.8621 151.008 76.7472C150.373 76.6143 149.819 76.6096 149.03 76.4956C148.427 76.4087 147.692 76.4037 146.802 76.3467C145.421 76.2583 144.237 76.3803 143.701 76.4943C142.648 76.7178 141.949 77.0666 141.57 77.1809C141.157 77.3058 141.124 78.0261 141.02 78.6424C141.009 78.8935 141.009 79.2559 140.997 79.4879C140.986 79.7198 140.963 79.8104 140.94 79.9038" stroke="#131313" stroke-width="1.04383" stroke-linecap="round"/>
<path d="M132.32 69.3086C131.557 69.5743 130.254 70.3417 129.084 70.7259C128.4 70.9508 127.911 71.1872 125.745 71.2258C123.731 71.2616 118.162 71.2264 116.053 71.2258M108.266 73.967C106.775 74.6499 102.416 76.7058 101.453 76.9394C100.404 77.1941 99.4222 77.5525 98.7107 77.935C97.9826 78.3265 97.0086 78.9676 96.1608 79.6411C95.256 80.3599 94.4363 81.6135 93.4964 83.1079C92.8482 84.1386 92.5542 84.9129 92.4006 85.5463C92.2206 86.2887 92.17 87.2115 92.0745 88.0001C91.9658 88.8979 91.7121 89.8184 91.3854 90.779C90.8018 92.4947 89.7978 93.5756 89.1231 94.7865C88.6897 95.5641 88.6819 96.4172 88.5847 97.6614C88.4886 99.972 88.4132 102.63 88.5846 103.26" stroke="#131313" stroke-width="1.04383" stroke-linecap="round"/>
<path d="M132.636 69.3086C132.636 69.6135 132.864 70.3026 133.802 72.2537C134.243 73.1704 135.124 73.5629 135.893 73.9091C136.725 74.2834 138.301 74.2922 139.307 74.4659C140.026 74.5903 141.03 74.6765 141.875 74.7535C142.969 74.8533 146.333 75.9554 147.389 76.2425M153.756 83.0483C154.853 84.4665 156.255 85.946 157.118 86.7542C157.814 87.4059 158.898 88.0559 160.185 89.1494C161.301 90.0987 161.97 91.5072 162.603 92.5431C163.139 93.4208 163.199 94.1163 163.371 94.9406C163.555 95.8203 163.698 97.8621 163.793 99.6154C163.943 102.359 164.004 103.278 164.176 104.144C164.396 105.245 164.731 106.003 165.192 106.886C165.967 108.373 167.414 110.871 167.972 112.004C168.994 114.081 168.339 117.355 167.975 118.561C167.632 119.699 167.151 121.073 166.882 122.261C166.57 123.636 166.077 124.676 165.77 125.638C165.693 125.831 165.617 125.983 165.578 126.156C165.539 126.329 165.539 126.519 165.539 126.715" stroke="#131313" stroke-width="1.04383" stroke-linecap="round"/>
<path d="M166.355 122.851C165.649 123.979 164.669 125.247 163.925 125.879C163.22 126.479 162.392 127.62 161.319 127.937C160.181 128.273 158.126 129.15 155.965 129.769C155.061 130.028 154.419 130.255 153.5 130.535C152.211 130.928 150.856 131.413 149.82 131.468C148.756 131.525 147.696 131.675 145.118 131.674C143.223 131.673 139.728 131.636 137.844 131.58C135.961 131.523 135.698 131.449 134.114 131.24C132.531 131.031 129.714 130.674 128.167 130.532C126.359 130.365 124.772 130.309 123.013 129.952C120.613 129.465 118.557 129.165 117.337 128.811C114.69 128.043 112.486 127.488 111.646 127.166C110.526 126.737 109.533 126.459 108.762 126.194C107.943 125.913 106.84 125.639 105.202 124.899C102.06 123.481 101.285 123.062 100.22 122.36C99.4788 121.872 97.2123 120.055 95.8928 118.844C95.6087 118.583 94.0994 117.629 92.7181 115.716C91.5427 114.088 90.5085 112.762 90.2175 111.848C89.8001 110.538 89.3482 109.343 88.8314 107.488C88.6769 105.94 88.3679 102.772 88.3679 102.488" stroke="#131313" stroke-width="1.04383" stroke-linecap="round"/>
<path d="M133.886 66.1665C133.959 66.0943 134.429 65.5153 135.176 64.6404C135.49 64.3071 135.67 64.1988 136.052 63.854C136.434 63.5093 137.012 62.9315 137.826 62.0078" stroke="#131313" stroke-width="1.04383" stroke-linecap="round"/>
<path d="M138.484 59.9503C138.484 59.8497 138.484 59.5465 138.409 59.0649C138.257 58.0955 137.116 57.567 136.051 57.0565C134.991 56.5486 134.12 56.3967 133.307 56.268C132.435 56.1301 132.723 56.2695 129.101 56.268M92.2748 71.3349C91.0913 72.1762 87.1409 76.6513 86.0941 78.0784C84.7755 79.8759 84.392 81.2776 83.7817 82.3214C83.068 83.5421 82.3074 85.139 81.9775 86.0045C81.654 86.8531 81.2925 88.3847 81.1638 90.3946C81.1391 90.7802 81.1142 94.7026 81.0883 96.6165M81.163 104.226C81.1889 105.788 81.1889 108.655 81.0883 110.559C80.8566 114.946 79.8205 117.237 79.5135 118.588C79.2864 119.587 78.7538 120.693 78.4719 121.737C78.3072 122.348 78.6975 123.033 79.179 123.566C79.9603 124.43 81.4358 124.862 82.7333 125.522C84.0368 126.186 84.7912 126.69 85.5798 127.225C86.4773 127.832 87.4792 128.973 88.424 129.916C89.5222 131.011 90.8347 131.719 92.3318 132.279C93.9865 132.898 95.3056 132.585 96.1444 132.94C97.1742 133.375 98.5025 133.852 99.5722 134.336C101 134.982 102.364 135.075 103.354 134.974C104.413 134.866 104.351 133.252 104.528 132.158C104.728 130.92 105.113 129.647 105.366 128.399C105.418 127.867 105.518 127.206 105.696 126.495C105.773 126.188 105.823 125.986 105.875 125.627" stroke="#131313" stroke-width="1.04383" stroke-linecap="round"/>
<path d="M138.865 59.761C140.232 59.1027 141.553 58.4932 142.392 58.1115C143.418 57.6447 145.608 57.3921 148.85 57.3906M180.896 85.1356C181.657 86.8738 182.751 91.5997 183.004 93.8107C183.141 95.005 183.209 96.1254 183.462 98.0774C183.63 99.3738 183.919 101.3 184.223 103.487C184.457 105.161 184.934 107.295 185.465 109.802M188.035 131.692C187.954 135.394 187.579 137.72 187.45 139.628C187.258 142.481 187.222 146.969 186.589 148.315C186.011 149.545 182.313 149.362 179.035 149.109C175.192 148.812 172.292 149.006 171.582 148.93C171.075 148.876 170.564 148.854 168.925 148.778C165.228 148.606 162.337 148.802 160.469 148.878C156.694 149.033 154.005 148.754 153.523 148.399C152.519 147.66 152.327 146.521 152.022 145.657C151.628 144.538 150.809 143.172 149.562 142.076C148.535 141.174 148.213 139.969 147.908 138.148C147.856 137.137 147.856 135.428 147.906 134.446C147.957 133.465 148.057 133.264 148.161 132.752" stroke="#131313" stroke-width="1.04383" stroke-linecap="round"/>
<path d="M129.595 55.4929C129.466 55.6221 129.399 55.172 128.977 53.948C128.526 52.6415 127.411 51.0265 126.586 49.7164C125.87 48.5799 124.63 46.4367 123.933 45.2743C122.838 43.4476 122.032 42.4173 121.493 41.6033C120.682 40.3792 120.204 39.7443 119.261 38.7502C117.994 37.4154 116.787 36.1633 115.266 34.8517C114.376 34.0854 112.707 33.0265 111.596 32.4854C110.576 31.9889 109.575 31.8485 108.758 31.734C107.527 31.5614 106.283 32.3983 105.593 32.9061C104.97 33.3643 104.583 34.0949 103.686 35.3003C103.409 35.6728 103.147 36.1173 102.773 36.6544C102.493 37.0557 101.653 38.715 100.333 40.9321C99.3811 42.5303 98.5497 44.2352 97.9138 45.3276C96.3965 47.9339 96.2309 48.8045 95.6463 50.5935C95.2222 51.8911 94.7319 53.3991 94.4868 54.332C94.3734 54.7638 93.9844 56.2952 93.3167 58.7525C92.7368 60.8864 92.644 62.2411 92.53 62.7783C92.437 63.2163 92.415 64.2899 92.3989 65.6915C92.3741 67.842 92.3818 70.7211 92.5124 71.2435C92.6753 71.7983 92.8387 72.2552 92.8876 72.5478C92.9042 72.7112 92.9042 72.9049 92.9042 73.1045" stroke="#131313" stroke-width="1.04383" stroke-linecap="round"/>
<path d="M149.131 57.5258C150.459 56.3183 151.543 55.5967 153.866 54.2976C154.898 53.7207 155.475 53.1762 157.333 51.8273C158.988 50.6255 162.182 48.504 165.162 46.826C170.679 43.719 173.907 42.6605 174.749 42.2689C176.015 41.6803 177.529 41.5708 178.736 41.7204C180.72 41.9664 181.64 44.4609 182.249 45.9177C182.718 47.0398 182.611 48.2139 182.703 49.2419C182.848 50.8724 182.914 52.4456 183.005 56.6093C183.088 60.4132 183.036 67.6535 182.976 71.6522C182.89 77.3575 182.191 79.3949 182.039 80.6378C181.525 82.1199 181.284 83.206 181.042 84.1741C180.981 84.4171 180.922 84.6564 180.679 85.4469" stroke="#131313" stroke-width="1.04383" stroke-linecap="round"/>
<path d="M109.701 38.0586C110.223 38.1438 110.923 38.6692 111.479 39.007C112.184 39.4352 112.604 39.9128 113.292 40.6221C113.682 41.0246 114.089 41.3975 114.765 42.1939C115.17 42.6698 115.726 43.3827 116.239 44.1467C116.803 44.9873 117.235 46.0939 117.486 46.6069C117.678 46.9984 117.956 47.4253 118.989 50.1237C119.558 51.6071 120.009 52.5358 120.162 53.0046C120.361 53.6164 120.532 54.7569 120.872 55.877C121.014 56.4028 121.145 56.7959 121.211 57.0681C121.233 57.2106 121.233 57.362 121.298 57.5179" stroke="#131313" stroke-width="1.04383" stroke-linecap="round"/>
<path d="M175.991 47.7734C175.537 47.9009 174.901 48.0459 173.812 48.4807C173.087 48.7705 172.074 49.3489 171.327 49.7361C170.15 50.3464 169.592 50.6354 169.302 50.808C168.88 51.0585 168.48 51.2552 168.045 51.5364C167.264 52.0409 166.241 52.6747 165.349 53.294C164.388 53.9611 164.086 54.1183 163.362 54.6336C162.724 55.088 161.556 55.9612 160.852 56.4978C159.935 57.1967 159.637 57.4732 159.355 57.6819C158.45 58.3528 157.76 59.1296 157.158 59.7329C156.774 60.1176 156.519 60.3352 156.282 60.5999C155.971 60.9741 155.807 61.1749 155.689 61.293C155.625 61.357 155.553 61.4292 155.478 61.5583" stroke="#131313" stroke-width="1.04383" stroke-linecap="round"/>
<path d="M115.352 43.0143C114.7 42.7903 113.881 42.5441 113.461 42.503C112.871 42.4452 112.591 42.3802 111.273 42.3394C110.076 42.3024 107.807 42.2986 106.628 42.3287C105.449 42.3588 105.429 42.4398 105.449 42.5423C105.537 42.9919 106.02 43.1567 107.133 43.7892C107.524 44.0117 108.631 44.6857 110.195 45.6979C111.385 46.4675 112.014 46.6137 112.995 46.9313C113.369 47.0522 113.713 47.1876 113.939 47.31C114.404 47.5618 112.98 47.7602 112.571 47.8729C112.129 47.9947 111.834 48.2924 111.144 48.6681C110.542 48.9959 109.401 49.5501 108.512 50.0448C106.987 50.8943 106.269 51.4633 105.994 51.6877C105.413 52.1606 105.185 52.4657 104.959 52.8235C104.9 52.9175 104.817 52.9972 104.977 53.039C106.302 53.3827 107.532 52.8966 108.117 52.8456C108.392 52.8217 109.471 52.6934 110.973 52.4482C111.734 52.324 112.644 52.1403 113.789 52.0075C114.516 51.9232 114.881 51.8328 115.013 51.8832C115.565 52.0919 115.025 53.4023 114.974 53.9894C114.922 54.5755 114.861 55.3456 114.81 56.278C114.701 58.2736 114.901 58.7252 115.116 59.4719C115.158 59.6192 115.269 59.6275 115.422 59.5772C116.183 59.3269 116.982 58.589 117.968 57.7588C118.673 57.1644 119.175 56.7255 120.442 55.7747C120.691 55.5776 120.752 55.4966 120.854 55.3941C120.957 55.2916 121.098 55.1701 121.429 54.9221" stroke="#131313" stroke-width="1.04383" stroke-linecap="round"/>
<path d="M168.121 51.6289C168.632 51.7794 168.949 51.8097 169.323 51.8321C169.594 51.8483 170.026 51.8992 171.718 52.2207C173.411 52.5421 176.349 53.1388 177.923 53.4686C179.62 53.8242 179.799 53.9041 179.852 53.9491C180.063 54.1282 179.363 54.1754 178.362 54.4739C177.461 54.7427 175.78 55.3096 174.039 55.758C172.298 56.2065 170.552 56.5347 169.601 56.7261C168.54 56.9395 168.333 57.0233 168.152 57.0683C168.073 57.0881 168.031 57.1431 168.008 57.2333C167.9 57.6571 168.404 58.4487 168.998 59.6964C169.289 60.3064 169.458 60.9142 169.871 61.8556C170.285 62.797 170.911 64.0651 171.286 64.7929C171.661 65.5207 171.765 65.6699 172.021 66.1421C172.698 67.3948 173.123 68.309 173.176 68.4894C173.202 68.5793 173.214 68.6697 173.192 68.7233C173.17 68.7769 173.11 68.7918 172.676 68.5608C172.243 68.3298 171.437 67.8524 170.627 67.3231C169.817 66.7937 169.026 66.2268 168.268 65.6066C167.51 64.9864 166.809 64.33 165.933 63.3877C165.057 62.4453 164.028 61.237 163.468 60.607C162.908 59.9771 162.848 59.9622 162.81 59.9992C162.711 60.0948 162.712 60.4716 162.659 61.1692C162.578 62.2373 162.561 63.2134 162.493 63.8002C162.443 64.2355 162.366 65.2427 162.208 66.5231C162.123 67.2074 162.094 67.4501 162.049 67.5633C162.02 67.6356 161.793 67.2426 161.329 66.4481C161.009 65.901 160.477 65.0867 160.148 64.5895C159.714 63.9333 159.279 63.3567 158.774 62.6415C158.222 61.9078 157.696 61.1854 157.297 60.7036C157.151 60.52 157.121 60.4603 156.955 60.3085" stroke="#131313" stroke-width="1.04383" stroke-linecap="round"/>
<path d="M123.28 57.4141C123.224 57.4141 122.828 57.4983 122.515 57.5911C122.241 57.6723 121.99 57.7682 121.544 57.9949C121.222 58.1582 120.912 58.491 120.621 58.7258C120.37 58.9283 119.976 59.2427 119.465 59.5271C118.813 59.8901 118.315 60.3648 117.89 60.7043C117.366 61.1236 117.123 61.188 116.409 61.4356C115.757 61.6613 115.435 61.7414 114.679 61.9604C113.729 62.2356 113.05 62.3093 112.909 62.3163C112.711 62.3261 112.526 62.3518 112.04 62.4642C111.621 62.5612 110.866 62.8013 110.321 62.9803C109.459 63.2633 108.839 63.5705 108.321 63.8187C108.115 63.9175 108.015 63.9404 107.627 64.1797C107.239 64.4189 106.565 64.8684 106.007 65.3317C105.449 65.7951 105.027 66.2586 104.698 66.666C104.368 67.0734 104.144 67.4105 103.986 67.6684C103.828 67.9264 103.744 68.095 103.657 68.2686" stroke="#131313" stroke-width="1.04383" stroke-linecap="round"/>
<path d="M151.41 59.4023C151.952 59.5448 153.163 59.948 153.653 60.1786C154.132 60.4035 154.574 60.8391 155.092 61.2859C155.517 61.6523 155.755 62.2206 156.186 62.7818C156.738 63.501 157.337 64.0044 157.869 64.6667C158.421 65.3517 159.29 66.4186 159.999 67.0994C160.654 67.7278 161.309 68.0349 162.228 68.5241C163.442 69.1698 164.878 70.1072 165.84 70.7824C166.694 71.382 167.266 71.9204 167.842 72.3232C169.01 73.1412 170.43 74.4502 170.994 74.9428C171.493 75.3785 172.416 76.2341 172.908 76.9132C173.628 77.7347 173.973 78.1371 174.232 78.4816C174.376 78.6551 174.547 78.8261 174.723 79.0022" stroke="#131313" stroke-width="1.04383" stroke-linecap="round"/>
<path d="M101.195 76.5156C100.777 76.5156 99.7487 76.6083 98.9511 76.7958C98.2083 76.9703 97.4542 77.1222 95.3058 77.2409C94.2125 77.3013 93.382 77.5912 92.2825 77.7085C91.3448 77.8085 90.9471 79.0853 90.641 79.9756C90.1885 81.2916 90.0568 82.8261 89.6819 84.257C89.4926 84.9795 89.3997 85.7792 89.168 86.6428C88.6475 88.5827 87.0631 88.6817 86.243 89.5481C85.6442 90.1807 85.7487 93.3858 85.8653 95.6774C85.9736 97.8074 86.0296 101.342 86.1924 103.613C86.2904 104.978 86.9648 106.049 87.1979 106.376C87.3137 106.539 87.5236 106.611 87.7118 106.658C87.9 106.706 88.0853 106.706 88.1808 106.011C88.2763 105.316 88.2763 103.926 88.2763 102.493" stroke="#131313" stroke-width="1.04383" stroke-linecap="round"/>
<path d="M160.6 89.6523C161.693 90.7453 162.3 91.2926 162.863 91.9002C163.428 92.5103 164.183 93.5095 164.87 94.0906C165.312 94.4647 166.008 95.0914 166.967 95.9138C167.732 96.5694 168.29 97.1605 168.794 97.6787C169.189 98.0856 169.144 98.6512 169.145 100.379C169.146 101.791 168.933 102.755 168.826 104.014C168.588 106.823 169.113 107.438 169.448 108.048C169.708 108.524 170.086 109.02 170.391 109.659C170.779 110.475 171.303 111.027 171.728 111.788C172.091 112.437 172.398 112.943 172.535 113.672C172.847 115.32 171.945 116.377 171.397 117.171C171.027 117.708 170.577 118.174 170.256 118.646C169.965 119.074 169.542 119.451 169.222 120.029C168.81 120.774 167.993 121.637 167.459 122.492C167.078 123.163 166.714 123.588 166.349 124.059C166.257 124.196 166.167 124.347 165.891 124.593" stroke="#131313" stroke-width="1.04383" stroke-linecap="round"/>
<path d="M109.945 126.656C109.8 127.035 109.625 127.559 109.406 128.594C109.108 130.005 109.099 130.539 109.098 131.56C109.097 132.386 110.059 133.196 110.557 133.681C111.129 134.237 111.987 134.718 112.631 134.981C112.897 135.091 114.401 135.563 116.606 136.19C118.019 136.593 119.951 136.705 121.976 136.968C123.12 137.116 123.76 137.231 124.317 137.334C124.864 137.434 125.977 137.436 126.916 137.509C127.237 137.534 127.56 137.553 129.153 137.597C130.573 137.636 133.234 137.612 134.72 137.568C137.123 137.498 138.193 136.532 138.894 135.978C139.543 135.466 139.627 134.4 139.744 133.903C139.802 133.584 139.861 133.289 139.904 132.781C139.919 132.389 139.919 131.724 139.919 131.038" stroke="#131313" stroke-width="1.04383" stroke-linecap="round"/>
<path d="M113.267 127.566C112.861 128.626 112.364 130.385 112.238 131.196C112.227 131.321 112.204 131.478 112.193 132.018C112.181 132.558 112.181 133.476 112.317 134.558" stroke="#131313" stroke-width="1.04383" stroke-linecap="round"/>
<path d="M116.933 128.582C116.662 129.304 116.391 130.117 116.198 130.808C115.99 131.552 115.87 132.336 115.835 132.744C115.824 132.857 115.802 132.991 115.79 133.497C115.779 134.004 115.779 134.877 115.779 135.777" stroke="#131313" stroke-width="1.04383" stroke-linecap="round"/>
<path d="M120.53 129.809C120.53 130.915 120.44 131.818 120.361 132.397C120.242 133.259 120.123 133.789 120.01 134.241C119.964 134.808 119.919 135.618 119.863 136.255C119.851 136.369 119.851 136.481 119.851 136.597" stroke="#131313" stroke-width="1.04383" stroke-linecap="round"/>
<path d="M124.535 130.348C124.445 131.95 124.31 133.53 124.241 134.227C124.128 134.87 124.106 135.686 124.072 136.237C124.06 136.61 124.06 137.17 123.992 137.679" stroke="#131313" stroke-width="1.04383" stroke-linecap="round"/>
<path d="M128.54 130.891V137.339" stroke="#131313" stroke-width="1.04383" stroke-linecap="round"/>
<path d="M132.545 130.891C132.545 131.204 132.545 132.575 132.534 134.475C132.41 135.707 132.273 136.365 132.262 136.58C132.251 136.682 132.229 136.772 132.206 137.068" stroke="#131313" stroke-width="1.04383" stroke-linecap="round"/>
<path d="M136.278 131.707C136.234 131.976 136.21 133.548 136.199 135.765C136.188 136.548 136.166 136.638 136.154 136.785C136.143 136.932 136.143 137.133 136.075 137.477" stroke="#131313" stroke-width="1.04383" stroke-linecap="round"/>
<path d="M139.631 134.777C139.776 134.85 140.631 135.014 141.895 135.234C142.548 135.348 143.454 135.6 144.644 135.866C145.47 136.05 146.005 136.316 146.785 136.718C146.961 136.811 147.088 136.866 147.189 136.912C147.291 136.958 147.364 136.994 147.493 137.087" stroke="#131313" stroke-width="1.04383" stroke-linecap="round"/>
<path d="M108.786 130.878C108.495 130.878 107.763 130.769 107.231 130.676C106.294 130.493 105.911 130.456 105.427 130.402C105.178 130.383 104.924 130.383 104.662 130.383" stroke="#131313" stroke-width="1.04383" stroke-linecap="round"/>
<path d="M93.7737 93.8008C94.4417 93.8942 94.8764 93.925 95.2896 94.0183C95.5876 94.0857 95.966 94.1425 96.2471 94.213C96.3713 94.2209 96.5118 94.2518 96.6593 94.3061C96.7298 94.3297 96.7914 94.3451 96.9016 94.361" stroke="#131313" stroke-width="1.04383" stroke-linecap="round"/>
<path d="M111.468 76.3867C111.468 76.7747 111.406 77.3018 111.366 77.6694C111.343 77.8629 111.312 78.0511 111.289 78.2833C111.281 78.4385 111.281 78.6696 111.281 78.9077" stroke="#131313" stroke-width="1.04383" stroke-linecap="round"/>
<path d="M118.451 98.6602C118.808 98.6602 119.227 98.6898 119.556 98.7198C119.82 98.7439 120.049 98.8243 120.452 98.8768C120.812 98.8992 121.036 98.9293 121.178 98.9367C121.246 98.9441 121.305 98.9589 121.411 98.9741" stroke="#131313" stroke-width="1.04383" stroke-linecap="round"/>
<path d="M125.47 99.9492C125.707 99.9492 126.126 99.9788 126.5 100.046C126.892 100.117 127.276 100.158 127.592 100.211C127.755 100.218 127.906 100.233 128.025 100.256C128.085 100.263 128.145 100.263 128.206 100.263" stroke="#131313" stroke-width="1.04383" stroke-linecap="round"/>
<path d="M146.706 84.5977C146.706 84.6569 146.706 84.7161 146.699 85.161C146.691 85.6059 146.677 86.4347 146.661 87.2887" stroke="#131313" stroke-width="1.04383" stroke-linecap="round"/>
<path d="M159.668 109.871C159.891 109.901 160.398 110.05 160.818 110.177C161.109 110.266 161.386 110.259 161.752 110.394C161.894 110.439 162.015 110.469 162.134 110.491C162.194 110.499 162.253 110.499 162.314 110.499" stroke="#131313" stroke-width="1.04383" stroke-linecap="round"/>
<path d="M37.8261 45.2241C37.8261 44.9212 38.0785 43.6545 38.7386 41.4416C39.4153 39.1731 41.2835 36.8742 43.1415 34.5825C45.3894 31.8099 47.8588 31.0026 51.2008 29.8782C52.6995 29.3739 55.6519 29.3137 58.04 29.7451C59.3325 29.9786 60.5657 30.9935 61.4079 31.5549C62.743 32.445 63.7264 34.0501 64.3162 35.1998C64.7085 35.9646 65.0543 36.7549 65.3373 37.7493C65.6663 38.9052 65.5163 43.6025 65.3389 46.5451C65.2276 48.3907 64.0416 49.9605 63.4021 51.0337C62.6267 52.335 61.9487 54.1431 61.2863 54.8851C61.1288 55.0615 61.0308 55.266 60.8526 55.4206C59.0843 56.9536 54.6605 53.2834 52.8507 52.5192C51.3553 51.8878 48.8012 50.5847 47.2163 49.8932C43.6329 48.3298 41.4518 47.164 40.3037 46.578C39.1105 45.9691 38.0341 45.5821 36.5861 44.3651C32.7913 41.1757 31.7618 40.8931 31.2255 40.2819C31.0344 40.0641 31.2447 39.8727 31.6256 39.7189C33.5533 38.9409 35.1672 39.0037 36.2664 38.622C37.749 38.1072 39.1417 37.223 40.1943 36.5315C40.7267 36.302 41.2912 36.0465 41.7494 35.7413C41.9551 35.5876 42.1066 35.4361 42.2626 35.2801" stroke="#131313" stroke-width="0.626298" stroke-linecap="round"/>
<path d="M37.979 47.5195C37.5216 48.3319 37.1131 49.6552 36.6802 51.7664C36.6526 55.5237 36.7551 56.1356 36.8056 56.5426C36.8561 56.7476 36.9571 56.9495 37.0611 57.1576" stroke="#131313" stroke-width="0.626298" stroke-linecap="round"/>
<path d="M40.7329 47.6719C40.173 48.6892 39.8671 49.8076 39.7898 50.9825C39.6116 51.9524 39.5091 53.8295 39.5848 55.8176C39.6605 56.5435 39.812 56.6949 39.968 57.3099" stroke="#131313" stroke-width="0.626298" stroke-linecap="round"/>
<path d="M42.7218 49.3516C42.6713 50.9793 42.5688 52.4051 42.4418 53.5785C42.4158 54.7427 42.5168 55.7234 42.695 56.2068C42.7722 56.4378 42.8227 56.6398 43.0277 57.3068" stroke="#131313" stroke-width="0.626298" stroke-linecap="round"/>
<path d="M46.3934 49.8125C46.2925 50.9232 46.19 51.7983 46.0882 52.4591C45.9865 53.221 45.884 53.8391 45.8075 54.5994C45.7815 55.1578 45.7815 56.0665 45.7815 57.0028" stroke="#131313" stroke-width="0.626298" stroke-linecap="round"/>
<path d="M49.3003 52.1055C49.1993 53.2161 49.0968 54.0912 49.0203 54.6511C48.9943 55.1101 48.9438 55.5201 48.8673 56.0532C48.8413 56.3845 48.8413 56.8388 48.8413 57.307" stroke="#131313" stroke-width="0.626298" stroke-linecap="round"/>
<path d="M37.979 57.6132C39.6557 57.6132 41.2896 57.5123 43.9531 57.2828C48.125 57.1053 51.1831 56.9508 52.8797 56.8491C54.2229 56.7978 56.5453 56.7473 58.9379 56.6953" stroke="#131313" stroke-width="0.626298" stroke-linecap="round"/>
<path d="M37.2141 57.9211C37.2141 58.6799 37.3151 60.3137 37.6715 61.2577C38.0349 62.2198 38.692 62.8655 38.9459 63.1967C39.188 63.5125 41.3768 63.4285 44.8886 63.3528C49.6173 63.2508 51.1266 62.7676 52.2036 62.6384C53.0338 62.5387 53.8344 62.2567 55.1585 62.1541C56.7087 62.0341 57.506 61.6967 58.323 61.4405C58.7232 61.3149 59.0894 61.0848 59.3441 60.6778C59.4474 60.4728 59.4979 60.2709 59.5239 59.3844C59.5499 58.4978 59.5499 56.9328 59.5499 55.3203" stroke="#131313" stroke-width="0.626298" stroke-linecap="round"/>
<path d="M59.8943 61.1758C60.6026 61.2768 62.8408 61.8856 64.0218 62.2712C64.8793 62.5511 65.8546 63.2625 66.7503 64.0542C67.4271 64.6524 68.2014 65.5053 68.8929 66.2472C69.7232 67.1382 70.1412 68.8709 70.6522 69.9426C71.2329 71.1605 71.4171 72.1846 71.6734 73.4857C71.8776 75.3973 72.0306 76.8292 72.1071 77.4128C72.1331 77.7945 72.1331 78.3499 72.1331 78.922" stroke="#131313" stroke-width="0.626298" stroke-linecap="round"/>
<path d="M41.5363 64.5352C40.6765 65.447 38.0299 67.9896 36.0609 70.4924C34.4206 72.5775 34.0431 73.9651 33.5069 75.4667C32.7656 77.3323 32.2593 78.6526 31.925 80.2345C31.7988 80.7944 31.5464 81.6022 31.1333 82.8933" stroke="#131313" stroke-width="0.626298" stroke-linecap="round"/>
<path d="M36.1818 69.5862C40.4562 69.4332 43.109 69.5342 46.4196 70.4238C47.3421 70.6717 47.6541 71.165 47.9341 71.6225C48.5287 72.594 48.4206 75.6291 47.7612 78.9573C47.324 81.1641 46.7898 82.6389 46.6115 83.0711C45.5968 85.5317 44.189 89.5722 43.6046 91.1242C42.8025 93.2545 41.9493 94.3116 41.2326 95.3099C40.5833 96.2142 39.6546 96.9154 38.7856 97.4027C38.4136 97.6113 37.9687 97.7339 37.385 97.9634C35.6947 98.628 34.2511 96.9246 33.3294 95.8537C31.9279 94.2254 32.1032 93.048 31.899 92.0283C31.5873 90.4722 31.6443 88.9174 31.4653 87.7715C31.3888 85.9067 31.2863 84.9918 31.1593 83.8697C31.1333 83.5124 31.1333 83.0581 31.1333 82.5899" stroke="#131313" stroke-width="0.626298" stroke-linecap="round"/>
<path d="M36.1818 69.2825C35.6754 69.131 34.3521 68.6216 33.025 67.9844C31.7364 67.3657 29.8666 66.1279 26.3548 63.531C24.5123 62.1685 23.4856 61.3288 22.726 60.7459C19.438 58.2228 16.8139 57.2517 15.6099 56.4356C13.1811 54.7891 11.0984 53.1732 8.27352 51.2379C6.40364 49.9569 5.4869 49.2445 4.54298 48.6066C3.51579 47.9123 2.12429 47.0538 1.02433 46.2605C0.809622 46.1057 0.591385 46.0808 0.462113 46.181C0.332841 46.2812 0.282356 46.5336 0.332076 46.7646C0.530213 47.6852 1.75407 48.4704 2.97948 49.9498C3.99457 51.1752 4.71586 51.7871 5.55575 52.3501C6.53272 53.005 7.46653 54.0299 8.43722 54.7466C9.28323 55.3713 10.1713 56.1227 11.038 56.7606C12.0116 57.4773 12.974 58.7724 14.6048 60.0223C15.6839 60.8493 16.5446 61.7311 17.6155 62.802C18.5101 63.6966 19.8552 64.6868 21.0577 65.7852C22.2862 66.9075 23.328 67.6975 24.0677 68.2353C24.7974 68.7658 25.6197 69.6863 26.5154 70.478C27.4612 71.314 29.1873 72.743 30.3141 73.4368C31.0797 74.1244 31.9961 74.8389 33.3975 76.1867C33.682 76.5217 33.783 76.7236 33.887 76.9317" stroke="#131313" stroke-width="0.626298" stroke-linecap="round"/>
<path d="M31.8979 67.5977C30.9831 68.3595 30.1661 69.3784 29.7829 70.1953C29.4517 71.2142 29.0937 72.2362 29.0172 72.7441C28.9912 73.05 28.9912 73.4539 28.9912 73.87" stroke="#131313" stroke-width="0.626298" stroke-linecap="round"/>
<path d="M32.051 67.599C33.4768 67.1921 34.2907 66.8861 35.3601 66.7071C35.8175 66.6811 36.5243 66.6811 36.9894 66.7063C37.4545 66.7316 37.6564 66.7821 37.8645 67.293" stroke="#131313" stroke-width="0.626298" stroke-linecap="round"/>
<path d="M28.9912 72.8008C28.9912 74.629 29.1932 76.5703 29.8556 77.3873C30.417 78.1032 31.2309 78.5102 32.2253 78.6907C32.5068 78.6662 32.8097 78.5653 33.4278 78.1553" stroke="#131313" stroke-width="0.626298" stroke-linecap="round"/>
<path d="M59.6804 58.2422C60.1306 58.2422 62.4918 58.6314 63.6084 59.0276C64.7221 59.4227 66.1603 60.5935 66.985 61.7446C67.6092 62.6302 67.8707 63.8059 67.97 64.9226C68.0024 65.186 68.0673 65.4455 68.1341 66.1061" stroke="#131313" stroke-width="0.626298" stroke-linecap="round"/>
<path d="M72.0659 79.4766C72.0659 82.0854 71.8064 85.8856 71.6402 88.5112C71.5268 90.3042 70.9531 92.2475 70.4951 94.2135C70.0182 96.2601 69.1877 97.9489 68.6598 99.328C67.9262 101.245 66.0421 103.324 64.9599 104.114C63.7615 104.989 62.0512 105.75 59.8198 106.278C57.5255 106.82 56.2122 106.933 54.6739 107.163C52.6271 107.469 50.7783 107.393 47.9659 107.557C41.1538 107.952 38.3926 107.067 37.1079 106.642C35.5908 106.141 35.829 103.666 35.6629 102.482C35.5656 101.959 35.4987 100.784 35.5636 99.0833C35.6285 98.291 35.7582 97.6422 35.8919 96.9738" stroke="#131313" stroke-width="0.626298" stroke-linecap="round"/>
<path d="M31.5759 80.4531C29.1226 80.4531 24.1584 80.7798 23.0019 81.0842C21.201 81.5582 20.4167 82.1557 19.3716 82.6234C18.2551 83.123 16.9026 84.241 15.7956 85.645C15.0781 86.5551 14.5863 88.3061 14.1442 89.5509C13.7831 90.5675 13.8142 91.7212 13.8126 96.6285C13.8117 99.2224 14.4709 101.392 14.6103 102.913C14.7345 104.269 15.0219 105.471 15.1324 106.433C15.2969 107.865 15.7907 109.044 16.067 110.255C16.3146 111.34 16.4506 112.782 16.7542 113.803C17.0879 114.925 17.6615 115.973 18.2101 116.992C18.9112 118.294 19.5852 119.164 20.2171 120.045C20.9549 121.073 22.0566 121.968 22.9937 122.768C23.7421 123.406 25.0262 123.292 30.2898 123.239C32.604 123.216 33.4962 122.031 34.6775 121.097C36.4158 119.723 37.2907 118.953 38.0348 117.908C39.1573 116.333 39.4915 115.049 39.9881 113.784C40.5036 112.47 40.9236 111.146 41.1166 110.153C41.2535 108.999 41.5835 107.787 41.7485 107.294C41.8045 107.018 41.8045 106.691 41.8045 106.355" stroke="#131313" stroke-width="0.626298" stroke-linecap="round"/>
<path d="M32.7306 79.4578C32.239 79.4578 31.0314 79.3489 29.9573 79.1286C29.0411 78.9408 28.0617 78.7979 26.9069 78.6609C24.8293 78.4146 23.3895 78.9068 22.3403 79.1542C21.2474 79.412 18.78 80.6588 16.8151 81.6C15.8004 82.0861 15.2462 82.919 14.5582 83.8528C13.6155 85.1324 13.3225 86.4892 12.5232 87.8123C12.0044 88.6712 11.8344 89.736 11.587 91.083C11.2784 92.7624 11.1745 93.8604 11.1729 97.1518C11.1715 99.8258 11.9961 102.433 12.1355 104.418C12.2253 105.697 12.5471 106.894 12.6304 107.858C12.7197 108.891 13.0421 109.863 13.1254 111.485C13.1787 112.523 13.6459 113.711 14.0039 114.951C14.3837 116.267 15.1307 117.014 15.7626 117.73C16.4479 118.508 17.2193 119.049 18.1539 119.71C19.2641 120.495 20.4628 121.854 21.2069 122.488C21.6177 122.735 22.2231 122.902 22.9094 123.011C23.2147 123.067 23.4324 123.121 23.6568 123.177" stroke="#131313" stroke-width="0.626298" stroke-linecap="round"/>
<path d="M19.5942 87.2325C19.1022 88.2309 19.0099 88.7843 19.0018 89.1238C18.9928 89.5022 19.3616 89.9844 19.8153 90.4464C20.3081 90.9483 20.8691 90.8632 21.7754 90.8409C22.3893 90.8257 22.7458 90.3121 22.948 90.0029C23.0934 89.7804 23.0865 89.4038 23.1405 88.9353C23.2632 87.8708 23.0099 87.5261 22.7571 87.0497C22.5898 86.7343 22.1966 86.6177 21.8954 86.5021C21.6215 86.3969 21.1211 86.4017 20.3895 86.5469C19.5336 86.7167 19.3339 87.0931 19.164 87.3315C18.979 87.6318 18.9328 87.8778 18.9021 88.0467C18.8866 88.1243 18.8714 88.1852 18.8557 88.3865" stroke="#131313" stroke-width="0.626298" stroke-linecap="round"/>
<path d="M17.5977 94.6092C17.4145 94.7619 17.0143 95.1917 16.8597 95.5618C16.7188 95.8992 16.5675 96.5441 16.5513 97.4294C16.5426 97.9104 17.2552 98.3451 17.9264 98.6855C18.274 98.8618 18.7027 98.8095 19.1578 98.7559C19.5312 98.712 19.949 98.442 20.3658 98.1489C20.7403 97.8855 20.874 97.4884 20.9594 96.9198C21.0922 96.0349 20.814 95.7188 20.6755 95.4257C20.511 95.0774 20.1382 94.9027 19.7837 94.7481C19.5109 94.6291 19.1994 94.5787 18.8001 94.5247C18.2709 94.4531 17.8447 94.5321 17.6912 94.5856C17.6139 94.6239 17.5377 94.6849 17.4452 94.8C17.3526 94.9152 17.246 95.0827 17.0438 95.3938" stroke="#131313" stroke-width="0.626298" stroke-linecap="round"/>
<path d="M19.5366 104.023C19.0755 104.391 18.8914 104.699 18.7372 104.999C18.4798 105.499 18.4907 105.868 18.4826 106.153C18.4725 106.513 18.8277 106.838 19.1277 107.099C19.4188 107.353 19.9336 107.422 20.481 107.531C20.9288 107.62 21.61 107.486 22.3114 107.079C22.8492 106.767 23.028 106.18 23.1367 105.717C23.1726 105.564 23.183 105.15 23.084 104.421C22.892 103.008 22.2304 102.747 21.8468 102.531C21.3807 102.269 20.8457 102.561 20.5849 102.707C19.9651 103.053 19.6151 103.59 19.4831 103.922C19.3829 104.192 19.352 104.438 19.3596 104.607C19.3672 104.684 19.3825 104.745 19.3982 104.808" stroke="#131313" stroke-width="0.626298" stroke-linecap="round"/>
<path d="M31.1217 91.0103C30.3228 90.918 29.954 91.0094 29.1861 91.3551C28.752 91.5506 28.3855 91.8854 28.038 92.2321C27.7121 92.5571 27.5842 92.8704 27.3454 93.1862C27.0353 93.596 26.7377 94.0862 26.4149 95.1065C26.2741 95.5514 26.2909 95.9316 26.2369 96.7059C26.1578 97.8398 26.2595 98.7324 26.3209 99.0393C26.4782 99.8259 27.0728 100.822 27.4052 101.248C27.6452 101.556 27.8898 101.949 28.2274 102.348C28.8133 103.04 29.473 103.271 29.8665 103.449C30.1449 103.575 30.5651 103.626 30.9819 103.665C31.1666 103.682 31.6715 103.704 32.5002 103.643C33.8715 103.542 34.1053 103.104 34.3059 102.866C34.5437 102.583 34.7672 102.198 34.9597 101.797C35.0137 101.689 35.0746 101.567 35.1136 101.474C35.1526 101.381 35.1679 101.32 35.2297 101.211" stroke="#131313" stroke-width="0.626298" stroke-linecap="round"/>
<path d="M27.5404 83.5449C26.8314 83.561 26.4339 83.5854 26.365 83.626C26.2031 83.7211 26.1249 83.8618 26.0108 83.9636C25.8348 84.1208 25.7342 84.6572 25.7053 84.9277C25.6768 85.1946 25.7171 85.6997 25.7864 85.9124C25.8698 86.1686 26.1224 86.44 26.3758 86.6653C26.5873 86.8533 26.9769 86.792 27.433 86.8325C27.8304 86.8679 28.3524 86.7193 28.7512 86.4113C28.9015 86.2953 29.0507 86.0718 29.1741 85.8109C29.4339 85.2617 29.4447 84.7187 29.4326 84.3976C29.422 84.1146 29.1537 83.7514 28.88 83.4277C28.6993 83.2139 28.4935 83.1631 28.2821 83.0893C28.0238 83.081 27.8094 83.0891 27.7201 83.1013C27.6791 83.1054 27.6468 83.1054 27.6136 83.1054" stroke="#131313" stroke-width="0.626298" stroke-linecap="round"/>
<path d="M21.2957 112.529C20.5344 113.356 20.3202 114.103 20.2596 114.647C20.225 114.957 20.319 115.282 20.4722 115.562C20.7299 116.034 21.0936 116.151 21.5348 116.353C21.855 116.499 22.5489 116.46 23.0922 116.281C23.8476 116.032 23.9424 115.339 24.1097 115.058C24.2359 114.845 24.3038 114.523 24.364 114.031C24.4591 113.253 24.3447 112.677 24.225 112.471C24.1552 112.35 24.0258 112.224 23.9247 112.15C23.4619 111.807 22.6074 112.074 22.3132 112.101C21.9247 112.195 21.7643 112.301 21.6245 112.468C21.5376 112.581 21.4185 112.753 21.2957 112.93" stroke="#131313" stroke-width="0.626298" stroke-linecap="round"/>
<path d="M27.7638 117.093C26.7883 117.76 26.6543 118.001 26.5542 118.314C26.4568 118.62 26.4401 119.135 26.4666 119.676C26.4838 120.027 26.6932 120.221 26.88 120.374C27.2532 120.681 27.7486 120.756 28.7693 120.836C29.1251 120.864 29.3274 120.743 29.4676 120.657C29.7253 120.497 29.8626 120.196 30.1361 119.782C30.3098 119.519 30.3576 119.127 30.3646 118.306C30.3682 117.878 30.0655 117.457 29.7771 117.047C29.7165 116.986 29.6636 116.959 29.3782 116.946C29.0928 116.932 28.5765 116.932 28.0446 116.972" stroke="#131313" stroke-width="0.626298" stroke-linecap="round"/>
<path d="M33.8613 113.56C33.2604 114.201 33.0462 114.655 32.9856 115.043C32.914 115.501 33.0053 115.899 33.0851 116.099C33.2642 116.548 33.6455 116.715 33.9205 116.883C34.3094 117.12 35.1144 116.864 35.5978 116.624C35.9769 116.435 36.1341 116.115 36.1874 115.955C36.4297 115.23 36.1622 114.179 35.948 113.662C35.7636 113.218 35.2532 112.986 34.9126 112.925C34.7727 112.919 34.5609 112.919 34.3988 112.952C34.2367 112.985 34.1308 113.051 34.0217 113.119" stroke="#131313" stroke-width="0.626298" stroke-linecap="round"/>
<path d="M37.5514 108.146C37.0167 108.801 36.9634 109.014 36.8831 109.467C36.7882 110.003 36.9092 110.405 36.9892 110.505C37.063 110.598 37.1631 110.66 37.3625 110.7C38.0586 110.84 38.6305 110.461 39.0745 110.26C39.403 110.111 39.4761 109.752 39.5836 109.312C39.7063 108.809 39.5178 108.335 39.3577 108.108C39.2771 108.013 39.1977 107.96 39.1237 107.913C39.0497 107.866 38.9835 107.826 38.9153 107.785" stroke="#131313" stroke-width="0.626298" stroke-linecap="round"/>
<path d="M83.5512 159.797C83.8731 159.314 86.9742 155.999 89.0214 153.976C90.2526 152.76 93.3996 149.247 95.7581 146.997C96.899 145.908 97.4615 145.402 97.7042 145.266C98.3933 144.88 98.0552 148.616 98.2445 150.545C98.4737 152.882 98.919 156.342 99.0533 157.661C99.2693 159.783 99.2426 161.622 99.1358 162.863C99.0993 163.287 97.9549 162.819 96.7942 162.629C94.9386 162.325 93.6972 161.58 91.3807 161.147C88.1909 160.55 87.1683 160.93 85.7407 160.5C85.1266 160.316 83.6709 160.283 81.9716 160.363C81.4412 160.388 81.6068 160.603 81.7427 160.926C81.8786 161.249 81.9853 161.729 82.067 162.11C82.1487 162.491 82.2021 162.758 82.2571 163.518" stroke="#FF0404" stroke-width="1.04383" stroke-linecap="round"/>
<path d="M98.9191 163.199C99.7797 163.523 100.961 163.736 101.99 164.114C102.174 164.181 102.048 164.542 101.94 164.786C101.24 165.624 99.4173 167.551 98.3278 168.885C98.2186 169.075 98.1653 169.288 97.9485 169.508" stroke="#FF0404" stroke-width="1.04383" stroke-linecap="round"/>
<path d="M105.267 169.927C105.55 168.911 105.752 168.189 106.811 165.589C107.794 163.177 109.763 158.583 110.823 156.029C112.03 153.121 112.282 152.362 112.609 151.551C113.233 150.007 113.31 149.367 113.466 148.74C113.531 148.479 113.594 148.339 113.694 148.634C114.033 149.634 114.165 150.644 114.392 151.382C114.789 152.668 114.993 153.951 115.106 154.734C115.313 156.153 115.535 157.746 115.634 160.023C115.723 162.074 115.93 165.942 116.046 167.991C116.162 170.04 116.191 170.153 116.205 170.494C116.22 170.834 116.22 171.399 116.22 171.981" stroke="#FF0404" stroke-width="1.04383" stroke-linecap="round"/>
<path d="M108.006 162.227C108.889 162.312 109.626 162.425 110.54 162.526C111.892 162.674 112.621 162.853 113.564 162.982C114.019 162.997 114.365 163.025 114.592 163.068C114.707 163.082 114.82 163.082 114.936 163.168" stroke="#FF0404" stroke-width="1.04383" stroke-linecap="round"/>
<path d="M123.321 150.141C123.096 152.851 122.951 154.445 122.908 155.098C122.832 156.256 122.837 157.24 122.695 158.698C122.578 159.899 122.497 162.048 122.424 163.21C122.297 165.253 122.096 167.36 121.967 168.107C121.86 168.729 121.725 169.702 121.682 170.247C121.663 170.477 121.61 170.788 121.709 171.144C121.916 171.89 124.133 172.184 125.998 172.529C126.366 172.598 127.165 172.728 128.997 173.083C131.735 173.615 133.531 173.699 133.815 173.784C134.628 174.028 135.241 174.241 135.883 174.312C136.206 174.348 137.174 174.809 138.5 175.18C138.969 175.312 139.064 175.156 139.107 173.94C139.151 172.725 139.151 170.409 139.165 169.089C139.182 167.515 139.236 166.971 139.293 166.063C139.392 164.472 139.579 163.206 139.706 161.776C139.808 160.626 140.087 158.623 140.26 157.393C140.606 155.219 140.662 154.706 140.776 154.036C140.805 153.878 140.833 153.765 140.862 153.392" stroke="#FF0404" stroke-width="1.04383" stroke-linecap="round"/>
<path d="M132.284 152.559C131.886 154.323 131.771 155.351 131.359 157.993C131.047 160 131.001 161.313 130.959 161.753C130.827 163.121 130.602 164.478 130.559 165.091C130.505 165.853 130.345 166.473 130.302 167.358C130.24 168.641 130.089 170.069 130.046 170.838C129.946 171.552 129.889 172.235 129.874 172.805C129.86 173.036 129.832 173.149 129.803 173.351" stroke="#FF0404" stroke-width="1.04383" stroke-linecap="round"/>
<path d="M142.98 175.234C143.179 174.693 143.406 174.012 143.735 173.268C143.882 172.934 144.147 172.272 145.181 169.808C146.01 167.833 147.373 164.351 148.142 162.463C148.997 160.366 149.395 159.553 149.808 158.513C150.34 157.175 151.163 155.588 151.606 154.317C151.693 154.067 151.791 153.959 151.849 153.957C151.99 153.953 152.021 154.58 152.106 155.278C152.167 155.775 152.248 157.337 152.434 159.461C152.555 160.859 152.705 161.769 152.861 163.918C153.001 165.839 153.102 169.456 153.189 171.417C153.276 173.378 153.304 173.575 153.319 174.369C153.333 175.163 153.333 176.546 153.333 177.886" stroke="#FF0404" stroke-width="1.04383" stroke-linecap="round"/>
<path d="M146.402 167.617C147.283 167.617 148.31 167.674 149.038 167.788C149.919 167.926 150.821 168.216 151.434 168.301C151.592 168.33 151.733 168.358 151.862 168.373C151.991 168.387 152.104 168.387 152.477 168.473" stroke="#FF0404" stroke-width="1.04383" stroke-linecap="round"/>
<path d="M163.072 178.996C163.072 178.863 163.072 178.729 163.588 176.328C164.105 173.927 165.138 169.263 165.686 166.71C166.392 163.426 166.404 162.811 166.571 161.802C166.754 160.703 166.808 159.277 166.908 158.419C166.934 158.198 166.975 157.999 167.109 157.863C167.772 157.187 169.225 157.658 170.135 157.742C171.7 157.887 172.223 158.062 173.583 158.532C174.576 158.875 175.285 158.869 176.278 158.987C176.762 159.045 177.438 159.138 178.194 159.34C178.514 159.425 178.717 159.408 178.737 161.008C178.757 162.607 178.59 165.806 178.471 167.57C178.303 170.052 178.116 171.448 178.032 172.48C177.951 173.472 177.914 174.547 177.813 175.559C177.645 176.67 177.377 179.747 177.224 181.517C177.207 181.72 177.207 181.92 177.207 182.126" stroke="#FF0404" stroke-width="1.04383" stroke-linecap="round"/>
<path d="M180.943 181.82V182.628" stroke="#FF0404" stroke-width="1.04383" stroke-linecap="round"/>
<path d="M80.9217 97.0312C80.3873 97.5969 79.7583 98.2268 79.2054 98.8104C78.5008 99.5542 77.6452 100.34 77.1245 100.907C76.4984 101.589 75.9729 102.075 75.7681 103.512C75.5827 104.815 75.657 107.322 75.6097 108.749C75.5624 110.176 75.5 110.457 75.4678 110.695C75.4357 110.934 75.4357 111.121 75.3411 111.503" stroke="#131313" stroke-width="1.04383" stroke-linecap="round"/>
<path d="M80.4491 93.6289C80.2609 93.7538 79.8211 94.1945 79.1433 94.9186C78.5551 95.5471 77.2748 96.7087 76.415 97.6782C76.0282 98.1144 75.8465 98.6704 75.7358 99.3013C75.8134 100.405 76.0659 101.099 76.1761 101.446C76.2239 101.604 76.2551 101.729 76.2873 101.858" stroke="#131313" stroke-width="1.04383" stroke-linecap="round"/>
<path d="M80.5434 97.3127C80.7629 97.1245 81.5158 96.6846 82.2432 96.399C82.4505 96.3176 82.7757 96.3668 82.9833 96.4137C83.3076 96.4868 83.4747 96.8067 83.6322 97.1212C84.1834 98.2219 83.5721 100.054 83.2562 100.589C82.7824 101.392 82.4371 101.913 81.9485 102.434C81.302 103.049 80.6721 103.678 80.2143 104.294C80.0724 104.498 79.8851 104.779 79.6921 105.069" stroke="#131313" stroke-width="1.04383" stroke-linecap="round"/>
<path d="M79.8813 105.734C79.8813 105.984 79.9438 106.3 80.1008 106.833C80.1954 107.18 80.3202 107.679 80.3846 108.108C80.4489 108.537 80.4489 108.88 80.4489 109.234" stroke="#131313" stroke-width="1.04383" stroke-linecap="round"/>
<path d="M75.4358 110.934C75.4358 111.815 75.2486 112.818 74.9951 113.815C74.7558 114.757 74.6791 115.345 74.1925 116.714C73.9437 117.413 74.0473 117.994 74.315 118.843C74.8268 120.467 75.3394 121.27 75.8596 123.081C76.0786 123.844 76.3798 124.518 76.6645 125.355C76.8783 125.984 77.4203 126.444 77.8147 126.87C78.6159 127.013 80.3771 126.639 81.2823 126.336C81.4251 126.289 81.55 126.226 81.8678 126.162" stroke="#131313" stroke-width="1.04383" stroke-linecap="round"/>
<path d="M73.7145 115.586C73.6207 115.704 73.0547 115.846 72.4603 116.024C71.9175 116.186 71.5829 117.028 71.4514 117.693C71.3544 118.184 71.3213 118.665 71.4027 120.117C71.5415 122.593 72.1731 123.239 72.5517 124.398C72.754 125.017 73.049 125.513 73.712 126.98C74.0196 127.661 74.2819 128.121 74.6019 128.548C75.01 129.093 75.5375 129.189 75.8699 129.426C76.2492 129.697 76.7463 129.593 77.1849 129.664C77.389 129.696 77.7644 129.735 78.3083 129.676C78.8325 129.62 79.2817 129.145 79.6372 128.672C79.7581 128.199 79.7815 127.77 79.8171 127.391C79.8292 127.201 79.8292 127.013 79.8292 126.82" stroke="#131313" stroke-width="1.04383" stroke-linecap="round"/>
<path d="M74.2121 118.147C74.0713 118.147 73.9305 118.147 73.7993 118.135C73.6682 118.124 73.5508 118.1 73.1737 118.088C72.7965 118.076 72.163 118.076 71.5103 118.147" stroke="#131313" stroke-width="1.04383" stroke-linecap="round"/>
<path d="M74.7809 120.707C73.8339 120.778 73.4556 120.872 73.0169 121.003C72.6252 121.157 72.2 121.252 71.7961 121.358C71.7009 121.394 71.607 121.441 71.4392 121.631" stroke="#131313" stroke-width="1.04383" stroke-linecap="round"/>
<path d="M75.6339 122.84C75.1846 123.266 74.7594 123.643 74.1077 124.153C73.8351 124.332 73.6203 124.498 73.4547 124.687C73.3829 124.782 73.3359 124.876 73.2876 125.115" stroke="#131313" stroke-width="1.04383" stroke-linecap="round"/>
<path d="M77.4825 125.969C77.1305 126.438 76.7786 126.907 76.5269 127.29C76.2752 127.672 76.1344 127.954 75.9915 128.263C75.8486 128.572 75.7078 128.901 75.5627 129.453" stroke="#131313" stroke-width="1.04383" stroke-linecap="round"/>
<path d="M78.4069 127.676C78.4069 128.004 78.4069 128.333 78.3834 128.619C78.36 128.906 78.3131 129.14 78.1936 129.595" stroke="#131313" stroke-width="1.04383" stroke-linecap="round"/>
<path d="M83.1375 96.0536C83.3159 95.773 83.4825 95.555 83.5654 95.4974C83.6057 95.4695 83.661 95.4779 83.6998 95.5095C83.79 95.7838 83.752 96.0912 83.6817 96.2381C83.6495 96.3089 83.6242 96.3722 83.5597 96.4375" stroke="#131313" stroke-width="1.04383" stroke-linecap="round"/>
<path d="M189.846 121.299C189.846 120.057 189.846 118.112 189.815 116.01C189.793 114.577 189.533 114.022 188.954 113.441C188.059 112.542 186.622 111.608 185.721 111.117C185.158 110.811 183.489 109.916 182.301 109.094C181.954 108.855 181.625 108.716 181.375 108.669C181.107 108.618 180.934 108.997 180.825 109.247C180.615 109.726 180.62 110.934 180.823 111.789C180.966 112.391 181.559 112.793 181.952 113.311C182.439 113.861 183.064 114.423 183.63 114.881C183.757 114.96 183.881 115.022 184.103 115.18" stroke="#131313" stroke-width="1.04383" stroke-linecap="round"/>
<path d="M189.092 124.505C189.092 123.691 188.782 121.944 188.372 120.82C188.01 119.828 187.34 118.173 186.85 117.133C186.577 116.554 186.176 116.128 185.518 115.766C184.868 115.409 184.077 115.186 183.446 114.981C182.902 114.804 182.348 114.652 181.142 114.135C180.392 113.814 179.618 113.616 179.053 113.568C178.229 113.498 178.799 115.527 178.94 116.124C179.204 117.237 180.053 118.572 180.43 119.121C180.818 119.685 181.401 120.11 181.967 120.424C182.311 120.519 182.72 120.613 183.143 120.707C183.348 120.739 183.534 120.739 183.915 120.833" stroke="#131313" stroke-width="1.04383" stroke-linecap="round"/>
<path d="M185.421 108.402C185.922 108.496 186.92 109.058 187.663 109.452C188.153 109.713 188.369 110.408 188.605 110.942C188.778 111.507 188.935 112.01 189.013 112.26C189.06 112.386 189.123 112.511 189.187 112.733" stroke="#131313" stroke-width="1.04383" stroke-linecap="round"/>
<path d="M184.242 120.781C184.242 122.197 184.296 122.851 184.432 123.723C184.589 124.731 184.922 125.577 185.019 126.192C185.277 126.807 185.495 127.351 185.808 127.816C185.904 127.925 186.012 128.033 186.287 128.226" stroke="#131313" stroke-width="1.04383" stroke-linecap="round"/>
<path d="M190.05 120.129C190.05 121.462 190.104 122.281 190.281 122.827C190.506 123.52 191.03 124.38 191.779 125.646C192.26 126.46 192.641 127.026 192.913 127.518C193.285 128.191 193.431 128.935 193.554 129.521C193.691 130.17 193.541 130.736 193.446 131.022C193.08 132.123 191.472 133.242 190.993 133.872C190.708 134.144 190.46 134.391 190.297 134.622C190.215 134.745 190.134 134.88 189.887 135.264" stroke="#131313" stroke-width="1.04383" stroke-linecap="round"/>
<path d="M186.013 127.742C186.295 128.131 186.543 128.414 186.888 128.795C187.28 129.227 187.43 129.902 187.606 130.468C187.749 130.925 187.925 131.477 188.041 132.046C188.147 132.566 188.385 133.161 188.564 133.755C188.705 134.084 188.812 134.367 189.033 134.651C189.095 134.722 189.148 134.792 189.308 134.918" stroke="#131313" stroke-width="1.04383" stroke-linecap="round"/>
<path d="M193.047 126.84C193.194 126.854 193.519 126.914 193.939 127.061C195.101 127.468 195.383 127.535 195.635 127.69C195.999 127.914 196.212 128.244 196.375 128.496C196.637 128.901 196.686 129.442 196.723 130.148C196.786 131.364 196.701 132.355 196.606 132.798C196.482 133.369 196.082 134.186 195.683 135.007C195.337 135.719 194.678 136.554 194.173 137.038C193.652 137.538 193.285 137.667 192.975 137.793C192.696 137.906 192.353 137.875 191.623 137.875C190.562 137.876 189.735 137.727 189.351 137.587C188.966 137.446 188.434 137.299 188.145 137.173C188.063 137.136 187.961 137.092 187.811 136.958" stroke="#131313" stroke-width="1.04383" stroke-linecap="round"/>
<path d="M190.384 134.695C190.34 135.937 190.428 136.584 190.554 137.002C190.65 137.283 190.783 137.55 190.872 137.682C190.917 137.756 190.96 137.844 191.094 137.935" stroke="#131313" stroke-width="1.04383" stroke-linecap="round"/>
<path d="M191.849 132.832C193.342 136.041 193.608 136.366 193.852 136.67C193.919 136.737 193.992 136.781 194.059 136.781C194.126 136.782 194.185 136.738 194.245 136.693" stroke="#131313" stroke-width="1.04383" stroke-linecap="round"/>
<path d="M193.091 131.234C194.569 132.713 195.131 133.067 195.545 133.326C195.693 133.422 195.898 133.569 196.025 133.666C196.153 133.763 196.197 133.807 196.286 133.853" stroke="#131313" stroke-width="1.04383" stroke-linecap="round"/>
<path d="M193.935 129.148C194.406 129.148 194.997 129.207 195.471 129.392C195.664 129.444 195.886 129.518 196.129 129.614C196.241 129.651 196.329 129.666 196.508 129.725" stroke="#131313" stroke-width="1.04383" stroke-linecap="round"/>
<path d="M189.004 111.132C189.794 110.321 190.209 110.113 190.604 109.967C191.113 109.779 191.396 110.049 191.541 110.153C192.078 110.535 191.606 111.878 191.367 112.44C191.027 113.238 190.857 113.751 190.628 114.262C190.403 114.764 190.129 115.289 189.951 115.874C189.92 116 189.899 116.123 189.878 116.228C189.857 116.333 189.837 116.416 189.815 116.688" stroke="#131313" stroke-width="1.04383" stroke-linecap="round"/>
<path d="M178.645 113.294C178.54 113.189 178.419 113.108 178.286 113.068C178.221 113.048 178.154 113.054 178.153 113.134C178.152 113.213 178.218 113.371 178.271 113.472C178.325 113.573 178.365 113.613 178.405 113.654" stroke="#131313" stroke-width="1.04383" stroke-linecap="round"/>
<path d="M181.082 108.303C181.082 108.224 181.016 108.117 180.89 108.024C180.837 107.984 180.777 108.009 180.743 108.049C180.709 108.089 180.696 108.155 180.709 108.215C180.722 108.276 180.762 108.328 180.842 108.423" stroke="#131313" stroke-width="1.04383" stroke-linecap="round"/>
<path d="M191.385 109.591C191.431 109.521 191.661 109.383 191.859 109.324C191.894 109.347 191.917 109.416 191.929 109.48C191.94 109.544 191.94 109.601 191.906 109.729" stroke="#131313" stroke-width="1.04383" stroke-linecap="round"/>
<path d="M52.1369 123.027C51.483 123.553 48.9654 125.186 47.6096 125.979C45.9896 126.926 45.3689 127.478 44.6125 127.918C42.5768 129.103 40.7893 129.77 39.9599 130.121C39.2184 130.436 38.603 130.685 38.0385 130.88C37.4741 131.074 37.1928 131.776 36.7345 132.271C36.0905 132.965 35.4315 133.574 35.0245 134.471C34.447 135.743 34.8649 137.684 34.7597 139.018C34.6904 139.897 34.3025 140.936 34.0551 141.732C33.7266 142.789 33.2094 144.426 33.0333 145.044C32.8131 145.818 32.3298 146.61 31.8192 147.912C30.9869 150.034 30.04 151.017 29.5632 151.757C29.1093 152.461 28.4542 153.06 28.0488 153.606C27.8915 153.817 27.9574 153.977 28.0451 154.084C28.5562 154.706 29.6467 154.93 30.3164 155.247C31.0221 155.581 31.8308 155.846 32.694 156.409C33.6599 157.039 34.6471 157.605 35.9876 158.364C37.1137 159.002 37.7869 159.404 38.5618 159.81C39.3399 160.218 40.0069 160.567 40.5715 160.798C41.163 161.039 41.6984 161.519 42.3153 161.784C43.4646 162.278 44.6923 162.999 45.4165 163.334C46.0604 163.633 46.6312 164.092 47.424 164.584C48.4463 165.22 49.1684 165.255 49.8566 165.625C50.544 165.994 51.1791 166.348 51.4429 166.384C52.0534 166.467 51.9551 165.119 52.1665 164.448C52.4121 163.668 52.4836 162.794 52.6073 162.035C52.7353 161.249 52.8706 160.328 53.0302 159.515C53.1598 158.855 53.1539 156.328 53.2416 153.325C53.3467 149.729 53.1898 147.145 53.0667 146.741C52.8508 146.032 52.8367 145.175 52.5561 144.239C52.4962 144.04 52.4498 143.904 52.4842 143.762C52.648 143.087 53.1877 142.53 53.5577 141.965C53.8997 141.444 54.1032 140.908 54.4389 140.309C54.7379 139.776 55.4416 139.604 56.0061 139.444C56.635 139.266 57.3445 138.933 57.909 138.704C58.5756 138.434 59.4229 138.018 59.9356 137.648C60.631 137.146 61.6789 136.749 62.2434 136.414C62.9085 136.019 64.1083 135.483 65.1665 134.97C66.0481 134.543 66.6116 133.931 67.1947 133.49C67.755 133.066 67.8834 132.521 67.8665 132.257C67.8265 131.633 66.8294 131.499 65.8262 130.813C65.0066 130.252 64.0808 129.702 63.5162 129.367C62.9358 129.021 61.9707 128.505 60.7888 127.941C58.4391 126.819 57.5623 126.319 56.6996 125.896C55.1955 125.159 54.7418 124.733 53.757 124.135C53.508 123.992 53.3336 123.888 53.1565 123.764C52.9795 123.64 52.805 123.501 52.3082 123.251" stroke="#131313" stroke-width="0.626298" stroke-linecap="round"/>
<path d="M54.4081 140.556C54.9924 140.556 56.1727 140.53 56.7221 140.403C57.055 140.326 57.3654 140.208 57.7258 140.088C58.5314 139.82 58.9172 139.754 59.1862 139.639C59.669 139.434 60.8023 139.058 61.3073 138.87C61.7625 138.7 62.2488 138.457 62.9464 138.067C63.3863 137.822 63.8311 137.585 64.4987 137.264C65.0571 136.996 65.6913 136.742 66.1463 136.448C66.4847 136.229 66.8688 136.059 67.1445 135.925C67.5758 135.715 68.4856 135.164 68.9049 134.907C69.0992 134.788 69.2928 134.64 69.5472 134.419C69.6797 134.304 69.7888 134.211 69.8092 134.164C69.9108 133.931 69.2824 134.557 69.0336 134.812C68.6942 135.161 67.9057 135.841 67.3344 136.298C66.8397 136.693 66.1628 137.275 65.968 137.53C65.8039 137.745 65.5869 137.878 65.266 138.085C64.8004 138.386 64.4897 138.64 64.055 139.062C63.5266 139.574 62.9371 139.591 62.3227 139.905C61.2952 140.43 60.8497 140.408 60.4601 140.476C60.0971 140.538 59.6192 140.596 59.1615 140.663C58.8292 140.711 58.3461 140.743 57.9301 140.764C57.6863 140.775 57.4216 140.824 56.9066 140.877C56.5637 140.913 56.2168 140.944 55.6554 140.978C55.0386 141.105 54.584 141.211 54.2486 141.319C54.1679 141.346 54.0884 141.372 53.886 141.44" stroke="#131313" stroke-width="0.626298" stroke-linecap="round"/>
<path d="M69.8911 134.004C69.8242 134.004 69.6707 134.023 69.4641 134.085C69.2617 134.147 69.0079 134.167 68.2318 134.182C67.1421 134.187 66.9307 134.139 66.7963 134.115C66.738 134.1 66.7 134.081 66.5742 134.062" stroke="#131313" stroke-width="0.626298" stroke-linecap="round"/>
<path d="M54.3804 141.176C54.4762 141.188 54.7404 141.236 55.078 141.374C55.3411 141.482 55.6801 141.621 55.9456 141.717C56.4548 141.903 57.1743 141.935 57.4094 141.971C57.7513 142.023 58.0887 142.031 58.4034 142.073C58.8216 142.129 59.3306 142.152 59.7634 142.212C59.9541 142.238 60.2537 142.224 60.7771 142.194C61.3005 142.164 62.0399 142.105 62.9397 141.943C63.8395 141.781 64.8772 141.518 65.4535 141.377C66.2684 141.178 66.6309 141.092 66.9513 140.989C67.0871 140.946 67.318 140.803 67.9588 140.486C68.4228 140.256 69.1602 139.87 69.577 139.65C70.2131 139.313 70.7614 139.021 71.1142 138.791C71.3145 138.66 71.4037 138.501 71.4639 138.471C71.6046 138.4 71.4409 138.956 71.2783 139.325C71.0831 139.767 70.911 140.041 70.754 140.241C70.6021 140.435 70.4173 140.728 70.1761 141.03C69.9454 141.318 69.7544 141.56 69.2801 141.873C69.1045 141.989 68.8429 142.077 68.4276 142.228C68.0123 142.379 67.4398 142.569 66.966 142.703C65.7129 143.058 65.4533 143.007 65.0803 143.025C64.6462 143.046 64.0199 143.115 63.8086 143.133C63.6936 143.143 63.2038 143.164 62.5114 143.158C62.1646 143.155 61.8643 143.104 61.4078 143.067C60.905 143.028 60.3708 143.007 59.5916 142.858C59.0742 142.758 58.3114 142.6 57.8585 142.509C57.0508 142.345 56.6712 142.176 56.1243 142.02C55.0315 141.708 54.8633 141.562 54.5803 141.501C54.3618 141.454 54.2004 141.285 54.0555 141.218C53.7588 141.08 54.4144 141.896 54.6388 142.223C54.8357 142.51 55.0903 142.837 55.3133 143.138C55.4687 143.349 55.7524 143.5 56.2694 143.867C56.6576 144.142 56.9701 144.26 57.0843 144.29C57.1912 144.318 57.6413 144.452 58.4406 144.626C58.833 144.712 59.2041 144.765 59.7524 144.807C60.3007 144.85 61.0164 144.874 61.4268 144.892C61.9211 144.914 62.4838 144.935 63.3677 144.905C64.1016 144.88 64.6192 144.682 64.9441 144.568C65.3433 144.427 65.8835 144.273 66.2881 144.152C66.5945 144.06 66.8373 143.983 67.2079 143.846C68.7615 143.27 68.9455 143.02 69.1442 142.893C69.4891 142.673 69.8723 142.43 70.1741 142.153C70.47 141.881 70.6797 141.395 70.8854 141.038C71.0061 140.803 71.1026 140.646 71.1447 140.532C71.163 140.477 71.1749 140.43 71.2233 140.308" stroke="#131313" stroke-width="0.626298" stroke-linecap="round"/>
<path d="M52.7302 143.879C52.8008 144.056 53.2615 144.624 53.5846 144.956C53.8284 145.206 53.9413 145.552 54.1457 146.175C54.2737 146.565 54.3336 146.958 54.378 147.387C54.3945 147.547 54.4047 147.708 54.4314 148.75C54.4559 149.704 54.4405 151.521 54.4317 152.492C54.4222 153.534 54.3871 153.906 54.3077 154.775C54.1787 156.187 53.906 157.168 53.8796 157.47C53.8235 158.11 53.5864 158.556 53.4787 158.949C53.388 159.28 53.3545 159.749 53.2206 160.223C53.1244 160.563 53.1225 160.855 53.0512 161.185C53.0156 161.336 52.9798 161.497 52.9531 161.675C52.944 161.765 52.944 161.853 52.8906 161.997" stroke="#131313" stroke-width="0.626298" stroke-linecap="round"/>
<path d="M52.8901 143.768C52.996 143.962 53.5636 144.566 53.958 145.031C54.2607 145.388 54.5106 145.815 54.7153 146.153C55.0933 146.778 55.0451 147.169 55.5782 149.317C55.8491 150.408 55.7762 150.926 55.8206 151.346C55.8494 151.62 55.8473 151.908 55.874 152.677C55.8964 153.322 55.8831 154.487 55.8919 155.157C55.9026 155.969 55.9366 156.66 55.9277 157.542C55.9166 158.656 55.8302 159.748 55.944 159.668C56.7824 159.078 57.324 159.801 57.6014 159.952C57.8731 160.1 58.1086 160.335 58.3499 160.407C58.9413 160.586 57.897 158.985 57.8074 158.582C57.7296 158.232 57.6468 157.631 57.6025 157.131C57.5728 156.796 57.5757 156.506 57.549 155.958C57.4863 154.671 57.5223 153.692 57.4956 153.302C57.4114 152.074 57.3978 151.608 57.3352 151.234C57.1756 150.278 56.7575 148.706 56.6228 148.143C56.4654 147.486 56.1514 146.746 55.9817 146.361C55.7963 145.941 55.5464 145.622 55.2784 145.265C55.0051 144.902 54.656 144.466 54.1659 144.045C53.7496 143.688 53.4438 143.59 53.2653 143.466C53.2115 143.428 53.2985 143.376 53.3965 143.358C53.8488 143.274 54.3481 143.713 54.6883 143.927C55.0932 144.182 55.5069 144.425 55.8818 144.693C56.2519 144.958 56.5052 145.174 56.7906 145.485C57.1168 145.841 57.2011 146.207 57.3612 146.545C57.5132 146.867 57.5752 147.239 57.7353 147.756C57.8699 148.191 57.8959 148.629 58.0116 149.181C58.1096 149.649 58.2347 150.637 58.2791 151.47C58.2919 151.709 58.2882 152.062 58.297 153.108C58.3058 154.154 58.3235 155.883 58.3237 156.808C58.324 157.734 58.3064 157.805 58.2973 158.026C58.2882 158.248 58.2882 158.618 58.2882 159" stroke="#131313" stroke-width="0.626298" stroke-linecap="round"/>
<path d="M56.0219 159.375C55.9227 159.408 55.8221 159.475 55.7305 159.599C55.4867 159.931 55.5712 160.391 55.5297 160.717C55.5159 160.825 55.5212 160.974 55.4881 160.993C55.1807 161.168 54.7902 160.462 54.3791 160.393C54.1197 160.526 53.8539 160.726 53.5362 161.051C53.4688 161.127 53.4193 161.177 53.3181 161.328" stroke="#131313" stroke-width="0.626298" stroke-linecap="round"/>
<path d="M71.2429 138.3C71.1768 138.3 70.994 138.3 70.7274 138.267C70.5054 138.239 70.3757 138.034 70.2673 137.9C70.0887 137.681 70.1413 137.301 70.2327 136.991C70.3332 136.65 70.641 136.332 70.7422 136.081C70.8291 135.865 70.2755 136.163 70.1589 136.155C70.0412 135.699 70.0742 134.93 70.1493 134.646C70.1744 134.579 70.2074 134.513 70.2415 134.395" stroke="#131313" stroke-width="0.626298" stroke-linecap="round"/>
<path d="M70.4919 136.395C69.9937 136.743 69.2591 137.444 68.5699 137.959C68.1239 138.293 67.4346 138.706 66.7965 139.067C65.5996 139.746 64.8355 140.049 64.5606 140.149C64.433 140.195 64.3353 140.249 63.5159 140.382C62.6965 140.515 61.1599 140.73 60.3105 140.84C59.461 140.951 59.3454 140.951 59.228 140.959C59.1106 140.967 58.9949 140.984 58.8757 141.001" stroke="#131313" stroke-width="0.626298" stroke-linecap="round"/>
<path d="M70.2098 142.457C69.7142 142.823 69.5495 142.988 69.3486 143.177C68.9595 143.542 68.6397 144.074 68.5216 144.269C68.389 144.488 68.2507 145.051 68.1436 145.485C68.0453 145.883 67.9666 146.187 67.7964 146.571C67.466 147.316 66.7274 146.732 66.209 147.067C65.496 147.527 65.2395 148.123 65.0736 148.355C64.9103 148.583 64.8378 148.985 64.6897 149.346C64.5532 149.68 64.5537 149.977 64.5358 150.526C64.529 150.734 64.5062 150.923 64.4828 151.1C64.4729 151.175 64.4127 151.207 64.3594 151.219C64.1277 151.272 63.9167 151.042 63.563 150.913C63.2182 150.786 62.8192 151.194 62.5528 151.419C62.2464 151.678 62.122 151.926 61.9444 152.216C61.7065 152.603 61.6721 152.93 61.631 153.184C61.5403 153.743 61.5304 154.262 61.4952 154.695C61.4637 155.082 61.4241 155.456 61.3655 155.788C61.2982 156.17 60.4449 155.954 60.2441 156.131C60.0168 156.331 59.8427 156.485 59.6535 156.627C59.4658 156.768 59.3581 156.969 59.2341 157.129C59.1044 157.296 58.9684 157.465 58.8444 157.713C58.7555 157.914 58.7084 158.149 58.6669 158.398C58.6609 158.48 58.6609 158.597 58.6609 158.718" stroke="#131313" stroke-width="0.626298" stroke-linecap="round"/>
<path d="M36.5845 140.84C36.5845 141.06 36.6064 141.48 36.6341 141.751C36.6608 142.013 36.7172 142.244 36.7829 142.99C36.842 143.66 36.9801 144.919 37.0752 145.902C37.1702 146.884 37.225 147.552 37.2587 147.919C37.3057 148.429 37.3584 148.802 37.4029 149.212C37.5137 150.01 37.5794 150.669 37.6408 151.138C37.6465 151.216 37.6465 151.303 37.6465 151.394" stroke="#131313" stroke-width="0.626298" stroke-linecap="round"/>
<path d="M40.6996 141.734C40.5682 141.975 40.2815 142.417 39.9332 142.931C39.5955 143.429 39.3061 143.858 38.9387 144.401C38.6121 144.884 37.9689 145.765 37.6253 146.255C37.2398 146.805 37.0835 147.054 36.7255 147.56C36.1609 148.359 35.8213 148.936 35.7442 149.057C35.5639 149.341 35.2687 149.588 35.1411 149.782C34.9365 150.097 34.7925 150.33 34.7263 150.396C34.6929 150.429 34.6601 150.462 34.6262 150.496" stroke="#131313" stroke-width="0.626298" stroke-linecap="round"/>
<path d="M41.297 141.902C41.2751 142.099 41.2639 142.891 41.2967 144.123C41.3212 145.042 41.463 145.475 41.4739 145.64C41.4922 145.916 41.5403 146.325 41.5843 146.887C41.6405 147.606 41.7504 148.14 41.7836 148.372C41.8355 148.736 41.9051 149.399 41.9386 149.96C41.9696 150.479 42.0272 150.893 42.0823 151.332C42.108 151.537 42.1268 151.736 42.1598 152.062C42.2041 152.29 42.2263 152.511 42.2539 152.693C42.2595 152.743 42.2595 152.798 42.2595 152.854" stroke="#131313" stroke-width="0.626298" stroke-linecap="round"/>
<path d="M46.5075 142.898C46.4199 143.03 46.1995 143.404 45.4466 144.537C44.8887 145.376 43.8943 146.699 43.3155 147.464C42.6068 148.401 42.3706 148.65 42.2274 148.893C42.0472 149.198 41.8396 149.392 41.6745 149.584C41.0777 150.28 40.8775 150.774 40.7114 150.979C40.4567 151.383 40.2144 151.735 40.0143 151.964C39.9807 152.003 39.9588 152.046 39.9031 152.125" stroke="#131313" stroke-width="0.626298" stroke-linecap="round"/>
<path d="M48.6977 143.293C48.6977 143.381 48.6977 143.468 48.6374 143.924C48.5772 144.38 48.4567 145.201 48.3782 145.668C48.2845 146.226 48.2002 146.51 48.0902 147.061C48.0193 147.416 47.8925 147.918 47.8086 148.336C47.5859 149.446 47.5699 149.894 47.5251 150.223C47.4804 150.551 47.4478 150.792 47.4311 151.356C47.4201 151.722 47.3376 152.229 47.2983 152.513C47.261 152.782 47.2268 153.247 47.1657 153.591C47.1005 153.958 47.0277 154.222 46.9721 154.454C46.95 154.597 46.9278 154.753 46.9112 154.979C46.9055 155.128 46.9055 155.347 46.9055 155.573" stroke="#131313" stroke-width="0.626298" stroke-linecap="round"/>
<path d="M34.342 151.762C34.342 151.896 34.3536 152.059 34.3683 152.244C34.3966 152.6 34.4354 152.773 34.4881 153.094C34.5036 153.189 34.5288 153.281 34.5668 153.575C34.6048 153.869 34.657 154.362 34.6896 154.635C34.7413 155.069 34.8041 155.371 34.8306 155.562C34.8382 155.617 34.8336 155.698 34.9118 155.627C34.99 155.556 35.1464 155.33 35.2472 155.19C35.3481 155.051 35.3886 155.004 35.5804 154.729C35.7722 154.453 36.114 153.949 36.3422 153.628C36.6631 153.178 36.8111 153.009 36.8637 152.915C36.9046 152.845 36.9689 152.769 37.0478 152.69C37.0804 152.657 37.0977 152.64 37.1508 152.604" stroke="#131313" stroke-width="0.626298" stroke-linecap="round"/>
<path d="M39.1738 153.449C39.1738 153.461 39.1738 153.472 39.1709 153.742C39.168 154.011 39.1622 154.539 39.1621 154.83C39.162 155.163 39.197 155.373 39.2379 155.647C39.26 155.796 39.3081 156.149 39.3549 156.635C39.3938 157.039 39.396 157.486 39.4136 157.621C39.4332 157.772 39.7289 157.195 39.8839 156.929C40.0844 156.585 40.2736 156.346 40.3464 156.238C40.4638 156.065 40.5774 155.849 40.6915 155.691C40.8551 155.465 41.0981 155.136 41.2593 154.939C41.4 154.767 41.4731 154.643 41.5317 154.556C41.5493 154.532 41.5724 154.509 41.593 154.485C41.6137 154.462 41.6311 154.439 41.649 154.397" stroke="#131313" stroke-width="0.626298" stroke-linecap="round"/>
<path d="M44.5281 159.949L44.5632 160.002" stroke="#131313" stroke-width="0.626298" stroke-linecap="round"/>
<path d="M86.1527 29.5795C87.3737 29.0301 88.3255 28.6305 90.6926 27.9478C92.9117 27.3079 97.183 26.0222 99.6732 25.3359C102.163 24.6496 102.74 24.589 104.689 24.2394C106.638 23.8898 109.942 23.2531 111.705 22.9251C113.586 22.5753 114.018 22.5062 114.644 22.3229C116.282 21.8433 117.968 21.7703 119.603 21.4809C121.002 21.2331 121.825 21.0353 122.866 20.959C123.293 20.9278 123.96 20.9434 124.304 19.852M93.1978 8.92188C92.5646 9.03836 90.3844 9.27548 89.2663 9.42754C87.4733 9.67137 86.8307 9.88736 86.1858 10.01C85.1363 10.2096 83.9826 10.683 83.17 10.7909C81.7774 10.9759 80.0945 11.5098 78.823 11.7703C78.1876 11.9005 76.1863 12.3046 73.447 12.7786C71.4582 13.1228 70.5691 13.3179 69.7565 13.3942C68.8518 13.4791 68.0591 13.7148 67.2759 14.0207C65.9062 14.5558 65.1761 14.7567 65.0075 14.9243C64.9246 15.0068 64.9905 15.1829 65.1426 15.3217C65.9767 16.0827 67.0706 16.256 67.6838 16.5477C68.3366 16.8582 68.8474 17.2372 69.931 17.6948C71.9038 18.5277 72.8549 18.7366 73.5642 19.0742C74.1592 19.3575 75.2142 19.8079 75.7848 20.1919C76.2343 20.4945 76.7485 20.7578 77.6346 21.2016C79.1013 21.936 79.7491 22.4722 80.2861 22.734C80.9242 23.0452 81.4947 23.4222 82.0317 23.6987C82.7491 24.0682 83.6684 24.6165 84.9841 25.0456C85.3919 25.1786 85.6005 25.3524 85.7383 25.6418C86.1405 26.4863 85.5408 27.1265 85.4944 27.7246C85.4544 28.2405 85.3258 29.0834 85.3561 29.9415C85.3651 30.1949 85.4471 30.072 85.4329 29.9337C85.3703 29.3267 84.7158 28.9088 84.3014 28.4633C83.6952 27.8113 82.5733 27.2239 81.8222 26.7484C81.0834 26.2807 79.7914 26.1214 78.6687 25.7222C77.6129 25.3468 76.8771 25.109 76.2786 24.8035C75.5307 24.4218 74.8247 24.374 74.1049 24.0837C73.3401 23.7752 72.5903 23.5783 71.6707 23.1805C70.9743 22.8793 70.2328 22.6596 68.6572 21.9265C67.2619 21.2772 66.3411 21.1896 65.7439 20.8832C64.9561 20.4791 63.9836 20.2397 63.5987 19.919C63.2335 19.6149 63.8568 18.8946 64.0259 18.1596C64.2252 17.24 64.4687 16.2634 64.6387 15.6166C64.6543 15.4935 64.6543 15.3722 64.6543 15.2473" stroke="#131313" stroke-width="0.626298" stroke-linecap="round"/>
<path d="M64.5544 16.8008C64.6517 16.8008 65.1639 17.044 66.1557 17.534C67.2464 18.0728 68.0407 18.3718 68.9065 18.7746C70.7911 19.6511 72.3383 20.2627 72.8044 20.5081C73.4664 20.8566 74.8371 21.5375 75.7287 21.9948C76.1275 22.1993 76.7338 22.3997 77.3499 22.6705C77.5633 22.7643 78.3764 23.1101 79.5665 23.6867C80.9597 24.3617 81.9923 24.8565 82.5203 25.0411C83.0133 25.2135 83.5148 25.421 84.0188 25.6059C84.1544 25.6671 84.3003 25.7644 84.4484 25.851C84.5965 25.9375 84.7424 26.0105 84.9664 26.0857" stroke="#131313" stroke-width="0.626298" stroke-linecap="round"/>
<path d="M64.3333 18.6367C64.4792 18.6854 64.8218 18.8077 65.2757 18.9794C65.565 19.0888 66.8512 19.6389 68.7174 20.4123C69.7796 20.8525 70.2019 21.1407 71.0722 21.4848C71.8724 21.8013 72.4863 21.9763 73.4173 22.2829C74.0476 22.4904 74.5739 22.7383 75.5134 23.0673C77.4878 23.7587 78.8 24.4088 79.0811 24.5065C79.925 24.7995 80.4919 25.0462 82.5998 26.0996C83.8831 26.7168 84.4984 27.0366 84.7313 27.1714C84.8425 27.2333 84.9398 27.282 85.04 27.4058" stroke="#131313" stroke-width="0.626298" stroke-linecap="round"/>
<path d="M90.1113 23.5027C91.3684 23.0081 92.6255 22.5135 96.2098 21.4756C99.794 20.4377 105.667 18.8715 111.719 17.2578" stroke="#131313" stroke-width="0.626298" stroke-linecap="round"/>
<path d="M93.3592 14.341C94.8623 14.341 95.4626 14.4155 96.8123 14.828C98.277 15.2756 100.679 15.5429 103.048 15.8622C104.304 16.0317 106.133 16.37 108.483 16.7086C109.865 16.9076 110.695 16.9365 111.525 17.0488C112.966 17.2438 116.102 17.8754 117.448 18.1581C117.988 18.2713 118.522 18.2907 119.623 18.4955C123.923 19.2946 125.137 19.9427 126.025 20.152C127.056 20.3949 127.924 20.8094 128.846 20.9984C129.054 21.041 129.204 21.0734 129.28 20.683C129.705 18.5212 129.244 17.7309 129.151 16.6978C129.105 16.1945 129.131 15.3363 129.243 14.8206C129.534 13.4777 131.384 13.1404 132.435 12.707C132.955 12.4928 133.853 12.1293 135.635 11.5278C137.418 10.9263 140.062 10.1071 141.498 9.64778C144.184 8.78894 146.431 8.06004 147.744 7.64815C150.442 6.80154 151.281 6.40572 152.336 6.23532C153.083 6.11478 153.617 6.06605 153.881 5.97239C154.443 5.77283 152.046 5.69028 151.139 5.61467C150.257 5.54111 149.297 5.35174 148.45 5.29475C147.526 5.23257 146.401 5.12605 145.236 4.99402C143.998 4.85379 142.422 4.71303 138.587 4.41173C136.798 4.27124 134.566 3.96148 133.009 3.82775C131.802 3.72404 130.754 3.47173 129.83 3.28271C128.821 3.07623 127.705 2.64344 126.112 2.15594C123.159 1.25247 121.198 1.17644 120.501 1.10084C119.521 0.994485 118.567 0.650581 117.512 0.461562C116.572 0.293108 114.703 0.235309 113.242 0.459869C112.284 0.60716 109.555 1.28477 108.013 1.51385C107.192 1.63584 106.228 1.85126 105.53 2.13394C104.832 2.41678 103.599 2.52834 101.623 2.90468C100.282 3.16009 99.2317 3.46947 98.1224 3.65736C96.5814 3.91837 95.7696 4.07207 95.0739 4.18435C93.9252 4.36973 93.2113 4.52345 92.7978 4.61655C92.6231 4.65586 92.6076 4.89584 92.6257 5.08486C92.8694 5.80087 93.0951 6.25225 93.208 7.70683C93.2463 9.01246 93.2463 11.4702 93.2463 14.0025" stroke="#131313" stroke-width="0.626298" stroke-linecap="round"/>
<path d="M154.07 5.76562C154.183 6.28697 154.109 7.64338 154.052 8.48916C154.018 8.9972 153.958 9.82244 153.883 10.7246C153.777 12.0122 150.73 12.1572 149.524 12.6097C148.614 12.951 147.903 13.3252 147.137 13.662C145.63 14.3246 143.996 14.8655 142.795 15.4286C140.457 16.5249 138.394 17.2737 137.354 17.6506C135.782 18.2203 134.142 19.0769 132.991 19.5503C132.521 19.7563 131.993 19.9458 131.467 20.0773C131.239 20.1343 131.09 20.1715 130.937 20.2099" stroke="#131313" stroke-width="0.626298" stroke-linecap="round"/>
<path d="M130.937 20.2109C130.937 20.2854 130.677 20.3983 130.17 20.5856C129.924 20.6984 129.7 20.8474 129.529 20.98C129.359 21.1126 129.247 21.2243 128.906 21.5651" stroke="#131313" stroke-width="0.626298" stroke-linecap="round"/>
<path d="M153.749 7.25C153.345 7.37543 152.94 7.50086 152.356 7.67C151.771 7.83913 151.019 8.04818 150.547 8.16981C150.076 8.29144 149.909 8.31931 149.488 8.4591C149.068 8.59889 148.399 8.84975 147.441 9.15318C146.483 9.45662 145.257 9.80503 144.562 10.0124C143.737 10.2588 143.488 10.3608 143.186 10.4588C143.006 10.5174 142.787 10.6404 141.125 11.2832C139.463 11.9259 136.369 13.0966 134.727 13.7275C132.98 14.3983 132.802 14.4995 132.599 14.5836C132.479 14.6398 132.326 14.7234 132.101 14.8083C131.875 14.8931 131.583 14.9768 131.197 15.1474" stroke="#131313" stroke-width="0.626298" stroke-linecap="round"/>
<path d="M153.835 8.32422C153.711 8.33658 153.425 8.42345 152.107 8.90013C150.907 9.33413 148.602 10.0811 147.369 10.5005C146.031 10.9552 145.836 11.045 145.482 11.1627C144.809 11.3869 144.3 11.6067 144.052 11.6812C143.698 11.7871 143.439 11.9186 142.931 12.123C142.489 12.3009 141.657 12.587 141.181 12.7645C140.412 13.0513 139.971 13.2408 139.576 13.4037C139.106 13.5978 138.648 13.8519 138.216 14.0279C138.02 14.1076 137.723 14.2275 137.325 14.3705C136.913 14.5182 136.636 14.6772 135.925 14.9494C135.296 15.1896 134.138 15.6665 133.41 15.9763C132.681 16.2862 132.422 16.4221 131.961 16.659C130.846 17.2316 130.121 17.5855 129.996 17.6228C129.921 17.6477 129.822 17.6848 129.728 17.7224C129.634 17.76 129.548 17.7971 129.458 17.8727" stroke="#131313" stroke-width="0.626298" stroke-linecap="round"/>
<path d="M153.673 9.81641C153.322 9.89219 152.574 10.065 152.034 10.2081C151.842 10.2591 151.693 10.3234 151.294 10.4326C150.436 10.6675 149.808 10.8877 149.665 10.9546C149.273 11.1375 148.595 11.366 148.306 11.4571C148.127 11.5138 147.611 11.7188 146.932 12.0104C146.365 12.2543 145.916 12.3988 145.551 12.5478C145.181 12.6982 144.72 12.8392 144.137 13.1017C143.31 13.4733 142.708 13.7678 142.527 13.8917C142.229 14.0962 141.876 14.2366 141.619 14.3322C141.504 14.3746 141.417 14.3899 140.796 14.6317C140.174 14.8736 139.018 15.3378 138.352 15.5911C137.551 15.8953 137.331 15.9306 137.112 16.0068C136.961 16.0593 136.722 16.1209 136.207 16.3113C135.692 16.5018 134.906 16.8144 134.378 17.0465C133.59 17.3925 133.226 17.605 132.992 17.6861C132.641 17.808 132.442 17.93 132.06 18.0781C131.387 18.3393 130.834 18.5428 130.591 18.6143C130.061 18.7701 129.839 18.887 129.628 18.9782C129.57 19.0021 129.495 19.0306 129.408 19.0641C129.322 19.0977 129.227 19.1356 129.072 19.2321" stroke="#131313" stroke-width="0.626298" stroke-linecap="round"/>
<path d="M101.245 7.54297C103.208 8.0853 105.171 8.62762 108.196 9.33312C111.222 10.0386 115.25 10.8908 119.401 11.7689" stroke="#131313" stroke-width="0.626298" stroke-linecap="round"/>
</svg>
