<svg width="165" height="162" viewBox="0 0 165 162" fill="none" xmlns="http://www.w3.org/2000/svg">
<path d="M61.9915 81.4191C62.1807 81.4191 62.7039 81.4191 67.11 80.8277C71.0983 80.2925 78.6123 79.0537 82.8421 78.3498C87.0718 77.6459 87.7814 77.4567 88.2416 77.3592C88.7018 77.2617 88.891 77.2617 89.086 77.2617" stroke="#131313" stroke-width="1.05483" stroke-linecap="round"/>
<path d="M89.1261 77.1884C89.1261 58.8193 63.4068 56.7991 62.1591 76.2265C62.1347 77.0587 62.1348 79.6355 62.1348 81.049" stroke="#131313" stroke-width="1.05483" stroke-linecap="round"/>
<path d="M97.2622 75.123C97.4591 75.123 99.3977 74.6637 103.116 73.8365C104.988 73.4203 106.868 73.2062 108.98 72.8086C111.091 72.4109 113.388 71.886 114.653 71.5827C115.918 71.2795 116.082 71.2139 116.232 71.1637C116.382 71.1135 116.513 71.0807 116.649 71.0469" stroke="#131313" stroke-width="1.05483" stroke-linecap="round"/>
<path d="M97.2061 75.0143C97.2061 71.8611 96.8373 68.44 96.9303 65.1744C97.0436 61.2002 98.0974 55.372 102.413 53.9492C106.23 52.6905 110.239 54.7608 112.601 57.7693C115.567 61.5486 116.101 66.373 116.763 70.9638" stroke="#131313" stroke-width="1.05483" stroke-linecap="round"/>
<path d="M66.9681 80.4798C66.833 77.0168 65.814 71.4735 66.9682 68.1989C67.6454 66.2775 70.0217 65.974 71.8676 65.9727C73.4049 65.9715 74.5062 77.7406 74.5062 79.3617" stroke="#131313" stroke-width="1.05483" stroke-linecap="round"/>
<path d="M101.025 73.9814C101.025 70.2262 100.706 66.4356 100.674 62.5483C100.659 60.5546 101.112 60.339 103.236 60.3359C104.046 60.3348 105.122 72.1563 105.392 73.2008" stroke="#131313" stroke-width="1.05483" stroke-linecap="round"/>
<path d="M80.653 57.5712C80.4869 57.5712 80.3209 57.5712 77.9247 57.6128C75.5285 57.6543 70.9073 57.7373 68.4713 57.7939C66.0353 57.8505 65.9246 57.8782 65.7845 57.8924C65.6445 57.9067 65.4785 57.9067 65.3929 57.1318C65.3074 56.357 65.3074 54.8074 66.2898 54.0091C67.2721 53.2108 69.2369 53.2108 70.5534 53.2523C73.3339 53.3399 74.1642 53.5177 74.947 53.5877C76.3614 53.7142 77.7901 54.0476 78.806 54.147C79.0866 54.1744 79.7255 54.217 80.494 54.4384C80.8483 55.6694 80.9045 56.2262 80.9184 56.7847C80.9322 57.0111 80.9599 57.1218 80.9884 57.3197" stroke="#131313" stroke-width="1.05483" stroke-linecap="round"/>
<path d="M102.117 49.1954C101.606 50.495 98.2955 52.1359 97.2519 53.3769C96.7508 52.6483 96.1081 51.8977 95.7673 51.0856C96.4291 50.1263 100.104 45.3784 100.401 45.6776C101.108 46.3876 102.499 48.2233 102.117 49.1954Z" stroke="#131313" stroke-width="1.05483" stroke-linecap="round"/>
<path d="M92.1641 80.8369C94.6909 80.4492 96.8956 79.6188 99.4002 79.0859" stroke="#131313" stroke-width="1.05483" stroke-linecap="round"/>
<path d="M92.0549 80.924C94.0205 82.5864 96.0035 84.5826 97.2272 85.8142C98.2223 86.8157 98.9119 80.3298 99.4001 79.1055" stroke="#131313" stroke-width="1.05483" stroke-linecap="round"/>
<path d="M97.4692 85.8464C97.5667 86.3032 98.2194 87.5455 98.7475 88.2893C98.9153 88.5256 99.1743 88.6678 99.4362 88.7825C99.6876 88.8926 100.287 88.8982 101.025 88.8494C101.875 88.7933 102.649 87.0691 102.9 86.1117C102.982 84.8029 102.917 83.2238 102.802 82.7488C102.753 82.5337 102.72 82.3713 102.687 82.1055" stroke="#131313" stroke-width="1.05483" stroke-linecap="round"/>
<path d="M97.5677 85.9453C97.6986 86.2721 97.7645 87.5106 97.5199 88.9267C97.2953 90.227 96.6186 90.6687 96.1909 91.1447C96.0892 91.2579 95.9945 91.3578 95.7819 91.408C95.2565 91.5321 94.6173 91.3283 94.0281 90.9852C92.9752 89.9185 92.5155 89.2609 92.3023 88.9991C92.2191 88.8672 92.1867 88.7372 91.9563 88.308" stroke="#131313" stroke-width="1.05483" stroke-linecap="round"/>
<path d="M70.0837 84.6211C70.0005 84.6211 69.7913 84.6419 68.8323 84.8709C68.0352 85.0613 66.6257 85.4742 65.7102 85.7817C64.3935 86.2239 63.9516 86.5738 63.784 86.7099C63.4535 86.9782 63.4261 87.4956 63.4359 88.1367C63.4383 88.2982 63.5294 88.4407 63.6759 88.5469C64.009 88.7883 65.1601 88.7797 66.5561 88.7693C67.7822 88.7602 68.7378 88.3386 69.5553 88.1191C70.3535 87.9047 71.5909 87.2902 72.4648 86.9326C72.8942 86.7569 73.3576 86.3879 73.6535 85.8517C73.7547 85.6682 73.7382 85.3791 73.6862 85.0436C73.6622 84.8882 73.5303 84.7912 73.4144 84.7273C73.1909 84.604 72.5669 84.6211 71.0937 84.7147C70.0964 84.778 68.6017 84.9954 67.7577 85.0918C66.7681 85.1882 66.5142 85.209 66.3151 85.2405C66.2199 85.2512 66.1368 85.2512 66.0511 85.2512" stroke="#131313" stroke-width="1.05483" stroke-linecap="round"/>
<path d="M117.107 74.1523C116.711 74.1523 116.061 74.3372 115.441 74.5945C114.241 75.0925 113.818 75.7836 113.363 76.1812C112.977 76.5184 112.93 77.1138 112.952 77.6511C112.986 78.4514 115.421 77.7005 116.276 77.4439C116.846 77.2726 117.546 76.8841 117.957 76.5922C118.158 76.4494 118.319 76.2071 118.494 75.9744C118.661 75.7522 118.717 75.2067 118.671 74.5651C118.654 74.3352 118.532 74.3162 118.438 74.2927C118.041 74.1992 117.645 74.1523 117.077 74.2563C116.67 74.3603 116.023 74.5682 115.357 74.7824" stroke="#131313" stroke-width="1.05483" stroke-linecap="round"/>
<path d="M81.6719 60.0938C82.2703 60.0938 82.8488 60.1347 83.3768 60.2176C84.0767 60.3275 84.7309 60.6512 85.4969 61.0336C86.0991 61.4383 86.6751 61.9312 87.123 62.3893C87.1959 62.4725 87.2574 62.5544 87.3207 62.7009" stroke="#131313" stroke-width="1.05483" stroke-linecap="round"/>
<path d="M94.6948 60.1508C94.6948 60.1289 94.7386 59.4064 94.8596 58.1482C95.0463 57.2401 95.2575 56.6602 95.4231 56.3233C95.4903 56.1943 95.5231 56.1506 95.5569 56.1055" stroke="#131313" stroke-width="1.05483" stroke-linecap="round"/>
<path d="M51.6588 84.7681C51.449 85.0283 51.3433 88.1592 52.0492 90.8335C52.7328 93.4236 54.3906 94.8059 54.9947 95.5432C55.7403 96.4533 56.5957 97.1718 58.5909 98.4588C60.2166 99.5075 61.3811 100.38 62.4852 100.855C64.3715 101.666 67.7911 102.38 69.3708 102.46C70.2634 102.505 73.2943 102.591 77.3928 102.565C80.1033 102.548 81.1475 102.225 82.698 102.066C84.7078 101.86 85.7216 101.121 87.2468 100.857C89.8176 100.412 94.0244 99.4399 95.8406 98.9131C98.8817 98.031 100.598 97.6513 102.046 97.4399C104.546 97.075 108.255 95.8689 110.33 95.2057C111.382 94.8695 112.955 94.1308 114.036 93.6552C115.38 93.0643 116.321 92.3422 118.683 90.5851C120.358 89.34 121.368 88.3485 122.265 87.2957C123.075 86.3464 123.579 84.828 124.342 83.4321C125.314 81.6527 126.21 78.6767 126.395 77.3596C126.556 76.2089 126.579 72.4464 126.135 69.5269C125.687 68.314 125.215 67.579 124.717 67.0017C124.478 66.7367 124.27 66.5285 123.582 66.1562" stroke="#131313" stroke-width="1.05483" stroke-linecap="round"/>
<path d="M73.3291 46.1313C73.8679 46.9033 75.5775 48.4589 77.4807 49.6251C79.2654 50.7187 82.094 51.4117 84.5558 51.9224C85.5808 52.1351 86.6187 52.0391 87.5109 52.1172C89.0933 52.2558 91.1948 49.4898 92.7225 47.2275C93.6974 45.0467 94.1615 43.6497 94.2431 39.3068C94.1662 38.3599 94.0122 38.0521 93.3872 37.0352" stroke="#131313" stroke-width="1.05483" stroke-linecap="round"/>
<path d="M92.9209 44.7356C93.385 45.1997 95.0853 46.4382 97.2672 47.2603C97.613 47.3907 97.9541 47.4957 98.3031 47.5798M105.749 35.4062C105.987 35.6441 106.218 35.875 106.452 36.2284C106.917 37.0435 107.461 38.1304 107.535 41.7129C106.91 43.6581 105.215 47.8522 102.862 47.8854C102.597 47.8891 102.344 47.8917 102.101 47.8927" stroke="#131313" stroke-width="1.05483" stroke-linecap="round"/>
<path d="M106.915 43.568C107.069 44.4193 107.843 45.9703 108.622 47.1797C109.348 48.3066 111.337 48.9277 113.128 49.5913C114.397 50.0612 116.002 50.0193 117.599 49.828C119.241 49.6315 120.671 48.0834 121.76 46.9931C122.15 46.2969 122.616 45.5155 123.083 44.6631C123.241 44.1954 123.241 43.6567 123.241 43.1016" stroke="#131313" stroke-width="1.05483" stroke-linecap="round"/>
<path d="M116.477 50.1014C116.323 50.2553 116.244 50.7964 116.359 51.6116C116.553 52.9781 118.492 53.5952 119.97 54.0652C122.052 54.7275 124.944 53.9917 126.23 53.3305C127.127 52.3591 128.055 51.1183 128.953 49.4857C129.072 49.0938 129.072 48.7859 129.072 48.4688" stroke="#131313" stroke-width="1.05483" stroke-linecap="round"/>
<path d="M121.173 54.1289C121.173 54.2803 121.259 54.8858 121.52 55.5834C121.939 56.7045 122.13 57.4986 122.282 57.9227C122.453 58.4003 122.499 58.9328 122.619 59.4885C122.746 60.0747 122.913 60.5864 122.989 61.0333C123.05 61.3892 123.066 61.74 123.12 62.1749C123.193 62.7605 123.305 63.2409 123.337 63.5893C123.392 64.3254 123.413 65.3733 123.446 65.59C123.457 65.7205 123.457 65.8927 123.457 66.0702" stroke="#131313" stroke-width="1.05483" stroke-linecap="round"/>
<path d="M68.3545 35.3906C69.3858 36.4645 70.0712 37.3215 70.7617 37.9914C71.3743 38.5856 72.0925 39.8152 72.6984 40.6154C73.3034 41.4143 73.2154 42.6135 73.3664 43.5828C73.5621 44.8393 73.5174 47.5879 72.9824 50.4404C72.7981 51.423 72.3484 52.3188 71.801 53.0952M53.2532 56.0421C53.4726 56.2176 53.6856 56.388 53.9237 56.5171C54.4174 56.7313 55.6384 57.2992 57.417 58.1117C60.0139 58.8816 61.0628 58.8574 62.696 58.2937C63.581 57.9883 64.419 57.6992 65.1814 57.4295" stroke="#131313" stroke-width="1.05483" stroke-linecap="round"/>
<path d="M55.3185 56.8164C55.3611 57.1584 55.6179 58.7835 55.8341 59.9541C56.1772 61.8116 55.8787 64.5994 55.4282 65.4397C54.994 66.2497 53.5657 67.519 52.4602 68.3883C52.053 68.518 50.9817 68.5619 49.5419 68.498C48.954 68.4341 48.6558 68.3064 48.3486 68.1747" stroke="#131313" stroke-width="1.05483" stroke-linecap="round"/>
<path d="M52.4789 66.625C52.9074 66.6676 53.7645 67.0096 54.8842 68.0616C56.1084 69.2117 57.1616 72.3248 57.534 74.1718C57.9791 76.3797 57.3862 79.9529 56.848 81.2707C56.3651 82.4532 54.7635 83.0584 52.3821 84.1955C50.2585 85.2096 49.0869 84.9093 47.4942 84.8893C46.1079 84.8719 45.127 84.0961 42.7669 82.7873C39.7034 80.4382 38.6308 79.1953 37.4724 77.4593C36.8677 76.4473 36.2288 75.1695 35.5706 73.853" stroke="#131313" stroke-width="1.05483" stroke-linecap="round"/>
<path d="M27.3669 56.5273C23.8864 58.6945 24.6767 67.0951 26.4482 69.7623" stroke="#131313" stroke-width="1.05483" stroke-linecap="round"/>
<path d="M35.6603 36.0703C34.9894 36.0703 33.2718 36.192 30.91 37.3235C27.7593 38.8331 26.9431 40.3055 25.9267 41.6554C25.0945 42.7607 24.4808 44.2347 23.9289 45.7708C23.4994 46.9661 23.4967 50.2943 23.6801 52.469C23.7732 53.5729 25.0264 54.7396 26.0732 55.756C26.9185 56.5767 28.4027 56.8922 30.1867 57.3861C31.5024 57.7503 33.2571 57.939 36.8748 57.9408C38.0629 57.9414 38.7288 57.3898 39.2808 56.9299C40.1353 56.2181 40.6326 54.3894 41.2795 51.5945C41.7826 49.421 41.1302 47.8063 40.6096 47.3161C39.4725 46.2454 38.1225 45.9007 36.9863 45.5321C36.0841 45.2394 35.2327 45.5911 34.7425 45.897C33.5988 46.6107 33.3271 47.9833 33.234 48.9674C33.1871 49.4638 33.0801 50.0124 33.2018 50.5947C34.1214 51.4886 34.9821 51.7964 35.4723 51.8885C35.7193 51.9198 35.9625 51.9198 36.5818 51.7355" stroke="#131313" stroke-width="1.05483" stroke-linecap="round"/>
<path d="M69.0182 35.7014C68.5298 35.3973 67.4258 34.5366 65.2511 33.9524C61.9481 33.065 60.242 35.0821 59.0698 35.7299C57.9103 36.3708 57.4112 38.7607 57.0702 41.128C56.8134 42.9113 57.1605 44.238 57.4665 44.7282C58.1586 45.8373 59.1841 46.5712 60.7174 47.3701C63.0299 48.5749 64.5287 48.3552 66.0943 48.2962C66.7327 48.2721 66.9891 47.4982 67.3263 47.1001C68.4446 45.7802 67.3632 42.712 66.6251 41.6329C65.8261 41.046 64.7241 40.9243 62.9428 40.9833C62.5696 41.1049 62.3872 41.3482 62.1992 41.7831" stroke="#131313" stroke-width="1.05483" stroke-linecap="round"/>
<path d="M126.944 32.8516C127.979 33.5723 130.234 35.2839 131.465 36.175C132.617 37.0093 133.274 38.3677 133.706 39.25C134.729 41.3367 133.508 45.2874 132.67 47.0743C132.363 47.7292 132.012 48.097 132.033 48.5253C132.1 49.9015 133.681 50.1764 133.979 51.2148C134.615 53.4371 133.687 54.338 133.167 55.1314C132.586 56.0173 131.564 56.735 130.792 57.4171C129.791 58.3017 128.532 58.6841 127.693 59.3167C126.685 60.0777 125.907 60.5383 125.137 60.9692C124.642 61.2169 124.141 61.4897 123.712 61.7157C123.507 61.8074 123.328 61.8521 123.007 62.034" stroke="#131313" stroke-width="1.05483" stroke-linecap="round"/>
<path d="M35.6406 36.2568C36.0233 35.4389 36.4586 34.0198 37.389 31.1759C37.6878 30.2626 38.1569 29.4193 38.8647 27.6759C40.0277 24.8116 41.0049 22.7921 41.5485 21.5947C43.4055 17.5048 44.4507 16.3373 45.5733 14.91C46.4672 13.7735 47.1344 12.829 48.4443 11.924C50.7459 10.3338 53.5268 12.5991 55.2087 13.3973C56.3733 13.95 57.2618 14.5733 58.0296 15.204C58.9117 15.9286 60.3233 16.9778 61.6142 17.9132C62.9828 18.9048 63.8874 20.1017 65.4994 23.2142C66.0225 24.2604 66.4069 25.0291 66.7896 25.8758C66.9555 26.2888 67.0639 26.6682 67.504 27.5519" stroke="#131313" stroke-width="1.05483" stroke-linecap="round"/>
<path d="M50.2582 13.0977C49.4928 13.9714 48.8391 14.9536 48.1797 15.8865C47.5693 16.75 47.3577 17.9659 46.8657 19.3882C46.5132 20.4076 46.4806 21.6318 46.3172 22.7018C46.0794 24.2586 45.9879 25.9021 45.8515 26.8909C45.7239 27.817 45.6594 29.89 45.9591 31.8429C46.0421 32.2551 46.0963 32.6887 46.1513 33.0205C46.2063 33.3523 46.2605 33.5691 46.3163 33.9567" stroke="#131313" stroke-width="1.05483" stroke-linecap="round"/>
<path d="M46.1621 23.3788C46.2712 23.2018 46.7894 22.4506 47.4811 21.6216C47.783 21.2599 48.0234 21.0507 48.6178 20.6128C49.2122 20.1748 50.163 19.5228 50.8362 19.0375C52.3652 17.9353 52.5142 17.7125 52.6033 17.7189C53.1445 17.7576 52.6385 19.0144 52.3596 19.9196C52.1175 20.7055 51.6325 22.1423 51.3808 22.9384C51.1291 23.7345 51.1155 23.8431 51.353 23.7836C51.5905 23.7242 52.0795 23.4932 52.7593 23.286C53.4391 23.0787 54.2948 22.9022 55.2722 22.7976C56.2496 22.6931 57.3227 22.6659 57.8279 22.6927C58.3332 22.7194 58.2381 22.8009 57.9718 23.1553C57.7055 23.5097 57.2708 24.1345 56.8228 24.6738C56.3747 25.213 55.9265 25.6476 55.4918 26.0142C55.0571 26.3807 54.6496 26.666 54.4669 26.8265C54.2841 26.987 54.3385 27.0142 54.6517 27.035C55.5342 27.0936 56.3134 27.1105 56.7238 27.206C57.2081 27.3187 57.5898 27.6444 57.8434 27.9319C58.045 28.1605 58.0578 28.4269 58.0307 28.6255C58.0066 28.8015 57.8117 28.9076 57.4777 29.0918C57.229 29.229 56.804 29.4255 55.3442 30.0194C53.8844 30.6134 51.3987 31.5914 49.7378 32.2922C48.0769 32.9929 47.3163 33.3869 46.8837 33.617C46.4511 33.847 46.3696 33.9014 46.2868 33.9362C46.2041 33.9709 46.1226 33.9845 45.9563 34.122" stroke="#131313" stroke-width="1.05483" stroke-linecap="round"/>
<path d="M39.97 37.6509C39.97 37.4618 39.97 37.2887 40.1686 36.9471C40.6382 36.1393 41.6464 35.4003 42.429 34.818C42.857 34.4995 43.4426 34.3468 44.3192 34.2036C45.1856 34.0619 46.079 34.3629 46.8137 34.7538C47.7708 35.2629 48.1451 36.1402 48.4893 36.5795C48.6231 36.7328 48.7761 36.9615 48.9667 37.2761C49.0627 37.4205 49.1573 37.534 49.3693 37.8229" stroke="#131313" stroke-width="1.05483" stroke-linecap="round"/>
<path d="M65.8877 23.6234C66.0161 23.1853 66.5336 22.4063 67.0398 21.9005C67.696 21.2448 68.9133 20.6196 70.0215 20.239C70.6397 20.0267 72.5132 19.9145 74.8599 19.8496C75.8965 19.8209 76.57 20.1192 77.4633 20.585C78.2189 20.9789 78.8026 21.6484 79.3979 22.3985C79.9419 23.2001 80.3092 23.8802 80.5162 24.4747C80.6204 24.8125 80.7232 25.2234 80.829 25.8802" stroke="#131313" stroke-width="1.05483" stroke-linecap="round"/>
<path d="M74.9182 19.7617C74.9485 19.5184 75.2525 18.8471 75.6969 18.2792C75.9627 17.9395 76.3553 17.7424 76.797 17.5441C77.4813 17.2368 79.403 17.1906 81.8341 17.2663C84.5517 17.351 85.9355 19.5138 86.4397 20.3232C87.5278 22.4522 87.8345 23.3705 87.9263 23.8902C87.9576 24.1069 87.9576 24.2281 87.9576 24.353" stroke="#131313" stroke-width="1.05483" stroke-linecap="round"/>
<path d="M87.6821 24.4664C87.6214 23.3149 87.5902 22.4489 87.5751 21.8993C87.5599 21.3481 87.4681 19.6142 87.4828 17.0165C87.4893 15.8724 87.649 15.0854 87.9084 14.0128C88.1678 12.9403 88.5618 11.607 89.0526 10.2838C90.0286 7.65245 90.8638 6.16443 91.2449 5.55516C92.2899 3.88442 93.0631 2.92387 93.8321 2.27604C94.0699 2.07577 95.7784 3.54921 98.3312 5.55103C100.093 6.93256 100.993 8.14696 101.726 9.07854C102.415 9.95508 103.227 10.8705 103.87 11.8182C104.754 13.123 105.25 14.5767 105.708 15.8425C107.057 18.831 107.302 19.8714 107.562 20.8204C107.608 21.0366 107.608 21.1882 107.608 21.3443" stroke="#131313" stroke-width="1.05483" stroke-linecap="round"/>
<path d="M94.0521 4.35156C93.9175 4.50779 93.603 5.40522 93.3092 6.13021C93.0617 6.74067 92.6576 7.94808 92.4182 8.93682C92.3494 9.22068 92.2268 9.86942 92.1253 11.8858C92.0498 13.3873 92.0908 15.8661 92.1132 17.2985C92.1482 19.549 92.406 20.2187 92.4851 20.6488C92.5592 21.0517 92.7211 21.7282 93.1262 22.6642C93.2622 23.1254 93.3305 23.4669 93.3978 23.6806C93.4427 23.7828 93.5097 23.872 93.5787 24.0993" stroke="#131313" stroke-width="1.05483" stroke-linecap="round"/>
<path d="M107.361 13.9572C109.838 13.5806 111.09 13.7049 112.098 14.0971C112.788 14.3658 113.604 14.865 114.873 16.4126C116.064 17.8657 116.4 19.2908 116.604 19.9005C117.151 21.5404 117.623 23.3625 117.735 24.3918C117.792 24.9135 117.876 25.7223 117.877 27.245C117.877 28.0864 117.313 28.8016 116.468 29.8195C114.967 31.6295 112.486 31.9411 111.585 32.0527C110.234 32.2202 108.026 32.0691 106.942 31.8031C105.53 31.4568 104.821 30.5323 103.803 28.8585C103.079 27.6694 102.937 26.5209 102.826 25.7299C102.716 24.9511 102.871 23.3192 103.341 21.8413C103.6 21.0272 104.032 20.4255 104.33 20.0493C104.744 19.5255 105.879 19.2965 107.34 18.7927C108.795 18.2909 110.307 18.6335 111.015 18.8214C112.131 19.1173 112.633 20.0441 113.151 20.8751C113.535 21.4929 113.544 22.1779 113.436 23.7439C113.379 24.5772 112.511 24.9417 112.088 25.2703C111.007 25.8222 109.78 25.7911 109.218 25.744C108.873 25.728 108.406 25.728 107.926 25.728" stroke="#131313" stroke-width="1.05483" stroke-linecap="round"/>
<path d="M116.986 20.5781C117.101 20.5781 117.332 20.5781 118.29 20.7979C119.085 20.9803 120.471 21.4571 121.246 21.7121C122.419 22.0975 122.813 22.5259 123.497 23.1808C123.867 23.535 124.374 24.4124 125.011 25.5496C125.656 26.7024 125.748 27.253 126.008 27.9965C126.109 28.2862 126.288 28.7197 126.5 29.8137C126.647 30.5775 126.749 31.7867 126.837 32.4737C127.022 33.5469 127.099 33.9708 127.157 34.3081C127.177 34.4543 127.177 34.5498 127.177 34.6482" stroke="#131313" stroke-width="1.05483" stroke-linecap="round"/>
<path d="M107.303 14.0078C107.223 14.0078 106.809 14.1032 106.227 14.2476C105.987 14.2967 105.867 14.3285 105.715 14.3806C105.65 14.401 105.61 14.4089 105.497 14.4412" stroke="#131313" stroke-width="1.05483" stroke-linecap="round"/>
<path d="M92.3562 15.1167C92.3268 15.0002 92.5013 14.4468 92.9023 13.5123C93.1339 12.9728 93.521 12.3458 93.9616 11.6906C94.8632 10.3501 95.462 9.65225 95.5205 9.53533C95.5499 9.47643 95.5789 9.41841 95.5939 10.179C95.6088 10.9397 95.6088 12.5207 95.6233 13.4222C95.645 14.7669 95.7407 14.9989 95.806 15.0868C95.8488 15.1444 96.0018 15.1167 96.7 15.0224C97.3982 14.9281 98.6602 14.7395 99.3755 14.6424C100.091 14.5453 100.221 14.5453 100.289 14.5743C100.356 14.6033 100.356 14.6613 100.254 14.8217C100.153 14.9822 99.9498 15.2433 99.4608 15.7114C98.9718 16.1795 98.203 16.8467 97.7417 17.263C96.8499 18.0677 96.2422 18.6589 95.8238 19.1862C95.6924 19.3518 95.913 19.4233 96.155 19.424C96.3969 19.4246 96.7015 19.3811 97.6925 19.3587C98.6834 19.3363 100.352 19.3363 101.204 19.3653C102.056 19.3943 102.041 19.4523 101.99 19.5112C101.872 19.648 101.458 19.804 100.713 20.1321C100.267 20.329 99.708 20.6488 98.8074 21.0595C97.9068 21.4703 96.6884 21.9779 95.9737 22.2902C95.259 22.6025 95.0849 22.7041 94.9662 22.7781C94.8475 22.8522 94.7895 22.8957 94.6858 23.0285" stroke="#131313" stroke-width="1.05483" stroke-linecap="round"/>
<path d="M94.6845 22.9453C94.4447 23.1178 93.9899 23.4359 93.8651 23.5194C93.8309 23.542 93.7935 23.572 93.763 23.5986C93.7325 23.6252 93.7101 23.6477 93.6643 23.6708" stroke="#131313" stroke-width="1.05483" stroke-linecap="round"/>
<path d="M123.269 62.4036C123.359 62.1905 123.726 61.7624 124.626 61.2273C126.94 59.8509 129.295 60.717 130.155 61.146C131.398 61.7657 131.534 62.7674 131.826 63.5335C132.149 64.3812 132.179 66.3978 131.661 68.309C131.478 68.9825 130.651 68.8339 130.054 68.9102C129.004 69.0444 128.325 68.4996 127.482 68.009C126.928 67.6867 126.73 67.061 126.439 66.2343C126.253 65.7076 126.3 64.7075 126.605 63.9519C126.754 63.5819 127.156 63.4453 127.491 63.3535C127.7 63.2963 128.009 63.3222 128.241 63.398C128.932 64.0241 129.421 64.8196 129.607 65.3414C129.637 65.4645 129.668 65.5857 129.699 65.8944" stroke="#131313" stroke-width="1.05483" stroke-linecap="round"/>
<path d="M129.515 58.3633C129.789 58.4542 130.886 58.8208 132.007 59.3104C133.126 59.799 133.98 61.2937 134.536 62.3565C134.795 62.8518 134.751 64.5952 134.508 66.0912C134.331 67.1797 133.62 67.577 133.1 68.1447C132.487 68.3762 131.937 68.4672 131.509 68.6353C131.323 68.7124 131.202 68.7731 130.893 68.9274" stroke="#131313" stroke-width="1.05483" stroke-linecap="round"/>
<path d="M51.6608 84.832C51.6608 85.8003 51.4675 88.0489 51.1979 89.3197C50.9773 90.3599 49.9088 91.9484 49.0277 93.0814C48.0877 94.2903 46.4928 94.1545 45.3897 94.4994C44.2874 94.8442 41.811 93.8732 40.5066 93.0866C39.1818 92.2877 38.9663 90.5978 38.7949 89.5496C38.4198 87.2559 39.5962 86.1533 40.1352 85.4934C40.6487 84.8648 42.0835 85.1748 43.2342 85.1975C44.0645 85.2139 44.4302 86.4405 45.0184 87.2945C45.5232 88.0274 45.4586 89.0274 45.46 90.296C45.4604 90.5958 45.315 90.7853 45.1685 90.9332C44.5838 91.5237 43.6568 91.5206 42.3882 91.4012C41.8989 90.8937 41.6514 90.255 41.5781 89.5496C41.5532 89.1343 41.5532 88.6026 41.5532 88.0547" stroke="#131313" stroke-width="1.05483" stroke-linecap="round"/>
<path d="M43.3486 85.1541C43.3486 85.1139 42.625 84.1685 41.4984 82.7172C41.0955 82.1906 41.0352 82.0901 40.9639 81.9981C40.8926 81.9062 40.8122 81.8258 40.6685 81.6211" stroke="#131313" stroke-width="1.05483" stroke-linecap="round"/>
<path d="M129.648 66.2091C129.486 65.7632 129.324 65.4392 128.889 65.1946C128.358 64.8963 127.984 65.0518 127.741 65.092C127.578 65.2126 127.456 65.3557 127.294 65.5778C127.192 65.7395 127.052 66.0008 126.907 66.27" stroke="#131313" stroke-width="1.05483" stroke-linecap="round"/>
<path d="M26.4262 69.9609C26.3935 70.0264 26.2784 70.4365 26.1215 71.506C26.0205 72.1942 26.0464 73.1973 26.0543 73.8262C26.0651 74.685 26.2596 75.3293 26.4907 76.0065C26.7023 76.6266 26.9866 77.132 27.9267 78.4033C28.5199 79.2056 29.1518 79.4817 29.4913 79.7379C29.7299 79.9179 30.7487 80.2896 32.169 80.7853C32.9843 81.0698 33.5155 81.0697 33.9611 81.086C34.3117 81.0989 35.033 81.1689 36.0236 81.1443C37.0291 81.1194 37.4824 80.9546 37.955 80.8222C38.1122 80.7562 38.2779 80.6571 38.4921 80.5251C38.6081 80.4587 38.7391 80.3932 38.9236 80.177" stroke="#131313" stroke-width="1.05483" stroke-linecap="round"/>
<path d="M145.26 75.2617C145.26 75.9597 145.096 78.354 144.888 79.5637C144.67 80.8339 144.681 81.9233 144.433 83.6166L144.272 85.1182M144.146 89.886C144.079 90.7538 144.018 90.9469 143.915 91.8783C143.762 93.2597 143.77 94.9135 143.646 96.0604C143.527 97.1637 143.315 98.4778 143.17 99.3931C143.149 99.8464 143.108 100.305 143.046 100.963C143.025 101.417 143.025 102.114 143.025 102.832" stroke="#131313" stroke-width="0.632896" stroke-linecap="round"/>
<path d="M160.287 76.2578C160.287 78.1505 160.205 80.8081 160.039 82.7287C160.011 83.0568 159.981 83.4075 159.951 83.7706M158.176 103.952C158.176 103.572 158.176 103.203 158.197 102.913C158.218 102.623 158.259 102.418 158.279 102.105C158.307 101.602 158.343 101.05 158.386 100.479" stroke="#131313" stroke-width="0.632896" stroke-linecap="round"/>
<path d="M158.154 104.079C157.682 104.989 156.724 105.502 155.906 105.66C155.712 105.697 155.419 105.773 154.31 105.833C153.2 105.893 151.284 105.938 150.118 105.943C148.952 105.948 148.595 105.912 148.287 105.866C147.728 105.783 147.366 105.701 147.153 105.674C146.956 105.649 146.581 105.546 145.962 105.401C145.624 105.322 145.252 105.183 144.925 105.05C143.996 104.672 143.856 104.523 143.592 104.291C143.071 103.833 143.068 103.309 143.035 103.031C143.021 102.752 143.003 102.542 143.007 102.373C143.012 102.304 143.021 102.268 143.031 102.23" stroke="#131313" stroke-width="0.632896" stroke-linecap="round"/>
<path d="M155.432 74.4227C156.1 74.495 158.834 74.6365 159.045 75.5711C159.597 78.0193 148.628 77.2008 146.762 76.2159C146.248 75.9908 145.357 75.3509 145.897 74.5914C147.752 73.5958 150.606 74.0966 152.647 74.1458" stroke="#131313" stroke-width="0.632896" stroke-linecap="round"/>
<path d="M160.262 76.0849C160.222 75.9182 160.117 75.6902 160.005 75.5157C159.925 75.3909 159.805 75.3239 159.732 75.2757C159.655 75.2187 159.471 75.1307 159.155 75.0275C158.983 74.9809 158.787 74.9461 158.585 74.9102" stroke="#131313" stroke-width="0.632896" stroke-linecap="round"/>
<path d="M145.334 75.1519C145.384 75.0581 145.539 74.8358 145.687 74.6885C145.785 74.6291 145.853 74.6156 145.882 74.6139C145.897 74.6122 145.914 74.6089 145.931 74.6055" stroke="#131313" stroke-width="0.632896" stroke-linecap="round"/>
<path d="M152.748 75.0683C152.621 74.4293 152.957 73.4548 153.238 72.8919C153.737 71.8928 155.522 70.5316 156.6 71.3713C157.97 72.4396 154.772 74.9977 153.823 75.5492" stroke="#131313" stroke-width="0.632896" stroke-linecap="round"/>
<path d="M153.738 74.6431C153.738 74.6058 153.571 74.3115 153.618 73.7702C153.74 72.3535 155.913 72.4453 154.525 74.2132C154.396 74.3777 154.111 74.7636 153.692 74.9537C153.617 75.0007 153.523 75.0753 153.447 75.1418C153.371 75.2083 153.315 75.2643 153.201 75.4069" stroke="#131313" stroke-width="0.632896" stroke-linecap="round"/>
<path d="M152.73 75.2252C152.714 75.2096 152.563 75.1862 152.206 75.1568C151.969 75.1374 151.62 75.1313 151.401 75.1331C151.104 75.1355 150.997 75.1742 150.95 75.1917C150.876 75.2197 150.825 75.3111 150.801 75.3779C150.795 75.3932 150.793 75.4092 150.803 75.423C150.87 75.5198 151.106 75.5035 151.305 75.5173C151.418 75.525 151.624 75.5193 151.744 75.5232C151.863 75.527 151.89 75.5348 152.077 75.5446C152.264 75.5545 152.609 75.5661 152.84 75.5799C153.302 75.6329 153.373 75.6564 153.435 75.6702C153.451 75.6722 153.467 75.6722 153.483 75.6722" stroke="#131313" stroke-width="0.632896" stroke-linecap="round"/>
<path d="M156.738 83.332C156.053 83.332 155.504 83.3709 154.955 83.508C154.75 83.5592 154.542 83.7233 153.948 84.0743C152.742 84.7868 151.835 85.2338 151.543 85.4971C150.402 86.5239 149.854 87.2332 149.473 87.6937C148.697 88.6304 148.365 89.1926 147.992 89.8308C147.553 90.5821 147.129 91.7205 146.796 92.9047C146.343 94.5142 146.422 95.1745 146.372 95.6873C146.303 96.1965 146.167 97.0768 146.01 98.0836C145.95 98.6438 145.931 99.304 145.911 99.9842" stroke="#131313" stroke-width="0.632896" stroke-linecap="round"/>
<path d="M156.62 85.332C156.425 85.332 155.722 85.4485 154.819 85.7819C154.082 86.0537 153.621 86.3512 152.604 87.0349C151.425 87.8271 151.054 88.4671 150.629 88.9005C150.352 89.1835 150.09 89.5086 149.835 89.9296C149.486 90.5045 149.187 91.0373 148.962 91.6746C148.737 92.3095 148.501 92.8025 148.285 93.5181C148.025 94.3767 147.755 95.6069 147.667 96.0883C147.549 96.7286 147.5 97.1568 147.441 97.6087C147.421 97.7076 147.402 97.7852 147.392 98.0777C147.382 98.3701 147.382 98.875 147.382 99.3951" stroke="#131313" stroke-width="0.632896" stroke-linecap="round"/>
<path d="M156.267 85.3906C156.248 85.9932 156.169 87.2524 156.14 87.6154C156.089 88.2308 156.013 89.446 155.953 89.9785C155.876 90.6679 155.816 91.1359 155.767 91.9473C155.694 93.1465 155.444 93.9556 155.345 94.7043C155.197 95.8311 155.11 96.3716 155.032 96.8238C154.972 97.3925 154.895 98.2522 154.845 98.9907C154.835 99.1195 154.816 99.1972 154.796 99.2772" stroke="#131313" stroke-width="0.632896" stroke-linecap="round"/>
<path d="M149.782 92.7047C149.794 92.7047 149.806 92.7047 150.413 92.7047C151.019 92.7047 152.219 92.7047 152.879 92.6986C153.54 92.6926 153.624 92.6805 153.989 92.6742C154.354 92.668 154.997 92.668 155.658 92.668" stroke="#131313" stroke-width="0.632896" stroke-linecap="round"/>
<path d="M149.114 96.9766C149.091 97.1028 149.068 97.229 149.037 97.4413C149.006 97.6536 148.969 97.9481 148.947 98.1863C148.921 98.5975 148.907 98.8459 148.893 98.9848C148.888 99.0537 148.888 99.1191 148.888 99.1866" stroke="#131313" stroke-width="0.632896" stroke-linecap="round"/>
<path d="M151.395 97.0778C151.202 97.0589 150.78 97.0494 150.468 97.0987C150.276 97.129 150.009 97.4206 149.795 97.6062C149.655 97.7274 149.615 97.866 149.58 97.9557C149.514 98.1235 149.516 98.2627 149.513 98.5687C149.513 98.6734 149.567 98.7677 149.697 98.8995C149.882 99.0887 150.19 99.174 150.493 99.2424C150.832 99.3188 151.05 99.2924 151.132 99.2995C151.423 99.3245 151.565 99.2359 151.685 99.2029C151.891 99.1744 151.971 99.1698 152.018 99.1627C152.042 99.1603 152.065 99.1603 152.089 99.1603" stroke="#131313" stroke-width="0.632896" stroke-linecap="round"/>
<path d="M152.599 97.0352C152.599 97.0398 152.599 97.0445 152.599 97.3835C152.599 97.7225 152.599 98.3957 152.609 98.7776C152.62 99.2303 152.665 99.3252 152.696 99.3653C152.966 99.3917 153.378 99.354 153.456 99.3256C153.492 99.316 153.52 99.316 153.549 99.3018" stroke="#131313" stroke-width="0.632896" stroke-linecap="round"/>
<path d="M152.769 96.8799C152.943 96.8799 153.104 96.8892 153.246 96.8964C153.425 96.9082 153.6 96.9036 153.652 96.8895C153.68 96.88 153.713 96.866 153.789 96.8516" stroke="#131313" stroke-width="0.632896" stroke-linecap="round"/>
<path d="M152.869 98.2129C152.967 98.2129 153.065 98.2129 153.167 98.2129C153.269 98.2129 153.372 98.2129 153.469 98.2059C153.567 98.1989 153.655 98.1849 153.775 98.1562" stroke="#131313" stroke-width="0.632896" stroke-linecap="round"/>
<path d="M160.86 83.8438C160.529 83.8438 159.82 83.885 159.382 84.1032C158.886 84.3503 158.548 84.884 158.339 85.28C158.12 85.6951 157.964 86.0092 157.87 86.343C157.779 86.6657 157.797 87.4633 157.994 88.2797C158.163 88.9842 158.774 89.2812 159.129 89.3656C159.357 89.4275 159.67 89.4906 160.147 89.5219C160.439 89.5325 160.831 89.5325 161.235 89.5325" stroke="#131313" stroke-width="0.632896" stroke-linecap="round"/>
<path d="M159.234 89.6562C159.069 89.6975 158.735 89.9051 158.226 90.3111C157.901 90.5693 157.776 91.029 157.62 91.4157C157.456 91.8212 157.484 93.2908 157.639 94.2907C157.734 94.9 158.15 95.1349 158.607 95.4688C159.099 95.8282 159.503 95.9489 159.993 96.022C160.169 96.0326 160.417 96.0326 160.596 96.012C160.775 95.9914 160.878 95.9501 160.985 95.9076" stroke="#131313" stroke-width="0.632896" stroke-linecap="round"/>
<path d="M158.23 95.2656C157.897 95.6017 157.565 96.1073 157.137 97.0127C156.712 97.9123 156.875 98.6603 156.885 99.1242C156.895 99.6204 157.477 99.821 158.04 100.064C158.789 100.387 159.209 100.37 160.063 100.371C160.335 100.308 160.524 100.244 160.732 100.213C160.837 100.202 160.94 100.202 161.234 100.075" stroke="#131313" stroke-width="0.632896" stroke-linecap="round"/>
<path d="M160.854 83.8516C162.12 83.8516 162.711 84.0271 163.119 84.1737C163.532 84.3221 163.92 84.7135 164.183 85.1002C164.462 85.5128 164.527 86.0476 164.527 87.0875C164.528 87.7026 164.049 88.173 163.913 88.5281C163.784 88.8645 163.715 89.112 163.714 89.2783C163.713 89.7459 164.255 90.1735 164.329 90.5492C164.427 91.0509 164.548 92.3939 164.237 93.9633C164.062 94.8479 163.778 95.1333 163.611 95.5499C163.562 95.6726 163.528 95.8197 163.537 95.9353C163.574 96.3773 164.047 96.6961 164.069 98.0364C164.094 99.5008 162.13 99.8425 161.086 100.18" stroke="#131313" stroke-width="0.632896" stroke-linecap="round"/>
<path d="M144.083 85.5195C144.188 86.0258 144.483 86.8486 144.293 88.1144L144.083 89.7388" stroke="#131313" stroke-width="0.632896" stroke-linecap="round"/>
<path d="M144.232 86.3488C144.222 86.2298 144.178 86.0346 144.119 85.6825C144.017 85.085 143.821 84.5708 143.474 84.0101C142.957 83.1763 142.484 83.0691 141.959 82.8249C141.522 82.6216 141.008 82.6012 140.618 82.6334C140.073 82.6784 139.823 83.2627 139.595 83.7342C139.379 84.1793 139.474 84.7699 139.571 85.6789C139.629 86.2173 139.862 86.8891 139.967 87.2704C140.122 87.8345 140.18 88.0746 140.505 89.2279C140.705 89.937 140.81 90.333 140.892 90.6763C140.996 91.1144 141.114 91.5818 141.174 92.2396C141.221 92.7486 141.321 93.3976 141.343 93.7176C141.361 93.9836 141.429 94.2126 141.494 94.4073C141.751 95.1755 142.016 95.9936 142.135 96.265C142.472 96.8307 142.624 97.0044 142.852 97.1296C142.907 97.1569 142.95 97.1785 143.059 97.2332" stroke="#131313" stroke-width="0.632896" stroke-linecap="round"/>
<path d="M82.9829 102.507C83.0317 102.972 83.3257 104.003 84.1495 105.432C84.3835 105.838 84.6319 106.051 84.9381 106.419C85.4086 106.985 86.5461 107.747 87.7644 108.559C88.3586 108.955 88.8408 109.228 89.4795 109.633C90.0874 110.019 91.2981 110.36 93.0786 110.79C93.9979 111.013 94.981 111.099 96.0563 111.162C97.1316 111.225 98.2775 111.225 99.0872 111.176C100.342 111.1 101.056 110.807 101.974 110.452C104.771 109.37 105.292 109.157 106.043 108.604C107.12 107.811 108.174 106.128 108.642 105.147C109.314 103.735 109.407 103.052 109.628 101.749C109.702 100.769 109.752 100.07 109.789 99.2756C109.801 98.6273 109.801 97.4814 109.801 96.3008" stroke="#131313" stroke-width="1.05483" stroke-linecap="round"/>
<path d="M69.5148 104.004C68.8206 104.697 67.2409 106.465 64.7512 110.507C64.115 112.102 63.8356 113.217 63.7651 116.608C63.742 117.318 63.6959 117.502 63.6484 117.692" stroke="#131313" stroke-width="1.05483" stroke-linecap="round"/>
<path d="M119.938 91.0117C120.262 91.0117 121.558 91.1961 122.958 91.3602C125.442 91.6514 126.871 92.6403 127.709 92.9888C128.917 93.4908 129.849 93.8499 130.62 94.3388C131.893 95.1457 133.436 96.0847 134.182 96.7126C134.369 96.8767 134.553 97.015 134.718 97.1553C134.882 97.2957 135.02 97.434 135.162 97.7161" stroke="#131313" stroke-width="1.05483" stroke-linecap="round"/>
<path d="M63.0793 118.184C62.6577 118.309 62.1497 118.984 61.7052 119.747C61.2158 120.587 61.2607 121.524 61.048 122.35C60.8502 123.119 60.8365 123.98 60.8562 125.417C60.8642 126 61.342 126.31 61.6798 126.522C62.2823 126.899 62.866 126.861 63.0571 126.988C63.5427 127.309 61.8983 127.833 61.3452 128.468C60.8858 128.995 61.0905 129.906 60.9419 130.795C60.8033 131.624 61.0042 132.321 61.215 132.617C61.6221 133.188 62.5256 132.999 63.3511 133.274C64.2278 133.566 65.9444 133.759 67.7707 134.037C68.3963 134.132 69.409 134.058 71.1635 133.765C72.918 133.472 75.3906 132.885 77.0416 132.394C80.5378 131.355 81.1945 130.632 81.7044 130.102C82.3494 129.433 82.467 128.051 82.4473 127.014C82.4307 126.137 81.3266 125.974 81.0307 125.742C80.8765 125.621 80.8186 125.384 80.8383 125.193C80.9167 124.429 81.324 123.817 81.3253 121.98C81.1996 121.404 80.9875 121.064 80.7341 120.726C80.6065 120.556 80.4808 120.388 80.3512 120.216" stroke="#131313" stroke-width="1.05483" stroke-linecap="round"/>
<path d="M135.53 97.5781C135.923 97.5781 136.822 97.6828 137.246 98.0521C137.665 98.4171 137.695 99.1872 137.815 99.8075C137.867 100.079 137.828 100.528 138.103 100.757C138.76 101.305 139.597 101.065 139.795 101.223C139.977 101.369 140.126 101.567 140.271 101.778C141.051 102.911 140.392 105.528 140.155 106.255C139.835 107.234 139.101 108.114 138.28 109.108C137.619 109.908 136.72 110.497 136.113 110.933C135.456 111.405 134.45 111.844 133.828 112.162C133.042 112.563 132.308 112.559 131.846 112.651C131.221 112.775 130.777 113.192 129.694 113.142C128.741 113.098 129.109 111.822 129.043 111.175C129.03 110.741 129.134 110.263 129.332 109.841C129.425 109.654 129.504 109.524 129.585 109.389" stroke="#131313" stroke-width="1.05483" stroke-linecap="round"/>
<path d="M128.951 110.343C128.794 110.395 128.399 110.422 127.832 110.357C126.822 110.241 126.022 108.764 125.425 107.718C125.279 107.204 125.225 106.673 125.277 106.172C125.33 105.933 125.434 105.723 125.542 105.508" stroke="#131313" stroke-width="1.05483" stroke-linecap="round"/>
<path d="M68.6084 126.955C69.0216 126.955 70.0816 126.955 71.5408 126.924C72.1528 126.893 72.504 126.831 73.0879 126.685C73.6717 126.54 74.4775 126.312 75.3077 126.078" stroke="#131313" stroke-width="1.05483" stroke-linecap="round"/>
<path d="M135.515 102.09C135.272 102.12 134.979 102.227 134.649 102.419C134.324 102.608 133.706 103.207 132.839 104.135C132.14 105.017 131.644 105.791 131.352 106.351C131.242 106.577 131.212 106.683 131.181 106.793" stroke="#131313" stroke-width="1.05483" stroke-linecap="round"/>
<path d="M111.782 123.825C111.785 123.792 111.787 123.76 111.874 122.549C111.96 121.338 112.131 118.95 112.247 117.698C112.363 116.445 112.419 116.4 112.484 116.355C113.13 115.908 114.707 115.92 115.272 115.919C115.692 115.919 116.082 115.952 116.65 115.968C118.596 116.023 118.8 116.163 118.937 116.206C119.34 116.33 119.343 116.959 119.482 117.841C119.589 118.518 119.563 119.051 119.638 119.479C119.7 119.83 119.688 120.266 119.677 120.784C119.675 120.909 119.689 120.992 119.658 121.783C119.628 122.574 119.556 124.071 119.524 124.883C119.493 125.696 119.505 125.778 119.505 125.902C119.505 126.025 119.493 126.188 119.481 126.355" stroke="#131313" stroke-width="0.572314" stroke-linecap="round"/>
<path d="M111.737 123.849C111.46 123.829 110.858 123.74 110.078 123.591C109.574 123.494 108.665 123.281 107.286 123.111C105.908 122.941 104.09 122.811 103.078 122.819C102.067 122.828 101.917 122.979 101.81 123.159C101.374 123.888 101.328 124.643 101.259 125.118C101.24 125.245 101.17 125.926 101.082 127.001M100.523 143.56C100.503 144.192 100.529 144.94 100.757 145.331C100.988 145.728 101.527 145.667 104.264 145.992C106.263 146.229 109.955 146.389 111.923 146.506C114.029 146.632 114.957 146.653 116.204 146.684C117.208 146.709 117.566 145.557 117.726 145.124C117.951 144.516 117.992 144.136 118.132 143.318M119.458 124.682C119.475 124.779 119.492 124.872 119.495 124.99C119.488 125.246 119.494 125.505 119.329 128.288C119.292 128.836 119.248 129.486 119.198 130.194" stroke="#131313" stroke-width="0.572314" stroke-linecap="round"/>
<path d="M102.248 127.374C102.962 125.631 104.799 124.077 106.627 125.321C108.065 126.299 108.006 128.601 109.537 129.615C110.816 130.462 111.712 129.487 112.448 129.279C114.467 128.707 116.279 129.047 117.805 130.516" stroke="#131313" stroke-width="0.572314" stroke-linecap="round"/>
<path d="M111.985 122.225C112.72 120.727 113.773 120.184 115.412 120.677C116.348 120.958 116.912 120.582 117.662 120.081C118.105 119.778 119.006 120.007 119.501 120.138" stroke="#131313" stroke-width="0.572314" stroke-linecap="round"/>
<path d="M101.136 126.945C101.358 127.019 101.831 127.27 102.406 127.604C102.969 127.931 103.608 128.248 104.773 128.739C105.341 128.979 106.305 129.193 107.745 129.577C108.59 129.803 110.184 130.139 111.089 130.307C112.158 130.505 112.958 130.451 114.041 130.503C115.265 130.561 115.779 130.556 116.822 130.564C118.201 130.433 119.183 130.312 119.378 130.247C119.472 130.208 119.555 130.155 119.657 130.032" stroke="#131313" stroke-width="0.971133" stroke-linecap="round"/>
<path d="M119.586 126.523C119.826 126.578 120.512 126.808 121.062 127.142C121.379 127.334 121.652 127.638 121.871 127.966C122.139 128.37 122.222 128.67 122.323 128.96C122.407 129.202 122.434 129.595 122.451 129.919C122.469 130.259 122.407 130.736 122.21 131.613C122.122 132.005 121.895 132.225 121.23 132.947C120.92 133.217 120.671 133.416 120.301 133.676C120.217 133.734 120.173 133.762 120.083 133.819" stroke="#131313" stroke-width="0.971133" stroke-linecap="round"/>
<path d="M122.276 131.713C122.406 131.869 122.515 132.401 122.608 132.755C122.689 133.065 122.678 133.659 122.634 134.054C122.579 134.553 122.367 135.273 121.993 136.028C121.714 136.594 121.465 136.903 121.227 137.169C120.902 137.531 120.572 137.646 119.844 137.869C118.801 138.096 118.066 138.254 117.879 138.295C117.76 138.313 117.594 138.325 117.377 138.367" stroke="#131313" stroke-width="0.971133" stroke-linecap="round"/>
<path d="M101.134 124.371C101.006 124.41 100.689 124.61 100.319 124.893C99.9926 125.142 99.778 125.479 99.3638 126.031C98.8976 126.653 98.7438 126.966 98.5801 127.313C98.5044 127.473 98.3623 128.052 98.1772 128.837C97.9651 129.736 97.6454 130.859 97.4492 131.428C97.3012 131.856 97.1892 132.204 97.0761 132.554C96.9155 133.052 96.7373 133.38 96.5997 133.725C96.4027 134.218 95.9978 134.93 95.7321 135.421C95.549 135.759 95.5467 136.316 95.6401 136.695C95.8278 137.456 95.9131 138.016 96.0424 138.54C96.1435 138.949 96.1925 139.272 96.3096 139.699C96.4366 140.163 96.5492 140.562 96.7208 141.163C96.8289 141.541 97.0647 141.905 97.2199 142.239C97.3738 142.57 97.739 142.842 98.2081 143.067C98.5019 143.167 98.946 143.302 99.5342 143.409C99.8013 143.444 100.005 143.439 100.214 143.434" stroke="#131313" stroke-width="0.971133" stroke-linecap="round"/>
<path d="M100.473 143.648C100.538 143.662 100.84 143.596 102.3 143.459C103.487 143.347 105.593 143.346 108.356 143.353C111.119 143.36 114.478 143.425 116.27 143.447C118.185 143.47 118.428 143.432 118.785 143.427C119.39 143.42 120.028 143.282 120.568 143.182C121.719 142.971 122.688 142.893 123.235 142.658C123.88 142.383 124.665 141.908 125.193 141.346C125.785 140.715 125.679 139.835 125.584 139.464C125.491 139.098 125.002 138.915 124.535 138.682C124.16 138.505 123.474 138.298 122.252 138.149C121.496 138.105 120.462 138.126 119.397 138.147" stroke="#131313" stroke-width="0.971133" stroke-linecap="round"/>
<path d="M114.436 115.66C114.461 115.585 114.495 115.41 114.504 115.351C114.518 115.259 114.521 115.206 114.539 115.159C114.551 115.126 114.601 115.127 114.751 115.117C114.88 115.109 115.119 115.103 115.253 115.097C115.41 115.09 115.473 115.085 115.55 115.084C115.622 115.083 115.752 115.082 115.907 115.092C116.074 115.102 116.212 115.095 116.365 115.103C116.489 115.109 116.704 115.11 116.826 115.11C116.968 115.11 117.011 115.105 117.048 115.114C117.114 115.132 117.1 115.249 117.105 115.319C117.106 115.339 117.109 115.362 117.111 115.38C117.112 115.397 117.113 115.408 117.116 115.446" stroke="#131313" stroke-width="0.632896" stroke-linecap="round"/>
<path d="M123.273 0.527344C121.277 5.73235 120.579 8.34529 120.492 9.23778C120.369 10.4914 120.188 11.5163 120.187 14.9004C120.186 16.241 120.793 16.823 121.315 17.4104C122.237 18.4497 124.353 16.5674 126.092 15.3744C127.072 14.7021 127.615 13.5712 128.659 11.9857C129.642 10.4916 130.181 8.35572 130.963 5.21277C131.165 4.39709 131.396 3.84176 131.507 3.46755C131.665 2.93305 130.757 5.62674 129.432 10.1883C128.838 12.2313 128.751 12.9544 128.426 13.9701C127.577 17.8165 127.272 19.7788 127.185 20.1909C127.142 20.3877 127.099 20.5599 127.054 20.7372" stroke="#FF0404" stroke-width="1.05483" stroke-linecap="round"/>
<path d="M129.662 24.2604C129.532 23.3999 129.79 20.7921 130.312 18.2503C130.619 16.7556 131.008 15.7462 132.091 12.1065C132.544 10.5867 133.094 9.96229 133.462 9.8319C133.652 9.76477 133.874 9.78757 134.135 10.0888C134.833 10.8926 135.223 12.9468 135.528 16.4953C135.717 18.7036 135.574 21.7648 135.336 24.1991C135.099 26.6334 134.669 28.3545 134.426 29.3272C134.183 30.2999 134.14 30.472 134.095 30.6493" stroke="#FF0404" stroke-width="1.05483" stroke-linecap="round"/>
<path d="M141.527 18.2617C140.401 21.0794 139.444 23.425 138.641 25.5725C137.556 28.476 137.312 30.8192 137.182 31.4907C136.85 33.2111 136.747 34.513 136.789 35.7074C136.798 35.9645 137.047 36.0359 137.329 36.0803C137.992 36.1844 138.613 36.0385 139.046 35.8436C139.498 35.6408 139.917 35.1284 140.307 34.4133C141.398 32.4163 140.487 29.5662 139.964 28.8471C139.846 28.684 139.704 28.5648 139.487 28.4983C139.27 28.4318 138.969 28.4318 138.728 28.4749C138.486 28.5179 138.314 28.6039 138.007 28.823" stroke="#FF0404" stroke-width="1.05483" stroke-linecap="round"/>
<path d="M152.563 27.6554C152.506 27.7809 152.45 27.9063 151.688 29.8127C150.925 31.719 149.459 35.4023 148.623 37.4447C147.626 39.7768 147.215 40.7505 146.831 41.9034C146.692 42.3811 146.665 42.641 146.592 43.0898" stroke="#FF0404" stroke-width="1.05483" stroke-linecap="round"/>
<path d="M152.612 27.6904C152.531 27.5556 152.231 27.2808 151.876 26.9158C151.596 26.6276 151.105 26.5912 150.699 26.5359C150.029 26.4446 149.664 26.4154 148.76 26.6075C148.322 26.7006 147.996 26.9054 147.64 27.07C147.203 27.2719 147.044 27.5437 146.793 28.0679C146.406 28.8801 146.524 29.4359 146.858 30.8261C147.03 31.5437 147.568 31.9878 148.028 32.4477C149.051 33.3512 149.416 33.6114 149.848 33.8233C149.952 33.8689 150.028 33.9029 150.263 33.9542" stroke="#FF0404" stroke-width="1.05483" stroke-linecap="round"/>
<path d="M150.387 33.8188C150.226 33.8546 150.046 33.8946 149.346 34.2533C148.731 34.5684 147.636 35.2426 146.87 35.7237C145.691 36.4637 145.154 36.8621 144.556 37.1901C143.383 37.8997 142.575 38.4096 142.445 38.5151C142.373 38.5741 142.287 38.6439 142.198 38.7159" stroke="#FF0404" stroke-width="1.05483" stroke-linecap="round"/>
<path d="M32.2204 99.6055C32.0567 100.097 31.9178 100.568 31.385 102.058C30.9274 103.338 30.0064 105.649 29.5016 106.912C28.915 108.311 28.7761 108.67 28.6662 109.055C28.6108 109.222 28.5562 109.331 28.5 109.444" stroke="#131313" stroke-width="1.05483" stroke-linecap="round"/>
<path d="M31.9499 99.158C32.334 99.158 33.0014 99.1367 34.2889 99.0403C35.108 98.979 36.2592 98.8373 37.3329 98.7607C39.3642 98.6157 40.463 98.7047 40.6674 98.8657C40.8952 99.0453 40.9597 99.5641 40.96 100.135C40.9601 100.365 40.875 100.471 40.778 100.568C40.3501 100.999 39.4989 101.161 38.0727 101.441C37.1222 101.627 35.6863 101.763 34.6083 101.861C33.5303 101.96 32.8475 101.981 32.1116 102.035C29.6583 102.214 29.2566 102.413 29.159 102.456C29.0275 102.514 29.5774 102.499 31.5962 102.456C33.4654 102.416 37.0507 102.413 39.3776 102.477C41.7046 102.541 42.6649 102.69 43.2663 102.81C43.8676 102.929 44.081 103.015 44.223 103.112C44.4621 103.276 44.4949 103.746 44.4735 104.284C44.4604 104.615 44.3015 104.805 44.1405 104.987C44.0497 105.09 43.9155 105.191 43.5081 105.342C43.1007 105.493 42.4179 105.685 40.2096 105.87C38.0013 106.054 34.2882 106.225 32.3007 106.291C30.3133 106.358 30.1639 106.315 30.0336 106.25C29.9033 106.186 29.7966 106.1 29.7416 106.003C29.6867 105.906 29.6867 105.799 29.6867 105.689" stroke="#131313" stroke-width="1.05483" stroke-linecap="round"/>
<path d="M21.9026 98.2578C21.7586 98.2938 21.5944 98.3664 21.431 98.5022C21.2553 98.6483 20.6541 99.6672 19.6191 101.282C18.7897 102.577 18.594 103.618 18.5395 104.253C18.5143 104.546 18.5209 104.78 18.5749 104.955C18.6289 105.129 18.7369 105.237 18.8555 105.284C19.0848 105.374 19.356 105.222 20.2758 104.645C21.0729 104.145 22.5276 103.204 23.6297 102.533C24.7317 101.861 25.4337 101.483 26.1463 101.037C27.5903 100.132 28.392 99.4228 28.6007 99.1147C28.7086 98.9552 28.7913 98.7705 28.8467 98.6418C28.902 98.5131 28.92 98.4411 28.8303 98.512C28.7406 98.5829 28.5426 98.7989 28.0536 99.6211C27.5646 100.443 26.7907 101.865 26.113 103.219C25.4353 104.572 24.8773 105.814 24.5719 106.49C24.2664 107.166 24.2304 107.238 24.1388 107.366" stroke="#131313" stroke-width="1.05483" stroke-linecap="round"/>
<path d="M16.9663 97.7656C16.8943 97.8376 16.8223 97.9096 16.2362 99.2516C15.6502 100.594 14.5522 103.204 13.9416 104.719C13.0175 107.013 13.0218 107.491 12.9571 107.945C12.9404 108.063 13.1276 108.145 17.9892 108.434C22.8509 108.724 32.4444 109.21 37.4225 109.478C42.4006 109.746 42.4726 109.782 42.5457 109.837C42.6188 109.892 42.6908 109.964 42.8195 110.147" stroke="#131313" stroke-width="1.05483" stroke-linecap="round"/>
<path d="M13.3631 98.3458C13.1697 98.2006 12.5401 97.8132 11.8222 97.5199C11.1446 97.2431 9.98941 97.2514 8.64295 97.3116C7.30962 97.3712 5.92849 97.9051 4.54518 98.5114C3.26194 99.0739 2.44614 99.7058 1.94856 100.094C1.49453 100.448 1.08399 101.066 0.707154 101.734C0.471873 102.151 0.522203 102.744 0.558318 103.4C0.581906 103.828 1.07815 104.229 1.72129 104.69C2.25186 105.071 2.85399 105.203 4.01404 105.325C4.88182 105.416 6.32977 105.398 7.23045 105.374C8.44413 105.278 9.12776 105.06 9.71107 104.805C9.93324 104.694 10.0055 104.622 10.0799 104.547" stroke="#131313" stroke-width="1.05483" stroke-linecap="round"/>
<path d="M41.9274 114.215C41.7637 114.706 41.6249 115.177 41.092 116.667C40.6345 117.947 39.7134 120.258 39.2087 121.521C38.6221 122.921 38.4832 123.279 38.3732 123.665C38.3178 123.832 38.2633 123.941 38.207 124.053" stroke="#131313" stroke-width="1.05483" stroke-linecap="round"/>
<path d="M41.657 113.763C42.0411 113.763 42.7084 113.742 43.9959 113.646C44.815 113.585 45.9662 113.443 47.04 113.366C49.0712 113.221 50.1701 113.31 50.3744 113.471C50.6022 113.651 50.6667 114.17 50.667 114.74C50.6671 114.97 50.582 115.076 50.485 115.174C50.0571 115.605 49.2059 115.767 47.7797 116.046C46.8292 116.232 45.3933 116.368 44.3153 116.467C43.2374 116.565 42.5545 116.587 41.8186 116.64C39.3653 116.819 38.9637 117.018 38.866 117.061C38.7345 117.119 39.2844 117.105 41.3032 117.062C43.1724 117.022 46.7577 117.019 49.0847 117.082C51.4116 117.146 52.3719 117.295 52.9733 117.415C53.5747 117.535 53.7881 117.62 53.93 117.717C54.1691 117.881 54.2019 118.351 54.1806 118.89C54.1675 119.221 54.0086 119.41 53.8476 119.593C53.7567 119.696 53.6225 119.797 53.2151 119.948C52.8077 120.099 52.1249 120.291 49.9166 120.475C47.7083 120.659 43.9952 120.83 42.0078 120.897C40.0203 120.963 39.8709 120.921 39.7406 120.856C39.6103 120.791 39.5036 120.706 39.4487 120.609C39.3937 120.511 39.3937 120.405 39.3937 120.295" stroke="#131313" stroke-width="1.05483" stroke-linecap="round"/>
<path d="M31.6096 112.867C31.4656 112.903 31.3014 112.976 31.1381 113.112C30.9623 113.258 30.3611 114.277 29.3262 115.892C28.4967 117.186 28.301 118.227 28.2465 118.862C28.2214 119.155 28.228 119.389 28.282 119.564C28.336 119.738 28.4439 119.846 28.5626 119.893C28.7918 119.983 29.063 119.831 29.9829 119.254C30.7799 118.754 32.2347 117.813 33.3367 117.142C34.4387 116.471 35.1407 116.093 35.8533 115.646C37.2974 114.741 38.0991 114.032 38.3077 113.724C38.4157 113.565 38.4983 113.38 38.5537 113.251C38.6091 113.122 38.6271 113.05 38.5373 113.121C38.4476 113.192 38.2496 113.408 37.7606 114.23C37.2717 115.053 36.4977 116.475 35.82 117.828C35.1423 119.182 34.5844 120.424 34.2789 121.099C33.9735 121.775 33.9375 121.847 33.8458 121.976" stroke="#131313" stroke-width="1.05483" stroke-linecap="round"/>
<path d="M26.6733 112.375C26.6013 112.447 26.5293 112.519 25.9433 113.861C25.3572 115.203 24.2593 117.813 23.6487 119.328C22.7246 121.622 22.7288 122.1 22.6642 122.555C22.6475 122.672 22.8346 122.754 27.6963 123.044C32.5579 123.333 42.1514 123.819 47.1295 124.087C52.1076 124.356 52.1796 124.392 52.2527 124.446C52.3258 124.501 52.3978 124.573 52.5265 124.756" stroke="#131313" stroke-width="1.05483" stroke-linecap="round"/>
<path d="M23.0701 112.951C22.8767 112.806 22.2471 112.419 21.5292 112.125C20.8516 111.849 19.6964 111.857 18.35 111.917C17.0166 111.977 15.6355 112.511 14.2522 113.117C12.969 113.679 12.1532 114.311 11.6556 114.699C11.2016 115.054 10.791 115.671 10.4142 116.339C10.1789 116.756 10.2292 117.349 10.2653 118.005C10.2889 118.434 10.7852 118.834 11.4283 119.295C11.9589 119.676 12.561 119.809 13.7211 119.93C14.5889 120.021 16.0368 120.004 16.9375 119.98C18.1512 119.884 18.8348 119.665 19.4181 119.41C19.6403 119.299 19.7125 119.227 19.7869 119.153" stroke="#131313" stroke-width="1.05483" stroke-linecap="round"/>
<path d="M39.8877 24.332C39.5811 24.332 39.0279 24.3642 38.7435 24.3969C38.1452 24.4656 37.3561 24.8672 36.7785 25.1755C36.2645 25.4498 36.1844 25.7933 36.0053 26.1664C35.8396 26.5115 35.8588 26.962 35.8664 27.959C35.8716 28.654 36.1825 29.0247 36.4179 29.3671C36.8207 29.953 37.1894 30.1477 37.9105 30.5366C38.5486 30.8808 39.0727 30.8953 39.4802 30.9524C39.8182 30.9997 40.34 30.7832 40.9414 30.3775C41.4876 30.009 41.8675 29.5657 42.1855 29.1266C42.2588 28.9964 42.3393 28.8356 42.3807 28.7125C42.4221 28.5895 42.4221 28.509 42.4221 28.4262" stroke="#131313" stroke-width="1.05483" stroke-linecap="round"/>
<path d="M36.3296 28.7656C36.3135 28.7656 36.2974 28.7656 35.5332 29.031C34.769 29.2964 33.2571 29.8272 32.0118 30.2293C30.7665 30.6314 29.8336 30.8887 28.4523 31.3349C27.071 31.7812 25.2696 32.4084 23.4136 33.0547" stroke="#131313" stroke-width="1.05483" stroke-linecap="round"/>
<path d="M30.6272 28.0352C31.7853 30.0939 32.607 31.4762 32.9884 32.036C33.3561 32.6966 33.6793 33.2796 33.9084 33.6312C33.9571 33.6885 34.0214 33.7367 34.0877 33.8352" stroke="#131313" stroke-width="1.05483" stroke-linecap="round"/>
<path d="M43.0854 18.6953C42.7891 18.6953 42.0167 18.7693 41.0339 19.2911C40.6635 19.4877 40.4833 19.8028 40.3643 20.0334C40.2376 20.2788 40.2456 20.6248 40.2146 20.8367C40.1712 21.133 40.1709 21.5328 40.2514 21.8702C40.3404 22.2431 41.1992 22.6411 41.6954 22.8425C42.2242 23.0571 43.0323 22.8436 43.7058 22.5575C44.0688 22.3078 44.2676 22.1336 44.4238 21.9096C44.4552 21.847 44.4798 21.7854 44.5053 21.7219" stroke="#131313" stroke-width="1.05483" stroke-linecap="round"/>
<path d="M84.5834 161.31L88.9329 142.7L76.6359 139.826L71.9638 158.345L84.5834 161.31Z" stroke="#131313" stroke-width="0.632896" stroke-linecap="round"/>
<path d="M78.6432 147.93C78.9347 147.689 79.2623 147.362 79.3981 147.249C80.3698 146.436 81.3045 145.523 81.8899 144.381C81.5164 145.979 82.9259 147.771 83.4964 149.256C83.6184 149.573 83.781 149.958 83.8734 150.235C83.9441 150.448 83.988 150.567 84.0378 150.725C84.0895 150.889 84.1743 151.075 84.2337 151.275C84.3108 151.534 84.4111 151.92 84.4677 152.276C84.4954 152.451 84.4914 152.556 84.5029 152.67C84.5247 152.886 84.429 153.401 84.342 153.71C84.2802 153.93 84.2629 154.086 84.1177 154.315C84.036 154.444 83.9644 154.564 83.8073 154.715C83.7094 154.809 83.5867 154.848 83.486 154.939C83.3377 155.073 83.2292 155.196 83.098 155.199C83.0322 155.201 82.9083 155.191 82.7406 155.133C82.4385 155.028 81.9953 154.848 81.7464 154.704C81.6155 154.629 81.4454 154.493 81.351 154.377C81.2706 154.279 81.1989 154.146 81.1218 154.017C81.0449 153.889 80.9819 153.771 80.9255 153.634C80.8596 153.474 80.8667 152.917 80.8211 153.027C79.8222 155.425 82.1332 157.259 80.8435 157.094C80.78 157.086 80.4102 157.017 79.9218 156.875C79.4979 156.752 79.0668 156.606 78.8997 156.553C78.6932 156.488 78.4702 156.402 78.2854 156.337C78.1026 156.274 77.5525 156.171 77.3021 156.035C77.2683 156.017 77.2216 155.984 77.2688 155.947C78.2795 155.159 78.6885 154.613 79.1504 152.636C79.1756 152.529 78.863 152.749 78.7751 152.829C78.6476 152.945 78.4907 153.072 78.3309 153.211C78.1834 153.339 78.0583 153.511 77.9566 153.574C77.8032 153.67 77.6561 153.777 77.5058 153.793L77.495 153.794C77.313 153.813 77.0755 153.837 76.803 153.749C76.6137 153.687 76.4412 153.649 76.2961 153.571C75.9289 153.375 75.6045 153.224 75.4945 153.012C75.4208 152.87 75.3924 152.724 75.3785 152.596C75.3644 152.464 75.4769 151.882 75.5861 151.531C75.6563 151.306 75.7416 151.136 75.812 151.023C75.9453 150.808 76.1036 150.614 76.2062 150.471C76.3035 150.335 76.4372 150.165 76.5617 149.996C76.6834 149.831 76.8329 149.67 76.9115 149.575C77.0028 149.465 77.2826 149.208 77.4776 149.025C77.601 148.909 77.6877 148.834 77.8037 148.722C78.1155 148.422 78.4009 148.13 78.6432 147.93Z" stroke="#131313" stroke-width="0.632896" stroke-linecap="round"/>
<path d="M76.8092 143.445C76.8517 143.41 76.8995 143.362 76.9193 143.345C77.0609 143.227 77.1971 143.094 77.2824 142.927C77.228 143.16 77.4334 143.421 77.5166 143.638C77.5343 143.684 77.558 143.74 77.5715 143.781C77.5818 143.812 77.5882 143.829 77.5955 143.852C77.603 143.876 77.6154 143.903 77.624 143.932C77.6353 143.97 77.6499 144.026 77.6581 144.078C77.6621 144.103 77.6616 144.119 77.6632 144.135C77.6664 144.167 77.6525 144.242 77.6398 144.287C77.6308 144.319 77.6283 144.342 77.6071 144.375C77.5952 144.394 77.5848 144.411 77.5619 144.433C77.5476 144.447 77.5297 144.453 77.515 144.466C77.4934 144.486 77.4776 144.504 77.4585 144.504C77.4489 144.504 77.4308 144.503 77.4064 144.494C77.3624 144.479 77.2978 144.453 77.2615 144.432C77.2424 144.421 77.2176 144.401 77.2039 144.384C77.1922 144.37 77.1817 144.351 77.1705 144.332C77.1593 144.313 77.1501 144.296 77.1419 144.276C77.1323 144.253 77.1333 144.172 77.1267 144.187C76.9811 144.537 77.3179 144.804 77.1299 144.78C77.1207 144.779 77.0668 144.769 76.9956 144.748C76.9338 144.73 76.871 144.709 76.8466 144.701C76.8165 144.692 76.784 144.679 76.7571 144.67C76.7304 144.661 76.6503 144.646 76.6138 144.626C76.6088 144.623 76.602 144.618 76.6089 144.613C76.7562 144.498 76.8158 144.419 76.8832 144.131C76.8868 144.115 76.8413 144.147 76.8285 144.159C76.8099 144.175 76.787 144.194 76.7637 144.214C76.7422 144.233 76.724 144.258 76.7092 144.267C76.6868 144.281 76.6654 144.297 76.6435 144.299L76.6419 144.299C76.6154 144.302 76.5807 144.306 76.541 144.293C76.5134 144.284 76.4883 144.278 76.4672 144.267C76.4136 144.238 76.3664 144.216 76.3503 144.185C76.3396 144.165 76.3354 144.143 76.3334 144.125C76.3314 144.105 76.3478 144.021 76.3637 143.969C76.3739 143.937 76.3863 143.912 76.3966 143.895C76.416 143.864 76.4391 143.836 76.4541 143.815C76.4682 143.795 76.4877 143.77 76.5059 143.746C76.5236 143.722 76.5454 143.698 76.5569 143.684C76.5702 143.668 76.6109 143.631 76.6394 143.604C76.6573 143.587 76.67 143.576 76.6869 143.56C76.7323 143.516 76.7739 143.474 76.8092 143.445Z" stroke="#131313" stroke-width="0.210965" stroke-linecap="round"/>
<path d="M83.6407 158.082C83.6633 158.132 83.685 158.196 83.6954 158.22C83.7698 158.389 83.8329 158.568 83.8356 158.755C83.8901 158.523 84.19 158.38 84.3604 158.222C84.3969 158.189 84.443 158.149 84.473 158.119C84.496 158.095 84.5093 158.083 84.5261 158.065C84.5434 158.047 84.5665 158.028 84.5872 158.006C84.614 157.977 84.6521 157.933 84.6825 157.89C84.6973 157.87 84.7036 157.855 84.7125 157.841C84.7293 157.815 84.75 157.741 84.7587 157.695C84.7648 157.662 84.7726 157.641 84.7685 157.601C84.7661 157.579 84.7644 157.559 84.7537 157.529C84.747 157.511 84.7335 157.498 84.7262 157.479C84.7155 157.452 84.7092 157.429 84.6923 157.42C84.6839 157.416 84.667 157.409 84.6413 157.406C84.5951 157.4 84.5256 157.395 84.4838 157.397C84.4618 157.399 84.4308 157.406 84.411 157.415C84.3942 157.422 84.3762 157.435 84.3578 157.447C84.3394 157.459 84.3236 157.47 84.3074 157.484C84.2884 157.501 84.2534 157.574 84.2545 157.557C84.2789 157.179 84.6993 157.089 84.5202 157.027C84.5114 157.024 84.4586 157.009 84.3856 156.996C84.3223 156.985 84.2565 156.976 84.2313 156.972C84.2001 156.967 84.1654 156.964 84.1371 156.961C84.1091 156.957 84.0306 156.935 83.9891 156.937C83.9835 156.937 83.9753 156.938 83.9791 156.946C84.0602 157.114 84.0784 157.212 84.011 157.5C84.0074 157.516 83.9808 157.467 83.9744 157.451C83.9653 157.427 83.953 157.4 83.9411 157.372C83.9301 157.346 83.9249 157.315 83.9157 157.3C83.9018 157.278 83.8895 157.254 83.8709 157.243L83.8695 157.242C83.847 157.228 83.8175 157.209 83.7762 157.203C83.7475 157.199 83.7225 157.193 83.6985 157.193C83.6379 157.195 83.5857 157.194 83.5577 157.215C83.5389 157.228 83.5258 157.246 83.5156 157.262C83.5053 157.278 83.4824 157.361 83.474 157.414C83.4686 157.448 83.4687 157.476 83.4706 157.495C83.4742 157.532 83.4823 157.567 83.4865 157.593C83.4904 157.617 83.4969 157.648 83.5023 157.678C83.5075 157.707 83.5166 157.738 83.5208 157.755C83.5256 157.776 83.5456 157.827 83.5592 157.864C83.5679 157.887 83.5743 157.902 83.5822 157.924C83.6036 157.984 83.622 158.04 83.6407 158.082Z" stroke="#131313" stroke-width="0.210965" stroke-linecap="round"/>
<path d="M76.7759 142.549C76.8547 142.389 76.9643 142.165 77.0407 142.01C77.1134 141.862 77.2055 141.722 77.2587 141.625C77.3443 141.467 77.4404 141.32 77.5369 141.125C77.5871 141.024 77.6388 140.963 77.6648 140.9C77.6727 140.881 77.6885 140.86 77.701 140.854C77.7135 140.849 77.7234 140.861 77.7321 140.885C77.7734 141 77.7613 141.109 77.7684 141.277C77.7714 141.345 77.7845 141.446 77.7912 141.582C77.7979 141.718 77.7998 141.886 77.8036 141.994C77.8091 142.145 77.8167 142.295 77.8121 142.465C77.8099 142.544 77.8081 142.579 77.8064 142.613C77.8059 142.629 77.8061 142.642 77.802 142.673" stroke="#131313" stroke-width="0.210965" stroke-linecap="round"/>
<path d="M77.1305 141.891C77.1245 141.889 77.2925 141.929 77.5634 141.993C77.6632 142.018 77.6866 142.027 77.7106 142.034C77.7346 142.041 77.7586 142.047 77.7834 142.053" stroke="#131313" stroke-width="0.210965" stroke-linecap="round"/>
<path d="M83.226 158.706C83.2216 158.805 83.2197 158.881 83.2414 159.095C83.2606 159.285 83.305 159.638 83.3347 159.852C83.3902 160.255 83.419 160.374 83.4273 160.405C83.4315 160.421 83.4421 160.436 83.4566 160.434C83.5552 160.427 83.6004 160.284 83.7659 160.012C83.8928 159.803 84.13 159.408 84.259 159.199C84.3881 158.99 84.4004 158.978 84.4096 158.966C84.4188 158.954 84.4245 158.942 84.4304 158.931" stroke="#131313" stroke-width="0.210965" stroke-linecap="round"/>
<path d="M83.3064 159.453L83.9337 159.6" stroke="#131313" stroke-width="0.210965" stroke-linecap="round"/>
<path d="M84.0567 141.406C84.0663 141.366 84.0871 141.235 84.0844 141.164C84.0815 141.09 84.0485 140.968 84.0037 140.88C83.9761 140.826 83.9156 140.732 83.8166 140.643C83.7251 140.561 83.6526 140.554 83.5869 140.53C83.5374 140.512 83.4925 140.504 83.4364 140.487C83.3224 140.453 83.211 140.438 83.1506 140.434C83.0235 140.424 82.8638 140.497 82.7903 140.533C82.7453 140.555 82.6782 140.61 82.6235 140.657C82.5879 140.687 82.5391 140.74 82.4827 140.81C82.4356 140.869 82.3757 140.984 82.3445 141.065C82.2999 141.181 82.2875 141.236 82.2329 141.48C82.1959 141.645 82.2511 141.752 82.2974 141.88C82.3257 141.958 82.3537 142.037 82.3933 142.099C82.4347 142.164 82.5119 142.207 82.5903 142.258C82.7403 142.355 82.8074 142.358 82.9798 142.4C83.0578 142.419 83.1303 142.393 83.1993 142.367C83.2513 142.341 83.279 142.326 83.3016 142.317C83.3135 142.312 83.3264 142.308 83.3482 142.299" stroke="#131313" stroke-width="0.332763" stroke-linecap="round"/>
<path d="M83.9357 139.315C83.9025 139.327 83.8167 139.375 83.7506 139.417C83.6728 139.467 83.6413 139.558 83.5983 139.626C83.4962 139.787 83.4542 139.864 83.4343 139.927C83.3818 140.094 83.3438 140.364 83.3564 140.478C83.3643 140.549 83.3988 140.608 83.4373 140.69C83.5066 140.838 83.6756 140.948 83.7372 140.992C83.7838 141.025 83.8401 141.045 83.9345 141.084C84.0159 141.117 84.129 141.129 84.2296 141.1C84.3142 141.076 84.4055 141.038 84.4859 140.999C84.589 140.949 84.6693 140.781 84.7412 140.67C84.8165 140.554 84.8377 140.439 84.8609 140.362C84.8965 140.217 84.901 140.054 84.8696 139.934C84.8551 139.886 84.8436 139.863 84.8318 139.84" stroke="#131313" stroke-width="0.332763" stroke-linecap="round"/>
<path d="M84.7216 138.305C84.5922 138.38 84.5195 138.43 84.4487 138.507C84.3639 138.599 84.2719 138.806 84.2242 138.944C84.1835 139.061 84.1672 139.18 84.2285 139.403C84.2734 139.566 84.3603 139.602 84.4521 139.695C84.5442 139.788 84.7522 139.854 85.0053 139.894C85.2383 139.932 85.4411 139.815 85.577 139.741C85.7161 139.666 85.8574 139.444 85.9296 139.333C85.9907 139.196 86.0051 139.148 86.0227 139.095C86.0333 139.057 86.0475 138.996 86.0621 138.934" stroke="#131313" stroke-width="0.332763" stroke-linecap="round"/>
<path d="M85.1561 137.138C85.0397 137.247 84.9856 137.312 84.8937 137.469C84.8597 137.527 84.8574 137.568 84.8396 137.63C84.7545 137.928 84.8089 138.122 84.8222 138.205C84.8341 138.279 84.8866 138.332 84.9271 138.374C85.0184 138.469 85.1652 138.598 85.2832 138.676C85.3313 138.708 85.3714 138.731 85.4126 138.749C85.4545 138.767 85.6179 138.825 85.8539 138.891C86.0566 138.948 86.1877 138.88 86.2508 138.84C86.3309 138.788 86.4521 138.679 86.6234 138.398C86.6632 138.333 86.6796 138.291 86.7088 138.194C86.738 138.097 86.7766 137.946 86.7967 137.826C86.8473 137.523 86.7839 137.402 86.7286 137.298C86.6716 137.19 86.5931 137.162 86.5144 137.11C86.4877 137.092 86.446 137.082 86.3445 137.047C86.1486 136.979 85.9717 136.958 85.8866 136.955C85.6831 136.946 85.4574 137.004 85.3966 137.027C85.3322 137.052 85.2624 137.101 85.1911 137.149C85.1697 137.164 85.1465 137.181 85.0975 137.222" stroke="#131313" stroke-width="0.280783" stroke-linecap="round"/>
</svg>
