<svg width="201" height="184" viewBox="0 0 201 184" fill="none" xmlns="http://www.w3.org/2000/svg">
<path d="M70.6726 89.0703C71.4885 88.9785 75.3368 88.65 80.9476 88.2557C83.9562 88.0443 85.7968 88.2138 88.6481 88.1817C90.5248 88.207 93.2739 88.3165 95.5089 88.307C97.7439 88.2974 99.3814 88.1655 101.395 88.1515" stroke="#131313" stroke-width="1.12921" stroke-linecap="round"/>
<path d="M70.5161 89.3242C70.5335 89.4785 70.7591 91.1355 71.1218 93.6585C71.5015 96.2997 72.9661 99.1829 73.3561 100.013C73.7399 100.829 74.839 102.169 75.4624 103.306C76.2359 104.716 77.1771 105.775 79.2405 107.298C80.8155 108.461 82.3472 108.981 83.8301 109.47C84.2392 109.605 84.5713 109.723 85.8556 109.658C89.0771 109.494 91.8277 108.672 92.9022 108.236C94.0616 107.766 95.1528 106.332 96.8482 104.539C97.4684 103.883 97.8532 103.259 98.4369 101.997C100.509 97.5191 100.788 96.3802 100.933 95.5523C101.137 94.3905 101.354 92.2982 101.46 90.9355C101.422 90.0696 101.399 89.058 101.383 88.3908" stroke="#131313" stroke-width="1.12921" stroke-linecap="round"/>
<path d="M112.483 87.9961C113.107 87.9713 113.732 87.9464 117.407 88.0789C121.082 88.2113 127.789 88.5018 131.495 88.6913C135.201 88.8809 135.703 88.9608 136.723 89.0071C141.104 89.0443 141.824 89.0086 142.191 89.0589C142.376 89.0842 142.558 89.1092 142.745 89.1349" stroke="#131313" stroke-width="1.12921" stroke-linecap="round"/>
<path d="M112.18 87.7578C112.274 88.5881 112.684 90.7393 112.986 92.2759C113.37 94.2308 113.827 95.6075 114.324 96.8058C115.075 98.6145 116.109 101.155 116.977 102.455C117.505 103.245 118.546 104.348 120.577 106.155C121.74 107.188 123.58 108.314 127.187 109.624C128.695 110.172 130.549 109.823 132.329 109.602C134.787 109.296 137.343 107.453 138.292 106.816C139.867 105.758 140.509 104.221 141.193 102.745C141.63 101.802 141.878 100.889 142.477 99.4255C142.893 98.4082 143.026 96.7459 143.044 95.5695C142.978 94.0382 142.775 91.8536 142.741 90.9929C142.704 90.4681 142.625 89.7645 142.543 89.0395" stroke="#131313" stroke-width="1.12921" stroke-linecap="round"/>
<path d="M75.7736 89.0501C75.7719 89.0351 75.7702 89.02 75.9607 90.3073C76.1513 91.5945 76.5342 94.1845 76.7448 95.5705C76.9555 96.9564 76.9824 97.06 77.0816 97.8038C77.1807 98.5476 77.3514 99.9287 77.5104 100.663C77.6693 101.396 77.8113 101.441 77.9914 101.468C78.7557 101.579 79.7178 101.611 80.4853 101.702C81.3477 101.804 82.1064 101.911 82.8628 102.065C83.0186 102.096 83.1273 102.089 83.2082 102.05C83.2891 102.01 83.3408 101.929 83.364 101.856C83.4048 101.729 83.3818 101.6 83.3473 100.751C83.3152 99.9628 83.2105 98.4519 83.1597 97.2473C83.109 96.0428 83.1044 95.191 83.1095 94.6829C83.116 94.0358 83.132 93.2402 83.122 92.1965C83.1134 91.2978 83.1229 90.5611 83.0742 89.9219C83.0694 89.5368 83.0584 89.1691 83.0157 88.5831C83.0085 88.4515 83.0168 88.3897 83.0202 88.2805" stroke="#131313" stroke-width="1.12921" stroke-linecap="round"/>
<path d="M118.578 88.0741C118.533 89.0827 118.617 91.2362 118.741 92.7609C118.855 94.1606 119.182 96.8215 119.366 98.3156C119.627 100.439 119.895 100.911 120.079 101.414C120.129 101.551 120.175 101.703 120.298 101.817C121.051 102.514 122.805 102.612 123.559 102.797C124.068 102.922 124.462 102.934 124.679 102.894C125.192 102.8 124.705 100.296 124.619 98.8333C124.538 97.4485 124.364 95.5786 124.254 93.7597C124.21 92.5159 124.064 90.9424 124.044 90.3469C124.008 89.8786 123.917 89.0735 123.824 88.2439" stroke="#131313" stroke-width="1.12921" stroke-linecap="round"/>
<path d="M79.9933 85.4121C79.9952 85.4293 79.9972 85.4465 79.9954 85.508C79.9936 85.5694 79.988 85.6746 80.02 86.0385C80.052 86.4024 80.1217 87.0218 80.1935 87.66" stroke="#131313" stroke-width="1.12921" stroke-linecap="round"/>
<path d="M68.1267 91.9297C68.3264 91.9072 68.7776 91.9012 69.4071 91.8758C70.069 91.9146 70.409 91.9211 70.6295 91.9753C70.7345 91.9978 70.8254 92.0099 70.9191 92.0225" stroke="#131313" stroke-width="1.12921" stroke-linecap="round"/>
<path d="M101.587 90.0422C101.53 90.0485 101.813 90.0168 102.357 89.9699C102.734 89.9704 102.97 89.9877 103.186 89.9851C103.315 89.9779 103.485 89.9588 103.66 89.9391" stroke="#131313" stroke-width="1.12921" stroke-linecap="round"/>
<path d="M109.887 90.4102C110.097 90.3864 110.621 90.3602 111.009 90.3416C111.315 90.3484 111.66 90.3422 111.919 90.3708C112.029 90.3834 112.095 90.3923 112.316 90.4338" stroke="#131313" stroke-width="1.12921" stroke-linecap="round"/>
<path d="M121.048 85.1719C121.122 85.8365 121.261 86.7801 121.333 87.1194C121.449 87.4205 121.487 87.6143 121.527 87.7497C121.544 87.8224 121.553 87.9031 121.562 87.9862" stroke="#131313" stroke-width="1.12921" stroke-linecap="round"/>
<path d="M143.18 91.0391L146.261 90.6923" stroke="#131313" stroke-width="1.12921" stroke-linecap="round"/>
<path d="M100.25 84.8663C100.025 84.8119 99.5963 84.7211 98.4653 84.5405C97.56 84.4332 95.9822 84.2944 95.1108 84.2295C94.2393 84.1646 94.1222 84.1778 94.0015 84.1914" stroke="#131313" stroke-width="1.12921" stroke-linecap="round"/>
<path d="M112.194 84.382C112.419 84.3276 112.848 84.2368 113.979 84.0561C114.884 83.9488 116.462 83.8101 117.333 83.7452C118.205 83.6803 118.322 83.6934 118.442 83.707" stroke="#131313" stroke-width="1.12921" stroke-linecap="round"/>
<path d="M101.315 106.535C101.606 106.597 101.943 106.607 103.412 106.584C104.693 106.564 107.064 106.599 108.897 106.575C110.731 106.551 111.955 106.484 112.801 106.473C114.079 106.456 114.643 106.565 114.775 106.669C115.379 107.145 113.838 108.089 112.846 109.466C112.193 110.372 111.202 111.85 110.594 112.963C110.029 113.998 109.412 114.473 109.056 114.719C108.886 114.836 108.613 114.4 108.041 113.751C106.964 112.529 105.815 111.629 105.252 111.191C104.393 110.522 103.014 109.032 102.257 108.297C101.883 107.935 101.606 107.627 101.478 107.451C101.409 107.362 101.328 107.277 101.166 107.126" stroke="#131313" stroke-width="1.12921" stroke-linecap="round"/>
<path d="M108.822 114.936C108.871 115.096 108.868 115.618 108.835 115.979C108.768 116.717 108.586 117.197 108.488 117.587C108.458 117.707 108.393 117.899 108.159 118.265C107.924 118.631 107.518 119.163 107.11 119.553C106.701 119.943 106.303 120.174 105.694 120.349C105.086 120.524 104.28 120.636 103.65 120.665C103.019 120.695 102.589 120.64 102.185 120.56C101.781 120.479 101.417 120.375 101.066 120.247C100.387 119.969 99.8709 119.7 99.5457 119.502C99.399 119.418 99.2899 119.368 99.1774 119.317" stroke="#131313" stroke-width="1.12921" stroke-linecap="round"/>
<path d="M108.951 114.859C108.959 114.927 109.058 115.806 109.236 117.167C109.379 118.255 110.011 118.918 110.341 119.391C111.098 120.48 112.015 120.768 112.649 120.887C112.963 120.945 113.505 121.03 114.309 121.036C116.166 121.05 117.309 120.813 117.491 120.672C118.068 120.347 118.384 120.242 118.59 120.15C118.681 120.105 118.744 120.064 118.81 120.021" stroke="#131313" stroke-width="1.12921" stroke-linecap="round"/>
<path d="M74.9927 110.627C74.2324 110.454 73.2203 110.291 72.2245 110.183C71.85 110.143 71.7379 110.163 71.1689 110.203C69.577 110.315 68.4623 110.418 68.3325 110.489C67.8006 110.782 66.897 111.098 66.6041 111.682C66.4324 112.025 66.5684 112.532 66.6739 113.04C66.7705 113.504 67.0943 113.744 67.386 113.889C68.1718 114.281 68.6916 114.214 69.5601 114.368C70.0159 114.449 70.7733 114.611 71.5326 114.674C73.0239 114.798 73.9507 114.681 74.4039 114.678C75.6353 114.672 76.5278 114.214 77.2716 113.836C77.5678 113.686 77.8448 113.431 78.0337 113.157C78.212 112.9 78.1071 112.426 78.0094 111.697C77.9295 111.101 77.1804 110.967 76.6877 110.851C76.3288 110.754 75.5537 110.646 74.5561 110.587C74.1277 110.577 73.8573 110.608 73.5787 110.639" stroke="#131313" stroke-width="1.12921" stroke-linecap="round"/>
<path d="M143.002 109.316C141.426 109.493 138.461 109.898 137.753 110.138C137.593 110.193 137.467 110.295 137.372 110.413C136.954 110.932 137.168 111.792 137.376 112.375C137.872 113.772 139.654 113.909 141.091 114.3C142.522 114.691 143.565 114.363 144.701 114.289C146.014 114.204 147.615 113.838 148.345 113.149C148.766 112.752 148.642 111.796 148.492 110.938C148.348 110.111 146.75 109.827 145.489 109.627C145.144 109.577 144.674 109.488 144.16 109.384C143.646 109.281 143.102 109.165 142.225 109.082" stroke="#131313" stroke-width="1.12921" stroke-linecap="round"/>
<path d="M77.6606 80.3012C77.5597 80.3684 77.4589 80.4356 80.6849 80.3862C83.911 80.3368 90.4671 80.1687 93.8276 79.4937C97.1882 78.8188 97.1546 77.642 97.1204 76.9182C97.0526 75.4791 96.9844 74.8352 96.8662 74.5637C96.8129 74.4412 96.6472 74.4267 94.8801 74.443C93.1129 74.4593 89.7172 74.5265 86.6903 74.6956C83.6634 74.8648 81.1082 75.1337 79.523 75.2723C77.9377 75.4108 77.3998 75.4108 77.1731 75.4781C76.5552 75.6614 77.4894 77.9457 77.5755 79.1265C77.5923 79.3475 77.6259 79.6165 77.6433 79.9064C77.6606 80.1962 77.6606 80.4988 77.6606 80.8106" stroke="#131313" stroke-width="1.12921" stroke-linecap="round"/>
<path d="M135.998 79.0394C136.098 79.1067 136.199 79.1739 132.973 79.1245C129.747 79.0751 123.191 78.907 119.831 78.232C116.47 77.5571 116.504 76.3803 116.538 75.6565C116.606 74.2174 116.674 73.5735 116.792 73.302C116.845 73.1795 117.011 73.165 118.778 73.1813C120.545 73.1976 123.941 73.2648 126.968 73.4339C129.995 73.603 132.55 73.872 134.135 74.0106C135.721 74.1491 136.258 74.1491 136.485 74.2164C137.103 74.3996 136.169 76.6839 136.083 77.8647C136.066 78.0858 136.032 78.3548 136.015 78.6446C135.998 78.9345 135.998 79.2371 135.998 79.5488" stroke="#131313" stroke-width="1.12921" stroke-linecap="round"/>
<path d="M109.246 63.0062C108.785 63.4657 107.866 64.7334 107.225 65.7202C107.091 65.9264 106.766 66.0098 106.447 66.0115C104.844 66.0202 103.7 64.1091 102.977 63.2403C102.805 63.0343 102.545 62.9507 102.284 62.9775C101.08 63.1015 100.693 64.7924 99.7123 65.7488C99.2197 66.2292 98.612 66.4728 98.1507 66.733C97.2911 67.2177 96.2431 65.9578 95.3187 64.9467C94.7783 64.3556 94.0458 63.934 93.5264 63.6721C92.2768 63.0421 91.9665 66.3532 90.2072 67.137C87.7253 68.2428 84.9811 67.744 82.1709 67.7761C81.8862 67.7793 82.3001 67.5185 82.5637 67.5732C82.8273 67.6278 82.9417 67.9139 83.0007 68.3475C83.1365 69.3459 82.7735 70.4008 82.1969 71.1803C81.2322 72.4844 79.1924 72.4853 77.4876 72.5729C76.8737 72.6044 76.0708 72.7177 75.2037 72.8894C73.7849 73.1703 75.4291 76.8659 74.9991 78.3495C74.2263 81.0152 69.3143 80.0013 68.1186 80.6335C66.628 81.4215 68.6658 86.3312 67.6877 88.5536C67.458 89.0754 66.7026 88.8458 66.4416 88.9889C65.5471 89.4792 67.6218 90.691 68.1151 91.761C68.3294 92.2257 68.3189 92.8882 68.2331 93.6096C68.101 94.7199 66.3038 95.5433 65.2294 96.5023C65.0149 96.6938 64.854 96.9341 64.9944 97.3096C65.7022 99.2012 67.0425 99.8233 67.2498 102.823C67.416 105.228 65.3153 106.245 65.1401 106.532C64.1839 108.099 67.8225 109.966 68.3132 110.283M66.8678 113.716C66.4119 114.003 64.795 115.719 65.2511 116.039C67.6407 117.715 68.7213 116.997 69.1826 117.17C70.8738 117.802 69.7652 121.562 69.4774 122.024C69.3467 122.233 69.075 122.257 68.8999 122.401C68.7247 122.545 68.6103 122.774 68.6658 122.949C68.7884 123.336 69.4149 123.414 69.7904 123.615C69.9714 123.712 69.9942 123.988 69.8806 124.363C69.767 124.739 69.4808 125.254 69.0473 125.605C68.6137 125.956 68.0414 126.128 67.4518 126.305" stroke="#131313" stroke-width="1.12921" stroke-linecap="round"/>
<path d="M109.03 63.0071C109.548 63.5828 110.469 65.1922 111.598 66.8752C111.816 67.2011 112.089 67.3391 112.378 67.3131C114.165 67.1526 115.554 63.8291 116.311 62.7478C117.152 61.5484 117.062 66.2968 117.524 67.0772C117.703 67.3809 117.985 67.3426 118.246 67.3139C120.851 67.0283 124.23 64.5123 124.749 64.2514C124.96 64.1456 125.154 64.391 125.271 64.6797C125.83 66.0575 125.909 67.0512 126.138 67.2836C127.289 68.4472 128.682 64.9736 129.143 65.0005C129.853 65.0419 130.355 66.6992 131.364 67.9409C132.12 68.8702 133.532 68.9606 134.802 68.9328C135.673 68.9138 136.196 67.9825 136.515 67.6903C137.748 66.561 135.969 70.2283 135.996 72.4212C136.001 72.898 136.253 73.062 136.57 73.1504C138.213 73.6081 139.491 72.7793 139.982 72.4888C140.924 71.931 140.592 74.7372 141.426 76.6708C141.754 77.4317 142.267 77.8033 142.584 78.2073C142.934 78.6542 143.653 78.5577 143.972 78.5568C144.979 78.5541 142.905 80.6335 142.99 84.6681C143.009 85.6161 143.419 86.0061 143.795 86.2697C145.386 87.3841 147.636 86.5367 148.395 86.1864C149.237 85.7975 148.049 88.5501 148.221 89.8204C148.441 91.4481 150.012 91.389 150.33 91.6769C151.124 92.3951 148.746 93.8134 147.706 96.1789C147.183 97.3683 147.355 98.3813 147.47 98.9588C147.663 99.9351 149.201 100.116 150.299 100.953C151.711 102.029 151.632 103.352 151.748 104.507C151.825 105.271 152.209 106.012 152.584 106.647C153.281 107.828 155.093 108.152 156.484 108.787C156.793 108.929 157.005 109.133 156.808 109.422C155.378 111.52 152.679 111.676 152.097 112.63C151.957 112.859 152.038 113.178 152.324 113.411C153.871 114.672 155.558 115.085 156.486 115.926C157.367 116.725 157.24 118.208 157.011 118.93C156.502 120.537 154.702 120.236 153.66 120.609C153.402 120.702 153.255 120.926 153.167 121.243C153.307 122.719 153.886 123.642 154.319 125.863C154.464 126.361 154.636 126.59 155.333 126.826" stroke="#131313" stroke-width="1.12921" stroke-linecap="round"/>
<path d="M152.32 105.945C152.32 109.549 152.228 114.752 152.019 115.773C151.801 116.844 150.704 118.55 149.819 119.83C148.969 121.06 147.641 121.988 146.298 122.89C144.961 123.788 143.515 124.492 142.702 124.956C141.88 125.425 140.964 125.421 134.726 126.737C132.254 127.258 130.49 127.413 129.28 127.623C127.954 127.853 125.989 128.108 123.745 128.226C122.883 128.271 122.278 128.388 118.647 128.434C115.293 128.478 108.866 128.389 105.257 128.32C100.202 128.222 99.0989 127.972 96.7141 127.902C95.7141 127.872 94.1888 127.786 92.4049 127.763C89.7798 127.729 85.7957 127.185 84.7219 127.067C83.1579 126.896 80.5518 126.767 78.8833 126.142C77.8204 125.744 76.1091 124.826 74.8461 124.286C73.9032 123.883 72.8069 123.198 72.0871 122.757C71.4146 122.177 70.8109 121.667 70.5563 121.366C70.4395 121.204 70.3477 121.02 70.114 120.413" stroke="#131313" stroke-width="1.12921" stroke-linecap="round"/>
<path d="M108.739 58.6263C108.739 58.3548 108.671 57.7398 108.466 56.6127C108.33 55.9607 108.126 55.1462 107.987 54.5569C107.848 53.9676 107.78 53.6282 107.505 52.8672" stroke="#131313" stroke-width="1.12921" stroke-linecap="round"/>
<path d="M107.046 50.5177C107.046 50.3985 107.046 49.9797 106.88 49.3488C106.718 48.7301 105.778 48.5933 104.814 48.4128C103.027 48.0781 101.5 48.4706 100.833 48.8C99.0301 49.6905 98.4889 51.4781 98.1228 51.8987C97.3204 52.8206 94.3327 51.3383 91.9859 51.063M59.6227 66.1267C57.9163 67.1748 55.2361 70.1837 54.7286 71.6639C54.5025 72.3235 54.7607 72.9601 54.6955 73.4998C54.5003 75.1162 51.9627 76.6788 51.2857 78.2232C50.6834 79.5972 51.6838 80.4824 51.6538 81.0213C51.5003 83.769 44.4134 92.2937 47.0389 97.7221C56.2146 116.693 44.6225 101.652 48.1396 116.643C48.4736 118.066 49.2107 119.35 49.312 120.406C49.443 121.77 49.8124 122.964 50.2116 123.325C50.4229 123.517 50.8755 123.448 51.1463 123.299C51.4171 123.15 51.5495 122.853 51.4191 122.729C51.2887 122.605 50.8916 122.665 50.4884 123.083C48.5847 125.056 49.0783 127.347 49.5106 128.8C49.8799 130.041 51.0801 131.684 51.8162 133.46C52.3052 134.64 53.2203 135.48 53.8541 135.991C54.781 136.738 56.6883 136.745 58.1665 136.598C58.5714 136.558 58.8987 135.973 59.1363 135.639C59.374 135.305 59.4402 135.067 59.4743 135.629C59.5084 136.191 59.5084 137.561 59.707 138.357C59.9056 139.152 60.3027 139.33 60.9376 139.423C62.4173 139.637 63.7828 139.276 64.5841 138.826C65.8558 138.111 65.9269 136.39 65.8939 135.937C65.7939 134.569 69.6457 140.637 72.4728 142.011C73.6016 142.56 73.4125 139.459 73.9461 138.857C74.2899 138.469 75.9439 141.056 77.8554 143.331C78.1451 143.676 78.4912 143.724 78.8593 143.726C79.7008 143.73 80.3666 143.307 80.833 142.917C82.3789 141.625 83.2409 138.327 83.3773 136.479C83.4338 135.713 84.5086 138.186 85.7461 139.061C86.2295 139.402 86.8513 139.334 87.3849 139.155C87.9184 138.619 88.3898 137.417 88.823 134.694C89.0577 132.805 89.3087 130.544 89.5815 127.717" stroke="#131313" stroke-width="1.12921" stroke-linecap="round"/>
<path d="M107.142 50.5399C107.32 50.0946 107.59 49.598 107.949 49.1709C108.487 48.5301 109.7 48.4725 111.655 48.6257C113.753 48.7902 113.483 50.6735 113.775 50.8092C115.334 51.5349 119.001 49.0555 120.342 49.5029C121.396 49.8546 121.803 51.3011 122.523 51.8206C123.654 52.6369 125.396 51.7545 126.79 51.9549C128.426 52.1902 127.924 54.0014 128.503 54.3388C131.269 55.9504 132.777 54.7666 133.791 55.3954C134.546 55.8638 134.446 56.834 134.514 57.4628C134.543 57.7348 134.537 57.9136 134.96 57.894C138.465 57.7319 141.505 57.6895 142.383 58.1403C142.716 58.3111 142.633 58.9932 142.567 59.6443C142.51 60.1964 142.095 60.5248 142.048 60.7495C141.693 62.4667 146.184 61.1092 146.701 61.6463C148.159 63.1617 146.909 65.692 146.705 66.7082C146.665 66.9093 146.682 67.0901 146.793 67.2041C147.052 67.4687 148.381 67.4086 150.022 67.4754C150.642 67.5006 150.817 67.6758 150.909 68.3013C151.161 70.0241 151.045 71.3653 151.157 71.7465C151.217 71.9519 151.313 72.1723 151.604 72.287C152.967 72.8246 153.786 72.2668 154.214 72.3336C155.152 72.4798 152.579 74.6419 152.216 76.1978C152.106 76.6673 152.08 77.2558 152.169 77.9299C152.207 78.2148 152.436 78.3368 152.617 78.4501C152.966 78.669 153.917 78.7443 155.086 78.8556C156.297 78.971 156.396 81.2139 157.405 81.7557C157.829 81.9834 158.455 82.3798 158.821 82.6976C159.354 83.161 159.367 84.4027 159.545 85.9088C159.744 87.5875 162.019 87.3338 162.356 87.8939C163.093 89.1175 162.606 90.5659 162.424 91.8526C162.219 93.3012 165.032 92.9126 165.571 94.2284C166.03 95.3509 166.109 97.6372 166.247 99.3409C166.58 103.47 166.115 104.023 166.204 104.404C166.498 105.664 168.179 107.03 168.633 109.503C169.072 111.899 167.739 113.286 167.105 114.098C166.185 115.275 168.004 116.481 168.116 117.65C168.198 118.51 167.289 119.404 166.813 120.552C166.352 121.663 166.743 123.091 167.394 124.42C167.834 125.32 167.869 128.646 167.623 131.368C167.495 132.783 167.016 133.574 167.013 134.185C167.011 134.714 167.414 136.122 162.114 137.379C161.418 137.544 160.765 138.162 160.134 139.265C159.416 140.52 156.684 142.16 155.075 143.046C154.849 143.171 154.603 143.115 154.4 142.937C153.905 142.505 153.656 141.679 153.342 141.228C153.247 141.092 153.116 141.312 153.048 141.493C152.915 141.845 152.89 142.214 152.801 142.595C152.495 143.903 148.901 143.431 147.293 143.139C147.039 143.092 146.865 143.026 146.751 143.092C146.5 143.238 146.235 143.653 145.563 143.878C144.829 144.123 144.121 143.971 143.627 143.658C143.029 143.279 142.994 142.443 142.926 141.905C142.859 141.37 143.037 140.868 143.395 140.486C143.8 140.055 144.476 140.146 144.835 140.235C144.994 140.275 145.017 140.502 145.04 140.728C145.063 140.953 145.063 141.22 144.84 141.492C144.295 142.155 142.733 142.528 140.648 142.865C138.366 143.234 136.7 142.891 136.003 142.667C134.927 142.321 134.941 140.335 134.852 138.557C134.778 137.106 135.03 136.411 135.032 136.547C135.064 139.792 132.373 128.672 135.032 126.811" stroke="#131313" stroke-width="1.12921" stroke-linecap="round"/>
<path d="M91.8925 50.9316C90.9323 50.5499 89.2028 48.6294 87.8478 46.696C86.826 45.238 84.581 42.8508 80.195 39.0866C76.7266 36.11 72.5205 33.3933 71.0267 32.569C69.1853 31.553 67.7021 30.8829 66.0145 31.1171C63.5343 31.4614 62.7853 34.2436 62.0565 35.8864C61.3477 37.4841 60.2749 39.5421 59.7905 41.3816C59.3614 43.0107 59.0197 44.9448 58.8736 47.5478C58.7539 49.681 58.4412 52.3662 58.3906 61.0688C58.5338 63.264 58.7276 64.0391 59.0154 64.8085C59.2077 65.196 59.494 65.5778 59.789 66.2603" stroke="#131313" stroke-width="1.12921" stroke-linecap="round"/>
<path d="M119.715 49.7813C119.944 49.0946 121.435 47.0239 124.031 43.9934C126.067 41.6169 127.689 40.708 129.067 39.6744C131.876 37.569 134.733 35.3944 136.696 34.268C138.581 33.1864 140.054 32.5607 141.244 32.1219C142.258 31.7484 143.352 33.185 145.316 35.0623C146.466 36.1618 147.226 37.6904 148.498 40.1478C149.394 41.8786 150.233 44.1694 150.669 45.7857C151.158 47.6031 151.968 49.8229 152.317 52.6627C152.482 54.0001 152.606 55.4938 152.866 57.8653C152.987 58.9738 153.185 61.9537 153.156 65.8825C153.07 67.7511 152.954 68.5645 152.839 69.2859C152.781 69.6067 152.549 71.6651 152.317 72.2478" stroke="#131313" stroke-width="1.12921" stroke-linecap="round"/>
<path d="M67.7556 37.2656C67.8878 37.4515 68.8437 38.01 70.3216 38.9274C72.1506 40.0628 72.9894 41.191 73.2422 41.3905C74.221 42.163 75.3114 43.1661 75.7001 43.5142C76.1569 43.9235 76.6736 44.5811 77.2341 45.2613C78.3832 46.656 78.9716 46.8791 79.4784 47.3991C80.1219 48.0594 80.4924 48.7989 81.0945 49.4828C81.4223 49.8551 81.6157 50.3501 81.9102 50.8849C82.1673 51.352 82.3897 51.9254 82.6581 52.5407C82.8549 52.9919 83.0051 53.4221 83.0728 53.9165C83.1125 54.1432 83.1661 54.358 83.2194 54.5711C83.2463 54.6785 83.2727 54.7842 83.3 54.8932" stroke="#131313" stroke-width="1.12921" stroke-linecap="round"/>
<path d="M74.8259 43.4286C74.4712 43.3247 73.1755 42.9474 71.4977 42.6009C70.5497 42.4052 68.7724 42.257 67.7583 42.1499C66.7441 42.0428 66.5363 42.0428 66.4292 42.0844C66.3221 42.126 66.3221 42.2091 66.4468 42.3767C66.5715 42.5442 66.821 42.7937 67.9888 43.473C69.1567 44.1524 71.2354 45.2541 72.4829 45.9256C73.7305 46.5971 74.0838 46.8049 74.2971 46.9432C74.5103 47.0815 74.5726 47.1438 74.293 47.3526C73.4404 47.9892 72.5601 48.4244 72.1519 48.6969C71.716 48.9878 71.1957 49.1803 70.5478 49.5567C69.5473 50.138 68.7592 50.5245 68.3205 50.7964C67.0883 51.5597 66.6181 51.7207 66.1243 52.0048C66.0196 52.0651 65.987 52.1617 66.0487 52.2357C66.1104 52.3097 66.2767 52.3721 67.8071 52.4042C69.3375 52.4363 72.2269 52.4363 74.4325 52.3947C76.6381 52.3532 78.0724 52.27 78.8113 52.3727C79.5502 52.4754 79.5502 52.7664 79.519 52.9891C79.4663 53.3653 78.4252 56.7386 78.2995 57.2523M79.8578 57.2523C80.8394 56.4654 81.8582 55.1878 82.1945 54.9777C82.279 54.9352 82.3621 54.9144 82.4569 54.8829C82.5517 54.8514 82.6556 54.8098 82.9517 54.767" stroke="#131313" stroke-width="1.12921" stroke-linecap="round"/>
<path d="M150.644 44.332C150.84 44.3647 151.709 44.7411 152.955 45.343C153.954 45.8257 154.356 46.2623 154.581 46.5099C154.628 46.5626 154.606 46.6417 154.59 46.7162C154.443 47.3867 153.386 47.9956 152.998 48.3823C152.252 49.1281 152.016 49.6773 151.874 50.067C151.766 50.3639 152.409 50.4389 152.723 50.5875C153.084 50.7587 153.431 51.1312 153.968 51.5603C154.55 52.0252 155.033 52.6644 155.455 53.17C155.577 53.3163 155.596 53.5087 155.572 53.7065C155.527 54.0654 154.448 55.0859 153.831 55.9756C153.594 56.3175 153.418 56.5626 153.253 56.8184C153.148 56.9813 153.022 57.1242 153.005 57.305C152.947 57.9116 153.826 58.5058 154.242 59.0055C154.639 59.4835 155.001 60.2262 155.38 61.4367C155.485 61.7688 155.464 61.944 155.489 62.1087C155.448 62.4393 154.662 63.3242 153.972 63.9328C153.864 64.0076 153.766 64.0729 153.566 64.2393" stroke="#131313" stroke-width="1.12921" stroke-linecap="round"/>
<path d="M84.9141 53.1523C84.7296 53.2024 84.4267 53.4709 84.0727 53.8587C83.7224 54.2426 83.4326 54.8512 83.1957 55.3334C82.9561 55.8211 82.6408 56.4025 81.7239 57.1273C81.2313 57.5167 80.5374 57.5513 79.9352 57.501C79.6361 57.476 79.2369 57.3834 76.884 57.3574C75.9625 57.3472 75.5287 57.6008 75.0562 57.9207C74.5613 58.2556 73.9804 58.9954 73.5469 59.589C73.2362 60.0142 73.1846 60.4152 72.8478 60.8027C72.7145 60.9561 72.3938 61.123 71.873 61.3837C71.2764 61.6823 70.391 61.748 69.5322 61.7563C68.6951 61.7645 67.8624 62.2344 67.3449 62.6063C67.2182 62.7744 67.0832 63.1941 66.9568 63.7581C66.9138 63.9884 66.9138 64.1052 66.9138 64.2256" stroke="#131313" stroke-width="1.12921" stroke-linecap="round"/>
<path d="M102.802 47.8361C102.914 47.5887 103.095 46.7756 103.198 45.936C103.269 45.3522 103.526 44.9591 103.65 44.7671C103.806 44.5256 104.025 44.3697 104.384 44.279C104.669 44.2072 105.193 44.278 105.975 44.3905C106.757 44.503 107.789 44.7049 108.601 44.8986C110.706 45.401 111.229 45.6594 111.638 45.83C111.729 45.8864 111.819 45.9762 111.865 46.4486C111.911 46.9211 111.911 47.7736 111.843 48.6519" stroke="#131313" stroke-width="1.12921" stroke-linecap="round"/>
<path d="M108.048 44.1182C108.119 44.0464 108.156 43.2905 108.085 41.7699C108.005 40.0936 107.469 38.3901 106.8 36.5445C105.977 34.2711 104.748 32.4703 103.951 31.4182C103.109 30.3087 102.133 29.5251 101.227 28.8368C99.2801 27.3579 97.8178 27.0222 96.3436 26.6736C94.3798 26.2093 91.3523 26.6889 90.5501 27.3239C89.8824 27.8524 89.7141 29.1897 89.6041 30.2446C89.374 32.4517 89.566 34.5638 89.8389 35.2935C90.4973 37.0546 92.5417 39.7941 92.8706 40.1971C93.5032 40.9721 91.7858 38.2758 91.1312 37.7121C90.1259 36.8465 88.5552 36.1322 87.63 35.8774C85.2302 35.2163 83.3271 36.6006 82.7618 37.1991C82.0751 37.9261 82.2335 38.742 82.1431 39.4314C82.1246 39.6852 82.1246 40.0446 82.1605 40.3017C82.1965 40.5587 82.2684 40.7025 82.4513 40.9596" stroke="#131313" stroke-width="1.12921" stroke-linecap="round"/>
<path d="M108.157 43.5748C108.157 43.2143 108.444 41.0501 108.918 38.9708C109.179 37.8242 109.426 36.6453 110.003 35.2179C110.93 32.9287 111.93 31.1263 112.419 30.3645C112.928 29.5733 114.106 29.1996 114.907 28.8897C115.255 28.755 116.137 28.7617 117.316 28.9055C118.203 29.0137 118.467 29.7768 118.612 30.1205C118.796 30.5574 118.831 31.0468 118.849 31.4994C118.868 31.9905 118.94 34.1881 118.922 37.2188C118.912 38.8612 118.577 39.3977 118.523 39.5982C118.404 40.0363 119.01 38.4948 119.609 37.7868C120.487 36.7489 123.096 37.0396 124.565 37.6174C125.548 38.0043 125.401 39.4315 125.583 40.1956C125.765 40.9226 125.947 41.4313 126.001 41.7929C126.02 42.0107 126.02 42.2983 126.02 42.5945" stroke="#131313" stroke-width="1.12921" stroke-linecap="round"/>
<path d="M153.637 68.9531C154.66 68.9531 155.866 69.0415 156.392 69.2314C156.952 69.4331 157.319 69.8666 157.643 70.2464C157.827 70.4627 158.033 70.8927 158.334 71.4161C158.602 71.881 158.593 73.0519 158.471 74.8113C158.283 77.5437 157.768 77.9249 157.6 78.517C157.46 79.0112 157.41 79.3769 157.243 79.7346C157.187 79.8243 157.121 79.9127 157.054 79.9914C156.986 80.0701 156.92 80.1364 156.651 80.2047" stroke="#131313" stroke-width="1.12921" stroke-linecap="round"/>
<path d="M58.3706 59.3672C57.3479 59.3672 56.1417 59.4556 55.6153 59.6455C55.056 59.8472 54.6884 60.2807 54.3646 60.6605C54.1801 60.8767 53.9744 61.3067 53.6734 61.8301C53.406 62.295 53.4145 63.466 53.5361 65.2254C53.7249 67.9578 54.2397 68.339 54.4074 68.931C54.5475 69.4252 54.5973 69.791 54.7644 70.1486C54.8203 70.2384 54.8866 70.3268 54.9539 70.4055C55.0212 70.4842 55.0875 70.5505 55.3568 70.6188" stroke="#131313" stroke-width="1.12921" stroke-linecap="round"/>
<path d="M156.561 69.138C156.644 68.8873 157.147 67.5046 157.885 65.4173C158.306 64.2267 158.918 62.65 160.181 60.4177C161.383 58.2909 162.845 57.0712 164.126 56.062C166.013 54.5756 168.326 53.5259 169.992 52.8719C170.918 52.5082 171.416 52.5091 171.794 52.592C172.963 52.848 173.019 54.9035 173.064 58.5089C173.083 60.0294 171.68 62.5348 170.036 65.6553C168.591 68.3978 167.495 69.176 166.505 69.9787C165.163 71.0656 164.539 71.5425 164.307 71.6071C164.189 71.64 164.117 71.2956 164.158 71.0829C164.381 69.9131 167.017 69.1431 168.522 68.6119C169.029 68.4329 170.518 67.9174 173.191 67.4109C177.749 66.5473 178.927 67.7427 179.686 68.1656C180.995 68.8941 181.798 70.0623 182.473 71.369C183.314 73.0002 183.024 76.33 182.772 78.3356C182.623 79.5184 180.96 80.5312 180.116 81.1852C178.883 82.1398 177.795 82.3039 176.236 82.7268C174.383 83.2295 173.7 83.2763 171.384 83.3611C170.528 83.3925 168.648 83.5726 165.908 83.489C162.529 83.386 160.574 82.0126 159.751 81.6961C159.101 81.2985 158.337 80.8313 157.705 80.452C157.448 80.2817 157.323 80.1564 157.067 79.9006" stroke="#131313" stroke-width="1.12921" stroke-linecap="round"/>
<path d="M55.4475 59.5521C55.3639 59.3014 54.8613 57.9187 54.1231 55.8314C53.702 54.6407 53.0899 53.0641 51.8275 50.8318C50.6247 48.7049 49.1634 47.4853 47.882 46.4761C45.9946 44.9897 43.6821 43.9399 42.0164 43.2859C41.0903 42.9223 40.5926 42.9232 40.214 43.0061C39.0455 43.2621 38.9896 45.3175 38.944 48.923C38.9247 50.4435 40.3279 52.9489 41.9721 56.0694C43.417 58.8118 44.5127 59.59 45.5035 60.3928C46.8449 61.4796 47.4692 61.9566 47.701 62.0211C47.819 62.054 47.8909 61.7096 47.8504 61.4969C47.6276 60.3272 44.9913 59.5571 43.4864 59.026C42.9793 58.847 41.4903 58.3314 38.8174 57.825C34.2595 56.9613 33.0815 58.1567 32.3218 58.5796C31.013 59.3082 30.2098 60.4764 29.5355 61.7831C28.6939 63.4142 28.9841 66.744 29.2361 68.7497C29.3847 69.9325 31.048 70.9452 31.8926 71.5992C33.1253 72.5539 34.2135 72.7179 35.7722 73.1408C37.6251 73.6436 38.3083 73.6904 40.6236 73.7752C41.4799 73.8066 43.3604 73.9866 46.1005 73.9031C49.479 73.8 51.4337 72.4267 52.2573 72.1101C52.9075 71.7126 53.671 71.2453 54.3035 70.8661C54.5599 70.6958 54.6853 70.5705 54.941 70.3147" stroke="#131313" stroke-width="1.12921" stroke-linecap="round"/>
<path d="M157.731 81.0391C158.404 81.0391 160.084 81.2898 161.168 81.4398C162.038 81.5601 162.877 81.7557 164.688 82.4287C166.109 82.9569 166.969 83.4423 167.858 83.9494C168.804 84.4895 170.173 86.0101 170.961 87.1345C171.764 88.2793 172.333 89.6441 173.07 90.8679C173.934 92.3032 174.941 94.9444 175.919 96.6309C176.817 98.1794 178.112 98.8898 179.105 99.5229C179.574 99.8218 180.014 100.157 180.31 100.368C181.063 100.904 176.863 99.7787 174.936 100.304C173.746 100.628 173.645 102.01 173.328 102.836C173.039 103.587 173.052 104.208 173.031 104.483C172.988 105.058 172.675 102.742 172.294 101.242C171.615 98.5652 171.239 97.5882 170.754 96.5543C170.124 95.2112 169.76 94.3797 169.067 93.2622C168.5 92.3492 168.073 91.5105 167.273 90.5602C166.588 89.7469 165.964 89.2718 165.289 88.6603C164.214 87.6862 162.89 86.3241 161.324 85.1789C160.223 84.2058 159.466 83.5335 158.578 82.2888C158.407 82.0115 158.324 81.8444 158.238 81.6722" stroke="#131313" stroke-width="1.12921" stroke-linecap="round"/>
<path d="M54.2766 71.4531C53.6043 71.4531 51.924 71.7038 50.8395 71.8539C49.9699 71.9742 49.1308 72.1698 47.3201 72.8428C45.899 73.371 45.0385 73.8564 44.1502 74.3635C43.2042 74.9036 41.835 76.4242 41.0468 77.5486C40.2443 78.6934 39.6749 80.0582 38.938 81.2819C38.0737 82.7172 37.0665 85.3584 36.0884 87.045C35.1904 88.5934 33.896 89.3039 32.9027 89.937C32.4337 90.2359 31.9942 90.5714 31.6979 90.7822C30.945 91.3179 35.1445 90.1928 37.0716 90.7176C38.2623 91.0419 38.3631 92.4238 38.6803 93.25C38.9687 94.0013 38.9557 94.6219 38.9766 94.8973C39.0202 95.472 39.333 93.1556 39.7135 91.6558C40.3925 88.9793 40.7689 88.0023 41.2538 86.9684C41.8839 85.6252 42.2478 84.7937 42.941 83.6763C43.5075 82.7633 43.9344 81.9245 44.7346 80.9743C45.4195 80.1609 46.0438 79.6859 46.7187 79.0743C47.7936 78.1003 49.1181 76.7382 50.6838 75.5929C51.7847 74.6199 52.5419 73.9475 53.4295 72.7029C53.6005 72.4256 53.684 72.2584 53.7701 72.0862" stroke="#131313" stroke-width="1.12921" stroke-linecap="round"/>
<path d="M99.3499 128.457C99.2972 128.738 99.1903 129.447 99.0578 131.125C99.0048 131.798 99.0307 132.694 99.0658 133.542C99.1009 134.389 99.1711 135.161 99.4794 136.604C99.7876 138.046 100.332 140.135 100.867 141.817C101.401 143.498 101.911 144.709 102.278 145.527C102.646 146.344 102.856 146.73 103.193 147.218C103.53 147.707 103.986 148.286 104.467 148.822C104.948 149.357 105.439 149.831 105.894 150.207C107.192 151.278 108.015 151.452 108.665 151.613C108.945 151.682 109.382 151.826 110.133 151.914C111.175 152.038 111.972 151.809 112.528 151.615C113.499 151.276 114.453 150.695 115.292 149.874C115.786 149.391 116.325 148.684 116.904 147.77C117.483 146.855 118.062 145.732 118.518 144.626C118.975 143.521 119.291 142.468 119.55 141.425C119.809 140.382 120.002 139.382 120.119 137.295C120.236 135.209 120.272 132.067 120.308 128.829" stroke="#131313" stroke-width="1.12921" stroke-linecap="round"/>
<path d="M125.707 128.18C125.707 129.556 125.872 131.886 126.107 132.843C126.382 133.96 127.117 135.045 127.93 136.177C128.44 136.886 129.374 137.692 130.114 138.336C131.43 139.391 132.791 140.253 134.256 141.028C134.954 141.364 135.557 141.583 136.179 141.809" stroke="#131313" stroke-width="1.12921" stroke-linecap="round"/>
<path d="M94.8741 128.012C94.8741 128.424 94.7644 129.476 94.5009 130.556C94.3339 131.241 94.1544 132.026 93.9744 132.581C93.633 133.633 92.4955 135.32 91.8432 136.374C91.2784 137.286 90.4195 137.951 89.158 138.951C88.37 139.576 87.3146 139.84 86.5667 140.13C85.4024 140.312 84.6818 140.339 84.0751 140.381C83.6879 140.395 83.1393 140.395 82.5742 140.395" stroke="#131313" stroke-width="1.12921" stroke-linecap="round"/>
<path d="M62.7634 139.918C62.2733 140.336 61.2888 141.604 59.8122 144.307C58.9693 145.888 58.3989 146.957 58.118 147.623C57.9764 148.011 57.837 148.499 57.6934 149.002" stroke="#131313" stroke-width="1.12921" stroke-linecap="round"/>
<path d="M155.377 142.742C156.4 143.935 157.946 145.653 158.461 146.553C158.976 147.326 159.32 147.969 159.533 148.417C159.662 148.654 159.831 148.909 160.006 149.171" stroke="#131313" stroke-width="1.12921" stroke-linecap="round"/>
<path d="M71.7651 165.01C71.6924 164.734 71.8339 163.946 72.0832 163.235C72.1447 163.06 72.2257 162.895 73.2717 161.456C74.3177 160.017 76.337 157.312 77.4521 155.67C78.5673 154.028 78.7172 153.53 78.8872 153.038C79.0572 152.546 79.2427 152.075 79.4338 151.59" stroke="#131313" stroke-width="1.12921" stroke-linecap="round"/>
<path d="M79.3255 151.507C79.4317 151.365 79.7522 150.936 80.5106 150.662C81.7822 150.204 82.5109 152.037 82.6105 152.502C82.824 153.498 82.7146 154.535 82.5742 155.887C82.415 156.891 82.1662 157.82 81.8497 158.734C81.7821 158.938 81.747 159.133 81.5771 159.738" stroke="#131313" stroke-width="1.12921" stroke-linecap="round"/>
<path d="M78.9678 160.316C79.6 160.511 81.3571 160.706 83.0153 160.769C86.7723 160.913 88.7485 159.507 90.5566 158.287C91.8261 157.43 93.3051 156.702 94.5072 155.885C94.8525 155.61 95.2738 155.419 95.7973 155.279C96.0455 155.211 96.2586 155.149 96.478 155.084" stroke="#131313" stroke-width="1.12921" stroke-linecap="round"/>
<path d="M97.013 154.92C97.2394 154.937 97.8448 155.345 98.2202 155.929C98.4788 156.332 98.533 156.794 98.5821 157.257C98.6176 157.592 98.3658 157.956 98.1761 158.284C97.8139 158.91 97.1434 159.682 96.7807 159.978C96.4202 160.273 95.9867 160.648 95.3163 161.195C95.0121 161.444 94.6464 161.742 94.0702 162.076C93.7155 162.282 93.3853 162.525 92.8806 162.866C92.2335 163.304 91.9546 163.42 90.8458 163.929C89.9928 164.321 89.0226 164.954 88.1157 165.35C87.6407 165.557 86.6233 165.953 85.6204 166.18C84.7943 166.382 84.011 166.495 83.6731 166.625C83.5839 166.657 83.4767 166.685 83.3662 166.714" stroke="#131313" stroke-width="1.12921" stroke-linecap="round"/>
<path d="M84.5733 172.317C84.8316 172.33 84.9302 172.316 85.0473 172.299C85.2958 172.263 85.5579 172.19 85.9754 172.071C86.7076 171.922 87.8602 171.74 89.3634 171.17C91.2804 170.443 92.5189 170.003 92.9261 169.859C93.4492 169.673 93.8267 169.502 94.0552 169.415C94.344 169.306 95.7412 168.577 97.7464 167.452C98.5598 166.996 98.9774 166.75 99.6211 166.288C100.265 165.826 101.149 165.206 101.698 164.613C102.609 163.628 103.062 163.08 103.098 162.813C103.131 162.572 103.268 162.231 103.03 162.008C102.637 161.642 102.171 161.025 100.177 161.076C99.2617 161.099 97.9163 161.15 97.0765 161.409L93.6344 162.467" stroke="#131313" stroke-width="1.12921" stroke-linecap="round"/>
<path d="M98.7425 167.622C99.8195 168.042 100.416 168.427 100.662 168.876C100.771 169.075 100.749 169.414 100.712 169.859C100.597 171.25 98.8023 172.544 98.0146 173.1C96.9062 173.883 95.7095 174.349 94.9064 174.764C94.6843 174.879 94.2111 175.043 93.1215 175.437C91.2828 176.103 89.9599 176.372 89.6973 176.427C88.5527 176.678 86.6371 176.939 86.009 176.988C85.7613 176.999 85.6579 176.98 85.5088 177.018" stroke="#131313" stroke-width="1.12921" stroke-linecap="round"/>
<path d="M71.406 165.402C71.1631 166.298 71.0272 166.749 70.9577 167.211C70.8694 167.798 70.9986 168.834 71.1295 169.885C71.2312 170.701 71.4409 171.099 71.6358 171.595C71.9019 172.273 72.3932 172.814 72.6706 173.284C73.0768 173.972 73.5072 174.248 75.2112 175.533C75.8047 175.981 76.1166 176.097 76.6106 176.191C77.0502 176.274 77.4643 176.376 78.0563 176.518C79.2096 176.796 80.2472 177.15 80.8138 177.247C81.5428 177.372 82.3073 177.384 82.7803 177.272C83.1934 177.169 83.774 177.099 84.43 177.125C84.7595 177.156 85.0821 177.223 85.5834 177.268" stroke="#131313" stroke-width="1.12921" stroke-linecap="round"/>
<path d="M80.2588 150.192C80.2333 150.192 80.2202 150.128 80.233 150C80.2457 149.935 80.2712 149.872 80.2907 149.813C80.3102 149.755 80.3229 149.704 80.3747 149.574" stroke="#131313" stroke-width="1.12921" stroke-linecap="round"/>
<path d="M80.3745 149.574C80.5147 149.765 80.6548 149.956 80.7398 150.08C80.8247 150.204 80.8502 150.255 80.8697 150.307C80.8892 150.359 80.9019 150.41 80.9537 150.539" stroke="#131313" stroke-width="1.12921" stroke-linecap="round"/>
<path d="M98.0967 155.247C98.3272 155.171 98.611 155.068 98.7137 155.048C98.7648 155.038 98.8164 155.092 98.8426 155.15C98.8689 155.208 98.8689 155.284 98.8306 155.362C98.7924 155.44 98.716 155.516 98.56 155.711" stroke="#131313" stroke-width="1.12921" stroke-linecap="round"/>
<path d="M103.029 161.519C103.131 161.519 103.413 161.494 103.78 161.474C103.865 161.47 103.928 161.455 103.942 161.474C103.918 161.544 103.84 161.635 103.776 161.718C103.75 161.763 103.737 161.814 103.685 161.906" stroke="#131313" stroke-width="1.12921" stroke-linecap="round"/>
<path d="M100.906 168.345C101.086 168.345 101.449 168.309 101.59 168.313C101.799 168.319 101.378 168.77 101.283 168.938C101.26 168.979 101.233 169.014 101.206 169.046C101.178 169.078 101.151 169.105 101.124 169.133" stroke="#131313" stroke-width="1.12921" stroke-linecap="round"/>
<path d="M149.774 166.506C149.847 166.23 149.705 165.442 149.456 164.731C149.394 164.556 149.313 164.391 148.267 162.952C147.221 161.513 145.202 158.808 144.087 157.166C142.972 155.524 142.822 155.026 142.652 154.534C142.482 154.042 142.296 153.571 142.105 153.086" stroke="#131313" stroke-width="1.12921" stroke-linecap="round"/>
<path d="M142.213 153.007C142.107 152.865 141.786 152.436 141.028 152.162C139.756 151.704 139.027 153.537 138.928 154.002C138.714 154.998 138.824 156.035 138.964 157.387C139.123 158.391 139.372 159.32 139.689 160.234C139.756 160.438 139.791 160.633 139.961 161.238" stroke="#131313" stroke-width="1.12921" stroke-linecap="round"/>
<path d="M142.57 161.808C141.938 162.003 140.181 162.198 138.523 162.262C134.766 162.405 132.79 160.999 130.982 159.779C129.712 158.922 128.233 158.194 127.031 157.377C126.686 157.102 126.265 156.911 125.741 156.772C125.493 156.703 125.28 156.641 125.06 156.576" stroke="#131313" stroke-width="1.12921" stroke-linecap="round"/>
<path d="M124.526 156.412C124.299 156.429 123.694 156.837 123.318 157.421C123.06 157.824 123.006 158.287 122.956 158.749C122.921 159.084 123.173 159.448 123.362 159.776C123.725 160.403 124.395 161.175 124.758 161.471C125.118 161.765 125.552 162.14 126.222 162.688C126.526 162.936 126.892 163.234 127.468 163.568C127.823 163.774 128.153 164.017 128.658 164.359C129.305 164.796 129.584 164.912 130.693 165.421C131.546 165.813 132.516 166.447 133.423 166.842C133.898 167.049 134.915 167.445 135.918 167.673C136.744 167.874 137.528 167.987 137.865 168.117C137.955 168.149 138.062 168.177 138.172 168.206" stroke="#131313" stroke-width="1.12921" stroke-linecap="round"/>
<path d="M136.965 173.817C136.707 173.83 136.608 173.816 136.491 173.799C136.243 173.763 135.981 173.69 135.563 173.571C134.831 173.422 133.678 173.24 132.175 172.67C130.258 171.943 129.02 171.503 128.612 171.359C128.089 171.173 127.712 171.002 127.483 170.915C127.195 170.806 125.797 170.077 123.792 168.952C122.979 168.496 122.561 168.25 121.918 167.788C121.274 167.326 120.389 166.706 119.841 166.113C118.929 165.128 118.476 164.58 118.44 164.313C118.408 164.072 118.27 163.731 118.509 163.508C118.901 163.142 119.367 162.525 121.362 162.576C122.277 162.599 123.622 162.65 124.462 162.909L127.904 163.967" stroke="#131313" stroke-width="1.12921" stroke-linecap="round"/>
<path d="M122.796 169.114C121.719 169.534 121.123 169.919 120.876 170.368C120.767 170.568 120.789 170.906 120.826 171.351C120.941 172.742 122.736 174.036 123.524 174.592C124.632 175.375 125.829 175.841 126.632 176.256C126.854 176.371 127.327 176.535 128.417 176.929C130.256 177.595 131.578 177.865 131.841 177.919C132.986 178.17 134.901 178.431 135.529 178.48C135.777 178.491 135.88 178.472 136.03 178.51" stroke="#131313" stroke-width="1.12921" stroke-linecap="round"/>
<path d="M150.133 166.902C150.376 167.798 150.512 168.249 150.581 168.711C150.669 169.298 150.54 170.334 150.409 171.385C150.308 172.201 150.098 172.599 149.903 173.095C149.637 173.773 149.146 174.314 148.868 174.784C148.462 175.472 148.032 175.748 146.328 177.033C145.734 177.481 145.422 177.597 144.928 177.691C144.489 177.774 144.074 177.876 143.483 178.018C142.329 178.296 141.292 178.65 140.725 178.747C139.996 178.872 139.231 178.884 138.759 178.772C138.345 178.669 137.765 178.599 137.109 178.625C136.779 178.656 136.457 178.723 135.955 178.768" stroke="#131313" stroke-width="1.12921" stroke-linecap="round"/>
<path d="M141.28 151.684C141.305 151.684 141.318 151.62 141.305 151.492C141.293 151.427 141.267 151.364 141.248 151.305C141.228 151.247 141.215 151.196 141.164 151.066" stroke="#131313" stroke-width="1.12921" stroke-linecap="round"/>
<path d="M141.164 151.066C141.024 151.258 140.884 151.449 140.799 151.573C140.714 151.697 140.688 151.747 140.669 151.799C140.649 151.851 140.636 151.902 140.585 152.032" stroke="#131313" stroke-width="1.12921" stroke-linecap="round"/>
<path d="M123.442 156.74C123.212 156.663 122.928 156.56 122.825 156.54C122.774 156.53 122.722 156.584 122.696 156.642C122.67 156.7 122.67 156.777 122.708 156.854C122.746 156.932 122.823 157.008 122.979 157.203" stroke="#131313" stroke-width="1.12921" stroke-linecap="round"/>
<path d="M118.51 163.019C118.408 163.019 118.125 162.994 117.758 162.974C117.674 162.97 117.61 162.955 117.597 162.974C117.621 163.044 117.699 163.135 117.763 163.218C117.789 163.263 117.802 163.314 117.854 163.406" stroke="#131313" stroke-width="1.12921" stroke-linecap="round"/>
<path d="M120.632 169.841C120.452 169.841 120.089 169.805 119.948 169.809C119.739 169.815 120.16 170.266 120.256 170.434C120.278 170.475 120.305 170.511 120.332 170.542C120.36 170.574 120.387 170.601 120.414 170.629" stroke="#131313" stroke-width="1.12921" stroke-linecap="round"/>
<path d="M38.7629 18.8789C39.4078 20.2514 39.824 21.2764 40.032 21.9296C40.2552 22.6309 41.031 24.422 41.9596 26.8036C42.4628 28.0943 43.0844 29.2406 43.9771 31.2688C45.1973 34.0412 46.2447 36.2629 46.6451 37.4621C46.8362 37.9949 47.0028 38.374 47.0993 38.6411C47.1958 38.9082 47.2172 39.0518 47.2392 39.1999" stroke="#FF0404" stroke-width="1.12921" stroke-linecap="round"/>
<path d="M46.4582 17.5061C46.3787 17.9585 46.2991 18.4109 45.8951 19.781C45.4911 21.1511 44.7649 23.4253 44.2036 25.0653C43.3158 27.659 42.6587 29.0811 42.4516 29.8162C42.3415 30.2069 43.2566 30.1458 43.967 30.2058C45.075 30.2994 47.1666 31.0768 49.492 32.0089C51.1887 32.8577 53.0512 33.98 54.3261 35.0034C54.5378 35.1771 54.78 35.3247 55.2796 35.6619" stroke="#FF0404" stroke-width="1.12921" stroke-linecap="round"/>
<path d="M50.1682 13.293C50.8245 14.253 51.5468 15.6305 52.259 17.3001C52.8451 18.6743 53.9565 21.0883 54.6487 22.5559C55.3409 24.0234 55.5979 24.4638 56.1008 25.465C56.6037 26.4662 57.3447 28.015 57.9765 29.2063C58.6082 30.3977 59.1083 31.1847 59.7462 32.1707" stroke="#FF0404" stroke-width="1.12921" stroke-linecap="round"/>
<path d="M55.7841 24.0622C55.8872 24.0468 56.0332 23.9548 56.5634 23.6114C57.7375 22.8507 58.7487 22.4146 59.1776 22.2097C59.4479 22.0806 59.7922 21.8366 60.4551 21.2347C61.1179 20.6327 62.0804 19.6638 62.6906 18.9895C64.0241 17.5162 63.981 16.6692 64.0301 16.1653C64.104 15.4054 63.996 14.9817 63.7284 13.1807C63.5979 12.3018 62.651 11.4035 61.7928 11.0058C61.0334 10.654 59.6716 10.4268 58.7489 10.3488C58.4231 10.3213 57.7975 10.2602 57.0569 10.2286C56.6873 10.2128 55.9603 10.3021 54.9135 10.4755C54.3274 10.5726 54.1004 10.7206 53.6301 10.9317C52.4986 11.4395 51.5754 11.7528 51.3113 11.8808C50.7853 12.0482 50.4705 12.201 50.3266 12.364C50.2583 12.4455 50.1998 12.5245 50.1473 12.6579" stroke="#FF0404" stroke-width="1.12921" stroke-linecap="round"/>
<path d="M65.6052 7.22131C65.6319 7.40065 65.669 7.64996 66.0275 8.5958C66.3313 9.3973 67.0088 10.8009 67.3679 11.6296C67.727 12.4583 67.7795 12.6568 68.0423 13.3425C68.3052 14.0283 68.7768 15.1955 69.0817 15.9823C69.528 17.1336 70.0566 18.331 70.7506 19.7303C71.4578 21.1561 71.7525 22.2462 72.2443 23.5301C72.4798 24.145 72.9033 24.8551 73.2829 25.5298C73.6158 26.1216 73.9817 26.1799 74.1223 26.1943C74.3387 26.2166 74.2807 25.6979 74.3652 24.2622C74.4403 22.9861 74.6226 20.601 74.7377 18.165C74.8528 15.7291 74.9059 13.3152 74.9519 11.9658C75.0051 10.4033 75.094 9.86255 75.1453 9.27719C75.2598 7.97346 75.1424 6.45155 75.1788 5.8448C75.193 5.60878 75.1877 5.35672 75.206 5.24846C75.2628 4.91142 75.567 6.19739 76.2075 8.03273C76.7206 9.50294 77.7198 12.0297 78.2474 13.4354C78.8468 15.0324 78.9821 15.4581 79.1887 15.9922C79.4663 16.71 79.7581 17.7229 80.2189 18.8778C80.6911 20.0613 81.0066 21.2866 81.3711 22.2611C81.829 23.2293 81.9284 23.5839 82.0897 24.1265C82.1457 24.2695 82.2105 24.3973 82.3077 24.7328" stroke="#FF0404" stroke-width="1.12921" stroke-linecap="round"/>
<path d="M93.1439 3.01328C93.1281 2.90747 92.7553 2.58278 91.9675 2.04621C91.1127 1.46396 89.7562 1.11686 88.19 0.940333C85.9932 0.69275 85.3068 1.7202 84.8239 2.14728C84.1073 2.78099 83.691 3.1619 83.1823 3.68867C82.5457 4.34798 82.2062 5.48375 81.969 6.09506C81.8471 6.40934 81.7339 7.08297 81.6456 8.32022C81.5237 10.0294 81.6616 11.1938 81.7084 11.6895C81.7881 12.5344 81.9178 14.0152 82.2077 15.6902C82.5348 17.5806 83.1185 18.2396 83.9955 19.8265C84.6846 21.0734 85.3879 21.5627 85.9906 22.0334C86.6555 22.5528 87.4409 22.7057 88.1823 22.8149C88.7627 22.9004 89.5321 22.8057 90.5139 22.7276C92.2084 22.5927 93.4576 22.1951 93.7643 21.8775C94.6658 20.7887 95.5337 19.8107 95.7606 19.5045C95.8748 19.3502 95.9874 19.1983 96.1034 19.0417" stroke="#FF0404" stroke-width="1.12921" stroke-linecap="round"/>
<path d="M8.65247 168.881C5.96838 168.489 1.38582 168.478 1.38583 167.488C1.38594 157.655 -0.24348 146.433 0.562958 137.076C11.1428 138.598 23.2028 141.339 33.0043 140.616C39.1303 140.164 41.6667 139.171 45.6702 136.485C46.0239 136.248 46.5552 136.397 46.8194 138.598C47.0836 140.799 47.1012 145.073 47.2016 147.418C47.3195 150.175 47.2786 151.255 47.4082 152.455C47.6157 154.377 47.9346 156.01 48.2364 157.655C48.5024 159.104 48.6739 160.454 49.0646 161.467C49.5664 162.768 50.2774 164.814 49.2366 165.425C48.7347 165.719 48.1111 165.821 47.1892 166.226C44.2994 167.493 43.1311 167.71 41.6667 168.946L41.6514 168.959C39.7343 170.578 38.3463 171.75 36.1664 172.135C34.0135 172.515 32.9861 172.063 31.4411 171.925C30.1119 171.806 28.8479 171.225 25.0629 170.739C20.9291 170.208 18.0504 169.839 17.1029 169.767C14.3142 169.557 10.5317 169.154 8.65247 168.881Z" stroke="#131313" stroke-width="0.677528" stroke-linecap="round"/>
<path d="M32.8357 143.133C32.8942 144.193 33.013 145.609 33.3074 148.089C33.5039 149.744 33.6621 151.163 33.7809 153.027C33.9309 155.38 34.3112 157.015 34.461 158.409C34.6541 160.205 34.7262 162.222 34.9337 164.139C35.2175 166.761 35.4355 168.546 35.643 169.817C35.6732 171.079 35.7317 172.097 35.8204 172.568C35.8505 172.806 35.8505 173.04 35.8505 173.281" stroke="#131313" stroke-width="0.677528" stroke-linecap="round"/>
<path d="M0.592529 136.972C0.814738 136.844 1.51984 136.716 2.03351 136.572C2.94314 136.316 6.14063 135.331 9.13273 134.74M22.8865 132.188C22.8865 132.188 22.535 132.227 25.416 132.547M42.1283 134.717C42.3707 134.766 45.7087 136.237 46.1935 136.366" stroke="#131313" stroke-width="0.677528" stroke-linecap="round"/>
<path d="M25.4375 132.125C25.278 131.077 25.3516 126.378 25.4373 125.221C25.5817 123.273 25.9599 122.289 26.1039 121.741C26.5299 120.118 27.2921 119.678 27.7133 119.273C28.2214 118.783 28.7714 118.778 31.2436 118.806C32.065 118.815 32.5132 119.212 32.9618 119.529C34.0537 120.302 34.2257 121.472 34.7469 122.559C35.0641 123.22 35.749 126.353 35.94 127.405" stroke="#131313" stroke-width="0.677528" stroke-linecap="round"/>
<path d="M12.0051 138.87C11.6867 138.177 11.4587 136.613 11.3708 135.915C11.3121 135.449 11.2255 134.9 11.2111 134.379C11.1998 133.97 11.1384 132.244 11.1528 129.794C11.1593 128.693 11.5126 127.511 12.0051 125.931C12.4556 124.486 13.3104 123.271 14.0218 122.514C14.6108 121.887 15.4563 121.903 16.3852 121.902C17.2682 121.902 18.6429 123.346 19.8076 125.201C20.6233 126.5 20.5068 127.989 20.6225 128.8C20.7062 129.387 20.7974 130.049 20.8261 130.773C20.8438 131.219 21.0002 132.909 21.058 135.345C21.0872 136.23 21.1159 136.402 21.1307 136.864C21.1455 137.326 21.1307 139.208 21.1307 139.977" stroke="#131313" stroke-width="0.677528" stroke-linecap="round"/>
<path d="M21.8474 140.023C21.8677 139.818 22.635 137.871 22.8613 137.325C22.9698 137.064 23.1473 136.456 23.7599 135.311C24.6679 133.615 25.4678 132.554 25.6211 132.216C25.7936 131.836 26.1438 131.283 26.4717 130.617C26.6954 130.163 27.3308 129.458 28.202 128.505C29.0705 127.555 29.4273 127.218 29.777 126.94C30.1602 126.635 30.8846 126.866 31.9134 127.081C32.7551 127.256 34.2628 127.478 35.1186 127.624C36.4151 127.845 37.3844 128.138 38.0884 128.293C38.4916 128.382 38.8066 128.59 39.0027 128.908C40.6395 131.562 37.1236 135.817 36.1819 138.492C36.1407 138.585 35.5979 140.272 35.5561 140.294" stroke="#131313" stroke-width="0.677528" stroke-linecap="round"/>
<path d="M38.9439 128.707C39.2634 129.018 40.9002 130.681 41.2903 131.103C41.6313 131.471 41.9063 131.729 42.2036 132.128C42.445 132.453 42.7276 132.673 42.8609 132.837C43.1455 133.187 42.4641 133.944 41.9915 134.569C41.3502 135.418 41.2105 135.874 40.9849 136.172C40.7563 136.475 40.6158 136.818 40.3282 137.3C40.2661 137.414 40.2254 137.495 40.1842 137.578C40.1429 137.66 38.9118 139.605 38.8083 139.751" stroke="#131313" stroke-width="0.677528" stroke-linecap="round"/>
<path d="M24.3297 134.659C24.0858 134.294 23.3877 133.143 22.6827 132.03C22.2189 131.297 21.3103 129.986 20.8193 129.245C20.049 128.082 19.6314 127.539 19.3752 127.303C19.2265 127.166 18.69 127.474 18.0032 127.802C17.5936 127.998 16.4587 128.477 14.8795 129.256C14.049 129.666 13.416 130.06 12.5559 130.469C11.1758 131.126 10.683 131.375 10.4986 131.467C10.4114 131.51 10.3548 131.579 10.3438 131.702C10.3162 132.008 10.6793 132.643 11.3131 133.899C11.7139 134.694 12.1502 135.867 12.4214 136.565C12.7535 137.466 13.2742 138.815 13.356 139.01" stroke="#131313" stroke-width="0.677528" stroke-linecap="round"/>
<path d="M10.2304 131.824C10.0056 132.396 9.75875 133.299 9.43152 134.292C9.02987 135.511 9.00023 136.069 8.87617 136.553C8.85554 136.646 8.83522 136.728 8.8146 136.81C8.79397 136.893 8.58275 137.768 8.50024 138.036" stroke="#131313" stroke-width="0.677528" stroke-linecap="round"/>
<path d="M29.3042 130.258C29.4341 130.307 29.6335 130.382 29.7394 130.423C29.9857 130.517 30.3736 130.675 30.7738 130.799C31.2503 130.946 31.6065 131.004 31.7427 131.051C31.9732 131.13 32.3515 131.234 32.7277 131.359C32.9326 131.426 33.3091 131.477 33.8282 131.589C34.1485 131.658 34.2766 131.726 34.3756 131.757C34.833 131.901 35.2098 131.888 35.3468 131.919C35.378 131.927 35.4029 131.932 35.4032 131.944C35.4044 131.984 35.2119 131.994 34.9602 132C34.7754 132.005 34.4968 132.044 34.0901 132.081C33.6865 132.118 33.4249 132.206 33.2606 132.298C32.813 132.551 32.7527 132.771 32.625 133.085C32.5224 133.338 32.4226 133.462 32.24 134.099C32.0929 134.611 31.8793 135.615 31.7494 136.215C31.6196 136.816 31.6011 136.988 31.5792 137.13C31.541 137.377 31.4889 137.625 31.4547 137.855C31.4367 137.976 31.3647 138.327 31.2808 138.846C31.2201 139.222 31.1716 139.418 31.0844 139.822C31.0422 140.018 30.9972 140.239 30.9505 140.424C30.9417 140.458 30.9349 140.483 30.9194 140.505C30.8865 140.551 30.6136 140.564 30.2248 140.567C30.0269 140.569 29.6991 140.583 29.2266 140.589C28.9261 140.593 28.677 140.62 28.413 140.608C28.1893 140.597 27.9673 140.527 27.7313 140.484C27.3392 140.412 27.1144 140.192 27.008 140.036C26.8181 139.757 26.7156 139.346 26.6747 138.945C26.625 138.457 26.6962 138.038 26.7366 137.867C26.7537 137.795 26.7586 137.752 26.8141 137.548C26.8696 137.344 26.9744 136.98 27.1454 136.578C27.3164 136.175 27.5506 135.743 27.6989 135.484C27.8929 135.145 28.0646 134.976 28.2695 134.765C28.6177 134.407 28.6316 134.241 28.8517 134.024C29.1177 133.762 29.3099 133.513 29.3845 133.402C29.5367 133.173 29.9125 132.774 30.125 132.512C30.3106 132.283 30.4789 131.916 30.5891 131.68C30.6477 131.585 30.692 131.49 30.7106 131.416C30.723 131.378 30.7415 131.341 30.7605 131.285" stroke="#131313" stroke-width="0.677528" stroke-linecap="round"/>
<path d="M18.2706 129.905C18.2263 129.972 18.0476 130.062 17.3111 130.463C16.8559 130.711 16.4486 130.856 16.0451 131.046C15.5492 131.28 14.9277 131.773 14.3013 132.069C13.9922 132.216 13.872 132.256 13.8216 132.367C13.6554 132.734 13.9489 133.171 14.1898 133.804C14.3217 134.15 14.5083 134.703 14.6492 135.07C14.7713 135.388 14.8562 135.635 15.2748 136.573C15.4797 137.032 15.6507 137.538 15.7797 137.84C15.8656 138.042 15.9751 138.354 16.0597 138.602C16.1302 138.808 16.2108 139.027 16.2946 139.229C16.315 139.278 16.3559 139.307 16.3786 139.285C16.4543 139.213 16.4791 138.807 16.7238 137.772C16.8985 137.033 17.2343 135.873 17.411 135.179C17.7052 134.024 17.7998 133.524 17.8954 133.225C17.9751 132.975 18.0577 132.705 18.0747 132.525C18.0949 132.312 18.1249 132.044 18.1529 131.815C18.2041 131.396 18.3263 131.093 18.3712 130.835C18.416 130.566 18.4607 130.365 18.5278 130.047C18.5392 129.962 18.5392 129.885 18.5392 129.805" stroke="#131313" stroke-width="0.677528" stroke-linecap="round"/>
<path d="M4.23412 161.114C4.23412 160.457 4.20714 159.694 4.15951 158.779C4.11979 158.015 4.12538 156.641 4.17239 155.372C4.2194 154.103 4.32733 152.981 4.38967 152.134C4.49132 150.755 4.51988 149.848 4.5812 149.265C4.60548 149.034 4.60205 148.933 4.62903 148.889C4.6802 148.807 5.0219 149.483 5.6666 150.933C6.04593 151.786 6.56762 152.852 6.8587 153.479C7.14977 154.107 7.20373 154.258 7.23153 154.059C7.33522 153.318 7.2998 152.587 7.44882 151.806C7.56848 151.178 7.73274 150.07 7.85007 149.383C8.00808 148.458 8.10394 148.153 8.1718 148.11C8.30386 148.026 8.43017 149.126 8.61393 150.344C8.70757 150.964 8.79892 151.482 9.04216 153.238C9.23509 154.631 9.66315 157.021 9.88514 158.306C10.1889 159.861 10.2976 160.198 10.3322 160.504C10.3389 160.572 10.3524 160.639 10.3663 160.708" stroke="#131313" stroke-width="0.677528" stroke-linecap="round"/>
<path d="M10.9744 151.529C10.8932 151.814 10.7841 153.093 10.7363 154.128C10.7169 154.547 10.7294 155.284 10.7765 155.94C10.8237 156.595 10.9181 157.148 11.0273 157.666C11.2368 158.661 11.4907 159.421 11.7282 159.986C12.1238 160.927 12.4032 161.063 12.8307 161.409C13.4939 161.945 13.8451 161.926 14.3559 162.01C14.8109 162.085 15.2199 161.557 15.5549 161.091C15.7365 160.838 15.929 160.307 16.2007 159.431C16.3602 158.917 16.4723 158.221 16.5417 157.24C16.6112 156.258 16.6112 155.003 16.5775 154.214C16.5314 153.135 16.1778 152.245 15.7969 151.282C15.5097 150.556 15.1971 150.111 14.6393 149.377C13.96 148.482 13.154 148.25 12.8617 148.148C12.5426 148.038 12.2684 148.165 12.1328 148.266C11.6844 148.599 11.3976 149.378 11.2742 150.191C11.2334 150.632 11.1787 151.037 11.1448 151.334C11.1378 151.41 11.1378 151.494 11.1787 151.732" stroke="#131313" stroke-width="0.677528" stroke-linecap="round"/>
<path d="M18.1821 159.487C18.2207 159.026 18.2461 158.719 18.4568 157.127C18.5791 156.202 18.8706 154.683 19.0146 153.783C19.1586 152.884 19.1713 152.655 19.2669 152.057C19.3625 151.459 19.5406 150.498 19.6769 149.874C19.8131 149.25 19.9022 148.991 19.9926 148.758C20.083 148.525 20.172 148.327 20.4024 149.193C20.6327 150.059 21.0016 151.995 21.3507 153.511C21.6997 155.027 22.0178 156.063 22.2134 156.795C22.4726 157.924 22.5382 158.454 22.5572 158.761C22.5763 158.946 22.6145 159.19 22.6538 159.58" stroke="#131313" stroke-width="0.677528" stroke-linecap="round"/>
<path d="M17.5496 160.008C17.8586 159.915 18.0782 159.899 19.0631 159.891C19.9842 159.884 21.7605 159.93 22.7011 160.015C23.6418 160.101 23.6929 160.239 23.7192 160.55C23.7456 160.861 23.7456 161.34 23.7068 161.833" stroke="#131313" stroke-width="0.677528" stroke-linecap="round"/>
<path d="M17.3655 160.027C17.3124 160.088 17.2856 160.365 17.438 161.248C17.485 161.474 17.5245 161.627 17.5581 161.736C17.5916 161.845 17.618 161.906 17.6851 162.015" stroke="#131313" stroke-width="0.677528" stroke-linecap="round"/>
<path d="M25.3269 161.482C25.3269 161.277 25.3652 160.854 25.6144 159.677C25.8129 158.74 26.2079 157.123 26.4177 156.168C26.6275 155.212 26.653 154.97 26.8765 153.946C27.1001 152.923 27.5209 151.125 27.7504 150.173C28.0429 148.96 28.34 148.591 28.4884 148.468C28.5508 148.416 28.5854 148.666 28.7577 149.382C28.909 150.01 29.2233 151.168 29.5148 152.671C29.8064 154.174 30.0741 155.985 30.2248 157.504C30.3755 159.023 30.401 160.197 30.4205 160.852C30.466 161.893 30.4787 162.37 30.498 162.576C30.5046 162.667 30.5046 162.73 30.5432 162.873" stroke="#131313" stroke-width="0.677528" stroke-linecap="round"/>
<path d="M26.5247 157.192C26.4992 157.192 26.5498 157.218 26.7994 157.231C27.2947 157.257 28.1422 157.102 28.9727 157.064C29.2677 157.038 29.306 157 29.3703 156.98C29.4347 156.961 29.5239 156.961 29.7318 156.922" stroke="#131313" stroke-width="0.677528" stroke-linecap="round"/>
<path d="M183.981 144.637C183.69 144.678 183.224 145.012 182.393 145.989C181.765 146.728 181.458 147.699 181.225 148.423C181.159 148.628 181.135 148.941 181.022 149.798C180.793 151.521 180.804 153.027 180.885 153.742C180.996 154.727 181.176 155.201 181.545 156.245C181.848 157.102 182.385 157.842 183.063 158.574C183.459 159.002 184.097 159.342 184.889 159.771C185.881 160.309 186.612 160.54 187.032 160.62C188.697 160.936 189.704 160.529 190.314 160.305C191.629 159.824 192.557 159.148 193.934 158.444C194.237 158.222 194.353 158.021 194.616 157.44C194.88 156.859 195.288 155.905 195.708 154.922" stroke="#131313" stroke-width="0.677528" stroke-linecap="round"/>
<path d="M184.254 144.39C183.431 147.043 184.77 149.506 185.42 150.863C186.408 152.926 186.886 153.526 187.417 154.277C187.918 154.987 188.556 155.269 189.268 155.551C190.055 155.862 190.719 156.016 191.611 156.196C193.055 156.487 193.625 156.182 194.165 156.15C194.67 156.12 195.192 155.65 195.801 155.174C196.226 154.756 197.105 153.702 197.222 152.824" stroke="#131313" stroke-width="0.677528" stroke-linecap="round"/>
<path d="M184.016 144.923C184.315 144.382 184.774 143.713 185.297 143.264C186.006 142.654 187.376 142.356 189.62 142.075C192.42 141.725 192.894 142.57 193.376 142.871C193.916 143.209 194.009 143.382 194.498 143.985M197.252 148.619C197.943 150.296 197.517 152.18 197.252 152.918" stroke="#131313" stroke-width="0.677528" stroke-linecap="round"/>
<path d="M196.804 153.818C196.831 153.969 196.472 154.57 195.758 155.574C195.186 156.445 194.486 157.437 194.182 157.965C194.142 158.047 194.091 158.126 193.892 158.385" stroke="#131313" stroke-width="0.677528" stroke-linecap="round"/>
<path d="M185.321 143.278C185.138 143.407 184.019 144.415 183.531 144.869C183.062 145.365 182.659 145.743 182.281 146.271" stroke="#131313" stroke-width="0.677528" stroke-linecap="round"/>
<path d="M195.325 162.794C195.221 162.52 194.793 162.138 193.656 161.543C192.797 161.093 191.782 161.008 191.025 160.94C190.811 160.921 190.5 160.967 189.638 161.045C187.907 161.202 186.441 161.545 185.762 161.781C184.825 162.107 184.403 162.387 183.466 162.977C182.697 163.462 182.093 164.148 181.528 164.971C181.199 165.452 181.007 166.149 180.763 167.015C180.457 168.102 180.393 168.866 180.407 169.293C180.466 170.987 181.086 171.88 181.438 172.425C182.198 173.602 183.062 174.357 184.052 175.545C184.335 175.792 184.557 175.861 185.182 175.99C185.806 176.119 186.827 176.307 187.879 176.5" stroke="#131313" stroke-width="0.677528" stroke-linecap="round"/>
<path d="M195.621 163.009C192.852 162.791 190.745 164.64 189.565 165.573C187.77 166.991 187.29 167.589 186.675 168.273C186.093 168.919 185.959 169.603 185.84 170.36C185.71 171.196 185.706 171.877 185.727 172.787C185.762 174.259 186.185 174.748 186.336 175.267C186.476 175.754 187.05 176.159 187.648 176.648C188.149 176.971 189.371 177.596 190.253 177.516" stroke="#131313" stroke-width="0.677528" stroke-linecap="round"/>
<path d="M195.049 162.893C195.642 163.066 196.397 163.366 196.95 163.777C197.701 164.334 198.294 165.605 199.062 167.732C200.021 170.385 199.302 171.034 199.114 171.57C198.903 172.171 197.914 173.677 196.969 174.287M193.981 176.482C192.67 177.5 191.299 177.5 190.46 177.5" stroke="#131313" stroke-width="0.677528" stroke-linecap="round"/>
<path d="M189.187 177.323C189.045 177.383 188.38 177.165 187.243 176.69C186.267 176.324 185.146 175.86 184.563 175.68C184.475 175.659 184.386 175.627 184.09 175.49" stroke="#131313" stroke-width="0.677528" stroke-linecap="round"/>
<path d="M196.937 163.804C196.771 163.653 195.541 162.784 194.991 162.408C194.403 162.06 193.946 161.75 193.347 161.498" stroke="#131313" stroke-width="0.677528" stroke-linecap="round"/>
<path d="M165.173 159.807C165.062 160.078 165.114 160.649 165.537 161.861C165.857 162.776 166.54 163.531 167.047 164.098C167.19 164.258 167.448 164.437 168.131 164.969C169.502 166.037 170.807 166.789 171.464 167.08C172.371 167.482 172.87 167.566 173.958 167.775C174.85 167.947 175.761 167.858 176.735 167.643C177.304 167.517 177.92 167.138 178.69 166.673C179.657 166.088 180.225 165.575 180.507 165.252C181.621 163.975 181.778 162.9 181.894 162.261C182.143 160.883 182.028 159.741 182.117 158.197C182.078 157.824 181.963 157.622 181.595 157.1C181.227 156.579 180.61 155.745 179.975 154.885" stroke="#131313" stroke-width="0.677528" stroke-linecap="round"/>
<path d="M165.103 159.45C166.975 161.5 169.778 161.59 171.277 161.715C173.556 161.905 174.315 161.796 175.232 161.718C176.098 161.643 176.663 161.236 177.267 160.764C177.933 160.242 178.402 159.748 179.008 159.068C179.988 157.97 180.013 157.324 180.258 156.842C180.488 156.391 180.346 155.703 180.243 154.937C180.098 154.359 179.633 153.067 178.934 152.523" stroke="#131313" stroke-width="0.677528" stroke-linecap="round"/>
<path d="M165.442 159.932C165.126 159.4 164.781 158.665 164.657 157.988C164.49 157.067 164.925 155.734 165.817 153.656C166.93 151.063 169.027 150.731 169.531 150.468M176.43 151.145C177.819 151.796 178.167 152.061 178.772 152.4" stroke="#131313" stroke-width="0.677528" stroke-linecap="round"/>
<path d="M179.584 153.392C179.728 153.445 180.066 154.059 180.571 155.182C181.033 156.117 181.535 157.221 181.838 157.75C181.888 157.827 181.931 157.91 182.053 158.213" stroke="#131313" stroke-width="0.677528" stroke-linecap="round"/>
<path d="M164.685 157.978C164.704 158.201 165.008 159.676 165.153 160.327C165.344 160.982 165.467 161.521 165.732 162.114" stroke="#131313" stroke-width="0.677528" stroke-linecap="round"/>
<path d="M164.213 158.617C164.067 158.854 163.668 159.545 163.291 159.997C163.05 160.286 162.679 160.899 162.13 161.997C161.816 162.626 161.854 163.422 161.981 163.975C162.108 164.526 162.656 164.907 163.169 165.857C163.378 166.244 163.335 167.17 163.308 168.349C163.292 169.044 163.171 169.643 163.216 170.237C163.233 170.455 163.352 170.488 163.462 170.524C163.697 170.603 164.173 170.617 164.812 170.535C165.978 170.386 166.807 169.193 167.393 168.916C168.712 168.294 169.718 168.75 169.855 168.832C169.989 168.912 170.61 169.749 171.515 170.928C172.024 171.593 172.443 171.841 173.027 172.124C173.422 172.317 173.779 172.153 174.133 171.981C174.933 171.592 175.987 170.822 176.929 170.1C177.716 169.496 177.802 169.135 178.095 169.089C178.241 169.062 178.588 169.043 179.017 168.998C179.175 168.953 179.212 168.862 179.249 168.769" stroke="#131313" stroke-width="0.677528" stroke-linecap="round"/>
<path d="M183.913 143.97C183.786 143.825 183.567 143.496 183.357 143.194C183.047 142.749 182.415 142.562 181.904 142.38C181.259 142.15 180.915 142.16 180.486 142.114C180.187 142.082 179.945 142.141 179.79 142.241C179.377 142.508 179.232 142.963 178.967 144.012C178.762 144.822 179.047 145.213 179.176 145.643C179.327 146.149 179.414 147.366 179.25 147.911C179.075 148.492 177.715 148.469 177.448 148.753C177.154 149.066 177.092 149.657 177.045 150.015C176.981 150.353 176.944 150.682 177.19 151.175C177.255 151.286 177.291 151.359 177.493 151.488" stroke="#131313" stroke-width="0.677528" stroke-linecap="round"/>
<path d="M196.095 155.426C196.166 155.426 196.679 155.534 197.081 155.772C197.317 155.912 197.466 156.102 197.567 156.257C197.671 156.418 197.705 156.596 197.641 156.823C197.404 157.679 196.556 158.11 196.388 159.236C196.322 159.677 196.643 159.997 196.753 160.563C196.806 160.835 196.809 161.095 196.763 161.323C196.425 161.608 196.024 161.718 195.685 161.782C195.584 161.791 195.458 161.791 195.327 161.791" stroke="#131313" stroke-width="0.677528" stroke-linecap="round"/>
<path d="M186.437 176.511C186.419 176.475 186.401 176.438 186.392 176.465C186.258 176.846 185.835 177.387 185.524 177.671C184.93 178.217 183.752 178.157 183.102 178.203C182.105 178.273 181.593 177.957 180.734 177.291C180.048 176.76 180.036 176.256 180.008 175.854C179.973 175.341 179.926 174.757 179.871 174.208C179.816 173.655 178.721 173.33 178.253 172.672C177.983 172.291 178.06 171.794 177.996 171.264C177.886 170.355 178.078 169.873 178.26 169.288C178.315 169.141 178.37 169.014 178.425 168.922C178.48 168.829 178.534 168.775 178.59 168.719" stroke="#131313" stroke-width="0.677528" stroke-linecap="round"/>
<path d="M168.683 156.765C168.897 157.077 169.317 157.196 169.74 157.329C170.163 157.463 170.741 157.462 171.102 157.517C171.522 157.581 172.117 157.572 172.77 157.479C173.307 157.402 173.983 157.213 174.266 157.033C174.723 156.742 175.612 156.415 175.996 156.001C176.631 155.317 176.542 154.282 176.542 153.539M168.49 153.539C168.184 153.752 167.926 154.094 167.722 154.478C167.52 154.856 167.945 156.292 168.684 156.765" stroke="#131313" stroke-width="0.677528" stroke-linecap="round"/>
<path d="M168.438 152.869C168.513 153.461 168.866 153.991 169.213 154.289C169.472 154.511 169.824 154.787 171.254 155.122C171.637 155.211 171.796 155.192 172.265 155.211C173.422 155.258 174.308 155.18 174.516 155.092C174.949 154.908 175.368 154.637 175.816 154.36C176.165 154.144 176.29 153.528 176.448 152.866C176.736 151.667 176.317 151.356 176.134 151.121C175.957 150.895 175.649 150.649 175.314 150.414C175.099 150.264 174.853 150.055 174.531 149.651C174.193 149.228 173.729 148.29 173.633 147.846C173.575 147.573 173.589 147.103 173.564 146.623C173.555 146.454 173.489 146.443 173.432 146.437C173.375 146.43 173.313 146.43 173.262 146.468C172.998 146.662 173.034 147.161 172.952 147.616C172.895 147.93 172.832 148.209 172.693 148.582C172.557 148.947 172.264 149.005 172.031 149.232C171.624 149.628 170.601 149.926 169.942 150.229C169.686 150.347 169.412 150.595 169.008 150.979C168.003 151.935 168.123 152.325 168.135 152.704C168.172 152.805 168.247 152.893 168.311 152.95C168.374 153.008 168.424 153.033 168.476 153.059" stroke="#131313" stroke-width="0.677528" stroke-linecap="round"/>
<path d="M189.368 144.872C188.859 145.837 188.497 146.669 188.535 147.52C188.593 148.805 189.069 149.399 189.225 149.882C189.422 150.489 189.876 150.843 190.178 151.061C190.55 151.329 190.946 151.542 191.657 151.821C191.973 151.944 192.325 151.946 192.704 151.907C193.344 151.843 193.812 151.112 194.133 150.56M190.903 144.185C190.257 144.084 190.033 144.362 189.368 144.872" stroke="#131313" stroke-width="0.677528" stroke-linecap="round"/>
<path d="M190.776 144.223C190.73 144.315 190.668 144.778 190.644 145.731C190.631 146.247 190.931 146.733 191.016 147.052C191.091 147.33 191.303 147.617 191.496 147.92C191.876 148.514 192.155 148.966 192.411 149.285C192.652 149.585 193.099 149.85 193.581 150.076C193.856 150.205 194.14 150.286 195.492 150.225C196.767 150.168 196.87 149.078 197.002 148.683C197.224 148.02 197.458 147.606 197.761 146.869C197.922 146.477 198.109 145.44 198.32 144.852C198.471 144.43 198.776 143.947 199.017 143.635C199.151 143.462 199.227 143.262 199.274 143.107C199.297 143.031 199.29 142.953 199.052 143.005C197.685 143.307 197.123 143.772 196.609 143.889C195.761 144.084 195.184 143.944 194.77 143.905C194.438 143.874 192.929 143.851 191.964 143.889C191.613 143.903 191.181 144.021 190.94 144.106C190.885 144.206 190.838 144.346 190.784 144.493C190.761 144.563 190.745 144.625 190.73 144.735" stroke="#131313" stroke-width="0.677528" stroke-linecap="round"/>
<path d="M167.86 160.934C167.814 161.095 167.767 161.454 167.727 161.995C167.694 162.432 167.698 163.202 167.709 163.661C167.882 164.491 168.126 164.77 168.236 164.857C168.288 164.898 168.334 164.932 168.451 165.037" stroke="#131313" stroke-width="0.677528" stroke-linecap="round"/>
<path d="M170.33 161.695C170.33 161.984 170.353 162.378 170.434 162.841C170.49 163.164 170.642 163.502 170.741 163.747C170.847 164.01 171.07 164.43 171.216 164.685C171.448 165.093 171.639 165.381 171.726 165.555C171.856 165.812 172.044 166.215 172.236 166.511C172.381 166.726 172.474 166.934 172.595 167.08C172.636 167.109 172.682 167.132 172.764 167.156" stroke="#131313" stroke-width="0.677528" stroke-linecap="round"/>
<path d="M174.433 161.941C174.433 162.125 174.548 162.933 174.815 163.828C174.877 164.037 175.046 164.488 175.307 165.154C175.561 165.803 175.765 166.205 175.951 166.52C176.067 166.729 176.172 166.891 176.241 166.989C176.276 167.042 176.31 167.099 176.45 167.158" stroke="#131313" stroke-width="0.677528" stroke-linecap="round"/>
<path d="M177.215 161.035C177.319 161.127 177.527 161.382 177.806 161.724C178.182 162.185 178.467 162.98 178.583 163.318C178.759 163.829 178.746 164.118 178.786 164.344C178.834 164.612 178.885 165.02 178.914 165.324C178.931 165.567 178.966 165.73 178.983 165.908C178.989 166.019 178.989 166.168 178.989 166.321" stroke="#131313" stroke-width="0.677528" stroke-linecap="round"/>
<path d="M179.093 159.227C179.487 159.412 179.742 159.574 179.973 159.73C180.453 160.054 180.53 160.454 180.675 160.929C180.854 161.518 180.948 161.764 181.012 162.014C181.099 162.275 181.145 162.552 181.18 162.773C181.191 162.82 181.203 162.866 181.25 163.017" stroke="#131313" stroke-width="0.677528" stroke-linecap="round"/>
<path d="M184.056 147.18C183.706 147.18 182.937 147.238 182.691 147.356C182.496 147.45 182.289 147.651 182.048 147.95C181.816 148.152 181.679 148.386 181.605 148.594C181.59 148.633 181.571 148.672 181.521 148.771" stroke="#131313" stroke-width="0.677528" stroke-linecap="round"/>
<path d="M184.528 149.475C184.509 149.466 183.826 149.446 183.355 149.48C183.134 149.496 182.908 149.622 182.599 149.74C182.343 149.838 182.161 150.025 181.901 150.285C181.729 150.456 181.631 150.761 181.522 151.105C181.502 151.175 181.483 151.223 181.473 151.273C181.463 151.322 181.463 151.371 181.463 151.421" stroke="#131313" stroke-width="0.677528" stroke-linecap="round"/>
<path d="M185.324 150.895C185.236 150.924 185.039 151.041 184.774 151.189C184.528 151.326 184.313 151.444 183.862 151.728C183.563 151.917 183.341 152.131 183.163 152.284C182.997 152.427 182.849 152.613 182.53 153.108C182.218 153.591 182.141 153.792 182.082 153.984C182.031 154.146 181.954 154.361 181.782 154.867C181.728 155.138 181.708 155.393 181.669 155.6C181.659 155.649 181.649 155.688 181.639 155.787" stroke="#131313" stroke-width="0.677528" stroke-linecap="round"/>
<path d="M186.414 152.863C186.346 152.863 186.014 153.077 185.732 153.354C185.416 153.663 185.187 153.884 184.995 154.1C184.817 154.301 184.695 154.474 184.431 154.851C184.229 155.139 183.968 155.358 183.875 155.52C183.749 155.739 183.595 155.996 183.516 156.164C183.431 156.344 183.31 156.527 183.222 156.787C183.118 157.091 182.986 157.332 182.932 157.593C182.858 157.903 182.799 158.089 182.765 158.212C182.75 158.266 182.74 158.305 182.73 158.286" stroke="#131313" stroke-width="0.677528" stroke-linecap="round"/>
<path d="M187.858 154.75C187.849 154.838 187.595 155.559 187.338 156.163C187.099 156.726 186.817 157.009 186.651 157.249C186.425 157.575 186.121 157.981 185.796 158.433C185.601 158.704 185.324 158.905 185.177 159.043C185.098 159.092 185.01 159.161 184.917 159.244C184.872 159.279 184.833 159.298 184.734 159.318" stroke="#131313" stroke-width="0.677528" stroke-linecap="round"/>
<path d="M190.01 155.934C190.01 156.372 189.971 157.18 189.897 157.416C189.793 157.751 189.608 158.425 189.499 158.767C189.384 159.127 189.038 159.47 188.915 159.661C188.763 159.833 188.654 160.01 188.596 160.084C188.566 160.119 188.537 160.148 188.477 160.266" stroke="#131313" stroke-width="0.677528" stroke-linecap="round"/>
<path d="M192.427 156.379C192.495 156.594 192.515 157.277 192.457 157.832C192.428 158.101 192.212 158.42 192.049 158.657C191.907 158.893 191.779 159.07 191.71 159.154C191.671 159.198 191.622 159.247 191.572 159.326" stroke="#131313" stroke-width="0.677528" stroke-linecap="round"/>
<path d="M192.249 163.692C192.169 163.568 192.01 163.214 191.677 162.707C191.391 162.271 190.988 161.986 190.766 161.799C190.538 161.609 190.234 161.427 190.001 161.288C189.904 161.239 189.814 161.195 189.743 161.163C189.707 161.15 189.672 161.141 189.636 161.105" stroke="#131313" stroke-width="0.677528" stroke-linecap="round"/>
<path d="M189.583 165.288C189.538 165.164 189.467 164.952 189.348 164.694C189.246 164.475 188.953 164.1 188.354 163.478C188.08 163.193 187.621 162.82 187.295 162.534C187.108 162.37 186.908 162.276 186.735 162.169C186.659 162.116 186.57 162.063 186.464 162.005C186.41 161.974 186.358 161.939 186.223 161.902" stroke="#131313" stroke-width="0.677528" stroke-linecap="round"/>
<path d="M187.503 167.238C187.335 166.884 187.086 166.527 186.952 166.314C186.751 165.992 186.606 165.781 186.371 165.462C186.283 165.342 185.994 165.063 185.568 164.628C185.072 164.121 184.644 163.978 184.375 163.839C184.143 163.719 183.958 163.595 183.753 163.501C183.612 163.452 183.495 163.416 183.411 163.403C183.362 163.398 183.3 163.398 183.237 163.398" stroke="#131313" stroke-width="0.677528" stroke-linecap="round"/>
<path d="M185.93 169.077C185.797 169.077 185.444 169.041 184.737 168.873C184.363 168.783 184.056 168.713 183.856 168.628C183.711 168.567 183.224 168.27 182.491 167.853C181.883 167.507 181.666 167.345 181.305 167.091C181.089 166.928 180.944 166.802 180.896 166.731C180.873 166.695 180.856 166.66 180.837 166.57" stroke="#131313" stroke-width="0.677528" stroke-linecap="round"/>
<path d="M185.556 171.449C185.327 171.449 184.847 171.466 183.92 171.471C183.522 171.473 183.202 171.431 182.71 171.325C182.35 171.247 182.207 171.218 181.887 171.081C181.486 170.844 181.274 170.721 181.069 170.503C181.033 170.454 181.015 170.418 180.944 170.355" stroke="#131313" stroke-width="0.677528" stroke-linecap="round"/>
<path d="M185.69 173.66C185.514 173.74 185.016 173.882 184.758 173.913C184.45 173.951 184.225 174.033 183.905 174.064C183.824 174.069 183.745 174.078 183.629 174.082C183.514 174.087 183.364 174.087 183.21 174.087" stroke="#131313" stroke-width="0.677528" stroke-linecap="round"/>
<path d="M190.963 173.307C190.384 173.46 190.026 173.162 189.936 173.018C189.892 172.947 189.87 172.866 189.862 172.591C189.855 172.316 189.858 171.86 189.87 171.602C189.885 171.285 189.945 171.117 189.989 170.921C190.018 170.788 190.079 170.549 190.28 170.102C190.853 168.823 191.641 168.271 192.823 167.576C193.859 166.966 195.966 167.545 195.841 168.826" stroke="#131313" stroke-width="0.677528" stroke-linecap="round"/>
<path d="M196.251 168.942C196.027 168.942 195.66 168.901 194.346 168.911C193.446 168.917 193.106 169.37 192.656 169.615C192.196 169.866 191.716 170.553 191.368 171.116C191.15 171.467 191.122 171.903 190.999 172.525C190.855 173.259 191.222 173.762 191.427 174.335C191.621 174.878 191.978 175.335 192.458 175.776C193.457 176.694 195.104 176.584 195.554 176.839C196.389 177.312 196.617 177.625 196.883 178.065C196.955 178.184 197.066 178.279 197.118 178.28C197.444 178.29 197.048 177.547 196.844 176.711C196.731 176.245 196.68 175.183 196.792 174.41C196.85 174.008 197.026 173.239 197.18 172.459C197.419 171.255 197.252 169.883 197.049 169.515C196.783 169.269 196.477 169.086 196.202 168.922C196.068 168.86 195.947 168.84 195.638 168.88" stroke="#131313" stroke-width="0.677528" stroke-linecap="round"/>
</svg>
