<svg width="197" height="149" viewBox="0 0 197 149" fill="none" xmlns="http://www.w3.org/2000/svg">
<path d="M34.6309 49.9609C34.8011 50.5436 35.6573 51.7139 38.017 53.8033C39.6213 55.2238 40.9854 56.2343 42.8757 57.1986C44.7463 58.1529 46.9118 58.4141 51.1129 58.9164C59.4064 59.908 61.8697 58.4191 64.1521 57.5816C65.9161 56.9952 68.9979 55.4959 71.288 53.7757C71.7625 53.3965 72.2732 53.065 73.3151 51.97" stroke="#131313" stroke-width="1.17769" stroke-linecap="round"/>
<path d="M37.7256 53.8281C37.4102 54.0745 36.6972 54.5684 35.864 55.0437C35.1879 55.3545 34.5547 55.7642 34 56.3206C33.7596 56.5503 33.6025 56.6728 33.0835 56.9229" stroke="#131313" stroke-width="1.17769" stroke-linecap="round"/>
<path d="M52.4259 59.2461C52.4258 59.2461 52.4258 59.4015 52.4258 59.8312C52.4258 60.4941 52.4258 61.0886 52.4258 61.9075C52.4258 62.5321 52.4258 63.5811 52.4258 64.6619" stroke="#131313" stroke-width="1.17769" stroke-linecap="round"/>
<path d="M69.4468 55.375C69.7808 55.6378 70.3873 56.5469 70.7405 57.2119C71.0604 57.877 71.3299 58.2558 71.4641 58.5585C71.5317 58.7109 71.5983 58.8611 71.7678 59.2434" stroke="#131313" stroke-width="1.17769" stroke-linecap="round"/>
<path d="M87.2415 49.9609C87.4117 50.5436 88.2679 51.7139 90.6276 53.8033C92.2319 55.2238 93.596 56.2343 95.4863 57.1986C97.3569 58.1529 99.5224 58.4141 103.724 58.9164C112.017 59.908 114.48 58.4191 116.763 57.5816C118.527 56.9952 121.609 55.4959 123.899 53.7757C124.373 53.3965 124.884 53.065 125.926 51.97" stroke="#131313" stroke-width="1.17769" stroke-linecap="round"/>
<path d="M90.3362 53.8281C90.0208 54.0745 89.3078 54.5684 88.4746 55.0437C87.7985 55.3545 87.1653 55.7642 86.6106 56.3206C86.3702 56.5503 86.2131 56.6728 85.6941 56.9229" stroke="#131313" stroke-width="1.17769" stroke-linecap="round"/>
<path d="M105.036 59.2461C105.036 59.2461 105.036 59.4015 105.036 59.8312C105.036 60.4941 105.036 61.0886 105.036 61.9075C105.036 62.5321 105.036 63.5811 105.036 64.6619" stroke="#131313" stroke-width="1.17769" stroke-linecap="round"/>
<path d="M122.057 55.375C122.391 55.6378 122.998 56.5469 123.351 57.2119C123.671 57.877 123.94 58.2558 124.075 58.5585C124.142 58.7109 124.209 58.8611 124.378 59.2434" stroke="#131313" stroke-width="1.17769" stroke-linecap="round"/>
<path d="M78.731 66.3255C78.731 67.7985 78.9951 70.9509 79.3299 71.6747C79.5143 72.0733 79.9742 72.271 80.373 72.3774C80.5888 72.435 80.8599 72.3577 81.106 72.2309C81.9311 71.2988 82.3753 69.4372 82.5767 67.8826C82.5994 67.3118 82.5994 66.3867 82.5994 65.4336" stroke="#131313" stroke-width="1.17769" stroke-linecap="round"/>
<path d="M31.1421 62.7215C30.9769 62.5425 30.3111 62.3635 27.1498 62.3399C25.8598 62.3303 25.0547 63.1683 24.3032 63.9072C23.6909 64.5091 23.7582 65.5868 23.8821 66.5282C24.0403 67.7305 25.9208 67.6554 27.0709 67.7233C28.3013 67.796 30.2185 67.7469 31.1596 67.5672C32.0679 67.3938 32.8066 67.074 33.6001 66.6938C34.7434 66.1459 35.1445 65.1494 35.376 64.2948C35.4348 64.0779 35.3973 63.8035 35.3147 63.6218C34.9591 62.8397 33.8154 62.7672 33.1471 62.6993C32.3961 62.5869 31.7278 62.5425 31.1884 62.4752C30.8142 62.4523 30.236 62.4523 29.6403 62.4523" stroke="#131313" stroke-width="1.17769" stroke-linecap="round"/>
<path d="M136.535 61.5883C136.494 61.5493 132.894 61.5481 130.395 61.706C128.64 61.8168 126.618 62.0992 125.327 62.5327C124.312 62.8737 123.03 63.7124 122.263 64.3652C121.924 64.6538 122.092 65.4083 122.155 66.0776C122.182 66.3617 122.343 66.5128 122.491 66.6323C123.078 67.1051 125.201 67.0285 126.986 66.8126C128.087 66.6796 129.098 66.5956 131.647 66.4377C132.951 66.357 133.785 66.1226 134.526 65.8665C135.303 65.5977 135.982 65.0606 136.512 64.4095C136.779 64.0805 136.788 63.5622 136.725 63.0897C136.282 62.5356 134.857 61.9857 133.687 61.7858C133.455 61.7468 133.162 61.6687 132.481 61.5883" stroke="#131313" stroke-width="1.17769" stroke-linecap="round"/>
<path d="M43.1416 39.1294C43.6125 39.0474 44.3671 38.799 45.9699 38.3654C48.7006 37.6268 49.8025 37.7629 51.1713 37.6598C54.5221 37.4074 55.289 37.8449 56.8705 37.9076C57.7967 38.0523 58.5981 38.2996 59.33 38.589C59.6407 38.7145 59.8279 38.7965 60.1627 38.8809" stroke="#131313" stroke-width="1.17769" stroke-linecap="round"/>
<path d="M94.9783 38.9923C95.4087 38.6901 96.5611 38.1844 97.4544 37.8041C98.3912 37.4051 99.4987 37.2734 100.701 37.0441C101.877 36.8198 102.823 36.9681 104.161 36.8922C109.843 36.5696 110.908 37.2703 111.848 37.473C112.721 37.6613 113.557 38.1814 114.927 38.7873C115.434 39.0408 115.821 39.1942 116.181 39.3453C116.351 39.4463 116.494 39.5966 116.641 39.9033" stroke="#131313" stroke-width="1.17769" stroke-linecap="round"/>
<path d="M19.0118 46.172C18.7719 45.8908 17.9007 45.3268 17.0033 44.9013C16.1639 44.5033 13.7469 44.3345 9.88544 44.9677C8.5902 45.1801 7.5773 45.7452 6.24433 46.2865C3.06457 47.578 2.09709 48.9001 1.4397 49.7263C0.715667 50.6362 0.590323 52.0098 0.588868 53.6805C0.587678 55.0466 1.70149 56.0156 2.33198 56.9111C3.08971 57.9873 4.6074 58.3253 5.96581 58.8214C7.08134 58.9868 8.34231 59.1762 10.8723 59.2469C12.6285 59.2243 15.8441 59.131 19.1573 59.0348" stroke="#131313" stroke-width="1.17769" stroke-linecap="round"/>
<path d="M146.042 43.7734C147.304 43.7734 149.356 43.963 150.652 44.1797C151.5 44.3215 152.289 44.3477 155.746 45.1101C157.472 45.4906 158.882 46.3548 159.81 46.9535C160.811 47.5996 161.422 48.4596 161.961 49.6311C162.482 50.7665 162.304 52.9476 161.964 54.2512C161.648 55.4634 159.77 55.8793 157.916 56.4773C156.579 56.9087 153.537 57.1714 151.202 57.4119C149.482 57.5074 148.192 57.6036 147.633 57.6753C147.268 57.6998 146.736 57.6998 146.188 57.6998" stroke="#131313" stroke-width="1.17769" stroke-linecap="round"/>
<path d="M18.5456 59.6192C18.4981 59.999 18.2119 60.8575 17.9947 61.9072C17.6455 63.5952 17.6366 65.1512 17.61 68.54C17.5959 70.3401 18.6865 71.4142 19.1432 72.2046C19.5677 72.9394 20.3636 73.6127 21.0597 74.4253C21.9307 75.442 23.5191 76.4274 24.7748 77.0071C25.807 77.4837 27.6873 78.2934 29.5196 78.7033C30.0158 78.8143 32.2365 79.5345 35.7797 80.4654C39.2445 81.3756 41.207 81.4951 42.728 81.7373C43.6092 81.8776 46.2827 82.0239 49.6612 82.1193C51.7709 82.1788 52.9146 82.3579 56.7886 82.4303C57.6165 82.4457 57.8536 82.5012 59.6371 82.5492C61.4205 82.5972 64.7429 82.6445 66.5494 82.6925C68.9347 82.7559 69.8862 82.9311 72.4945 83.0035C73.4353 83.0296 73.9651 83.1705 77.3379 83.2185C80.5205 83.2638 86.691 83.1719 90.0357 83.1003C94.3942 83.0069 96.1059 82.6474 98.195 82.5263C99.4249 82.455 101.33 82.2174 103.489 81.9544C106.084 81.6382 108.051 81.1167 109.622 80.9276C113.02 80.5185 115.53 79.9702 116.318 79.9229C118.274 79.8056 119.981 79.4944 123.144 78.6359C124.336 78.3124 125.071 78.2504 126.024 78.1558C127.938 77.9658 130.383 77.2042 132.442 76.393C135.167 75.32 138.204 74.9083 139.309 74.4303C140.2 74.0446 141.179 73.5238 142.828 72.5708C145.662 70.9335 145.83 68.2755 146.358 66.9327C146.771 65.8839 146.696 64.6897 146.815 63.4708C146.792 61.1498 146.601 60.2928 146.289 59.1219C146.217 58.8567 146.169 58.6676 146.12 58.4727" stroke="#131313" stroke-width="1.17769" stroke-linecap="round"/>
<path d="M14.5608 52.3569C14.514 52.3104 13.735 52.03 12.4186 52.0039C11.2187 51.9801 10.7068 52.5444 10.3898 52.7079C10.0736 52.871 10.168 53.4351 10.2405 53.8573C10.3065 54.2421 10.8005 54.3766 11.19 54.4704C12.5189 54.7901 14.3148 54.4725 14.6802 54.1448C15.4874 53.4208 15.293 52.2667 15.1963 51.6332C15.0532 50.6948 13.5417 50.4796 12.636 50.2203C12.4156 50.1498 12.174 50.0568 10.8174 50.0089C9.46073 49.9609 6.99634 49.9609 4.45728 49.9609" stroke="#131313" stroke-width="1.17769" stroke-linecap="round"/>
<path d="M147.711 49.7509C147.942 49.6237 149.577 49.4951 150.718 49.7391C151.25 49.8529 151.447 50.5797 151.564 51.0916C151.654 51.484 151.512 51.8177 151.355 51.9773C150.924 52.4128 149.744 52.3089 148.759 52.118C148.104 51.991 147.797 51.6284 147.48 51.2339C147.164 50.841 146.931 50.2433 146.835 49.8484C146.773 49.5907 146.866 49.3468 146.982 49.1767C147.318 48.6815 148.131 48.5154 148.764 48.2811C149.309 48.0795 150.302 48.0461 151.367 47.9505C152.035 47.8337 152.669 47.7263 153.448 47.6624C153.831 47.6406 154.186 47.6406 154.552 47.6406" stroke="#131313" stroke-width="1.17769" stroke-linecap="round"/>
<path d="M80.2783 28.2969C80.0137 28.4736 79.4831 29.1858 79.0389 29.8785C78.5692 30.6112 77.5788 31.1483 76.7351 31.9977C76.1318 32.6051 74.4831 33.4214 72.7704 34.7186C71.8297 35.431 70.1827 35.5231 67.7864 35.8819C66.8117 36.0278 65.3955 36.0613 63.8822 36.2835C63.042 36.4069 62.4168 36.4629 62.2825 36.3966C61.4451 35.9834 63.7413 35.1269 64.2087 34.4796C64.6519 33.8659 65.3822 33.4321 66.1355 32.584C66.8172 31.8166 67.2439 30.9341 67.6661 30.0626C68.0631 29.2431 68.3542 28.6556 68.3768 28.4763C68.4508 27.8895 67.4274 29.4107 66.585 30.0566C65.3693 30.9887 63.7945 31.997 62.9062 32.4897C61.7925 33.1073 61.0445 33.3812 59.343 34.25C56.8447 35.5258 55.4196 35.7454 53.7115 36.2159C52.2874 36.6082 50.3744 37.3063 47.7794 37.6001C41.39 38.3236 39.8559 38.3812 39.5448 38.404C38.9341 38.4487 41.3506 37.0492 42.3772 36.2199C43.0596 35.6686 44.058 35.084 44.9257 34.4127C45.8345 33.7095 46.3213 32.7628 46.7235 32.1142C46.787 32.0118 46.4622 31.9569 46.1737 32.0666C44.8895 32.5552 44.2468 33.2929 43.4463 33.7835C42.6356 34.2804 41.7203 34.9877 40.9417 35.6349C40.2607 36.201 39.457 36.728 38.5494 37.242C37.5729 37.7951 36.6645 38.4683 35.6472 39.1818C34.2525 40.1601 32.9917 41.0975 31.6572 42.2822C30.6745 43.1547 29.7497 43.9114 29.2171 44.8264C28.8083 45.5287 28.2869 46.0988 27.7544 46.7902C27.1546 47.5689 26.6912 48.6825 26.0922 49.9127C25.6658 50.7883 25.2285 51.8097 24.9166 52.6356C24.4596 53.8462 23.6753 55.2903 23.4978 56.0051C23.1999 57.2045 23.1886 50.57 22.8335 49.4522C22.4871 48.3616 21.9918 47.4 21.5264 46.6396C21.3269 46.2835 21.1926 45.9248 21.0603 45.5908C20.9719 45.4335 20.8402 45.3009 20.7046 45.1644" stroke="#131313" stroke-width="1.17769" stroke-linecap="round"/>
<path d="M80.2783 27.5234C80.7621 27.7868 81.913 28.5848 82.6234 29.1175C83.5284 29.7962 84.8768 30.0479 85.9679 30.3379C87.0361 30.6218 88.3375 30.9817 90.9876 31.5775C92.9689 32.023 94.2251 32.0883 95.3149 32.2007C95.8242 32.2532 96.5323 32.3117 97.0872 32.3117C97.9701 32.3117 94.2863 30.7688 93.4377 29.7653C93.1172 29.3863 92.9493 28.944 92.926 28.7218C92.7629 27.1635 97.3244 30.4895 98.4382 30.848C100.195 31.4134 102.468 31.91 104.459 32.4427C105.899 32.8282 106.941 33.0646 108.337 33.5288C110.292 34.1785 112.566 34.7937 113.854 35.1036C114.904 35.3561 116.024 35.7247 117.265 36.145C118.217 36.4674 119.61 37.0521 121.846 38.0936C123.424 38.828 124.617 39.8001 125.462 40.4671C126.697 41.4429 127.545 41.9309 127.921 42.1091C128.063 42.1763 128.166 41.9362 128.211 41.6702C128.412 40.4887 127.772 39.4117 127.063 38.2346C126.548 37.3814 126.087 36.9245 125.975 36.6584C125.449 35.4134 129.006 37.3208 129.847 37.6527C131.25 38.2061 133.115 38.7812 134.852 39.3372C136.416 39.838 137.246 40.1565 137.934 40.6892C138.567 41.1799 139.152 41.7526 139.706 42.3073C140.351 42.9525 140.659 43.7025 141.08 44.6555C141.436 45.4607 141.764 46.5808 142.143 47.7799C142.713 49.5825 142.918 50.6615 143.273 52.0362C143.533 53.0438 143.894 53.8989 143.939 54.3252C144.081 55.6691 144.072 51.7389 144.182 50.8025C144.276 50.0072 144.337 47.9774 144.58 46.6573C144.736 45.7921 144.824 45.0832 145.001 44.5525C145.09 44.2851 145.177 44.0218 145.268 43.3514" stroke="#131313" stroke-width="1.17769" stroke-linecap="round"/>
<path d="M80.2783 7.7854C80.0887 7.39989 78.9451 6.33648 77.1479 5.50874C76.1997 5.07199 75.3019 5.07086 74.1282 5.09341C73.4183 5.10705 75.6266 7.67193 76.0877 9.11575C76.1547 9.32539 76.1122 9.57472 74.3818 9.72237C72.6514 9.87003 69.1906 9.91804 67.076 9.99077C64.2942 10.0865 63.2345 10.4025 61.6169 10.8607C58.3276 11.7925 55.8116 12.2936 54.4081 12.6558C53.3488 12.9292 51.5349 13.1621 49.6113 13.5745C47.6877 13.9869 45.6966 14.515 44.1257 15.0511C41.4142 15.9763 39.3928 17.3314 37.7429 18.4697C36.0227 19.6565 34.2239 20.5783 32.8987 21.481C31.2916 22.5756 29.532 24.0202 27.3225 26.0838C26.2343 27.1001 24.978 28.4339 23.9666 29.3613C23.0295 30.2206 22.53 31.4452 21.5022 33.1145C20.2874 35.0874 19.5132 36.3418 18.8423 37.6511C18.3676 38.5775 17.9789 39.5422 17.5487 40.8515C17.2606 41.7272 16.6889 43.1732 16.2313 44.5378C16.1588 44.7822 16.1113 44.9742 16.0625 45.3175" stroke="#131313" stroke-width="1.17769" stroke-linecap="round"/>
<path d="M12.4519 59.2461C12.4032 59.6222 12.0127 60.5659 11.3982 62.337C10.8195 64.0047 10.147 65.6663 9.40863 67.4715C9.10749 68.2078 9.01367 68.7998 9.18315 68.99C10.4255 70.3841 12.5933 66.7279 13.4555 65.9878C14.1142 66.2425 15.1959 67.1394 16.3491 68.1562C16.8215 68.5174 17.0646 68.5643 17.6099 68.8963" stroke="#131313" stroke-width="1.17769" stroke-linecap="round"/>
<path d="M81.052 8.10023C81.2414 7.81245 83.4258 6.56729 85.067 5.69163C86.0314 5.17702 87.4558 5.11244 88.3212 5.08641C89.8578 5.04019 88.5638 8.43575 88.515 8.72498C88.3909 9.46024 91.2275 9.11256 92.888 9.23259C93.7285 9.29334 94.5859 9.40179 95.6867 9.54568C96.8511 9.69789 98.171 10.2666 99.8437 10.5811C103.667 11.3001 104.678 11.8574 105.686 12.1965C106.979 12.6317 107.933 12.9189 108.891 13.425C109.891 13.9533 111.848 14.6022 113.054 15.065C114.246 15.5227 115.876 15.9096 117.476 16.5336C118.74 17.0267 120.181 17.5958 121.495 18.1005C122.986 18.6734 124.624 19.8085 125.969 20.4151C127.018 20.8883 128.072 21.4484 129.15 22.1014C130.945 23.1876 132.377 24.0515 133.242 24.7529C134.225 25.5506 135.153 26.1254 136.636 27.2816C137.712 28.1198 138.408 28.7776 139.459 29.6439C141.502 31.3272 142.998 33.5905 143.768 34.8031C144.503 35.9615 145.728 37.741 146.327 38.898C147.309 41.2625 147.549 42.1793 147.739 42.7795C147.882 43.141 148.119 43.6183 148.363 44.5438" stroke="#131313" stroke-width="1.17769" stroke-linecap="round"/>
<path d="M153.712 58.4727C154.034 58.9373 155.054 59.8735 155.82 60.5059C156.762 61.2835 158.117 61.4667 158.396 61.6064C158.49 61.6534 158.307 61.8387 157.984 61.9103C156.486 62.2416 154.792 61.5636 153.368 61.2576C153.065 61.1924 152.699 61.0947 152.441 61.1628C151.413 61.4338 151.349 63.2395 150.745 64.5267C150.195 65.6997 150.465 66.3782 150.327 66.7284C150.257 66.9044 150.097 67.0323 149.888 66.9649C149.404 66.6196 148.752 65.5921 148.173 64.3534C147.96 63.8558 147.915 63.6242 147.589 62.9644" stroke="#131313" stroke-width="1.17769" stroke-linecap="round"/>
<path d="M36.229 81.5892C35.9062 81.7969 35.1521 82.9457 34.7701 83.9465C34.6157 84.3511 34.6071 84.9945 34.6606 85.7278C34.7326 86.7138 35.9533 87.4588 36.9548 88.0395C38.328 88.8357 40.2221 88.8782 41.2803 89.0112C42.3433 89.1448 43.3069 89.4038 46.1111 89.4833C47.7993 89.5311 49.3046 89.7186 51.4933 89.798C54.3789 89.9028 58.28 90.0333 59.8216 90.1128C60.1765 90.1311 60.4436 90.1907 65.5055 90.1914C70.5673 90.1922 80.4154 90.1403 86.1308 90.0356C93.1347 89.9074 94.936 89.6147 95.7997 89.5628C96.4675 89.5226 98.9728 89.248 102.566 89.1174C105.501 89.0108 107.854 88.3054 108.966 88.1725C111.189 87.9066 114.556 87.8334 115.859 87.5438C116.416 87.4201 118.868 86.8388 122.381 86.1315C125.255 85.5526 127.265 84.7396 128.59 84.0047C129.6 83.4446 130.726 83.0086 131.242 82.1958C131.433 80.7568 131.326 79.1265 131.11 78.6292C131.002 78.3916 130.895 78.1839 130.784 77.8125" stroke="#131313" stroke-width="1.17769" stroke-linecap="round"/>
<path d="M47.01 81.6836C46.778 81.9024 46.4062 82.8939 46.2881 83.9731C46.1714 85.4338 46.2636 87.2077 46.4495 87.6487C46.5432 87.8709 46.6354 88.0897 46.8702 88.6468" stroke="#131313" stroke-width="1.17769" stroke-linecap="round"/>
<path d="M53.1995 82.457C53.1995 84.1365 53.3196 86.5347 53.5626 87.5721C53.8279 88.7043 53.9859 89.6942 54.3208 90.7578C54.4723 91.2386 54.836 91.604 55.1692 91.7412C55.3221 91.7167 55.4422 91.5011 55.6243 91.2822C55.8063 91.0633 56.0466 90.8476 56.2942 90.6254" stroke="#131313" stroke-width="1.17769" stroke-linecap="round"/>
<path d="M60.9363 84.0039C61.0639 84.6741 61.1935 85.4103 61.386 86.2819C61.5146 86.7626 61.7061 87.3211 61.8686 87.8043C62.031 88.2875 62.1587 88.6784 62.4836 89.4197" stroke="#131313" stroke-width="1.17769" stroke-linecap="round"/>
<path d="M67.8994 83.2305C67.8994 83.658 67.8994 85.4279 67.9249 87.9095C67.9505 88.8415 68.0015 89.1087 68.0789 89.3532C68.1563 89.5977 68.2584 89.8115 68.6731 90.1936" stroke="#131313" stroke-width="1.17769" stroke-linecap="round"/>
<path d="M74.8625 84.0039C75.056 84.3369 75.3113 86.0121 75.9883 88.0338C76.4737 89.1035 76.6672 89.8318 76.7958 90.4188C76.8606 90.7282 76.9244 91.0613 77.1836 91.7407" stroke="#131313" stroke-width="1.17769" stroke-linecap="round"/>
<path d="M81.052 84.0039C81.1087 84.6679 81.4509 86.4395 81.8816 87.9475C82.0251 88.448 82.1971 88.9501 82.369 89.5599C82.4274 89.8943 82.4274 90.2797 82.5994 90.1763" stroke="#131313" stroke-width="1.17769" stroke-linecap="round"/>
<path d="M87.2415 83.2305C87.2415 83.3326 87.2415 83.9469 87.3053 85.1554C87.4968 86.5171 87.7134 87.4579 87.8424 87.895C87.8862 88.1279 87.8862 88.3832 88.0151 88.6463" stroke="#131313" stroke-width="1.17769" stroke-linecap="round"/>
<path d="M93.4309 84.7773C93.4309 84.9876 93.4309 85.1979 93.4309 85.937C93.4309 86.6761 93.4309 87.9376 93.431 88.7189C93.431 89.5002 93.431 89.7631 93.431 90.1931" stroke="#131313" stroke-width="1.17769" stroke-linecap="round"/>
<path d="M99.6204 84.0039C99.7906 85.1273 100.006 86.4209 100.221 87.6062C100.308 88.0766 100.35 88.2808 100.372 88.6669C100.394 89.053 100.394 89.6147 100.394 90.1934" stroke="#131313" stroke-width="1.17769" stroke-linecap="round"/>
<path d="M108.131 82.457C108.131 82.5627 108.131 82.9341 108.131 83.7576C108.131 84.951 108.131 85.9226 108.131 86.4284C108.131 86.6701 108.131 86.8814 108.131 87.0991" stroke="#131313" stroke-width="1.17769" stroke-linecap="round"/>
<path d="M112.773 81.6836C113.194 82.9021 113.662 84.0665 114.015 85.0517C114.132 85.5543 114.226 86.0353 114.297 86.459C114.321 86.6725 114.321 86.8828 114.321 87.0994" stroke="#131313" stroke-width="1.17769" stroke-linecap="round"/>
<path d="M119.736 80.9102C120.044 81.1322 120.662 82.027 121.256 82.9251C121.386 83.1505 121.488 83.3725 121.592 83.5979C121.695 83.8232 121.797 84.0453 122.057 84.7786" stroke="#131313" stroke-width="1.17769" stroke-linecap="round"/>
<path d="M79.2803 107.476C79.2239 107.007 78.9036 106.219 78.5429 105.536C78.1773 104.843 77.8109 104.102 77.3545 103.448C76.8415 102.714 75.8531 102.3 74.7914 101.914C72.1886 100.969 70.8254 101.871 69.8231 102.442C68.9086 102.963 68.3542 103.946 67.5977 104.558C66.8098 105.195 66.1071 106.059 65.2449 106.631C65.0414 106.759 64.8888 106.87 64.752 107.009C64.6151 107.148 64.4987 107.311 64.3117 107.882" stroke="#131313" stroke-width="1.17769" stroke-linecap="round"/>
<path d="M72.9046 101.169C72.8687 100.835 72.4392 100.104 71.6732 99.574C70.9933 99.1034 70.1448 98.9182 68.5463 98.697C67.5603 98.5606 66.9388 99.6061 66.3074 100.208C65.5539 100.927 64.9624 102.058 64.5514 102.862C63.9764 103.546 63.4967 104.219 63.0373 104.897C62.9387 105.071 62.8641 105.245 62.7644 105.562" stroke="#131313" stroke-width="1.17769" stroke-linecap="round"/>
<path d="M65.5047 100.367C65.1067 100.301 63.9965 100.391 62.9689 101.054C62.0776 101.629 61.5721 102.859 61.0632 103.705C60.5247 104.601 60.0308 105.249 59.601 106.036C59.3825 106.394 59.2315 106.741 59.1276 107.094C59.0534 107.268 58.9356 107.432 58.7693 107.872" stroke="#131313" stroke-width="1.17769" stroke-linecap="round"/>
<path d="M74.0889 105.668C74.0638 105.811 74.4754 106.474 75.0598 107.414C75.5093 108.138 76.1548 108.688 76.7856 109.093C77.5299 109.571 78.474 109.426 78.7893 109.232C78.9208 109.105 78.9945 108.921 79.0919 108.467C79.1894 108.014 79.3084 107.297 79.431 106.558" stroke="#131313" stroke-width="1.17769" stroke-linecap="round"/>
<path d="M73.252 105.658C72.9366 105.899 72.3795 106.479 71.8886 107.073C71.3763 107.692 70.5485 108.071 69.7798 108.388C69.4509 108.564 69.1082 108.678 68.7364 108.7C68.5491 108.711 68.3646 108.722 68.0398 108.711" stroke="#131313" stroke-width="1.17769" stroke-linecap="round"/>
<path d="M67.8647 109.658C66.4429 111.252 66.7158 112.413 66.7023 113.483C66.6922 114.28 66.9334 115.072 67.1548 115.862C67.435 116.863 67.843 117.529 68.3128 118.25C68.5555 118.623 68.8889 118.901 69.1502 119.166C70.3772 119.55 72.0405 119.783 72.405 119.712C72.5809 119.653 72.7384 119.547 73.3562 119.249" stroke="#131313" stroke-width="1.17769" stroke-linecap="round"/>
<path d="M73.3152 107.215C73.3022 107.293 73.2969 107.536 73.3403 107.909C73.6796 108.417 74.1274 108.694 74.7815 108.987C75.251 109.127 75.9997 109.252 76.894 109.279" stroke="#131313" stroke-width="1.17769" stroke-linecap="round"/>
<path d="M70.9941 108.762C71.0221 108.766 71.0501 108.771 71.2044 108.797C71.3587 108.823 71.6386 108.869 71.8807 108.91C72.1228 108.95 72.3186 108.983 72.5205 109.016" stroke="#131313" stroke-width="1.17769" stroke-linecap="round"/>
<path d="M72.5071 119.028C73.0984 119.02 73.6588 119.007 76.4672 119.475C77.6171 119.666 78.0773 120.141 78.6682 120.519C79.1434 120.851 79.4682 121.144 79.6692 121.337C79.763 121.432 79.8402 121.524 79.9197 121.619" stroke="#131313" stroke-width="1.17769" stroke-linecap="round"/>
<path d="M81.3545 122.481C81.5088 122.774 81.5614 123.692 81.4143 124.274C81.3552 124.508 81.2121 124.58 81.0685 124.625C80.431 124.822 79.7143 124.804 78.9841 124.801C77.6569 124.795 76.8653 124.566 76.1354 124.545C75.1136 124.477 73.7802 124.288 73.4589 124.285C73.274 124.271 73.0447 124.233 72.8085 124.194" stroke="#131313" stroke-width="1.17769" stroke-linecap="round"/>
<path d="M73.1443 123.961C72.3705 123.72 70.6409 123.946 69.5046 124.151C68.6815 124.299 67.6918 124.35 67.0114 124.403C66.3866 124.452 65.6796 124.459 65.0316 124.518C64.3763 124.578 63.6673 124.569 62.5946 124.447C62.3503 124.424 62.2184 124.439 61.8987 124.405C61.5789 124.37 61.0752 124.286 60.5563 124.2" stroke="#131313" stroke-width="1.17769" stroke-linecap="round"/>
<path d="M58.9535 107.658C58.4849 108.612 57.3042 110.434 56.7158 111.047C56.2949 111.486 55.9663 112.07 55.609 112.611C54.9921 113.545 55.1449 115.116 55.2463 115.732C55.3451 116.332 55.3881 116.858 55.4674 117.423C55.5836 118.25 55.86 118.921 55.978 119.445C56.1016 119.995 56.4394 120.53 56.7243 121.082C56.9967 121.609 57.4253 121.955 57.8394 122.293C58.2459 122.624 58.8167 122.818 59.3009 123.119C59.524 123.282 59.7588 123.385 59.9997 123.441C60.1198 123.476 60.2356 123.527 60.6293 123.625" stroke="#131313" stroke-width="1.17769" stroke-linecap="round"/>
<path d="M81.4285 107.47C81.4306 106.998 81.6578 106.178 81.9373 105.457C82.2206 104.727 82.4992 103.949 82.8772 103.246C83.302 102.457 84.236 101.932 85.2461 101.426C87.7223 100.186 89.1802 100.924 90.2415 101.375C91.2098 101.787 91.8738 102.7 92.6956 103.22C93.5516 103.762 94.3491 104.539 95.2713 105.007C95.4882 105.111 95.6526 105.204 95.8046 105.326C95.9565 105.448 96.0909 105.597 96.3424 106.143" stroke="#131313" stroke-width="1.17769" stroke-linecap="round"/>
<path d="M87.3121 100.627C87.3093 100.291 87.6517 99.5154 88.3513 98.9001C88.9724 98.354 89.7938 98.0719 91.356 97.6673C92.3195 97.4177 93.0573 98.3844 93.7538 98.9096C94.585 99.5362 95.3028 100.592 95.8037 101.343C96.4536 101.956 97.0076 102.568 97.5421 103.19C97.66 103.35 97.7542 103.515 97.8898 103.819" stroke="#131313" stroke-width="1.17769" stroke-linecap="round"/>
<path d="M94.4171 99.436C94.8048 99.3241 95.9179 99.2855 97.0149 99.8253C97.9664 100.294 98.6103 101.457 99.2132 102.239C99.8512 103.066 100.416 103.653 100.934 104.385C101.192 104.715 101.382 105.043 101.526 105.381C101.62 105.546 101.756 105.695 101.972 106.113" stroke="#131313" stroke-width="1.17769" stroke-linecap="round"/>
<path d="M86.468 105.668C86.5094 105.807 86.1769 106.513 85.7049 107.515C85.3418 108.286 84.7642 108.907 84.1844 109.383C83.5001 109.944 82.5457 109.909 82.2102 109.752C82.0649 109.641 81.9705 109.467 81.8215 109.027C81.6724 108.588 81.4717 107.89 81.2648 107.17" stroke="#131313" stroke-width="1.17769" stroke-linecap="round"/>
<path d="M87.4236 105.409C87.7647 105.612 88.3849 106.124 88.9409 106.657C89.5211 107.213 90.3869 107.494 91.1869 107.719C91.5338 107.856 91.8873 107.93 92.2592 107.909C92.4465 107.898 92.631 107.888 92.9523 107.839" stroke="#131313" stroke-width="1.17769" stroke-linecap="round"/>
<path d="M93.4848 108.2C95.0806 109.618 94.9433 110.804 95.08 111.865C95.1819 112.656 95.0336 113.47 94.9048 114.281C94.7419 115.308 94.4134 116.016 94.0299 116.787C93.8317 117.186 93.5327 117.501 93.3037 117.794C92.1292 118.317 90.5041 118.741 90.1338 118.712C89.9523 118.674 89.7838 118.587 89.1357 118.362" stroke="#131313" stroke-width="1.17769" stroke-linecap="round"/>
<path d="M88.0154 106.441C88.0374 106.518 88.0706 106.758 88.0704 107.134C87.792 107.677 87.3792 108.005 86.7632 108.371C86.3131 108.565 85.5839 108.776 84.6988 108.906" stroke="#131313" stroke-width="1.17769" stroke-linecap="round"/>
<path d="M90.3364 107.988C90.3092 107.996 90.2819 108.004 90.1316 108.047C89.9813 108.091 89.7088 108.17 89.473 108.238C89.2372 108.306 89.0464 108.361 88.8498 108.418" stroke="#131313" stroke-width="1.17769" stroke-linecap="round"/>
<path d="M89.6208 118.249C89.0326 118.31 88.4745 118.362 85.7391 119.151C84.619 119.474 84.2167 119.999 83.6733 120.443C83.2396 120.827 82.9508 121.156 82.7734 121.371C82.6913 121.477 82.6252 121.577 82.5571 121.68" stroke="#131313" stroke-width="1.17769" stroke-linecap="round"/>
<path d="M81.7322 122.628C81.6126 122.937 81.6663 123.856 81.8795 124.417C81.9651 124.642 82.1156 124.697 82.2632 124.725C82.9192 124.847 83.629 124.747 84.3539 124.659C85.6714 124.5 86.4312 124.181 87.1537 124.076C88.1607 123.889 89.4633 123.547 89.7821 123.507C89.9641 123.472 90.1875 123.408 90.4175 123.341" stroke="#131313" stroke-width="1.17769" stroke-linecap="round"/>
<path d="M89.2788 123.816C90.0197 123.488 91.7636 123.512 92.9158 123.584C93.7504 123.636 94.7392 123.572 95.4211 123.546C96.0473 123.523 96.7504 123.448 97.4008 123.432C98.0584 123.415 98.7616 123.325 99.8129 123.079C100.053 123.028 100.186 123.028 100.499 122.957C100.813 122.885 101.304 122.744 101.809 122.598" stroke="#131313" stroke-width="1.17769" stroke-linecap="round"/>
<path d="M102.446 105.642C103.022 106.536 104.404 108.209 105.059 108.75C105.528 109.138 105.922 109.68 106.339 110.176C107.059 111.032 107.088 112.611 107.059 113.234C107.03 113.841 107.048 114.369 107.034 114.939C107.014 115.775 106.817 116.473 106.76 117.008C106.7 117.568 106.427 118.138 106.207 118.72C105.997 119.276 105.611 119.668 105.239 120.052C104.874 120.428 104.329 120.686 103.883 121.041C103.68 121.229 103.459 121.359 103.226 121.442C103.111 121.491 103.001 121.555 102.622 121.698" stroke="#131313" stroke-width="1.17769" stroke-linecap="round"/>
<path d="M57.3377 110.822C57.2125 110.607 57.1714 110.276 57.1167 109.926C57.0369 109.414 56.7835 109.219 56.5957 108.993C56.2908 108.625 55.8366 108.428 55.579 108.327C54.8573 108.045 53.497 107.971 53.1752 108.015C52.8645 108.058 52.398 108.096 52.0052 108.226C51.6116 108.356 51.3054 108.37 51.0173 108.5C50.7643 108.615 50.4693 108.75 50.1043 109.054C49.7353 109.362 49.3016 110.064 48.9301 110.694C48.7173 111.055 48.6767 111.489 48.4875 112.387C48.3516 113.033 48.1663 114.273 48.0631 114.943C47.9207 115.868 47.9128 116.383 47.8925 116.747C47.875 117.06 47.8386 117.412 47.8304 117.704C47.8176 118.154 47.8064 118.48 47.8926 119.41C47.9391 119.912 48.0162 120.319 48.0914 120.64C48.219 121.185 48.3206 121.587 48.3945 122.063C48.4714 122.559 48.7551 122.847 49.0949 123.561C49.2958 123.983 49.5759 124.397 49.857 124.746C50.1371 125.093 50.3954 125.38 50.6812 125.695C50.9505 125.992 51.2282 126.283 51.6716 126.744C52.5612 127.67 53.3799 128.445 53.8332 128.764C54.4674 129.21 54.8875 129.266 55.1733 129.338C56.117 129.577 57.5498 129.711 58.1184 129.635C58.5842 129.573 58.8519 129.538 59.1175 129.444C59.4161 129.338 59.8929 128.982 60.245 128.762C60.5693 128.56 61.0366 128.407 61.3681 128.202C61.7577 127.962 61.9536 127.731 62.2896 127.406C62.5666 127.138 62.6342 126.355 62.649 125.686C62.6127 125.517 62.5529 125.2 62.4777 124.781C62.441 124.61 62.4075 124.524 62.3259 124.428" stroke="#131313" stroke-width="1.17769" stroke-linecap="round"/>
<path d="M56.7198 112.207C56.4181 111.816 56.1495 111.432 55.7393 111.037C55.4541 110.762 55.0107 110.56 54.3774 110.298C54.1539 110.205 53.3603 110.071 52.2142 109.894C51.292 109.826 51.0237 109.837 50.5713 109.953C50.4306 109.994 50.2746 110.038 50.0096 110.109" stroke="#131313" stroke-width="1.17769" stroke-linecap="round"/>
<path d="M55.3294 114.354C55.2204 114.234 54.9385 113.982 54.607 113.73C54.4423 113.604 53.5267 113.437 52.2335 113.264C51.4421 113.158 51.0593 113.504 50.6629 113.687C50.4608 113.78 49.8722 114.312 49.0721 115.128C48.3267 116.078 48.018 116.662 47.9589 116.823C47.9292 116.904 47.8999 116.984 47.7974 117.208" stroke="#131313" stroke-width="1.17769" stroke-linecap="round"/>
<path d="M56.1884 117.644C56.0557 117.535 55.3871 117.32 54.8022 117.316C54.6195 117.316 54.4657 117.46 54.1834 117.594C53.6883 117.829 52.7359 118.261 51.6798 118.682C50.9334 118.98 50.5843 119.515 50.295 119.876C50.0869 120.136 49.6659 120.781 49.4013 121.296C49.3626 121.377 49.3162 121.455 49.2841 121.545C49.2519 121.635 49.2352 121.736 49.2181 121.839" stroke="#131313" stroke-width="1.17769" stroke-linecap="round"/>
<path d="M56.2521 121.649C55.8221 121.735 54.6089 122.263 53.9925 122.735C53.6465 123 53.3342 123.831 53.1207 124.325C52.9854 124.638 52.6892 125.189 52.5046 125.861C52.4673 125.999 52.4217 126.101 52.3848 126.191C52.348 126.282 52.3214 126.356 52.3284 126.486" stroke="#131313" stroke-width="1.17769" stroke-linecap="round"/>
<path d="M58.3942 123.682C58.4724 123.964 58.4977 124.378 58.1742 126.236C57.9978 127.25 57.3901 127.948 57.1861 128.32C57.0349 128.597 56.8211 128.822 56.5478 129.196C56.4773 129.288 56.4194 129.357 56.3631 129.411C56.3068 129.466 56.2539 129.504 56.0546 129.567" stroke="#131313" stroke-width="1.17769" stroke-linecap="round"/>
<path d="M60.3833 125.045C60.5359 125.376 60.6984 125.757 60.7035 126.474C60.4065 127.871 60.0763 128.268 59.807 128.522C59.7398 128.584 59.6748 128.637 59.5293 128.824" stroke="#131313" stroke-width="1.17769" stroke-linecap="round"/>
<path d="M105.009 108.408C105.13 108.13 105.501 107.694 106.009 107.341C106.431 107.048 106.861 107.021 108.11 107.005C109.247 106.99 110.935 107.721 111.618 108.236C112.036 108.552 112.416 109.066 112.897 110.156C113.473 111.457 113.642 113.585 113.63 114.259C113.62 114.834 113.539 115.712 113.476 116.466C113.454 116.724 113.43 116.971 113.304 117.952C113.194 118.812 112.911 120.396 112.732 121.329C112.439 122.849 112.213 123.402 111.945 124.045C111.483 125.149 110.198 125.957 109.418 126.407C108.92 126.695 108.196 126.403 107.305 126.368C105.866 126.31 104.691 125.846 104.284 125.591C103.713 125.234 103.099 123.865 102.763 123.081C102.706 122.897 102.626 122.636 102.58 122.452C102.535 122.268 102.527 122.168 102.482 121.834" stroke="#131313" stroke-width="1.17769" stroke-linecap="round"/>
<path d="M106.977 110.278C107.038 110.073 107.193 109.796 107.438 109.507C107.708 109.189 107.957 109.048 108.228 108.891C108.651 108.644 109.338 108.594 109.662 108.572C110.044 108.546 110.509 108.599 110.753 108.563C110.828 108.563 110.92 108.578 110.99 108.609C111.061 108.639 111.107 108.685 111.155 108.732" stroke="#131313" stroke-width="1.17769" stroke-linecap="round"/>
<path d="M106.998 112.579C106.982 112.59 106.967 112.602 106.988 112.598C107.212 112.563 108.463 111.868 109.324 111.502C109.779 111.309 110.624 111.104 111.178 110.997C111.362 110.985 112.081 111.091 113.047 111.259C113.392 111.323 113.444 111.346 113.443 111.445" stroke="#131313" stroke-width="1.17769" stroke-linecap="round"/>
<path d="M107.104 115.702C107.564 115.541 108.057 115.381 108.521 115.256C108.877 115.16 109.559 115.047 110.416 114.859C110.885 114.756 111.662 114.884 112.643 115.063C113.041 115.173 113.14 115.236 113.247 115.291C113.304 115.323 113.365 115.363 113.413 115.492" stroke="#131313" stroke-width="1.17769" stroke-linecap="round"/>
<path d="M107.252 117.908C107.79 117.766 108.269 117.653 108.661 117.594C109.022 117.54 109.795 117.673 110.79 117.853C111.652 118.009 111.915 118.187 112.132 118.296C112.252 118.389 112.347 118.493 112.416 118.6C112.456 118.658 112.506 118.724 112.573 118.927" stroke="#131313" stroke-width="1.17769" stroke-linecap="round"/>
<path d="M106.583 120.367C106.672 120.592 106.962 121.141 107.127 121.454C107.39 121.954 108.068 122.738 108.461 123.175C108.754 123.501 109.114 123.864 109.37 124.093C109.604 124.302 109.848 124.502 110.094 124.669C110.348 124.784 110.657 124.915 110.896 125.001C110.994 125.024 111.141 125.049 111.292 125.074" stroke="#131313" stroke-width="1.17769" stroke-linecap="round"/>
<path d="M105.036 121.141C105.081 121.578 105.157 122.195 105.268 123.434C105.342 124.256 105.564 124.552 105.717 124.794C105.892 125.071 106.06 125.397 106.161 125.638C106.189 125.693 106.225 125.742 106.279 125.816C106.334 125.889 106.405 125.987 106.566 126.102" stroke="#131313" stroke-width="1.17769" stroke-linecap="round"/>
<path d="M81.5918 112.093C81.9676 110.648 84.0743 110.813 84.1424 112.202C84.2653 114.709 81.7475 116.78 81.7475 118.819C81.2295 117.114 77.9347 115.479 77.9574 113.654C77.9857 111.383 80.6371 112.593 81.3455 113.823C81.6397 114.333 81.4449 112.658 81.5918 112.093Z" stroke="#FF0404" stroke-width="1.17769" stroke-linecap="round"/>
<path d="M79.3199 112.64C79.2608 112.976 79.2244 113.202 79.1917 113.377C79.132 113.699 79.0335 113.98 78.9767 114.12C78.8976 114.316 78.8958 113.203 78.8838 112.984C78.8816 112.944 78.8361 113.123 78.7974 113.328C78.7217 113.728 78.7284 114.149 78.7343 114.41C78.7379 114.569 78.7879 114.673 78.8385 114.755C78.8601 114.79 78.8951 114.791 78.9221 114.792C78.9492 114.792 78.9729 114.785 79.1418 114.613C79.3108 114.442 79.6243 114.105 79.8154 113.886C80.0763 113.588 80.1503 113.438 80.1861 113.395C80.2207 113.354 80.0918 113.917 79.9275 114.565C79.8589 114.835 79.8577 114.903 79.8577 114.896C79.8577 114.576 79.9825 114.107 80.031 113.996C80.0657 113.917 79.9839 114.29 79.9035 114.63C79.8231 114.97 79.6989 115.436 79.6349 115.699C79.5605 116.004 79.565 116.08 79.556 116.135C79.5513 116.165 79.553 116.197 79.5766 116.185C79.6631 116.139 79.7792 115.918 79.9816 115.527C80.2934 114.926 80.4312 114.491 80.461 114.423C80.4761 114.388 80.479 114.348 80.485 114.671C80.491 114.994 80.4969 115.68 80.5 115.953C80.503 116.226 80.503 116.064 80.509 115.945C80.5184 115.754 80.6454 115.357 80.8097 114.88C80.8632 114.724 80.8734 114.752 80.8794 115.125C80.8854 115.497 80.8913 116.216 80.8973 116.599C80.9033 116.982 80.9092 117.008 80.9241 117.009C81.1039 117.013 81.1595 116.344 81.2408 116.003C81.2705 115.878 81.3036 115.76 81.3245 115.701C81.3442 115.645 81.3456 115.974 81.3337 116.332C81.3189 116.783 81.2739 117.268 81.3212 117.479C81.3963 117.813 81.5784 116.774 81.6201 116.566C81.6906 116.212 81.8048 115.945 81.8891 115.685C81.9926 115.366 82.1343 114.969 82.1729 114.769C82.2219 114.517 82.3311 114.171 82.3643 113.939C82.3923 113.743 82.3555 113.595 82.3228 113.552C82.2876 113.507 82.2182 113.516 82.1498 113.516C82.0375 113.516 81.9434 113.588 81.8158 113.75C81.7123 113.882 81.5521 114.133 81.3455 114.502C81.1389 114.872 80.8963 115.357 80.8572 115.533C80.8253 115.676 81.2964 115.264 81.535 114.974C81.9138 114.513 81.9604 114.1 82.0058 113.899C82.0123 113.87 82.0088 113.844 82.0177 113.84C82.0461 113.828 82.0626 114.064 82.0537 114.193C82.0497 114.252 82.0271 113.823 81.9854 113.543C81.9072 113.018 81.7939 112.661 81.767 112.464C81.7419 112.282 81.734 112.182 81.731 112.101C81.7296 112.064 81.7457 112.038 81.7725 112.019C81.9048 111.921 82.1626 111.914 82.3519 111.858C82.4677 111.824 82.4806 112.122 82.5107 112.337C82.5948 112.94 82.4634 113.246 82.4034 113.463C82.3435 113.68 82.3614 113.764 82.3495 113.82C82.3432 113.849 82.3376 113.882 82.3523 113.827C82.4595 113.43 82.4925 113.216 82.5971 112.811C82.6013 112.794 82.6065 113.009 82.5443 113.407C82.4821 113.804 82.3638 114.4 82.2821 114.785C82.167 115.327 82.0691 115.576 81.9885 115.739C81.8694 115.98 81.7643 116.184 81.5615 116.501C81.4099 116.737 81.328 116.904 81.2444 117.018C81.1069 117.207 81.0412 117.316 80.9486 117.421C80.8141 117.573 80.4324 117.258 80.2108 117.042C80.1078 116.941 80.4249 117.316 80.5028 117.408C80.5832 117.502 80.6701 117.617 80.7507 117.728C80.8512 117.867 80.8852 118.029 80.9301 118.133C80.9724 118.232 80.9809 118.343 81.0078 118.447C81.0357 118.556 81.1419 118.624 81.2109 118.729C81.2293 118.756 81.2201 118.8 81.2171 118.807C81.1854 118.883 81.0953 118.56 81.0172 118.432C80.9548 118.33 80.8619 118.272 80.7723 118.141C80.6533 117.968 80.617 117.775 80.5243 117.611C80.4527 117.484 80.4016 117.356 80.3212 117.144C80.1798 116.771 80.1327 116.552 80.0492 116.365C79.997 116.249 79.9595 116.114 79.8938 115.943C79.8098 115.726 79.7032 115.292 79.6159 115.099C79.4625 114.759 79.6483 115.635 79.6931 115.759C79.7714 115.976 79.8692 116.105 79.959 116.214C80.0321 116.302 80.0846 116.374 80.0907 116.394C80.1418 116.56 79.8283 116.107 79.4201 115.689C79.1558 115.419 78.8719 115.106 78.8569 115.067C78.8596 115.053 78.8832 115.053 78.9161 115.066C78.949 115.079 78.9904 115.105 79.0869 115.171" stroke="#FF0404" stroke-width="1.17769" stroke-linecap="round"/>
<path d="M136.217 82.457C136.758 82.8416 137.999 83.4578 139.245 84.0381C139.834 84.3124 143.878 84.3103 149.784 84.3485C153.563 84.3729 158.49 85.538 163.264 86.7774C166.68 87.6642 169.332 88.4013 171.82 89.3256C173.83 90.0725 175.859 91.0977 179.282 92.9903C181.214 94.0584 183.706 96.7223 185.82 98.8593C188.444 101.513 189.478 104.918 190.333 106.89C190.996 108.419 192.118 111.085 193.055 113.223C193.6 114.469 194.143 116.19 194.882 118.433C195.446 120.141 195.776 122.218 196.128 123.647C196.435 124.892 196.401 129.978 195.977 133.567C195.575 136.962 193.919 138.123 192.829 139.323C191.116 141.207 187.863 142.604 185.794 143.841C183.055 145.478 177.459 146.542 174.058 146.971C171.32 147.317 167.111 147.552 162.494 147.399C155.813 147.178 152.485 145.393 149.175 144.275C146.625 143.414 145.249 140.31 144.15 138.445C142.711 136.002 141.815 132.578 140.964 129.341C140.346 126.994 139.949 124.859 139.717 123.234C139.661 122.842 139.562 122.464 139.522 119.324C139.483 116.183 139.483 110.297 139.444 107.112C139.384 102.156 139.095 99.2195 138.978 96.4061C138.866 93.7385 138.629 90.6483 138.511 88.9885C138.162 87.4793 137.696 86.2469 136.92 85.0481C136.686 84.7759 136.455 84.5465 135.984 83.847" stroke="#131313" stroke-width="1.17769" stroke-linecap="round"/>
<path d="M149.91 93.9782C149.91 93.4556 149.848 92.4571 149.694 92.238C149.378 91.7912 148.731 91.7546 147.227 91.7383C146.423 91.7297 145.872 92.6275 145.404 93.273C144.8 94.1073 144.751 94.9968 144.61 95.8197C144.551 96.1659 144.564 96.4652 144.517 97.2494C144.405 99.132 144.717 100.795 145.12 101.482C145.637 102.363 146.706 102.525 147.359 102.57C148.042 102.323 148.789 101.796 149.317 101.371C149.443 101.268 149.535 101.181 149.723 101.004" stroke="#131313" stroke-width="1.17769" stroke-linecap="round"/>
<path d="M151.457 103.076C151.616 102.807 151.807 101.904 151.856 100.88C151.91 99.7349 151.999 98.3476 152.047 96.9336C152.062 96.5066 152.127 95.1028 152.364 93.1591C152.448 92.4659 153.074 92.4982 153.381 92.528C154.093 92.5972 154.58 92.8291 155.488 92.8896C155.836 92.9129 156.806 93.0406 158.098 93.3241C158.505 94.9076 158.441 96.0458 158.362 97.8504C158.345 98.9859 158.345 101.134 158.345 103.347" stroke="#131313" stroke-width="1.17769" stroke-linecap="round"/>
<path d="M160.771 103.751C160.683 102.524 160.799 101.172 161.034 100.461C161.323 99.5856 161.503 98.8912 161.811 98.1992C162.204 97.3162 162.411 96.2764 162.896 95.3374C163.174 94.7995 163.349 94.1215 163.776 93.7041C163.963 93.5212 164.202 93.4115 164.407 93.3187C165.003 93.048 165.461 94.6976 165.859 95.6541C166.11 96.258 166.197 96.9467 166.241 98.3141C166.265 99.0482 166.403 99.8384 166.476 100.502C166.535 101.04 166.637 101.595 166.681 102.164C166.725 102.425 166.784 102.703 166.828 103.117C166.843 103.378 166.843 103.744 166.931 104.121" stroke="#131313" stroke-width="1.17769" stroke-linecap="round"/>
<path d="M161.515 98.7031C162.07 98.7031 163.257 98.7031 164.359 98.7032C164.609 98.7032 164.739 98.7032 164.969 98.7032C165.199 98.7032 165.525 98.7032 166.157 98.7032" stroke="#131313" stroke-width="1.17769" stroke-linecap="round"/>
<path d="M169.252 98.7031H173.894" stroke="#131313" stroke-width="1.17769" stroke-linecap="round"/>
<path d="M154.063 108.741C154.063 108.681 154.063 108.294 154.004 107.695C153.918 106.833 152.738 106.253 151.759 105.906C150.193 105.352 148.838 105.92 148.537 106.054C147.796 106.385 146.909 107.535 145.94 109.02C145.541 109.632 145.303 110.03 145.092 110.655C144.63 112.031 144.456 113.922 144.501 115.511C144.542 116.953 144.938 117.649 145.165 118.445C145.365 119.143 145.633 119.809 146.056 120.381C146.512 120.998 146.811 121.611 147.279 122.017C147.735 122.412 148.651 122.213 149.348 122.273C150.273 122.353 151.522 122.603 152.187 122.678C153.426 122.817 154.631 121.59 155.27 120.835C155.785 120.444 156.146 120.025 156.524 119.291C156.63 119.095 156.75 118.916 156.873 118.733" stroke="#131313" stroke-width="1.17769" stroke-linecap="round"/>
<path d="M159.211 106.72C159.121 106.926 159.417 108.583 159.585 109.666C159.686 110.317 159.778 111.506 159.869 112.478C159.985 113.724 160.168 114.25 160.273 114.936C160.373 115.586 160.438 116.185 160.632 116.797C160.838 117.443 160.975 118.654 161.41 119.862C161.665 120.569 161.725 120.923 161.919 121.071C162.015 121.145 162.143 121.161 162.248 121.117C162.737 120.915 162.982 120.33 163.431 119.795C164.315 118.74 164.45 118.127 164.749 117.694C165.038 117.277 165.199 116.757 165.408 116.236C165.684 115.548 166.006 114.647 166.232 113.647C166.47 112.597 166.606 111.756 166.742 111.085C166.963 109.989 166.847 108.959 166.996 107.738C167.046 107.323 167.026 106.761 167.071 106.546C167.115 106.331 167.204 106.479 167.309 106.702C167.74 107.618 167.864 108.117 168.342 109.898C168.565 110.729 168.703 111.215 168.896 111.924C169.7 114.868 169.781 115.739 170.124 117.107C170.311 117.85 170.409 118.39 170.529 118.897C170.589 119.223 170.62 119.641 170.649 120.057C170.679 120.237 170.738 120.355 170.799 120.655" stroke="#131313" stroke-width="1.17769" stroke-linecap="round"/>
<path d="M172.347 105.668C172.347 106.303 172.4 107.461 172.523 108.494C172.604 109.181 172.726 109.652 172.767 110.594C172.81 111.579 172.998 112.419 173.174 113.56C173.465 115.456 173.459 116.254 173.5 116.897C173.539 117.508 173.622 118.235 173.663 118.723C173.758 119.24 173.839 119.697 173.88 119.985C173.894 120.123 173.894 120.244 173.894 120.368" stroke="#131313" stroke-width="1.17769" stroke-linecap="round"/>
<path d="M173.894 113.105C174.303 112.901 175.057 112.784 175.973 112.682C177.951 112.46 178.595 112.988 179.352 113.294C180.092 113.593 180.584 114.068 181.168 114.564C181.64 114.965 182.099 115.469 182.322 115.996C182.417 116.22 182.417 116.609 182.386 117.061C182.342 117.701 181.504 118.042 180.983 118.218C180.293 118.451 179.705 118.715 179.136 118.904C178.608 119.08 177.22 119.241 176.154 119.343C175.792 119.445 175.286 119.504 174.75 119.519C174.527 119.533 174.402 119.562 174.273 119.592" stroke="#131313" stroke-width="1.17769" stroke-linecap="round"/>
<path d="M171.573 105.668C172.906 105.462 173.544 105.308 174.138 105.204C175.011 105.053 175.892 105.076 176.893 105.037C177.257 104.998 177.548 104.946 177.881 104.908C178.07 104.895 178.299 104.895 178.536 104.895" stroke="#131313" stroke-width="1.17769" stroke-linecap="round"/>
<path d="M181.631 104.643C181.631 107.653 181.751 109.99 181.904 110.933C182.038 111.758 182.298 112.773 182.527 113.4C182.781 114.1 183.301 114.984 183.817 115.583C184.444 116.311 185.818 116.927 186.553 117.199C186.787 117.286 187.04 117.29 187.298 117.23C188.085 117.049 188.348 116.066 188.847 114.933C189.257 114.005 189.382 112.367 189.367 110.634C189.351 108.843 188.472 107.307 188.031 106.634C187.434 105.723 186.194 104.706 185.509 104.241C184.615 103.635 183.734 103.002 183.077 102.626C182.902 102.526 182.579 102.58 182.409 102.639C182.148 103.087 182.057 103.624 182.011 104.234C181.996 104.608 181.996 105.111 181.996 105.63" stroke="#131313" stroke-width="1.17769" stroke-linecap="round"/>
<path d="M157.647 130.058C158.051 129.883 159.093 129.6 160.49 129.661C161.403 129.7 162.376 130.319 163.331 130.794C164.329 131.291 164.497 131.694 164.914 132.24C165.081 132.459 165.203 132.664 165.277 133.006C165.391 133.533 165.389 134.63 165.38 135.872C165.375 136.503 165.186 136.978 164.752 137.619C163.845 138.958 162.996 138.725 162.633 138.769C162.402 138.778 162.196 138.795 162.048 138.822C161.973 138.831 161.9 138.831 161.713 138.937" stroke="#131313" stroke-width="1.17769" stroke-linecap="round"/>
<path d="M163.062 127.328C163.577 127.345 163.871 127.381 164.843 127.719C166.055 128.141 166.521 128.567 167.586 129.412C168.144 129.855 168.599 130.955 169.042 132.214C169.281 132.893 169.264 133.264 169.237 135.066C169.223 136.033 168.989 136.477 168.75 137.036C168.441 137.76 167.977 138.225 167.536 138.748C167.443 138.871 167.406 138.94 167.388 138.933C167.369 138.925 167.369 138.839 167.369 138.75" stroke="#131313" stroke-width="1.17769" stroke-linecap="round"/>
<path d="M169.252 126.555C169.487 126.608 170.189 127.178 170.983 127.835C171.543 128.299 172.126 129.471 172.583 130.427C172.754 130.784 172.887 131.11 172.988 131.45C173.117 131.887 173.14 132.951 173.107 134.287C173.087 135.078 172.738 135.701 172.393 136.372C171.967 137.203 171.811 137.694 171.567 138.08C171.408 138.409 171.239 138.664 171.079 138.762C171.003 138.808 170.936 138.843 170.716 138.934" stroke="#131313" stroke-width="1.17769" stroke-linecap="round"/>
<path d="M173.12 125.008C173.608 125.213 174.523 125.766 175.014 126.103C175.524 126.452 175.753 126.784 175.963 127.181C176.149 127.531 176.594 128.197 177.024 129.085C177.57 130.213 177.632 130.928 177.693 131.717C177.824 133.39 177.738 134.606 177.694 134.838C177.603 135.323 177.091 135.916 176.852 136.289C176.632 136.523 176.352 136.833 176.15 137.135C176.088 137.213 176.001 137.299 175.806 137.387" stroke="#131313" stroke-width="1.17769" stroke-linecap="round"/>
<path d="M178.536 124.234C178.768 124.458 179.133 124.802 179.458 125.243C179.746 125.633 180.032 126.321 180.82 127.991C181.261 128.927 181.313 129.412 181.471 130.033C181.529 130.263 181.596 130.415 181.621 130.817C181.679 131.748 181.481 132.879 181.141 133.904C180.593 135.558 180.233 135.766 180.034 135.991C179.934 136.094 179.817 136.198 179.685 136.302C179.618 136.354 179.552 136.405 179.434 136.613" stroke="#131313" stroke-width="1.17769" stroke-linecap="round"/>
<path d="M15.3237 32.939C15.297 32.9123 15.2703 32.8856 14.4564 30.7623C13.6424 28.639 12.042 24.4199 11.1908 22.1396C10.2632 19.6542 10.1247 19.2387 9.86967 18.7018C9.1312 17.147 9.10058 16.3264 9.09937 15.9752C9.09826 15.6552 10.3591 16.7221 12.0234 18.0532C12.9659 18.807 14.2211 19.5712 14.9599 20.0907C15.9429 20.7819 16.5587 21.3644 17.4321 22.1036C18.9327 23.6326 19.3368 23.9554 19.5923 24.2382C19.7143 24.3608 19.821 24.4409 19.9309 24.6044" stroke="#131313" stroke-width="0.890134" stroke-linecap="round"/>
<path d="M13.7415 12.8242C14.4507 13.8944 16.3445 15.7769 17.3318 16.7149C18.7292 18.0424 20.0994 19.1483 20.7145 19.7828C21.4997 20.5929 21.9631 21.0291 22.4222 21.5675C22.5374 21.6931 22.6509 21.7752 22.7519 21.8585C22.8529 21.9418 22.938 22.0239 23.0257 22.1084" stroke="#131313" stroke-width="0.890134" stroke-linecap="round"/>
<path d="M22.252 22.1067C22.4973 21.9116 22.8247 21.5197 24.2279 20.4858C26.2153 19.2214 26.9817 18.7159 27.3506 18.5061C27.5028 18.4073 27.584 18.3241 27.6677 18.2383" stroke="#131313" stroke-width="0.890134" stroke-linecap="round"/>
<path d="M18.3835 17.4658C18.5846 17.2994 19.2892 16.7448 20.3269 15.8658C20.6318 15.5722 21.1354 15.1824 21.7923 14.7228C22.0487 14.5392 22.1488 14.4564 22.252 14.3711" stroke="#131313" stroke-width="0.890134" stroke-linecap="round"/>
<path d="M12.9678 12.8255C13.8105 12.3892 14.8691 11.6748 15.4253 11.2497C16.5608 10.5242 17.6995 9.69944 18.2538 9.41178C18.52 9.28708 18.7557 9.2056 19.1572 8.95703" stroke="#131313" stroke-width="0.890134" stroke-linecap="round"/>
<path d="M23.7993 6.63672C24.5774 7.76661 25.7995 9.17553 26.5367 10.0921C27.495 11.2835 28.1504 12.2318 28.3671 12.5688C29.1061 13.5807 29.6884 14.6384 29.9191 15.0955C30.0923 15.4187 30.3795 15.9273 30.7625 16.6946" stroke="#131313" stroke-width="0.890134" stroke-linecap="round"/>
<path d="M23.7993 6.16012C24.2211 5.82803 25.9834 4.8217 27.1104 4.48374C27.9423 4.23428 28.8898 4.31518 29.5438 4.37052C30.3963 4.44266 31.1951 5.34667 32.0075 6.11526C32.3012 6.39306 32.3375 6.96687 32.2953 7.66459C32.2413 8.55533 31.4871 8.9527 30.3071 10.0416C29.4934 10.5754 28.9239 10.9394 28.6114 11.079C28.468 11.1356 28.3553 11.1633 28.1538 11.2757" stroke="#131313" stroke-width="0.890134" stroke-linecap="round"/>
<path d="M38.9588 12.0506C38.4445 11.4282 37.5704 9.78591 37.0393 8.82945C36.7445 8.29853 36.3194 7.19327 35.4899 5.5989C34.6201 3.92721 34.218 2.27282 33.9592 1.18025C33.8607 0.764508 33.8353 0.628845 33.8754 0.545621C33.9154 0.462398 34.0234 0.43534 34.1464 0.448459C34.7806 0.516071 35.5753 1.00602 37.272 1.93214C38.189 2.43271 39.6915 3.3412 40.8072 4.05823C41.9229 4.77527 42.5975 5.28937 43.3767 5.97361C44.156 6.65785 45.0194 7.49664 45.5182 7.95581C46.017 8.41497 46.1249 8.46909 46.2361 8.60684" stroke="#131313" stroke-width="0.890134" stroke-linecap="round"/>
<path d="M36.1782 7.40724C36.4944 7.29052 37.7106 6.52833 39.8343 5.27452C40.2648 5.04993 40.4487 4.99157 40.6749 4.88856C40.9011 4.78555 41.1639 4.63966 41.594 4.3125" stroke="#131313" stroke-width="0.890134" stroke-linecap="round"/>
</svg>
