<svg width="199" height="151" viewBox="0 0 199 151" fill="none" xmlns="http://www.w3.org/2000/svg">
<path d="M56.8286 71.1328C58.8493 71.6223 60.4965 71.9969 63.2673 72.7636C69.1365 74.5706 73.2228 75.952 73.7994 76.2608C74.1066 76.3859 74.4434 76.4471 75.4027 76.881" stroke="#131313" stroke-width="0.977583" stroke-linecap="round"/>
<path d="M83.3875 80.1094C95.1748 81.9765 105.695 89.1104 107.495 90.2762" stroke="#131313" stroke-width="0.977583" stroke-linecap="round"/>
<path d="M83.5725 79.9026C84.604 74.1647 85.6356 68.4267 86.7795 64.3748C88.5938 57.9478 91.0551 55.0343 92.2253 53.6677C92.9821 52.784 94.4388 52.7465 96.3544 52.9722C100.599 53.4722 102.449 57.2282 104.793 61.1942C106.35 63.8277 106.624 67.1236 106.917 69.6605C107.017 71.2947 107.146 73.053 107.341 77.2935C107.407 80.3734 107.407 85.3377 107.407 90.4524" stroke="#131313" stroke-width="0.977583" stroke-linecap="round"/>
<path d="M56.8306 71.1389C56.8306 67.6568 57.0416 64.3858 57.5196 61.5673C57.9492 59.0343 59.2207 56.2339 60.8418 53.0964C62.3475 50.1822 64.0185 48.3362 65.2151 47.3513C66.9226 45.9461 69.5533 46.1987 71.5589 46.9141C73.5965 47.6409 73.9881 49.3386 75.1848 51.4657C76.0275 52.9637 75.9082 54.2419 75.9882 56.9645C76.0572 59.317 76.0153 63.644 75.989 66.0045C75.8555 69.5337 75.75 71.3467 75.6692 74.8551C75.6428 75.6649 75.5901 76.0342 75.3759 76.8943" stroke="#131313" stroke-width="0.977583" stroke-linecap="round"/>
<path d="M63.5659 65.582C63.5659 65.582 65.3909 56.0993 66.4973 51.543L69.4861 52.1885C69.4861 52.1885 68.3056 64.4209 67.9303 66.149" stroke="#131313" stroke-width="0.977583" stroke-linecap="round"/>
<path d="M91.2275 73.5427C91.2917 72.9482 91.4558 72.7549 91.6437 71.2691C91.9663 68.7179 93.8257 59.2148 93.8257 59.2148C93.8257 59.2148 96.2083 59.3766 97.66 59.7784C97.828 61.3229 96.3381 69.7437 96.2328 74.4226" stroke="#131313" stroke-width="0.977583" stroke-linecap="round"/>
<path d="M74.7961 45.8672C75.445 46.3214 76.0711 46.977 76.546 47.6809C76.7288 47.963 76.7937 48.0928 76.8433 48.2245C76.893 48.3563 76.9254 48.486 76.9588 48.718" stroke="#131313" stroke-width="0.977583" stroke-linecap="round"/>
<path d="M89.4971 51.7161C90.2157 50.8009 90.9362 50.2101 91.559 50.013C91.7237 49.9476 91.8859 49.8503 92.1316 49.8001C92.3774 49.75 92.7018 49.75 93.036 49.75" stroke="#131313" stroke-width="0.977583" stroke-linecap="round"/>
<path d="M73.8667 79.7148C76.4192 80.2667 78.0274 80.6028 78.5837 80.7157C79.5401 80.9098 80.154 81.1427 81.0594 81.4727C82.1092 81.8553 79.4265 82.7085 78.5754 83.4127C78.1538 83.7616 77.4865 84.3715 76.933 84.967C75.358 86.6618 75.4001 87.0652 75.3045 87.2408C75.2064 87.4208 74.983 86.3925 74.7395 85.2892C74.4877 84.1486 74.4939 83.4438 74.468 83.1579C74.3751 82.1318 74.2503 81.5117 74.1372 81.1359C74.0935 80.988 74.0757 80.7272 74.0499 80.3794C74.024 80.2213 73.9723 80.1005 73.919 79.9239" stroke="#131313" stroke-width="0.977583" stroke-linecap="round"/>
<path d="M73.3979 91.6663C74.5601 91.5471 75.7223 91.4279 77.7364 91.1132C79.7506 90.7985 82.5815 90.2919 84.0995 90.0161C85.6174 89.7402 85.7366 89.7104 85.8594 89.6797" stroke="#131313" stroke-width="0.977583" stroke-linecap="round"/>
<path d="M72.9858 91.825C73.2619 92.5904 73.6861 93.4376 74.5473 94.5681C75.025 95.1951 75.5824 95.5083 76.0066 95.8789C76.69 96.4758 77.4109 97.3586 78.3246 98.0176C79.1529 98.6151 79.7992 98.8102 80.1496 98.8527C81.0684 98.9641 82.4775 98.2614 83.2385 97.503C83.971 96.7729 84.6549 94.7512 84.869 93.9462C85.1028 93.0421 85.3169 92.0205 85.3379 91.3189C85.359 90.9969 85.4012 90.7439 85.5085 90.3555" stroke="#131313" stroke-width="0.977583" stroke-linecap="round"/>
<path d="M74.4409 94.4597C74.9981 94.9661 75.3695 95.2706 75.7336 95.5664C75.8825 95.6873 75.9795 95.8293 76.1061 95.8803C76.4701 96.0269 76.4707 94.4998 76.546 93.5861C76.5734 93.2547 77.8651 93.3773 79.512 93.3101C81.2236 93.2402 81.5766 92.9546 81.9412 92.8701C82.2079 92.8083 82.424 92.6841 82.626 92.6917C83.2861 93.1566 83.7921 93.4935 84.2315 93.8147C84.403 93.935 84.47 93.9685 84.5898 94.1045" stroke="#131313" stroke-width="0.977583" stroke-linecap="round"/>
<path d="M83.9766 95.8589C84.2854 95.4082 84.6049 95.1594 84.9226 95.1193C85.6621 95.0259 85.9508 95.1764 86.2171 95.2694C86.3878 95.3291 86.5185 95.4422 86.6383 95.5573C86.7548 95.6691 86.8906 95.8488 87.0458 96.3304C87.1857 96.7645 87.0952 97.1514 87.0379 97.3283C86.9368 97.4701 86.8297 97.5509 86.7413 97.5994C86.6968 97.6304 86.653 97.6742 86.6078 97.7194" stroke="#131313" stroke-width="0.977583" stroke-linecap="round"/>
<path d="M85.0569 93.9404C85.1415 93.9123 85.3679 93.8178 86.3538 93.8125C86.7711 93.8103 86.9669 94.0437 87.1282 94.1481C87.2971 94.2576 87.412 94.4126 87.5256 94.5595C87.6266 94.69 87.6867 94.8384 87.701 94.9946C87.7496 95.5241 87.706 96.4555 87.6399 96.7303C87.6021 96.825 87.536 96.9573 87.451 97.1179C87.4128 97.1849 87.3847 97.2224 87.3274 97.3177" stroke="#131313" stroke-width="0.977583" stroke-linecap="round"/>
<path d="M82.3606 100.39C83.0414 100.024 83.5753 99.7564 83.9578 99.5719C84.1569 99.466 84.3664 99.3351 84.5136 99.2153C84.6608 99.0955 84.7393 98.9907 84.8202 98.8828" stroke="#131313" stroke-width="0.977583" stroke-linecap="round"/>
<path d="M53.4343 68.0412C53.9768 67.9869 54.7446 68.0946 55.5522 68.3272C56.0072 68.4785 56.2555 68.5615 56.4741 68.6026C56.5843 68.6166 56.6928 68.6166 56.969 68.6988" stroke="#131313" stroke-width="0.977583" stroke-linecap="round"/>
<path d="M69.5453 43.625C69.5453 43.9505 69.5453 44.281 69.5318 44.6496C69.5182 44.8555 69.4911 45.0997 69.4771 45.4018C69.4631 45.7038 69.4631 46.0565 69.4631 46.4198" stroke="#131313" stroke-width="0.977583" stroke-linecap="round"/>
<path d="M75.5461 73.957L78.5054 75.19" stroke="#131313" stroke-width="0.977583" stroke-linecap="round"/>
<path d="M83.6765 76.6705L81.5393 75.4375" stroke="#131313" stroke-width="0.977583" stroke-linecap="round"/>
<path d="M96.3355 49.7891C96.3084 50.2773 96.2813 50.7656 96.2538 51.085C96.2262 51.4043 96.1991 51.5399 96.1851 51.759C96.1711 51.9781 96.1711 52.2765 96.1711 52.5839" stroke="#131313" stroke-width="0.977583" stroke-linecap="round"/>
<path d="M107.679 86.2891C108.601 86.8316 109.239 87.1924 109.554 87.3564C109.705 87.439 109.841 87.5204 109.992 87.5895C110.143 87.6585 110.306 87.7128 110.474 87.7687" stroke="#131313" stroke-width="0.977583" stroke-linecap="round"/>
<path d="M67.4886 41.0146C67.8087 41.0146 68.1288 41.0146 69.478 41.0146C70.8273 41.0146 73.1959 41.0146 74.5121 41.0466C76.023 41.0833 76.4104 41.3046 76.7334 41.3541C77.3903 41.4547 77.0913 39.5684 76.9152 38.2589C76.8232 37.5743 75.8643 37.7817 74.9176 37.7492C72.7236 37.6739 71.0154 37.8457 70.5634 37.9102C69.5372 38.0567 67.9775 38.0717 67.3291 38.2492C67.1986 38.3297 67.1026 38.4578 67.0531 38.8918C67.0037 39.3259 67.0037 40.0621 67.0037 40.8206" stroke="#131313" stroke-width="0.977583" stroke-linecap="round"/>
<path d="M92.0946 42.308C92.3328 42.2604 92.6936 42.2358 93.4356 42.343C94.7282 42.5297 96.2488 43.0283 97.6416 43.352C99.7061 43.8317 100.585 44.4486 101.077 44.4024C102.641 44.2558 102.318 42.334 102.714 41.2897C102.802 41.0588 102.823 40.9628 102.788 40.8899C102.605 40.5129 101.745 40.5052 100.244 40.1563C99.2593 39.9275 98.4976 39.759 97.6088 39.4948C96.3833 39.1306 95.4635 38.9882 95.2716 38.9763C94.2434 38.9125 92.6489 38.9636 92.4807 39.1073C92.0792 39.4502 92.1668 40.2107 92.1069 40.9342C92.0946 41.1035 92.0946 41.2702 92.0827 41.4037C92.0708 41.5372 92.047 41.6325 92.0225 41.9472" stroke="#131313" stroke-width="0.977583" stroke-linecap="round"/>
<path d="M57.4932 65.3867C63.0026 65.7738 67.1976 66.1346 69.3356 66.379C71.0642 66.5766 73.0596 66.8199 73.9367 66.8692C74.2681 66.9176 74.602 66.9831 74.9334 67.0481C75.1004 67.0809 75.2649 67.1131 75.5589 67.1464" stroke="#131313" stroke-width="0.977583" stroke-linecap="round"/>
<path d="M85.0686 72.2109C85.9653 72.3438 86.8619 72.4767 90.4232 73.2538C93.9844 74.0309 100.183 75.4483 103.454 76.2006C106.726 76.9529 106.882 76.9972 107.397 77.1771" stroke="#131313" stroke-width="0.977583" stroke-linecap="round"/>
<path d="M75.4134 86.8711C75.3708 87.9083 75.4271 88.39 75.5835 88.8179C75.9233 89.5697 76.4084 90.3406 76.5289 90.4612C76.5931 90.5254 76.6635 90.5958 76.7787 90.6683" stroke="#131313" stroke-width="0.977583" stroke-linecap="round"/>
<path d="M107.272 93.4525C107.254 93.4525 107.237 93.4525 106.606 93.2968C105.974 93.1412 104.729 92.8299 103.655 92.6695C101.731 92.3822 100.722 92.5265 100.522 92.6218C100.266 92.7437 100.215 93.1192 100.162 93.372C100.121 93.5696 100.179 93.7831 100.37 94.0617C100.684 94.5197 101.486 94.7783 102.183 95.0663C102.48 95.1888 102.674 95.2332 103.463 95.4415C104.253 95.6498 105.637 96.013 106.851 96.2173C108.065 96.4217 109.068 96.4563 109.611 96.4049C110.153 96.3536 110.205 96.2152 110.241 96.1094C110.299 95.936 110.311 95.7247 110.242 95.4286C110.058 94.642 109.144 94.2763 108.784 93.9859C108.27 93.8025 107.605 93.6448 107.361 93.6186C107.255 93.6097 107.186 93.6097 107.114 93.6097" stroke="#131313" stroke-width="0.977583" stroke-linecap="round"/>
<path d="M58.3522 76.1214C58.1038 76.011 57.8554 75.9006 57.0995 75.6781C56.3436 75.4556 55.0878 75.1244 54.1718 74.9538C52.7323 74.6857 52.094 74.8246 51.9619 74.908C51.714 75.0645 51.4814 75.3946 51.3409 75.9794C51.25 76.3576 51.4233 76.7194 51.6386 76.9975C52.083 77.5713 52.5657 77.7376 53.2787 77.9457C53.8338 78.1076 54.806 78.2917 55.4347 78.4398C56.0634 78.5878 56.3256 78.6706 56.7505 78.7616C57.7497 78.9755 58.5178 79.0487 58.8032 79.0004C59.2126 78.9311 59.1743 78.4783 59.2163 78.0126C59.2914 77.1811 58.7177 76.6541 58.2976 76.2272C58.2271 76.1498 58.1857 76.0946 58.1368 76.0524C58.0879 76.0101 58.0327 75.9825 57.9758 75.9541" stroke="#131313" stroke-width="0.977583" stroke-linecap="round"/>
<path d="M88.5021 34.2278C85.9801 34.6863 84.4516 34.9799 84.0183 34.9807C82.9754 34.9828 82.772 33.2464 82.2249 32.8122C80.5586 31.4898 78.4905 34.1097 77.3624 34.3719C75.4682 34.8123 74.1517 34.5752 70.8845 34.8922C69.9723 34.9807 69.4568 35.1536 68.7933 35.4697C66.9793 36.3339 66.6794 37.6982 66.1262 38.7108C65.5557 39.7551 64.7132 41.5715 63.8977 42.7352C63.3468 43.5215 62.6845 44.1838 61.585 44.9064C59.8506 46.0463 58.4638 47.418 57.2983 49.1879C56.1322 50.9587 56.5427 55.0466 55.5918 57.2663C54.9219 58.83 52.6138 60.8479 51.7106 63.3421C51.1027 65.3656 50.5799 67.806 50.4644 68.2967C50.4062 68.5581 50.3489 68.8447 50.2898 69.661" stroke="#131313" stroke-width="0.977583" stroke-linecap="round"/>
<path d="M88.333 34.2923C88.7562 34.1865 89.2387 34.2907 89.7453 34.7163C90.8185 35.618 91.7215 37.9754 92.2834 39.0495M97.3277 43.4291C97.9912 44.5746 98.0572 45.6131 98.4571 46.6591C98.8793 47.7631 100.138 48.1299 101.18 48.3182C102.398 48.5384 103.29 49.3033 104.253 50.5048C105.272 51.7755 105.749 52.9872 106.419 54.5389C106.833 55.4988 107.14 56.3568 107.728 57.7186C108.364 59.193 110.927 60.5248 113.599 62.7378C114.845 63.7694 114.889 65.3853 114.891 71.5651C114.892 74.2731 114.517 75.3242 114.489 81.1057C114.479 83.2923 114.729 84.8881 114.81 86.3597C115.103 87.671 115.636 89.5851 116.064 91.5953C116.172 91.9993 116.278 92.3167 116.387 92.804" stroke="#131313" stroke-width="0.977583" stroke-linecap="round"/>
<path d="M90.5349 32.2767C92.0282 31.3434 93.5215 30.4101 94.5241 29.8126C95.5268 29.2152 95.9934 28.9818 96.3505 28.7683C96.7075 28.5548 96.9409 28.3681 97.1813 28.1758" stroke="#131313" stroke-width="0.977583" stroke-linecap="round"/>
<path d="M49.7225 70.375C48.5777 72.3491 47.7498 74.0461 47.4963 75.3888C47.1026 77.4744 47.1051 79.1766 47.3338 80.6706C47.4898 81.69 47.8848 82.6271 48.5488 84.0158C48.8439 84.6329 49.0323 85.2206 50.0345 86.6949C52.3473 90.0972 54.267 92.2927 54.7237 92.7615C56.264 94.3427 57.1117 95.0715 58.9907 96.6483C60.0675 97.5519 61.3325 98.6973 62.3471 99.4101C63.1253 99.9568 64.1345 100.635 67.3201 102.328C68.8458 103.139 70.1076 103.559 72.2938 103.981C74.2004 104.348 77.7531 104.869 79.6706 105.18C81.5882 105.492 81.77 105.539 83.1366 105.586C84.5031 105.634 87.0488 105.68 88.9967 105.611C90.9446 105.542 92.2174 105.355 94.3506 105.166C96.4837 104.976 99.4386 104.789 101.188 104.647C103.397 104.466 104.497 104.034 106.189 103.47C110.448 102.05 111.845 101.913 112.674 101.558C113.536 101.189 114.143 100.499 115.336 98.4774C116.045 97.2748 116.259 95.9794 116.373 94.6331C116.396 94.1862 116.396 93.5329 116.374 93.103C116.351 92.6731 116.305 92.4864 116.121 92.1527" stroke="#131313" stroke-width="0.977583" stroke-linecap="round"/>
<path d="M97.5818 27.7446C97.2109 27.3416 95.5044 25.7066 94.0555 24.7857C92.1612 23.5817 89.0411 22.8995 84.436 22.7876C81.6044 22.7188 79.8196 24.1176 78.8861 24.1943C76.1406 24.4196 73.2407 23.6595 69.3685 23.6327C67.5591 23.6201 66.3889 23.9629 65.6103 24.5245C64.7781 25.1247 64.4046 26.105 63.7111 27.4841C63.169 28.562 61.9997 28.8662 60.5597 29.4263C56.3877 31.0489 55.0965 31.8787 54.2128 32.3905C53.1137 33.027 52.1009 33.8186 50.363 35.7815C49.0368 37.2795 47.7663 40.4442 46.9339 43.5686C46.558 44.9796 46.3728 46.126 44.9577 49.0059C44.2911 50.3625 42.7414 52.1969 40.8711 54.644C39.3829 56.5912 38.7729 57.8266 38.1604 58.5881C35.6191 61.7481 35.6285 62.8889 35.0947 64.7545M36.5807 89.8001C36.4717 93.7099 35.9891 94.9541 35.8013 96.2083C35.7592 96.4893 35.774 96.7438 35.9594 96.9499C36.9897 98.0951 42.4725 100.462 48.077 103.084" stroke="#131313" stroke-width="0.977583" stroke-linecap="round"/>
<path d="M98.4043 27.7852C101.719 28.3376 102.247 28.3555 105.52 28.8065M129.001 48.3191C132.419 51.1408 132.996 54.2786 134.319 57.0964C135.036 58.6241 135.395 60.0231 135.766 61.4578M136.594 71.4291C137.272 73.9204 139.346 83.7816 139.699 86.2803M103.135 104.488C103.451 106.512 103.907 111.797 104.3 113.068C104.896 114.992 105.186 118.092 107.06 118.855C107.826 119.167 109.124 119.473 110.586 119.165C112.572 118.746 114.143 117.731 121.763 118.505C124.854 118.819 126.815 119.113 128.235 118.991C129.451 118.886 133.112 119.274 137.624 118.568C139.216 118.319 139.461 117.844 139.598 117.096L139.699 110.466" stroke="#131313" stroke-width="0.977583" stroke-linecap="round"/>
<path d="M89.1223 34.511C88.2791 34.4435 87.7772 34.4088 87.6329 34.434C87.2813 34.4957 87.164 34.9351 86.7399 35.9015C86.1278 37.296 86.005 38.36 85.9966 38.5297C85.9693 39.0791 85.8517 39.9733 85.8095 40.7997C85.7956 41.0724 85.6831 41.0358 85.6059 40.9847C85.1693 40.6955 84.848 39.8124 84.7361 39.2656C84.606 38.6297 84.6763 37.8388 84.7949 36.8819C84.882 36.1792 85.2712 35.8754 85.5101 35.5343C86.0699 35.0583 86.8048 34.5963 86.9747 34.5539C87.0603 34.5283 87.1446 34.4946 87.2826 34.4599" stroke="#131313" stroke-width="0.977583" stroke-linecap="round"/>
<path d="M87.6912 34.7656C88.9514 35.5653 89.2559 36.175 89.5045 37.0956C89.651 37.6379 89.7521 38.0689 89.7777 38.619C89.8715 40.639 89.4808 41.2536 89.3694 41.6289C89.3393 41.7302 89.3101 41.8494 89.3686 41.8597C89.9055 41.9534 90.3117 41.0717 90.8917 39.7785C91.0626 39.3975 91.064 38.6218 91.0387 37.6003C91.0173 36.7389 90.5713 36.0789 90.3324 35.6445C89.9918 35.2603 89.4828 34.8872 88.9807 34.4873C88.7822 34.3235 88.6979 34.2392 88.4577 34.1523" stroke="#131313" stroke-width="0.977583" stroke-linecap="round"/>
<path d="M135.562 60.5195C135.871 62.0661 136.851 65.5526 137.675 67.643C138.715 70.285 140.682 72.8172 142.019 74.511C142.519 75.144 142.65 75.3217 142.475 75.3465C140.769 75.5883 139.313 74.123 138.064 73.0781C137.309 72.3891 136.811 71.7603 136.677 71.2706C136.632 71.0459 136.632 70.8693 136.632 70.6873" stroke="#131313" stroke-width="0.977583" stroke-linecap="round"/>
<path d="M48.0648 40.4531C46.1931 45.133 45.571 46.1123 44.9455 46.7612C44.0703 47.6691 42.7614 48.2101 41.8477 48.7011C40.5755 49.3847 39.774 49.7714 39.3485 50.15C38.363 51.027 42.5715 50.7975 43.6244 50.8443C43.8264 50.8002 44.003 50.7119 44.1381 50.5781C44.2732 50.4443 44.3615 50.2677 44.7201 49.952" stroke="#131313" stroke-width="0.977583" stroke-linecap="round"/>
<path d="M83.2558 23.0104C83.2558 22.9761 83.2558 22.9417 82.5687 21.4983C81.8815 20.0548 80.5073 17.2033 78.3908 13.8448C76.2743 10.4863 73.4571 6.70715 71.9543 4.67444C69.9414 1.95171 69.0638 1.08116 68.5099 0.663168C68.1154 0.365427 67.4689 0.523144 66.9837 0.591855C66.0017 0.730932 65.3513 1.94318 64.8308 2.58552C64.215 3.34535 63.2733 4.81863 62.1448 7.60144C61.5049 9.17936 60.9225 12.1249 60.4645 14.0926C59.7866 17.0042 59.7274 18.3568 59.6759 19.135C59.6469 19.5718 59.5213 20.085 59.4338 21.6216C59.3464 23.1583 59.2776 25.7006 59.2251 27.1133C59.1725 28.5261 59.1381 28.7322 59.1204 29.1476C59.1027 29.563 59.1027 30.1814 58.8945 30.5062" stroke="#131313" stroke-width="0.977583" stroke-linecap="round"/>
<path d="M102.494 31.9133C105.41 28.7325 107.707 26.365 109.74 24.3659C112.744 21.4131 115.535 18.0052 118.104 15.1668C120.736 12.2591 122.84 11.1636 123.441 11.0963C124.172 11.0144 124.848 11.4287 125.316 11.8956C126.252 12.8296 126.788 14.1015 127.926 18.0414C128.356 19.5311 128.865 21.1921 129.266 27.0075C129.403 31.6965 129.403 39.9136 129.303 44.5112C129.204 49.1087 129.005 49.8377 128.599 51.1911" stroke="#131313" stroke-width="0.977583" stroke-linecap="round"/>
<path d="M121.548 17.8672C119.574 20.9632 117.6 24.0591 116.437 25.9457C115.274 27.8322 114.982 28.4155 114.439 29.389C113.897 30.3626 112.324 33.0004 111.796 34.0079" stroke="#131313" stroke-width="0.977583" stroke-linecap="round"/>
<path d="M118.693 23.0301C119.411 22.8955 120.128 22.7609 121.138 22.5906C123.423 22.2049 124.833 22.0103 125.126 21.9879C125.646 21.9481 126.146 21.8744 126.396 21.9305C126.562 21.9678 125.993 22.7303 124.799 23.9047C124.052 24.6383 122.751 25.3483 121.813 25.966C120.256 26.9906 119.42 27.5388 119.136 27.7308C119.038 27.7971 119.189 27.9453 120.223 28.7995C121.256 29.6537 123.208 31.2466 124.371 32.2354C126.326 33.8988 126.509 34.314 126.647 34.5754C126.979 35.2086 124.701 33.9768 123.339 33.4475C122.295 33.042 120.519 32.4023 119.583 32.1905C118.648 31.9788 118.603 32.2255 118.771 33.7212C118.938 35.2168 119.319 37.9538 119.393 39.2965C119.466 40.6392 119.219 40.5046 118.722 40.1436C118.224 39.7826 117.484 39.1993 116.687 38.5062C116.312 38.1792 115.318 37.5562 114.298 36.9126" stroke="#131313" stroke-width="0.977583" stroke-linecap="round"/>
<path d="M60.2435 13.9888C59.8855 13.9469 58.0004 13.862 57.0861 14.1668C56.7708 14.2719 57.4327 14.957 57.8028 15.5497C58.067 16.0361 58.3211 16.4169 58.4263 16.5854C58.4896 16.6703 58.5733 16.754 58.6594 17.0302" stroke="#131313" stroke-width="0.977583" stroke-linecap="round"/>
<path d="M59.4197 17.4727C59.1885 17.7039 58.7671 18.2089 58.1759 18.7906C57.7004 19.2585 57.3934 19.5409 57.15 19.8792C57.0915 19.9606 57.055 20.0478 57.0648 20.164C57.12 20.8174 58.3362 21.5444 58.8488 21.9493C59.3305 22.3297 57.7774 24.1145 57.3927 25.1587C57.314 25.3725 57.2236 25.5402 57.1497 25.7087C57.1177 25.7936 57.0968 25.8773 57.3265 25.9203C57.5562 25.9634 58.0371 25.9634 58.6594 26.0902" stroke="#131313" stroke-width="0.977583" stroke-linecap="round"/>
<path d="M108.94 34.043C109.396 34.043 110.4 34.0844 111.175 34.2409C111.809 34.3692 112.117 34.5863 112.452 34.7429C112.878 34.942 113.205 35.4007 113.498 35.6837C113.788 35.9642 114.041 36.5289 114.293 36.9486C114.607 37.4712 115.023 38.1389 115.609 38.7572C115.954 39.1213 116.549 39.3122 117.229 39.6567C118.473 40.2868 118.976 40.5671 119.531 40.9119C120.337 41.4133 120.776 41.9048 121.1 42.157C121.404 42.4708 121.676 42.7217 121.977 43.2406C122.216 43.6767 122.63 44.4635 123.183 45.4624" stroke="#131313" stroke-width="0.977583" stroke-linecap="round"/>
<path d="M67.0916 102.359C67.0468 104.156 68.0063 106.867 68.7807 108.746C69.654 110.865 71.9947 112.453 73.4155 113.167C74.49 113.706 78.967 113.476 81.5398 113.038C84.6784 112.504 86.7671 109.266 87.6067 108.271C87.7398 108.073 87.8268 107.856 87.9586 107.613C88.0904 107.371 89.0736 105.857 89.2528 105.588" stroke="#131313" stroke-width="0.977583" stroke-linecap="round"/>
<path d="M61.746 99.1615C59.1272 99.0536 57.4015 99.1248 56.2496 99.3939C55.6589 99.5319 55.0265 99.8788 53.8287 100.38C50.2562 101.874 49.7048 102.108 48.6991 102.862C48.3739 103.15 48.1215 103.367 47.799 103.618C47.6189 103.762 47.4053 103.94 47.1853 104.123" stroke="#131313" stroke-width="0.977583" stroke-linecap="round"/>
<path d="M47.1925 104.176C46.5614 104.526 45.5349 105.268 44.4022 106.206C42.7895 107.541 40.8554 109.238 40.4643 109.788C40.2689 110.063 39.9681 110.372 39.7912 110.814C39.4646 111.63 40.2093 113.516 41.2724 115.008C41.635 115.517 42.3621 116.134 43.4066 117.091C45.8252 119.306 47.4391 120.61 47.7217 120.768C48.3813 121.139 48.9968 121.6 49.7045 122.008C50.0132 122.186 50.2729 122.345 50.6077 122.487C51.6725 122.938 52.6074 121.959 53.6163 120.987C53.9877 120.65 54.5137 120.229 54.8723 119.96C55.2309 119.69 55.4062 119.585 55.5869 119.371" stroke="#131313" stroke-width="0.977583" stroke-linecap="round"/>
<path d="M39.5817 110.238C39.0491 110.238 38.2552 110.724 37.0307 111.579C36.5507 111.915 36.2274 112.104 36.0941 112.358C35.624 113.254 36.2914 114.343 36.7357 115.246C37.2248 116.239 37.7139 116.969 38.3649 117.797C38.8693 118.438 39.7857 119.483 40.3163 120.082C40.9598 120.808 41.6648 121.52 42.6081 122.541C43.1814 123.162 43.558 123.414 43.7906 123.613C44.7657 124.45 46.7317 125.435 47.2683 125.636C47.9387 125.887 48.8008 126.058 49.2347 126.181C49.6543 126.299 50.178 126.458 50.6899 126.57C50.89 126.613 51.1125 126.637 51.3565 126.615C51.8351 126.571 52.2004 125.861 52.5127 125.494C52.9629 124.965 53.1577 124.084 53.2576 123.595C53.335 123.241 53.3803 122.795 53.4023 122.362C53.4243 122.172 53.4683 122.04 53.5136 121.837" stroke="#131313" stroke-width="0.977583" stroke-linecap="round"/>
<path d="M118.594 118.926C120.463 123.003 121.398 124.846 121.847 125.908C122.432 127.141 122.873 128.122 123.079 128.706C123.181 128.984 123.275 129.227 123.373 129.476" stroke="#131313" stroke-width="0.977583" stroke-linecap="round"/>
<path d="M123.391 129.117C122.155 130.133 118.872 132.307 115.415 133.614C111.906 134.941 110.675 134.135 109.172 133.765C108.808 133.638 108.525 133.5 108.213 133.365C107.901 133.229 107.568 133.099 107.042 132.81" stroke="#131313" stroke-width="0.977583" stroke-linecap="round"/>
<path d="M105.144 127.43C105.296 128.33 105.448 129.231 105.655 129.997C105.863 130.763 106.122 131.368 106.328 131.76C106.534 132.151 106.678 132.312 106.966 132.595" stroke="#131313" stroke-width="0.977583" stroke-linecap="round"/>
<path d="M105.813 131.38C105.225 134.619 105.135 135.475 105.299 136.34C105.448 137.129 107.002 137.318 107.88 137.384C108.526 137.433 109.253 137.645 111.084 137.967C112.162 138.157 112.968 138.096 116.113 138.128C119.286 138.161 119.827 137.457 122.035 136.315C123.201 135.712 124.068 134.312 124.789 133.225C125.391 132.316 125.515 131.486 125.582 130.491C125.631 129.764 125.322 129.172 125.094 128.86C124.836 128.599 124.424 128.246 123.881 127.8C123.609 127.586 123.345 127.399 122.935 127.088" stroke="#131313" stroke-width="0.977583" stroke-linecap="round"/>
<path d="M130.032 38.8477C130.188 38.8596 130.571 38.9313 131.268 39.1592C131.78 39.3268 132.087 39.6403 132.417 39.8744C132.917 40.2288 133.049 40.8059 133.139 41.1001C133.224 41.3757 133.242 42.0284 133.206 42.8091C133.177 43.4592 132.787 43.8099 132.594 44.1177C132.335 44.5297 132.137 44.653 131.652 44.8514C130.797 45.2006 129.962 44.9184 129.595 44.8045C129.264 44.7016 128.523 44.0212 128.062 43.5194C127.737 42.9238 127.688 42.516 127.658 42.0242C127.652 41.7496 127.652 41.2617 127.652 40.759" stroke="#131313" stroke-width="0.977583" stroke-linecap="round"/>
<path d="M72.8472 117.246C73.2073 117.966 74.5813 119.85 76.418 122.268C77.6825 123.932 77.8302 125.355 78.0845 126.119C78.24 126.587 78.3038 128.074 78.2858 130.038C78.277 130.994 77.8346 132.296 77.2709 134.041C76.9903 134.909 76.8502 135.54 76.5239 136.627C75.4217 140.296 75.9749 142.926 76.1021 143.236C76.2931 143.702 76.1583 141.733 76.0126 140.985C75.7517 139.646 76.191 137.661 76.6652 136.784C77.3729 135.475 78.6661 133.802 78.9395 132.874C79.2845 131.703 79.6134 130.381 79.8852 128.495C79.9588 127.984 79.9408 127.585 80.0669 127.723C81.3331 129.11 81.3574 130.517 81.849 131.612C82.021 131.995 82.1224 132.341 82.6282 133.748C83.0762 134.994 83.7103 137.388 84.0988 138.918C84.638 141.043 84.6336 142.988 84.5795 145.223C84.5261 147.434 83.7627 148.054 83.3076 148.512C83.1119 148.708 82.2032 148.819 80.5181 149.327" stroke="#131313" stroke-width="0.977583" stroke-linecap="round"/>
<path d="M72.4105 116.699C72.5545 117.564 72.6288 119.737 72.4307 122.609C72.2532 125.182 70.7036 125.572 70.0303 126.318C69.3768 127.043 69.1387 127.792 68.7922 128.573C68.4522 129.341 67.6152 130.766 66.5386 133.532C66.0478 134.793 66.0808 135.793 65.9902 136.685C65.8557 138.008 66.5129 139.532 66.9898 140.525C67.0251 140.599 66.7399 140.599 66.4845 140.491C65.1087 139.909 64.6271 138.347 64.3897 136.409C64.1371 134.346 64.5518 132.817 64.8055 131.985C65.5793 129.447 65.6071 128.455 65.4461 126.889C65.2583 125.062 62.8832 129.61 62.3359 130.555C61.7629 131.545 61.3902 132.266 60.6814 133.555C60.056 134.692 59.5721 135.9 58.9707 138.751C58.7182 139.948 58.986 140.814 59.2577 141.432C59.8133 142.693 61.2745 143.323 62.3659 144.161C63.9177 145.352 65.9258 146.779 67.6184 147.761C69.477 148.664 70.8444 149.293 71.3513 149.402C72.965 149.949 77.0683 150.565 80.7284 149.253" stroke="#131313" stroke-width="0.977583" stroke-linecap="round"/>
<path d="M34.149 64.8272C33.7681 65.6312 33.6219 65.9122 33.1756 67.3556C32.4117 69.9473 31.5428 72.5435 30.7209 74.6707" stroke="#131313" stroke-width="0.977583" stroke-linecap="round"/>
<path d="M34.1827 64.7991C35.2681 64.0198 36.037 65.1536 36.3653 65.7523C36.6134 67.769 36.3956 73.5781 35.5254 76.6533C35.2792 77.0211 35.0218 77.232 34.7566 77.4492" stroke="#131313" stroke-width="0.977583" stroke-linecap="round"/>
<path d="M31.3932 72.5512C31.3896 72.2176 31.3862 71.8938 31.3745 71.6477C31.2034 70.8123 30.7147 69.9502 30.0502 69.3738C29.6058 69.1465 29.2214 69.1469 28.9148 69.2223C28.6204 69.2947 28.1765 69.3917 28.0656 69.8141C27.9508 70.251 28.0894 70.8131 28.0751 71.8995C28.0585 73.1628 28.2766 75.3125 28.079 79.8172L27.2957 81.8572" stroke="#131313" stroke-width="0.977583" stroke-linecap="round"/>
<path d="M35.3816 76.8935C36.8144 75.8496 38.9101 74.9147 40.287 74.3958C41.9012 73.7875 43.4477 73.9173 43.994 74.025C44.2307 74.0717 44.3535 74.2211 44.4137 74.3534C44.6895 74.9589 43.7672 75.8168 42.6227 77.0503C41.2209 78.561 38.4951 79.7814 37.1529 80.6309C36.8632 80.8142 36.5611 80.9688 36.3102 81.1408C36.04 81.3262 36.118 81.7873 36.2173 82.2274" stroke="#131313" stroke-width="0.977583" stroke-linecap="round"/>
<path d="M27.2344 81.853C26.3747 82.8594 25.8427 83.5588 25.5995 83.9647C25.2846 84.4903 24.5513 85.7234 23.8379 87.4722C23.1192 89.2339 23.4879 89.87 23.5209 90.2574C23.5594 90.7083 23.8858 91.3942 24.1631 91.8677C24.4899 92.4259 24.9399 92.8441 25.4816 93.186C25.8742 93.4339 26.3804 93.7786 26.8132 94.0263C27.1777 94.2348 27.7176 94.3202 29.1509 94.4635C30.2646 94.5748 31.0636 93.9596 31.7696 93.3598C32.2407 92.9596 32.4944 92.5915 32.7548 92.2696C33.0211 91.9404 33.4241 91.6769 33.8844 91.2682" stroke="#131313" stroke-width="0.977583" stroke-linecap="round"/>
<path d="M36.5387 82.3015C36.7601 82.3331 37.1431 82.302 37.8352 82.1431C38.8419 81.912 39.5252 81.6626 40.1754 81.6386C41.6787 81.5832 42.7844 81.6463 43.1104 81.7019C44.0803 81.8674 44.4769 82.268 44.7498 82.5241C45.0862 82.8399 45.1019 83.2266 45.1342 84.0637C45.1447 84.3361 44.358 84.6793 43.1142 85.2212C42.0277 85.6945 41.2076 86.1666 40.5536 86.382C39.731 86.653 39.3043 86.806 38.905 87.0135C38.1412 87.4105 37.7063 87.893 37.331 88.1399C37.0187 88.3453 36.0211 89.26 35.1588 89.9765C34.8171 90.2234 34.3368 90.6384 33.8738 91.1093C33.6955 91.2956 33.6322 91.3746 33.4712 91.5999" stroke="#131313" stroke-width="0.977583" stroke-linecap="round"/>
<path d="M28.3294 68.9719C28.3041 68.4921 28.2911 68.0934 28.31 67.8828C28.3156 67.821 28.3669 67.8616 28.4053 67.9126C28.4817 68.0269 28.6217 68.2434 28.7937 68.4919C28.8647 68.5889 28.9025 68.6268 29.0564 68.7424" stroke="#131313" stroke-width="0.977583" stroke-linecap="round"/>
<path d="M34.949 64.3382C34.9995 64.0352 35.0381 63.778 35.0636 63.5997C35.0746 63.5222 35.089 63.4719 35.1271 63.5532C35.1652 63.6346 35.2283 63.8492 35.2671 63.985C35.306 64.1209 35.3186 64.1714 35.3699 64.2617" stroke="#131313" stroke-width="0.977583" stroke-linecap="round"/>
<path d="M44.4475 73.8946C44.8041 73.8055 44.995 73.7672 45.1416 73.7796C45.2047 73.785 45.225 73.8678 45.2317 73.9256C45.1496 74.1491 44.9709 74.3151 44.8755 74.3978C44.8305 74.4425 44.7926 74.493 44.7536 74.5451" stroke="#131313" stroke-width="0.977583" stroke-linecap="round"/>
<path d="M45.1946 82.5625C45.1946 82.587 45.5503 82.6671 46.0953 82.7939C46.2886 82.8388 46.297 82.9022 46.2879 82.9428C46.1615 83.0702 45.9942 83.1323 45.8094 83.157C45.6798 83.1694 45.4774 83.1817 45.2689 83.1943" stroke="#131313" stroke-width="0.977583" stroke-linecap="round"/>
<path d="M32.4226 69.2773C32.3758 69.4334 32.4453 69.6855 32.6536 70.012C32.8574 70.3316 33.3028 70.5921 33.8102 70.8481C34.233 71.0615 34.6439 71.0273 34.939 71.0195C35.297 71.01 35.5891 70.831 35.8234 70.6967C35.9615 70.5704 36.0719 70.4602 36.1348 70.3775C36.1665 70.3417 36.1977 70.3183 36.2299 70.2705" stroke="#131313" stroke-width="0.977583" stroke-linecap="round"/>
<path d="M31.8786 70.793C31.8628 71.2023 31.9411 71.4537 32.2477 71.9143C32.4248 72.1805 32.6895 72.3294 32.9252 72.467C33.4546 72.7762 33.7856 72.7084 34.0958 72.7281C34.4357 72.7496 34.8561 72.6462 35.2339 72.485C35.711 72.2812 35.8978 72.1177 36.0559 72.0034C36.0877 71.9756 36.1111 71.9522 36.1544 71.905C36.1976 71.8578 36.2601 71.7876 36.3244 71.7152" stroke="#131313" stroke-width="0.977583" stroke-linecap="round"/>
<path d="M141.986 85.6318C142.366 86.4359 142.513 86.7169 142.959 88.1602C143.723 90.752 144.592 93.3482 145.414 95.4754" stroke="#131313" stroke-width="0.977583" stroke-linecap="round"/>
<path d="M141.952 85.6037C140.866 84.8245 140.098 85.9583 139.769 86.557C139.521 88.5736 139.739 94.3828 140.609 97.458C140.855 97.8258 141.113 98.0367 141.378 98.2539" stroke="#131313" stroke-width="0.977583" stroke-linecap="round"/>
<path d="M144.741 93.3559C144.745 93.0223 144.748 92.6985 144.76 92.4524C144.931 91.6169 145.42 90.7549 146.084 90.1785C146.529 89.9511 146.913 89.9516 147.22 90.027C147.514 90.0994 147.958 90.1964 148.069 90.6188C148.184 91.0557 148.045 91.6178 148.059 92.7042C148.076 93.9675 147.858 96.1172 148.056 100.622L148.839 102.662" stroke="#131313" stroke-width="0.977583" stroke-linecap="round"/>
<path d="M140.753 97.6982C139.32 96.6543 137.224 95.7194 135.848 95.2005C134.233 94.5921 132.687 94.7219 132.14 94.8297C131.904 94.8764 131.781 95.0258 131.721 95.1581C131.445 95.7636 132.367 96.6215 133.512 97.855C134.914 99.3657 137.639 100.586 138.982 101.436C139.271 101.619 139.573 101.773 139.824 101.946C140.095 102.131 140.017 102.592 139.917 103.032" stroke="#131313" stroke-width="0.977583" stroke-linecap="round"/>
<path d="M148.9 102.658C149.76 103.664 150.292 104.363 150.535 104.769C150.85 105.295 151.583 106.528 152.296 108.277C153.015 110.039 152.646 110.675 152.613 111.062C152.575 111.513 152.248 112.199 151.971 112.672C151.644 113.231 151.194 113.649 150.653 113.991C150.26 114.239 149.754 114.583 149.321 114.831C148.957 115.04 148.417 115.125 146.983 115.268C145.87 115.379 145.071 114.764 144.365 114.165C143.894 113.764 143.64 113.396 143.379 113.074C143.113 112.745 142.71 112.482 142.25 112.073" stroke="#131313" stroke-width="0.977583" stroke-linecap="round"/>
<path d="M139.596 103.102C139.374 103.134 138.991 103.103 138.299 102.944C137.293 102.713 136.609 102.463 135.959 102.439C134.456 102.384 133.35 102.447 133.024 102.503C132.054 102.668 131.658 103.069 131.385 103.325C131.048 103.641 131.033 104.027 131 104.864C130.99 105.137 131.777 105.48 133.02 106.022C134.107 106.495 134.927 106.967 135.581 107.183C136.404 107.454 136.83 107.607 137.23 107.814C137.993 108.211 138.428 108.694 138.804 108.941C139.116 109.146 140.113 110.061 140.976 110.777C141.317 111.024 141.798 111.439 142.261 111.91C142.439 112.096 142.502 112.175 142.663 112.401" stroke="#131313" stroke-width="0.977583" stroke-linecap="round"/>
<path d="M130.853 103.598C130.537 103.598 130.102 103.598 129.714 103.609C129.596 103.612 129.642 103.643 129.688 103.671C129.882 103.803 130.065 103.906 130.201 103.974C130.27 104.008 130.338 104.042 130.511 104.146" stroke="#131313" stroke-width="0.977583" stroke-linecap="round"/>
<path d="M131.744 94.6216C131.405 94.3955 131.173 94.2564 131.071 94.2391C131.025 94.2314 130.991 94.2783 130.973 94.341C130.892 94.6328 131.07 94.8491 131.218 95.0321C131.275 95.078 131.354 95.1232 131.412 95.1635C131.469 95.2037 131.503 95.2376 131.641 95.3068" stroke="#131313" stroke-width="0.977583" stroke-linecap="round"/>
<path d="M140.583 85.2005C140.538 84.8839 140.504 84.653 140.486 84.5276C140.479 84.4703 140.481 84.4248 140.526 84.4637C140.571 84.5026 140.662 84.627 140.725 84.708C140.789 84.789 140.823 84.8229 140.892 84.9264" stroke="#131313" stroke-width="0.977583" stroke-linecap="round"/>
<path d="M146.853 89.7577C147.147 89.215 147.332 88.8902 147.389 88.7991C147.413 88.7532 147.424 88.7079 147.43 88.8203C147.435 88.9327 147.435 89.204 147.435 89.4836" stroke="#131313" stroke-width="0.977583" stroke-linecap="round"/>
<path d="M136.313 102.449C136.449 102.797 136.565 103.053 136.653 103.209C136.742 103.368 136.817 103.671 136.898 104.189C136.945 104.493 136.955 104.888 136.963 105.137C136.974 105.476 136.887 105.789 136.75 106.175C136.505 106.594 136.382 106.716 136.299 106.796C136.26 106.831 136.23 106.854 136.176 106.877" stroke="#131313" stroke-width="0.977583" stroke-linecap="round"/>
<path d="M138.334 102.977C138.386 103.29 138.482 103.635 138.597 103.955C138.675 104.175 138.694 104.662 138.707 105.361C138.724 106.229 138.422 106.61 138.272 106.843C138.237 106.927 138.089 107.128 137.86 107.392C137.771 107.491 137.736 107.517 137.7 107.596" stroke="#131313" stroke-width="0.977583" stroke-linecap="round"/>
<path d="M157.781 36.4393C172.898 27.6603 192.124 39.2611 192.258 56.4833C192.353 68.6441 183.902 79.1536 172.485 82.8236C158.157 87.4294 143.008 76.751 143.019 61.9483C143.028 50.6454 148.223 41.9899 157.781 36.4393Z" stroke="#131313" stroke-width="0.58655" stroke-linecap="round"/>
<path d="M161.229 34.9693C147.898 45.4816 142.319 62.9246 157.332 81.9813" stroke="#131313" stroke-width="0.58655" stroke-linecap="round"/>
<path d="M165.987 33.5819C158.407 40.5507 152.19 69.7218 169.173 83.6076" stroke="#131313" stroke-width="0.58655" stroke-linecap="round"/>
<path d="M168.645 33.4805C168.633 33.5152 168.62 33.5499 168.872 34.8495C169.123 36.149 169.639 38.7125 170.617 43.0761C171.596 47.4398 173.022 53.5259 173.91 58.0428C174.798 62.5596 175.105 65.3227 175.739 68.7098C176.373 72.0969 177.323 76.0242 178.303 80.0706" stroke="#131313" stroke-width="0.58655" stroke-linecap="round"/>
<path d="M171.007 33.4883C178.259 36.0522 182.929 42.0362 185.416 49.0342M185.721 74.1972C187.828 68.2354 188.26 60.47 186.627 53.2378" stroke="#131313" stroke-width="0.58655" stroke-linecap="round"/>
<path d="M175.906 34.5083C173.742 36.0156 171.485 37.2039 169.606 37.9065C168.549 38.3019 167.114 38.954 164.733 39.6687C163.527 40.0303 162.228 40.0485 161.046 40.0908C159.865 40.1331 158.816 40.1117 157.805 39.9781C155.854 39.5996 154.733 39.3515 154.435 39.3343C154.289 39.3128 154.155 39.2654 154.016 39.2165" stroke="#131313" stroke-width="0.58655" stroke-linecap="round"/>
<path d="M179.852 36.6168C179.619 37.1921 179.386 37.7675 178.663 38.8075C177.94 39.8476 176.735 41.3348 175.939 42.2632C174.832 43.5528 173.758 44.33 172.579 45.135C171.788 45.6753 170.777 46.1763 169.717 46.8126C169.155 47.1504 168.281 47.4988 167.082 48.0252C166.253 48.389 165.486 48.4766 164.15 48.8155C161.68 49.4419 159.697 49.5719 159.007 49.6291C158.392 49.68 157.891 49.7797 156.957 49.7798C155.009 49.7799 153.221 49.5781 152.189 49.4238C151.216 49.3504 149.655 49.1316 147.794 48.7457C147.014 48.5623 146.568 48.4045 146.187 48.27" stroke="#131313" stroke-width="0.58655" stroke-linecap="round"/>
<path d="M186.112 40.9988C185.284 42.8448 184.607 44.0931 184.099 44.6616C183.616 45.2009 183.021 45.7518 181.424 47.2579C180.152 48.457 177.821 50.4013 176.45 51.5331C174.747 52.9396 173.9 53.5061 173.103 54.1829C172.743 54.4887 172.433 54.6668 171.073 55.3339C169.713 56.001 167.302 57.1385 165.718 57.8265C164.134 58.5144 163.451 58.7183 161.761 58.9442C160.071 59.1701 157.394 59.4119 155.516 59.5083C153.638 59.6048 152.639 59.5486 151.159 59.3268C149.679 59.1051 147.748 58.7196 146.584 58.5057C145.082 58.2612 144.491 58.1737 144.024 58.0833C143.799 58.0489 143.599 58.0377 143.158 57.9429" stroke="#131313" stroke-width="0.58655" stroke-linecap="round"/>
<path d="M190.14 46.8649C189.667 48.2017 189.253 49.3716 188.515 50.8936C187.998 51.9601 186.988 53.5199 186.034 54.8513C185.081 56.1828 184.164 57.2121 182.856 58.4095C181.548 59.607 179.878 60.9414 178.515 61.9626C177.152 62.9838 176.148 63.6514 174.982 64.3524C173.815 65.0535 172.518 65.7678 171.578 66.2505C170.639 66.7332 170.097 66.9626 169.473 67.1847C168.85 67.4068 168.161 67.6147 165.634 68.1719C163.108 68.7291 158.763 69.6294 155.363 70.1186C151.963 70.6078 149.64 70.6587 148.356 70.6693C146.528 70.6388 145.791 70.6215 145.149 70.5013C144.978 70.4564 144.787 70.3888 144.619 70.2381" stroke="#131313" stroke-width="0.58655" stroke-linecap="round"/>
<path d="M192.232 56.6284C191.938 57.102 191.644 57.5756 190.726 58.8707C189.807 60.1657 188.273 62.2679 186.548 64.1147C184.823 65.9615 182.955 67.4894 181.775 68.3974C180.207 69.6041 179.159 70.2076 177.693 71.2033C176.8 71.8101 175.54 72.5335 174.635 73.0371C173.227 73.8208 172.133 74.1742 171.113 74.4875C170.159 74.7807 168.678 75.2831 166.526 75.8695C165.414 76.1726 164.28 76.5442 163.129 76.8479C160.865 77.4453 159.302 77.6533 158.36 77.7485C157.074 77.8785 155.761 78.1813 154.409 78.2695C152.737 78.2754 151.263 78.1588 150.406 77.9636C150.084 77.8663 149.991 77.7724 149.782 77.4518" stroke="#131313" stroke-width="0.58655" stroke-linecap="round"/>
<path d="M183.063 50.4245C182.581 49.8853 181.467 48.711 181.503 48.7329C181.877 48.9629 182.853 49.3004 183.595 49.443C184.069 49.5146 184.482 49.5932 184.697 49.5305C185.159 49.3956 185.581 49.0183 185.993 48.8237C186.067 48.7887 186.123 48.7955 186.091 48.9237C185.995 49.3045 185.859 49.7507 185.866 50.1497C185.873 50.5715 185.89 50.8438 185.94 50.9354C186.067 51.1661 186.243 51.5819 186.509 51.9944C186.685 52.2694 186.979 52.5982 187.286 53.0153C187.604 53.4461 187.89 53.9176 187.794 53.865C187.591 53.7534 187.181 53.6377 186.546 53.1428L186.538 53.136C186.316 52.9631 186.028 52.7388 185.624 52.5651C185.334 52.4402 185.033 52.3579 184.732 52.3176C184.373 52.2695 183.712 52.2108 183.476 52.4972C183.28 52.7358 182.943 53.495 182.994 53.3396C183.228 52.6307 183.42 51.9729 183.408 51.8033C183.39 51.5393 183.568 50.9905 183.063 50.4245Z" stroke="#131313" stroke-width="0.58655" stroke-linecap="round"/>
<path d="M142.549 28.0156C142.821 28.3147 143.35 29.3004 145.678 33.2933C146.513 34.4828 147.442 36.1844 148.459 38.4002C148.825 39.2223 148.888 39.4304 148.898 39.8641" stroke="#131313" stroke-width="0.977583" stroke-linecap="round"/>
<path d="M142.422 27.7861C144.139 26.17 145.113 25.2961 145.354 25.2355C145.7 25.1482 146.27 25.1832 146.962 25.1229C147.64 25.0639 148.604 25.2029 149.62 25.3688C150.188 25.4616 150.486 25.7055 150.785 26.0541C151.152 26.483 151.359 26.9899 151.454 27.4805C151.563 28.0499 151.371 29.0712 151.093 30.212C150.94 30.8414 150.711 31.1886 150.44 31.5955C150.098 32.11 149.707 32.4878 149.434 32.7415C149.173 32.9843 148.672 33.405 147.96 33.8636C147.178 34.3674 146.81 34.5715 146.462 34.6709C146.377 34.695 146.29 34.7161 146.29 34.677C146.293 34.5064 146.899 34.3869 147.694 34.3363C148.063 34.3228 148.364 34.3344 149.574 34.5651C150.784 34.7958 152.895 35.2453 155.057 35.754" stroke="#131313" stroke-width="0.977583" stroke-linecap="round"/>
<path d="M157.3 34.3695C157.316 34.3385 157.331 34.3075 157.332 34.0201C157.332 33.7326 157.316 33.1898 156.959 31.2195C156.602 29.2492 155.905 25.8679 155.514 23.7227C155.123 21.5775 155.061 20.771 156.673 21.9608C158.286 23.1507 161.574 26.3614 163.307 28.0929C165.039 29.8245 165.117 29.9796 165.291 30.2334" stroke="#131313" stroke-width="0.977583" stroke-linecap="round"/>
<path d="M156.548 28.8663C157.169 28.2769 157.737 27.8492 158.345 27.5914C159.171 27.3181 160.007 27.0192 160.656 26.7144C160.949 26.5647 161.166 26.4251 161.39 26.2812" stroke="#131313" stroke-width="0.977583" stroke-linecap="round"/>
<path d="M162.859 18.2461C162.952 18.7424 163.045 19.2388 163.961 21.2704C164.878 23.3021 166.615 26.854 167.541 28.7303C168.467 30.6066 168.529 30.6996 168.576 30.7786C168.624 30.8576 168.655 30.9196 169.237 29.0438C169.819 27.1679 170.951 23.3524 171.55 21.2782C172.149 19.204 172.18 18.9868 172.212 18.6691" stroke="#131313" stroke-width="0.977583" stroke-linecap="round"/>
<path d="M175.737 17.918C175.457 19.4845 175.178 21.0511 174.794 23.0679C174.41 25.0848 173.929 27.5044 173.681 28.8207C173.434 30.137 173.434 30.2766 173.503 30.3873C173.573 30.498 173.713 30.5755 174.235 30.7318C174.756 30.8881 175.656 31.1207 176.298 31.3259C177.314 31.6507 177.788 31.955 178.131 32.1423C178.66 32.3917 179.088 32.551 179.284 32.5822C179.371 32.598 179.433 32.6135 179.544 32.6295" stroke="#131313" stroke-width="0.977583" stroke-linecap="round"/>
<path d="M174.644 24.7305C175.804 24.7305 177.439 24.8831 179.119 25.1449C179.76 25.254 179.974 25.315 180.145 25.3618C180.316 25.4085 180.438 25.439 180.564 25.4704" stroke="#131313" stroke-width="0.977583" stroke-linecap="round"/>
<path d="M175.569 17.8906C177.046 18.3836 178.214 18.6287 179.158 18.8304C179.975 19.0921 180.593 19.3086 180.87 19.3854C181.024 19.4316 181.207 19.4927 181.674 19.6481" stroke="#131313" stroke-width="0.977583" stroke-linecap="round"/>
<path d="M10.265 60.7529C10.0856 60.2147 9.90623 59.6766 8.35307 57.2594C6.7999 54.8423 3.87839 50.5626 2.33493 48.281C0.791474 45.9994 0.714594 45.8456 0.572479 45.6254C0.430365 45.4053 0.225346 45.1234 2.23398 45.9392C4.24261 46.755 8.47111 48.677 10.6879 49.6287C12.9046 50.5804 12.9815 50.5036 13.0211 50.3358C13.119 49.9214 12.9582 49.4427 12.0213 47.7226C11.1939 46.2036 9.62356 43.3885 8.74136 41.7313C7.27138 38.9699 7.0554 38.1295 7.10626 38.1407C7.60908 38.252 7.98264 39.3666 10.0266 41.0518C11.598 42.3474 14.4027 44.3515 16.0207 45.5101C17.6387 46.6688 18.0231 46.8738 18.6696 47.3382C19.3161 47.8026 20.2131 48.5202 20.7264 48.9411C21.2397 49.362 21.3422 49.4645 21.5255 49.6478" stroke="#FF0404" stroke-width="0.977583" stroke-linecap="round"/>
<path d="M23.1368 47.494C21.1379 44.5212 19.1389 41.5485 17.7632 39.5173C16.3875 37.4862 15.6956 36.4867 15.211 35.8181C14.4918 34.8258 14.1036 34.3457 14.0251 34.061C13.9665 33.8482 14.9764 34.1344 16.6259 34.8427C17.6728 35.2922 19.0954 36.0378 20.0526 36.4844C21.427 37.1256 22.0736 37.3456 22.4864 37.5394C23.8815 38.043 25.7189 38.7939 26.7281 39.1818C27.0966 39.3391 27.1735 39.416 27.408 39.5728" stroke="#FF0404" stroke-width="0.977583" stroke-linecap="round"/>
<path d="M19.4092 41.129C20.178 40.1552 20.8047 39.346 21.231 38.8031C21.5805 38.4141 21.8414 38.1275 22.048 37.8437C22.1521 37.688 22.2546 37.5086 22.4379 37.2461" stroke="#FF0404" stroke-width="0.977583" stroke-linecap="round"/>
<path d="M18.0115 29.1705C18.2677 29.5293 18.5535 29.8679 19.5938 30.7031C20.4656 31.4031 22.0947 32.589 22.9905 33.2352C24.2119 34.1161 24.6621 34.3208 25.0124 34.5926C25.5977 35.0469 26.9608 35.9485 27.5623 36.3916C27.6512 36.457 27.7172 36.5465 27.8081 36.5477C28.0157 36.5503 28.1839 36.2902 28.7361 35.238C29.2296 34.2975 30.0827 32.4943 30.5828 31.4933C31.0829 30.4923 31.1854 30.3385 31.6739 29.7467C33.0188 28.1175 33.9827 26.9712 34.0091 26.7518C34.0421 26.4777 33.4686 26.0673 32.1826 25.1272C31.2041 24.4947 29.5639 23.5465 28.4115 22.9299C27.259 22.3133 26.644 22.057 25.9326 21.793" stroke="#FF0404" stroke-width="0.977583" stroke-linecap="round"/>
<path d="M22.2827 24.9727C24.2816 26.6128 25.7983 27.7653 26.882 28.4875C28.1708 29.4147 29.2425 30.1478 29.8245 30.4969C30.0478 30.6409 30.1247 30.7178 30.2815 30.797" stroke="#FF0404" stroke-width="0.977583" stroke-linecap="round"/>
<path d="M36.4941 25.267C36.3403 25.0107 36.1866 24.7544 35.1207 23.5973C34.0548 22.4402 32.0815 20.39 30.8472 19.0648C28.5327 16.5799 28.1862 16.0023 28.0421 15.574C28.0107 15.4805 28.2079 15.4059 28.4405 15.3919C29.6491 15.3193 30.7676 16.0241 31.5857 16.3351C32.6153 16.7265 33.5648 16.9824 34.7281 17.3699C36.9278 18.1026 38.406 18.6381 39.2478 18.9755C40.012 19.2865 40.7373 19.5451 41.112 19.7132C41.2817 19.7789 41.4099 19.8045 41.6195 19.9085" stroke="#FF0404" stroke-width="0.977583" stroke-linecap="round"/>
<path d="M33.7761 21.6945C33.853 21.387 33.9299 21.0794 34.0079 20.8185C34.086 20.5576 34.1629 20.3525 34.4203 19.8625C34.6777 19.3725 35.1134 18.6037 35.6399 17.6562" stroke="#FF0404" stroke-width="0.977583" stroke-linecap="round"/>
<path d="M12.5154 76.2376C12.4476 75.0841 11.5306 72.8955 10.0754 70.327C9.51833 69.3436 9.26482 69.0476 8.90501 68.3475C8.54521 67.6474 8.07026 66.5618 9.08081 66.257C10.0913 65.9522 12.6018 66.4611 14.2512 66.8589C16.6377 67.4345 17.4828 67.8417 17.6545 68.0288C17.7609 68.1448 17.6226 68.4534 16.8753 69.4752C16.1279 70.4971 14.703 72.2612 13.8164 73.4413C12.089 75.7405 11.3908 76.914 10.905 77.9821C11.5532 78.7377 12.3756 79.1489 12.9246 79.3041C13.0623 79.3216 13.198 79.3216 13.3378 79.3216" stroke="#FF0404" stroke-width="0.977583" stroke-linecap="round"/>
<path d="M17.6555 67.9075C17.9269 67.4305 18.8172 66.676 19.3158 66.1959C19.4302 66.0857 19.5717 66.0242 19.7265 66.2267C19.8812 66.4292 20.0508 66.9042 20.1721 67.2506C20.2934 67.5971 20.3613 67.8006 20.6368 68.3187" stroke="#FF0404" stroke-width="0.977583" stroke-linecap="round"/>
<path d="M14.3982 60.0039C15.9862 60.6815 17.5743 61.359 19.0911 62.1104C20.6079 62.8617 22.0054 63.6664 22.7783 64.1232C23.657 64.6647 23.8507 64.8367 24.0214 64.9968C24.1074 65.0722 24.1921 65.1357 24.2794 65.2011" stroke="#FF0404" stroke-width="0.977583" stroke-linecap="round"/>
<path d="M14.3499 59.8109C14.6463 58.8369 15.0743 57.7846 15.5866 56.8022C15.9771 56.0534 16.8458 55.1545 17.9565 54.1712C18.6351 53.5704 19.3937 53.5235 20.0238 53.4272C20.4595 53.3607 20.7437 53.458 20.9888 53.639C21.3278 53.8892 21.599 54.3121 21.8233 54.7811C22.072 55.3013 22.0283 56.1272 21.9644 56.9922C21.9173 57.6313 21.4964 58.4577 20.8567 59.5674C19.6761 61.1576 19.4624 61.4772 19.3023 61.8083C19.2269 61.9488 19.1634 62.0335 19.0979 62.1207" stroke="#FF0404" stroke-width="0.977583" stroke-linecap="round"/>
<path d="M28.9791 59.555C28.725 59.3433 28.4882 59.086 27.3644 57.6227C26.3515 56.3038 24.4196 53.8303 23.4058 52.5118C22.3353 51.1195 22.2849 50.9154 22.2952 50.7126C22.3061 50.4974 23.642 50.4438 25.4697 50.4544C26.154 50.4583 26.3445 50.4861 27.025 50.6559C28.8766 51.1177 30.2604 51.5551 30.6021 51.694C31.0392 51.8717 31.3942 51.9196 31.9283 52.1643C32.0788 52.2397 32.227 52.3033 32.3457 52.3677C32.4644 52.4322 32.5491 52.4957 32.7006 52.5612" stroke="#FF0404" stroke-width="0.977583" stroke-linecap="round"/>
<path d="M25.8936 55.2876C26.4913 54.3073 27.0503 53.4436 27.4725 52.8225C27.8853 52.0652 28.1505 51.5337 28.3561 51.3035C28.4284 51.2312 28.536 51.1236 28.6468 50.9766" stroke="#FF0404" stroke-width="0.977583" stroke-linecap="round"/>
<path d="M25.4731 46.7188C26.4669 47.1941 27.7565 47.6334 29.0104 47.9387C29.9929 48.178 30.8372 48.1368 32.004 47.5185C32.5509 47.2287 32.7389 46.7856 32.8371 46.4056C32.9918 45.8067 32.8272 45.3016 32.7294 45.0839C32.5133 44.6034 31.7838 44.1684 30.975 43.5573C30.5453 43.2326 29.7564 42.577 28.8828 41.9983C28.7777 41.9287 29.4395 42.4592 30.3436 43.2437C31.0104 43.8224 31.9049 44.2502 32.788 44.719C33.2606 44.9932 34.2583 45.4279 35.9132 46.0272C36.704 46.2809 37.3952 46.4321 38.3039 46.5225" stroke="#FF0404" stroke-width="0.977583" stroke-linecap="round"/>
<path d="M36.4825 40.5689C37.2793 36.4232 37.1957 35.3082 37.0809 35.0991C36.9491 34.8589 36.5894 34.7208 36.1401 34.6161C35.638 34.4991 35.226 34.5523 34.9231 34.7498C33.8438 35.4536 34.0097 37.0811 33.9773 37.8835C33.9531 38.4822 34.3845 39.1803 34.7933 40.0941C35.2602 41.1378 36.5014 41.7211 36.952 41.8368C37.3911 41.9496 37.8434 41.9525 38.3025 41.8487C39.057 41.6782 39.5213 41.2198 39.7301 40.9796C40.0058 40.6624 40.4005 39.9872 40.8603 38.6511C41.1124 37.8339 41.403 36.7339 41.5527 36.0531C41.7023 35.3724 41.7023 35.1441 41.7023 34.9089" stroke="#FF0404" stroke-width="0.977583" stroke-linecap="round"/>
<path d="M31.3884 34.9727C31.3676 34.9727 31.3469 34.9727 31.4607 35.1283C31.5745 35.284 31.8236 35.5953 31.9934 35.7556C32.1632 35.916 32.2462 35.916 32.5204 35.9789" stroke="#FF0404" stroke-width="0.977583" stroke-linecap="round"/>
<path d="M32.5833 33.7148C32.687 33.8394 32.7908 33.9639 32.8858 34.0695C32.9807 34.1752 33.0637 34.2582 33.1493 34.3437" stroke="#FF0404" stroke-width="0.977583" stroke-linecap="round"/>
<path d="M36.7561 29.3633C37.4964 29.6737 38.2367 29.9842 39.6091 30.4426C40.9815 30.9011 42.9636 31.4981 44.1041 31.8773C45.4834 32.3997 45.825 32.5713 46.0294 32.6552C46.1383 32.7153 46.2577 32.8108 46.5255 33.0539" stroke="#FF0404" stroke-width="0.977583" stroke-linecap="round"/>
<path d="M36.5388 29.1508C37.3573 27.4885 38.5086 26.1925 39.1787 25.4377C39.421 25.1648 39.6259 24.9304 39.7461 24.7737C39.8606 24.6244 40.1079 24.6641 40.3243 24.7358C41.2377 25.0382 41.2904 26.6629 41.4351 27.566C41.7578 29.5797 41.2911 30.4765 41.2788 30.4899C41.042 30.7476 41.5784 29.3013 41.9992 28.1941C42.3989 27.1424 43.0488 26.4038 43.5547 25.9338C44.3097 25.2322 45.9637 25.1707 46.6443 25.2785C47.1305 25.3555 47.1274 26.4921 47.1288 28.6837C47.1298 30.1619 46.767 30.7168 46.7305 31.2353C46.7185 31.3688 46.6946 31.4882 46.6704 31.6094C46.6461 31.7306 46.6223 31.85 46.5977 32.0454" stroke="#FF0404" stroke-width="0.977583" stroke-linecap="round"/>
<path d="M49.9823 24.3015C49.9823 24.2476 49.7801 23.8827 48.7927 22.6776C48.051 21.7723 46.6458 20.4208 45.8432 19.5773C44.8163 18.4981 44.549 18.0788 44.3522 17.7734C43.9307 17.119 43.8809 16.934 43.8875 16.832C43.9177 16.3615 45.2807 16.7558 45.9929 16.9319C46.4219 17.0541 46.9882 17.2428 48.2036 17.5693C49.4189 17.8958 51.2661 18.3542 53.1693 18.8265" stroke="#FF0404" stroke-width="0.977583" stroke-linecap="round"/>
<path d="M47.1631 21.1559C47.271 20.8323 47.3788 20.5087 47.7108 19.9173C48.0428 19.3259 48.5956 18.4764 49.206 17.5195" stroke="#FF0404" stroke-width="0.977583" stroke-linecap="round"/>
<path d="M165.326 102.055C164.797 103.444 164.127 105.317 163.377 107.55C162.697 109.576 162.254 110.97 161.987 111.687C161.444 113.146 160.453 116.037 160.098 117.385C159.878 118.221 159.549 119.419 159.23 120.192C158.981 120.795 158.747 122.488 158.594 123.799C158.474 124.831 158.445 125.771 158.576 127.321C158.697 128.753 160.912 128.511 161.599 128.796C162.253 129.068 163.548 129.379 164.322 129.631C164.883 129.815 165.522 130.082 166.291 130.166C167.723 130.322 168.362 130.683 169.015 130.884C169.578 131.057 170.333 131.151 171.186 131.385C171.786 131.55 172.604 131.585 173.208 131.637C173.744 131.682 173.642 130.421 174.21 128.786C174.706 127.357 175.446 125.777 175.781 124.908C176.264 123.653 176.981 121.872 177.384 120.2C177.746 118.698 178.42 117.226 178.704 115.924C179.04 114.377 179.389 113.618 179.606 112.598C179.818 111.604 180.024 110.91 180.257 110.109C180.592 108.963 180.559 108.006 180.642 107.202C180.666 106.969 180.659 106.671 180.56 106.484C180.168 105.748 179.192 105.697 178.574 105.579C177.604 105.395 176.59 105.264 174.603 104.713C173.621 104.44 172.778 104.159 171.245 103.71C170.062 103.364 169.371 103.392 168.32 103.091C167.533 102.924 166.799 102.757 166.182 102.607C165.896 102.556 165.664 102.556 165.426 102.556" stroke="#131313" stroke-width="0.58655" stroke-linecap="round"/>
<path d="M166.729 102.557C166.729 101.926 166.994 100.193 167.378 98.7221C168.233 95.4539 168.966 94.1761 169.267 93.5222C169.575 92.8518 170.331 91.9071 171.036 91.1831C171.475 90.7325 172.173 90.9641 172.423 91.0969C172.726 91.2575 172.775 91.6646 172.925 91.8816C173.581 92.8351 175.679 92.1657 176.165 92.5496C177.413 93.5355 180.058 93.1008 180.042 93.434C179.992 94.431 179.457 95.6053 179.357 96.1404C179.307 96.4106 179.256 96.7417 179.323 97.0755C179.442 97.6769 180.523 97.5776 180.992 97.9945C181.529 98.4719 180.529 99.9087 180.243 100.767C180.025 101.419 179.826 102.218 179.542 102.954C179.223 104.058 179.09 104.593 178.973 104.876C178.923 105.027 178.89 105.192 178.655 105.563" stroke="#131313" stroke-width="0.58655" stroke-linecap="round"/>
<path d="M180.159 93.5352C180.159 93.7647 180.225 94.9022 180.475 95.4373C180.859 95.9725 181.094 96.3734 181.144 96.7061C181.161 96.9065 181.161 97.1711 180.96 97.6442" stroke="#131313" stroke-width="0.58655" stroke-linecap="round"/>
<path d="M158.31 127.508C157.743 128.474 157.41 129.342 156.992 130.26C156.803 130.677 156.574 130.98 156.639 131.148C156.938 131.912 158.569 130.715 159.743 131.081C160.774 131.403 161.447 130.382 162.066 130.38C163.237 130.375 163.452 131.45 164.187 131.732C164.379 131.805 164.488 131.982 164.622 132.033C164.756 132.085 164.889 132.052 164.973 131.969C165.058 131.885 165.091 131.753 165.191 131.685C165.417 131.531 166.023 132.014 166.875 132.468C167.768 132.944 168.632 132.618 168.799 132.834C168.963 133.048 169 133.353 169.298 133.553C170.312 134.233 171.169 134.419 171.738 134.69C172.222 134.921 172.806 134.922 173.308 135.291C173.926 135.745 173.478 133.224 173.277 132.604C173.243 132.454 173.243 132.288 173.227 132.137C173.21 131.986 173.177 131.853 173.143 131.717" stroke="#131313" stroke-width="0.58655" stroke-linecap="round"/>
<path d="M165.254 102.582C165.254 103.576 165.254 104.64 165.295 105.422C165.304 105.594 166.002 104.985 166.743 104.48C166.879 104.387 167.036 104.423 167.217 104.589C167.69 105.02 167.93 105.51 168.166 105.621C168.835 105.938 170.07 106.202 170.816 106.861C171.111 107.122 171.416 107.268 171.681 107.24C172.227 107.183 172.781 106.71 173.34 106.71C174.134 106.708 174.595 107.294 175.333 107.171C176.178 107.03 177.021 106.682 177.439 106.779C177.891 106.883 178.082 107.323 178.319 107.379C178.881 107.512 179.364 106.961 179.992 106.878C180.119 106.823 180.174 106.712 180.203 106.572C180.231 106.433 180.231 106.267 180.231 106.096" stroke="#131313" stroke-width="0.58655" stroke-linecap="round"/>
<path d="M181.097 98.3867C181.371 99.7394 181.517 100.289 181.518 100.947C181.518 101.627 181.17 102.047 181.024 102.458C180.851 102.945 180.695 103.255 180.484 103.703C180.27 104.16 180 104.88 179.825 105.406C179.797 105.489 179.761 105.561 179.733 105.635C179.705 105.709 179.687 105.781 179.614 106.02" stroke="#131313" stroke-width="0.58655" stroke-linecap="round"/>
<path d="M177.069 89.5506C176.901 90.0858 176.832 90.4285 176.899 90.5717C176.938 90.6545 177.033 90.7316 177.11 90.783C177.186 90.8345 177.253 90.8512 177.346 90.8013C177.583 90.6743 177.727 90.4635 177.82 90.3372C177.934 90.1825 177.93 89.9236 177.897 89.6958C177.882 89.5971 177.797 89.5516 177.72 89.5174C177.644 89.4832 177.56 89.4665 177.467 89.4578C177.374 89.4492 177.273 89.4492 177.17 89.4492" stroke="#131313" stroke-width="0.58655" stroke-linecap="round"/>
<path d="M181.84 91.2658C181.915 91.6199 181.953 91.918 182.018 92.2635C182.072 92.5533 182.158 92.7966 182.26 92.9456C182.383 93.1246 182.587 93.2079 182.764 93.2639C182.986 93.3343 183.203 93.2275 183.343 93.1157C183.608 92.9042 183.67 92.5187 183.68 91.4661C183.685 90.9211 183.354 90.5576 183.037 90.3141C182.517 89.9144 181.879 90.1822 181.748 90.2844C181.616 90.6299 181.579 90.9655 181.57 91.5995C181.579 91.7505 181.597 91.8429 181.728 91.9942" stroke="#131313" stroke-width="0.58655" stroke-linecap="round"/>
<path d="M183.858 94.8529C183.672 95.0014 183.411 95.374 183.307 95.7385C183.274 95.8555 183.297 96.0262 183.334 96.1397C183.371 96.2531 183.445 96.3086 183.52 96.3464C183.663 96.4181 183.838 96.4033 184.043 96.3383C184.159 96.3015 184.285 96.2178 184.351 95.9856C184.418 95.7533 184.418 95.365 184.39 95.1373C184.363 94.9095 184.307 94.854 184.194 94.7969" stroke="#131313" stroke-width="0.58655" stroke-linecap="round"/>
<path d="M163.624 121.129C163.423 121.731 162.978 123.709 162.966 124.497C162.964 124.628 163.176 124.748 163.359 124.821C164.076 125.105 164.734 124.712 165.362 124.248C166.17 123.651 166.112 122.467 166.244 121.981C166.311 121.737 166.456 121.534 166.648 121.403C166.802 121.298 167.103 121.311 167.447 121.351C167.95 121.41 168.216 122.098 168.4 122.835C168.666 123.907 168.099 124.867 167.985 125.397C167.975 125.499 167.955 125.619 167.925 125.721C167.895 125.823 167.855 125.903 167.692 126.168" stroke="#131313" stroke-width="0.58655" stroke-linecap="round"/>
<path d="M169.088 121.006C168.988 121.066 168.624 120.906 167.776 120.481C167.215 120.2 166.583 119.975 165.773 119.782C164.861 119.566 164.172 119.306 163.95 119.205C163.85 119.16 163.768 119.144 164.678 119.134C165.588 119.124 167.492 119.124 168.512 119.094C169.533 119.064 169.613 119.004 169.684 118.943C169.755 118.881 169.816 118.821 169.816 118.75C169.823 118.244 168.787 118.052 168.15 117.829C167.612 117.748 166.927 117.506 166.208 117.263C165.936 117.143 165.515 116.922 164.96 116.695" stroke="#131313" stroke-width="0.58655" stroke-linecap="round"/>
<path d="M170.484 117.059C170.083 116.938 168.791 116.374 167.645 115.564C166.854 115.005 166.66 114.57 166.559 114.439C166.509 114.374 166.498 114.288 166.618 114.196C167.329 113.654 169.176 113.78 170.321 113.831C170.706 113.861 171.01 113.922 171.212 113.962C171.313 113.982 171.413 114.002 171.699 114.084" stroke="#131313" stroke-width="0.58655" stroke-linecap="round"/>
<path d="M168.785 115.908C168.865 115.347 168.946 114.938 169.037 114.605C169.088 114.393 169.148 114.093 169.209 113.858C169.27 113.623 169.33 113.462 169.392 113.176" stroke="#131313" stroke-width="0.58655" stroke-linecap="round"/>
<path d="M168.724 109.293C168.542 109.858 168.502 110.343 168.431 110.859C168.377 111.248 168.44 111.599 168.501 111.841C168.664 112.496 169.613 112.733 170.047 112.854C170.521 112.987 170.969 112.775 171.171 112.573C171.354 112.188 171.475 111.544 171.506 110.249C171.496 110.002 171.476 109.922 171.456 109.839" stroke="#131313" stroke-width="0.58655" stroke-linecap="round"/>
<path d="M168.299 107.773C170.158 108.521 170.766 108.764 171.231 108.856C171.452 108.906 171.813 109.006 172.179 109.067C172.545 109.129 172.906 109.149 173.398 109.109" stroke="#131313" stroke-width="0.58655" stroke-linecap="round"/>
<path d="M169.877 106.496C169.817 106.778 169.977 107.302 170.241 107.659C170.463 107.959 170.545 108.276 170.696 108.488C170.787 108.56 170.907 108.56 171.39 108.36C171.872 108.16 172.714 107.759 173.641 107.346" stroke="#131313" stroke-width="0.58655" stroke-linecap="round"/>
</svg>
