<svg width="188" height="152" viewBox="0 0 188 152" fill="none" xmlns="http://www.w3.org/2000/svg">
<path d="M61.9065 67.1445C61.9065 67.7217 62.0503 68.7389 62.5398 69.5737C63.2089 70.7147 64.7707 72.1869 66.1664 73.0946C67.2888 73.8247 68.3276 74.2213 69.5615 74.6215C70.5119 74.9298 71.7734 75.0207 73.0471 75.1127C73.9581 75.1785 75.4741 74.7723 77.0755 74.0623C78.1996 73.5639 79.1464 72.8469 79.8554 72.1929C80.414 71.6777 81.2134 70.6012 81.9246 69.6352C82.1239 69.2922 82.4114 68.7171 82.5775 68.349C82.7436 67.9809 82.7795 67.8372 82.9255 67.3623" stroke="#131313" stroke-width="0.994304" stroke-linecap="round"/>
<path d="M97.644 67.4297C97.644 68.2175 97.7786 69.8482 98.0284 70.5884C98.1992 71.0943 98.4584 71.7324 98.7078 72.2534C99.199 73.2794 99.8858 73.9538 100.473 74.4955C101.279 75.2394 102.238 76.1493 103.491 76.895C105.086 77.8442 106.298 78.124 106.614 78.1916C106.776 78.2262 106.931 78.3041 108.088 78.3612C109.246 78.4183 111.399 78.4631 112.778 78.419C114.156 78.3748 114.695 78.2402 115.32 77.9578C115.945 77.6753 116.64 77.2491 117.413 76.581C119.108 75.1159 119.939 73.9565 120.097 73.7077C120.251 73.4649 120.819 72.6487 121.487 71.3361C121.863 70.4722 121.979 70.0589 122.001 69.8444C122.023 69.7197 122.068 69.5627 122.114 69.4009" stroke="#131313" stroke-width="0.994304" stroke-linecap="round"/>
<path d="M62.8417 70.082C62.6616 70.082 62.2544 70.1718 61.7786 70.3532C61.2804 70.5572 60.6013 70.8732 60.1809 71.0445C60.0786 71.0785 59.9665 71.1234 59.647 71.3056" stroke="#131313" stroke-width="0.994304" stroke-linecap="round"/>
<path d="M71.4744 74.9766C71.4744 74.999 71.4744 75.0214 71.4744 75.605C71.4744 76.1885 71.4744 77.3325 71.5423 78.5112" stroke="#131313" stroke-width="0.994304" stroke-linecap="round"/>
<path d="M82.2822 69.6055C82.5528 69.6503 83.0503 69.876 83.5493 70.1482C83.7532 70.2838 83.9353 70.3532 84.1049 70.3868C84.1848 70.4205 84.2521 70.4878 84.3214 70.5571" stroke="#131313" stroke-width="0.994304" stroke-linecap="round"/>
<path d="M97.576 69.6758C97.2389 69.6758 96.4681 69.7206 95.9698 69.7774C95.7666 69.811 95.4525 69.8783 95.2347 69.913C95.0168 69.9477 94.9047 69.9477 94.5852 70.0156" stroke="#131313" stroke-width="0.994304" stroke-linecap="round"/>
<path d="M109.676 78.4414V81.4322" stroke="#131313" stroke-width="0.994304" stroke-linecap="round"/>
<path d="M121.639 71.375C121.819 71.443 122.54 71.6673 123.211 71.9293C123.768 72.1676 124.084 72.3259 124.344 72.484C124.47 72.5747 124.582 72.6869 124.697 72.8024" stroke="#131313" stroke-width="0.994304" stroke-linecap="round"/>
<path d="M82.953 63.1815C82.9882 63.1465 83.0059 62.9358 82.9401 62.6228C82.8532 62.2094 82.7943 61.8496 82.7415 61.6953C82.6188 61.3371 82.3799 60.8873 82.2388 60.6364C82.0463 60.3604 81.8154 60.0757 81.639 59.8905C81.5675 59.8188 81.5326 59.7926 81.4966 59.7656" stroke="#131313" stroke-width="0.994304" stroke-linecap="round"/>
<path d="M98.2122 63.2105C98.2434 63.138 98.2846 62.8893 98.6637 62.1613C98.77 61.9571 99.033 61.6511 99.3556 61.2035C99.6901 60.7749 99.9407 60.43 100.019 60.3676C100.055 60.3362 100.086 60.3053 100.118 60.2734" stroke="#131313" stroke-width="0.994304" stroke-linecap="round"/>
<path d="M86.263 74.8184C86.2792 74.8184 86.2955 74.8184 87.0688 74.8184C87.8422 74.8184 89.372 74.8184 90.2171 74.8265C91.0622 74.8346 91.1761 74.8509 91.715 74.8674C94.2681 74.9457 94.5308 74.9663 94.7619 75.0398C95.388 75.2389 93.7279 76.3788 93.1534 77.1744C92.8117 77.6474 92.3795 78.1701 92.0429 78.5898C91.7731 78.9262 90.9226 80.0038 90.3656 80.842C90.268 80.9888 90.1597 81.0977 90.0613 81.2208C90.0137 81.2803 89.9629 81.3275 89.9052 81.2713C89.5028 80.8793 89.2576 80.2465 88.8944 79.883C88.7433 79.7318 88.3058 78.9839 87.6483 78.0143C87.3709 77.605 87.3154 77.4333 87.1603 77.0737C86.8262 76.3887 86.4454 75.5947 86.1907 75.0196C86.0987 74.8026 86.0824 74.7375 86.0164 74.6211" stroke="#131313" stroke-width="0.994304" stroke-linecap="round"/>
<path d="M89.9554 81.1523C89.9468 81.2731 89.9037 81.4971 89.8605 82.0904C89.8273 82.5457 89.8344 83.3177 89.8343 83.745C89.8516 84.3283 89.8687 84.5521 89.8991 84.7994C89.9035 84.8644 89.9035 84.9415 89.9035 85.021" stroke="#131313" stroke-width="0.994304" stroke-linecap="round"/>
<path d="M89.8979 84.889C89.8979 85.0691 89.9217 85.3575 89.9221 86.3913C89.9222 86.7871 89.7301 87.0205 89.4951 87.2801C89.2425 87.5591 88.8993 87.672 88.3395 87.7689C87.7958 87.863 87.2125 87.445 86.9824 87.2217C86.6793 86.9277 86.4526 86.6258 86.2053 86.0549C85.9815 85.0347 85.9454 84.769 85.9273 84.6251C85.9211 84.5289 85.9211 84.3858 85.9211 84.2383" stroke="#131313" stroke-width="0.994304" stroke-linecap="round"/>
<path d="M89.916 85.2246C89.9376 85.4133 89.9591 85.5429 89.9753 85.6696C90.0158 85.9857 90.0888 86.1101 90.1292 86.2073C90.2112 86.4045 90.337 86.5856 90.6252 86.8979C90.8017 87.0893 91.1726 87.1903 91.5158 87.226C91.6786 87.2429 91.9683 87.2127 92.2106 87.1805C92.453 87.1482 92.6401 87.0947 92.8194 87.0351C93.1673 86.9194 93.3835 86.8184 93.5179 86.7325C93.7349 86.5937 93.9181 86.4084 94.0875 86.1452C94.2018 85.9676 94.3371 85.6787 94.4409 85.4471C94.6036 85.0444 94.6856 84.7665 94.718 84.5511C94.729 84.4372 94.729 84.3142 94.729 84.1875" stroke="#131313" stroke-width="0.994304" stroke-linecap="round"/>
<path d="M78.6642 54.8619C78.5264 54.6653 77.7792 54.0731 77.0132 53.7441C76.4805 53.5152 75.9343 53.5362 75.5274 53.4367C75.1667 53.3485 74.7653 53.3378 74.103 53.2585C73.559 53.1934 72.924 53.1596 72.6068 53.1296C72.4468 53.1145 72.1916 53.0604 71.2186 53.0307C70.4224 53.0064 69.0108 53.0206 68.0976 53.0598C66.8077 53.1152 66.1538 53.3366 65.5714 53.4554C64.141 53.7472 62.9261 53.8118 62.5599 53.8914C61.6808 54.0825 62.4675 51.2612 62.5569 50.6762C62.609 50.3355 63.2385 50.5259 64.3151 50.3682C64.7607 50.3029 65.1196 50.2883 65.5143 50.2687C65.9905 50.245 67.2497 50.1695 68.8329 50.1597C70.0489 50.1522 70.8819 50.0905 71.7069 50.0608C72.4139 50.0353 73.708 50.0507 74.4529 50.0605C75.6552 50.0763 76.1671 50.1695 76.5345 50.2188C76.8992 50.2677 78.2757 50.4843 79.4934 50.6441C79.8983 50.6972 79.516 51.5915 79.3972 52.1082C79.3167 52.4583 79.2392 52.8994 79.1694 53.3357C78.9814 53.851 78.8626 54.2858 78.7735 54.7218C78.7438 54.8216 78.7046 54.9 78.6642 54.9807" stroke="#131313" stroke-width="0.994304" stroke-linecap="round"/>
<path d="M102.768 54.9603C103.654 54.75 104.261 54.6575 105.875 54.5517C106.952 54.4811 108.897 54.5397 110.499 54.6323C112.101 54.7248 113.304 54.9098 114.132 55.0514C115.925 55.358 116.479 55.4733 117.006 55.5557C117.808 55.681 118.885 56.1742 119.553 56.408C119.683 56.4536 119.775 56.4784 119.869 56.525C119.963 56.5716 120.055 56.641 120.103 56.3298C120.384 54.4925 119.964 54.0043 119.87 53.63C119.778 53.2605 119.707 52.8366 119.404 52.2058C119.335 52.0631 119.287 51.9717 119.182 51.9124C118.675 51.626 117.958 51.7137 117.477 51.6545C116.918 51.5857 116.182 51.3395 115.551 51.2578C114.058 51.0645 113.377 50.8488 112.654 50.8134C112.136 50.7881 111.555 50.7086 109.99 50.6386C108.681 50.5799 106.32 50.6147 105.012 50.6263C103.211 50.6422 102.793 50.8474 102.454 51.0342C102.348 52.3579 102.394 54.3743 102.511 54.7952C102.557 54.8895 102.627 54.9589 102.698 55.0304" stroke="#131313" stroke-width="0.994304" stroke-linecap="round"/>
<path d="M62.017 78.9718C61.7178 78.9077 61.4356 78.8426 60.9743 78.794C60.6426 78.7591 60.1071 78.7775 59.426 78.863C58.7449 78.9484 57.933 79.1194 57.4881 79.2181C56.8458 79.3606 56.6227 79.6502 56.466 79.8396C56.1773 80.1886 56.0503 80.6965 56.0015 80.9723C55.9687 81.1572 56.028 81.3555 56.0979 81.5064C56.2088 81.7457 57.0577 81.9479 57.6831 82.0899C58.2568 82.2201 59.0362 82.3377 59.5441 82.4136C59.7741 82.448 60.2223 82.5429 61.0554 82.6077C61.5456 82.6458 62.1769 82.6297 62.5656 82.619C63.0834 82.6048 63.4924 82.5436 63.9773 82.5005C64.6117 82.4442 65.0158 82.306 65.2961 82.1825C65.5189 82.0843 65.6632 81.8217 65.761 81.4766C65.8847 81.0398 65.6218 80.6997 65.3361 80.3111C65.1692 80.0841 64.8245 79.9762 64.2285 79.7451C63.8411 79.5948 63.2587 79.4392 62.8013 79.3298C62.3439 79.2204 62.0234 79.1776 61.7088 79.1556C61.3941 79.1336 61.095 79.1336 60.7869 79.1336" stroke="#131313" stroke-width="0.994304" stroke-linecap="round"/>
<path d="M127.773 80.5873C127.627 80.5631 126.85 80.5627 125.744 80.5993C125.251 80.6155 124.756 80.7822 124.089 80.9288C123.744 81.0047 123.433 81.1007 122.927 81.2102C122.322 81.341 121.83 81.6016 121.53 81.7787C121.186 81.9823 121.143 82.4449 121.125 82.6964C121.096 83.0814 121.118 83.4247 121.185 83.5162C121.333 83.718 121.619 83.7182 122.491 83.8955C122.694 83.9367 122.792 83.9267 123.357 83.9812C123.921 84.0357 124.951 84.1447 126.208 84.1947C127.464 84.2448 128.918 84.2327 129.781 84.2083C130.645 84.1839 130.875 84.1476 131.205 84.0683C132.521 83.7528 132.872 83.4511 133.069 83.1816C133.182 83.026 133.253 82.8874 133.271 82.7475C133.3 82.5245 133.253 82.337 133.15 82.191C132.963 81.9276 132.691 81.7499 132.441 81.6341C132.128 81.4888 131.484 81.2372 130.599 80.9745C129.863 80.7561 129.388 80.7466 128.999 80.7038C128.271 80.6732 127.761 80.6486 127.518 80.6303C127.324 80.624 126.984 80.624 126.635 80.624" stroke="#131313" stroke-width="0.994304" stroke-linecap="round"/>
<path d="M93.9641 48.1724C93.1423 48.482 92.2121 48.5841 91.877 48.6367C91.5685 48.6852 91.6425 47.7638 91.5148 47.1192C91.3183 46.1271 89.5314 46.9838 88.3459 47.3452C86.3821 47.9438 84.8883 49.0484 84.0618 49.3835C83.1913 49.7364 82.2572 50.1318 81.4307 50.6209C81.024 50.8616 80.6042 51.0604 80.2692 51.1131C79.9607 51.1615 79.9101 50.853 79.5758 50.6209M71.0822 53.1599C69.0185 54.2724 66.9875 55.3909 65.8515 56.0634C64.9504 56.5968 64.4044 56.9928 64.0956 57.1484C63.7887 57.303 63.4247 56.7374 62.9874 56.5827C62.0372 56.2463 61.0536 57.2482 60.2271 57.8177C59.2948 58.4602 58.5772 59.7214 57.6478 60.8598C56.8951 61.7817 56.46 62.6652 56.073 63.6449C55.3645 65.4389 54.7575 66.3797 54.4727 67.4886C54.1682 68.6745 53.8784 69.6314 53.7762 70.0184C53.6911 70.3408 53.055 70.0988 52.6433 70.1236C52.4229 70.1369 52.2316 70.4037 52.1008 70.6367C51.8457 71.091 51.8663 74.3504 51.9174 79.0686C51.9495 82.0349 52.7919 83.0423 53.2322 84.3068C53.5673 85.2122 53.8784 85.8313 53.955 86.2685C54.0316 86.5015 54.1848 86.7569 54.3427 87.02" stroke="#131313" stroke-width="0.994304" stroke-linecap="round"/>
<path d="M94.3662 48.0178C94.6925 48.1623 95.5664 48.6726 96.2256 48.8933C96.3691 48.9413 96.5169 48.9661 96.6275 48.8944C96.889 48.7248 96.8849 47.8415 96.9933 46.9288C97.0307 46.6135 97.3185 46.6665 97.5025 46.7212C98.5869 47.044 99.9116 47.8711 100.587 48.1443C101.691 48.591 102.43 48.7843 103.051 49.0023C103.923 49.3081 105.705 49.7379 107.197 50.3019M120.212 56.5865C120.836 57.2109 121.484 58.1975 122.014 58.8562C122.846 59.8902 123.274 60.898 123.821 61.7762C124.275 62.5033 124.807 63.018 125.155 63.5656C125.247 63.7115 125.354 63.8568 125.464 63.8771C126.021 63.9796 126.522 62.9874 127.016 62.4924C127.24 62.2671 127.618 62.2537 127.946 62.3259C128.677 62.4871 129.619 64.1065 130.483 65.1162C131.127 65.8683 131.487 66.6317 131.943 67.5609C132.38 68.4502 132.801 69.3672 133.203 70.6786C133.993 73.2576 133.933 74.041 134.135 74.8979C134.419 76.1051 134.372 76.8531 134.499 77.1082C134.632 77.3751 135.028 77.2933 135.301 77.2561C136.042 77.1552 135.869 79.4002 135.96 81.442C135.979 84.3368 135.906 86.4886 135.779 86.9622C135.724 87.1829 135.687 87.3635 135.65 87.6592" stroke="#131313" stroke-width="0.994304" stroke-linecap="round"/>
<path d="M93.2114 36.1367V42.8503" stroke="#131313" stroke-width="0.994304" stroke-linecap="round"/>
<path d="M135.889 83.1487C135.889 90.6964 126.729 93.595 120.715 95.187C111.662 97.5834 101.571 97.4876 92.2912 97.6479C83.0621 97.8072 74.8549 97.3436 65.8543 94.5098C60.3223 92.768 54.6461 87.1945 52.3562 82.0195" stroke="#131313" stroke-width="0.994304" stroke-linecap="round"/>
<path d="M92.2307 33.799C91.649 33.799 90.3703 33.7023 88.6178 33.5308C85.1658 33.193 83.7694 34.2826 82.0344 35.6258C80.6348 36.7093 79.5019 37.1199 78.6484 37.6071C78.1973 37.8647 77.6895 38.1941 75.9441 38.7041C72.0448 39.8435 68.9004 40.4407 68.0757 40.758C67.5302 40.9679 65.1876 41.4637 61.8064 42.269C58.7058 43.0074 56.17 44.5442 55.2334 45.0813C54.0743 45.746 52.2862 47.4166 50.7326 48.6953C49.9129 49.37 49.0289 50.3037 48.1738 51.8191C46.8527 54.1602 46.3086 57.5844 46.0672 58.5377C45.6752 60.0862 45.8802 61.3948 45.2968 63.1996C44.7991 64.7396 44.7103 66.1284 44.4162 67.6474C44.1522 69.0109 43.0097 70.4283 42.2329 71.6058C41.6579 72.4775 41.5648 73.4121 41.194 75.2403C40.9189 76.5969 40.4476 78.4374 40.1815 81.3076C39.7999 85.423 40.0193 88.1186 40.1519 88.6301C40.5148 90.0293 40.8712 91.9715 40.9519 93.1241C41.0531 94.5691 41.1908 95.4448 41.3778 98.9877C41.5082 101.458 41.405 105.958 41.7478 108.227C42.0907 110.496 42.7763 110.399 43.6306 110.18C46.7964 109.368 53.1961 109.672 56.8522 109.791M68.1713 98.318C68.224 97.5984 68.4673 96.4296 68.576 95.7906" stroke="#131313" stroke-width="0.994304" stroke-linecap="round"/>
<path d="M92.7856 33.6602C93.1256 33.6602 93.905 33.7569 94.809 33.9524C95.6668 34.1381 96.6389 34.3429 97.4953 34.5385C99.0438 34.8922 101.231 34.7824 102.402 34.978C103.481 35.1582 104.454 35.4652 105.843 35.9047C107.975 36.5794 108.849 36.9801 109.656 37.4673C110.891 38.2135 112.169 39.5177 113.001 39.9345C113.367 40.1175 114.557 40.1067 117.159 40.3243C121.106 40.6544 123.842 41.6187 124.67 42.0084C125.979 42.6242 126.917 43.3739 127.629 44.2061C128.211 44.8864 128.921 45.6214 129.68 46.4038C130.392 47.1388 130.926 47.9656 131.511 48.8205C132.342 50.0349 132.974 51.4291 133.806 52.4833C134.661 53.5665 135.075 54.5586 135.711 55.4384C136.279 56.2224 137.273 56.9028 138.346 57.8061C139.651 58.903 140.006 59.9796 140.936 60.7619C141.73 61.43 142.644 62.4673 143.695 63.5208C144.732 64.5603 145.527 66.6664 146.186 68.1088C147.065 70.0321 147.528 71.6917 147.922 73.529C148.385 75.6921 148.362 76.6819 148.459 80.1206C148.546 83.1716 148.557 88.8776 148.558 91.9858C148.558 95.0941 148.51 95.4325 148.485 96.9848C148.416 101.293 148.412 104.423 148.266 105.007C147.954 106.26 146.175 107.493 144.972 108.622C144.243 109.306 143.385 109.504 137.034 109.626C134.558 109.674 131.394 110.913 129.052 111.603C128.166 111.864 126.932 112.044 125.609 111.68C123.709 111.157 122.58 110.728 121.508 110.578C120.216 110.397 119.161 111.262 118.624 111.142C116.94 110.767 117.256 108.437 117.082 107.433C116.869 106.199 116.863 105.114 116.789 102.75C116.667 100.818 116.57 99.0572 116.496 97.7884C116.472 97.4925 116.424 97.2991 116.374 97.0998" stroke="#131313" stroke-width="0.994304" stroke-linecap="round"/>
<path d="M93.294 33.1952C93.215 33.1864 92.916 33.0637 92.5627 32.7861C92.3741 32.6379 92.0461 32.3613 91.7743 32.0992C91.5025 31.837 91.3013 31.5921 91.1233 31.3391C90.7765 30.8461 90.6172 30.5099 90.4812 30.2466C90.196 29.6943 89.9546 29.2907 89.858 29.1061C89.5582 28.5332 89.3023 28.1268 89.0803 27.7491C89.0525 27.7019 88.9922 27.752 88.9478 27.8138C88.7626 28.0714 88.7176 28.3166 88.6602 28.5603C88.6325 28.678 88.629 29.1621 88.6334 29.8245C88.636 30.2106 88.7785 30.5245 88.9948 30.976C89.1521 31.3044 89.3086 31.4803 89.4458 31.6132C89.6096 31.7719 89.7947 31.9574 90.0856 32.1959C90.3007 32.3723 90.5189 32.5055 90.6914 32.6293C90.8234 32.724 91.1009 32.8405 91.5035 33.0004C91.7366 33.0929 92.1256 33.1946 92.5636 33.2657C92.6486 33.2747 92.6923 33.2747 92.7323 33.2791C92.7724 33.2834 92.8073 33.2922 92.8964 33.3012" stroke="#131313" stroke-width="0.994304" stroke-linecap="round"/>
<path d="M92.9492 33.2473C93.0364 33.0803 93.3198 32.8765 93.6573 32.6486C93.9467 32.4533 94.4584 32.071 94.8336 31.7591C95.2088 31.4473 95.4275 31.2111 95.6232 30.9583C96.0087 30.4603 96.2263 30.0152 96.4155 29.6236C96.8542 28.715 96.9425 28.6269 96.9734 28.5564C96.9886 28.5216 96.9955 28.4858 97.0263 28.5247C97.3465 28.9291 97.3926 29.5005 97.4901 29.7343C97.5571 29.8948 97.6227 30.1358 97.6757 30.5142C97.8108 31.479 97.4472 31.8239 97.2835 32.0316C97.1833 32.1587 96.9881 32.301 96.6889 32.4729C95.9481 32.8984 95.4948 33.0172 95.2692 33.1276C95.0606 33.2297 94.4637 33.2208 93.949 33.2648C93.7362 33.2825 93.2095 33.3003 92.699 33.2255C92.5882 33.2033 92.4658 33.1858 92.3396 33.1678" stroke="#131313" stroke-width="0.994304" stroke-linecap="round"/>
<path d="M91.4405 47.1862C91.2882 47.2925 90.9509 47.7816 90.6746 48.441C90.3171 49.2942 90.4282 49.7768 90.39 50.3126C90.3299 51.1562 90.6573 51.7093 90.834 51.9325C90.9171 52.0373 90.9799 52.1552 91.0717 52.2545C91.1198 52.3067 91.1635 52.3691 91.0199 52.408C90.094 52.6588 89.6322 52.3249 89.3556 52.1563C89.0428 51.9655 88.8343 51.7121 88.6114 51.2526C88.3717 50.7587 88.4036 50.1936 88.3578 49.7724C88.3005 49.2446 88.3723 48.5694 88.541 48.1387C88.631 47.9088 88.7253 47.6781 88.8246 47.4943C88.9392 47.3712 89.1081 47.2787 89.5424 47.1641C89.8705 47.0951 90.4172 47.004 90.9804 46.9102" stroke="#131313" stroke-width="0.994304" stroke-linecap="round"/>
<path d="M96.8699 46.7695C97.0834 46.7838 97.4515 47.1514 97.6438 47.3822C97.883 47.6691 98.0193 48.3607 98.1044 49.1583C98.1916 49.9757 98.097 50.6029 97.9905 50.9385C97.6493 52.0136 97.4377 52.3352 97.2159 52.849C97.1327 53.0417 97.0848 53.18 97.1225 53.2721C97.2822 53.6616 98.0027 53.0899 98.4021 52.7756C98.9687 52.3297 99.2469 51.8015 99.4611 51.3954C99.666 51.0069 99.7374 50.422 99.7611 49.3198C99.7719 48.8161 99.4171 48.4582 99.1259 48.1435C98.8668 47.9677 98.5585 47.8283 98.2677 47.7441C98.1288 47.7054 98.0073 47.6751 97.8361 47.5978" stroke="#131313" stroke-width="0.994304" stroke-linecap="round"/>
<path d="M53.7564 85.2266C53.8492 85.551 54.0341 86.1992 54.0823 89.0177C54.1095 90.6105 53.4103 91.4782 52.9903 92.0047C52.6255 92.4619 52.1767 92.7146 51.3754 93.3293C51.2033 93.4613 51.1985 93.5742 51.4514 93.6217C53.1665 93.9434 54.6802 92.836 55.267 92.2754C55.735 91.8283 55.6863 90.881 55.6985 89.3491C55.664 88.9036 55.5942 88.6238 55.4554 88.2415C55.3626 88.0203 55.2244 87.744 54.9426 87.25" stroke="#131313" stroke-width="0.994304" stroke-linecap="round"/>
<path d="M135.792 86.8828C135.722 87.2296 135.676 87.8806 135.699 89.3769C135.716 90.5388 136.904 91.4837 137.72 92.2299C138.188 92.6587 138.836 92.4647 139.28 92.5226C139.373 92.5348 139.465 92.5344 139.478 92.569C139.604 92.9067 138.379 93.1373 137.147 93.348C136.257 93.5 135.607 93.3487 135.341 93.2678C134.547 93.0268 134.165 92.1884 133.909 91.6295C133.653 91.0015 133.56 90.3966 133.502 90.024C133.49 89.9305 133.49 89.8384 133.49 89.7435" stroke="#131313" stroke-width="0.994304" stroke-linecap="round"/>
<path d="M80.3506 37.2959C80.3003 36.7406 79.6946 35.0166 77.3359 30.3496C75.9015 27.5114 74.0512 25.707 72.7826 24.4644C70.7307 22.4544 69.9304 21.5359 68.3292 20.3146C67.307 19.5349 66.217 18.7867 64.7691 18.0246C63.8903 17.562 63.1641 17.615 62.682 17.6905C61.4711 17.8802 60.7246 19.5953 59.9351 20.6869C59.1135 21.8227 58.5887 23.15 57.4193 26.1968C56.4521 28.7167 56.1965 30.4213 55.7639 31.9759C55.3663 33.4051 55.1773 35.1966 54.9241 37.6926C54.8218 40.7012 54.7196 42.3184 54.9981 43.9279C55.0751 44.2102 55.1254 44.4116 55.3299 45.0767" stroke="#131313" stroke-width="0.994304" stroke-linecap="round"/>
<path d="M64.3855 22.4805C64.3855 22.5119 64.4642 22.6225 64.8979 23.0015C65.8329 23.8183 66.5936 24.3072 66.8305 24.5284C67.2793 24.9474 67.6738 25.3235 67.8876 25.585C68.5416 26.3849 69.4042 27.4343 69.6602 27.8579C69.9446 28.3284 70.1364 28.7071 70.3511 29.2391C70.5506 29.7333 70.9458 30.4056 71.3267 31.1273C71.7844 31.9945 71.8058 32.3147 72.0434 32.9495C72.3222 33.6941 72.743 34.6668 72.8307 35.0162C72.9281 35.4042 73.1081 35.9043 73.2437 36.2561C73.3567 36.5492 73.5209 36.9702 73.7359 37.526C73.9981 38.13 74.1893 38.7025 74.3242 39.0603C74.3485 39.1482 74.3485 39.2269 74.3485 39.3079" stroke="#131313" stroke-width="0.994304" stroke-linecap="round"/>
<path d="M68.9617 27.0126C68.8039 27.0126 68.1713 26.934 67.1111 26.7833C66.4625 26.6912 65.579 26.6484 64.8263 26.5688C63.4722 26.4256 62.624 26.2976 62.2507 26.329C62.1104 26.3409 62.082 26.4234 62.0658 26.5187C62.0286 26.7374 62.0968 26.9325 62.2233 27.0751C62.3941 27.2674 63.0139 27.6452 64.4135 28.4048C65.3115 28.8922 66.6468 29.479 67.3512 29.8187C68.0555 30.1583 68.1027 30.2055 68.0719 30.2692C68.0412 30.3328 67.9311 30.4115 67.4732 30.8767C67.0153 31.342 66.213 32.1915 65.6503 32.8572C64.7371 33.9375 64.4021 34.5435 64.2278 34.7809C63.8173 35.3402 63.7028 35.5608 63.6467 35.6797C63.6227 35.7307 63.7323 35.7829 63.8122 35.7993C63.9674 35.8313 64.1775 35.7209 64.8874 35.4447C65.4667 35.2192 66.5096 34.8695 67.0916 34.6753C68.0208 34.3652 68.5622 34.022 69.0632 33.7033C69.1666 33.6375 69.2305 33.592 69.2787 33.6463C69.4286 33.8156 69.2177 34.4763 68.9162 35.49C68.7531 36.0383 68.709 36.6924 68.6607 37.5045C68.6123 38.3165 68.5965 39.2761 68.8559 39.5817C69.9072 40.8205 70.8351 38.5182 71.1137 38.1926C71.4567 37.7919 71.8505 37.3121 72.8353 36.6205C73.0289 36.4836 73.0918 36.4207 73.1635 36.3804C73.2353 36.3402 73.3139 36.3244 73.4903 36.2605" stroke="#131313" stroke-width="0.994304" stroke-linecap="round"/>
<path d="M110.655 37.8982C111.74 36.2371 114.189 32.9477 117.322 30.2919C119.74 28.2421 124.152 25.1502 126.512 23.3809C129.687 21.001 131.121 20.7734 132.412 20.6749C133.71 20.5759 133.894 22.956 134.377 24.4655C134.612 25.199 134.984 26.4134 135.181 29.0769C135.378 31.7405 135.378 35.8198 135.282 38.5269C135.147 42.3619 134.647 48.3169 133.706 52.0827" stroke="#131313" stroke-width="0.994304" stroke-linecap="round"/>
<path d="M129.006 25.8281C128.662 25.9779 128.271 26.2179 128.022 26.3765C127.789 26.5253 127.624 26.8198 127.338 27.1652C126.825 27.7857 126.029 28.5938 125.534 29.0896C125.186 29.4384 124.888 29.8264 124.616 30.1957C124.493 30.3626 124.255 30.6683 123.799 31.327C123.073 32.3744 122.45 33.1501 122.27 33.4657C122.104 33.7573 121.894 34.0078 121.212 34.9889C120.526 35.9759 120.194 36.7604 120.081 36.963C119.883 37.3194 119.728 37.6623 119.495 38.0458C119.3 38.3657 119.157 38.774 118.954 39.2035C118.66 39.8288 118.615 40.039 118.57 40.2116C118.54 40.2949 118.495 40.3693 118.404 40.5813" stroke="#131313" stroke-width="0.994304" stroke-linecap="round"/>
<path d="M125.06 29.9177C125.191 29.8739 125.895 29.7636 126.936 29.6306C127.339 29.5791 127.493 29.5855 128.209 29.5197C128.924 29.4539 130.196 29.3223 130.95 29.2545C131.703 29.1867 131.901 29.1867 131.964 29.2251C132.209 29.3733 131.541 29.7057 130.63 30.5341C130.324 30.8127 129.952 31.086 129.403 31.4577C128.855 31.8294 128.131 32.2789 127.731 32.5325C127.272 32.8234 127.033 32.9957 126.745 33.2113C126.634 33.2947 126.633 33.3721 126.748 33.4992C126.863 33.6263 127.104 33.8127 127.579 34.2706C128.054 34.7285 128.756 35.4522 129.337 36.1266C129.918 36.8009 130.356 37.404 130.599 37.7586C130.98 38.3166 131.085 38.5228 131.157 38.7052C131.189 38.7874 131.196 38.8548 131.125 38.8722C131.054 38.8896 130.9 38.8568 130.026 38.5273C129.152 38.1978 127.562 37.5728 126.677 37.2015C125.351 36.645 125.061 36.3643 124.944 36.3529C124.605 36.3193 125.037 37.3243 125.303 38.2216C125.38 38.4817 125.513 39.0285 125.657 39.7758C125.747 40.2447 125.791 40.3952 125.774 40.4397C125.701 40.6393 125.019 40.1314 124.343 39.8875C124.032 39.7751 123.509 39.5472 123.122 39.3739C122.085 38.9084 121.649 38.7345 121.428 38.6625C121.14 38.6125 120.831 38.5683 120.432 38.4964C120.342 38.4796 120.276 38.4687 120.142 38.4574" stroke="#131313" stroke-width="0.994304" stroke-linecap="round"/>
<path d="M133.312 44.8238C133.28 45.26 133.343 46.2686 133.448 46.5315C133.597 46.9047 133.647 47.0768 133.788 47.276C133.975 47.5406 134.223 47.8831 134.516 48.1879C134.693 48.3708 134.988 48.3983 135.897 48.3778C136.375 48.3671 136.488 48.0951 136.759 47.9015C137.246 47.5548 137.368 47.0372 137.489 46.7955C137.626 46.521 137.62 45.6276 137.506 44.8518C137.454 44.502 137.025 43.8527 136.777 43.5351C136.611 43.3221 136.249 43.1784 136.043 43.0996C135.996 43.0838 135.944 43.0734 135.897 43.0629C135.849 43.0523 135.808 43.0419 135.702 43.0312" stroke="#131313" stroke-width="0.994304" stroke-linecap="round"/>
<path d="M56.9737 38.8703C56.9257 38.918 56.7155 39.2053 56.5649 39.4137C56.4648 39.5521 56.2627 39.7164 55.8684 39.9044C55.4811 40.0891 55.252 40.1213 55.0444 40.1649C54.888 40.1977 54.503 40.1987 54.14 40.1604C53.6655 40.1104 53.1821 39.6604 52.9989 39.4535C52.8274 39.2598 52.7773 38.901 52.7529 38.6738C52.7173 38.3429 52.7669 37.8054 52.8727 37.4373C53 36.9945 53.2278 36.5538 53.3877 36.272C53.4763 36.116 53.6898 35.8879 53.9695 35.6705C54.2012 35.5209 54.3355 35.4248 54.6909 35.223C54.7784 35.1744 54.8356 35.1458 54.9523 35.0586" stroke="#131313" stroke-width="0.994304" stroke-linecap="round"/>
<path d="M82.2378 97.8155C82.704 99.1891 83.7376 100.949 84.4314 102.048C85.1722 103.22 85.8205 103.84 86.6519 105.28C87.2577 106.33 87.7958 106.958 88.4199 107.791C88.6082 108.042 88.7851 108.183 88.992 108.287C89.6024 108.593 90.3932 107.77 91.4709 107.159C92.4846 106.585 93.3781 105.28 94.7134 103.829C95.9914 102.44 96.5804 101.481 96.7745 101.08C97.3045 99.9847 97.5415 99.4027 97.7625 98.6114C97.8276 98.3893 97.9048 98.1835 97.9703 98.026C98.0358 97.8686 98.0872 97.7657 98.1402 97.4258" stroke="#131313" stroke-width="0.994304" stroke-linecap="round"/>
<path d="M72.4287 96.6172C72.0879 96.6172 71.2292 96.7447 69.7079 97.4408C68.4688 98.0077 67.9643 98.6555 67.5343 98.9566C67.0113 99.3229 66.2494 99.9851 65.6983 100.385C64.9853 100.901 64.3142 101.619 63.6488 102.24C63.4484 102.428 63.2423 102.647 62.58 103.256C61.9178 103.865 60.8123 104.864 60.2109 105.422C59.3648 106.206 58.9892 106.814 58.3121 107.63C58.0825 107.907 57.9559 108.105 57.5832 108.754C56.6555 110.372 55.9163 111.625 55.7343 112.032C55.2728 113.126 54.9494 114.031 54.9172 114.213C54.9062 114.31 54.9062 114.417 54.8418 114.591" stroke="#131313" stroke-width="0.994304" stroke-linecap="round"/>
<path d="M112.543 96.7188C112.811 96.8076 114.059 97.4023 114.888 97.8835C115.023 97.9736 115.171 98.0624 115.307 98.1674C115.442 98.2723 115.561 98.3907 115.683 98.5127" stroke="#131313" stroke-width="0.994304" stroke-linecap="round"/>
<path d="M129.406 111.789C129.822 112.115 130.779 113.19 131.244 114.073C131.32 114.269 131.349 114.417 131.394 114.553C131.439 114.688 131.498 114.807 131.559 114.929" stroke="#131313" stroke-width="0.994304" stroke-linecap="round"/>
<path d="M89.2594 108.891C89.2204 109.066 89.1439 109.395 89.0348 109.944C88.8374 110.936 88.865 111.717 88.8709 111.975C88.8855 112.607 88.8595 112.829 88.8903 113.052C88.9348 113.375 88.9408 113.715 88.9514 113.93C88.9677 114.26 89.0631 114.627 89.1483 114.944C89.1851 115.111 89.2141 115.25 89.2546 115.377C89.2796 115.447 89.3138 115.529 89.3491 115.613" stroke="#131313" stroke-width="0.994304" stroke-linecap="round"/>
<path d="M84.5787 111.33C84.3662 111.654 84.0897 112.332 84.02 112.772C83.8961 113.554 84.1387 113.915 84.3078 114.422C84.5086 115.025 84.8288 115.196 85.061 115.31C85.2351 115.395 85.5437 115.124 85.8322 114.779C86.2899 114.232 86.3362 113.303 86.3553 112.994C86.3873 112.476 86.3618 111.695 86.2053 111.306C86.1288 111.116 86.0481 110.954 85.9481 110.816C85.7429 110.533 85.4209 110.589 85.0322 110.62C84.8936 110.75 84.805 110.964 84.7423 111.177C84.7169 111.266 84.7045 111.316 84.6163 111.48" stroke="#131313" stroke-width="0.994304" stroke-linecap="round"/>
<path d="M54.8755 114.613C54.4845 114.613 53.7894 114.705 53.3609 114.833C52.9583 114.953 52.6088 115.191 52.2609 115.883C52 116.403 52.0519 116.856 51.913 117.251C51.7934 117.59 51.5894 117.922 51.2772 118.396C51.0488 118.744 50.9408 119.102 50.8595 119.668C50.7501 120.429 50.8935 121.047 50.9974 121.267C51.1948 121.684 51.6102 121.904 52.0151 122.124C52.4029 122.335 52.813 122.483 53.6109 122.876C54.0562 123.095 54.5491 123.247 57.5946 124.066C58.7798 124.385 59.2019 124.405 59.7574 124.474C60.1037 124.517 61.2318 124.544 62.747 124.509C63.9216 124.483 64.6408 124.197 65.1057 124.013C65.5761 123.826 65.338 123.065 65.3272 122.393C65.3235 122.16 65.1304 122.022 65.0956 121.803C65.0099 121.262 65.3838 120.888 65.5002 120.517C65.5572 120.336 65.57 119.895 65.5241 119.316C65.4722 118.661 64.7616 118.48 64.2755 118.248C63.8783 118.059 63.4422 117.97 62.0686 117.474C61.6144 117.345 61.129 117.161 60.5623 116.907C60.3394 116.813 60.2477 116.79 59.945 116.766" stroke="#131313" stroke-width="0.994304" stroke-linecap="round"/>
<path d="M131.76 115.156C131.855 115.345 131.926 115.678 132.02 115.843C132.288 116.314 133.134 116.2 133.527 116.378C133.621 116.42 133.681 116.508 133.729 116.591C134.069 117.181 133.684 118.358 133.612 118.905C133.596 119.024 133.612 119.119 133.659 119.214C133.888 119.681 134.559 119.808 135.022 120.128C135.439 120.416 135.7 120.828 135.807 121.384C135.943 122.09 135.772 122.68 135.654 122.893C135.44 123.28 134.919 123.344 134.361 123.653C133.833 123.946 132.644 124.293 131.987 124.638C130.859 125.232 129.413 125.861 128.726 126.122C126.941 126.799 126.255 127.072 125.745 127.155C125.054 127.269 124.382 127.641 123.762 127.82C123.178 127.988 122.741 128.046 121.829 128.282C121.351 128.406 120.867 128.402 120.438 128.449C120.249 128.47 120.058 128.285 119.892 128.048C119.598 127.628 119.607 127.099 119.618 126.576C119.628 126.089 120.222 125.793 120.708 125.141C120.853 124.948 120.793 124.633 120.758 124.453C120.66 123.95 119.941 123.515 119.371 122.519C119.04 121.942 119.155 120.977 119.379 120.251C119.613 119.493 120.455 118.982 121.845 118.339C122.239 118.149 122.477 117.959 122.702 117.722C122.81 117.602 122.904 117.485 123.001 117.364" stroke="#131313" stroke-width="0.994304" stroke-linecap="round"/>
<path d="M80.0577 97.5742C79.9976 97.715 79.8357 98.0377 79.6037 98.563C79.3673 99.0982 79.0277 99.8368 78.8451 100.282C78.5239 101.065 78.2986 102.325 78.3886 102.457C78.7766 103.026 79.2072 101.7 79.5509 101.457C79.703 101.35 79.8345 101.234 79.9958 101.174C80.7137 100.904 81.2891 103.112 81.5833 103.477C81.7903 103.734 82.2597 103.459 82.7553 103.428C83.1735 103.401 83.3722 104.003 84.0385 104.709C84.424 105.118 84.8474 105.579 85.2529 105.994C85.5985 106.349 86.1407 106.853 86.5068 107.168C86.947 107.546 87.3964 107.986 87.8507 108.31C88.043 108.471 88.2056 108.634 88.3869 108.815C88.4882 108.916 88.6083 109.037 88.9141 109.221" stroke="#131313" stroke-width="0.994304" stroke-linecap="round"/>
<path d="M100.785 97.8633C101.228 98.4054 101.457 98.8633 101.813 99.555C102.377 100.651 102.486 101.008 102.595 101.296C102.715 101.616 102.874 101.954 102.917 102.076C102.939 102.138 102.931 102.211 102.726 102.247C102.118 102.355 101.29 102.199 100.661 102.056C100.163 101.943 99.7706 101.798 99.5555 101.762C99.3286 101.723 99.4263 102.226 99.4047 103.887C99.3991 104.315 99.3405 104.444 99.2693 104.558C99.2313 104.619 99.1697 104.672 99.098 104.687C98.8053 104.748 98.4418 104.374 98.1038 104.187C97.7833 104.01 97.3963 104.329 97.145 104.48C96.9273 104.61 96.7233 104.787 96.5226 104.944C96.2232 105.179 95.8366 105.473 95.2153 105.923C94.7044 106.293 94.1078 106.645 93.5479 106.918C92.9735 107.198 92.2605 107.548 91.724 107.87C91.3092 108.118 90.8296 108.335 90.3504 108.599C90.1712 108.664 90.0133 108.736 89.8562 108.836C89.7841 108.879 89.7274 108.907 89.5403 108.979" stroke="#131313" stroke-width="0.994304" stroke-linecap="round"/>
<path d="M77.3674 22.0097C77.3674 21.895 77.3674 21.7803 77.3674 18.758C77.3674 15.7358 77.3674 9.80955 77.4439 6.9478C77.5204 4.08605 77.6733 4.46838 77.7903 4.85652C78.2854 6.4985 78.6025 7.98591 79.1024 9.68153C79.8529 12.2268 80.7622 13.4267 81.2858 14.4758C81.4746 14.854 81.6531 15.2492 81.846 15.6153C81.9354 15.7849 81.9625 15.9432 82.0969 15.6014C82.9629 13.3989 83.1952 11.7097 83.8921 8.83111C84.2393 7.39701 84.2032 5.99311 84.3185 5.15254C84.4524 4.17633 84.5114 7.60125 84.5699 8.31611C84.5971 8.64787 84.8196 10.8662 85.0704 14.09C85.203 15.7942 85.3989 17.3243 85.6891 19.185C85.8635 19.9995 85.9793 20.6553 86.0373 21.1564C86.057 21.3898 86.057 21.581 86.057 21.7779" stroke="#FF0404" stroke-width="0.994304" stroke-linecap="round"/>
<path d="M88.6057 21.4301C88.6057 20.0804 88.9116 17.7805 89.492 15.2779C89.9253 13.41 90.1884 12.1682 90.5736 10.3336C91.0385 8.11967 91.7339 5.36723 91.9454 4.42181C92.002 4.16879 92.0421 3.93983 92.1001 3.91724C92.7488 3.66424 92.8508 6.69963 93.2199 8.08416C93.3079 8.41449 93.4325 9.10489 93.5866 10.0306C93.6914 10.6607 94.1253 12.9132 94.627 16.0982C94.978 17.952 95.0545 18.8001 95.1901 19.5538C95.2098 19.8046 95.2098 20.1487 95.2098 20.5032" stroke="#FF0404" stroke-width="0.994304" stroke-linecap="round"/>
<path d="M89.7646 14.3619C89.7646 14.2854 89.7646 14.2089 89.8411 14.1504C90.381 14.0143 90.8445 13.9761 91.4968 13.9181C91.9961 13.8984 92.8373 13.8984 93.7039 13.8984" stroke="#FF0404" stroke-width="0.994304" stroke-linecap="round"/>
<path d="M97.064 4.39844C97.1798 4.66608 97.2563 6.28001 97.488 7.77346C97.6284 8.67833 97.7591 9.68631 97.8553 10.4012C97.9611 11.1875 98.0673 12.3488 98.1258 13.143C98.1933 14.0594 98.3384 15.9683 98.4346 17.7745C98.4543 18.83 98.4925 19.6515 98.5505 20.0176C98.5702 20.1925 98.5702 20.3455 98.5702 20.503" stroke="#FF0404" stroke-width="0.994304" stroke-linecap="round"/>
<path d="M97.5273 11.4686C97.9097 11.2392 98.336 11.0828 98.7601 11.0249C99.1077 11.0052 99.5329 10.9287 100.741 10.8128C101.682 10.7734 103.288 10.7734 104.942 10.7734" stroke="#FF0404" stroke-width="0.994304" stroke-linecap="round"/>
<path d="M103.939 3.44141C103.939 5.01385 103.996 6.00352 104.041 6.86544C104.082 7.67185 104.229 8.6549 104.376 9.65069C104.534 10.7269 104.551 11.1978 104.624 11.7665C104.715 12.477 104.726 13.1806 104.799 13.7791C104.875 14.4043 104.901 14.8729 104.974 15.4855C105.033 15.9809 105.134 16.679 105.193 17.8752C105.232 18.6835 105.484 19.3059 105.528 19.8755C105.572 20.1232 105.63 20.3866 105.674 20.6775C105.689 20.8241 105.689 20.9685 105.689 21.1172" stroke="#FF0404" stroke-width="0.994304" stroke-linecap="round"/>
<path d="M106.979 3.08984C107.008 3.92988 107.24 6.14198 107.533 7.80675C107.874 9.75407 107.912 11.2548 108.029 11.7921C108.331 13.1882 108.378 14.6001 108.612 15.746C108.783 16.5815 108.962 17.7573 109.007 18.6187C109.05 18.9543 109.137 19.3918 109.239 19.9016C109.283 20.1225 109.312 20.2669 109.342 20.5906" stroke="#FF0404" stroke-width="0.994304" stroke-linecap="round"/>
<path d="M107.72 11.036C108.034 11.036 108.804 11.036 109.795 11.0262C110.177 11.0164 110.314 10.9968 110.67 10.9867C111.025 10.9766 111.594 10.9766 112.181 10.9766" stroke="#FF0404" stroke-width="0.994304" stroke-linecap="round"/>
<path d="M112.533 3.82991C112.948 2.06317 114.332 -0.225221 116.241 1.63054C118.551 3.87518 120.783 17.3251 116.088 18.4901C112.966 19.2647 112.268 11.6165 112.268 9.7656C112.268 7.83279 112.088 5.72373 112.533 3.82991Z" stroke="#FF0404" stroke-width="0.994304" stroke-linecap="round"/>
<path d="M120.663 0.496094C120.663 0.697752 120.68 1.84354 120.722 3.523C120.738 4.16088 120.781 4.36223 120.816 4.97026C120.85 5.57829 120.883 6.58658 120.909 7.16482C120.94 7.8613 120.969 8.46923 120.986 9.27484C120.995 9.73026 121.071 10.1854 121.079 10.7111C121.084 11.0027 121.155 11.8949 121.223 13.2683C121.285 14.5358 121.359 14.8719 121.385 15.3302C121.403 15.6558 121.461 16.0258 121.487 16.5435C121.529 17.0626 121.546 17.3167 121.58 17.5286C121.597 17.6228 121.614 17.69 121.631 17.8611" stroke="#FF0404" stroke-width="0.994304" stroke-linecap="round"/>
<path d="M120.663 8.18616C120.764 8.15255 121.623 7.98399 122.904 7.75483C123.961 7.56575 124.821 7.49054 125.126 7.46482C125.669 7.38869 126.279 7.32045 126.72 7.31205C126.892 7.30365 126.96 7.28685 127.029 7.26953" stroke="#FF0404" stroke-width="0.994304" stroke-linecap="round"/>
<path d="M126.825 1.05469C126.825 1.42439 126.825 1.7941 126.943 3.69025C127.06 5.5864 127.295 8.99778 127.433 10.8056C127.579 12.7163 127.64 12.9021 127.657 13.1723C127.71 14.025 127.876 14.9324 127.954 15.558C128.024 16.1238 128.03 16.6353 128.056 17.001C128.081 17.1955 128.098 17.4506 128.106 17.7218C128.115 17.8417 128.132 17.9257 128.149 18.0123" stroke="#FF0404" stroke-width="0.994304" stroke-linecap="round"/>
<path d="M137.366 0.851562C137.383 1.08785 137.417 1.66329 137.527 3.40081C137.61 4.7117 137.62 7.20074 137.663 8.56601C137.706 9.93127 137.739 10.0993 137.782 11.0009C137.824 11.9025 137.875 13.5326 137.909 14.4984C137.994 16.06 138.028 16.3986 138.071 16.8312C138.079 16.9756 138.079 17.1604 138.13 17.3509" stroke="#FF0404" stroke-width="0.994304" stroke-linecap="round"/>
<path d="M137.315 0.799649C137.062 0.698312 136.723 0.562345 136.206 0.528225C135.298 0.468326 134.076 0.476794 133.406 0.688126C132.279 1.04362 131.63 1.85072 131.316 2.13105C130.94 2.46664 130.359 3.30612 130.042 4.24261C129.836 4.85344 129.83 5.81972 129.99 6.33201C130.107 6.70701 130.574 7.04392 131.126 7.59619C131.551 8.02144 132.34 7.92898 133.145 8.06418C133.579 8.13716 133.919 8.16628 135.56 8.16679C136.526 8.16709 136.788 7.89537 137.085 7.75125C137.276 7.65845 137.484 7.67487 137.578 7.63209C137.883 7.49245 136.944 8.36896 136.063 9.36783C135.583 9.91145 135.01 10.5566 134.366 11.5051C133.486 12.8003 132.784 13.6823 132.674 13.8771C132.439 14.2934 132.005 15.0196 131.63 15.5999C131.41 15.9409 131.206 16.2112 131.086 16.4832C130.933 16.7551 130.798 17.0596 130.603 17.6531C130.56 17.7904 130.526 17.8744 130.542 17.961" stroke="#FF0404" stroke-width="0.994304" stroke-linecap="round"/>
<path d="M88.3444 125.664C88.3444 125.262 88.218 124.538 88.0154 124.155C87.8411 123.825 87.5378 123.559 87.1233 123.441C86.7472 123.334 86.4095 123.472 86.2292 123.589C85.7989 123.867 85.7497 124.343 85.675 124.716C85.5892 125.144 85.6004 125.661 85.5474 126.32C85.4381 127.679 85.4089 128.447 85.3559 129.106C85.2449 130.487 85.2813 130.958 85.1648 131.723C85.0744 132.317 85.0477 132.958 84.9625 133.331C84.8984 134.188 84.8563 135.468 84.824 136.603C84.8135 136.852 84.7924 136.936 84.7708 137.023" stroke="#131313" stroke-width="0.994304" stroke-linecap="round"/>
<path d="M88.4082 125.602C88.4503 125.75 88.578 126.173 88.6631 126.875C88.7277 127.407 88.7694 128.13 88.8016 128.737C88.8122 128.897 88.8332 129.065 88.8441 130.647C88.8549 132.229 88.8549 135.22 88.8549 138.301" stroke="#131313" stroke-width="0.994304" stroke-linecap="round"/>
<path d="M88.9824 126.368C88.9824 125.735 89.0245 124.286 89.1203 123.827C89.1601 123.636 89.2798 123.476 89.3963 123.316C89.5301 123.133 89.9792 123.113 90.4786 123.155C91.0604 123.204 91.2785 123.792 91.4176 124.133C91.5566 124.473 91.641 124.982 91.7686 125.843C91.8798 126.594 91.8962 127.109 91.9284 127.536C91.9718 128.111 92.0239 128.832 92.0561 130.424C92.0656 130.897 92.1094 131.869 92.1304 133.598C92.1936 135.39 92.2581 136.428 92.29 136.967C92.3008 137.4 92.3008 138.158 92.3008 138.939" stroke="#131313" stroke-width="0.994304" stroke-linecap="round"/>
<path d="M88.7294 124.485C88.7294 124.169 88.7031 123.452 88.6499 122.901C88.6209 122.599 88.5836 122.257 88.4974 121.825C88.4299 121.487 88.3844 121.195 88.2984 120.856C88.2251 120.567 88.0264 120.37 87.9005 120.271C87.7891 120.183 87.3393 120.144 86.6893 120.183C86.0464 120.222 85.77 120.741 85.544 121.012C84.9593 121.714 84.8396 122.48 84.7468 122.732C84.6672 122.948 84.601 123.328 84.4883 123.772C84.3935 124.145 84.2828 124.799 84.1234 125.588C84.0317 126.043 84.0167 126.435 83.9107 126.905C83.7024 127.83 83.565 128.677 83.4987 129.078C83.4329 129.476 83.2998 129.913 83.1215 130.732C82.9894 131.338 82.7987 132.338 82.6971 132.879C82.5542 133.64 82.5294 133.99 82.4631 134.394C82.3566 134.973 82.3303 135.37 82.2706 135.637C82.2506 135.69 82.2243 135.743 82.1973 135.877" stroke="#131313" stroke-width="0.994304" stroke-linecap="round"/>
<path d="M89.008 123.569C88.9284 123.293 88.9546 122.627 89.14 122.17C89.3301 121.701 89.6039 120.943 89.956 120.543C90.161 120.309 90.4801 120.316 90.8388 120.322C91.0334 120.326 91.2373 120.527 91.5151 120.838C91.9288 121.3 92.1932 122.025 92.3856 122.674C92.6088 123.428 92.5792 123.872 92.8241 125.091C92.9121 125.528 92.9639 125.771 93.0703 126.731C93.1348 127.314 93.2292 127.919 93.3491 128.453C93.4081 128.716 93.4949 129.405 93.6076 130.267C93.6623 130.686 93.7211 130.936 93.8264 131.746C93.9114 132.4 94.0895 133.543 94.1841 134.29C94.2918 135.352 94.3185 135.743 94.345 135.882C94.3584 135.955 94.3715 136.034 94.3851 136.235" stroke="#131313" stroke-width="0.994304" stroke-linecap="round"/>
<path d="M89.0577 121.761C89.0577 121.499 89.1158 120.824 89.1823 120.274C89.3033 119.274 89.0286 119.003 88.8895 118.797C88.7181 118.544 88.443 118.299 88.0611 118.042C87.7797 117.852 87.4884 117.843 87.1151 117.77C86.3432 117.618 85.9483 117.872 85.639 117.982C85.3598 118.081 85.213 118.443 85.0225 118.671C84.8535 118.873 84.5538 119.307 84.195 119.966C83.5749 121.104 83.5108 121.598 83.3782 121.922C83.2253 122.294 83.1577 122.802 83.1066 123.125C83.0417 123.535 82.8063 124.135 82.6665 124.556C82.4791 125.119 82.4541 125.69 82.2057 126.983C82.0359 127.866 81.8121 129.219 81.6705 129.959C81.5113 130.791 81.3824 131.239 81.2652 131.869C81.1094 132.708 80.898 133.572 80.7877 134.322C80.7655 134.485 80.751 134.615 80.729 134.719C80.707 134.823 80.6779 134.895 80.6479 135.058" stroke="#131313" stroke-width="0.994304" stroke-linecap="round"/>
<path d="M89.0136 120.795C88.9696 120.386 89.173 119.247 89.38 118.631C89.513 118.236 89.8493 117.964 90.0402 117.758C90.2592 117.521 90.641 117.537 91.1319 117.5C91.6189 117.464 91.9923 117.551 92.1822 117.719C92.8235 118.286 93.1956 118.827 93.5252 119.296C93.8272 119.725 93.9445 120.134 94.0324 120.324C94.1314 120.538 94.3831 121.535 94.7351 122.899C94.8866 123.487 94.9722 123.671 95.0814 124.217C95.328 125.451 95.5882 126.415 95.6835 126.7C95.7529 126.908 95.8519 127.396 96.006 128.019C96.2083 128.837 96.3666 129.937 96.4104 130.231C96.4537 130.52 96.4837 130.774 96.5786 131.204C96.7965 132.191 96.8655 133.019 96.902 133.327C96.9531 133.605 96.9976 133.813 97.0269 133.952C97.0416 134.018 97.0561 134.076 97.1151 134.18" stroke="#131313" stroke-width="0.994304" stroke-linecap="round"/>
<path d="M80.7096 134.703C80.4042 135.854 80.3104 136.417 80.2747 136.935C80.2435 137.389 80.1453 137.852 80.0165 138.801C79.8922 139.718 79.9104 140.393 79.8751 141.186C79.7286 144.481 80.0268 144.953 80.2151 145.377C80.5768 146.191 81.3191 147.118 81.8123 147.645C82.9311 148.842 83.9519 149.328 84.7508 149.739C85.6479 150.2 86.325 150.76 87.0212 151.139C87.2534 151.265 87.4107 151.421 87.598 151.481C87.883 151.571 88.1161 151.188 88.2568 150.965C88.5784 150.457 88.5866 149.804 88.6924 149.179C88.8222 147.948 88.8455 146.627 88.8808 145.1C88.8928 143.712 88.8928 141.082 88.8928 138.371" stroke="#131313" stroke-width="0.994304" stroke-linecap="round"/>
<path d="M97.1465 134C97.1698 134.164 97.2636 134.586 97.4163 135.056C97.5652 135.516 97.5697 136.183 97.6399 136.703C97.7073 137.201 97.8745 137.665 98.1098 138.746C98.2469 139.376 98.2978 140.18 98.4276 141.087C98.5343 141.832 98.6039 142.58 98.745 143.986C99.0392 146.917 98.6519 147.307 98.3708 147.906C97.9709 148.758 97.2184 149.025 96.5497 149.307C95.9954 149.541 95.5508 149.731 94.9264 149.86C94.5028 149.947 93.6729 150.224 92.8574 150.424C92.3052 150.56 91.7879 150.742 91.3167 150.848C90.7184 150.983 90.3291 150.977 89.5661 151.317C89.2018 151.447 88.9408 151.472 88.788 151.39C88.7284 151.331 88.7051 151.238 88.6812 151.142" stroke="#131313" stroke-width="0.994304" stroke-linecap="round"/>
<path d="M86.2324 117.55C86.521 117.24 86.6491 117.069 86.8095 116.823C86.852 116.758 86.8949 116.706 86.9379 116.689C86.9809 116.672 87.0233 116.693 87.0451 116.773C87.067 116.991 87.0776 117.175 87.0989 117.26C87.1097 117.303 87.1202 117.346 87.1312 117.389" stroke="#131313" stroke-width="0.994304" stroke-linecap="round"/>
<path d="M90.7581 117.033C90.8004 116.8 90.8328 116.627 90.8701 116.557C90.8849 116.53 90.9391 116.562 90.9768 116.594C91.0145 116.626 91.0463 116.668 91.0627 116.722C91.079 116.776 91.079 116.839 91.1111 117.001" stroke="#131313" stroke-width="0.994304" stroke-linecap="round"/>
<path d="M86.7139 119.923C86.7671 119.624 86.8525 119.41 86.9755 119.196C87.0039 119.146 87.0554 119.121 87.0984 119.11C87.1414 119.099 87.1838 119.109 87.2109 119.136C87.2486 119.205 87.2701 119.291 87.2862 119.392C87.2916 119.451 87.2916 119.525 87.2916 119.602" stroke="#131313" stroke-width="0.994304" stroke-linecap="round"/>
<path d="M90.4695 119.955C90.4695 119.912 90.4695 119.711 90.4907 119.443C90.4978 119.353 90.5542 119.366 90.5813 119.403C90.6406 119.633 90.6621 119.805 90.6674 119.89C90.6727 119.933 90.6833 119.975 90.6942 120.083" stroke="#131313" stroke-width="0.994304" stroke-linecap="round"/>
<path d="M86.457 123.293C86.457 123.166 86.4676 122.919 86.5049 122.85C86.5315 122.833 86.5739 122.854 86.6116 122.881C86.6493 122.908 86.6811 122.94 86.7459 123.036" stroke="#131313" stroke-width="0.994304" stroke-linecap="round"/>
<path d="M89.9878 122.909C90.009 122.803 90.0838 122.621 90.1478 122.594C90.1801 122.599 90.2118 122.641 90.2282 122.689C90.2446 122.738 90.2446 122.791 90.2767 122.909" stroke="#131313" stroke-width="0.994304" stroke-linecap="round"/>
<path d="M96.6996 130.631C96.6765 130.446 96.6297 130.073 96.6758 129.829C96.7542 129.414 97.3727 129.467 98.1513 129.467C98.6834 129.466 99.0946 130.163 99.3059 130.571C99.5789 131.098 99.6784 131.677 99.7482 132.75C99.8089 133.684 99.7719 135.414 99.7604 136.373C99.7444 137.707 99.656 138.169 99.5743 138.717C99.5036 139.191 99.4466 139.659 99.3998 140.241C99.3392 140.994 99.1449 141.774 99.0622 142.499C99.0506 142.64 99.0276 142.778 99.0157 143.033C99.0039 143.289 99.0039 143.658 99.0039 144.038" stroke="#131313" stroke-width="0.994304" stroke-linecap="round"/>
<path d="M81.4511 130.145C81.4228 130.003 81.2519 129.661 81.0583 129.388C80.9138 129.184 80.1545 129.244 79.6916 129.365C79.4454 129.429 79.3052 129.701 79.0905 129.98C78.8708 130.265 78.79 130.545 78.6537 130.831C78.5173 131.118 78.4036 131.488 78.3241 131.833C78.2602 132.11 78.3027 132.377 78.2741 132.733C78.2161 133.455 78.316 134.207 78.4589 134.665C78.5325 134.9 78.6878 135.464 78.8737 136.308C79.0444 137.083 79.118 137.543 79.1397 137.937C79.1584 138.277 79.2468 138.617 79.297 138.861C79.3523 139.129 79.3902 139.475 79.4329 139.855C79.4776 140.251 79.5474 140.563 79.5976 140.928C79.6049 141.121 79.6191 141.294 79.6476 141.429C79.662 141.494 79.6762 141.551 79.6908 141.652" stroke="#131313" stroke-width="0.994304" stroke-linecap="round"/>
<path d="M79.6929 129.179C79.6929 128.985 79.7194 128.617 79.7773 128.568C79.8067 128.543 79.844 128.528 79.8622 128.567C79.8805 128.607 79.8805 128.704 79.8849 128.776C79.8893 128.848 79.8981 128.893 79.9073 129.019" stroke="#131313" stroke-width="0.994304" stroke-linecap="round"/>
<path d="M97.446 129.112C97.446 129.024 97.478 128.782 97.583 128.568C97.6055 128.522 97.6235 128.491 97.6517 128.478C97.68 128.466 97.72 128.474 97.7606 128.506C97.8412 128.594 97.9064 128.708 97.9428 128.821C97.9551 128.877 97.9551 128.933 98.0036 129.064" stroke="#131313" stroke-width="0.994304" stroke-linecap="round"/>
<path d="M19.1905 28.898C17.8871 29.4982 17.1681 30.0212 16.3568 30.7612C15.6881 31.3711 15.3067 32.193 14.9144 33.193C14.7886 33.5134 14.7523 33.7661 14.6243 34.374C14.3455 35.6976 14.3685 37.5184 14.6511 39.4736C14.9704 41.6831 16.0091 43.1534 16.4458 43.8676C17.1233 44.9754 18.9063 45.7189 21.0106 46.1742C22.4352 46.4824 24.2592 46.217 25.875 46.0476C26.7787 45.9529 27.5628 45.5792 28.6047 45.22C29.5928 44.8794 30.5067 44.148 31.3741 43.4208C32.0429 42.8602 32.63 41.2305 33.2445 39.128C33.7057 37.5502 33.5327 36.9204 33.3308 34.3153C33.2477 33.243 32.6234 31.9742 31.8826 30.564C31.3086 29.4712 30.421 28.9386 29.6691 28.5684C28.8275 28.154 28.0873 28.031 26.3357 27.7703C25.3259 27.6863 23.4073 27.7766 21.8117 27.974C21.3906 28.0217 20.7547 28.0712 20.0995 28.1222" stroke="#131313" stroke-width="0.596582" stroke-linecap="round"/>
<path d="M19.554 35.4648C19.5598 35.5402 19.5657 35.6156 19.5852 35.7037C19.6047 35.7918 19.6376 35.8903 19.6716 35.9918" stroke="#131313" stroke-width="0.596582" stroke-linecap="round"/>
<path d="M26.176 33.957C26.178 33.9822 26.1799 34.0073 26.1907 34.1458C26.2015 34.2844 26.2211 34.5356 26.3292 34.9407" stroke="#131313" stroke-width="0.596582" stroke-linecap="round"/>
<path d="M21.6124 38.2908C21.7333 38.5356 21.9202 38.9791 22.0959 39.4257C22.3072 39.9629 22.6418 40.3781 23.0312 40.7954C23.2461 41.0258 23.4684 41.1585 23.6874 41.1924C23.9307 41.23 24.2561 41.124 24.5951 40.8939C25.0731 40.5694 25.1849 39.9305 25.3284 38.9754C25.3604 38.5643 25.3644 38.2806 25.3612 38.0771C25.3658 37.9741 25.3831 37.8717 25.3891 37.6139" stroke="#131313" stroke-width="0.596582" stroke-linecap="round"/>
<path d="M17.83 29.3603C17.4397 29.3609 16.683 28.8821 15.989 28.1214C14.7303 26.7419 14.0573 25.3812 13.6876 24.5044C13.1744 23.2871 13.365 21.155 13.4358 20.3221C13.5115 19.4309 13.926 18.702 14.3294 18.277C15.25 17.3072 17.4654 18.15 18.3179 18.6408C19.4338 19.2833 19.9093 20.1269 20.6745 21.0461C21.8193 22.4214 21.997 23.31 22.2411 24.1175C22.7202 25.7027 22.6895 26.3902 22.7646 26.7739C22.8963 27.4469 22.6725 25.3938 22.4503 21.198C22.3153 18.647 22.8488 17.6144 23.1721 17.3335C23.8329 16.7594 24.4986 16.7621 25.0067 16.7068C25.7066 16.6305 26.3276 17.0391 26.9261 17.5641C27.6796 18.2252 27.8539 19.2085 28.1275 20.2102C28.2633 20.7075 28.4439 22.9112 28.656 25.4446C28.6798 25.7296 28.7033 23.5508 28.9265 22.1805C29.2562 20.157 30.1236 19.7603 30.8347 19.0271C31.5961 18.2421 33.4441 17.604 35.9822 17.3134C36.9158 17.2065 37.6088 18.0263 38.2295 18.8076C38.7867 19.5091 38.9662 20.7204 39.1314 22.2443C39.2264 23.1208 38.6712 24.5932 38.1243 25.7298C37.5167 26.9925 36.3479 28.0672 35.467 29.0978C34.4119 30.3322 33.8655 30.611 33.6137 30.8715C32.9668 31.5407 35.9103 29.8527 36.964 29.2886C37.641 28.9261 38.4458 28.7806 39.3948 28.601C41.4646 28.2092 42.1093 28.6147 42.7104 28.7785C43.3017 28.9396 43.8262 29.7734 44.6329 31.0346C45.1188 31.7943 45.2592 32.6731 45.3009 34.7299C45.3336 36.3391 43.8592 36.7006 43.2006 37.1445C42.5293 37.597 41.8211 37.6147 41.2594 37.7484C39.9601 38.0575 38.7191 38.3984 37.4722 38.5705C36.8789 38.6523 35.9576 38.7037 35.5321 38.7816C35.1066 38.8594 35.2025 38.9414 35.4811 39.0553C36.8208 39.6028 37.3616 39.9771 38.1064 40.6575C38.712 41.2108 39.206 41.6121 39.7684 42.2601C40.3095 42.8836 40.8063 43.595 41.1096 44.1896C41.479 44.9134 41.7228 46.0812 41.8808 46.7359C41.938 46.9729 42.0162 47.5062 42.0413 48.2114C42.0571 48.6575 41.7457 49.0355 41.3703 49.4258C40.5794 50.2481 39.0858 50.449 38.2773 50.7076C37.2007 51.0519 36.0792 50.9252 35.2722 50.6126C34.6017 50.3527 33.9056 49.681 33.3293 49.2726C32.5447 48.7167 31.9438 48.1166 31.5307 47.6508C30.9723 47.0212 30.9103 46.4492 30.6 45.7658C30.5286 45.6085 30.5029 45.4869 30.4874 45.4863C30.1216 45.4718 31.1308 46.6345 31.9099 47.9426C33.7029 50.9526 33.5215 51.7822 33.719 52.5666C33.8634 53.14 34.1444 55.5131 33.7803 57.5757C33.5643 58.7999 31.6337 59.5512 30.8709 59.8699C30.3144 60.1024 29.7414 60.0635 29.3182 60.0368C28.492 59.9847 28.098 58.6877 26.8099 56.8205C26.3651 56.1757 26.0721 55.1157 25.7014 53.835C25.2666 52.3336 24.8986 50.1163 24.6804 48.672C24.5713 47.9493 24.507 46.6404 24.4456 46.0437C24.3843 45.4471 24.3662 45.5976 24.2887 45.9488C23.9137 47.6484 23.4468 48.8575 23.0622 50.1097C22.6842 51.3401 22.3943 52.379 22.0297 53.082C21.4255 54.2469 20.5725 55.2609 19.8772 55.9765C18.7 57.1882 17.8737 57.3705 17.2088 57.9193C16.6373 58.3911 15.6341 58.3889 14.4404 58.5135C13.5021 58.6114 12.7163 57.6852 12.2447 56.8516C11.6943 55.8786 11.496 54.0243 11.334 52.1409C11.1801 50.3513 11.7033 49.3612 12.4151 48.2828C13.5471 46.5677 14.1813 46.365 14.6161 45.9543C15.1706 45.4305 15.7541 45.2774 15.8686 45.193C16.4217 44.7856 14.2887 46.1434 12.6835 47.139C12.2335 47.4181 11.2373 47.4961 9.42395 47.5477C7.446 47.6041 5.716 47.0257 4.57527 46.4828C3.26843 45.8608 2.35482 44.1315 1.92055 42.8481C1.72379 42.2666 2.00072 41.5907 2.40432 40.9881C2.80514 40.3897 3.54927 39.8434 4.55954 39.134C6.65499 37.6625 8.48432 37.5886 9.64289 37.4085C10.0166 37.3504 10.7556 37.2311 11.5161 37.1272C11.7493 37.0953 11.6472 36.9828 11.4792 36.9497C10.2452 36.7072 8.01279 36.2444 7.13046 35.6484C5.6659 34.6591 5.28436 32.6322 4.81729 31.1015C4.57881 30.32 4.461 28.2771 4.50297 27.0864C4.5192 26.6259 4.99011 26.2044 5.45608 25.8224C5.92884 25.4349 7.61021 25.1853 9.93907 25.1382C12.0246 25.0961 12.7004 26.2007 13.4781 26.7C14.3447 27.2565 15.1731 27.7579 15.5608 28.0896C15.9509 28.451 16.3419 28.8417 16.9052 29.3098C17.0503 29.4201 17.1758 29.4998 17.3051 29.5819" stroke="#131313" stroke-width="0.596582" stroke-linecap="round"/>
<path d="M19.0783 68.2672C17.926 68.2946 17.2292 68.4513 16.3952 68.7385C15.7078 68.9752 15.1647 69.4599 14.5569 70.0723C14.3621 70.2685 14.2548 70.4433 13.9668 70.8507C13.3395 71.738 12.7764 73.088 12.362 74.6198C11.8937 76.3509 12.1913 77.766 12.2858 78.4318C12.4325 79.4645 13.5105 80.5807 14.9172 81.5868C15.8696 82.2679 17.2991 82.6532 18.5447 83.043C19.2413 83.261 19.9385 83.2352 20.8212 83.3022C21.6583 83.3658 22.5653 83.1176 23.4366 82.8577C24.1084 82.6573 25.0604 81.6425 26.1833 80.2879C27.026 79.2713 27.099 78.7518 27.78 76.7664C28.0603 75.9492 28.0041 74.8146 27.9071 73.5388C27.8318 72.5501 27.347 71.8746 26.9105 71.3621C26.4218 70.7884 25.9152 70.4619 24.7066 69.7117C23.9886 69.3281 22.5451 68.7835 21.3056 68.4208C20.9799 68.3219 20.4952 68.1558 19.9958 67.9847" stroke="#131313" stroke-width="0.596582" stroke-linecap="round"/>
<path d="M17.2534 73.2305C17.2337 73.2879 17.2141 73.3454 17.2004 73.4165C17.1867 73.4877 17.1796 73.5708 17.1723 73.6565" stroke="#131313" stroke-width="0.596582" stroke-linecap="round"/>
<path d="M22.6182 74.2266C22.6116 74.2457 22.605 74.2649 22.5689 74.3705C22.5327 74.4761 22.4671 74.6675 22.4177 75.0008" stroke="#131313" stroke-width="0.596582" stroke-linecap="round"/>
<path d="M17.8706 75.9698C17.8817 76.1889 17.8783 76.5754 17.8656 76.9607C17.8503 77.4242 17.9648 77.8369 18.119 78.2687C18.2041 78.5071 18.3257 78.6757 18.4764 78.7705C18.6439 78.8758 18.9176 78.9012 19.2409 78.8395C19.6967 78.7525 19.9827 78.317 20.3928 77.6584C20.5473 77.3654 20.6406 77.1575 20.703 77.0064C20.7393 76.9319 20.7847 76.8619 20.8712 76.6737" stroke="#131313" stroke-width="0.596582" stroke-linecap="round"/>
<path d="M14.7266 62.126C15.4756 62.3193 16.2247 62.5126 17.2509 62.7451C19.5527 63.2665 21.1431 63.6139 21.5941 63.7724C21.8722 63.8701 22.9422 64.27 24.4912 64.8799C25.5382 65.2922 26.4364 65.4679 27.1602 65.6524C27.692 65.788 28.3665 66.0053 28.9658 66.2741C29.9048 66.6951 30.2967 66.8357 31.1856 67.189C32.067 67.5393 32.4934 67.7144 33.6744 68.1288C34.2088 68.3163 34.6168 68.3983 35.0199 68.5081C35.7082 68.6956 36.4957 69.2037 36.8629 69.423C37.0609 69.5413 37.3026 69.5698 37.4612 69.6914C37.8388 69.9809 37.3305 71.1265 36.9025 71.8624C36.7152 72.1844 35.9187 73.2705 34.9064 74.7833C34.4518 75.4627 34.0354 75.8882 33.5364 76.6549C32.4587 78.3106 31.6674 79.2338 31.2281 79.8067C30.6206 80.599 30.1546 81.161 28.8648 83.0465C27.9559 84.3752 27.3216 85.1897 26.8614 85.7477C25.0798 87.9077 24.37 88.3866 23.8695 88.8988C23.1012 89.6851 22.1294 90.4574 21.1863 91.2895C19.6581 92.638 19.0496 93.048 18.0267 93.6455C17.091 94.1921 16.4122 94.6845 15.9146 95.0488C15.0336 95.6938 13.9262 96.4389 13.0607 97.1701C12.1131 97.9706 11.7742 98.2732 11.6036 98.2739C10.5945 98.2782 11.3349 95.2784 11.1764 93.7667C10.9691 91.79 10.6261 90.3915 10.614 90.1114C10.5871 89.4869 10.5287 88.8538 10.4921 86.9547C10.4583 85.201 10.4796 81.842 10.4917 80.0271C10.5049 78.0429 10.5529 77.3373 10.5649 76.4473C10.5721 75.9185 10.6261 75.0447 10.6382 73.9346C10.6537 72.5051 10.8209 70.5012 10.8578 69.9872C10.9037 69.3503 11.0156 68.4305 11.0896 67.5961C11.1745 66.6383 11.3085 66.0112 11.3704 65.3742C11.4226 64.8365 11.4799 64.1543 11.5168 63.7263C11.5602 63.2239 11.6263 62.7381 11.8456 62.3958C11.97 62.2016 11.9683 61.9561 12.1015 61.8097C12.602 61.2597 13.5286 62.0279 14.0046 62.1377C14.2843 62.2226 14.6028 62.3208 14.9074 62.4181C15.0429 62.4672 15.1395 62.5155 15.3123 62.5653" stroke="#131313" stroke-width="0.596582" stroke-linecap="round"/>
<path d="M156.748 39.9437C155.667 40.3416 155.058 40.7148 154.361 41.2558C153.787 41.7017 153.429 42.3357 153.052 43.1115C152.93 43.3601 152.885 43.5601 152.744 44.0388C152.437 45.0809 152.34 46.5405 152.442 48.124C152.557 49.9136 153.296 51.1569 153.6 51.7566C154.072 52.6867 155.453 53.3953 157.109 53.8935C158.23 54.2308 159.707 54.134 161.012 54.101C161.742 54.0825 162.393 53.8331 163.251 53.6116C164.063 53.4017 164.842 52.874 165.582 52.3468C166.154 51.9403 166.727 50.6726 167.353 49.028C167.822 47.7938 167.724 47.2785 167.728 45.1796C167.729 44.3157 167.31 43.26 166.806 42.0838C166.416 41.1722 165.739 40.6894 165.16 40.3452C164.513 39.9599 163.928 39.8144 162.542 39.4944C161.738 39.363 160.196 39.3135 158.906 39.3702C158.566 39.3817 158.053 39.381 157.526 39.3802" stroke="#131313" stroke-width="0.596582" stroke-linecap="round"/>
<path d="M156.622 45.2227C156.622 45.2834 156.622 45.3441 156.632 45.4159C156.642 45.4877 156.662 45.5686 156.683 45.6521" stroke="#131313" stroke-width="0.596582" stroke-linecap="round"/>
<path d="M162.021 44.4336C162.021 44.4538 162.021 44.4741 162.021 44.5857C162.02 44.6973 162.02 44.8997 162.081 45.231" stroke="#131313" stroke-width="0.596582" stroke-linecap="round"/>
<path d="M158.091 47.6192C158.172 47.8229 158.293 48.1899 158.406 48.5587C158.541 49.0022 158.782 49.356 159.068 49.7149C159.225 49.913 159.395 50.0334 159.568 50.0744C159.76 50.12 160.028 50.0558 160.314 49.8931C160.717 49.6636 160.847 49.159 161.023 48.4033C161.075 48.0762 161.096 47.8493 161.106 47.6861C161.116 47.604 161.137 47.523 161.158 47.317" stroke="#131313" stroke-width="0.596582" stroke-linecap="round"/>
<path d="M151.972 34.7794C152.977 34.5359 153.958 34.4162 155.139 34.3349C155.843 34.2865 156.368 34.1991 157.589 34.1135C160.62 33.901 162.888 33.6966 163.348 33.71C164.053 33.7305 164.638 33.5722 165.423 33.5546C166.591 33.5284 167.558 33.4917 168.304 33.5299C169.244 33.5781 169.766 33.3305 170.23 33.4866C170.953 33.7297 170.596 35.5337 170.943 37.5374C171.203 39.0398 171.484 40.1573 171.587 41.4706C171.656 42.3617 171.878 43.2724 172.126 44.4068C172.339 45.3794 172.645 46.4285 172.845 47.3309C172.924 47.6876 172.947 48.2393 173.155 49.412C173.681 52.3757 174.115 54.3298 174.144 54.654C174.241 55.7014 174.715 57.0326 174.932 58.1817C175.023 58.6636 175.075 59.0591 175.077 59.3624C175.078 59.5077 175.086 59.6353 174.907 59.6642C174.727 59.6931 174.363 59.6194 172.665 59.5449C170.966 59.4704 167.946 59.3973 166.253 59.332C164.284 59.256 163.774 59.2026 163.205 59.263C162.434 59.3448 161.371 59.2592 160.082 59.412C157.735 59.6903 156.328 60.2165 155.323 60.4009C154.566 60.5396 153.525 60.771 152.82 61.0917C151.941 61.4912 150.861 62.0856 150.655 62.1566C150.099 62.3488 150.169 61.0871 150.008 60.2248C149.806 59.1468 149.206 57.4775 148.945 56.2433C148.579 54.5146 148.605 53.9678 148.475 53.1118C148.356 52.3289 148.186 51.298 147.953 49.4661C147.771 48.0415 147.308 46.3342 147.099 44.8395C146.962 43.8546 146.836 42.8191 146.582 40.9145C146.431 39.7833 146.115 38.327 145.974 37.5142C145.917 37.1817 145.755 36.4624 145.789 36.2143C145.806 36.0887 145.914 35.9847 146.04 35.9134C146.661 35.5621 147.54 35.5143 148.504 35.4844C149.577 35.451 150.053 35.2558 150.753 35.0293C150.938 34.9863 151.103 34.9562 151.257 34.9075C151.412 34.8587 151.552 34.7921 151.972 34.7794" stroke="#131313" stroke-width="0.596582" stroke-linecap="round"/>
<path d="M156.673 67.4688C156.673 67.5383 156.673 67.6079 156.673 69.8008C156.673 71.9937 156.673 76.3077 156.621 78.9302C156.464 82.3529 156.356 83.3513 156.339 83.7019C156.322 83.8784 156.287 84.0524 156.251 84.4425" stroke="#131313" stroke-width="0.994304" stroke-linecap="round"/>
<path d="M156.673 67.3672C157.83 67.4726 160.481 67.6814 162.239 67.8938C162.851 67.9639 163.348 68.0345 163.663 68.0873C163.84 68.1052 164.048 68.1052 164.263 68.1052" stroke="#131313" stroke-width="0.994304" stroke-linecap="round"/>
<path d="M156.778 73.5859C157.405 73.5859 159.161 73.7251 159.991 73.8142C161.166 73.9022 162.364 73.8674 162.802 73.8147C163.031 73.7968 163.274 73.7968 163.525 73.7968" stroke="#131313" stroke-width="0.994304" stroke-linecap="round"/>
<path d="M166.056 67.8906C166.056 69.0461 165.916 70.8679 165.827 72.5067C165.801 72.9849 165.739 73.7534 165.705 76.2325C165.678 78.1203 165.6 81.2862 165.582 82.9867C165.558 85.2149 165.809 85.9861 165.914 86.6898C165.946 86.8985 166.614 86.0293 167.246 85.0125C167.809 84.1056 168.406 81.7205 169.108 78.7348C169.531 76.9381 169.535 76.0148 169.972 73.6801C170.186 72.5414 170.342 71.4794 170.483 70.7398C170.622 70.0069 170.659 69.2295 170.799 68.7873C170.835 68.8026 170.869 68.9765 170.905 72.0408C170.94 75.105 170.975 81.0542 171.011 87.1838" stroke="#131313" stroke-width="0.994304" stroke-linecap="round"/>
<path d="M174.911 87.1814C174.806 86.6216 174.771 85.814 174.718 82.8694C174.671 80.2383 174.7 75.2977 174.718 72.6831C174.736 69.9289 174.806 69.5772 174.893 69.3305C175.12 68.6872 176.309 71.8776 177.071 73.595C177.383 74.2979 177.825 75.576 178.249 76.6529C178.879 78.2576 179.409 80.6407 179.672 81.345C180.017 82.2695 180.531 83.5168 180.92 84.6132C181.143 85.2428 181.271 86.0175 181.57 86.4782C181.738 86.7372 181.904 85.8477 182.009 83.5141C182.106 81.3555 182.184 77.2143 182.255 74.9946C182.397 72.1085 182.431 71.2988 182.484 70.8961C182.502 70.6673 182.502 70.389 182.502 70.1022" stroke="#131313" stroke-width="0.994304" stroke-linecap="round"/>
<path d="M186.81 69.6602C186.784 69.9436 186.732 70.4087 186.655 71.2872C186.593 71.9888 186.526 72.9166 186.486 75.1516C186.474 75.6117 186.448 75.7398 186.435 76.9973C186.422 78.2548 186.422 80.6377 186.422 83.0929" stroke="#131313" stroke-width="0.994304" stroke-linecap="round"/>
<path d="M186.4 85.4922V86.7068" stroke="#131313" stroke-width="0.994304" stroke-linecap="round"/>
</svg>
