<svg width="173" height="151" viewBox="0 0 173 151" fill="none" xmlns="http://www.w3.org/2000/svg">
<path d="M58.1683 45.4756C64.8157 41.1366 81.3906 41.8803 83.9793 51.7978C86.2377 60.4494 70.1512 71.9421 61.9069 68.5196C54.3657 65.3889 50.3769 50.5614 58.1683 45.4756Z" stroke="#131313" stroke-width="1.02969" stroke-linecap="round"/>
<path d="M114.468 69.9436C106.601 71.0045 91.9549 63.2094 93.8797 53.142C95.5589 44.3595 115.023 40.8961 120.996 47.5296C126.46 53.5975 123.689 68.7001 114.468 69.9436Z" stroke="#131313" stroke-width="1.02969" stroke-linecap="round"/>
<path d="M123.385 53.2158C123.352 52.9423 123.211 52.315 122.956 51.9191C122.664 51.4649 121.768 50.783 121.097 50.1947C120.273 49.4719 119.788 49.3882 119.352 49.2248C118.548 48.9234 118.18 48.9255 116.824 48.5223C116.388 48.3928 115.745 48.2045 114.859 48.0459C114.327 47.9505 113.584 47.9572 112.696 47.8804C112.048 47.8244 111.401 47.8103 110.87 47.7624C110.143 47.6969 109.058 47.7807 108.464 47.8016C107.865 47.8228 106.603 47.9055 105.949 47.9985C105.463 48.0676 105.03 48.1099 104.034 48.2791C103.289 48.4057 102.82 48.4661 101.93 48.7755C100.443 49.2927 99.9156 49.3673 99.5056 49.589C98.8898 49.9219 98.4272 50.2145 98.1412 50.3792C97.1148 50.9702 96.5497 51.2199 96.191 51.5805C95.8162 51.9572 95.4625 52.2983 95.2188 52.571C95.0326 52.7792 94.6098 53.4057 94.3077 53.8865C94.157 54.1526 93.962 54.5917 93.7922 55.0941C93.723 55.3212 93.6883 55.4917 93.6524 55.6673" stroke="#131313" stroke-width="1.02969" stroke-linecap="round"/>
<path d="M83.551 50.4022C83.5551 50.2203 83.3655 49.8486 83.1461 49.5693C82.8973 49.2524 82.4702 49.1642 81.7911 48.8346C81.2815 48.5872 80.405 48.2451 79.5246 47.9552C78.6441 47.6654 77.7781 47.4557 76.7402 47.2516C75.7023 47.0476 74.5187 46.8557 73.8597 46.755C72.9244 46.6121 72.5004 46.578 72.0058 46.5024C71.3493 46.402 69.9548 46.391 69.3456 46.4099C68.9386 46.4225 68.5678 46.4595 68.0078 46.4704C67.3956 46.4823 66.7435 46.571 66.247 46.6364C65.8613 46.6872 65.4725 46.6626 64.8117 46.7268C63.692 46.8356 62.92 47.0596 62.6436 47.1529C61.8436 47.4229 61.0884 47.4689 60.3792 47.6587C59.4449 47.9087 58.9697 48.1052 58.4641 48.3279C58.0185 48.5243 57.5894 48.8089 57.0931 49.1991C56.7423 49.475 56.4024 49.7183 56.1704 49.9544C55.785 50.3467 55.3893 50.6783 55.1031 50.9719C54.8229 51.2592 54.6534 51.6638 54.4223 52.0174C54.1518 52.5638 54.0225 52.8709 53.9198 53.2503C53.8922 53.3456 53.8601 53.4216 53.7977 53.6442" stroke="#131313" stroke-width="1.02969" stroke-linecap="round"/>
<path d="M62.3093 47.4121C62.302 47.4481 62.2472 47.6248 61.9789 48.8463C61.7461 49.9064 61.3796 51.8735 61.1909 53.121C60.8467 55.3965 60.986 55.7495 60.9468 56.0821C60.8834 56.6201 60.8644 57.1801 60.8082 57.596C60.7969 57.6798 60.8037 57.7558 60.8359 57.829C60.868 57.9023 60.929 57.9709 61.0323 58.0209C61.6993 58.3439 62.6549 58.0415 63.3235 58.0071C63.5758 57.9941 64.8881 57.9875 66.7584 58.0005C67.4157 58.005 67.4806 57.9478 67.5304 57.8915C67.9068 57.4664 67.8372 56.3949 67.8306 55.732C67.8279 55.4652 67.7883 55.0658 67.815 54.1006C67.8417 53.1354 67.9268 51.6167 67.9853 50.7625C68.0538 49.7629 68.1261 49.3211 68.1901 48.6834C68.2905 47.9594 68.348 47.491 68.3595 47.2955C68.3744 47.1756 68.4074 47.0138 68.3869 46.8359" stroke="#131313" stroke-width="1.02969" stroke-linecap="round"/>
<path d="M99.5997 49.6635C99.5745 49.7866 99.5494 49.9098 99.3745 50.8062C99.1996 51.7026 98.8757 53.3686 98.7085 54.3069C98.5414 55.2452 98.5407 55.4055 98.4944 55.8315C98.277 57.8298 98.2089 58.3844 98.2579 58.6942C98.3103 59.0252 98.9462 58.8128 99.7743 58.8127C100.455 58.8125 101.662 58.8844 102.323 58.9201C103.601 58.9891 104.765 59.0288 105.241 58.9635C105.414 58.9398 105.557 58.336 105.747 56.9317C105.87 56.024 105.913 54.7045 105.95 53.962C105.986 53.2196 105.98 53.0901 106.05 52.5091C106.12 51.9281 106.266 50.8993 106.344 50.3139C106.449 49.4418 106.475 49.1565 106.479 48.8169C106.483 48.7202 106.489 48.6093 106.525 48.3551" stroke="#131313" stroke-width="1.02969" stroke-linecap="round"/>
<path d="M94.6707 46.6229C94.6494 46.4915 94.8785 45.8356 95.5959 44.8673C96.0419 44.2651 96.8566 43.7523 97.6083 43.2885C97.9042 43.1129 98.0265 43.0584 98.1399 43.0168C98.2533 42.9753 98.3541 42.9482 98.458 42.9203" stroke="#131313" stroke-width="1.02969" stroke-linecap="round"/>
<path d="M84.7755 46.7906C84.8007 46.5784 84.6134 46.0751 84.1289 45.2555C83.8448 44.83 83.4829 44.3849 83.143 44.0202C82.8031 43.6555 82.4961 43.3846 82.1799 43.1055" stroke="#131313" stroke-width="1.02969" stroke-linecap="round"/>
<path d="M83.5948 64.5443C83.5686 64.539 84.0829 64.4937 84.9836 64.4361C85.3561 64.4123 85.5586 64.4351 87.0606 64.4201C88.5626 64.4052 91.3583 64.3609 92.8761 64.3266C94.3938 64.2923 94.5488 64.2693 94.5653 64.3333C94.724 64.9477 93.9333 65.273 93.5956 65.8546C93.3132 66.3412 92.7746 67.1983 92.2297 68.2356C91.6848 69.2729 91.1421 70.4599 90.8427 71.1015C90.5433 71.7431 90.5037 71.8033 90.4558 71.8014C90.0843 71.7867 89.8153 70.7298 89.0758 69.7398C88.6525 69.1732 88.0352 68.5518 87.6824 68.1851C87.0763 67.555 86.3601 67.1122 85.7347 66.7134C85.1994 66.2945 84.6652 65.7985 84.2786 65.3959C84.1633 65.2821 84.0351 65.174 83.8235 65.0464" stroke="#131313" stroke-width="1.02969" stroke-linecap="round"/>
<path d="M90.665 71.5664C90.6422 71.7887 90.8537 73.1882 90.9024 74.1989C90.8906 74.3674 90.8897 74.5928 90.7942 75.1746C90.6988 75.7564 90.5087 76.6876 90.3129 77.6471" stroke="#131313" stroke-width="1.02969" stroke-linecap="round"/>
<path d="M90.3602 77.5854C90.3278 77.7442 90.2284 78.1361 90.133 78.4356C90.0182 78.7961 89.7752 78.9174 89.4776 79.1264C89.2733 79.27 89.0276 79.3636 88.7896 79.443C88.5395 79.5263 88.3154 79.4838 88.0733 79.4688C87.6318 79.4416 87.0404 79.0582 86.6153 78.8287C86.1365 78.5701 85.7388 78.2624 85.5615 78.0743C85.3434 77.8429 85.1296 77.4521 84.7909 76.8362C84.6025 76.4355 84.3808 75.8559 84.2574 75.5069C84.134 75.1579 84.1158 75.0571 84.0969 74.9531" stroke="#131313" stroke-width="1.02969" stroke-linecap="round"/>
<path d="M90.4565 77.5454C90.4409 77.6203 90.5713 77.8426 90.7697 78.0259C90.9992 78.2379 91.2349 78.4397 91.654 78.7604C91.8763 78.9305 92.0623 78.9523 92.512 79.025C93.3801 79.1652 93.6556 78.9837 93.9038 78.8727C94.0546 78.8052 94.5852 78.5484 95.286 78.1422C95.6247 77.9459 95.776 77.7783 95.9452 77.5731C96.0976 77.3547 96.2486 77.0028 96.4695 76.4223C96.613 76.0786 96.8201 75.6351 97.0334 75.1782" stroke="#131313" stroke-width="1.02969" stroke-linecap="round"/>
<path d="M90.5882 82.9052C90.5948 82.8727 90.6015 82.8402 90.6699 82.8368C90.7383 82.8333 90.8684 82.8598 91.082 82.8187C91.2956 82.7777 91.5888 82.6682 92.0296 82.3785" stroke="#131313" stroke-width="1.02969" stroke-linecap="round"/>
<path d="M63.5252 72.5034C63.1621 72.3658 62.0986 72.3062 61.4265 72.3115C60.0418 72.3224 59.3664 72.6807 59.0046 72.9388C58.7196 73.1421 58.5069 74.0954 58.5208 74.6812C58.5336 75.2181 59.1071 75.3311 59.6624 75.4918C60.1279 75.6265 60.9899 75.7788 61.8895 75.845C62.789 75.9112 63.7061 75.8637 64.4388 75.7906C65.1715 75.7176 65.692 75.6204 66.1843 75.5066C67.672 75.1626 68.0563 74.837 68.3301 74.434C68.512 74.1662 68.4303 73.8685 68.3779 73.7395C68.3225 73.6029 68.1622 73.4819 67.5095 73.2617C66.9485 73.0725 65.8652 72.9174 65.2602 72.8098C64.549 72.6834 63.8197 72.5635 62.7303 72.3725C62.2568 72.3072 61.9441 72.306 61.6237 72.3197C61.3032 72.3335 60.9844 72.3624 60.656 72.392" stroke="#131313" stroke-width="1.02969" stroke-linecap="round"/>
<path d="M119.041 71.6149C118.67 71.539 117.973 71.5505 117.486 71.5399C117.164 71.533 116.705 71.7577 116.283 71.9634C115.923 72.1389 114.818 72.4755 114.1 72.8181C113.938 72.8952 113.877 73.2374 113.82 73.6135C113.784 73.847 113.944 74.0481 114.118 74.2388C114.382 74.5286 114.896 74.5149 115.83 74.7058C116.598 74.8628 117.978 75.0676 118.785 75.1738C119.783 75.305 120.219 75.2523 120.885 75.2531C122.762 75.2555 123.318 75.0893 123.948 74.9561C124.155 74.9122 124.28 74.7615 124.407 74.6134C124.548 74.4495 124.578 74.163 124.594 73.895C124.648 73.0042 122.658 72.5474 121.76 72.151C121.435 72.0077 120.319 71.7789 118.627 71.4715C117.905 71.4005 117.462 71.5022 117.148 71.5949C116.835 71.6875 116.665 71.7681 116.433 71.8397" stroke="#131313" stroke-width="1.02969" stroke-linecap="round"/>
<path d="M90.0066 33.4581C89.7519 33.0741 88.4709 32.3043 86.829 31.7554C85.4006 31.2779 82.5632 30.5679 78.7006 30.3392C75.1127 30.1269 69.6905 30.3055 68.1152 30.5949C66.1512 30.9557 64.1031 31.5866 62.4853 32.3303C61.2989 32.8758 59.9164 34.033 58.7231 34.8375C57.4748 35.6792 56.6982 36.7341 55.1875 37.7306C53.8557 38.6091 52.5231 40.0101 51.0385 41.5874C49.7302 42.9773 48.5988 44.7641 47.5 46.54C46.498 48.1597 45.8244 49.7225 45.4723 50.9785C45.1748 52.0396 45.0526 54.8507 44.8925 57.3116C44.8085 58.6021 45.6276 59.5005 47.7451 62.5469C48.9065 64.2179 50.1925 64.7753 51.0317 65.0995C52.6117 65.7097 45.7048 64.648 44.1275 65.1612C41.2128 66.1096 39.9128 67.0867 38.4977 68.663C37.6292 69.6303 37.5938 71.2657 37.4963 72.6828C37.4388 73.5188 37.3989 74.2929 37.6227 74.9025C38.5689 77.4802 44.3311 78.6011 46.1408 78.8297C46.7228 78.9033 48.128 78.9908 49.4506 79.0227C51.8927 79.0814 44.3542 80.2758 41.6223 81.3331C40.9581 81.5901 40.6228 82.0701 40.4261 82.3942C39.8415 83.3571 40.0363 85.4079 40.5158 87.0893C40.7462 87.8976 41.8326 88.5045 42.7625 89.2753C47.146 90.3065 53.2177 91.0165 53.8264 91.113C54.1804 91.1458 54.6261 91.1458 55.0853 91.3387" stroke="#131313" stroke-width="1.02969" stroke-linecap="round"/>
<path d="M46.7891 61.625C44.8135 61.625 40.9393 61.8797 40.4579 62.3929C40.0052 62.8755 39.7798 63.4232 39.6833 63.9364C39.6352 64.1925 39.6505 64.4496 39.8097 64.6763C40.6342 65.8506 42.4095 66.2516 44.1449 66.8642C46.3052 67.6267 48.0046 67.9263 49.3889 68.4076C50.4786 68.7866 51.2228 69.7244 51.8035 70.6891C52.0994 71.1807 52.1913 71.9741 52.0958 72.905C51.9469 74.3566 50.3314 74.9337 48.9809 75.7064C47.7056 76.4361 45.8978 76.9286 43.6462 77.4438C41.9536 77.831 40.6846 78.1519 38.7283 78.7924C35.1927 79.95 34.0631 81.1076 33.0936 81.8803C32.6679 82.2196 32.4482 82.7167 32.3518 83.2299C32.3036 83.486 32.319 83.7431 32.6691 84.0017C33.6097 84.6961 37.8157 84.7773 43.1195 84.8728C46.1287 84.927 47.1055 85.8037 52.6843 87.5353C53.8335 87.892 53.8621 88.308 53.9268 88.5993C53.9914 88.8906 54.0551 89.1453 54.0879 89.4357C54.1207 89.7261 54.1207 90.0444 53.5476 90.3357C50.3932 91.1441 49.1121 91.2715 47.6622 91.7528C47.3699 91.9139 47.1788 92.105 46.7891 92.3018" stroke="#131313" stroke-width="1.02969" stroke-linecap="round"/>
<path d="M90.7783 33.069C91.2259 32.7487 92.6344 32.2355 94.1489 31.4966C95.0881 31.0383 96.7477 30.4991 100.585 30.1132C103.266 29.8436 107.479 29.982 109.803 30.0457C113.706 30.1526 116.111 31.5216 120.216 32.7429C122.55 33.4371 123.574 34.2227 128.189 37.9406C130.9 40.1251 131.291 41.5543 132.224 42.8392C133.001 43.9101 133.479 45.2162 134.154 47.5941C134.446 48.6227 134.575 52.3934 134.543 57.5371C134.526 60.2148 134.061 61.7431 133.836 63.5123C133.75 64.181 133.803 65.2043 133.994 65.7928C134.661 67.8473 138.171 67.5388 139.233 67.6999C140.532 67.897 141.258 69.1441 141.872 70.1087C142.161 70.5624 142.099 71.33 142.036 72.1326C141.908 73.7405 138.889 73.9713 137.122 74.3871C134.434 75.0198 130.793 76.8576 129.401 78.2429C128.801 78.8405 128.787 79.7555 128.882 80.4298C129.076 81.7969 132.95 81.4958 137.388 80.8553C138.423 80.7058 139.19 80.7241 139.679 80.8514C140.168 80.9787 140.359 81.2334 140.521 81.4919C140.834 81.9911 140.942 83.3499 140.687 85.0535C140.414 86.8763 137.862 86.5739 136.254 86.8006C133.614 87.4112 132.074 87.6697 130.019 87.8299C129.248 87.8627 128.165 87.8627 126.857 88.0556" stroke="#131313" stroke-width="1.02969" stroke-linecap="round"/>
<path d="M134.634 65.7305C133.881 66.0308 132.666 66.9408 131.353 68.2028C130.485 69.0373 130.691 70.93 131.169 71.8961C131.867 73.3087 135.535 72.4528 139.146 72.7069C140.617 72.8103 141.605 73.3629 142.896 73.9438C144.427 74.6329 145.452 76.5466 145.755 77.3027C145.911 77.6912 145.859 78.1589 145.533 78.6162C144.182 80.5153 141.678 80.9406 138.744 81.63C133.413 82.8826 132.162 81.9599 130.848 82.0858C129.584 82.2069 128.774 82.5636 127.586 83.2719C127.119 83.5503 126.749 83.8786 126.496 84.433C125.981 85.5632 126.14 86.5557 126.341 87.5431C126.441 88.0304 126.947 88.479 127.351 88.9591C127.525 89.1668 127.754 89.1888 129.86 89.2146C131.965 89.2404 135.969 89.2404 138.232 89.3405C141.521 89.486 142.164 90.6025 142.899 91.235C143.591 91.831 143.078 92.9292 142.877 93.3577C141.718 94.0941 140.401 94.1441 138.795 94.22C137.489 94.2458 135.187 94.2458 132.814 94.2458" stroke="#131313" stroke-width="1.02969" stroke-linecap="round"/>
<path d="M90.4728 29.6689C90.3195 29.5156 90.1639 28.7468 90.0094 27.4716C89.8549 26.4264 89.6227 25.416 89.2371 24.2581C89.0048 23.6368 88.6982 22.9469 88.3823 22.0039" stroke="#131313" stroke-width="1.02969" stroke-linecap="round"/>
<path d="M50.3677 75.5532C50.407 75.9884 50.5656 76.7026 50.8238 77.3394C51.1095 78.0443 51.4003 78.849 51.7962 79.5841C52.5115 80.9125 53.6611 81.5892 54.5185 82.2486C55.2326 82.7978 56.2034 83.5781 57.0428 84.1171C57.8876 84.6595 59.2655 85.2499 60.1819 85.5683C61.1939 85.9199 62.2465 86.0059 64.3857 86.639C65.4443 86.9524 67.1855 87.3104 68.5496 87.6115C70.8557 88.1205 72.5788 88.3514 73.869 88.4503C74.7349 88.5167 75.2868 88.7484 78.9499 88.907C82.3746 89.0553 88.9877 89.0656 92.5506 89.0865C96.4283 89.1092 97.1068 89.0275 98.0763 88.9488C99.571 88.8274 101.748 88.5505 104.463 88.4521C107.388 88.3461 109.151 87.9149 109.588 87.8553C115.931 86.9887 124.876 85.2443 128.563 79.5841C129.599 78.127 131.66 74.6608 131.611 72.4531" stroke="#131313" stroke-width="1.02969" stroke-linecap="round"/>
<path d="M123.7 83.9922C123.548 84.1 123.287 84.6208 123.047 85.2206C122.822 85.7832 122.719 87.2907 122.86 88.2052C122.944 88.7517 123.456 89.0654 123.981 89.4578C124.473 89.8261 125.004 90.0024 125.506 90.1449C125.907 90.2589 126.29 90.3304 126.92 90.4605C127.7 90.6213 128.4 90.6349 129.316 90.6679C129.644 90.6798 130.617 90.7441 132.129 90.8091C133.97 90.8883 134.954 91.2661 135.547 91.3756C136.01 91.4611 136.352 91.7013 136.691 92.0388C136.868 92.2154 136.92 92.4423 136.953 92.6593C136.998 92.9593 136.878 93.2696 136.682 93.5087C136.285 93.9957 135.681 94.0328 135.267 94.1958C134.899 94.315 134.397 94.3817 133.886 94.3601C133.655 94.3386 133.483 94.2954 133.109 94.251" stroke="#131313" stroke-width="1.02969" stroke-linecap="round"/>
<path d="M51.7648 80.207C51.7441 80.207 51.4962 80.2173 51.0283 80.2588C50.5752 80.2989 49.9038 80.5391 49.185 80.7631C48.7569 80.8965 48.5663 81.0293 47.5688 81.7259C47.1482 82.0196 46.9611 82.2693 46.8356 82.5716C46.7823 82.7 46.7935 82.9152 46.8297 83.1702C46.8594 83.3806 47.2291 83.5821 47.7431 83.8889C48.3712 84.2637 48.8977 84.3547 49.1005 84.4014C49.2961 84.4465 49.6052 84.5214 50.0161 84.5889C50.3788 84.6485 50.7311 84.7299 51.0847 84.7818C51.2537 84.8066 51.3971 84.8543 51.9461 85.051C52.4951 85.2476 53.4443 85.5984 54.0417 85.8462C54.639 86.094 54.8557 86.2281 55.0911 86.4365C55.6047 86.8911 55.8705 87.2724 55.9589 87.4487C56.2065 87.9431 56.2457 88.3442 56.324 88.5907C56.3842 88.7801 56.392 89.0739 56.2521 89.4654C56.084 89.9358 55.3747 90.2826 54.8666 90.5293C54.6521 90.5662 54.4545 90.5872 54.2777 90.582C54.1938 90.5768 54.1215 90.5665 54.0471 90.5559" stroke="#131313" stroke-width="1.02969" stroke-linecap="round"/>
<path d="M65.3402 87.0078C65.042 87.0375 63.5492 87.5736 62.6392 88.1024C62.3554 88.2674 61.1473 89.1034 59.2126 90.3322C57.1291 91.6556 56.34 93.1557 55.4021 94.0179" stroke="#131313" stroke-width="1.02969" stroke-linecap="round"/>
<path d="M117.624 86.5C117.784 86.5456 118.288 86.7293 118.957 87.0398C119.44 87.264 119.787 87.5802 120.556 88.1096C121.061 88.4569 121.74 89.1674 122.456 89.7786C123.086 90.316 123.65 91.1313 124.217 92.4685" stroke="#131313" stroke-width="1.02969" stroke-linecap="round"/>
<path d="M55.8479 93.9894C56.1609 93.6996 57.5082 93.5536 58.3638 93.6498C59.2693 93.7517 60.0344 94.4716 60.4102 94.7872C60.574 94.9247 60.6655 95.1021 60.7737 95.2354C61.2003 95.7607 62.3571 94.7651 63.0478 94.6314C63.4243 94.5586 64.2186 94.4978 65.3422 94.5457C66.3079 94.5869 67.1021 94.9321 67.9464 95.1979C69.0011 95.53 69.7437 95.5386 69.9009 95.6228C70.0578 95.7069 70.0829 95.9736 70.2398 96.1069C70.5951 96.4088 71.4113 95.6366 72.3195 95.2499C73.3783 94.799 74.8003 95.0541 75.601 95.3679C76.0809 95.5559 76.1599 95.9736 76.2805 96.059C76.7086 96.362 77.5109 95.4914 80.6275 95.466C81.6732 95.4574 82.0416 95.9969 82.5377 96.3005C82.8498 96.4915 83.2044 96.4828 83.7695 96.5191C84.9793 96.5969 86.2273 96.4356 88.0798 96.2184C89.4726 96.0551 91.8018 95.9533 93.1193 95.8553C94.679 95.7392 95.8582 95.6359 97.4663 95.5756C99.0426 95.5165 99.4731 95.3941 101.995 95.3454C102.696 95.3319 102.936 95.2001 103.824 95.1638C107.727 95.0043 108.044 95.2241 108.262 95.1642C108.752 95.0291 108.915 94.5225 109.399 94.3772C110.425 94.0691 111.335 94.9801 111.712 95.2357C112.293 95.6295 112.935 93.9182 113.298 93.6393C113.683 93.3431 114.386 93.5289 115.364 93.8546C116.16 94.1194 116.76 94.2552 117.001 94.3039C117.553 94.415 118.186 93.4839 118.733 93.2151C119.232 92.9695 119.907 93.77 120.873 94.3384C121.17 94.5129 121.384 94.5218 121.542 94.5101C121.956 94.4795 121.918 93.6524 122.171 93.2885C122.618 93.0219 123.055 92.8033 123.26 92.743C123.369 92.7067 123.489 92.6588 123.831 92.6094" stroke="#131313" stroke-width="1.02969" stroke-linecap="round"/>
<path d="M55.1618 93.8294C55.1752 93.816 55.1887 93.8025 55.1889 93.7687C55.1891 93.7348 55.1756 93.6809 55.0677 93.6532C54.4475 93.4937 54.021 93.5846 52.8613 93.5438C52.2407 93.522 51.9133 93.9102 51.6335 94.2293C51.2737 94.6394 51.2181 95.3651 51.0959 95.6846C50.9958 95.9463 50.7563 96.1542 50.4644 96.3041C50.3817 96.3466 50.2814 96.3451 49.7683 96.3521C49.2553 96.359 48.3263 96.359 47.7871 96.3657C46.9468 96.3762 46.7041 96.4675 46.2219 96.7048C45.8627 96.8814 45.5487 97.2272 45.3365 97.5748C45.2092 97.7834 45.2476 98.1252 45.2745 98.4173C45.3087 98.7885 45.7086 99.064 46.0285 99.4312C46.2664 99.7043 46.2945 100.327 46.3422 100.703C46.3929 101.102 46.4438 101.484 46.4783 101.771C46.521 102.125 46.6609 102.503 46.872 102.892C46.9689 103.071 47.2847 103.442 47.7737 103.89C48.0818 104.173 48.549 104.368 49.2069 104.612C49.8611 104.855 50.5078 104.913 50.9833 104.967C51.6907 105.048 52.5351 105.022 52.9637 105.002C53.7162 104.966 54.6436 104.995 55.0712 105.13C55.8084 105.364 56.1532 105.403 56.9537 105.701C57.1453 105.772 57.254 105.797 57.8211 105.959C58.3882 106.121 59.4114 106.417 60.0597 106.583C60.9425 106.809 61.5636 106.804 62.1615 106.797C62.7953 106.79 63.3877 106.573 64.0129 106.335C64.2987 106.227 64.3546 105.84 64.3958 105.54C64.4559 105.103 64.4909 104.86 64.498 104.121C64.5032 103.586 64.1253 102.944 63.7722 102.487C63.4804 102.11 62.9834 101.869 62.5364 101.503C61.5238 100.673 61.1739 100.671 60.9561 100.602C60.9014 100.589 60.8475 100.575 60.7996 100.541C60.7517 100.507 60.7113 100.454 60.6289 100.317" stroke="#131313" stroke-width="1.02969" stroke-linecap="round"/>
<path d="M124.534 92.4648C124.951 92.4648 126.113 92.5888 126.605 92.9486C126.928 93.1842 127.115 93.5578 127.311 93.9965C127.623 94.6962 127.678 95.1699 127.905 95.5075C127.956 95.582 128.007 95.6403 128.078 95.68C128.148 95.7197 128.241 95.7351 129.094 95.8128C129.948 95.8905 131.559 96.03 132.428 96.1173C133.297 96.2046 133.374 96.2356 133.437 96.2903C133.71 96.5266 133.984 96.845 134.243 97.1428C134.432 97.3596 134.533 97.752 134.666 98.1285C134.715 98.2663 134.721 98.5501 134.683 98.9174C134.632 99.3999 134.035 99.6928 132.687 100.209C131.333 100.727 130.34 100.634 130.2 100.649C129.792 100.694 129.48 100.915 129.355 101.032C129.107 101.263 129.151 101.695 129.08 101.994C129.002 102.325 128.698 102.899 128.431 103.425C128.229 103.825 126.876 104.028 125.991 104.248C125.632 104.337 125.225 104.467 124.749 104.623C123.516 105.028 122.565 104.797 121.885 104.679C120.932 104.515 120.623 104.032 120.333 103.687C120.122 103.435 119.965 103.216 119.84 103.13C119.722 103.049 119.435 103.028 118.579 103.136C117.937 103.218 116.887 103.462 116.042 103.581C114.602 103.785 113.832 103.717 113.481 103.647C112.576 103.466 112.205 102.999 111.945 102.622C111.643 102.184 111.733 101.684 111.749 100.895C111.768 99.8528 112.561 99.274 113.241 98.8355C113.469 98.6787 113.641 98.5839 113.883 98.5214C114.032 98.49 114.233 98.459 114.44 98.4271" stroke="#131313" stroke-width="1.02969" stroke-linecap="round"/>
<path d="M90.4847 33.6003C90.3285 33.5781 89.4812 33.2218 88.4898 32.9163C87.1309 32.4977 85.1883 32.7692 84.6498 32.8702C84.3953 32.9179 84.1773 33.2386 83.9978 33.6535C83.8888 33.9056 83.8843 34.2489 83.9399 34.6749C84.0159 35.2577 84.5565 35.5063 84.9269 36.1347C85.2431 36.671 85.2314 37.4352 85.0303 38.0771C84.8797 38.558 84.3127 38.7405 83.9531 38.9873C83.5824 39.2417 83.2351 39.5703 83.0876 40.1188C83.015 40.3887 83.0761 40.8647 83.0317 41.0719C82.9872 41.279 82.8983 41.2123 82.8192 41.1335C82.4159 40.7319 82.2019 39.7117 82.0773 38.9688C81.9244 38.0572 82.4013 37.7329 82.7269 37.3844C83.0142 37.0769 83.0532 36.588 83.0317 36.0047C83.0085 35.3765 82.2693 34.8597 82.0888 34.2435C81.8852 33.5483 82.1103 32.9504 82.2221 32.7264C82.4714 32.2271 83.029 32.0297 84.2608 31.6485C85.3849 31.6464 86.1958 31.7818 86.4194 31.7929C86.5541 31.804 86.7319 31.8263 86.9825 31.8492" stroke="#131313" stroke-width="1.02969" stroke-linecap="round"/>
<path d="M90.1736 33.2277C90.5638 33.135 92.0956 32.7981 92.871 32.7309C93.3357 32.6907 94.1041 33.2626 94.5306 33.6666C94.7697 33.8931 94.7845 34.3872 94.7288 34.8829C94.6182 35.868 94.0726 36.4689 94.0068 36.9277C93.9894 37.0494 93.9973 37.1616 94.0066 37.2561C94.0588 37.7882 95.177 38.0062 95.5237 38.4926C95.8706 38.9795 95.7404 40.1936 95.5911 40.9575C95.5484 41.1763 95.497 41.343 95.5152 41.4276C95.5994 41.8174 96.2263 40.8763 96.5732 40.409C97.0708 39.7388 96.9584 39.3209 96.9589 38.5916C96.9595 37.902 96.567 37.5406 96.3221 37.2679C96.1138 37.0359 96.0227 36.5667 95.9372 36.1346C95.8388 35.6367 96.3016 35.0496 96.6761 34.1963C96.8583 33.7811 96.9213 32.9899 96.8842 32.0719C96.8545 31.3391 96.1543 30.9245 95.7795 30.7165C95.3181 30.4603 94.5821 31.145 94.223 31.4275C94.1665 31.484 94.1109 31.5397 94.0729 31.6148C94.035 31.6898 94.0164 31.7826 93.941 31.9907" stroke="#131313" stroke-width="1.02969" stroke-linecap="round"/>
<path d="M76.1428 39.479C76.1094 39.4456 76.0254 39.395 75.3397 39.1941C74.7244 39.0138 73.5517 38.726 72.8493 38.5627C71.586 38.2692 70.7663 38.2644 69.8728 38.2224C69.3877 38.1996 68.5021 38.2138 67.6703 38.2389C66.086 38.2866 65.1124 38.4157 64.767 38.4916C64.5385 38.5174 64.1518 38.5842 63.6546 38.6938C63.458 38.7366 63.3745 38.7533 63.1873 38.7705" stroke="#131313" stroke-width="1.02969" stroke-linecap="round"/>
<path d="M76.2619 39.3419C76.3173 39.3051 76.4745 38.7891 76.6415 37.8813C76.8133 36.9478 76.7818 36.3613 76.8097 36.1808C76.8247 36.0837 76.8191 35.9726 76.7916 35.902C76.6958 35.6569 76.3003 35.6734 75.7995 35.4928C75.3883 35.3446 75.0091 35.2554 74.5824 35.1442C74.2033 35.0455 73.6076 34.9952 73.2954 34.9675C73.094 34.9496 72.7811 34.9027 72.1939 34.8469C71.8285 34.8123 71.3216 34.828 71.0197 34.8234C70.6349 34.8175 70.2556 34.8001 69.7914 34.7955C69.6214 34.7939 69.5846 34.7817 69.1519 34.777C68.7192 34.7723 67.8916 34.7723 67.4469 34.7769C66.9653 34.7818 66.8356 34.8001 66.2136 34.8921C65.6813 34.9708 64.718 35.1679 64.17 35.2765C63.5195 35.4053 63.38 35.441 63.3058 35.4548C62.9763 35.5161 63.0267 36.3037 62.9989 36.61C62.9701 36.9285 62.9152 37.2226 62.8921 37.4188C62.8689 37.5859 62.8316 37.7347 62.8224 37.8318C62.8132 37.8922 62.7948 37.9749 62.7759 38.1438" stroke="#131313" stroke-width="1.02969" stroke-linecap="round"/>
<path d="M104.222 39.0811C104.631 39.0811 105.53 38.9186 106.487 38.8248C106.662 38.8075 106.765 38.7943 107.985 38.8041C109.205 38.814 111.541 38.8546 112.795 38.8857C114.049 38.9168 114.151 38.9371 114.376 38.9882C114.601 39.0393 114.946 39.1205 115.486 39.2042" stroke="#131313" stroke-width="1.02969" stroke-linecap="round"/>
<path d="M115.732 39.2077C115.814 39.1061 115.856 37.1124 115.662 36.0282C115.59 35.6266 114.404 35.8642 113.765 35.7712C113.521 35.7359 113.312 35.7404 112.133 35.7097C111.035 35.681 108.922 35.6992 107.712 35.7297C105.675 35.781 104.86 35.986 104.521 36.0171C104.428 36.0256 104.327 36.0476 104.254 36.1291C104.059 36.6822 103.976 37.5205 103.986 38.269C103.996 38.5503 104.017 38.6315 104.038 38.7152" stroke="#131313" stroke-width="1.02969" stroke-linecap="round"/>
<path d="M51.5615 51.5352C51.8076 51.5352 52.4031 51.5679 52.7264 51.6505C52.9321 51.7327 53.1321 51.7996 53.2889 51.8326C53.3638 51.8493 53.4293 51.8656 53.6457 51.9818" stroke="#131313" stroke-width="1.02969" stroke-linecap="round"/>
<path d="M63.9419 44.8281C63.9746 44.9924 64.1721 45.4216 64.3878 45.6873C64.6545 46.0161 64.983 46.3158 65.2311 46.457C65.2976 46.482 65.3631 46.4984 65.4296 46.515C65.4961 46.5317 65.5616 46.548 65.7283 46.6145" stroke="#131313" stroke-width="1.02969" stroke-linecap="round"/>
<path d="M82.8911 49.2641C83.0494 49.2641 83.4139 49.215 84.0663 49.0326C84.4339 48.8993 84.8757 48.6832 85.1475 48.5327C85.4193 48.3821 85.5077 48.3036 85.5987 48.2227" stroke="#131313" stroke-width="1.02969" stroke-linecap="round"/>
<path d="M91.5344 51.7656C91.7533 51.9845 92.2851 52.4198 92.7697 52.7759C93.2013 53.0312 93.7623 53.3488 94.0238 53.4279C94.1405 53.4588 94.225 53.4709 94.4216 53.5198" stroke="#131313" stroke-width="1.02969" stroke-linecap="round"/>
<path d="M105.333 46.0312C105.345 46.3715 105.466 46.8323 105.631 47.1936C105.758 47.4723 105.978 47.6627 106.179 47.7972C106.234 47.8337 106.294 47.882 106.392 47.937C106.489 47.992 106.622 48.0523 106.758 48.1144" stroke="#131313" stroke-width="1.02969" stroke-linecap="round"/>
<path d="M123.036 51.7598C123.062 51.7598 123.141 51.7468 123.356 51.701C123.741 51.6163 124.62 51.3026 125.611 50.889C125.965 50.7355 126.017 50.6964 126.071 50.6562" stroke="#131313" stroke-width="1.02969" stroke-linecap="round"/>
<path d="M88.1409 19.8367C87.2776 19.723 85.5526 19.3674 82.8063 19.2361C79.3845 19.0725 77.243 20.0246 75.4393 20.271C73.9638 20.4725 72.6561 21.2866 71.0606 21.5451M43.9374 38.8324C42.3787 46.2234 36.3389 50.7475 35.6389 61.9045C36.0191 65.1815 36.4926 66.2272 37.1085 67.2219C37.2983 67.4262 37.5565 67.5677 37.8224 67.7134" stroke="#131313" stroke-width="1.02969" stroke-linecap="round"/>
<path d="M38.3784 68.1211C37.8816 68.3067 36.7586 69.1784 35.9131 69.9621C35.0007 70.8077 33.9465 72.7329 33.5669 74.1165C33.3051 75.0704 34.7489 75.8037 35.6562 76.4927C37.0004 76.8686 37.8759 77.1816 38.3746 77.3063C38.6258 77.3691 38.8733 77.431 39.6907 77.4947" stroke="#131313" stroke-width="1.02969" stroke-linecap="round"/>
<path d="M88.417 20.127C89.273 19.8635 90.458 19.4692 91.6163 19.1372C92.9124 18.7658 94.7461 18.0821 96.5028 17.5857C99.39 16.7698 104.042 16.888 105.563 17.0861C106.227 17.1726 107.375 17.3712 107.993 17.6818M134.25 29.566C135.074 29.9778 135.523 30.1435 136.68 31.3988C137.775 32.5866 138.412 34.0535 139.34 35.7101C139.979 36.8496 140.136 38.2822 140.498 39.8714C140.767 41.0547 140.861 42.6417 140.896 47.8819C140.921 51.6831 141.123 56.5801 141.719 58.1346C142.233 59.4729 142.577 60.8087 143.139 62.0977C143.942 63.9397 144.23 65.0374 144.33 66.4572C144.496 68.5983 144.234 71.64 143.639 72.8002C143.441 73.033 143.18 73.2292 142.514 73.6295" stroke="#131313" stroke-width="1.02969" stroke-linecap="round"/>
<path d="M88.4531 19.5232C88.2472 19.4299 87.0481 18.4937 86.1368 17.772C85.5544 17.3107 85.0984 16.7912 84.7697 16.2564C83.887 14.8199 83.6668 13.8918 83.4665 13.04C83.3918 12.7219 83.3251 12.2487 83.2686 11.5252C83.1991 10.6363 83.3613 9.62984 83.559 8.79158C83.6747 8.30109 83.8517 8.04212 84.1051 7.77911C84.4599 7.41083 85.0933 7.09979 85.9949 6.80821C86.5154 6.63986 87.1951 6.5353 87.9613 6.45866C88.7274 6.38202 89.5674 6.36335 90.392 6.49373C91.2167 6.6241 92.0007 6.90409 92.9365 7.33764C93.8723 7.77119 94.9363 8.34982 95.6617 8.79723C96.779 9.48633 97.3685 10.3176 97.7831 11.09C98.1331 11.7421 98.3312 12.5603 98.3987 12.9806C98.4198 13.1114 98.2582 12.605 97.9395 12.2671C97.4197 11.7159 96.2101 11.2673 94.9103 10.9186C94.1824 10.7233 93.6783 10.7 92.9184 10.6058C92.4221 10.5443 91.6919 10.549 91.0649 11.202C90.4379 11.855 89.9339 13.1803 89.5996 14.2456C89.2653 15.311 89.116 16.0763 89.0391 16.7038C88.9621 17.798 89.0181 18.4841 89.131 18.8232C89.1878 18.957 89.2438 19.013 89.3015 19.0707" stroke="#131313" stroke-width="1.02969" stroke-linecap="round"/>
<path d="M133.891 61.4727C133.467 61.9116 132.426 62.8004 132.09 63.0295C131.718 63.2826 131.146 63.8963 130.586 64.5785C130.296 64.9312 130.195 65.3963 130.119 65.8073C129.905 66.964 129.767 67.2748 129.729 67.5496C129.67 67.9741 129.675 68.7967 129.827 69.5417C129.971 70.2447 130.347 70.7714 130.606 71.2905C130.698 71.5045 130.865 71.734 131.102 71.9628C131.202 72.0556 131.263 72.101 131.371 72.1935" stroke="#131313" stroke-width="1.02969" stroke-linecap="round"/>
<path d="M72.1653 20.6141C71.3171 19.8115 69.0458 18.1094 65.9148 16.2557C64.9243 15.6693 64.1516 15.3983 61.9158 14.2441C60.0346 13.273 56.5335 11.728 53.3812 10.5062C50.2289 9.28445 47.505 8.48607 46.0079 8.05129C44.5107 7.61652 44.3229 7.56956 44.1322 7.61581C42.9194 7.90994 42.8969 11.4434 42.7304 13.2074C42.6064 14.5203 42.6122 15.6772 42.4699 18.1948C42.3464 20.3806 42.4215 24.4225 42.5155 27.6302C42.6094 30.838 42.7972 33.0923 42.941 34.5823C43.3224 37.5951 43.4177 38.4461 43.5359 39.2545C43.5601 39.4452 43.5601 39.633 43.5601 39.8266" stroke="#131313" stroke-width="1.02969" stroke-linecap="round"/>
<path d="M45.7283 12.1562C46.074 12.2221 46.4198 12.288 47.059 12.4619C47.6982 12.6357 48.6202 12.9157 49.4904 13.2245C50.3606 13.5334 51.1509 13.8627 52.2167 14.3616C53.2825 14.8606 54.5997 15.5192 55.3524 15.9161C56.2691 16.3995 56.7023 16.6953 57.7442 17.3397C58.5058 17.8107 59.6751 18.6756 60.3682 19.1494C61.5107 19.9304 61.9264 20.3372 62.2093 20.6705C62.3915 20.902 62.5426 21.12 62.6422 21.2777C62.6923 21.353 62.7417 21.4189 62.8425 21.5366" stroke="#131313" stroke-width="1.02969" stroke-linecap="round"/>
<path d="M50.2466 14.0508C49.9753 14.1107 49.4037 14.382 48.8649 14.6546C48.7081 14.734 48.4818 14.8202 47.9095 15.0087C46.4287 15.4964 45.3932 15.7897 45.2346 15.8349C45.1624 15.8554 45.121 15.9099 45.1428 15.9705C45.2021 16.1356 45.4667 16.2429 46.1048 16.4534C46.6174 16.6225 47.5364 16.8436 48.8377 17.0793C50.1391 17.315 51.8009 17.5395 52.6794 17.6852C53.558 17.8308 53.6029 17.8907 53.626 17.9664C53.6492 18.0422 53.6492 18.132 53.3647 18.575C53.0802 19.0181 52.5113 19.8115 51.9787 20.4748C51.0092 21.6822 50.3237 22.3662 50.1867 22.6087C50.088 22.7833 51.1181 22.2342 52.0622 21.9016C52.448 21.7657 52.662 21.7487 53.1966 21.606C54.5915 21.2338 55.5237 20.9017 55.6294 20.901C56.2558 20.897 55.766 22.3358 55.7964 22.7069C55.8057 22.8209 55.8413 22.97 55.8867 23.0546C55.9551 23.1823 56.4129 22.9301 57.0397 22.5447C58.0008 22.113 58.9698 21.643 59.5873 21.4098C59.9652 21.2515 60.4742 21.012 61.044 20.7198" stroke="#131313" stroke-width="1.02969" stroke-linecap="round"/>
<path d="M66.1823 21.2362C66.0698 21.1715 65.0384 21.1389 64.3098 21.1873C63.9398 21.2119 63.5227 21.317 63.2224 21.382C62.9485 21.4412 62.7273 21.6246 62.4436 21.8196C62.1703 22.0073 61.8843 22.2087 61.4462 22.5249C61.1512 22.7377 60.9429 23.0197 60.6102 23.4896C60.3261 23.8909 60.0989 24.366 59.8879 24.6425C59.5169 25.1286 58.6883 25.5021 58.2337 25.6975C57.9499 25.8195 57.6496 25.8924 57.2115 26.0382C56.8651 26.1535 55.9031 26.5875 55.3288 26.8737C55.0705 27.0024 54.7943 27.2544 54.437 27.5464C54.1324 27.7955 53.4665 28.3384 52.7288 29.0437C52.1194 29.6263 51.7122 30.0931 51.3537 30.4993C51.1298 30.753 50.9003 31.2282 50.583 31.8371C50.5255 31.9603 50.4934 32.0245 50.4688 32.0897C50.4442 32.155 50.4282 32.2192 50.4116 32.2854" stroke="#131313" stroke-width="1.02969" stroke-linecap="round"/>
<path d="M108.205 17.7239C108.161 17.5523 109.022 16.3453 111.103 14.198C112.08 13.1888 114.128 11.4524 115.895 10.0328C116.874 9.24677 117.697 8.44926 118.86 7.41462C121.173 5.35626 123.203 4.15593 123.787 3.85288C125.008 3.21898 126.237 2.37929 127.687 1.57811C128.511 1.12234 129.057 0.687185 129.403 0.535014C129.564 0.464214 129.749 0.597444 129.902 0.770426C130.619 1.58182 131.094 2.80329 131.572 3.78265C131.966 4.58993 132.909 7.8991 133.35 9.89489C133.653 11.4329 133.999 13.3357 134.196 17.0242C134.218 19.6254 134.218 24.5184 134.218 29.5595" stroke="#131313" stroke-width="1.02969" stroke-linecap="round"/>
<path d="M114.564 19.5461C114.884 18.9984 115.208 18.4653 116.226 17.1837C117.06 16.1335 118.636 14.3504 119.937 12.9654C121.239 11.5804 122.243 10.6676 122.851 10.1404C123.621 9.47351 123.967 9.2674 124.483 8.86635C126.203 7.58436 126.617 7.26283 127.078 6.9738C127.194 6.91571 127.308 6.87008 127.564 6.75391" stroke="#131313" stroke-width="1.02969" stroke-linecap="round"/>
<path d="M124.604 9.18476C124.668 9.16862 125.092 9.03897 126.268 8.86724C126.95 8.76764 128.136 8.84229 128.775 8.85844C129.415 8.87458 129.479 8.90687 129.464 8.97194C129.359 9.42038 128.78 9.52625 128.39 9.76256C128.077 9.95132 127.818 10.1628 127.243 10.4783C126.776 10.7351 125.974 11.2298 125.397 11.552C124.111 12.2696 123.79 12.4451 123.627 12.6569C123.554 12.7511 124.03 12.8213 124.988 12.9426C125.641 13.0255 126.623 13.2416 127.203 13.3656C128.328 13.6063 128.892 13.9627 129.438 14.2717C129.616 14.373 129.838 14.4515 130.074 14.6061C130.172 14.6702 130.197 14.7445 130.157 14.8101C130.053 14.9816 129.436 15.152 128.259 15.4529C127.54 15.6366 126.549 15.77 125.944 15.8531C125.15 15.9625 124.559 16.0009 123.916 16.0987C123.225 16.2037 122.439 16.3267 121.923 16.4334C121.533 16.5141 121.311 16.5885 121.213 16.6533C121.101 16.7271 121.777 17.4471 122.948 18.5053C123.976 19.4336 124.685 19.7842 124.904 19.9711C125.214 20.2352 125.484 20.3879 125.582 20.4855C125.631 20.5347 125.68 20.5831 125.608 20.6323C125.374 20.792 125.029 20.7959 124.317 20.8204C123.719 20.841 122.637 20.8287 121.692 20.748C120.747 20.6673 119.972 20.5058 119.04 20.4065C118.108 20.3072 115.288 19.6327 114.707 19.6242" stroke="#131313" stroke-width="1.02969" stroke-linecap="round"/>
<path d="M112.363 18.7383C112.906 18.9151 113.933 19.2389 114.696 19.5067C114.958 19.5989 115.3 19.8121 115.561 20.0034C115.804 20.1825 116.185 20.5593 116.75 21.0699C117.765 21.988 118.024 22.3306 118.249 22.5076C118.557 22.7502 119.016 22.9969 119.48 23.2086C119.635 23.2794 119.793 23.3109 120.212 23.4193C121.127 23.6561 121.848 23.6788 122.052 23.6923C122.285 23.7077 122.758 23.8009 123.443 23.8958C124.473 24.0383 124.679 24.1549 124.972 24.2568C125.114 24.3313 125.292 24.4133 125.495 24.4948C125.591 24.5358 125.672 24.5763 125.796 24.6587" stroke="#131313" stroke-width="1.02969" stroke-linecap="round"/>
<path d="M12.682 60.4388C12.7133 60.4425 12.7447 60.4462 12.7738 60.3382C12.8604 60.0175 11.7575 58.5731 9.83171 56.532C9.02734 55.6794 8.47982 55.2903 7.70689 54.6212C6.93397 53.952 5.92814 53.038 4.83514 51.9107C3.74213 50.7835 2.59242 49.4707 2.14321 48.7954C1.694 48.12 1.98013 48.122 2.53548 48.1711C5.09953 48.3977 6.9374 49.0902 8.13702 49.4891C8.44937 49.5929 8.7815 49.8861 9.18193 50.0307C9.33667 50.0866 9.43107 49.8393 9.37796 49.6233C9.25296 49.1151 8.82442 48.7371 8.27843 47.9544C6.17407 44.9378 5.71068 43.8105 5.58733 43.1967C5.42994 42.4136 7.38201 44.2891 8.26155 45.019C9.21263 45.8083 10.1097 46.2507 11.4454 47.2369C12.5457 48.0492 14.3591 49.6818 15.4797 50.6937C17.3615 52.6333 17.637 53.0196 17.8344 53.2511C17.9173 53.3737 17.9653 53.5066 18.0147 53.6436" stroke="#FF0404" stroke-width="1.02969" stroke-linecap="round"/>
<path d="M19.6323 51.3013C19.6456 51.1913 19.4171 50.7024 19.0945 50.258C18.9561 50.0674 18.8538 49.9595 17.4345 48.7371C16.0152 47.5148 13.2782 45.1841 11.7758 43.8734C10.2734 42.5628 10.0886 42.3427 9.89892 42.1376C9.53045 41.7392 9.2225 41.486 8.89381 41.2108C7.8807 40.3626 7.71857 40.1199 7.61099 39.9063C7.58932 39.8632 7.75812 39.8609 8.70185 39.9656C9.64557 40.0703 11.4167 40.2915 12.5829 40.4602C13.7492 40.6289 14.2568 40.7383 15.7285 41.2534C17.2002 41.7686 19.6205 42.6861 20.8957 43.1807C22.2277 43.7191 22.3337 43.7823 22.4462 43.833C22.5113 43.8656 22.5926 43.9124 22.783 44.0107" stroke="#FF0404" stroke-width="1.02969" stroke-linecap="round"/>
<path d="M14.1383 45.6566C14.1901 45.6379 14.2815 45.4996 14.7519 44.8279C15.1575 44.285 15.902 43.3316 16.3406 42.7416C16.7792 42.1516 16.8893 41.9539 17.0071 41.7131" stroke="#FF0404" stroke-width="1.02969" stroke-linecap="round"/>
<path d="M13.6694 35.4576C13.6852 35.5338 13.7919 35.6839 14.2402 36.0481C14.5755 36.3205 15.1882 36.6943 16.068 37.1996C16.9478 37.7048 18.091 38.3106 18.7274 38.6407C19.6812 39.1353 20.0787 39.3803 20.6407 39.7027C21.0365 39.9298 21.3703 39.9961 21.6173 40.0877C21.8575 40.1769 22.0429 40.3503 22.3602 40.5258C22.5674 40.6403 22.8707 40.8603 23.0892 41.0376C23.4964 41.368 24.0654 39.9781 24.4703 39.4014C24.6613 39.1294 24.9292 38.673 25.1218 38.3289C25.3145 37.9849 25.4153 37.7612 25.7557 37.0913C26.0961 36.4214 26.6731 35.312 27.0005 34.6944C27.5783 33.6048 28.1175 33.1179 28.1621 33.0045C28.1838 32.9493 28.2174 32.9047 28.1255 32.794C28.0336 32.6832 27.8186 32.5091 26.9288 32.0363C26.039 31.5635 24.4809 30.7973 23.2511 30.2406C22.0213 29.684 21.1671 29.3601 20.6925 29.1707C19.9476 28.8366 19.5899 28.6818 19.4239 28.6059C19.3513 28.5781 19.3024 28.5724 19.252 28.5664" stroke="#FF0404" stroke-width="1.02969" stroke-linecap="round"/>
<path d="M17.6316 32.4375C17.7689 32.5408 17.9981 32.7181 18.3205 32.9497C18.6465 33.1839 19.0002 33.3493 19.9258 33.9244C20.7302 34.4241 22.2449 35.2958 23.0611 35.7808C24.1207 36.4323 24.4208 36.6424 24.988 36.9224C25.1087 36.9748 25.1562 36.9927 25.2704 37.0941" stroke="#FF0404" stroke-width="1.02969" stroke-linecap="round"/>
<path d="M29.5228 30.6136C29.3667 30.3248 28.7329 29.7377 27.7424 29.007C27.1708 28.5853 26.1368 27.8892 25.4934 27.4241C24.8501 26.9591 24.6203 26.7577 23.7743 26.1719C22.9283 25.5862 21.4731 24.6223 20.559 24.043C18.8245 22.9438 18.3355 22.732 18.2795 22.6615C18.2596 22.6365 18.3485 22.6058 19.0234 22.6691C19.6983 22.7323 20.98 22.8834 23.0583 23.2315C25.1367 23.5796 27.9729 24.12 29.4878 24.4126C31.0026 24.7053 31.1102 24.7338 31.2828 24.7624C31.4555 24.7909 31.6899 24.8185 31.9259 24.8944" stroke="#FF0404" stroke-width="1.02969" stroke-linecap="round"/>
<path d="M25.7318 27.3329C25.763 27.3366 25.8822 27.002 26.0807 26.4021C26.2607 25.9585 26.4086 25.5265 26.5678 24.9868C26.6663 24.6935 26.8006 24.3607 26.9502 23.9231" stroke="#FF0404" stroke-width="1.02969" stroke-linecap="round"/>
<path d="M20.0638 66.0448C19.6921 65.3155 18.9834 63.4745 18.7341 62.7523C18.2255 61.2791 17.9733 59.9195 17.7381 58.8607C17.6765 58.5833 17.6219 58.372 17.6033 58.1395C17.5939 58.0225 17.5846 57.9071 17.7555 57.8113C18.2342 57.5429 19.3796 57.4949 20.6297 57.3542C22.0908 57.1898 23.1572 57.0159 24.4031 57.1964C24.6412 57.2308 24.6154 57.3928 24.5853 57.5509C24.4546 58.2386 24.1335 58.743 23.8799 59.4291C23.4196 60.674 22.763 62.3441 22.5643 62.8522C22.2263 63.7162 21.8295 64.5884 21.6182 65.0032C21.3286 65.5718 20.9976 66.3585 20.7588 66.9099C20.7155 67.0099 20.5958 67.0299 20.6281 67.0344C20.8236 67.0124 22.3213 67.1419 24.3797 67.3961C25.1085 67.4934 25.196 67.5266 25.2861 67.5607" stroke="#FF0404" stroke-width="1.02969" stroke-linecap="round"/>
<path d="M24.7904 57.2194C24.8063 57.0841 24.9891 56.6931 25.1072 56.3607C25.1707 56.1823 25.2129 55.9761 25.2847 55.8037C25.3174 55.7251 25.3843 55.6857 25.4431 55.7004C25.8921 55.8126 26.1742 56.4497 26.4044 56.6927C26.6271 57.0037 26.9136 57.4842 27.2486 58.0062C27.3795 58.2307 27.431 58.3735 27.5681 58.6857" stroke="#FF0404" stroke-width="1.02969" stroke-linecap="round"/>
<path d="M22.6055 51.168C22.8037 51.2255 23.6679 51.6012 24.9092 52.1871C25.5845 52.5058 26.4481 53.0503 27.591 53.6678C28.1681 54.0135 28.65 54.3121 29.4345 54.7315C29.8831 54.9575 30.4341 55.2104 31.0017 55.4709" stroke="#FF0404" stroke-width="1.02969" stroke-linecap="round"/>
<path d="M22.5656 51.0313C22.5241 50.9506 22.6092 50.6548 22.9844 50.0062C23.2255 49.5893 23.7192 48.8712 24.1114 48.3302C24.7626 47.432 25.2067 47.0391 25.4263 46.9055C25.7788 46.6912 26.2681 46.7929 26.8322 46.9483C27.2778 47.0711 27.3931 47.3463 27.5594 47.5638C27.8106 47.8923 27.9747 48.5882 28.0404 49.0123C28.0629 49.1571 28.0271 49.4505 27.9814 50.163C27.9028 51.3884 27.7368 52.2404 27.6972 52.4143C27.6759 52.5398 27.6485 52.6645 27.6096 52.8318C27.592 52.9257 27.5788 53.038 27.5652 53.1536" stroke="#FF0404" stroke-width="1.02969" stroke-linecap="round"/>
<path d="M33.7955 50.3669C33.7685 50.2748 33.6384 50.0809 33.0926 49.4894C32.7277 49.094 32.021 48.4325 31.1479 47.6946C30.2748 46.9567 29.2413 46.1772 28.6641 45.7262C27.9831 45.1939 27.5605 44.7804 27.0029 44.3125C26.4966 43.8876 26.1076 43.5342 26.0569 43.4198C26.0387 43.3787 26.1265 43.3575 26.7742 43.3956C27.4219 43.4336 28.6501 43.5278 30.5487 43.8331C32.4472 44.1384 34.979 44.6519 37.6965 45.2321" stroke="#FF0404" stroke-width="1.02969" stroke-linecap="round"/>
<path d="M31.2282 47.438C31.3443 46.7754 31.4778 46.511 31.6224 46.2025C32.0187 45.2738 32.4138 44.526 32.5529 44.3251C32.5856 44.265 32.6194 44.1931 32.6586 44.0813" stroke="#FF0404" stroke-width="1.02969" stroke-linecap="round"/>
<path d="M29.8121 39.3C30.6968 39.7331 31.6947 40.1846 32.5389 40.5521C33.0244 40.7636 33.3243 40.9143 33.5726 40.9823C33.94 41.0829 34.5762 41.3302 35.1527 41.4748C35.3727 41.53 35.4482 41.5357 35.5184 41.2721C35.727 40.4884 35.7148 39.8308 35.7468 39.397C35.8734 37.6803 36.0592 37.342 36.0337 37.237C35.9411 36.8571 35.3223 36.8841 34.7258 36.6485C34.5671 36.5857 34.4419 36.5634 33.7498 36.3046C33.0576 36.0458 31.8002 35.5561 31.1829 35.3137C30.5655 35.0714 30.6264 35.0912 30.6813 35.1168C30.7867 35.1661 30.9173 35.2278 31.1607 35.3199C31.3217 35.3808 31.5449 35.5045 32.893 36.0062C34.2412 36.508 36.7039 37.3927 38.1076 37.8833C39.5112 38.374 39.7812 38.4438 39.9445 38.4889C40.1078 38.534 40.1562 38.5523 40.2061 38.5713" stroke="#FF0404" stroke-width="1.02969" stroke-linecap="round"/>
<path d="M76.1965 105.139C76.2613 105.139 78.1464 104.406 80.583 104.439M85.6903 105.983C87.0618 106.271 87.8442 106.537 89.0775 106.97C90.7583 107.559 91.2907 108.154 91.7832 108.694C92.3682 109.336 93.0582 110.082 93.5182 110.659C93.9067 111.145 94.2699 111.689 94.5335 112.229C94.9582 113.159 95.3195 114.275 95.401 114.699C95.4501 114.929 95.5149 115.188 95.5817 115.553" stroke="#131313" stroke-width="1.02969" stroke-linecap="round"/>
<path d="M95.5548 115.582C95.6783 115.891 95.3194 116.408 95.153 116.623C94.6949 117.13 93.7356 117.422 92.6967 117.405C91.8989 117.346 90.1098 117.061 89.3354 116.385" stroke="#131313" stroke-width="1.02969" stroke-linecap="round"/>
<path d="M81.8394 110.766C82.9764 111.22 85.1406 112.268 86.091 113.119C86.6006 113.576 87.4952 114.165 88.2036 114.708C88.8139 115.176 89.5906 116.81 90.2494 118.061C90.5982 118.723 91.1066 119.333 91.3138 119.944C91.7489 121.227 91.4566 122.154 91.1066 123.101" stroke="#131313" stroke-width="1.02969" stroke-linecap="round"/>
<path d="M79.8708 119.582C80.0005 119.875 80.8469 120.788 81.7006 121.641C82.5054 122.445 83.174 122.526 83.7627 122.968C85.1385 124 86.7717 124.13 87.462 124.213C88.5667 124.346 90.2414 124.213 91.024 123.14" stroke="#131313" stroke-width="1.02969" stroke-linecap="round"/>
<path d="M80.5212 104.418C81.3038 104.274 81.5697 104.23 84.5886 104.147C86.6039 104.092 88.9674 104.26 89.5733 104.539C90.0911 104.778 90.6367 105.045 91.324 105.667C91.8751 106.165 92.3393 106.877 92.7326 107.613C93.0934 108.417 93.2898 109.004 93.4209 109.66C93.4538 109.824 93.4862 109.986 93.5196 110.35" stroke="#131313" stroke-width="1.02969" stroke-linecap="round"/>
<path d="M76.1396 105.148C76.0099 105.279 75.4228 105.474 74.8326 105.753C74.1486 106.075 73.7201 106.651 73.2935 107.355C72.9801 107.873 72.5752 108.776 72.3106 109.483C72.0107 110.285 71.8525 111.494 71.8029 112.705C71.7454 114.11 71.7857 116.012 72.1284 116.618C72.4951 117.266 72.9955 117.715 73.5026 118.011C74.085 118.35 74.6313 118.567 75.5303 118.975C76.3665 119.355 76.8897 119.614 77.4956 119.778C77.7735 119.844 78.069 119.91 78.4765 119.959C78.722 119.975 79.046 119.975 79.3799 119.975" stroke="#131313" stroke-width="1.02969" stroke-linecap="round"/>
<path d="M90.5415 124.006C90.8817 124.006 91.3663 124.035 91.609 124.085C91.6656 124.096 91.7227 124.092 91.7518 123.993C91.7808 123.697 91.7385 123.451 91.6533 123.345C91.6103 123.281 91.568 123.196 91.4389 123.023" stroke="#131313" stroke-width="1.02969" stroke-linecap="round"/>
<path d="M95.4561 116.568C95.7543 116.625 96.1236 116.682 96.5091 116.591C96.6265 116.563 96.5672 116.273 96.546 116.143C96.3826 115.885 96.2257 115.743 96.1475 115.629C96.1116 115.572 96.0834 115.515 96.0543 115.457" stroke="#131313" stroke-width="1.02969" stroke-linecap="round"/>
<path d="M79.3034 120.258C77.993 121.622 77.6414 123.077 77.6975 124.922C77.7632 127.084 82.1085 130.788 84.0222 129.277" stroke="#131313" stroke-width="1.02969" stroke-linecap="round"/>
<path d="M86.3877 124.793C84.6977 126.553 83.7345 127.717 84.0651 130.282C84.2177 131.467 85.1921 132.008 85.577 132.353C85.9487 132.687 86.5962 132.885 87.2477 133.057C87.7623 133.193 88.3474 133.283 89.1831 133.27C90.4808 133.251 91.345 132.437 91.9045 131.879C92.4888 131.4 92.913 131.083 93.3771 130.342C93.4973 130.102 93.6023 129.839 93.7106 129.489" stroke="#131313" stroke-width="1.02969" stroke-linecap="round"/>
<path d="M93.7012 129.781C93.7012 132.397 94.6268 133.19 95.1708 133.825C98.7251 136.195 102.016 134.134 103.328 130.755C105.209 125.913 104.983 118.569 101.8 114.134C101.495 113.71 100.344 111.971 99.3326 111.19C98.9195 110.871 98.0175 110.347 97.0633 110.102C96.3421 109.918 95.4459 109.971 95.0224 110.077L93.8041 110.413" stroke="#131313" stroke-width="1.02969" stroke-linecap="round"/>
<path d="M79.1555 127.859C79.0803 128.028 79.0423 128.517 78.9954 128.877C78.9758 129.027 78.967 129.179 78.9854 129.283C79.1159 129.294 79.455 129.162 79.8603 128.965C80.0228 128.879 80.0975 128.823 80.2877 128.708" stroke="#131313" stroke-width="1.02969" stroke-linecap="round"/>
<path d="M85.3821 132.559C85.3821 132.596 85.3821 133.082 85.4475 133.78C85.4699 134.02 85.6436 133.993 85.7857 133.965C86.0772 133.899 86.3059 133.823 86.4658 133.729C86.551 133.673 86.6444 133.598 86.8538 133.464" stroke="#131313" stroke-width="1.02969" stroke-linecap="round"/>
<path d="M86.0047 132.953C86.0047 133.065 85.986 133.216 85.939 133.414C85.9107 133.518 85.8734 133.63 85.8915 133.697C85.9096 133.764 85.9843 133.783 86.0613 133.802" stroke="#131313" stroke-width="1.02969" stroke-linecap="round"/>
<path d="M96.59 134.766C96.5334 135.538 96.5521 135.916 96.6177 136.038C96.6494 136.098 96.7394 136.105 96.806 136.087C97.1163 136.001 97.4187 135.729 97.721 135.512C97.7937 135.459 97.8716 135.427 97.8353 135.389C97.7991 135.351 97.6497 135.314 97.4793 135.294C97.3089 135.275 97.1221 135.275 96.9297 135.275" stroke="#131313" stroke-width="1.02969" stroke-linecap="round"/>
<path d="M151.63 101.789C150.427 102.047 149.163 102.523 148.015 103.087C147.206 103.484 146.384 103.739 141.288 105.998C136.645 108.056 127.729 111.736 122.998 113.769C118.268 115.801 117.967 116.016 117.619 116.212C117.271 116.409 116.884 116.581 116.486 116.758" stroke="#131313" stroke-width="0.617813" stroke-linecap="round"/>
<path d="M151.76 101.789C151.846 101.789 153.307 102.562 157.044 104.571C159.359 105.816 162.542 107.482 164.395 108.517C167.334 110.378 169.402 111.757 170.977 112.591C171.196 112.678 171.367 112.764 171.805 113.113" stroke="#131313" stroke-width="0.617813" stroke-linecap="round"/>
<path d="M116.486 116.887C116.572 117.232 118.55 119.042 120.385 120.268C120.775 120.528 121.291 120.914 122.974 121.929C124.657 122.944 127.492 124.577 129.082 125.525C131.452 127.038 132.834 127.901 134.396 129.051C135.172 129.548 136.546 130.364 137.963 131.205" stroke="#131313" stroke-width="0.617813" stroke-linecap="round"/>
<path d="M137.711 131.05C138.034 130.907 138.357 130.763 145.713 127.085C153.07 123.408 164.52 116.883 172 113.098" stroke="#131313" stroke-width="0.617813" stroke-linecap="round"/>
<path d="M116.547 116.925C116.547 116.889 116.547 116.852 116.528 116.906C116.51 116.96 116.474 117.106 116.455 118.546C116.436 119.986 116.436 122.716 116.436 125.529" stroke="#131313" stroke-width="0.617813" stroke-linecap="round"/>
<path d="M137.836 130.711L137.836 137.972" stroke="#131313" stroke-width="0.617813" stroke-linecap="round"/>
<path d="M116.988 125.75C117.244 125.823 117.831 126.335 118.62 126.796C120.317 127.787 121.284 128.395 123.322 129.55C125.855 130.986 126.618 131.446 128.379 132.548C129.261 133.099 130.948 134.198 133.024 135.54C134.499 136.493 135.257 136.889 135.959 137.312C136.252 137.478 136.621 137.662 137.006 137.882C137.173 137.993 137.283 138.102 137.726 138.435" stroke="#131313" stroke-width="0.617813" stroke-linecap="round"/>
<path d="M172 113.508C172 113.558 172 114.165 171.987 115.158C171.973 115.571 171.946 115.798 171.932 116.382C171.918 116.966 171.918 117.9 171.918 118.862" stroke="#131313" stroke-width="0.617813" stroke-linecap="round"/>
<path d="M137.615 137.771C137.761 137.771 138.164 137.589 139.006 137.077C139.528 136.759 140.212 136.273 146.138 133.154C152.064 130.034 166.063 121.838 171.856 118.82" stroke="#131313" stroke-width="0.617813" stroke-linecap="round"/>
<path d="M123.25 114.086C123.282 114.086 123.363 114.086 123.98 114.374C124.544 114.637 125.572 115.237 126.163 115.582C126.881 116 127.43 116.409 128.197 116.877C128.916 117.317 129.275 117.445 130.169 118.017C130.37 118.146 130.47 118.172 131.599 118.885C132.728 119.597 134.887 120.988 136.047 121.721C137.29 122.506 137.786 122.727 138.431 123.098C138.845 123.335 139.481 123.76 140.328 124.188C140.736 124.394 141.419 124.777 142.419 125.406C143.089 125.828 143.475 126.008 143.765 126.168C144.693 126.684 145.268 127.105 145.584 127.348C145.593 127.736 145.577 127.978 145.552 129.011C145.544 129.964 145.544 131.787 145.544 133.665" stroke="#131313" stroke-width="0.617813" stroke-linecap="round"/>
<path d="M130.666 110.598C131.085 110.888 131.503 111.193 132.363 111.756C132.948 112.14 133.91 112.607 134.468 112.878C135.156 113.213 136.038 113.599 137.168 114.196C137.653 114.453 137.837 114.539 138.143 114.708C138.348 114.821 138.672 114.957 140.252 115.846C141.832 116.736 144.663 118.367 146.201 119.24C147.888 120.196 148.16 120.306 148.441 120.467C149.221 120.913 149.693 121.129 150.219 121.42C151.185 121.954 151.891 122.374 152.183 122.576C152.46 122.768 152.619 123.163 152.676 123.496C152.744 123.888 152.749 124.408 152.805 125.269C152.96 127.619 152.862 127.882 152.902 128.221C152.911 128.367 152.927 128.496 152.951 128.641C152.959 128.722 152.959 128.818 152.959 128.917" stroke="#131313" stroke-width="0.617813" stroke-linecap="round"/>
<path d="M137.935 107.641C138.16 107.898 138.709 108.221 139.073 108.456C139.288 108.594 139.87 108.834 140.732 109.301C141.595 109.769 142.118 110.112 142.84 110.488C143.453 110.809 144.553 111.425 145.241 111.778C146.153 112.245 146.688 112.437 147.148 112.671C147.424 112.811 148.043 113.146 148.954 113.695C149.606 114.087 150.05 114.279 150.82 114.697C151.438 115.032 152.549 115.562 153.19 115.898C154.249 116.454 154.541 116.734 155.58 117.395C156.301 117.854 156.72 118.187 157.118 118.431C157.371 118.587 157.643 118.754 158.352 119.254C158.572 119.409 158.819 119.528 158.942 119.626C159.245 119.866 159.017 121.025 159.057 121.789C159.124 123.05 159.114 123.822 159.162 124.4C159.195 124.569 159.211 124.78 159.219 125.005C159.227 125.103 159.243 125.167 159.26 125.379" stroke="#131313" stroke-width="0.617813" stroke-linecap="round"/>
<path d="M145.701 104.488C145.797 104.601 146.248 104.955 147.255 105.584C147.678 105.848 148.306 106.225 149.339 106.775C150.372 107.324 151.795 108.028 152.657 108.487C153.798 109.094 154.485 109.575 155.228 109.986C155.665 110.229 156.182 110.544 156.82 110.867C157.14 111.029 157.475 111.32 157.967 111.635C158.27 111.828 158.879 112.207 159.814 112.86C160.261 113.172 160.685 113.401 161.243 113.788C162.512 114.67 163.277 115.295 163.502 115.448C164.149 115.887 164.487 116.134 164.787 116.321C164.904 116.394 165.006 116.475 165.103 116.723C165.542 117.847 165.184 118.186 165.224 118.645C165.249 119.722 165.281 120.299 165.321 120.867C165.329 121.076 165.329 121.428 165.329 121.79" stroke="#131313" stroke-width="0.617813" stroke-linecap="round"/>
<path d="M140.392 129.389C140.263 129.277 139.815 129.091 139.32 128.737C138.42 128.093 137.778 127.615 137.144 127.176C136.602 126.801 135.171 126.087 134.424 125.569C134.184 125.403 133.985 125.242 133.946 125.12C133.805 124.67 134.581 124.793 134.739 124.728C135.068 124.591 135.365 125.276 135.627 125.586C135.874 125.877 136.112 126.193 136.458 126.436C136.974 126.798 137.289 127.034 137.644 127.267C138.009 127.507 138.446 127.78 139.008 128.173C139.324 128.394 139.644 128.473 140.269 128.51C140.674 128.535 140.915 128.753 140.981 128.782C141.359 128.944 139.873 128.14 139.246 127.737C138.614 127.331 138.339 127.073 137.909 126.681C137.625 126.422 137.201 125.917 136.788 125.56C136.377 125.204 136.004 124.869 135.704 124.634C135.347 124.356 135.05 124.419 135.095 124.446C136.091 125.047 136.915 125.315 137.326 125.557C138.056 125.987 138.429 126.249 138.756 126.427C139.078 126.602 139.363 126.809 139.616 127.071C139.845 127.308 140.148 127.445 140.401 127.641C140.669 127.85 141.026 128.116 141.326 128.388C141.39 128.446 141.419 128.528 141.346 128.529C140.743 128.538 140.376 128.082 139.629 127.597C139.175 127.302 138.88 127.036 138.6 126.858C138.245 126.633 137.89 126.233 137.256 125.58C136.858 125.17 136.545 124.925 136.246 124.719C135.937 124.506 135.648 124.345 135.321 124.242C135.223 124.21 135.089 124.232 134.994 124.269C134.649 124.404 134.545 124.717 134.461 124.736C134.194 124.797 134.842 124.345 134.936 124.288C135.085 124.199 134.545 124.437 134.479 124.484C134.256 124.643 135.084 124.363 135.533 124.604C135.896 124.8 136.187 125.165 136.505 125.418C136.8 125.652 137.028 125.912 137.253 126.137C137.487 126.371 137.701 126.641 137.972 126.866C138.223 127.074 138.486 127.258 138.849 127.556C139.35 127.967 139.7 128.137 139.999 128.314C140.291 128.486 140.596 128.622 140.896 128.762C141.037 128.829 141.195 128.847 141.307 128.838C141.354 128.834 141.345 128.736 141.308 128.68C141.118 128.389 140.323 128.065 139.712 127.708C139.239 127.432 139.048 127.185 139.001 127.063C138.983 127.019 139.083 126.998 139.186 127.034C139.692 127.215 140.054 127.575 140.354 127.819C140.668 128.073 140.989 128.267 141.279 128.445C141.414 128.528 141.531 128.678 141.588 128.735C141.96 129.107 140.768 128.026 140.45 127.839C140.168 127.673 139.815 127.484 139.459 127.167C139.38 127.096 139.329 127.036 139.337 126.989C139.345 126.942 139.419 126.905 139.504 126.913C139.907 126.955 140.204 127.314 140.466 127.529C140.748 127.76 141.045 127.893 141.298 128.09C141.363 128.137 141.437 128.174 141.512 128.211C141.587 128.249 141.661 128.286 141.85 128.436" stroke="#131313" stroke-width="0.617813" stroke-linecap="round"/>
<path d="M148.108 125.752C147.979 125.641 147.531 125.454 147.036 125.1C146.136 124.456 145.494 123.979 144.86 123.54C144.318 123.165 142.886 122.451 142.14 121.932C141.9 121.766 141.7 121.605 141.662 121.484C141.52 121.033 142.297 121.156 142.455 121.091C142.784 120.955 143.08 121.639 143.343 121.949C143.589 122.24 143.828 122.556 144.174 122.799C144.69 123.162 145.005 123.397 145.36 123.631C145.725 123.87 146.162 124.143 146.724 124.536C147.04 124.758 147.359 124.836 147.984 124.874C148.39 124.898 148.631 125.116 148.697 125.145C149.075 125.307 147.589 124.503 146.961 124.1C146.33 123.694 146.055 123.436 145.625 123.044C145.341 122.785 144.917 122.28 144.504 121.923C144.093 121.567 143.719 121.232 143.42 120.998C143.063 120.719 142.765 120.783 142.81 120.81C143.807 121.41 144.631 121.678 145.042 121.921C145.772 122.35 146.145 122.612 146.472 122.79C146.794 122.965 147.079 123.173 147.332 123.434C147.561 123.671 147.864 123.808 148.117 124.004C148.385 124.213 148.742 124.48 149.042 124.752C149.106 124.81 149.135 124.891 149.062 124.892C148.459 124.901 148.091 124.445 147.345 123.96C146.891 123.666 146.596 123.399 146.316 123.221C145.961 122.996 145.606 122.596 144.972 121.943C144.574 121.533 144.261 121.288 143.962 121.082C143.653 120.869 143.364 120.709 143.037 120.605C142.938 120.574 142.805 120.595 142.71 120.632C142.365 120.767 142.261 121.081 142.177 121.1C141.91 121.16 142.558 120.708 142.652 120.652C142.801 120.562 142.261 120.8 142.195 120.847C141.972 121.006 142.8 120.726 143.249 120.968C143.612 121.163 143.903 121.528 144.221 121.781C144.516 122.016 144.744 122.276 144.969 122.5C145.202 122.734 145.417 123.004 145.688 123.229C145.939 123.437 146.201 123.621 146.565 123.92C147.065 124.331 147.415 124.5 147.715 124.677C148.007 124.85 148.312 124.985 148.612 125.126C148.753 125.192 148.911 125.21 149.023 125.201C149.07 125.197 149.061 125.1 149.024 125.043C148.834 124.752 148.039 124.428 147.428 124.072C146.955 123.795 146.764 123.548 146.716 123.427C146.699 123.382 146.799 123.361 146.902 123.398C147.407 123.578 147.77 123.938 148.07 124.182C148.384 124.437 148.705 124.63 148.995 124.808C149.13 124.891 149.247 125.041 149.304 125.098C149.676 125.47 148.484 124.389 148.165 124.202C147.884 124.037 147.531 123.847 147.175 123.53C147.096 123.459 147.044 123.399 147.053 123.352C147.061 123.305 147.135 123.268 147.22 123.277C147.623 123.318 147.92 123.677 148.182 123.892C148.464 124.124 148.761 124.257 149.014 124.453C149.079 124.5 149.153 124.537 149.228 124.574C149.303 124.612 149.377 124.649 149.566 124.799" stroke="#131313" stroke-width="0.617813" stroke-linecap="round"/>
<path d="M155.069 121.799C154.939 121.687 154.492 121.501 153.997 121.147C153.097 120.503 152.455 120.025 151.82 119.587C151.278 119.212 149.847 118.497 149.101 117.979C148.861 117.813 148.661 117.652 148.623 117.531C148.481 117.08 149.257 117.203 149.416 117.138C149.745 117.001 150.041 117.686 150.304 117.996C150.55 118.287 150.789 118.603 151.134 118.846C151.65 119.209 151.966 119.444 152.321 119.677C152.685 119.917 153.123 120.19 153.684 120.583C154.001 120.805 154.32 120.883 154.945 120.921C155.35 120.945 155.591 121.163 155.657 121.192C156.035 121.354 154.55 120.55 153.922 120.147C153.29 119.741 153.015 119.483 152.586 119.091C152.301 118.832 151.877 118.327 151.464 117.97C151.053 117.614 150.68 117.279 150.38 117.045C150.024 116.766 149.726 116.829 149.771 116.857C150.768 117.457 151.591 117.725 152.003 117.968C152.732 118.397 153.106 118.659 153.433 118.837C153.754 119.012 154.04 119.219 154.293 119.481C154.522 119.718 154.825 119.855 155.077 120.051C155.346 120.26 155.702 120.527 156.002 120.798C156.066 120.857 156.096 120.938 156.022 120.939C155.42 120.948 155.052 120.492 154.306 120.007C153.852 119.713 153.557 119.446 153.276 119.268C152.922 119.043 152.567 118.643 151.933 117.99C151.535 117.58 151.222 117.335 150.922 117.129C150.614 116.916 150.325 116.755 149.998 116.652C149.899 116.62 149.765 116.642 149.671 116.679C149.326 116.814 149.222 117.128 149.137 117.147C148.87 117.207 149.519 116.755 149.613 116.698C149.762 116.609 149.222 116.847 149.156 116.894C148.933 117.053 149.761 116.773 150.21 117.015C150.572 117.21 150.864 117.575 151.181 117.828C151.477 118.063 151.705 118.323 151.929 118.547C152.163 118.781 152.377 119.051 152.648 119.276C152.899 119.484 153.162 119.668 153.526 119.967C154.026 120.378 154.376 120.547 154.675 120.724C154.967 120.897 155.273 121.032 155.572 121.173C155.714 121.239 155.872 121.257 155.984 121.248C156.031 121.244 156.022 121.147 155.985 121.09C155.795 120.799 154.999 120.475 154.389 120.119C153.916 119.842 153.724 119.595 153.677 119.474C153.66 119.429 153.76 119.408 153.862 119.445C154.368 119.625 154.73 119.985 155.031 120.229C155.345 120.484 155.665 120.677 155.955 120.855C156.091 120.938 156.208 121.088 156.265 121.145C156.637 121.517 155.445 120.436 155.126 120.249C154.844 120.083 154.492 119.894 154.136 119.577C154.056 119.506 154.005 119.446 154.014 119.399C154.022 119.352 154.096 119.315 154.18 119.323C154.583 119.365 154.881 119.724 155.143 119.939C155.424 120.17 155.721 120.304 155.974 120.5C156.04 120.547 156.114 120.584 156.189 120.621C156.264 120.659 156.338 120.696 156.526 120.846" stroke="#131313" stroke-width="0.617813" stroke-linecap="round"/>
<path d="M161.206 118.299C161.076 118.187 160.628 118.001 160.134 117.647C159.234 117.003 158.591 116.525 157.957 116.087C157.415 115.712 155.984 114.997 155.238 114.479C154.998 114.313 154.798 114.152 154.76 114.031C154.618 113.58 155.394 113.703 155.553 113.638C155.881 113.501 156.178 114.186 156.44 114.496C156.687 114.787 156.926 115.103 157.271 115.346C157.787 115.709 158.103 115.944 158.458 116.177C158.822 116.417 159.26 116.69 159.821 117.083C160.138 117.305 160.457 117.383 161.082 117.421C161.487 117.445 161.728 117.663 161.794 117.692C162.172 117.854 160.687 117.05 160.059 116.647C159.427 116.241 159.152 115.983 158.722 115.591C158.438 115.332 158.014 114.827 157.601 114.47C157.19 114.114 156.817 113.779 156.517 113.545C156.161 113.266 155.863 113.329 155.908 113.357C156.905 113.957 157.728 114.225 158.14 114.468C158.869 114.897 159.243 115.159 159.57 115.337C159.891 115.512 160.177 115.719 160.429 115.981C160.658 116.218 160.961 116.355 161.214 116.551C161.483 116.76 161.839 117.027 162.139 117.298C162.203 117.357 162.233 117.438 162.159 117.439C161.556 117.448 161.189 116.992 160.443 116.507C159.989 116.213 159.693 115.946 159.413 115.768C159.058 115.543 158.704 115.143 158.069 114.49C157.672 114.08 157.358 113.835 157.059 113.629C156.751 113.416 156.461 113.255 156.134 113.152C156.036 113.12 155.902 113.142 155.808 113.179C155.463 113.314 155.358 113.628 155.274 113.647C155.007 113.707 155.655 113.255 155.75 113.198C155.899 113.109 155.358 113.347 155.292 113.394C155.069 113.553 155.898 113.273 156.346 113.515C156.709 113.71 157.001 114.075 157.318 114.328C157.613 114.563 157.841 114.823 158.066 115.047C158.3 115.281 158.514 115.551 158.785 115.776C159.036 115.984 159.299 116.168 159.663 116.467C160.163 116.878 160.513 117.047 160.812 117.224C161.104 117.397 161.41 117.532 161.709 117.673C161.851 117.739 162.008 117.757 162.12 117.748C162.167 117.744 162.159 117.647 162.122 117.59C161.932 117.299 161.136 116.975 160.525 116.619C160.052 116.342 159.861 116.095 159.814 115.974C159.797 115.929 159.896 115.908 159.999 115.945C160.505 116.125 160.867 116.485 161.167 116.729C161.481 116.984 161.802 117.177 162.092 117.355C162.227 117.438 162.345 117.588 162.401 117.645C162.773 118.017 161.581 116.936 161.263 116.749C160.981 116.583 160.628 116.394 160.273 116.077C160.193 116.006 160.142 115.946 160.15 115.899C160.159 115.852 160.233 115.815 160.317 115.823C160.72 115.865 161.017 116.224 161.279 116.439C161.561 116.67 161.858 116.804 162.111 117C162.177 117.047 162.251 117.084 162.326 117.121C162.401 117.159 162.475 117.196 162.663 117.346" stroke="#131313" stroke-width="0.617813" stroke-linecap="round"/>
<path d="M168.084 115.088C167.955 114.977 167.507 114.79 167.012 114.436C166.112 113.792 165.47 113.315 164.836 112.876C164.294 112.501 162.863 111.787 162.116 111.268C161.876 111.102 161.676 110.941 161.638 110.82C161.496 110.369 162.273 110.492 162.431 110.427C162.76 110.291 163.056 110.975 163.319 111.285C163.566 111.576 163.804 111.892 164.15 112.135C164.666 112.498 164.981 112.733 165.336 112.966C165.701 113.206 166.138 113.479 166.7 113.872C167.016 114.094 167.335 114.172 167.96 114.21C168.366 114.234 168.607 114.452 168.673 114.481C169.051 114.643 167.565 113.839 166.938 113.436C166.306 113.03 166.031 112.772 165.601 112.38C165.317 112.121 164.893 111.616 164.48 111.259C164.069 110.903 163.695 110.568 163.396 110.334C163.039 110.055 162.741 110.118 162.787 110.146C163.783 110.746 164.607 111.014 165.018 111.257C165.748 111.686 166.121 111.948 166.448 112.126C166.77 112.301 167.055 112.509 167.308 112.77C167.537 113.007 167.84 113.144 168.093 113.34C168.361 113.549 168.718 113.816 169.018 114.088C169.082 114.146 169.111 114.227 169.038 114.228C168.435 114.237 168.068 113.781 167.321 113.296C166.867 113.002 166.572 112.735 166.292 112.557C165.937 112.332 165.582 111.932 164.948 111.279C164.55 110.869 164.237 110.624 163.938 110.418C163.629 110.205 163.34 110.044 163.013 109.941C162.915 109.91 162.781 109.931 162.686 109.968C162.341 110.103 162.237 110.417 162.153 110.436C161.886 110.496 162.534 110.044 162.628 109.988C162.777 109.898 162.237 110.136 162.171 110.183C161.948 110.342 162.776 110.062 163.225 110.304C163.588 110.499 163.879 110.864 164.197 111.117C164.492 111.352 164.72 111.612 164.945 111.836C165.178 112.07 165.393 112.34 165.664 112.565C165.915 112.773 166.177 112.957 166.541 113.256C167.042 113.667 167.392 113.836 167.691 114.013C167.983 114.186 168.288 114.321 168.588 114.462C168.729 114.528 168.887 114.546 168.999 114.537C169.046 114.533 169.037 114.436 169 114.379C168.81 114.088 168.015 113.764 167.404 113.408C166.931 113.131 166.74 112.884 166.693 112.763C166.675 112.718 166.775 112.697 166.878 112.734C167.384 112.914 167.746 113.274 168.046 113.518C168.36 113.773 168.681 113.966 168.971 114.144C169.106 114.227 169.223 114.377 169.28 114.434C169.652 114.806 168.46 113.725 168.142 113.538C167.86 113.373 167.507 113.183 167.151 112.866C167.072 112.795 167.02 112.735 167.029 112.688C167.037 112.641 167.111 112.604 167.196 112.612C167.599 112.654 167.896 113.013 168.158 113.228C168.44 113.459 168.737 113.593 168.99 113.789C169.055 113.836 169.129 113.873 169.204 113.91C169.279 113.948 169.353 113.985 169.542 114.135" stroke="#131313" stroke-width="0.617813" stroke-linecap="round"/>
<path d="M140.559 129.38C140.559 129.765 140.618 130.482 140.774 130.707C140.82 130.773 140.944 130.781 141.042 130.774C141.439 130.746 141.647 130.469 141.766 130.424C141.878 130.382 141.945 129.878 141.938 129.117C141.936 128.887 141.916 128.976 141.908 129.081C141.873 129.573 141.796 129.931 141.745 130.036C141.719 130.088 141.648 130.11 141.559 130.096C141.342 130.061 141.185 129.918 141.141 129.902C141.184 130.034 141.245 130.229 141.274 130.319C141.289 130.321 141.304 130.232 141.319 130.141" stroke="#131313" stroke-width="0.617813" stroke-linecap="round"/>
<path d="M148.163 125.754C148.163 126.108 148.163 126.571 148.192 126.988C148.202 127.128 148.281 127.111 148.341 127.088C148.604 126.99 148.877 126.917 149.138 126.783C149.262 126.719 149.37 126.649 149.444 126.552C149.696 126.225 149.475 125.605 149.408 125.56C149.047 125.316 149.147 126.557 149.087 126.767C149.015 127.025 148.849 126.217 148.841 125.956C148.831 125.644 149.309 125.546 149.437 125.3C149.461 125.252 149.533 125.262 149.586 125.284C149.758 125.47 149.862 125.678 149.936 125.797C149.967 125.857 149.981 125.916 149.907 126.022" stroke="#131313" stroke-width="0.617813" stroke-linecap="round"/>
<path d="M139.977 130.273C140.183 130.451 140.349 130.571 140.468 130.631C140.528 130.661 140.587 130.69 140.647 130.706C140.707 130.721 140.766 130.721 140.827 130.721" stroke="#131313" stroke-width="0.617813" stroke-linecap="round"/>
<path d="M147.492 126.648C147.492 126.663 147.492 126.678 147.558 126.715C147.625 126.752 147.757 126.811 148.028 126.962" stroke="#131313" stroke-width="0.617813" stroke-linecap="round"/>
<path d="M155.589 122.076C155.67 122.777 155.696 122.992 155.757 123.208C155.773 123.264 155.804 123.316 155.858 123.277C156.254 122.988 156.249 122.429 156.31 121.95C156.333 121.77 156.317 121.501 156.324 121.417C156.351 121.08 156.439 122.424 156.492 122.663C156.514 122.759 156.6 122.121 156.607 121.547C156.608 121.439 156.641 122.017 156.614 122.772C156.605 123.022 156.534 122.994 156.467 122.98C156.399 122.966 156.319 122.966 156.264 123C156.154 123.067 156.102 123.195 155.974 123.236C155.814 123.287 155.657 123.209 155.543 123.115C155.48 123.064 155.415 122.995 155.414 122.947C155.406 122.584 156.249 122.872 156.343 122.939C156.39 122.972 156.411 123.033 156.398 123.06C156.385 123.088 156.332 123.088 156.278 123.068C156.17 123.007 156.021 122.899 155.853 122.792C155.778 122.751 155.725 122.737 155.629 122.723" stroke="#131313" stroke-width="0.617813" stroke-linecap="round"/>
<path d="M162.913 117.617C162.913 118.247 162.939 119.14 162.913 119.343C162.874 119.643 162.361 119.128 161.963 119.088C161.743 119.065 161.807 118.724 161.78 118.649C161.718 118.479 161.847 119.1 161.901 119.316C161.928 119.423 161.941 119.532 161.961 119.633C161.972 119.683 162.022 119.72 162.076 119.741C162.19 119.785 162.319 119.775 162.373 119.795C162.379 119.798 162.32 119.802 162.286 119.836C162.252 119.869 162.238 119.936 162.205 119.97C162.171 120.004 162.118 120.004 162.064 119.978C161.78 119.838 161.551 119.614 161.302 119.513C161.237 119.486 161.187 119.439 161.193 119.425C161.274 119.233 161.697 119.465 161.948 119.405C161.955 118.953 161.834 118.697 161.753 118.602C161.739 118.601 161.779 118.694 161.82 118.791" stroke="#131313" stroke-width="0.617813" stroke-linecap="round"/>
<path d="M162.387 119.843C162.4 119.83 162.413 119.817 162.447 119.79C162.481 119.763 162.534 119.723 162.582 119.675C162.629 119.628 162.669 119.575 162.751 119.52" stroke="#131313" stroke-width="0.617813" stroke-linecap="round"/>
<path d="M169.63 114.418C169.63 115.059 169.576 116.293 169.442 116.346C169.072 116.494 168.849 116.643 168.626 116.731C168.377 116.83 168.417 116.118 168.261 115.916C168.186 115.818 168.147 115.686 168.133 115.579C168.127 115.536 168.199 115.524 168.253 115.531C168.478 115.558 168.591 115.739 168.705 115.747C169.01 115.765 168.955 115.322 168.982 115.194C168.995 115.133 169.009 115.08 169.016 115.199C169.06 115.955 168.848 116.143 168.707 116.393C168.643 116.506 168.565 116.589 168.457 116.636C168.404 116.66 168.35 116.67 168.295 116.664C168.079 116.55 167.864 116.334 167.655 116.158C167.607 116.118 167.567 116.078 167.485 116.036" stroke="#131313" stroke-width="0.617813" stroke-linecap="round"/>
<path d="M73.6575 144.318C73.7036 144.271 73.7274 144.017 73.7043 143.609C73.6874 143.31 73.4952 143.083 73.2399 142.862C72.6428 142.345 71.7747 142.499 71.0369 142.569C70.5516 142.615 70.0459 142.801 69.5916 142.988C68.6536 143.373 67.6498 144.334 67.0263 145.247C66.5655 145.922 66.5713 146.667 66.5584 147.996C66.5558 148.259 66.6623 148.349 66.8249 148.431C67.8208 148.934 69.3619 148.377 70.3655 147.853C71.5887 147.214 72.5119 146.139 73.0822 145.453C73.5801 144.854 73.7267 144.25 73.8432 143.889C74.0083 143.377 73.0756 146.967 73.0165 147.731C72.935 148.163 72.842 148.559 72.7605 148.792C72.7252 148.909 72.7021 149.024 72.6783 149.283" stroke="#131313" stroke-width="0.617813" stroke-linecap="round"/>
<path d="M74.6447 147.066C74.5856 147.066 74.9983 147.051 75.9357 146.984C76.9686 146.911 77.805 146.59 78.3782 146.225C79.329 145.621 79.4783 145.321 79.7393 144.956C79.8923 144.742 79.9416 144.53 79.964 144.373C79.9757 144.292 79.9716 144.202 79.7278 144.157C78.457 143.919 78.1676 144.245 77.6537 144.513C76.9603 144.874 76.7056 145.154 76.3842 145.475C76.036 145.823 75.796 146.346 75.5183 146.855C75.3744 147.119 75.3314 147.526 75.279 147.9C75.246 148.135 75.3157 148.422 75.405 148.668C75.5259 149.001 76.2078 149.169 76.7913 149.266C77.0605 149.311 78.0087 149.334 79.3283 149.297C79.8355 149.274 80.0128 149.245 80.1336 149.229C80.2545 149.214 80.3136 149.214 80.3745 149.214" stroke="#131313" stroke-width="0.617813" stroke-linecap="round"/>
<path d="M85.97 145.185C85.97 145.126 85.9405 145.037 85.844 144.918C85.5707 144.58 85.0765 144.56 84.5929 144.477C83.245 144.246 82.8384 144.618 82.5243 144.707C82.4468 144.73 82.3755 144.782 82.3301 144.834C82.247 144.93 82.2399 145.065 82.2175 145.236C82.1818 145.508 82.3133 145.796 82.529 146.019C82.7383 146.236 83.2506 146.452 83.9431 146.713C84.9228 147.082 85.3568 147.184 85.7894 147.333C86.0567 147.425 86.2377 147.602 86.417 147.907C86.6131 148.241 86.6415 148.616 86.5972 148.817C86.5204 149.166 85.987 149.184 85.6211 149.296C84.9244 149.509 84.0067 149.438 83.4424 149.349C83.1239 149.186 82.8079 149.035 82.5772 148.968C82.4646 148.945 82.3612 148.945 82.2546 148.945" stroke="#131313" stroke-width="0.617813" stroke-linecap="round"/>
<path d="M89.9988 141.336C89.7007 141.887 89.493 142.598 89.2985 143.569C89.2066 144.028 89.0472 144.841 88.9487 145.592C88.7639 147.001 88.8345 147.914 88.9165 148.279C89.0015 148.658 89.399 149.152 89.9894 149.579C90.2798 149.789 90.8753 149.796 91.7632 149.626C92.0396 149.515 92.3794 149.323 92.5987 149.165C92.8181 149.007 92.9067 148.888 92.998 148.767" stroke="#131313" stroke-width="0.617813" stroke-linecap="round"/>
<path d="M88.0293 145.631C88.0884 145.617 88.1475 145.602 88.8353 145.602C89.5231 145.601 90.8378 145.616 92.1923 145.631" stroke="#131313" stroke-width="0.617813" stroke-linecap="round"/>
<path d="M101.101 147.109C101.308 147.198 101.757 147.139 102.151 146.916C102.612 146.656 102.831 146.082 102.943 145.657C102.996 145.458 102.981 145.277 102.878 145.186C102.635 144.972 102.296 145.124 102.103 145.235C101.388 145.648 100.97 146.537 100.714 147.137C100.636 147.32 100.654 147.703 100.713 148.209C100.762 148.633 101.056 148.81 101.182 148.914C101.63 149.283 102.736 149.302 103.501 149.214C103.858 149.051 104.115 148.9 104.234 148.803C104.294 148.751 104.353 148.692 104.414 148.631" stroke="#131313" stroke-width="0.617813" stroke-linecap="round"/>
<path d="M106.16 139.727C106.16 139.992 106.145 140.765 106.071 142.17C106.03 142.942 105.908 143.827 105.855 144.483C105.731 146.004 105.757 146.6 105.853 147.2C105.893 147.449 106.025 147.634 106.136 147.768C106.44 148.133 107.172 148.008 107.687 148.045C108.561 148.067 108.77 148.097 108.882 148.075C108.935 148.053 108.979 148.009 109.024 147.918" stroke="#131313" stroke-width="0.617813" stroke-linecap="round"/>
<path d="M105.041 144.423C105.484 144.364 106.096 144.319 106.781 144.282C107.083 144.259 107.289 144.23 107.514 144.214C107.739 144.199 107.975 144.199 108.219 144.199" stroke="#131313" stroke-width="0.617813" stroke-linecap="round"/>
<path d="M95.3626 140.434C95.3479 140.668 95.3333 140.902 95.355 142.273C95.3767 143.644 95.4352 146.145 95.4727 147.463C95.5118 148.84 95.5399 149.09 95.5106 149.232C95.3543 149.989 95.3333 147.972 95.3621 146.785C95.3851 145.838 95.7606 145.665 95.9747 145.429C96.3167 145.051 96.6613 144.867 97.0011 144.785C97.4904 144.667 97.828 144.88 98.1908 145.109C98.6604 145.405 98.7012 146.223 98.7386 146.697C98.7782 147.198 98.8049 147.967 98.8273 148.249C98.8346 148.323 98.8492 148.41 98.8568 148.58C98.8643 148.75 98.8643 148.998 98.8643 149.254" stroke="#131313" stroke-width="0.617813" stroke-linecap="round"/>
<path d="M110.815 144.695C110.815 144.932 110.83 145.482 110.867 146.183C110.919 146.558 110.964 146.827 110.994 147.111C111.009 147.231 111.024 147.305 111.039 147.515" stroke="#131313" stroke-width="0.617813" stroke-linecap="round"/>
<path d="M110.815 142.59C110.785 142.634 110.756 142.678 110.741 142.805C110.725 142.931 110.725 143.138 110.725 143.351" stroke="#131313" stroke-width="0.617813" stroke-linecap="round"/>
<path d="M116.423 143.603C116.303 143.434 116.006 143.355 115.706 143.324C115.219 143.274 114.914 143.357 114.461 143.479C113.972 143.612 113.715 143.969 113.555 144.279C113.237 144.894 113.301 145.366 113.284 145.788C113.269 146.151 113.367 146.475 113.52 146.805C113.721 147.239 114.481 147.36 115.216 147.428C115.437 147.449 115.739 147.41 116.302 147.328C116.865 147.247 117.682 147.1 118.125 146.995C118.569 146.891 118.615 146.833 118.728 146.665" stroke="#131313" stroke-width="0.617813" stroke-linecap="round"/>
<path d="M17.6395 89.0621C10.2307 98.7236 9.11625 111.162 14.4701 122.234C16.2784 125.973 18.3103 128.654 19.7212 130.347C21.5655 132.56 23.2645 133.987 24.3016 134.767C32.8546 141.199 41.119 141.008 50.8537 138.06" stroke="#131313" stroke-width="0.617813" stroke-linecap="round"/>
<path d="M17.7759 89.1445C22.0758 94.4684 29.4905 96.9023 35.3182 92.7966" stroke="#131313" stroke-width="0.617813" stroke-linecap="round"/>
<path d="M35.2663 92.9012C34.6441 94.5692 34.3418 96.3212 34.2634 97.6327C34.1927 98.8151 34.0026 101.777 34.707 108.668C35.0834 112.351 36.8273 113.768 37.8282 114.771C39.7963 116.743 42.4219 119.393 45.9947 121.663C47.2212 122.442 49.2392 123.168 52.2268 124.048C56.5952 125.335 58.0603 124.817 60.1444 124.686C62.659 124.529 64.8347 124.092 65.396 123.537C66.1339 122.807 62.9605 126.563 61.6756 127.912C58.1631 131.598 54.9945 134.928 50.9523 138.053" stroke="#131313" stroke-width="0.617813" stroke-linecap="round"/>
<path d="M17.7864 99.0391C19.6845 99.5126 21.0633 99.7346 23.4253 100.219C25.6191 100.669 26.906 100.71 28.3145 100.899C29.3986 100.997 31.1879 100.992 33.0601 100.914C33.7785 100.899 34.0265 100.933 34.2821 100.968" stroke="#131313" stroke-width="0.617813" stroke-linecap="round"/>
<path d="M19.8206 104.188C23.8344 104.249 26.2853 104.233 28.1451 104.187C28.455 104.185 28.7569 104.153 29.0365 104.153C29.316 104.154 29.564 104.188 30.3685 104.165" stroke="#131313" stroke-width="0.617813" stroke-linecap="round"/>
<path d="M24.8672 108.086C24.8802 108.207 25.6115 108.191 26.8334 108.09C27.3307 108.067 27.5787 108.102 28.0386 108.084C28.4984 108.066 29.1627 107.995 29.847 107.921" stroke="#131313" stroke-width="0.617813" stroke-linecap="round"/>
<path d="M29.533 116.986C29.6367 117.269 30.0147 118.039 30.5916 119.106C30.7859 119.465 30.8709 119.8 30.8951 120.019C30.9127 120.18 30.4991 119.768 30.1901 119.635C29.784 119.46 29.3536 119.778 29.0853 120.029C28.9501 120.155 28.817 120.279 28.7601 120.451C28.7031 120.624 28.7265 120.841 28.8148 120.982C28.9807 121.245 29.6475 121.191 30.3704 121.04C30.6589 120.936 30.7881 120.775 30.8993 120.596C31.0105 120.417 31.0997 120.224 31.1797 119.916" stroke="#131313" stroke-width="0.617813" stroke-linecap="round"/>
<path d="M36.1913 119.046C36.3391 119.398 36.6948 119.951 37.1406 120.495C37.3953 120.806 37.6984 121.028 37.7574 121.225C37.9015 121.708 36.6351 120.738 35.9423 120.663C35.3457 120.599 35.0105 121.463 34.7001 122.2C34.6251 122.378 34.6833 122.571 34.7716 122.71C34.952 122.996 35.3264 123.06 35.6403 123.063C36.3991 122.725 37.0112 122.214 37.3158 121.96C37.4834 121.795 37.6773 121.554 37.9868 121.294" stroke="#131313" stroke-width="0.617813" stroke-linecap="round"/>
<path d="M30.8531 115.847C30.904 116.321 30.9189 116.8 30.825 117.124C30.7807 117.277 30.6108 117.351 30.4677 117.404C30.3247 117.457 30.1799 117.473 30.0613 117.412C29.9427 117.352 29.8547 117.215 29.7654 117.076C29.6761 116.937 29.5881 116.8 29.4975 116.658" stroke="#131313" stroke-width="0.617813" stroke-linecap="round"/>
<path d="M22.7272 123.833C24.0464 123.413 24.6931 123.095 25.728 122.473C25.9492 122.338 26.0675 122.295 26.2282 122.2C26.389 122.106 26.5886 121.962 26.7844 121.721" stroke="#131313" stroke-width="0.617813" stroke-linecap="round"/>
<path d="M27.581 124.799C27.8694 124.891 28.5044 125.625 29.0021 126.335C29.3604 126.846 29.6294 127.402 29.7212 127.672C29.8851 128.153 28.7232 127.316 27.897 127.419C27.4764 127.471 27.2236 127.817 27.0608 128.035C26.9181 128.227 27.0189 128.521 27.0567 128.734C27.1442 129.227 28.4284 128.992 29.2616 128.764C29.4532 128.666 29.6832 128.518 29.8831 128.341C30.0829 128.164 30.2456 127.962 30.4133 127.754" stroke="#131313" stroke-width="0.617813" stroke-linecap="round"/>
<path d="M23.6634 130.809C23.8457 130.79 24.0579 130.736 24.3537 130.612C24.7646 130.413 25.1232 130.249 25.5883 129.983C25.9351 129.761 26.5069 129.362 27.0959 128.95" stroke="#131313" stroke-width="0.617813" stroke-linecap="round"/>
<path d="M30.6761 125.863C30.7369 125.857 30.944 125.773 31.3676 125.542C31.6155 125.392 31.9301 125.173 32.16 124.977C32.3899 124.78 32.5255 124.612 32.8394 124.327" stroke="#131313" stroke-width="0.617813" stroke-linecap="round"/>
<path d="M38.9381 120.411C39.0498 120.306 39.1616 120.202 39.3818 119.947C39.6021 119.691 39.9275 119.287 40.5292 118.75" stroke="#131313" stroke-width="0.617813" stroke-linecap="round"/>
<path d="M47.7019 134.648C48.2745 134.686 48.7684 134.682 49.2923 134.367C49.908 133.997 49.8311 133.257 49.7307 132.316C49.673 131.774 49.087 131.381 48.634 130.859C48.2453 130.411 47.7442 130.186 47.2789 129.889C46.7401 129.545 45.8154 129.278 45.1706 129.05C44.0629 128.658 43.0478 128.436 42.4837 128.138C41.5269 127.633 41.3981 126.93 41.2447 126.425C41.2079 126.305 41.1695 126.186 41.1949 126.084C41.2473 125.872 41.4957 125.777 41.7357 125.715C42.0676 125.627 42.4042 125.704 42.64 125.827C43.0128 126.021 43.1384 126.54 43.3007 127.808C43.3793 128.422 43.0934 128.874 42.9778 129.295C42.8535 129.748 42.94 130.448 42.9386 131.009C42.9374 131.467 43.2122 131.834 43.5518 132.12C43.8802 132.397 44.4692 132.492 45.0589 132.665C45.6334 132.833 46.0584 132.744 46.5907 132.748C47.689 132.758 48.0921 132.304 48.4702 132.015C48.9249 131.668 49.1927 131.245 49.4803 130.805C49.855 130.231 49.215 129.114 48.9051 128.661C48.6775 128.329 48.1163 128.337 47.0864 128.422C46.5402 128.467 46.2281 128.983 46.0107 129.391C45.8191 129.75 45.7087 130.153 45.7819 130.962C45.7979 131.14 45.9175 131.197 46.0087 131.237C46.1 131.277 46.1996 131.291 46.3089 131.268C46.5343 131.183 46.7404 131.012 46.865 130.788C46.9031 130.672 46.8901 130.551 46.8766 130.426" stroke="#131313" stroke-width="0.617813" stroke-linecap="round"/>
<path d="M36.1238 133.492C37.0452 132.916 38.1721 131.939 38.6576 131.485C38.8022 131.336 38.9656 131.134 39.0992 130.998C39.2329 130.861 39.3319 130.798 39.5753 130.557" stroke="#131313" stroke-width="0.617813" stroke-linecap="round"/>
<path d="M45.0212 126.047C45.0678 125.989 45.357 125.719 45.7938 125.312C46.0354 125.058 46.2531 124.847 46.5233 124.632C46.6478 124.537 46.7468 124.474 46.8487 124.408" stroke="#131313" stroke-width="0.617813" stroke-linecap="round"/>
<path d="M39.9244 133.806C39.916 133.728 39.9076 133.649 39.9761 133.548C40.0445 133.447 40.1902 133.326 40.3236 133.191C40.4569 133.056 40.5736 132.911 40.6938 132.762" stroke="#131313" stroke-width="0.617813" stroke-linecap="round"/>
<path d="M17.2398 111.763C17.8074 112.734 18.7522 114.397 18.9139 114.815C18.9687 114.957 18.5362 114.341 18.1625 114.114C17.8124 113.902 17.4411 114.222 17.3106 114.384C17.143 114.592 17.0149 114.798 16.9596 114.973C16.9065 115.142 16.9218 115.317 16.9698 115.471C16.9939 115.548 17.0778 115.597 17.1756 115.619C18.0067 115.394 19.1436 114.889 19.4525 114.602C19.53 114.529 19.6086 114.479 19.7524 114.42" stroke="#131313" stroke-width="0.617813" stroke-linecap="round"/>
<path d="M17.4778 111.61C17.6799 111.525 17.936 111.54 18.0837 111.535C18.144 111.498 18.1743 111.389 18.1699 111.147C18.1655 110.904 18.1253 110.53 18.084 110.145" stroke="#131313" stroke-width="0.617813" stroke-linecap="round"/>
<path d="M23.1653 114.984C23.2794 115.387 23.4954 115.841 23.7035 116.23C23.8238 116.569 23.9765 116.885 24.2167 117.567C24.2684 117.713 24.298 117.769 24.3361 117.897" stroke="#131313" stroke-width="0.617813" stroke-linecap="round"/>
<path d="M23.5436 116.843C23.4469 116.817 23.0049 116.912 22.6648 117.08C22.5407 117.141 22.4789 117.243 22.4204 117.362C22.2423 117.723 22.3462 118.007 22.3891 118.187C22.4224 118.326 22.5748 118.364 22.6732 118.396C23.0296 118.399 23.5465 118.32 23.8048 118.12C23.8863 118.046 23.9825 117.953 24.1131 117.818" stroke="#131313" stroke-width="0.617813" stroke-linecap="round"/>
<path d="M32.2351 109.576C32.2779 110.307 32.3774 111.014 32.4589 111.273C32.4848 111.348 32.5169 111.427 32.5495 111.507C32.5821 111.587 32.6141 111.667 32.6863 111.78" stroke="#131313" stroke-width="0.617813" stroke-linecap="round"/>
<path d="M32.3091 110.93C32.1697 110.957 31.8512 111.086 31.5934 111.191C31.3265 111.301 31.1021 111.666 31.0322 111.906C31.0136 111.97 31.0359 112.054 31.1006 112.107C31.3846 112.341 31.6701 112.202 31.8825 112.179C31.9403 112.161 32.0078 112.131 32.0639 112.095C32.1201 112.059 32.163 112.019 32.2741 111.935" stroke="#131313" stroke-width="0.617813" stroke-linecap="round"/>
</svg>
