<svg width="217" height="140" viewBox="0 0 217 140" fill="none" xmlns="http://www.w3.org/2000/svg">
<path d="M69.7144 54.5C69.86 54.5485 70.0056 54.5971 75.1283 55.3258C80.2509 56.0546 90.3463 57.4621 95.6683 58.2358C100.99 59.0094 101.233 59.1064 101.483 59.2065" stroke="#131313" stroke-width="1.0459" stroke-linecap="round"/>
<path d="M69.8105 54.4705C74.3535 47.5223 78.2954 39.6915 88.2849 38.9152C99.884 38.0137 101.43 51.1474 101.51 59.2769" stroke="#131313" stroke-width="1.0459" stroke-linecap="round"/>
<path d="M114.277 60.9727C120.998 62.8874 133.456 64.931 139.87 65.8255" stroke="#131313" stroke-width="1.0459" stroke-linecap="round"/>
<path d="M114.409 60.7775C119.101 50.0718 126.757 46.1388 133.135 46.3604C140.453 46.6146 140.31 60.527 139.962 65.9436" stroke="#131313" stroke-width="1.0459" stroke-linecap="round"/>
<path d="M87.0911 56.5732L90.1179 44.4141L96.4176 45.6017L94.1209 57.8648" stroke="#131313" stroke-width="1.0459" stroke-linecap="round"/>
<path d="M127.586 63.8346L129.811 50.8867L135.323 52.5718L134.158 65.0281" stroke="#131313" stroke-width="1.0459" stroke-linecap="round"/>
<path d="M112.808 58.332C112.915 58.3935 113.161 58.4854 113.622 58.6697C114.172 58.914 114.609 59.1016 114.778 59.1554C114.855 59.1787 114.916 59.1939 115.118 59.2558" stroke="#131313" stroke-width="1.0459" stroke-linecap="round"/>
<path d="M135.487 44.1133C135.426 44.6043 135.272 45.1581 135.057 45.8812C134.995 46.1133 134.979 46.2681 134.971 46.414C134.964 46.4838 134.949 46.5447 134.887 46.6999" stroke="#131313" stroke-width="1.0459" stroke-linecap="round"/>
<path d="M140.106 63.7422H142.924" stroke="#131313" stroke-width="1.0459" stroke-linecap="round"/>
<path d="M101.722 57.582H104.817" stroke="#131313" stroke-width="1.0459" stroke-linecap="round"/>
<path d="M94.0317 37.3203C94.0012 37.4423 93.9707 37.5642 93.8483 37.848C93.7259 38.1319 93.5125 38.5739 93.3797 38.8397C93.2469 39.1056 93.2012 39.1818 93.1079 39.2603" stroke="#131313" stroke-width="1.0459" stroke-linecap="round"/>
<path d="M68.8269 50.9062C68.8362 50.9155 68.8455 50.9248 68.8734 50.9481C68.9014 50.9715 68.9478 51.0086 69.2871 51.1947C69.6264 51.3808 70.2573 51.7148 70.9635 52.087" stroke="#131313" stroke-width="1.0459" stroke-linecap="round"/>
<path d="M102.541 46.0121C102.541 45.9739 102.541 45.9357 102.379 45.5244C102.217 45.1131 101.892 44.33 101.572 43.6591C101.252 42.9882 100.946 42.4534 100.631 41.9023" stroke="#131313" stroke-width="1.0459" stroke-linecap="round"/>
<path d="M117.649 49.7692C117.783 49.3269 118.932 48.0234 119.866 47.2333C119.983 47.1459 120.059 47.0695 120.137 47.011C120.214 46.9526 120.291 46.9144 120.369 46.875" stroke="#131313" stroke-width="1.0459" stroke-linecap="round"/>
<path d="M87.4675 32.1076C88.6384 32.5467 89.8094 32.9858 90.8725 33.3479C92.8434 34.0192 94.0964 34.3037 94.6444 34.4089C95.5327 34.5794 96.8982 35.1236 97.7719 35.423C98.612 35.7109 98.8928 35.6977 99.0613 35.6983C99.543 35.7001 99.4846 34.9817 99.9582 33.9492C100.225 33.3668 100.413 32.9541 100.636 32.5106C101.054 31.6756 98.2832 31.4956 97.0673 31.2022C96.0585 30.9588 94.2624 30.4907 93.1897 30.2328C91.4511 29.8149 91.1019 29.8267 90.5323 29.6584C89.9589 29.4891 89.4748 29.5314 89.3063 29.4889C88.828 29.3685 88.5459 30.5629 88.1239 31.1971C88.0175 31.346 87.9339 31.4715 87.8699 31.5779C87.8059 31.6844 87.7641 31.768 87.5942 31.9176" stroke="#131313" stroke-width="1.0459" stroke-linecap="round"/>
<path d="M131.045 40.4172C129.381 40.2349 129.273 40.2356 128.616 40.1676C128.685 39.8903 128.685 39.7543 128.708 39.6163C128.732 39.4783 128.777 39.3424 128.811 39.1927C128.891 38.5392 128.907 37.8952 129.028 37.3168C129.074 37.1002 129.846 36.9515 131.001 37.0213C131.57 37.0556 132.831 37.0875 134.574 37.2736C136.178 37.4449 137.452 37.52 138.106 37.5822C139.305 37.6961 140.421 37.5474 140.585 38.1338C140.63 38.2962 140.638 38.5459 140.619 38.74C140.562 39.3232 140.505 40.2442 140.401 40.9139L140.401 40.9162C140.377 41.0671 140.335 41.3361 140.03 41.3234C139.183 41.288 138.451 41.2161 136.815 41.0457C135.359 40.8939 132.709 40.5994 131.045 40.4172Z" stroke="#131313" stroke-width="1.0459" stroke-linecap="round"/>
<path d="M103.748 64.3272C104.489 64.1925 105.376 64.0557 106.612 63.9537C107.344 63.919 108.287 63.919 109.362 64.0369C110.437 64.1547 111.615 64.3904 112.83 64.6333" stroke="#131313" stroke-width="1.0459" stroke-linecap="round"/>
<path d="M103.746 64.3984C103.96 64.6992 104.076 64.838 104.177 64.9396C104.316 65.0786 104.476 65.2436 104.674 65.4593C104.834 65.633 105.13 65.9215 105.307 66.1123C105.547 66.3724 105.714 66.6266 105.925 66.9043C106.128 67.1706 106.201 67.3452 106.482 67.7645C106.648 68.0139 106.879 68.2887 107.055 68.5723C107.151 68.7264 107.198 68.8171 107.264 68.918C107.354 69.055 107.515 69.3253 107.704 69.6205C107.838 69.8307 107.91 69.9696 107.954 70.0623C108.001 70.1619 108.084 70.2649 108.272 70.5192C108.332 70.6 108.368 70.6647 108.434 70.7053C108.463 70.7231 108.495 70.7115 108.696 70.5136C108.897 70.3157 109.27 69.9258 109.74 69.358C110.21 68.7901 110.766 68.0562 111.093 67.6036C111.419 67.151 111.5 67.0019 111.607 66.8248C111.714 66.6476 111.846 66.447 111.974 66.269C112.214 65.9357 112.427 65.668 112.598 65.3967C112.785 65.0681 112.897 64.8505 112.92 64.7869C112.932 64.7578 112.943 64.7348 112.955 64.7112" stroke="#131313" stroke-width="1.0459" stroke-linecap="round"/>
<path d="M108.866 74.0322C108.6 74.0057 108.208 73.9519 107.64 73.9119C107.261 73.8852 106.562 73.9161 105.943 73.9736C105.323 74.0311 104.803 74.137 104.504 74.2048C103.969 74.326 103.688 74.4151 103.523 74.482C103.044 74.676 102.635 75.1549 102.471 75.284C102.231 75.472 102.013 75.9454 101.851 76.2909C101.687 76.6403 101.726 76.8039 101.699 77.128C101.664 77.5559 101.663 77.8739 101.65 78.0643C101.602 78.746 101.69 78.9782 101.73 79.1664C101.768 79.3438 101.921 79.505 102.015 79.6478C102.06 79.7161 102.135 79.8348 102.445 80.1669C102.686 80.4259 103.125 80.8433 103.375 81.0792C103.767 81.4503 103.962 81.6087 104.296 81.7828C104.557 81.9188 104.862 82.0542 105.294 82.2108C105.428 82.2592 105.682 82.3313 106.029 82.3848C106.216 82.4136 106.581 82.4383 107.402 82.4918C107.913 82.5251 108.62 82.51 109.046 82.4967C109.596 82.4796 109.819 82.3944 110.041 82.3056C110.321 82.1936 110.524 82.0735 110.688 81.9803C110.958 81.8268 111.272 81.6729 111.587 81.4465C112.38 80.8774 112.583 80.4785 112.73 80.2822C112.855 80.115 112.913 79.9607 112.936 79.8455C112.974 79.6433 112.985 79.0292 112.976 78.2452C112.97 77.7036 112.896 77.4746 112.754 77.145C112.485 76.5212 112.343 76.3685 112.161 76.0837C112.008 75.845 111.844 75.6823 111.56 75.4549C111.303 75.2504 110.945 75.0409 110.202 74.5288C109.923 74.3371 109.705 74.2734 109.416 74.1397C109.098 74.0145 108.921 73.961 108.684 73.9075C108.626 73.8984 108.573 73.8984 108.519 73.8984" stroke="#131313" stroke-width="1.0459" stroke-linecap="round"/>
<path d="M108.358 70.6641C108.393 70.6817 108.438 70.7879 108.483 70.957C108.513 71.0724 108.519 71.6394 108.51 72.4769C108.448 73.0702 108.394 73.2668 108.358 73.3379C108.341 73.3737 108.323 73.4091 108.305 73.4454" stroke="#131313" stroke-width="1.0459" stroke-linecap="round"/>
<path d="M101.646 77.4855C101.699 77.5387 101.876 77.7689 102.139 78.0905C102.246 78.2208 102.402 78.4025 102.594 78.5763C102.665 78.6414 102.706 78.6354 102.794 78.5737C103.237 78.2655 103.445 78.0396 103.686 77.8561C103.88 77.7087 104.043 77.5839 104.128 77.526C104.361 77.3662 104.96 77.5384 105.468 77.6411C105.919 77.7322 106.53 77.7705 106.686 77.784C106.797 77.7937 107.055 77.8064 107.38 77.8108C107.573 77.8134 107.989 77.8419 108.542 77.8597C108.896 77.8711 109.354 77.9845 109.654 78.0158C109.89 78.0403 110.051 78.0471 110.202 78.078C110.437 78.1258 110.399 78.4119 110.497 78.6211C110.642 78.9292 110.729 79.1874 110.818 79.3391C110.875 79.435 110.925 79.5177 110.983 79.5711C111.013 79.5991 111.05 79.6244 111.103 79.6204C111.433 79.5957 111.754 79.3672 111.959 79.2643C112.236 79.073 112.493 78.7884 112.734 78.5568C112.824 78.4664 112.851 78.4311 112.905 78.368" stroke="#131313" stroke-width="1.0459" stroke-linecap="round"/>
<path d="M72.9776 59.8569C72.9486 59.8569 72.9196 59.8569 71.8968 59.8061C70.8741 59.7554 68.8586 59.6539 67.7768 59.6306C66.3957 59.6009 65.9348 59.9729 65.6696 60.1928C65.3655 60.445 65.4347 60.9088 65.427 61.2254C65.4199 61.5186 65.7546 62.0064 66.2529 62.6087C66.3924 62.7772 66.9384 63.0039 68.2504 63.384C69.0826 63.625 70.3165 63.7061 71.2703 63.7808C72.224 63.8555 72.8765 63.8555 73.3649 63.8265C74.6287 63.7514 75.433 63.4609 75.9132 63.2776C76.2351 63.1548 76.1852 62.1339 76.0398 61.5064C75.9464 61.1037 75.3389 60.8104 74.7903 60.5762C74.092 60.2781 73.2737 60.0634 72.6792 59.8648C72.3633 59.7545 71.9836 59.7251 71.6253 59.7323C71.47 59.7396 71.3685 59.7541 71.176 59.8129" stroke="#131313" stroke-width="1.0459" stroke-linecap="round"/>
<path d="M140.877 69.5812C140.032 69.4095 139.262 69.303 138.318 69.237C137.915 69.2088 137.337 69.2235 136.843 69.2694C136.349 69.3153 135.956 69.4071 135.543 69.5462C134.697 69.8315 134.226 70.0976 134.127 70.1834C133.903 70.377 133.881 70.7983 133.934 71.2226C133.974 71.5481 134.475 71.8445 134.867 72.1112C135.014 72.2115 135.244 72.2309 135.568 72.2772C136.006 72.3399 136.436 72.3632 137.619 72.4885C138.63 72.5954 140.482 72.7055 141.52 72.7468C142.997 72.8056 143.366 72.5369 143.599 72.3247C143.793 72.1482 143.699 71.5456 143.468 70.9742C143.318 70.6036 142.486 70.2601 141.707 69.9397C141.245 69.7496 140.852 69.582 140.448 69.4689C140.348 69.4488 140.256 69.4357 140.169 69.429C140.082 69.4222 140.004 69.4222 139.923 69.4222" stroke="#131313" stroke-width="1.0459" stroke-linecap="round"/>
<path d="M117.679 30.0466C117.392 30.3738 116.898 31.1134 116.323 31.6499C115.605 32.319 114.269 32.842 112.663 33.8705C111.853 34.3895 110.974 34.694 109.945 35.4558C109.064 36.1079 108.463 36.9165 106.861 38.7228C105.707 40.0238 105.949 40.991 105.826 41.9368C105.746 42.5519 105.702 43.2134 105.641 43.7684C105.615 44.0041 105.458 44.1197 105.334 44.0197C104.445 43.3036 104.551 41.7417 104.447 40.5045C104.323 39.0295 104.507 36.5559 105.407 35.157C107.687 31.6138 110.016 31.8221 111.336 31.1597C111.618 31.0181 111.871 30.9134 111.915 30.83C112.159 30.3734 110.685 30.7454 109.596 30.8078C108.691 30.8596 107.888 31.2393 105.936 31.2609C104.912 31.2723 103.939 31.0344 103.112 30.809C102.439 30.6258 101.633 30.1725 100.808 29.9441C99.7733 29.6576 97.4986 30.8019 96.8189 31.0711M88.6119 32.6732C87.9106 33.2209 87.0212 33.7482 84.9672 35.0422C83.8946 35.718 83.0282 36.1361 82.1027 36.4862C81.0081 36.9002 80.3933 37.6573 79.8167 38.1117C79.2599 38.5504 78.9931 39.4254 78.4789 40.7836C78.3693 41.073 78.3338 41.2379 78.2517 41.383C78.1696 41.5281 78.0474 41.6503 77.9436 41.6114C77.1944 41.3305 77.551 38.2574 77.8992 36.3479C78.1229 35.1211 79.0302 34.3705 80.689 33.3241C82.8303 31.9734 84.6283 31.5295 84.7938 31.3443C85.1214 30.9775 83.4825 31.6912 82.2268 32.2055C81.4288 32.5323 80.5192 32.9259 79.6945 33.3778C78.29 34.1473 77.8004 35.2299 77.1627 35.8059C76.3026 36.5827 75.8669 37.4499 75.0847 38.6025C74.2427 39.8432 73.7259 40.865 73.395 41.6707C73.1036 42.3801 73.2296 43.4974 72.9431 44.3259C72.7005 45.0276 71.5059 45.4754 70.783 46.5261C70.2736 47.2665 70.3617 48.992 69.9092 49.5285C64.7338 55.6642 62.5908 60.2191 62.0186 68.4097" stroke="#131313" stroke-width="1.0459" stroke-linecap="round"/>
<path d="M117.675 30.2305C117.645 31.0771 117.584 31.8636 117.659 32.4561C117.753 33.1949 117.765 34.0443 117.841 35.8107C117.889 36.9378 117.856 39.0093 117.871 40.1509C117.888 41.4433 117.977 41.7473 118.023 41.8846C118.191 42.3912 118.28 40.8116 118.613 40.115C119.019 39.2632 119.491 38.8419 119.826 38.22C120.25 37.4304 120.492 36.3267 120.66 35.2832C120.868 33.9917 120.615 33.0203 120.674 32.9435C121.509 31.8586 122.674 34.7444 123.506 35.5019C124.046 35.9932 124.464 36.5322 124.766 37.3047C125.177 38.3557 125.282 39.0475 125.479 39.5949C125.523 39.7174 125.555 39.8368 125.645 39.8236C126.271 39.7324 126.311 38.5109 126.48 37.7203C126.524 37.512 126.495 37.2379 126.585 37.0537C127.049 36.1061 128.796 36.2631 129.598 36.2921C130.851 36.3376 131.369 36.7341 132.164 37.0537M138.294 41.2224C139.488 42.0071 140.435 43.807 140.786 44.3839C141.053 44.8231 141.256 45.3528 141.649 46.2163C142.002 46.9901 142.105 47.6262 142.302 48.1427C142.482 48.6141 142.56 49.1121 142.696 50.0496C142.886 51.3533 142.923 51.8401 143.104 53.0809C143.142 53.3419 143.554 53.2678 143.784 53.2073C144.179 53.1033 144.498 52.814 144.786 52.5267C144.993 52.3204 144.985 51.9956 145.06 51.8283C145.224 51.4648 145.439 52.7185 145.666 53.3255C145.873 53.8749 145.893 54.4463 146.257 55.8685C146.477 56.7303 146.621 57.7799 146.758 58.4328C146.893 59.0733 146.864 59.6895 146.94 60.267C147.023 60.9007 147.046 61.3882 147.122 62.1893C147.167 63.9053 147.228 64.9292 147.304 65.919C147.319 66.1468 147.319 66.4169 147.319 66.6951" stroke="#131313" stroke-width="1.0459" stroke-linecap="round"/>
<path d="M62.7646 63.2305C63.5624 70.6115 67.3355 75.8643 73.541 79.9124C84.1937 86.8615 98.1537 87.9834 110.513 88.2716C119.842 88.4892 129.777 88.9201 138.583 85.3542C145.432 82.5811 147.319 73.2928 147.319 66.7586" stroke="#131313" stroke-width="1.0459" stroke-linecap="round"/>
<path d="M117.965 26.3547C117.841 25.5013 117.686 24.7236 117.491 24.0317C117.406 23.76 117.267 23.3595 116.957 22.7449C116.647 22.1304 116.169 21.3139 115.677 20.4727" stroke="#131313" stroke-width="1.0459" stroke-linecap="round"/>
<path d="M114.981 19.3629C114.498 18.9197 113.523 18.3282 112.657 17.9065C111.481 17.3336 109.953 17.2402 108.706 17.1149C108.215 17.0656 107.676 16.9422 104.59 16.8681C101.826 16.8017 93.6632 16.9548 90.8511 16.9793M63.7944 29.4695C63.1922 30.1941 60.9026 32.4016 60.3066 33.3429C59.5006 34.6158 58.3593 35.4167 57.6268 36.1601C56.7892 37.0102 55.4424 39.1107 54.3786 40.6553C53.2143 42.3459 52.2949 44.4086 51.6981 45.4485C51.0393 46.5963 50.2941 48.5563 49.8028 49.7718C49.1996 51.2641 48.4491 53.0063 48.0171 54.267C47.421 56.0066 46.6659 58.4317 46.1218 60.6396C45.7434 62.1752 45.2009 63.7266 45.0109 64.9903C44.8521 66.0466 44.8209 67.726 44.6861 68.9934C44.6416 69.4117 44.6049 70.0547 44.5237 72.1649C44.3485 76.7181 44.5497 79.9879 44.6309 80.5305C44.7634 81.4162 44.9281 82.6028 45.1717 84.7507C45.3561 86.3763 45.5777 87.3493 45.9829 88.5589C46.385 89.7592 46.7146 90.7083 47.1466 91.8193C48.3496 94.9132 49.4203 98.1171 50.2039 100.118C50.6147 101.167 51.046 101.829 51.1808 102.223C51.25 102.426 51.3692 102.617 51.612 102.474C53.5878 101.304 54.5086 99.7076 55.1022 99.4853C55.413 99.3688 55.803 99.4097 56.0766 99.532C57.417 100.131 57.596 102.122 57.9744 102.989C58.4233 104.017 58.8952 105.087 59.0853 105.953C59.2827 106.854 59.2753 108.44 59.4897 110.194C59.564 110.803 60.1328 110.726 60.8092 110.334C63.9095 108.537 64.4691 107.073 65.1999 105.568C66.1292 103.654 66.5804 102.38 66.9077 101.439C67.2556 100.438 67.1781 99.6113 67.2869 98.4017C67.3437 97.7699 67.6117 97.2869 67.8001 96.966C67.891 96.8112 68.1493 96.7918 68.3401 96.84C68.7366 96.9401 69.0182 97.3329 69.3958 97.5552C69.5908 97.6701 69.8806 97.6308 70.0454 97.533C70.3713 97.3396 70.3191 95.7171 70.3459 93.6181C70.4845 90.416 71.3964 81.8523 71.3964 78.6458" stroke="#131313" stroke-width="1.0459" stroke-linecap="round"/>
<path d="M115.387 19.3802C115.771 19.0424 116.64 18.9452 118.492 18.8248C121.433 18.6338 125.174 18.8973 125.919 18.8248M147.156 34.3281C147.752 35.3478 149.8 38.4197 150.115 39.4594C150.569 40.9612 151.633 43.0977 152.579 45.5701C153.277 47.3978 153.475 48.811 153.789 49.9247C154.017 50.7342 154.15 52.094 154.538 54.2705C154.718 55.2864 154.925 56.6864 155.142 58.3989C155.561 61.7163 155.795 64.7125 155.868 65.9473C155.947 67.2809 156.085 68.7235 156.158 70.2968C156.236 71.9626 156.375 74.4774 156.448 75.5903C156.499 76.3612 156.569 77.3297 156.593 78.2468C156.61 78.8808 156.714 82.1381 156.69 86.8016C156.678 89.2725 156.473 90.5268 156.4 92.8411C156.351 94.404 156.134 96.3155 156.014 97.8736C155.902 99.3205 155.748 101.06 155.555 102.127C155.303 103.515 155.122 105.167 154.806 106.766C154.422 108.706 153.913 109.958 153.549 110.541C153.134 111.208 152.848 108.757 152.125 107.261C151.494 105.954 150.096 104.938 148.816 103.611C148.505 103.288 148.26 103.102 148.065 103.099C146.832 103.081 146.326 105.608 145.48 106.55C144.292 107.873 143.327 108.656 142.965 108.729C142.228 108.878 141.926 106.782 140.503 104.098C140.108 103.353 139.75 103.051 139.46 102.929C138.721 102.618 137.823 105.115 136.539 106.863C135.667 108.051 134.484 108.412 133.493 109.21C132.605 109.923 131.68 109.961 130.785 110.107C129.783 110.271 131.526 106.118 131.917 104.237C132.169 103.025 132.159 101.075 132.328 99.6007C132.353 98.2325 132.401 97.1551 132.473 95.357C132.498 93.7982 132.498 90.927 132.353 87.8239" stroke="#131313" stroke-width="1.0459" stroke-linecap="round"/>
<path d="M91.3081 18.327C91.0068 18.027 90.4015 16.5605 88.0718 11.7233C86.1407 7.71352 84.3875 6.73028 83.3457 5.45149C82.5278 4.44745 80.327 3.05174 77.7734 1.70995C76.2833 0.927019 75.3781 0.750047 74.3403 0.55391C73.9988 0.489377 73.5648 0.531828 73.2369 0.638989C72.0366 1.03117 71.4814 2.56074 70.6592 3.62261C69.2774 5.40709 68.325 7.1849 67.432 9.2281C66.5687 11.2034 65.9376 13.599 65.3758 15.1798C64.1608 18.5985 64.3789 20.1819 64.0749 21.9147C64.0308 22.4368 63.9879 22.9993 63.923 25.1269C63.9009 26.8688 63.9009 29.955 63.9009 33.1348" stroke="#131313" stroke-width="1.0459" stroke-linecap="round"/>
<path d="M75.157 5.49609C75.534 5.76562 75.9294 6.01678 76.3342 6.26902C77.1597 6.78338 77.5141 7.00737 77.9273 7.30363C79.0815 8.13116 79.6724 9.18192 79.9814 9.65399C80.3605 10.2332 80.9709 11.0756 81.2145 11.5436C81.4849 12.0632 81.7638 12.4443 82.1222 13.2329C82.6542 14.4034 83.186 15.3064 83.4458 15.8798C84.2106 17.5677 84.3748 18.1156 84.4199 18.413C84.573 18.8 84.6627 19.1959 84.7437 19.4565C84.7712 19.5745 84.7712 19.6636 84.7712 19.7555" stroke="#131313" stroke-width="1.0459" stroke-linecap="round"/>
<path d="M78.9376 8.52134C78.9376 8.48569 78.9376 8.45005 78.902 8.42277C78.4867 8.105 77.5171 8.32366 76.6232 8.20726C75.909 8.11426 74.6598 8.00174 73.9814 7.92855C73.2306 7.84755 72.6948 7.81918 72.0372 7.88156C71.8342 7.90082 71.9322 8.06872 72.0137 8.15082C72.3046 8.44367 72.7067 8.64665 73.5644 9.18246C74.2877 9.63425 75.5629 10.5025 76.2597 10.9611C77.0226 11.4632 77.1725 11.5455 77.2627 11.6622C77.4354 11.8856 76.762 12.3887 75.7114 13.6634C75.2422 14.2326 74.6296 15.1822 74.2544 15.7755C73.3872 17.1473 72.9616 18.1875 72.7896 18.5126C72.7534 18.581 72.7445 18.6563 72.7799 18.6841C72.8781 18.7613 73.5488 18.4262 74.4929 18.0303C75.076 17.7858 75.907 17.5976 76.8695 17.2379C77.8389 16.8756 78.3964 16.2106 78.5141 15.9935C78.559 15.9107 78.6135 16.6362 78.6046 17.4637C78.5995 17.9354 78.5595 18.6876 78.5684 19.6682C78.5756 20.4626 78.9538 21.7447 79.2339 22.6349C79.2694 22.7477 79.2973 22.8153 79.3689 22.8253C79.5681 22.8531 79.9433 22.4593 80.5442 21.7156C81.4254 20.6249 83.5761 17.6157 83.9358 17.2379" stroke="#131313" stroke-width="1.0459" stroke-linecap="round"/>
<path d="M125.553 19.6789C125.553 19.6246 125.661 19.3521 126.397 18.0172C127.003 16.9157 128.164 14.998 128.82 13.855C129.638 12.4282 130.104 11.5618 131.047 10.3175C132.307 8.65427 133.78 7.55348 134.67 6.95046C135.332 6.50219 136.738 5.79998 138.398 4.81251C139.645 4.07055 140.725 3.54349 141.218 3.58424C141.62 3.61747 142.151 4.14363 143.04 5.08624C145.1 7.27125 145.144 8.39401 145.46 9.1802C145.755 9.91416 146.185 11.5701 146.544 13.226C146.63 13.6178 146.9 14.9198 147.188 16.7984C147.401 18.1867 147.505 20.1581 147.602 21.6094C147.651 22.3579 147.643 22.9974 147.684 24.2228C147.719 25.2575 147.698 27.1325 147.671 28.2204C147.637 29.5549 147.533 29.9406 147.465 30.7169C147.309 32.5032 147.122 33.8641 147.094 34.3832C147.013 35.1739 146.957 35.8128 146.943 36.1412C146.93 36.3067 146.903 36.4697 146.792 36.8846" stroke="#131313" stroke-width="1.0459" stroke-linecap="round"/>
<path d="M140.089 7.80469C138.891 8.37206 138.43 8.74883 137.851 9.15968C137.331 9.52863 136.956 9.88673 136.402 10.4916C135.055 11.9639 134.242 13.2726 134.032 13.5876C133.662 14.1422 133.151 14.9312 132.497 16.2045C132.168 16.8442 132.012 17.2688 131.77 17.8583C131.563 18.3606 131.359 18.9526 131.306 19.3001C131.212 19.8147 131.086 20.4459 131.002 20.8239C130.959 20.9937 130.918 21.1186 130.875 21.2474" stroke="#131313" stroke-width="1.0459" stroke-linecap="round"/>
<path d="M136.581 10.4584C136.739 10.4442 137.054 10.3583 138.397 10.2503C139.307 10.1771 140.96 10.2143 141.804 10.2355C142.647 10.2566 142.633 10.3135 142.604 10.3642C142.546 10.4664 141.848 11.1276 140.807 12.126C140.287 12.624 139.975 12.7717 139.489 13.0431C138.59 13.5453 137.791 14.0217 137.368 14.2155C137.199 14.2927 137.129 14.3382 137.128 14.3815C137.125 14.4924 137.911 14.6965 139.515 15.2755C140.494 15.629 141.744 16.2673 142.468 16.6249C143.636 17.2025 144.053 17.5285 144.362 17.7438C144.486 17.8305 144.543 17.8738 143.398 17.9243C142.253 17.9747 139.906 18.0317 138.597 18.0468C137.088 18.0641 136.826 17.9756 136.726 17.9823C136.67 17.986 136.654 18.117 136.653 18.211C136.652 18.3926 136.768 18.578 137.103 19.2838C137.389 19.8864 137.879 20.9999 138.2 21.7709C138.681 22.9273 138.795 23.4788 138.837 23.7226C138.916 24.1666 139.01 24.4425 138.996 24.5003C138.902 24.8865 137.879 23.9703 136.813 23.5269C136.165 23.2577 135.333 22.8273 134.453 22.259C133.572 21.6907 132.676 20.9792 132.136 20.5771C131.439 20.1039 131.178 20.0306 131.056 20.0662C131.033 20.1018 131.09 20.1729 131.148 20.2462" stroke="#131313" stroke-width="1.0459" stroke-linecap="round"/>
<path d="M87.5135 18.6641C87.1868 18.6641 86.8276 18.7613 86.5319 18.8603C86.2605 18.9512 85.9266 19.0237 85.6883 19.1956C85.4467 19.37 85.173 19.5474 84.7394 19.785C84.386 19.9786 84.1088 20.2028 83.8297 20.4155C83.5659 20.6167 83.2245 20.8248 82.9454 21.0134C82.6855 21.1891 82.065 21.544 81.5378 21.8889C80.8501 22.3389 80.3916 22.4461 79.5252 22.7978C78.968 23.0241 78.5257 23.1339 77.8047 23.4122C77.3861 23.5738 76.9211 23.8217 76.4608 24.1C75.8401 24.4753 74.7928 25.1305 74.3647 25.4265C73.7358 25.8613 73.2197 26.1789 72.7272 26.5563C72.3153 26.8718 72.0062 27.1458 71.7519 27.3593C71.4807 27.587 71.1219 27.8503 70.8514 28.1449C70.5642 28.4404 70.4006 28.7013 70.1798 28.9477C70.1221 29.0132 70.0734 29.0943 69.925 29.3252" stroke="#131313" stroke-width="1.0459" stroke-linecap="round"/>
<path d="M128.698 20.4414C128.8 20.4414 128.963 20.4616 129.168 20.5331C129.421 20.6218 129.911 20.737 130.236 20.8397C130.433 20.9019 130.609 21.0234 131.159 21.3192C131.541 21.5242 131.753 21.7587 131.973 21.9433C132.16 22.0991 132.579 22.5131 133.051 23.0406C133.388 23.4184 133.888 23.8733 134.342 24.2565C134.742 24.5933 135.218 24.8258 135.52 24.9943C135.771 25.135 136.158 25.2652 136.576 25.4332C136.779 25.5147 136.933 25.6518 137.27 25.8358C138.098 26.289 138.684 26.5736 138.781 26.6757C138.929 26.8317 139.194 27.033 139.664 27.4721C140.108 27.8864 140.626 28.4135 140.754 28.6227C140.79 28.6793 140.83 28.7299 140.861 28.7762C140.892 28.8225 140.912 28.863 140.933 28.9354" stroke="#131313" stroke-width="1.0459" stroke-linecap="round"/>
<path d="M107.28 88.4141C107.28 88.918 107.33 89.8293 107.368 90.3758C107.384 90.5937 107.432 91.1207 107.444 92.8328C107.454 94.1185 107.482 96.2505 107.47 97.537C107.454 99.2008 107.356 99.8381 107.318 100.582C107.256 101.806 107.103 103.229 107.04 104.38C107 105.11 106.9 105.59 106.799 106.747C106.719 107.68 106.498 109.309 106.37 110.249C106.214 111.393 106.039 112.475 105.887 113.892C105.83 114.432 105.836 114.608 105.66 115.627C105.485 116.645 105.133 118.501 104.94 119.52C104.746 120.539 104.721 120.664 104.696 120.794" stroke="#131313" stroke-width="1.0459" stroke-linecap="round"/>
<path d="M102.187 88.4141C102.062 88.6907 101.557 89.3991 100.772 90.7137C99.9036 92.168 99.7309 93.0232 99.6913 93.4166C99.6319 94.0085 100.993 93.5583 101.829 93.3934C102.716 93.2186 103.148 93.0263 104.008 92.9871C104.624 92.9591 105.225 93.2771 105.897 93.5184C106.222 93.6351 106.468 93.8099 106.645 94.0117C106.899 94.6954 107.152 95.3536 107.267 95.9617C107.28 96.1396 107.28 96.3402 107.28 96.547" stroke="#131313" stroke-width="1.0459" stroke-linecap="round"/>
<path d="M113.512 88.7969C114.171 90.0373 114.423 90.7427 115.22 92.4643C115.574 93.2298 115.64 93.7101 115.754 94.0768C115.805 94.2397 115.793 94.3683 115.617 94.3075C114.388 93.8819 113.794 93.2829 113.236 93.1172C112.534 92.9087 111.64 92.5471 111.008 92.4582C110.31 92.3601 109.764 92.5707 109.562 92.8109C109.208 93.2313 108.953 93.6842 108.8 94.179C108.664 94.62 108.572 95.0782 108.496 95.5472C108.428 95.9726 108.294 96.3704 108.243 96.8644C108.183 97.4461 108.066 97.9407 107.977 98.4355C107.964 98.5503 107.964 98.6506 107.926 98.8277C107.889 99.0048 107.813 99.2556 107.736 99.5141" stroke="#131313" stroke-width="1.0459" stroke-linecap="round"/>
<path d="M96.7144 87.8672C96.3377 88.7227 95.9238 90.0303 95.6153 90.9581C94.8407 93.2871 94.5843 94.9119 94.1869 96.6163C93.9624 97.5794 93.963 98.4229 93.5852 100.913C93.4414 101.862 93.4119 102.826 93.3262 103.637C93.1871 104.955 93.1022 106.268 93.0166 107.163C92.9277 108.09 92.8958 109.189 92.8102 110.379C92.7396 111.36 92.5181 112.599 92.466 113.304C92.3798 114.353 92.3458 115.043 92.2942 115.879C92.2766 116.58 92.2766 117.84 92.2766 119.138" stroke="#131313" stroke-width="1.0459" stroke-linecap="round"/>
<path d="M118.387 88.793C118.387 88.8611 118.387 91.3483 118.37 95.1488C118.36 97.391 118.112 98.8347 117.89 101.37C117.666 103.911 117.355 105.613 117.236 106.808C116.959 109.579 116.564 111.565 116.444 111.891C116.339 112.177 116.289 112.664 116.101 113.946C115.466 118.283 115.258 119.098 115.068 119.82C114.776 120.989 114.534 121.816 114.483 122.262C114.465 122.503 114.465 122.776 114.362 123.16" stroke="#131313" stroke-width="1.0459" stroke-linecap="round"/>
<path d="M75.8544 81.9766C75.6368 82.0489 74.6204 83.0149 74.0544 83.7878C73.569 84.4509 73.2286 85.2567 73.007 85.8452C72.9364 86.0326 72.8854 86.2351 72.8726 86.3691C72.8319 86.796 74.0245 86.2118 75.0325 86.1512C76.7058 86.0506 78.2115 86.2592 78.8439 86.4418C79.5631 86.6494 80.4036 86.8441 80.8666 86.8931C82.1664 87.0304 83.9568 87.5247 85.2084 87.8657C86.3073 88.1651 87.6809 88.4258 88.6659 88.6087C89.194 88.7067 89.7254 88.9121 90.2136 89.0833C90.5847 89.2135 91.088 89.4714 92.3403 90.0917C92.9349 90.3863 93.3531 90.6646 93.743 90.9691C94.1319 91.2727 94.206 91.7351 94.401 92.1856C94.4981 92.3923 94.5718 92.588 94.6083 92.8906C94.6208 93.0969 94.6208 93.4102 94.6208 93.7329" stroke="#131313" stroke-width="1.0459" stroke-linecap="round"/>
<path d="M130.742 88.1602C130.742 88.9176 130.783 90.2419 130.855 90.6441C130.934 91.0825 130.928 91.3768 130.856 91.5216C130.647 91.9455 130.084 91.2345 129.075 91.1822C127.863 91.1193 126.123 91.1713 125.557 91.2744C124.943 91.386 124.351 91.6862 123.906 91.8109C123.428 91.9447 123.091 92.0377 122.699 92.1612C121.96 92.3943 121.544 92.6974 121.162 93.0167C120.852 93.276 120.492 93.4808 120.223 93.7286C119.954 93.9762 119.728 94.2853 119.48 94.5845C119.252 94.8602 119.026 95.1306 118.738 95.5634C118.469 96.1628 118.407 96.4307 118.366 96.6569C118.345 96.781 118.325 96.9239 118.304 97.2569" stroke="#131313" stroke-width="1.0459" stroke-linecap="round"/>
<path d="M72.9395 85.9102C72.7412 86.0424 72.5068 86.1435 72.2403 86.2267C72.1061 86.2768 71.9739 86.3429 71.8397 86.41C71.7055 86.4771 71.5732 86.5432 71.437 86.6113" stroke="#131313" stroke-width="1.0459" stroke-linecap="round"/>
<path d="M130.935 90.2148C131.135 90.3471 131.534 91.0122 131.836 91.6152C131.903 91.7494 131.969 91.8816 132.053 92.0158C132.136 92.15 132.235 92.2823 132.338 92.6188" stroke="#131313" stroke-width="1.0459" stroke-linecap="round"/>
<path d="M105.376 101.663C105.349 101.601 105.277 101.44 105.183 101.322C105.061 101.169 104.721 101.268 104.377 101.286C104.152 101.297 104.012 101.456 103.931 101.528C103.648 101.78 103.599 102.443 103.576 102.654C103.535 103.043 103.545 103.472 103.648 104.062C103.704 104.385 103.992 104.739 104.19 104.965C104.263 105.047 104.361 105.064 104.455 105.078C104.747 105.119 104.98 104.877 105.124 104.697C105.356 104.408 105.375 104.159 105.474 103.952C105.514 103.868 105.51 103.39 105.506 102.718C105.475 102.31 105.439 102.113 105.398 101.933C105.385 101.888 105.367 101.843 105.322 101.744" stroke="#131313" stroke-width="1.0459" stroke-linecap="round"/>
<path d="M104.063 112.363C104.054 111.825 104.019 111.593 103.929 111.359C103.897 111.275 103.804 111.241 103.714 111.215C103.512 111.154 103.257 111.474 103.077 111.707C102.937 111.889 102.87 112.137 102.821 112.38C102.77 112.626 102.717 112.892 102.686 114.01C102.673 114.451 102.869 114.695 103.013 114.831C103.069 114.883 103.21 114.867 103.371 114.854C103.669 114.829 103.91 114.491 104.058 114.195C104.144 114.006 104.233 113.596 104.301 113.057C104.306 112.798 104.306 112.345 104.306 111.878" stroke="#131313" stroke-width="1.0459" stroke-linecap="round"/>
<path d="M88.0125 60H91.1125" stroke="#131313" stroke-width="1.0459" stroke-linecap="round"/>
<path d="M127.172 66.5195C127.549 66.5195 128.066 66.5195 128.704 66.5599C129.018 66.6003 129.314 66.6811 129.534 66.7361C129.754 66.7912 129.889 66.8181 130.027 66.8459" stroke="#131313" stroke-width="1.0459" stroke-linecap="round"/>
<path d="M174.488 89.2439C175.576 88.7601 177.293 88.1466 177.937 87.6772C178.565 87.2194 179.394 86.7826 180.195 86.1816C180.935 85.6266 181.321 84.9974 181.726 84.287C182.079 83.6694 182.086 83.1925 182.266 82.9543C182.44 82.7241 182.818 82.7522 183.122 82.7714C183.78 82.8129 184.263 83.3915 184.691 83.909C185.311 84.6585 185.304 86.0758 185.108 86.9387C184.959 87.5929 184.277 88.1659 183.411 89.1078C182.842 89.7273 182.005 90.1072 181.474 90.6781C181.345 90.8178 181.293 90.9759 181.356 91.0554C181.532 91.2746 184.179 90.3916 187.835 89.2143C189.789 88.5853 191.351 88.2825 192.376 88.046C193.061 87.888 193.825 87.7901 194.538 87.7162C195.235 87.6439 195.98 87.8016 197.341 87.8922C198.086 87.9417 198.73 88.1746 199.239 88.5649C199.49 88.7577 199.577 89.1709 199.653 89.5833C199.722 89.9572 199.382 90.2719 199.065 90.5151C198.419 91.0096 195.388 91.9788 193.166 92.8056C192.633 93.0005 192.102 93.2135 190.46 93.811C189.091 94.2797 186.633 95.0842 184.102 95.9131" stroke="#131313" stroke-width="1.0459" stroke-linecap="round"/>
<path d="M184.737 95.7154C184.242 95.7736 183.093 96.3549 182.425 96.8508C181.798 97.3163 181.607 97.825 181.461 98.754C181.353 99.4349 181.553 99.8853 181.732 100.172C182.209 100.932 183.512 100.491 184.268 100.365C184.561 100.316 184.878 100.217 185.288 100.152C185.73 100.081 187.779 99.4063 190.587 98.4179C192.021 97.913 193.425 97.2804 194.929 96.3252C195.077 94.8891 194.724 93.9146 194.58 93.6855C194.507 93.5702 194.195 93.0196 193.842 92.6826" stroke="#131313" stroke-width="1.0459" stroke-linecap="round"/>
<path d="M182.028 100.702C181.966 100.722 181.789 100.814 181.539 100.999C181.09 101.332 181.261 102.057 181.325 102.677C181.355 102.962 181.481 103.472 181.717 104.087C181.863 104.468 182.162 104.602 182.426 104.723C182.978 104.976 183.573 104.901 184.187 104.978C184.941 105.071 185.55 104.912 187.346 104.704C188.207 104.605 189.148 104.289 190.424 103.957C192.285 103.474 193.572 102.876 193.78 102.669C193.989 102.463 194.148 102.203 194.207 101.908C194.122 101.381 194.021 100.862 193.763 99.8087C193.585 99.2131 193.468 98.5295 193.124 97.4773" stroke="#131313" stroke-width="1.0459" stroke-linecap="round"/>
<path d="M184.155 105.615C184.223 106.14 184.861 107.25 185.339 107.596C185.796 107.926 186.405 108.267 187.324 108.434C188.439 108.637 189.304 108.358 190.45 108.104C192.591 107.63 193.071 106.747 193.403 106.222C193.746 105.68 193.873 105.066 193.866 104.514C193.766 103.889 193.83 104.053 193.734 103.601C193.678 103.376 193.607 103.159 193.534 102.936" stroke="#131313" stroke-width="1.0459" stroke-linecap="round"/>
<path d="M174.597 89.1178C174.107 89.278 172.924 89.7457 172.456 89.9902C171.605 90.4351 171.305 90.6812 170.957 90.916C170.578 91.1715 170.182 91.5142 169.888 91.7618C169.548 92.049 169.276 92.4578 169.046 92.7757C168.738 93.201 168.534 93.591 168.224 94.2177C167.874 94.926 167.859 95.7343 167.837 96.3779C167.823 96.8114 167.855 97.4523 167.858 98.081C167.861 98.6502 168.128 99.6478 168.426 100.683C168.647 101.448 168.774 101.809 169.126 102.451C169.886 103.84 170.384 104.256 170.802 104.667C171.201 105.058 172.076 105.784 172.576 106.191C173.01 106.544 173.947 106.992 174.725 107.349C175.537 107.721 176.052 107.786 176.445 107.87C177.245 108.041 178.802 108.098 179.711 107.964C181.296 107.731 182.253 107.395 182.922 107.227C183.044 107.197 183.195 107.167 183.435 107.099C183.676 107.031 184.002 106.924 184.337 106.814" stroke="#131313" stroke-width="1.0459" stroke-linecap="round"/>
<path d="M178.112 92.4281C177.885 93.3282 177.706 94.0278 177.55 94.3694C177.284 94.9492 177.215 95.2788 176.715 96.2976C176.565 96.603 176.438 96.942 176.13 97.5712C175.941 97.9572 175.631 98.4502 175.226 98.9919C174.366 100.141 173.713 100.743 173.558 100.866C173.424 101.011 173.161 101.272 172.811 101.597C172.66 101.741 172.564 101.845 172.36 102.029" stroke="#131313" stroke-width="1.0459" stroke-linecap="round"/>
<path d="M175.541 97.7656C175.919 98.1644 176.333 98.6358 176.792 99.1046C176.972 99.2987 177.268 99.6333 177.47 99.8902C177.672 100.147 177.771 100.316 177.872 100.491" stroke="#131313" stroke-width="1.0459" stroke-linecap="round"/>
<path d="M181.167 98.7669C181.089 98.7924 180.862 98.8914 180.599 99.0919C180.456 99.2006 180.391 99.2562 180.376 99.3044C180.367 99.3329 180.405 99.3749 180.449 99.4043C180.656 99.4609 180.823 99.4432 180.942 99.4354C180.969 99.4328 180.999 99.4292 181.08 99.4091" stroke="#131313" stroke-width="1.0459" stroke-linecap="round"/>
<path d="M181.036 102.311C180.984 102.34 180.813 102.531 180.617 102.732C180.582 102.769 180.552 102.779 180.542 102.807C180.519 102.871 180.571 102.952 180.621 103.01C180.739 103.071 180.873 103.101 180.98 103.107C181.006 103.108 181.03 103.106 181.054 103.104" stroke="#131313" stroke-width="1.0459" stroke-linecap="round"/>
<path d="M183.346 105.488C183.383 105.518 183.506 105.548 183.618 105.547C183.645 105.545 183.672 105.543 183.691 105.523C183.709 105.503 183.718 105.466 183.726 105.427" stroke="#131313" stroke-width="1.0459" stroke-linecap="round"/>
<path d="M199.431 88.4257C199.511 88.3997 199.869 88.475 200.135 88.549C200.313 88.5986 200.419 88.6862 200.459 88.7261C200.467 88.7501 200.451 88.7816 200.312 88.8406C200.173 88.8996 199.912 88.9851 199.627 89.105" stroke="#131313" stroke-width="1.0459" stroke-linecap="round"/>
<path d="M182.66 82.4806C182.654 82.4428 182.717 82.1824 182.772 82.0071C182.779 81.9861 182.813 81.9822 182.866 82.0388C182.999 82.2173 183.115 82.3772 183.172 82.4388C183.196 82.466 183.208 82.4848 183.246 82.5303" stroke="#131313" stroke-width="1.0459" stroke-linecap="round"/>
<path d="M167.846 99.3255C167.901 99.4921 167.942 99.6889 168.242 100.711C168.511 101.628 169.087 103.33 169.4 104.249C169.826 105.503 170.093 105.973 170.351 106.551C170.595 107.096 171.026 107.971 171.331 108.653C171.816 109.462 172.165 109.815 172.315 109.952C172.395 110.019 172.485 110.082 172.577 110.147" stroke="#131313" stroke-width="1.0459" stroke-linecap="round"/>
<path d="M170.729 90.4113C170.515 90.3194 169.941 90.274 169.492 90.3624C168.893 90.4807 168.491 90.4691 167.13 90.9603C166.398 91.2242 166.346 92.0297 166.164 92.5795C165.833 93.581 166.011 94.2837 165.961 95.161C165.931 95.6926 165.868 96.2636 165.846 96.9104C165.796 98.4358 165.853 98.9243 165.888 99.5305C165.923 100.116 166.079 101.036 166.273 102.129C166.384 102.754 166.509 103.276 166.807 104.295C167.1 105.294 167.464 106.62 167.564 107.032C167.684 107.529 167.834 108.177 168.187 109.363C168.359 109.942 168.777 110.499 169.229 110.877C169.835 111.384 170.299 111.587 170.726 111.716C171.256 111.875 171.909 111.667 172.323 111.683C172.978 111.708 173.878 111.209 174.636 110.926C174.794 110.867 174.869 110.815 174.929 110.749C175.168 110.488 175.071 110.006 174.97 109.376C174.691 108.486 174.446 107.809 174.308 107.565C174.225 107.417 174.115 107.222 173.94 106.833" stroke="#131313" stroke-width="1.0459" stroke-linecap="round"/>
<path d="M166.192 91.5509C166.219 91.844 166.118 92.2487 165.898 92.9606C165.652 93.7562 165.498 94.6171 165.403 95.1157C165.312 95.5935 165.251 96.0033 165.252 96.5388C165.253 97.6127 165.16 98.433 165.156 98.8078C165.151 99.1974 165.231 99.6441 165.378 100.875C165.482 101.743 165.656 102.72 165.87 104.439C165.971 105.241 166.177 106.02 166.317 106.801C166.401 107.273 166.641 108.078 166.779 108.677C166.856 109.01 166.972 109.372 167.193 110.155C167.665 111.824 168.232 113.151 168.505 113.597C168.787 114.055 169.402 114.953 169.84 115.538C170.145 115.945 170.435 116.321 170.849 116.699C171.199 117.018 171.591 117.294 172.077 117.497C172.452 117.653 173.857 117.206 174.99 116.511C175.735 116.054 175.838 115.395 175.925 114.842C176.046 114.075 176.095 113.262 176.144 112.628C176.185 112.096 176.007 111.428 175.899 110.774C175.796 110.425 175.713 110.1 175.574 109.567C175.454 109.166 175.236 108.5 175.011 107.813" stroke="#131313" stroke-width="1.0459" stroke-linecap="round"/>
<path d="M166.498 91.2084C166.248 91.2902 165.501 91.5578 164.408 91.9852C163.596 92.3027 163.013 92.6519 162.154 93.0719C159.74 94.3996 159.452 94.517 159.287 94.6173C159.199 94.6696 159.102 94.7245 158.896 94.8856" stroke="#131313" stroke-width="1.0459" stroke-linecap="round"/>
<path d="M172.05 117.556C171.231 117.824 170.546 118.003 169.415 118.314C168.56 118.55 167.929 118.626 167.198 118.796C165.51 119.141 164.228 119.418 163.865 119.514C163.668 119.555 163.446 119.582 163.218 119.609" stroke="#131313" stroke-width="1.0459" stroke-linecap="round"/>
<path d="M168.288 112.848L171.132 111.917" stroke="#131313" stroke-width="1.0459" stroke-linecap="round"/>
<path d="M20.483 6.74769C15.3466 6.85717 10.0361 6.85717 8.83179 6.85717C8.91555 7.85409 9.26015 13.3229 9.32271 14.4378C9.40648 15.9307 9.54322 17.3748 9.71004 18.7515C9.90412 20.353 9.90821 21.5845 10.2077 24.2271C10.4018 25.9398 10.7188 27.2528 10.8156 28.564C10.8994 29.6986 10.9032 31.1487 11.1756 32.8503C11.397 34.2337 11.2897 35.6277 11.951 38.3508C12.0638 38.8153 12.283 38.7624 12.5897 38.7331C14.0577 38.593 15.635 38.6204 18.4526 38.18L18.4607 38.1787C19.6985 37.9852 20.684 37.8311 21.7412 37.7097C23.1777 37.5446 24.1719 37.4416 25.3631 37.3506C27.1654 37.2129 29.1606 37.2567 31.3621 37.0188C32.6361 36.8811 34.6068 36.2058 39.7016 36.1065C42.5091 36.0517 47.162 36.0517 49.4885 35.8261C51.8149 35.6005 51.8363 35.1601 51.7867 34.8309C51.7037 34.2801 51.6526 33.4909 51.4267 32.1752L51.4234 32.1557C51.1497 30.5614 50.9443 29.3649 50.847 28.141C50.7632 27.0877 50.5559 25.4336 50.5152 22.5509C50.4879 20.6085 50.5771 17.0449 50.3469 14.0306C49.9322 8.60221 49.9934 5.44968 49.2687 4.97612C49.1011 4.86664 48.8829 4.87512 48.6035 4.89483C46.6528 5.03251 44.0323 5.36149 39.7282 5.5882C36.5475 5.75574 30.745 5.9747 27.2516 6.19698C23.7583 6.41925 22.6111 6.70233 20.483 6.74769Z" stroke="#131313" stroke-width="0.627541" stroke-linecap="round"/>
<path d="M11.4343 9.83254C11.4346 9.81953 11.4288 10.0535 11.4359 10.5488C11.4396 10.8037 11.4816 11.0646 11.5124 11.5445C11.5433 12.0244 11.5716 12.715 11.5918 13.1035C11.6121 13.492 11.6234 13.5574 11.6355 13.7312C11.6477 13.905 11.6602 14.1852 11.6905 14.545C11.7208 14.9047 11.7686 15.3355 11.7924 15.59C11.8162 15.8444 11.8146 15.9095 11.8134 15.9568" stroke="#131313" stroke-width="0.627541" stroke-linecap="round"/>
<path d="M11.3569 9.79004C11.4892 9.74739 11.6343 9.71178 11.8422 9.67093C12.0257 9.63488 12.1899 9.58743 12.3116 9.57085C12.4423 9.55306 12.7232 9.49586 13.1765 9.4579C13.6664 9.41689 14.0265 9.48197 14.1963 9.52232C14.4123 9.57369 14.5604 9.70542 14.7782 9.9173C15.2135 10.3408 15.1995 10.7132 15.2351 11.0072C15.2768 11.3513 15.2142 11.7334 15.0413 11.9559C14.8023 12.2636 14.2995 12.3416 13.9376 12.4679C13.6373 12.5726 13.3989 12.5759 13.1866 12.6334C12.9672 12.6928 12.7106 12.7298 12.4009 12.7846C12.2221 12.7967 12.1232 12.814 12.0375 12.8282C11.9976 12.837 11.9647 12.8492 11.8717 12.8603" stroke="#131313" stroke-width="0.627541" stroke-linecap="round"/>
<path d="M11.2344 11.7852H11.2877" stroke="#131313" stroke-width="0.627541" stroke-linecap="round"/>
<path d="M16.152 15.2172C16.1692 15.0484 16.1858 14.916 16.2325 14.3534C16.2755 13.8366 16.3419 12.8486 16.3891 12.2945C16.444 11.6485 16.4816 11.511 16.4948 11.374C16.533 10.9766 16.5858 10.4984 16.6137 10.1699C16.6296 9.98197 16.7092 9.74915 16.7563 9.59461C16.7637 9.57056 16.7867 9.55266 16.8162 9.55636C16.9727 9.57599 17.0445 9.75539 17.2354 10.0898C17.3898 10.3603 17.6303 10.8524 17.7764 11.153C17.9683 11.5478 18.0087 11.6996 18.0752 11.9102C18.3194 12.6836 18.4088 12.7813 18.4723 13.0028C18.521 13.1728 18.5833 13.4228 18.6255 13.5856C18.6819 13.8034 18.7514 14.0653 18.8466 14.5889C18.9283 14.8851 18.9376 15.0432 18.966 15.2146C18.9714 15.2675 18.9699 15.326 18.9891 15.3474" stroke="#131313" stroke-width="0.627541" stroke-linecap="round"/>
<path d="M16.5094 13.1517C16.5872 13.1734 16.7584 13.1646 17.2255 13.0977C17.5231 13.055 17.7471 13.0513 18.1309 12.9331C18.2639 12.8935 18.3374 12.8754 18.3901 12.8636C18.4167 12.8577 18.4429 12.8518 18.5093 12.8468" stroke="#131313" stroke-width="0.627541" stroke-linecap="round"/>
<path d="M21.3567 9.42503C21.3053 9.391 21.1365 9.3343 20.8442 9.32333C20.6354 9.31549 20.496 9.43581 20.3726 9.48568C20.2447 9.53733 20.1407 9.68333 20.0465 9.77319C19.9002 9.91277 19.8136 10.1418 19.6463 10.4066C19.4442 10.7265 19.5105 10.9493 19.4843 11.0741C19.4612 11.1839 19.4538 11.3684 19.4316 11.6011C19.3744 12.2007 19.4607 12.401 19.4674 12.5333C19.4732 12.6488 19.5305 12.7649 19.5851 12.9436C19.6332 13.1011 19.7022 13.2489 19.7616 13.3789C19.8392 13.5487 20.0035 13.7882 20.2073 14.0702C20.3578 14.2784 20.6077 14.3635 20.8073 14.3885C21.2152 14.4394 21.7696 14.4065 21.9599 14.3257C22.0909 14.2236 22.1974 14.1608 22.291 14.0974C22.3314 14.0718 22.3578 14.0595 22.4258 13.9886" stroke="#131313" stroke-width="0.627541" stroke-linecap="round"/>
<path d="M22.8765 9.1875C22.909 9.44868 22.947 9.77254 22.9853 10.079C23.005 10.237 23.0431 10.4002 23.0674 10.611C23.0826 10.7425 23.1169 11.1167 23.1831 11.6245C23.2194 11.9032 23.232 12.0494 23.2536 12.2372C23.2754 12.4259 23.3152 12.663 23.3252 12.7947C23.3373 12.9557 23.3742 13.1892 23.4048 13.4178C23.4363 13.6534 23.4517 13.784 23.4678 13.9226C23.4734 13.9623 23.4788 14.008 23.4812 14.0445C23.4837 14.0811 23.483 14.1071 23.502 14.1344" stroke="#131313" stroke-width="0.627541" stroke-linecap="round"/>
<path d="M22.9 9.05698C23.0827 9.06156 23.4907 9.03273 23.8762 8.97986C24.3324 8.91729 24.6469 8.86406 24.7551 8.8505C25.1522 8.80068 25.2671 8.76796 25.4642 8.76294C25.6436 8.75836 25.7416 8.73369 25.7965 8.76762C25.9803 8.88105 25.862 9.17618 25.8897 9.39089C25.9063 9.51991 25.9371 9.84714 25.9579 10.0799C25.9718 10.2355 26.0028 10.39 26.0218 10.548C26.0565 10.838 26.0842 11.0615 26.109 11.2669C26.1488 11.5971 26.1575 11.82 26.2204 12.1929C26.2531 12.3867 26.2758 12.612 26.3156 12.8566C26.3449 13.0365 26.3592 13.2192 26.3943 13.3912C26.3974 13.535 26.4011 13.6483 26.4096 13.701C26.4123 13.7275 26.4117 13.7535 26.411 13.7803" stroke="#131313" stroke-width="0.627541" stroke-linecap="round"/>
<path d="M26.8778 8.50573C26.8936 8.91996 26.9292 9.06524 26.9811 9.35847C27.0384 9.68272 27.0607 9.86384 27.1778 10.4144C27.2073 10.5532 27.2445 10.6369 27.3077 10.8644C27.4722 11.457 27.5689 11.8824 27.5863 11.9747C27.6406 12.2641 27.7606 12.6168 27.813 12.7662C27.8619 12.9056 27.9395 13.0813 28.0289 13.3235C28.0772 13.4543 28.1455 13.5342 28.1774 13.5712C28.2073 13.606 28.3251 13.4287 28.4631 13.1598C28.5827 12.927 28.682 12.5772 28.7788 12.1237C28.8676 11.7073 28.8917 11.2999 28.9734 10.9182C29.0516 10.5526 29.1268 10.3247 29.1436 10.1779C29.17 9.94723 29.1801 9.77355 29.1965 9.50985C29.2377 8.85015 29.2396 8.44617 29.2571 8.53182C29.2665 8.5775 29.2614 8.63016 29.2959 8.941C29.3304 9.25185 29.4008 9.81992 29.4463 10.1356C29.4986 10.4991 29.5523 10.6559 29.5899 10.8571C29.6752 11.3124 29.7529 11.845 29.8029 12.0661C29.8818 12.4516 30.0005 12.9685 30.05 13.1019C30.056 13.1284 30.0554 13.1545 30.0547 13.1813" stroke="#131313" stroke-width="0.627541" stroke-linecap="round"/>
<path d="M33.4579 9.2295C33.4525 9.18361 33.4172 9.02571 33.3495 8.84274C33.296 8.6981 33.1527 8.57803 33.0235 8.48258C32.8317 8.34085 32.6343 8.2952 32.4539 8.25764C32.1741 8.19941 31.7873 8.23413 31.6193 8.36751C31.4903 8.46999 31.2984 8.88267 31.1421 9.29534C31.0924 9.42649 31.1029 9.53816 31.0797 9.67891C31.0683 9.74813 31.051 10.0345 31.0468 10.4614C31.0443 10.7197 31.0698 10.8589 31.0792 10.9999C31.1114 11.4775 31.2296 11.816 31.301 11.9823C31.4013 12.216 31.5808 12.4754 31.8078 12.728C31.9125 12.8446 32.1149 12.9168 32.3731 12.9861C32.6959 13.0727 33.1092 13.0671 33.3557 13.0243C33.5864 12.9842 33.7527 12.6564 33.8538 12.57C33.9749 12.4645 34.0443 12.3221 34.1848 11.9483C34.2202 11.8594 34.241 11.8079 34.2635 11.7153" stroke="#131313" stroke-width="0.627541" stroke-linecap="round"/>
<path d="M35.2806 12.977C35.283 12.8798 35.2802 12.8004 35.2875 12.2137C35.2945 11.6563 35.3261 10.5719 35.3543 9.93335C35.3825 9.29474 35.4108 9.13487 35.4257 9.04035C35.459 8.82945 35.4979 8.61357 35.5263 8.46653C35.5358 8.41724 35.5578 8.38341 35.5951 8.3598C35.6828 8.30427 35.7557 8.32924 35.7923 8.33746C35.8804 8.35725 35.9238 8.48062 36.0778 8.77232C36.1998 9.00352 36.3965 9.46186 36.5122 9.73432C36.6589 10.0797 36.6907 10.2443 36.7363 10.3829C36.8011 10.5795 36.8592 10.7794 36.9182 10.9723C36.9831 11.185 37.0258 11.3883 37.0781 11.5487C37.2018 11.928 37.2207 12.0421 37.2705 12.2177C37.2794 12.2601 37.2835 12.2894 37.2946 12.3339C37.3058 12.3784 37.3238 12.4372 37.3412 12.5421" stroke="#131313" stroke-width="0.627541" stroke-linecap="round"/>
<path d="M35.4553 11.3025C35.4754 11.2739 35.5891 11.2179 35.7894 11.1517C35.9742 11.1191 36.1869 11.0852 36.3844 11.046C36.4596 11.0328 36.4839 11.0334 36.5089 11.034" stroke="#131313" stroke-width="0.627541" stroke-linecap="round"/>
<path d="M37.8875 8.0625C37.9073 8.16379 37.9645 8.5755 38.0435 9.14565C38.0727 9.35665 38.091 9.40704 38.1327 9.64962C38.1745 9.8922 38.2421 10.325 38.2787 10.5845C38.3441 11.0467 38.3516 11.2071 38.3943 11.4141C38.4345 11.6092 38.4764 11.8478 38.5157 12.1045C38.5383 12.2519 38.5429 12.3769 38.5736 12.4993C38.584 12.5364 38.5941 12.5814 38.6017 12.6187C38.6094 12.656 38.6143 12.6841 38.635 12.7643" stroke="#131313" stroke-width="0.627541" stroke-linecap="round"/>
<path d="M38.2281 10.3796C38.3584 10.3603 38.4829 10.3409 38.6219 10.3217C38.9512 10.2763 39.158 10.2672 39.4185 10.2315C39.5833 10.2089 40.0132 10.1196 40.2653 10.0885C40.4467 10.0789 40.5599 10.0761 40.6223 10.0664C40.6509 10.0615 40.6734 10.0564 40.731 10.0351" stroke="#131313" stroke-width="0.627541" stroke-linecap="round"/>
<path d="M40.4622 7.89062C40.4585 8.03713 40.4744 8.29646 40.4866 8.49292C40.4949 8.62569 40.5437 8.9087 40.6053 9.26886C40.6754 9.67884 40.7133 9.8248 40.7845 10.134C40.8508 10.4224 40.89 10.672 40.9334 10.8506C41.0331 11.2601 41.0474 11.3888 41.0815 11.4944C41.1229 11.6225 41.1286 11.7526 41.16 11.8641C41.1905 11.9725 41.2223 12.0776 41.2397 12.1856C41.2466 12.2422 41.2679 12.2939 41.295 12.3397C41.3059 12.3628 41.3109 12.3853 41.3322 12.4428" stroke="#131313" stroke-width="0.627541" stroke-linecap="round"/>
<path d="M41.9506 7.92778C41.9552 7.96726 41.9864 8.06951 42.0257 8.19487C42.0674 8.32812 42.134 8.49707 42.1753 8.65344C42.2027 8.75725 42.299 9.10424 42.4533 9.60263C42.5344 9.86473 42.5383 9.97271 42.6023 10.2211C42.6587 10.4405 42.7518 10.8524 42.8038 11.0755C42.8745 11.3786 42.9293 11.5149 42.9664 11.6235C43.0113 11.7553 43.1532 12.0336 43.294 12.3046C43.3127 12.3406 43.3443 12.3292 43.3972 12.2409C43.4502 12.1525 43.5329 11.981 43.6029 11.8037C43.6729 11.6265 43.7278 11.4487 43.7647 11.2341C43.8434 10.7771 43.843 10.498 43.859 10.4252C43.909 10.1964 43.9038 10.1038 43.9238 9.64449C43.9419 9.22997 43.9567 8.44637 43.9643 8.03153C43.9719 7.61668 43.9669 7.59416 43.964 7.59375C43.7914 7.56904 44.0327 8.10926 44.1174 8.55288C44.1751 8.8551 44.2921 9.40632 44.3535 9.71295C44.4238 10.0636 44.4653 10.2518 44.5327 10.4935C44.6093 10.7681 44.6399 10.9751 44.6722 11.1457C44.7018 11.3017 44.7585 11.4307 44.8076 11.61C44.8572 11.7785 44.9217 11.9042 44.9757 12.0132C44.9919 12.042 45.0135 12.0761 45.0522 12.1287" stroke="#131313" stroke-width="0.627541" stroke-linecap="round"/>
<path d="M45.739 7.73438C45.7578 7.88043 45.7798 8.12956 45.8037 8.41835C45.8342 8.789 45.8845 9.14584 45.9231 9.40234C45.9539 9.60787 45.9986 9.96773 46.028 10.1727C46.063 10.4177 46.1058 10.688 46.1529 11.065C46.1905 11.3661 46.2468 11.6029 46.2822 11.783C46.2884 11.8142 46.292 11.8426 46.3083 11.8658C46.3246 11.889 46.3522 11.9065 46.6272 11.8969C46.9023 11.8872 47.4239 11.8499 47.704 11.8281C48.0689 11.7972 48.1709 11.7941 48.2837 11.7745C48.374 11.7598 48.5314 11.7358 48.6936 11.711" stroke="#131313" stroke-width="0.627541" stroke-linecap="round"/>
<path d="M46.1141 9.68919C46.9182 9.63587 47.1771 9.63099 47.3934 9.62233C47.6759 9.60413 47.9889 9.5665 48.1072 9.56106C48.1864 9.55465 48.3043 9.5408 48.4597 9.52739" stroke="#131313" stroke-width="0.627541" stroke-linecap="round"/>
<path d="M45.7236 7.67587C46.0539 7.67855 46.3842 7.68123 46.7502 7.68472C47.1163 7.68821 47.5082 7.69243 47.9632 7.68109" stroke="#131313" stroke-width="0.627541" stroke-linecap="round"/>
<path d="M13.02 19.8281C13.02 19.9704 13.02 20.1127 13.1307 21.4033C13.2413 22.6939 13.4627 25.1284 13.6636 26.9517C13.8646 28.775 14.0385 29.9133 14.1281 30.555C14.2651 31.6427 14.3614 32.2185 14.4011 32.6334C14.4093 32.7301 14.4093 32.7934 14.4093 32.8585" stroke="#131313" stroke-width="0.627541" stroke-linecap="round"/>
<path d="M12.7327 19.8781C13.0172 19.8781 13.2745 19.8781 14.1852 19.8623C14.9852 19.8484 16.4712 19.8149 17.2684 19.7907C18.0656 19.7665 18.1288 19.7507 18.3115 19.7425C18.4943 19.7344 18.7947 19.7344 19.1042 19.7344" stroke="#131313" stroke-width="0.627541" stroke-linecap="round"/>
<path d="M20.2309 20.3938C20.0872 21.0477 20.0556 21.4611 19.9519 22.2571C19.7943 23.4665 19.8798 24.4006 19.8558 24.9638C19.7705 26.9704 19.8956 27.2271 20.0304 27.7442C20.3676 29.0373 20.6448 29.5419 20.9557 30.0444C21.5505 31.0058 22.1299 31.14 22.4092 31.3314C22.6901 31.5239 23.0243 31.5717 23.2315 31.5956C23.6035 31.6386 24.0452 31.1113 24.4692 30.5043C24.8241 29.9963 25.1145 28.9613 25.3245 28.2041C25.3878 27.9761 25.5317 27.3296 25.6515 26.0726C25.8037 24.4744 25.6764 23.4449 25.6208 23.1587C25.4704 22.3837 25.2783 21.9766 25.0467 21.4345C24.8029 20.8641 24.4165 20.2846 24.066 19.8144C23.7522 19.3933 23.3942 19.1808 23.147 19.0692C22.678 18.8574 21.8779 19.0831 21.4461 19.2991C21.0692 19.4877 20.8068 19.7538 20.5354 19.9301C20.3272 20.1538 20.2151 20.3133 20.1912 20.4407C20.183 20.5049 20.183 20.5682 20.1351 20.6812" stroke="#131313" stroke-width="0.627541" stroke-linecap="round"/>
<path d="M42.4724 18.6086C42.3287 19.2625 42.297 19.676 42.1933 20.4719C42.0357 21.6813 42.1212 22.6155 42.0973 23.1786C42.0119 25.1853 42.137 25.4419 42.2719 25.9591C42.6091 27.2521 42.8863 27.7567 43.1972 28.2593C43.792 29.2206 44.3714 29.3549 44.6507 29.5463C44.9315 29.7387 45.2658 29.7865 45.473 29.8105C45.8449 29.8535 46.2866 29.3261 46.7106 28.7192C47.0655 28.2111 47.3559 27.1761 47.566 26.419C47.6292 26.1909 47.7732 25.5444 47.8929 24.2874C48.0452 22.6893 47.9178 21.6598 47.8623 21.3735C47.7118 20.5986 47.5197 20.1914 47.2881 19.6494C47.0444 19.0789 46.6579 18.4994 46.3075 18.0292C45.9937 17.6081 45.6356 17.3957 45.3884 17.284C44.9195 17.0723 44.1194 17.2979 43.6875 17.514C43.3106 17.7025 43.0482 17.9686 42.7768 18.1449C42.5687 18.3686 42.4566 18.5281 42.4326 18.6556C42.4245 18.7198 42.4245 18.783 42.3766 18.8961" stroke="#131313" stroke-width="0.627541" stroke-linecap="round"/>
<path d="M26.7578 18.9766C26.7894 18.9766 26.8373 19.6722 26.9011 20.813C26.9358 21.4345 27.029 22.4493 27.0927 23.7741C27.1309 24.5697 27.2522 25.1047 27.2927 25.6099C27.3482 26.3022 27.3643 27.0075 27.3885 27.3745C27.4172 27.8092 27.508 28.2195 27.5322 28.5965C27.5401 28.6689 27.5559 28.7321 27.5799 29.1046C27.6038 29.4771 27.6355 30.1568 27.668 30.8572" stroke="#131313" stroke-width="0.627541" stroke-linecap="round"/>
<path d="M26.7578 18.7839C28.4926 18.7839 31.4377 17.8146 31.4377 21.2175C31.4377 23.9999 27.8822 23.656 27.3136 23.9999C26.9178 24.2394 31.3397 23.4893 31.7319 23.4945C33.9704 23.5241 34.2004 26.4074 34.0718 28.0125C33.8746 30.4748 29.5581 30.5209 27.7638 30.5209" stroke="#131313" stroke-width="0.627541" stroke-linecap="round"/>
<path d="M34.3511 18.0352C34.6356 19.458 34.8613 20.6968 34.981 21.5344C35.1029 22.3866 35.1176 23.095 35.2287 23.9535C35.3002 24.5057 35.3399 25.52 35.3961 26.223C35.5357 27.9657 35.5803 28.7325 35.6045 29.0284C35.6445 29.4832 35.6603 29.8353 35.6843 29.9707C35.6924 30.0428 35.6924 30.1218 35.7883 30.2512" stroke="#131313" stroke-width="0.627541" stroke-linecap="round"/>
<path d="M34.7344 23.4941C34.7976 23.4941 35.7945 23.3676 37.3505 23.1523C38.4696 22.9513 38.9482 22.8718 39.2672 22.7841C39.3966 22.7439 39.4598 22.7123 39.6208 22.6797" stroke="#131313" stroke-width="0.627541" stroke-linecap="round"/>
<path d="M39.4292 17.793C39.4292 18.204 39.445 18.9849 39.4848 19.9104C39.5056 20.396 39.6203 21.1718 39.7159 22.2882C39.7793 23.0287 39.8762 23.729 39.9159 24.4943C39.9621 25.3823 40.0836 25.7904 40.1078 26.1911C40.1312 26.5784 40.2273 26.988 40.2673 27.5076C40.3288 28.3064 40.4189 28.5862 40.475 28.882C40.4831 29.0806 40.5147 29.321 40.5706 29.5522C40.5948 29.6569 40.6106 29.7359 40.6268 29.9611" stroke="#131313" stroke-width="0.627541" stroke-linecap="round"/>
<path d="M12.2607 6.80371C12.2743 6.07699 12.3989 5.63247 12.5411 5.47576C12.6967 5.30421 12.9467 5.34028 13.1824 5.29159C13.4482 5.23666 13.6472 5.2637 13.8382 5.32239C13.9973 5.37125 14.0984 5.50594 14.2338 5.66192C14.4047 5.85866 14.5013 6.12985 14.5636 6.28635C14.6259 6.44281 14.6332 6.93149 14.5504 7.33002C14.5014 7.56569 14.2798 7.69817 14.1689 7.78152C14.023 7.858 13.8024 7.88589 13.5218 7.87215C13.406 7.85842 13.3442 7.83094 13.2805 7.80264" stroke="#131313" stroke-width="0.627541" stroke-linecap="round"/>
<path d="M14.9731 6.79199C14.9867 6.06527 15.1113 5.62075 15.2535 5.46405C15.4091 5.29249 15.6591 5.32857 15.8948 5.27987C16.1606 5.22495 16.3596 5.25198 16.5506 5.31067C16.7097 5.35954 16.8108 5.49422 16.9462 5.6502C17.1171 5.84694 17.2137 6.11813 17.276 6.27463C17.3383 6.43109 17.3456 6.91977 17.2628 7.3183C17.2138 7.55397 16.9922 7.68645 16.8813 7.7698C16.7354 7.84628 16.5148 7.87417 16.2342 7.86043C16.1184 7.8467 16.0566 7.81923 15.9929 7.79092" stroke="#131313" stroke-width="0.627541" stroke-linecap="round"/>
<path d="M17.6289 6.58496C17.6424 5.85824 17.7671 5.41372 17.9092 5.25701C18.0648 5.08546 18.3148 5.12153 18.5505 5.07284C18.8163 5.01791 19.0153 5.04495 19.2064 5.10364C19.3655 5.1525 19.4665 5.28719 19.602 5.44317C19.7729 5.63991 19.8694 5.9111 19.9317 6.0676C19.9941 6.22406 20.0014 6.71274 19.9185 7.11127C19.8696 7.34694 19.648 7.47942 19.5371 7.56277C19.3912 7.63925 19.1706 7.66714 18.8899 7.6534C18.7741 7.63967 18.7123 7.61219 18.6486 7.58389" stroke="#131313" stroke-width="0.627541" stroke-linecap="round"/>
<path d="M20.2844 6.41699C20.298 5.69027 20.4226 5.24575 20.5647 5.08905C20.7204 4.91749 20.9704 4.95357 21.206 4.90487C21.4718 4.84995 21.6709 4.87698 21.8619 4.93567C22.021 4.98454 22.122 5.11922 22.2575 5.2752C22.4284 5.47194 22.5249 5.74313 22.5873 5.89963C22.6496 6.05609 22.6569 6.54477 22.574 6.9433C22.5251 7.17897 22.3035 7.31145 22.1926 7.3948C22.0467 7.47128 21.8261 7.49917 21.5455 7.48543C21.4297 7.4717 21.3678 7.44423 21.3042 7.41592" stroke="#131313" stroke-width="0.627541" stroke-linecap="round"/>
<path d="M23.0645 6.25293C23.078 5.52621 23.2026 5.08169 23.3448 4.92498C23.5004 4.75343 23.7504 4.7895 23.9861 4.74081C24.2519 4.68588 24.4509 4.71292 24.6419 4.77161C24.801 4.82047 24.9021 4.95516 25.0375 5.11114C25.2084 5.30788 25.305 5.57907 25.3673 5.73557C25.4296 5.89203 25.4369 6.38071 25.3541 6.77924C25.3051 7.01491 25.0835 7.14739 24.9726 7.23074C24.8267 7.30722 24.6061 7.3351 24.3255 7.32137C24.2097 7.30763 24.1479 7.28016 24.0842 7.25186" stroke="#131313" stroke-width="0.627541" stroke-linecap="round"/>
<path d="M25.8447 6.08496C25.8583 5.35824 25.9829 4.91372 26.1251 4.75701C26.2807 4.58546 26.5307 4.62153 26.7663 4.57284C27.0321 4.51791 27.2312 4.54495 27.4222 4.60364C27.5813 4.6525 27.6823 4.78719 27.8178 4.94317C27.9887 5.13991 28.0852 5.4111 28.1476 5.5676C28.2099 5.72406 28.2172 6.21274 28.1344 6.61127C28.0854 6.84694 27.8638 6.97942 27.7529 7.06277C27.607 7.13925 27.3864 7.16714 27.1058 7.1534C26.99 7.13967 26.9281 7.11219 26.8645 7.08389" stroke="#131313" stroke-width="0.627541" stroke-linecap="round"/>
<path d="M28.459 6.08496C28.4725 5.35824 28.5972 4.91372 28.7393 4.75701C28.8949 4.58546 29.1449 4.62153 29.3806 4.57284C29.6464 4.51791 29.8454 4.54495 30.0365 4.60364C30.1955 4.6525 30.2966 4.78719 30.4321 4.94317C30.603 5.13991 30.6995 5.4111 30.7618 5.5676C30.8241 5.72406 30.8314 6.21274 30.7486 6.61127C30.6996 6.84694 30.4781 6.97942 30.3671 7.06277C30.2213 7.13925 30.0007 7.16714 29.72 7.1534C29.6042 7.13967 29.5424 7.11219 29.4787 7.08389" stroke="#131313" stroke-width="0.627541" stroke-linecap="round"/>
<path d="M30.8242 5.87793C30.8377 5.15121 30.9624 4.70669 31.1045 4.54998C31.2601 4.37843 31.5101 4.4145 31.7458 4.36581C32.0116 4.31088 32.2106 4.33792 32.4017 4.39661C32.5608 4.44547 32.6618 4.58016 32.7973 4.73614C32.9682 4.93288 33.0647 5.20407 33.1271 5.36057C33.1894 5.51703 33.1967 6.00571 33.1138 6.40424C33.0649 6.63991 32.8433 6.77239 32.7324 6.85574C32.5865 6.93222 32.3659 6.9601 32.0853 6.94637C31.9694 6.93263 31.9076 6.90516 31.844 6.87686" stroke="#131313" stroke-width="0.627541" stroke-linecap="round"/>
<path d="M33.4385 5.71387C33.452 4.98715 33.5767 4.54263 33.7188 4.38592C33.8744 4.21437 34.1244 4.25044 34.3601 4.20174C34.6259 4.14682 34.8249 4.17386 35.016 4.23254C35.175 4.28141 35.2761 4.4161 35.4116 4.57207C35.5825 4.76881 35.679 5.04001 35.7413 5.19651C35.8036 5.35297 35.8109 5.84165 35.7281 6.24018C35.6791 6.47584 35.4576 6.60833 35.3466 6.69167C35.2008 6.76816 34.9802 6.79604 34.6995 6.78231C34.5837 6.76857 34.5219 6.7411 34.4582 6.7128" stroke="#131313" stroke-width="0.627541" stroke-linecap="round"/>
<path d="M35.8037 5.71387C35.8172 4.98715 35.9419 4.54263 36.084 4.38592C36.2396 4.21437 36.4896 4.25044 36.7253 4.20174C36.9911 4.14682 37.1901 4.17386 37.3812 4.23254C37.5403 4.28141 37.6413 4.4161 37.7768 4.57207C37.9477 4.76881 38.0442 5.04001 38.1066 5.19651C38.1689 5.35297 38.1762 5.84165 38.0933 6.24018C38.0444 6.47584 37.8228 6.60833 37.7119 6.69167C37.566 6.76816 37.3454 6.79604 37.0648 6.78231C36.9489 6.76857 36.8871 6.7411 36.8235 6.7128" stroke="#131313" stroke-width="0.627541" stroke-linecap="round"/>
<path d="M38.2104 5.5459C38.224 4.81918 38.3486 4.37466 38.4908 4.21795C38.6464 4.0464 38.8964 4.08247 39.1321 4.03377C39.3979 3.97885 39.5969 4.00589 39.7879 4.06457C39.947 4.11344 40.0481 4.24813 40.1835 4.40411C40.3544 4.60084 40.451 4.87204 40.5133 5.02854C40.5756 5.185 40.5829 5.67368 40.5001 6.07221C40.4511 6.30787 40.2295 6.44036 40.1186 6.52371C39.9727 6.60019 39.7521 6.62807 39.4715 6.61434C39.3557 6.6006 39.2939 6.57313 39.2302 6.54483" stroke="#131313" stroke-width="0.627541" stroke-linecap="round"/>
<path d="M40.5754 5.5459C40.589 4.81918 40.7136 4.37466 40.8558 4.21795C41.0114 4.0464 41.2614 4.08247 41.4971 4.03377C41.7629 3.97885 41.9619 4.00589 42.1529 4.06457C42.312 4.11344 42.4131 4.24813 42.5485 4.40411C42.7194 4.60084 42.816 4.87204 42.8783 5.02854C42.9406 5.185 42.9479 5.67368 42.8651 6.07221C42.8161 6.30787 42.5945 6.44036 42.4836 6.52371C42.3377 6.60019 42.1171 6.62807 41.8365 6.61434C41.7207 6.6006 41.6589 6.57313 41.5952 6.54483" stroke="#131313" stroke-width="0.627541" stroke-linecap="round"/>
<path d="M42.9819 5.38574C42.9955 4.65902 43.1201 4.2145 43.2623 4.0578C43.4179 3.88624 43.6679 3.92232 43.9035 3.87362C44.1694 3.8187 44.3684 3.84573 44.5594 3.90442C44.7185 3.95329 44.8195 4.08797 44.955 4.24395C45.1259 4.44069 45.2224 4.71188 45.2848 4.86838C45.3471 5.02484 45.3544 5.51352 45.2716 5.91205C45.2226 6.14772 45.001 6.2802 44.8901 6.36355C44.7442 6.44003 44.5236 6.46792 44.243 6.45418C44.1272 6.44045 44.0654 6.41298 44.0017 6.38467" stroke="#131313" stroke-width="0.627541" stroke-linecap="round"/>
<path d="M45.3472 5.13574C45.3607 4.40902 45.4854 3.9645 45.6275 3.8078C45.7831 3.63624 46.0331 3.67232 46.2688 3.62362C46.5346 3.5687 46.7336 3.59573 46.9246 3.65442C47.0837 3.70329 47.1848 3.83797 47.3203 3.99395C47.4911 4.19069 47.5877 4.46188 47.65 4.61838C47.7123 4.77484 47.7196 5.26352 47.6368 5.66205C47.5878 5.89772 47.3663 6.0302 47.2553 6.11355C47.1094 6.19003 46.8888 6.21792 46.6082 6.20418C46.4924 6.19045 46.4306 6.16298 46.3669 6.13467" stroke="#131313" stroke-width="0.627541" stroke-linecap="round"/>
<path d="M8.55299 6.78906C8.51647 6.78906 8.44286 6.84386 8.35071 6.9634C8.15939 7.2116 8.258 7.54453 8.23033 8.49565C8.20532 9.35514 8.22092 10.981 8.23005 11.8823C8.24349 13.209 8.36814 13.6874 8.40522 14.3958C8.44866 15.2256 8.55299 15.5138 8.654 16.3874C8.76816 17.3748 8.77438 17.7088 8.91219 18.5282C9.04285 19.3051 9.12417 20.2337 9.17093 21.3688C9.18901 21.8076 9.25367 22.1365 9.31843 22.7259C9.40932 23.5533 9.38318 24.4743 9.42912 25.1528C9.47096 25.7708 9.56693 26.3229 9.6137 27.0155C9.65855 27.6798 9.8813 29.0658 9.92723 29.8022C9.96007 30.3285 9.99199 30.952 10.0379 31.6729C10.1249 33.0383 10.1757 33.5544 10.2684 34.1098C10.3306 34.4819 10.4159 34.8472 10.4898 35.3182C10.5475 35.6856 10.6561 36.0471 10.7571 36.361C10.8952 36.7898 10.9871 37.2094 11.1078 37.505C11.2644 37.837 11.3939 38.1326 11.4581 38.225C11.504 38.2444 11.5771 38.2078 11.6524 38.1702" stroke="#131313" stroke-width="0.627541" stroke-linecap="round"/>
<path d="M8.27667 8.23438C8.25841 8.41812 8.22133 8.74909 8.16626 9.16446C8.10093 9.6572 7.99994 10.2069 7.90807 10.6583C7.8366 11.0094 7.87099 11.3326 7.84332 12.3297C7.81869 13.2169 7.83391 14.8792 7.82478 15.7811C7.81302 16.9423 7.74203 17.2358 7.71408 17.5956C7.69757 17.8081 7.66787 18.9792 7.677 20.6208C7.68178 21.4804 7.75974 21.9945 7.84276 22.53C7.9596 23.2835 7.98113 24.1707 8.05501 24.6154C8.11677 24.987 8.16598 25.6086 8.22105 26.1922C8.27768 26.7923 8.3132 27.1981 8.34115 27.9528C8.36734 28.6597 8.49806 29.2083 8.55313 29.6884C8.64961 30.5296 8.64528 31.7918 8.67323 32.1424C8.70281 32.5136 8.75597 32.8799 8.79305 33.2034C8.83857 33.6005 9.0327 33.9503 9.08805 34.4202C9.15293 34.9711 9.49318 35.479 9.72397 36.1542C9.89134 36.6438 10.1939 37.0486 10.6272 37.5843C10.7296 37.6961 10.8027 37.7692 10.8768 37.8433C10.951 37.9175 11.024 37.9906 11.1547 38.0658" stroke="#131313" stroke-width="0.627541" stroke-linecap="round"/>
<path d="M7.99994 13.375C7.90806 13.4663 7.8339 13.8709 7.77883 14.2223C7.70414 14.699 7.5771 15.5102 7.45589 16.0211C7.37259 16.3722 7.3546 16.8596 7.32665 17.2019C7.29269 17.6179 7.24391 18.2421 7.20683 19.0723C7.17353 19.8178 7.07787 20.2534 7.04992 21.3592C7.04237 21.6581 7.00371 22.7002 6.99458 24.2034C6.99133 24.7387 6.96718 24.8117 6.95778 25.7351C6.94837 26.6586 6.94837 28.4302 6.9575 29.3794C6.9693 30.6056 7.04024 31.0104 7.07732 31.7468C7.10689 32.334 7.3535 32.7262 7.46446 33.0308C7.60292 33.411 7.94238 33.8685 8.22962 34.2576C8.4988 34.6222 8.73715 34.8293 8.99506 35.0789C9.27234 35.4016 9.49317 35.7702 9.76077 36.1485C9.8258 36.2323 9.88059 36.2871 9.99239 36.4543" stroke="#131313" stroke-width="0.627541" stroke-linecap="round"/>
<path d="M49.5428 111.981C49.5096 112.367 49.3284 113.189 48.7013 115.797C48.1672 118.019 47.3962 122.111 46.9661 124.296C46.5219 126.645 46.461 127.032 46.3825 127.458C46.3504 127.666 46.3339 127.858 46.2193 128.216" stroke="#FF0404" stroke-width="1.0459" stroke-linecap="round"/>
<path d="M47.7407 119.293C47.8506 119.302 48.2345 119.363 48.8517 119.486C49.1415 119.553 49.3841 119.629 50.5344 119.811C51.6848 119.994 53.7357 120.281 55.8487 120.577" stroke="#FF0404" stroke-width="1.0459" stroke-linecap="round"/>
<path d="M55.3856 130.848C55.3212 130.954 55.3235 130.596 55.4246 129.74C55.5327 128.827 56.0274 127.253 56.5765 125.415C56.7944 124.686 56.8374 124.355 57.2038 123.316C57.5703 122.277 58.2456 120.536 58.6406 119.574C59.2134 118.18 59.861 117.43 60.3365 116.643C60.8564 115.783 61.3377 115.234 62.1548 114.493C62.3321 114.333 62.4274 114.264 62.5319 114.188C62.6365 114.113 62.7535 114.04 62.8557 114.158C63.1621 114.513 63.1824 115.246 63.1439 117.642C63.1108 119.702 62.8104 123.471 62.6913 125.677C62.5723 127.883 62.5824 128.409 62.5581 129.024C62.5338 129.639 62.4748 130.325 62.414 131.033" stroke="#FF0404" stroke-width="1.0459" stroke-linecap="round"/>
<path d="M57.4255 122.723C57.6131 122.794 57.8007 122.866 58.2909 122.992C58.7812 123.118 59.5684 123.296 60.481 123.445C61.3935 123.594 62.4076 123.709 63.4524 123.827" stroke="#FF0404" stroke-width="1.0459" stroke-linecap="round"/>
<path d="M74.834 120.195C74.8206 119.385 74.3039 118.282 73.5083 117.441C72.955 116.856 72.2244 116.757 71.0515 116.613C70.2502 116.515 69.3212 117.089 68.5993 117.463C68.0727 117.736 67.5243 118.111 66.6745 119.056C65.9637 119.847 65.5816 120.85 65.1857 121.724C65.0362 122.054 64.9509 122.335 64.7944 122.697C64.5614 123.237 64.35 125.093 64.1953 127.538C64.0771 129.406 64.8267 130.262 65.2466 130.899C65.8057 131.748 67.0132 132.377 68.8327 133.04C69.5994 133.319 70.6242 133.334 71.734 133.291C72.9227 133.244 73.8064 132.41 74.5708 131.858C74.7061 131.757 74.8231 131.684 74.9155 131.594C75.008 131.504 75.0723 131.399 75.2291 131.214" stroke="#FF0404" stroke-width="1.0459" stroke-linecap="round"/>
<path d="M80.9362 119.604C80.7118 121.183 80.5792 122.194 80.3523 123.543C80.1584 124.696 79.7404 126.79 79.4542 128.662C79.1679 130.534 79.0095 132.118 78.9113 133C78.813 133.881 78.7796 134.012 78.7338 134.279" stroke="#FF0404" stroke-width="1.0459" stroke-linecap="round"/>
<path d="M76.7815 118.641C79.0882 119.13 80.5471 119.389 81.6517 119.552C82.2017 119.633 83.1249 119.745 83.9456 119.916C84.7663 120.087 85.4582 120.302 85.8577 120.428C86.2572 120.553 86.3434 120.583 86.4991 120.619" stroke="#FF0404" stroke-width="1.0459" stroke-linecap="round"/>
<path d="M92.5996 122.419C91.8275 124.367 91.4732 125.367 91.1986 126.34C90.9126 127.353 90.6286 128.144 90.4479 128.686C90.3262 129.051 90.233 129.625 90.0161 130.458C89.7992 131.292 89.4842 132.375 89.2681 133.172C88.7503 135.082 88.7036 135.668 88.6089 136.121C88.5888 136.221 88.5813 136.309 88.5701 136.309C88.559 136.309 88.5445 136.219 88.5296 136.127" stroke="#FF0404" stroke-width="1.0459" stroke-linecap="round"/>
<path d="M92.562 122.373C92.4085 122.25 91.814 121.943 91.3097 121.807C91.024 121.73 90.2294 121.622 89.1431 121.574C87.9697 121.522 87.4971 121.974 86.7692 122.241C86.2881 122.417 86.1611 122.995 86.0496 123.326C85.8531 123.908 86.2521 124.691 86.759 125.185C87.2763 125.689 88.5077 126.37 89.274 126.75C90.6884 127.451 91.0049 127.248 91.0781 127.254C91.3143 127.275 90.0861 127.551 89.3176 128.036C88.4377 128.591 87.7881 129.044 87.5503 129.261C87.1804 129.599 86.4198 130.279 85.6159 131.1C85.072 131.655 84.7304 131.973 84.2969 132.422C83.8306 132.904 83.3065 133.593 83.0385 133.929C82.9162 134.074 82.7938 134.211 82.6814 134.348C82.6292 134.417 82.5869 134.486 82.4887 134.553" stroke="#FF0404" stroke-width="1.0459" stroke-linecap="round"/>
<path d="M97.9851 122.059C97.9922 122.822 98.0298 123.454 98.2248 124.365C98.3695 125.04 98.6732 126.132 98.8511 126.772C99.072 127.568 99.1738 127.865 99.2396 128.164C99.308 128.475 99.6083 129.401 99.9344 130.621C100.114 131.291 100.232 131.771 100.329 132.248C100.387 132.532 100.74 133.734 101.129 135.39C101.343 136.299 101.392 136.642 101.602 137.282C101.71 137.62 101.88 138.179 101.964 138.504C102.049 138.828 102.042 138.9 102.036 138.974" stroke="#FF0404" stroke-width="1.0459" stroke-linecap="round"/>
<path d="M104.098 123.3C103.784 124 103.195 125.104 102.502 126.337C102.23 126.822 102.146 127.036 101.393 128.382C100.641 129.729 99.2293 132.205 98.4795 133.533C97.6737 134.96 97.3191 135.61 96.8131 136.483C96.4412 137.263 96.1756 137.791 96.0233 138.071C95.9556 138.213 95.9071 138.354 95.7385 138.599" stroke="#FF0404" stroke-width="1.0459" stroke-linecap="round"/>
<path d="M103.526 138.828L103.511 139.006" stroke="#FF0404" stroke-width="1.0459" stroke-linecap="round"/>
<path d="M57.4368 112.83C57.4047 112.883 57.3725 112.936 56.9678 114.742C56.5631 116.548 55.7869 120.107 55.3777 122.05C54.9232 124.208 54.7815 125.201 54.5507 126.425C54.3755 127.353 54.0926 128.663 53.9254 129.467C53.9016 129.577 53.8922 129.687 53.8677 129.811C53.8432 129.935 53.8039 130.07 53.7563 130.293" stroke="#FF0404" stroke-width="1.0459" stroke-linecap="round"/>
<path d="M9.23244 48.4609C10.7534 48.5295 11.5846 48.6687 14.6484 49.3731C16.4926 49.7971 19.5594 50.7632 22.7946 51.6338C26.0299 52.5045 29.3212 53.3273 31.0853 53.7855C33.323 54.3666 33.9216 54.6592 35.1662 55.2633C36.1224 55.7274 37.0394 56.1137 37.3163 56.2862C37.9148 56.6589 37.3189 58.0149 36.9734 59.1224C36.5546 60.4652 36.3838 61.2356 35.6244 63.4132C35.2938 64.3611 34.7257 66.2121 33.9096 67.9362C33.4083 68.9953 32.8536 70.4426 32.385 71.3668C31.9327 72.2588 31.7087 72.9423 31.3113 73.7729C31.1387 74.1336 31.1196 74.536 30.9991 74.882C30.7171 75.6915 28.1867 74.9557 27.0875 74.6602C26.2395 74.4321 25.3057 74.1236 22.3162 73.5906C19.7763 73.1378 15.144 72.4062 12.6396 71.9834C9.08783 71.3837 7.71145 71.1096 6.76031 70.9029C5.86282 70.7078 4.56765 70.2473 3.43469 69.8811C2.76558 69.6648 2.30797 69.5169 1.97967 69.4478C1.82242 69.4148 1.68565 69.3788 1.61501 69.0182C1.41335 67.9892 1.75007 66.4427 2.11317 65.076C3.48407 59.916 5.57769 53.9865 8.13893 49.3731C8.24282 49.1996 8.37996 48.9939 8.62514 48.6781" stroke="#131313" stroke-width="0.627541" stroke-linecap="round"/>
<path d="M8.62744 48.8086C8.71683 49.0777 9.07708 49.7386 9.43869 50.4762C9.76479 51.1415 10.5506 51.9037 11.0481 52.8824C11.7972 54.3563 12.4773 55.2751 12.8548 55.7744C13.1947 56.224 13.7107 56.9003 14.1486 57.4293C14.7488 58.1545 15.5165 59.0076 16.0293 59.701C16.488 60.3213 17.2301 61.4418 17.8053 62.0946C18.1563 62.4929 18.5863 62.8918 19.0842 63.3432M25.1799 64.68C26.7452 64.3915 27.5808 63.2909 29.5825 62.0399C30.4826 61.4774 31.3458 60.7592 32.0849 60.157C32.716 59.6426 33.4243 59.1629 33.8166 58.8171C34.3681 58.3309 35.0188 57.6587 35.4567 57.2072C35.6815 56.9671 35.9235 56.8145 36.2083 56.7097C36.374 56.6348 36.5826 56.5156 36.7975 56.3928" stroke="#131313" stroke-width="0.627541" stroke-linecap="round"/>
<path d="M22.4841 61.4462C22.1049 61.3984 21.4029 61.4615 20.9893 61.6761C20.6938 61.8295 20.4162 61.9706 20.145 62.1618C19.7858 62.4151 19.3971 62.9248 19.1896 63.2044C18.9388 63.5423 18.7753 64.1664 18.7194 64.6598C18.6564 65.2159 18.9176 65.5992 19.2349 66.1004C19.6547 66.7633 20.1268 66.794 20.4451 66.8824C20.6438 66.9375 20.9224 66.922 21.4764 66.9698C22.4995 67.058 23.5309 66.8127 24.1434 66.5106C24.6387 66.2663 24.7277 65.8733 24.8715 65.5151C25.2364 64.6057 24.9044 63.2629 24.6422 62.7693C24.4422 62.3928 24.062 62.1167 23.7191 61.9085C23.5367 61.7977 23.3604 61.7012 23.1859 61.6219C23.0901 61.5742 22.9798 61.5111 22.7229 61.3984" stroke="#131313" stroke-width="0.627541" stroke-linecap="round"/>
<path d="M9.18215 48.4492C7.40338 48.4492 5.31941 51.8644 4.44431 54.2737C3.52702 56.7992 2.36801 59.5543 1.56159 62.6508C1.0039 64.7922 0.513805 67.2416 1.68137 69.298" stroke="#131313" stroke-width="0.627541" stroke-linecap="round"/>
<path d="M18.2012 62.6328C18.0775 62.8695 18.0127 62.9989 17.9643 63.1684C17.9283 63.2944 17.8782 63.4778 17.859 63.7904C17.8504 63.9316 17.8349 64.0925 17.8267 64.335C17.8218 64.4814 17.8345 64.6638 17.875 64.8096C17.9078 64.9275 17.9584 65.068 18.0258 65.203C18.0914 65.3343 18.1472 65.4347 18.201 65.5158C18.2704 65.6206 18.3302 65.7419 18.4111 65.8472C18.4866 65.9456 18.6368 66.0756 18.8872 66.2967C19.2088 66.4538 19.3002 66.4913 19.3996 66.5451C19.451 66.5721 19.5044 66.5988 19.5593 66.6263" stroke="#131313" stroke-width="0.627541" stroke-linecap="round"/>
<path d="M160.893 76.7031C160.95 77.2165 160.978 77.5742 161.085 78.6727C161.181 79.673 161.403 81.5687 161.512 82.6095C161.622 83.6502 161.622 83.7776 161.629 83.8716C161.636 83.9655 161.65 84.0221 161.665 84.0804" stroke="#131313" stroke-width="0.627541" stroke-linecap="round"/>
<path d="M160.888 76.6279C160.923 76.5924 161.071 76.5036 161.449 76.3968C161.711 76.323 162.134 76.2901 162.549 76.2745C162.965 76.259 163.365 76.2826 163.586 76.3035C163.92 76.3353 164.068 76.4492 164.243 76.6153C164.386 76.75 164.508 76.889 164.636 77.1292C164.691 77.2323 164.699 77.3702 164.716 77.5921C164.743 77.9249 164.675 78.232 164.589 78.4102C164.534 78.5249 164.473 78.5835 164.376 78.684C164.176 78.89 163.956 79.0116 163.732 79.1503C163.559 79.2573 163.272 79.448 163.035 79.5833C162.632 79.8137 162.351 79.9033 162.156 79.9568C162.048 79.9807 161.925 79.9984 161.755 80.0104C161.586 80.0225 161.374 80.0284 161.155 80.0344" stroke="#131313" stroke-width="0.627541" stroke-linecap="round"/>
<path d="M166.091 83.3863C166.109 83.0776 166.115 82.9527 166.13 82.4842C166.143 82.057 166.151 81.2446 166.162 80.7968C166.174 80.3489 166.186 80.2901 166.225 79.7389C166.263 79.1877 166.328 78.1459 166.367 77.5769C166.417 76.8518 166.442 76.7226 166.46 76.5739C166.505 76.1947 166.573 75.9018 166.585 75.8187C166.59 75.7812 166.62 75.7592 166.644 75.7529C166.796 75.7131 166.953 76.0905 167.116 76.3368C167.376 76.7294 167.524 77.0779 167.598 77.2465C167.811 77.7337 167.857 77.8748 167.954 78.1137C168.037 78.3162 168.175 78.6881 168.274 78.9321C168.418 79.2856 168.552 79.6089 168.662 79.9565C168.763 80.2773 168.832 80.615 168.915 80.9149C168.945 81.0237 168.974 81.1619 169.028 81.3251C169.064 81.4372 169.158 81.7074 169.268 82.0729C169.349 82.3629 169.432 82.5773 169.465 82.7021C169.474 82.7321 169.486 82.7556 169.498 82.7799" stroke="#131313" stroke-width="0.627541" stroke-linecap="round"/>
<path d="M166.177 80.1015C166.247 80.0897 166.631 80.0012 167.172 79.8705C167.493 79.7928 167.692 79.733 167.814 79.6944C168.06 79.6499 168.322 79.6021 168.432 79.5843C168.465 79.5784 168.506 79.5725 168.584 79.5664" stroke="#131313" stroke-width="0.627541" stroke-linecap="round"/>
<path d="M171.977 74.8903C171.823 74.8074 171.634 74.7241 171.046 74.7149C170.804 74.7111 170.7 74.8247 170.436 75.0025C170.209 75.1556 170.099 75.2467 169.856 75.5341C169.741 75.6695 169.683 75.7818 169.591 75.9324C169.411 76.2286 169.332 76.4715 169.305 76.5926C169.252 76.8378 169.213 77.0656 169.21 77.1902C169.208 77.28 169.189 77.6691 169.183 78.2248C169.181 78.4685 169.213 78.5816 169.251 78.7474C169.301 78.9593 169.373 79.2465 169.489 79.5638C169.597 79.862 169.706 80.0207 169.754 80.1183C169.949 80.5223 170.211 80.7457 170.336 80.8766C170.45 80.996 170.615 81.1495 170.903 81.3461C171.077 81.4649 171.281 81.5365 171.628 81.6377C171.964 81.7354 172.369 81.6739 172.678 81.576C172.789 81.5408 173.134 81.4194 173.647 81.1997C173.979 81.0389 174.159 80.9251 174.257 80.845C174.296 80.8119 174.314 80.7942 174.385 80.7404" stroke="#131313" stroke-width="0.627541" stroke-linecap="round"/>
<path d="M177.203 74.5936C177.168 74.5227 176.884 74.3097 176.654 74.1956C176.501 74.1199 176.277 74.0236 176.048 73.9429C175.677 73.8126 175.533 73.8506 175.408 73.8416C175.147 73.8229 174.702 73.8503 174.308 73.9271C173.849 74.0166 173.571 74.1831 173.491 74.2454C173.384 74.3285 173.232 74.5327 173.093 74.8237C173.016 74.9828 172.925 75.2949 172.858 75.5468C172.792 75.7986 172.768 75.987 172.756 76.237C172.744 76.4871 172.744 76.7931 172.75 76.992C172.756 77.1908 172.768 77.2732 172.827 77.4952C172.886 77.7172 172.992 78.0762 173.058 78.2876C173.142 78.5541 173.307 78.795 173.542 79.1127C173.767 79.4175 173.873 79.5276 173.992 79.6465C174.161 79.8158 174.331 79.8783 174.565 80.0181C174.728 80.1148 175.143 80.2521 175.401 80.3395C175.532 80.3838 175.651 80.4139 175.952 80.4316C176.217 80.4473 176.711 80.4611 177.034 80.4496C177.494 80.4332 177.743 80.2897 178.006 80.1446C178.158 80.0641 178.347 79.97 178.461 79.9097C178.576 79.8494 178.611 79.8258 178.648 79.8016" stroke="#131313" stroke-width="0.627541" stroke-linecap="round"/>
<path d="M180.019 73.5156C180.062 73.8552 180.08 74.0414 180.126 74.5503C180.17 75.0343 180.24 75.9781 180.308 76.7306C180.377 77.4832 180.438 78.0162 180.494 78.4133C180.585 79.0576 180.65 79.3508 180.656 79.4434C180.662 79.493 180.674 79.5482 180.681 79.595C180.687 79.6418 180.687 79.6785 180.687 79.7164" stroke="#131313" stroke-width="0.627541" stroke-linecap="round"/>
<path d="M178.032 73.5715C178.341 73.4911 178.489 73.4787 179.251 73.4017C179.43 73.3836 179.509 73.3859 179.857 73.3491C180.204 73.3124 180.817 73.2388 181.298 73.201C181.779 73.1631 182.11 73.1631 182.295 73.16C182.481 73.157 182.512 73.1508 182.549 73.1477C182.586 73.1445 182.629 73.1445 182.673 73.1445" stroke="#131313" stroke-width="0.627541" stroke-linecap="round"/>
<path d="M184.072 73.2734C184.072 73.4583 184.072 74.1358 184.067 75.0504C184.066 75.3828 184.053 75.4475 184.049 76.0677C184.044 76.688 184.044 77.8618 184.062 78.7807C184.081 79.6997 184.118 80.3282 184.141 80.6843C184.165 81.0405 184.174 81.1052 184.179 81.1662C184.184 81.2273 184.184 81.2827 184.184 81.3399" stroke="#131313" stroke-width="0.627541" stroke-linecap="round"/>
<path d="M184.156 73.1931C184.65 73.0346 184.874 72.9971 185.033 72.9692C185.355 72.9127 186.066 73.015 186.396 73.1227C186.728 73.2311 186.909 73.3982 187.119 73.5518C187.44 73.786 187.516 74.0138 187.592 74.1961C187.651 74.3399 187.685 74.6843 187.704 75.6171C187.713 76.054 187.406 76.3015 187.27 76.4834C187.167 76.6216 186.939 76.6751 186.757 76.7546C186.578 76.832 186.435 76.8992 186.164 76.9972C185.809 77.0583 185.585 77.0675 185.288 77.0816C185.047 77.0863 184.622 77.0863 184.184 77.0863" stroke="#131313" stroke-width="0.627541" stroke-linecap="round"/>
<path d="M189.163 72.707C189.163 73.026 189.153 73.6501 189.13 74.4217C189.12 74.7337 189.097 74.8836 189.082 75.2049C189.046 76.0136 189.039 76.5823 189.025 76.7334C188.994 77.0648 188.992 77.2922 188.968 77.624C188.952 77.8592 188.954 78.0607 188.94 78.3854C188.909 79.094 188.926 79.5962 188.912 79.7047C188.889 79.8774 188.888 80.0602 188.859 80.2161C188.845 80.2963 188.85 80.3815 189.089 80.425C189.796 80.5536 190.365 80.4591 190.484 80.4402C190.688 80.4022 191.187 80.3832 191.732 80.3879C191.929 80.3925 191.967 80.4019 192.006 80.4116" stroke="#131313" stroke-width="0.627541" stroke-linecap="round"/>
<path d="M189.077 76.3197C189.114 76.3197 189.152 76.3197 189.532 76.315C189.913 76.3103 190.635 76.3009 191.031 76.3008C191.427 76.3006 191.474 76.31 191.554 76.3149C191.634 76.3197 191.747 76.3197 191.863 76.3197" stroke="#131313" stroke-width="0.627541" stroke-linecap="round"/>
<path d="M189.255 72.7031C189.377 72.7219 189.642 72.76 189.865 72.7836C190.031 72.8012 190.183 72.8168 190.429 72.8404C190.713 72.8677 190.94 72.8737 191.423 72.902C191.585 72.9209 191.718 72.9306 191.897 72.9353C192.002 72.9399 192.133 72.9493 192.268 72.959" stroke="#131313" stroke-width="0.627541" stroke-linecap="round"/>
<path d="M193.007 80.9127C193.111 80.6119 193.338 79.9853 193.495 79.5642C193.615 79.2395 193.717 78.7736 193.864 78.3334C193.953 78.0674 194.021 77.8999 194.181 77.4296C194.313 77.0405 194.585 76.3587 194.748 75.959C194.953 75.459 195.12 75.153 195.393 74.6103C195.788 73.8261 196.125 73.3602 196.163 73.2704C196.181 73.2271 196.201 73.1899 196.21 74.2589C196.22 75.3279 196.22 77.5045 196.225 78.6539C196.23 79.8597 196.248 80.0771 196.253 80.3563C196.277 80.6753 196.286 80.8081 196.3 80.9118C196.305 80.9781 196.305 81.0719 196.334 81.197" stroke="#131313" stroke-width="0.627541" stroke-linecap="round"/>
<path d="M201.752 73.1641C201.752 73.8166 201.72 74.4064 201.613 76.3317C201.556 77.5121 201.539 78.7284 201.515 79.337C201.507 79.8808 201.507 80.9017 201.507 81.9534" stroke="#131313" stroke-width="0.627541" stroke-linecap="round"/>
<path d="M201.703 73.2193C201.671 73.1869 201.605 73.0892 201.499 72.9583C201.324 72.7418 200.401 72.7774 199.797 72.867C199.489 72.9128 199.167 73.0386 198.84 73.3406C198.417 73.7309 198.202 74.2308 198.135 75.1638C198.106 75.5637 198.429 75.8041 198.609 76.0582C198.78 76.2997 199.034 76.4434 199.434 76.5985C199.845 76.7576 200.536 76.8038 201.191 76.82C201.393 76.825 201.328 76.8686 201.254 76.9177C200.692 77.2913 200.133 78.0628 199.806 78.3657C199.528 78.6227 199.331 78.979 199.134 79.2498C198.946 79.5073 198.741 79.7323 198.52 80.1086C198.315 80.3711 198.184 80.6004 198.127 80.731C198.102 80.7968 198.086 80.8616 198.02 81.0757" stroke="#131313" stroke-width="0.627541" stroke-linecap="round"/>
<path d="M205.391 72.957C205.391 73.0048 205.391 73.3993 205.385 73.9837C205.383 74.1982 205.367 74.2459 205.361 75.3386C205.355 76.4313 205.355 78.5674 205.361 79.6977C205.367 80.828 205.379 80.8877 205.385 81.0497C205.391 81.2117 205.391 81.4743 205.391 81.7448" stroke="#131313" stroke-width="0.627541" stroke-linecap="round"/>
<path d="M203.077 72.8546C203.414 72.8065 204.167 72.7823 205.317 72.8062C206.123 72.8229 206.655 72.927 207.028 72.9329C207.476 72.987 207.741 73.0354 207.874 73.0414C207.934 73.0474 207.982 73.0593 208.031 73.0716" stroke="#131313" stroke-width="0.627541" stroke-linecap="round"/>
<path d="M208.827 73C208.827 73.1909 208.815 73.349 208.779 74.1793C208.746 74.9496 208.719 76.4297 208.707 77.3233C208.691 78.4794 208.73 78.8097 208.748 78.9717C208.776 79.2158 208.766 79.4483 208.785 79.909C208.791 80.2862 208.791 80.9545 208.791 81.2749C208.791 81.5953 208.791 81.5476 208.791 81.4984" stroke="#131313" stroke-width="0.627541" stroke-linecap="round"/>
<path d="M208.755 78.3467C209.598 78.1902 209.935 78.1182 210.885 78.1055C211.247 78.1007 211.55 78.3815 211.924 78.623C212.38 78.9178 212.551 79.1655 212.672 79.3765C212.836 79.6623 212.841 80.0081 212.871 80.2985C212.892 80.5011 212.866 80.6966 212.83 80.829C212.759 81.0874 212.409 81.2868 211.963 81.4443C211.439 81.6294 210.709 81.5168 210.095 81.5351C209.72 81.5653 209.43 81.5414 209.316 81.5053C209.25 81.493 209.166 81.493 209.08 81.4568" stroke="#131313" stroke-width="0.627541" stroke-linecap="round"/>
<path d="M215.27 79.6382C215.216 79.5908 215.168 79.4687 214.979 79.0668C214.82 78.7277 214.494 78.1325 214.311 77.7697C214.075 77.3046 214.025 77.1543 213.907 76.8C213.801 76.4821 213.633 75.873 213.513 75.3787C213.392 74.8844 213.332 74.5205 213.3 74.2253C213.247 73.7163 213.31 73.4114 213.384 73.2687C213.484 73.0788 213.677 72.9892 213.952 72.8394C214.109 72.7543 214.296 72.7233 214.527 72.6961C214.876 72.6549 215.141 72.6823 215.219 72.7262C215.466 72.8656 215.71 73.3796 215.872 73.7772C215.906 73.8599 215.91 74.0489 215.951 74.57C215.98 74.9419 215.964 75.5357 215.917 76.0972C215.87 76.6587 215.776 77.1708 215.727 77.4481C215.664 77.8058 215.658 77.9292 215.59 78.245C215.542 78.4713 215.475 78.6503 215.315 79.2886C215.284 79.4201 215.277 79.447 215.274 79.4778C215.27 79.5085 215.27 79.5422 215.25 79.6177" stroke="#131313" stroke-width="0.627541" stroke-linecap="round"/>
<path d="M215.495 80.3359C215.379 80.3359 215.162 80.3764 214.941 80.4683C214.818 80.5193 214.74 80.6349 214.698 80.7473C214.652 80.8746 214.657 81.0293 214.705 81.1828C214.744 81.3095 214.882 81.3564 215.004 81.4145C215.183 81.4996 215.46 81.425 215.576 81.3572C215.688 81.2914 215.712 81.1331 215.736 80.9257C215.761 80.7142 215.719 80.5607 215.679 80.5166C215.658 80.4927 215.638 80.4658 215.614 80.4418C215.59 80.4178 215.563 80.3976 215.474 80.3359" stroke="#131313" stroke-width="0.627541" stroke-linecap="round"/>
<path d="M29.4921 92.3368C29.6673 92.2716 30.1315 92.2526 31.4115 92.2272C32.5819 92.2039 34.8107 92.2363 36.0025 92.2216C37.4868 92.2033 37.9668 91.9255 38.4223 91.5972C38.9096 91.246 39.3884 90.4801 39.6139 89.9604C39.8145 89.4983 39.9294 88.8042 39.9887 88.2527C40.0363 87.8092 40.0927 87.4148 40.1158 85.5002C40.1206 85.0962 40.0859 85.0087 40.0315 84.9196C39.7993 84.5397 39.3622 84.4734 38.5595 84.2262C38.0712 84.0758 37.7099 83.9775 37.313 83.9092C36.5451 83.7771 35.7043 83.6569 34.8336 83.6182C34.468 83.602 33.307 83.5319 31.7406 83.5003C30.8465 83.4823 29.7511 83.5986 28.9616 83.6489C28.2221 83.6959 26.8623 83.7137 26.0137 83.7964C25.4924 83.8471 25.1503 84.3417 24.8376 84.7702C24.5048 85.226 24.4786 85.7281 24.2982 86.3222C24.1315 86.8716 24.0922 87.4459 24.0332 88.1292C23.9094 89.5609 24.0768 90.0068 24.1939 90.6362C24.306 91.2389 24.3088 91.7297 24.384 92.1171C24.4708 92.5646 24.5215 93.1425 24.5948 93.7289C24.6743 94.3649 25.0167 95.1331 25.048 95.4869C25.0818 95.8686 25.2952 96.3915 25.4372 96.781C25.5366 97.0537 25.6338 95.3474 25.7047 94.5116C25.7369 94.1318 25.9082 93.7521 26.1193 93.3332C26.3144 92.9462 26.8162 92.9391 27.1813 92.842C27.6128 92.7009 27.9664 92.5932 28.3404 92.4961C28.5829 92.4638 28.9325 92.4659 29.2927 92.468" stroke="#131313" stroke-width="0.627541" stroke-linecap="round"/>
<path d="M0.833605 96.1024C1.31878 96.0172 1.84605 95.976 2.29011 95.9019C2.74133 95.8266 3.30566 95.6988 6.34266 95.4303C7.28007 95.3474 7.67881 95.2609 8.51215 95.1345C9.19278 95.0312 10.3953 94.8395 11.2116 94.7431C12.4164 94.6008 12.9795 94.6087 13.3538 94.5229C13.8533 94.4084 14.6109 94.3974 15.4044 94.3912C15.9368 94.3871 17.2748 94.3472 19.0616 94.3797C20.1242 94.3991 20.548 94.8289 20.834 95.1068C21.1323 95.3966 21.3596 95.7382 21.612 96.0384C21.8634 96.3372 22.0594 96.7356 22.3338 97.1236C22.6854 97.6207 22.8235 98.2617 22.9977 98.6947C23.1866 99.1644 23.3443 99.7439 23.5061 100.429C23.6203 100.913 23.6882 101.358 23.7606 102.194C23.8683 103.436 23.7382 104.164 23.6626 103.976C23.4747 103.511 23.0381 103.321 22.7083 103.12C22.3709 102.914 22.0044 102.807 20.8211 102.667C19.9512 102.565 18.307 102.63 17.4191 102.635C16.2432 102.643 15.8037 102.724 15.0761 102.764C14.1369 102.816 12.6981 102.993 11.2349 103.149C10.3303 103.246 9.36022 103.369 8.30764 103.452C7.46348 103.519 6.46456 103.75 5.82168 103.801C5.028 103.864 3.71085 103.866 2.88491 103.916C2.32918 103.95 1.80579 103.569 1.48706 103.28C0.992878 102.834 0.841266 102.329 0.656288 101.874C0.405847 101.259 0.364179 100.847 0.339596 99.3715C0.309232 98.9701 0.292506 98.006 0.366194 96.6494C0.434637 96.1669 0.566121 96.1021 0.70159 96.0354" stroke="#131313" stroke-width="0.627541" stroke-linecap="round"/>
<path d="M26.2931 85.9785C26.7718 85.8903 27.2505 85.802 28.5844 85.7574C29.9184 85.7128 32.093 85.7145 34.3335 85.7162" stroke="#131313" stroke-width="0.627541" stroke-linecap="round"/>
<path d="M26.6981 87.3958C27.0967 87.3754 27.4954 87.355 29.4543 87.3152C31.4132 87.2754 34.9203 87.2167 36.7668 87.1811C38.6134 87.1454 38.6932 87.1345 38.8788 87.1239" stroke="#131313" stroke-width="0.627541" stroke-linecap="round"/>
<path d="M26.9607 89.6197C27.9969 89.6032 29.0331 89.5866 30.5293 89.5156C32.0256 89.4445 33.9505 89.3194 35.9337 89.1905" stroke="#131313" stroke-width="0.627541" stroke-linecap="round"/>
<path d="M19.1908 96.533C18.9827 96.5755 18.7746 96.618 18.5908 96.6559C18.4069 96.6937 18.2536 96.7256 15.7889 96.9574C13.3241 97.1892 8.55253 97.62 6.0397 97.8525C3.52687 98.085 3.41736 98.1063 3.27345 98.1167C3.12954 98.1271 2.95454 98.126 2.84247 98.1308C2.73041 98.1356 2.6866 98.1463 2.60811 98.1902" stroke="#131313" stroke-width="0.627541" stroke-linecap="round"/>
<path d="M18.9132 98.5492C18.388 98.5789 17.8628 98.6085 16.0709 98.7788C14.279 98.949 11.2364 99.2589 8.10159 99.5781" stroke="#131313" stroke-width="0.627541" stroke-linecap="round"/>
<path d="M18.6394 100.039C18.3987 100.048 18.158 100.058 16.447 100.228C14.736 100.398 11.562 100.729 8.29178 101.07" stroke="#131313" stroke-width="0.627541" stroke-linecap="round"/>
</svg>
