<svg width="214" height="151" viewBox="0 0 214 151" fill="none" xmlns="http://www.w3.org/2000/svg">
<path d="M49.8215 77.9023C50.5394 77.9023 52.845 78.0455 55.2709 78.5151C55.888 78.6246 56.5322 78.6962 58.9755 78.8046C61.4187 78.9131 65.6416 79.0562 70.2094 79.4206" stroke="#131313" stroke-width="1.06175" stroke-linecap="round"/>
<path d="M49.8345 77.9503C49.8345 77.6979 49.8345 75.3384 49.8765 71.6029C49.9016 69.3783 50.4259 67.2569 51.062 64.8802C51.7878 62.1684 53.1461 60.8745 54.4393 59.8955C55.5076 59.0867 56.6719 58.7457 57.3947 58.4487C58.6331 57.9398 61.0824 58.4449 63.4444 59.5475C65.0364 60.2907 65.8905 61.754 66.7216 62.9688C67.2453 63.7342 67.8051 64.6883 68.589 67.2046C69.8518 71.2578 70.357 74.167 70.3781 74.506C70.4388 75.4851 70.5687 76.7571 70.633 77.6705C70.6541 77.9056 70.6961 78.116 70.7388 78.3295C70.7815 78.543 70.8236 78.7533 70.8669 79.3524" stroke="#131313" stroke-width="1.06175" stroke-linecap="round"/>
<path d="M77.9534 72.8906C78.4265 73.6771 78.9313 74.8158 79.7452 76.0313C80.3338 76.9104 80.7703 77.385 81.3182 77.9085C82.3581 78.9022 85.5514 80.0964 86.7966 80.5196C87.6097 80.796 88.8401 81.1351 89.6245 81.2005C90.3676 81.2625 91.7049 81.2181 92.7262 81.2183C93.1011 81.2183 93.6487 81.1099 95.0956 80.5562C98.1256 79.3968 100.358 77.7627 101.185 76.6723C102.485 74.6526 103.115 73.7999 103.532 72.9428C103.575 72.7586 103.56 72.6027 103.545 72.4421" stroke="#131313" stroke-width="0.988507" stroke-linecap="round"/>
<path d="M81.4122 77.0291C81.0427 77.2859 80.4645 77.987 79.8267 78.8167C79.6546 79.1072 79.5262 79.319 79.3538 79.5828C79.2693 79.7398 79.1908 79.9438 78.9767 80.3158" stroke="#131313" stroke-width="0.988507" stroke-linecap="round"/>
<path d="M91.8222 80.7828C91.7735 80.7875 91.8026 81.3495 91.9015 82.2449C91.98 82.6756 92.0289 82.9194 92.0671 83.1881C92.0913 83.3108 92.125 83.4057 92.2406 83.5702" stroke="#131313" stroke-width="0.988507" stroke-linecap="round"/>
<path d="M101.84 75.8711C102.071 75.9715 102.663 76.4582 102.989 76.8624C103.059 76.9431 103.139 77.009 103.223 77.1003C103.306 77.1915 103.391 77.3061 103.714 77.5502" stroke="#131313" stroke-width="0.988507" stroke-linecap="round"/>
<path d="M60.5941 78.6339C60.5766 78.4934 60.5411 77.6862 60.5851 76.8784C60.6038 76.5353 60.6291 76.1798 60.7433 74.7165C60.8438 73.4297 60.945 71.0319 61.0256 69.7187C61.1159 68.2463 61.2122 67.806 61.2652 67.3382C61.3401 66.6775 61.3892 65.9317 61.5652 65.1207C61.6039 64.9421 61.6012 64.8716 61.8898 64.8356C63.4259 64.6437 63.8603 64.9405 64.1447 65.1255C64.4183 65.3035 64.4275 65.7165 64.4723 66.0263C64.5475 66.5466 64.6225 67.3236 64.728 68.0726C64.7985 69.0802 64.852 69.8165 64.8786 71.3658C64.8876 72.8277 64.8876 75.6614 64.8876 78.5809" stroke="#131313" stroke-width="1.06175" stroke-linecap="round"/>
<path d="M47.5234 71.9336C47.5886 71.9336 47.8176 72.0313 48.2767 72.2283C48.5403 72.3275 48.8661 72.4252 49.1317 72.4756C49.3972 72.5259 49.5927 72.5259 49.9916 72.6247" stroke="#131313" stroke-width="1.06175" stroke-linecap="round"/>
<path d="M57.8896 55.6445V57.8165" stroke="#131313" stroke-width="1.06175" stroke-linecap="round"/>
<path d="M71.3162 68.2812C71.3162 68.3464 71.1859 68.4777 70.8907 68.691C70.5303 68.9368 70.1661 69.1688 69.8704 69.382C69.7376 69.4975 69.6399 69.6279 69.4404 69.8608" stroke="#131313" stroke-width="1.06175" stroke-linecap="round"/>
<path d="M71.3706 84.5367C71.3706 84.523 71.3706 84.5093 72.4924 84.4681C73.6143 84.4268 75.858 84.3584 77.0002 84.3916C78.1423 84.4248 78.115 84.5616 77.7246 85.4803C77.3343 86.399 76.5819 88.0955 76.1805 89.0173C75.621 90.3026 75.4202 90.8367 75.2683 91.1824C75.1096 91.5434 75.0612 91.7496 74.964 91.8953C74.9078 91.9795 74.771 91.5589 74.5508 91.1045C74.2557 90.4954 73.7092 89.7372 73.1983 89.0123C72.917 88.6133 72.8084 88.3384 72.6228 87.9327C72.3127 87.2547 71.9933 86.7352 71.8484 86.5008C71.5107 85.8667 71.0808 85.1453 71.0049 85.035C70.9701 84.9795 70.9427 84.9248 70.9146 84.8269" stroke="#131313" stroke-width="1.06175" stroke-linecap="round"/>
<path d="M69.9465 95.8341C69.9465 95.8524 69.9465 95.8707 70.706 95.8893C71.4655 95.9078 72.9844 95.9261 73.8767 95.9539C75.6391 96.0086 76.6734 96.148 76.9884 96.222C77.063 96.2395 77.1359 96.2589 77.2102 96.2775C77.2846 96.296 77.3578 96.3143 77.9445 95.6741C78.5312 95.0338 79.6293 93.7345 80.506 92.8364C81.3828 91.9382 82.005 91.4807 82.3713 91.2267C82.7376 90.9727 82.8291 90.9361 82.9788 90.8984" stroke="#131313" stroke-width="1.06175" stroke-linecap="round"/>
<path d="M69.4685 95.5628C69.5792 95.8292 70.1141 96.6325 70.663 97.1935C71.0761 97.6156 71.5461 98.1551 72.0152 98.6127C72.3844 98.973 73.0419 99.6958 74.5118 100.933C75.4071 101.686 76.6904 102.59 77.4514 103.125C78.6959 103.999 79.1734 104.262 79.7226 104.476C80.1658 104.649 80.5175 104.667 80.7295 104.567C81.2185 104.336 81.5221 103.531 82.1381 102.212C82.3198 101.823 82.4172 101.343 82.5853 100.24C82.7534 99.1368 82.9528 97.4095 83.0665 95.7668C83.1802 94.124 83.2024 92.6182 83.2027 91.7871C83.2031 90.956 83.1809 90.8452 83.091 90.6641" stroke="#131313" stroke-width="1.06175" stroke-linecap="round"/>
<path d="M74.0322 100.191C74.0419 100.191 74.0999 100.191 74.3514 100.212C74.5503 100.23 74.8922 100.277 75.0974 100.307C75.4427 100.357 75.5172 100.405 75.6679 100.461C75.7643 100.496 75.9978 100.541 76.1625 100.558C76.1845 100.561 76.2038 100.566 76.2234 100.551C76.2732 100.515 76.3255 100.193 76.4057 99.724C76.4798 99.2906 76.5061 99.2316 76.5254 99.1926C76.5954 99.052 76.9195 99.1584 77.2265 99.1245C77.48 99.0965 77.9336 99.0616 78.3021 99.0153C78.6705 98.9689 78.9405 98.9158 79.1085 98.8861C79.3335 98.8463 79.4518 98.8321 79.619 98.8006C80.0823 98.7131 80.173 98.6957 80.2118 98.7004C80.3146 98.713 80.4059 98.9427 80.5308 99.0679C80.6449 99.1822 80.7913 99.3185 80.8886 99.3942C81.0102 99.4886 81.0642 99.5429 81.1006 99.5479C81.1399 99.5532 81.2388 99.3449 81.4258 99.0412C81.5994 98.7592 81.7507 98.6083 81.8597 98.4728C82.1843 97.9995 82.2426 97.8974 82.3033 97.8148C82.3351 97.7756 82.3688 97.7418 82.4182 97.707" stroke="#131313" stroke-width="1.06175" stroke-linecap="round"/>
<path d="M49.3986 81.7773C49.3623 81.7773 48.6729 81.7773 47.5932 81.7864C46.5317 81.7953 45.6278 82.2893 45.3526 82.4541C45.0852 82.6143 45.1323 83.0573 45.1318 83.7067C45.1314 84.1862 45.7333 84.5219 46.3835 84.8526C47.2358 85.2862 47.8582 85.2009 49.3508 85.3385C50.3648 85.432 52.2179 85.3844 53.2611 85.3756C54.4864 85.3653 54.7993 85.2388 55.0188 85.0839C55.4682 84.7666 55.2767 83.7792 55.1036 83.134C54.9876 82.7012 53.7099 82.4388 52.6705 82.2355C51.7081 82.1806 50.8313 82.107 49.962 82.0614C49.5343 82.052 48.791 82.052 48.0252 82.052" stroke="#131313" stroke-width="1.06175" stroke-linecap="round"/>
<path d="M106.866 85.0943C106.604 85.0615 105.468 85.0446 103.911 85.0528C103.12 85.057 102.76 85.2593 102.23 85.4991C101.839 85.6758 101.864 86.0703 101.806 86.4672C101.746 86.8741 101.846 87.2302 101.954 87.3957C102.138 87.6795 102.623 87.8266 103.327 87.9597C103.58 88.0077 103.866 88.0094 104.992 88.0755C105.937 88.131 107.643 88.1416 108.784 88.1257C110.452 88.1025 111.073 87.9274 111.246 87.8447C111.423 87.7602 111.685 87.7287 111.941 87.6377C112.051 87.5988 112.116 87.5632 112.15 87.3823C112.243 86.881 112.101 86.4207 111.953 86.2222C111.762 85.9681 111.128 85.7752 110.636 85.6248C110.123 85.4681 109.568 85.3428 108.972 85.2603C108.625 85.2121 108.292 85.1937 107.607 85.1525C106.287 85.1768 106.022 85.2598 105.816 85.2847C105.708 85.2931 105.593 85.2931 105.475 85.2931" stroke="#131313" stroke-width="1.06175" stroke-linecap="round"/>
<path d="M79.8301 48.2812C79.8301 49.0156 79.9522 50.4361 80.2592 50.9595C80.5742 51.4966 81.2444 51.8961 82.0518 52.204M117.563 101.736C117.563 99.9119 117.563 98.1418 117.531 97.131C117.315 95.003 117.193 92.7908 117.007 90.9698C116.823 89.1507 116.431 87.2031 115.989 84.1262C115.709 82.1739 115.439 78.1854 113.891 75.8352C113.12 74.6644 112.328 72.8095 110.527 70.2817C108.862 67.9428 107.606 66.9884 106.46 65.8167C105.226 64.5543 103.104 63.5026 101.18 62.6723C97.827 61.225 96.3354 60.9024 95.5492 60.1161C94.6197 59.1867 93.3397 57.9292 92.8376 56.7859C92.6061 56.2586 92.3165 55.4028 91.8514 54.6797" stroke="#131313" stroke-width="1.06175" stroke-linecap="round"/>
<path d="M79.8302 47.7227C79.4011 48.0297 78.4171 48.5217 77.4294 48.985C76.2969 49.5163 74.7178 49.3244 73.7301 49.5408C72.7017 49.7662 71.5734 49.8793 70.4322 49.9727C69.394 50.0577 68.1849 50.4342 67.0104 50.6506C65.7264 50.8872 65.2532 50.9062 64.1721 51.4907M57.1858 54.2513C55.557 54.6725 52.2263 56.1015 49.4435 57.5821C47.8293 58.441 46.9733 59.1867 45.8941 60.5092C44.0143 62.8126 43.5182 65.4051 42.8708 67.0772C42.3812 68.3418 42.3455 69.8517 42.1291 71.2685C41.8308 73.2215 41.7906 75.2119 41.6972 76.7258C41.6761 77.0678 41.6057 77.3723 41.5742 80.032C41.5428 82.6918 41.5428 87.6969 41.5733 90.4279C41.7888 94.0837 41.9127 95.1916 42.0662 96.3328C42.0977 96.6121 42.0977 96.8563 42.0977 97.1078" stroke="#131313" stroke-width="1.06175" stroke-linecap="round"/>
<path d="M42.2656 94.0469C42.5444 94.405 43.1837 95.7605 43.8855 96.9075C44.3496 97.666 44.6281 98.3296 45.1274 98.8716C45.6857 99.4776 46.3081 100.053 46.9497 100.534C47.611 101.03 48.3894 101.774 49.1326 102.337C49.8914 102.911 51.3887 103.615 53.8732 104.718C55.0304 105.232 56.9933 105.66 58.2641 105.863C59.0003 105.981 60.7582 106.341 62.8797 106.782C64.7659 107.173 66.1357 107.385 67.2761 107.625C68.1274 107.803 69.4547 108.224 70.6606 108.447C71.5217 108.605 72.424 108.546 74.7493 108.627C76.7164 108.695 80.2866 108.549 82.2837 108.488C84.5993 108.418 85.2026 108.347 86.6146 108.129C89.7623 107.642 92.0125 106.946 92.7894 106.766C95.184 106.212 96.3337 106.066 97.5774 105.725C99.3956 105.226 101.095 104.586 102.725 104.222C104.158 103.902 105.428 103.622 106.81 103.101C107.674 102.777 108.632 102.461 110.175 101.82C111.307 101.349 112.4 101.098 113.081 100.857C113.978 100.54 114.722 100.017 115.425 99.5764C115.566 99.4556 115.685 99.3366 115.925 99.1762C116.165 99.0158 116.522 98.8175 117.13 98.3729" stroke="#131313" stroke-width="1.06175" stroke-linecap="round"/>
<path d="M80.6318 45.2237C81.3613 44.7587 82.9646 43.6926 84.2342 43.1545C84.5699 43.0212 84.9005 42.8228 85.2032 42.6875C85.5058 42.5522 85.7703 42.4861 86.2433 42.418" stroke="#131313" stroke-width="1.06175" stroke-linecap="round"/>
<path d="M117.578 101.203C117.725 102.629 117.806 104.646 118.109 108.572C118.266 110.608 118.38 113.894 118.436 115.788C118.501 118.005 118.602 119.402 119.259 121.021C120.651 124.454 124.892 120.872 126.581 120.655C128.421 120.419 129.428 118.715 130.672 118.038C131.683 117.488 133.728 116.669 135.452 115.718C136.604 115.084 137.607 114.182 138.795 113.291C140.446 112.052 141.848 111.136 142.677 110.461" stroke="#131313" stroke-width="1.06175" stroke-linecap="round"/>
<path d="M58.6483 106.207C58.6483 107.577 58.6483 108.906 58.5722 109.723C58.4961 110.54 58.3484 110.836 58.1224 111.021C57.6009 111.281 54.8805 111.167 52.5617 111.58C50.8819 111.879 48.6258 112.381 47.0054 112.736C45.8102 112.998 44.5083 113.553 42.3702 113.743C41.5398 113.817 40.3581 113.817 39.7672 106.892C39.1763 99.9672 39.1071 86.524 39.2144 79.6514C39.3263 72.4825 39.5376 71.8123 39.587 70.9483C39.7 68.9731 39.8972 67.6202 40.1096 66.2873C40.3715 64.6445 40.2969 63.2296 40.8583 61.9587C41.7144 60.0204 41.9549 58.4425 42.8726 57.4488C43.8048 56.4393 44.6781 55.3495 45.5954 54.0535C46.4951 52.7822 47.8611 51.6546 49.8904 50.6973C51.7906 49.8009 53.4651 48.734 55.2967 47.6378C56.7907 46.7436 58.1008 45.9221 59.9263 45.2888C62.8427 44.2772 65.1565 43.7968 66.8993 43.0506C68.729 42.2673 70.5094 41.8016 72.3459 41.2982C74.2484 40.7767 76.4431 39.8974 78.201 39.7706C79.7677 39.6576 82.6079 39.5099 83.7158 39.7337C84.5556 39.8649 86.0442 40.6793 86.299 42.1233" stroke="#131313" stroke-width="1.06175" stroke-linecap="round"/>
<path d="M86.2988 42.4456C90.1848 40.7468 97.0918 41.2468 98.6853 41.4554C99.6094 41.5764 100.717 41.7587 101.843 41.9584M127.049 56.2696C128.16 57.8662 130.721 61.6315 131.567 63.2072C132.934 65.7511 133.971 67.6381 134.851 69.7711C136.506 73.7863 136.794 75.7136 137.744 80.5948C138.44 84.1655 139.947 90.987 140.704 94.651C141.688 99.421 141.952 102.283 142.307 104.347C142.52 105.39 142.571 106.42 142.678 110.1" stroke="#131313" stroke-width="1.06175" stroke-linecap="round"/>
<path d="M77.2256 65.9133C77.2256 65.5665 77.3849 64.7642 77.7607 64.0915C78.056 63.661 78.67 63.1275 79.3399 62.5243C79.6115 62.293 79.7443 62.2133 79.9616 62.0508" stroke="#131313" stroke-width="1.06175" stroke-linecap="round"/>
<path d="M71.0297 65.1868C70.8156 64.3306 70.6016 63.6337 70.3199 63.0966C70.1992 62.829 70.0648 62.5329 69.891 62.2251C69.7969 62.0766 69.6906 61.9438 69.5007 61.7266" stroke="#131313" stroke-width="1.06175" stroke-linecap="round"/>
<path d="M65.9545 56.4362C65.6954 56.3425 65.1296 55.9649 64.5603 55.7271C64.0042 55.4948 62.604 54.9484 60.955 54.5679C60.3338 54.4245 59.6638 54.3776 59.0249 54.3187C57.6326 54.1903 56.5915 54.2357 55.515 54.1771C55.1373 54.1565 55.1179 54.0014 55.1058 53.578C55.0484 51.5639 55.2584 51.1379 55.4714 50.641C55.526 50.5134 55.636 50.428 55.7312 50.3446C55.9142 50.1841 57.3518 50.1185 59.4217 50.1302C60.442 50.136 60.818 50.3301 61.3617 50.4965C62.0145 50.6963 62.3796 50.8752 62.8173 51.0523C63.4773 51.3194 64.2451 51.6532 65.1708 52.2108C65.6288 52.4867 65.9758 53.0019 66.2849 53.5123C66.3328 53.6195 66.3562 53.7132 66.3683 54.148C66.3804 54.5828 66.3804 55.3558 66.3804 56.1523" stroke="#131313" stroke-width="1.06175" stroke-linecap="round"/>
<path d="M83.4669 55.9295C82.6658 56.0717 81.0084 56.6298 80.1288 56.8622C79.9742 56.1966 80.0262 54.0491 80.1948 53.5572C80.3906 53.1951 80.8557 52.9352 81.3615 52.7813C81.7893 52.6512 83.0254 52.0468 84.8469 51.7059C85.4677 51.5898 86.1493 51.485 86.6713 51.3699C87.2036 51.2525 87.9704 50.9653 89.1718 50.8648C89.7942 50.8127 90.3416 50.4892 90.8424 50.4635C91.6062 50.4242 93.1139 50.3968 94.1697 50.3081C94.6367 50.2688 95.9079 49.8629 96.0073 50.4398C96.0586 50.7374 96.1536 51.1786 96.2272 51.631C96.3181 52.1896 97.2757 53.3795 96.1169 54.3257C95.7867 54.5953 95.1449 54.611 94.7326 54.647C94.1401 54.6987 92.6049 54.5515 90.5592 54.7375C89.269 54.8548 88.0393 55.1456 86.2339 55.412C85.0963 55.5798 84.1221 55.8132 83.4669 55.9295Z" stroke="#131313" stroke-width="1.06175" stroke-linecap="round"/>
<path d="M78.9552 110.07C78.6364 110.176 77.9294 110.883 75.7467 113.774C75.1773 114.528 74.0951 115.887 72.4626 118.21C70.3998 121.146 70.1434 122.22 69.6625 123.059C69.397 123.361 69.2168 121.465 69.1283 118.126C69.075 116.828 69.0046 116.336 68.8254 115.615" stroke="#131313" stroke-width="1.06175" stroke-linecap="round"/>
<path d="M69.9982 108.688C68.1887 109.183 67.2642 109.611 65.0495 110.779C63.9723 111.347 63.4597 111.956 62.5954 112.627C59.2918 115.193 58.5206 115.403 57.9165 115.918C56.7772 116.79 55.7888 117.568 54.9832 118.282C54.8579 118.425 54.7523 118.566 54.6436 118.817" stroke="#131313" stroke-width="1.06175" stroke-linecap="round"/>
<path d="M69.1453 114.981C70.3491 114.344 71.4186 113.81 71.667 113.579C72.2801 113.011 71.7769 111.573 71.6159 110.72C71.5977 110.366 71.5977 109.803 71.7033 109.461C71.8089 109.118 72.02 109.012 72.5574 108.797" stroke="#131313" stroke-width="1.06175" stroke-linecap="round"/>
<path d="M89.9619 108.254C90.0125 108.608 90.063 108.962 90.4934 110.799C90.9238 112.637 91.7324 115.947 92.1996 118.006C92.9225 121.629 93.0504 122.087 93.0887 122.533C93.1017 122.776 93.1017 123.054 93.1017 123.34" stroke="#131313" stroke-width="1.06175" stroke-linecap="round"/>
<path d="M94.6732 106.23C96.1351 106.903 97.9582 107.843 98.9434 108.3C99.1779 108.408 99.3399 108.606 99.3862 108.769C99.4325 108.931 99.3452 109.077 99.2421 109.166C98.835 109.519 98.0552 109.695 95.6958 110.793C94.9192 111.155 94.5577 111.778 94.2348 112.365C94.1064 112.599 94.0863 112.72 94.1586 112.852C94.6088 113.679 95.8451 113.837 96.799 114.394C97.4813 114.792 97.9018 115.275 98.0657 115.746C98.2559 116.291 97.1423 116.627 96.2042 117.594C95.6287 118.187 95.3799 118.858 94.6903 120.309C94.5269 120.738 94.3806 121.12 94.1462 121.749C94.0281 122.117 93.9118 122.582 93.7039 123.326" stroke="#131313" stroke-width="1.06175" stroke-linecap="round"/>
<path d="M76.3357 112.913C76.8734 114.035 77.5458 114.739 78.0498 115.143C78.5663 115.557 79.5018 115.896 80.0792 116.028C80.2847 116.075 80.591 116.127 81.243 116.174C81.8949 116.22 82.8849 116.251 83.5472 116.236C84.5168 116.215 85.0716 115.991 85.4789 115.822C86.0076 115.602 86.6113 115.406 86.9879 115.206C87.4015 114.987 87.8861 114.562 88.2424 114.329C88.6739 114.047 89.2725 113.592 89.4887 113.299C89.6736 113.083 90.0405 112.685 90.3578 112.299C90.412 112.206 90.4577 112.1 90.5048 111.852" stroke="#131313" stroke-width="1.06175" stroke-linecap="round"/>
<path d="M103.818 104.484C104.505 104.705 105.393 104.854 106.918 105.124C107.352 105.201 107.807 105.371 109.021 105.689C111.21 106.264 112.666 106.85 112.96 107.01C113.77 107.449 114.366 107.836 114.92 108.168C115.55 108.526 115.992 108.92 116.386 109.215C116.584 109.363 116.779 109.51 117.128 109.809" stroke="#131313" stroke-width="1.06175" stroke-linecap="round"/>
<path d="M75.9917 39.9566C75.9917 39.8904 75.9917 39.6906 75.9255 39.3402C75.8452 38.9157 75.0269 38.1554 73.8586 36.9701C72.6733 35.7675 71.8099 35.0388 71.3435 34.5388C70.6535 33.799 70.0026 33.1653 69.2877 32.2667C67.9195 30.5467 66.4573 29.0517 65.6561 27.9829C64.2875 26.1572 63.144 25.2012 62.4231 24.5802C61.6286 23.8958 60.8668 23.5244 60.0641 23.5234C59.2371 23.5224 58.4913 24.4241 57.7051 25.1098C56.0715 26.5347 55.5454 27.8037 55.1925 28.5748C54.9136 29.1841 54.3084 30.4744 53.7371 31.6366C53.2396 32.6486 52.7341 34.2918 52.4148 35.4173C52.1595 36.3171 51.6959 37.9044 51.3615 39.809C50.944 42.1877 50.7902 43.1334 50.6236 44.4025C50.5894 45.005 50.5563 45.4106 50.5061 46.3238C50.489 47.1044 50.489 48.5292 50.489 49.9971" stroke="#131313" stroke-width="1.06175" stroke-linecap="round"/>
<path d="M100.724 44.699C100.762 44.0463 101.525 42.5155 102.224 41.4474C102.718 40.6915 103.149 40.08 104.332 38.4753C105.367 37.0729 107.422 34.583 108.616 33.1532C110.557 30.8275 112.037 29.6867 113.178 28.7393C114.31 27.7995 115.618 26.9901 116.683 26.2351C116.889 26.0893 117.125 25.985 117.319 25.9451C118.632 25.6755 120.397 29.0143 121.133 30.1771C121.418 30.6288 121.862 31.9419 122.822 34.2444C124.011 37.0978 124.446 38.9975 124.637 39.7057C125.354 42.3609 125.716 43.6546 126.024 45.0404C126.138 45.5529 126.409 46.8445 126.659 49.0344C126.872 52.3993 126.95 53.0151 126.969 54.6199C126.988 55.9959 127.026 58.5122 127.065 61.1048" stroke="#131313" stroke-width="1.06175" stroke-linecap="round"/>
<path d="M108.429 45.0233C108.429 44.9829 108.49 44.1555 108.844 42.2577C109.051 41.147 109.661 39.8155 110.416 38.3733C111.17 36.9311 112.138 35.4388 112.767 34.5188C113.93 32.8207 114.395 32.2549 115.027 31.5711C115.435 31.1928 116.005 30.8677 116.423 30.6529C116.516 30.6019 116.596 30.5414 116.802 30.418" stroke="#131313" stroke-width="1.06175" stroke-linecap="round"/>
<path d="M112.585 35.1248C113.029 34.8425 113.378 34.6365 113.783 34.4642C114.499 34.1599 115.553 33.8433 116.5 33.5582C117.2 33.3472 117.856 33.1705 118.541 33.1485C118.643 33.1452 118.635 33.2695 118.574 33.4321C118.294 34.1846 117.964 34.4709 117.354 35.1425C117.11 35.4115 116.138 36.4197 114.733 37.784C114.146 38.3538 114.052 38.5665 114.061 38.719C114.102 39.3885 115.25 39.1373 116.349 39.452C117.148 39.681 118.623 40.3546 119.59 40.7769C119.915 40.9186 120.263 41.0512 120.437 41.2859C120.676 41.6057 119.736 41.4393 118.413 41.4799C117.212 41.5168 114.933 41.5206 113.769 41.5915C112.605 41.6623 112.625 41.7833 112.656 41.886C112.84 42.5047 113.114 43.4333 113.327 44.0945C113.675 45.1713 113.867 45.9963 113.939 46.5814C114.004 47.102 114.051 47.4678 113.961 47.6108C113.652 48.0976 112.773 47.1244 112.129 46.7577C111.221 46.2071 110.572 45.841 109.037 44.9672C108.616 44.7411 108.253 44.5797 107.696 44.4135" stroke="#131313" stroke-width="1.06175" stroke-linecap="round"/>
<path d="M107.183 44.1719C107.858 44.4802 108.269 44.6854 108.63 44.9503C108.779 45.0599 108.975 45.1565 109.45 45.434C110.423 46.0025 111.137 46.5236 111.43 46.758C111.602 46.8959 111.839 47.0507 112.287 47.3952C112.734 47.7398 113.389 48.2638 113.8 48.6066C114.766 49.4142 115.356 50.1836 115.673 50.5813C115.941 50.9169 116.181 51.1559 116.342 51.3388C116.632 51.6681 117.222 52.3862 117.817 53.246C118.196 53.8027 118.372 53.9792 118.453 54.1038C118.504 54.1702 118.577 54.243 118.652 54.3621" stroke="#131313" stroke-width="1.06175" stroke-linecap="round"/>
<path d="M123.34 83.7383C123.673 85.9599 124.067 89.4927 124.432 93.2224C124.651 95.4699 125.077 97.1389 125.611 101.031C125.869 102.913 126.033 104.491 126.173 106.173C126.285 107.524 126.649 108.978 126.874 110.381C127.16 112.168 127.322 113.636 127.407 116.63C127.491 117.507 127.548 118.181 127.576 118.993C127.603 119.36 127.659 119.638 128.053 120.261" stroke="#131313" stroke-width="1.06175" stroke-linecap="round"/>
<path d="M127.716 93.8359C128.558 96.9193 128.669 97.8147 128.809 99.1031C129.161 102.33 129.847 105.22 130.072 106.956C130.297 108.701 130.409 109.596 130.604 110.635C130.969 111.618 131.082 112.848 131.222 114.111C131.251 114.586 131.251 115.309 131.251 116.052" stroke="#131313" stroke-width="1.06175" stroke-linecap="round"/>
<path d="M129.736 75.3242C130.072 78.9125 130.517 80.3633 131.08 82.5261C131.517 84.1999 132.368 88.203 133.071 91.1358C133.681 93.6773 133.661 95.1743 134.082 97.4204C134.441 99.3309 135.007 101.681 135.149 103.342C135.234 104.333 135.401 105.222 135.598 106.734C135.866 108.798 135.906 109.935 136.103 111.168C136.131 111.616 136.131 112.227 136.159 112.653C136.187 113.079 136.242 113.301 136.3 113.698" stroke="#131313" stroke-width="1.06175" stroke-linecap="round"/>
<path d="M52.3061 35.3208C51.7283 35.2158 51.152 35.0067 50.5585 34.6905C49.9741 34.3793 49.702 34.0587 49.5706 34.0054C49.1511 33.8353 49.6476 34.9767 49.7798 35.4637C49.929 36.0133 50.3311 36.6864 50.5162 37.2788C50.6073 37.5701 50.8055 37.767 50.8718 37.9375C51.0941 38.5091 49.7297 38.6092 49.3082 38.8586C48.8774 39.1135 48.3357 39.449 47.9004 39.8189C47.8074 39.8979 47.7295 39.9763 47.7283 40.0817C47.7223 40.6141 48.4367 40.8446 48.8184 41.0952C49.2394 41.3717 49.6728 41.7397 50.2779 42.0945C50.4177 42.1765 50.489 42.2654 50.5423 42.3577C50.5956 42.4501 50.6216 42.5543 50.5829 42.6601C50.3652 43.2555 49.9128 43.8172 49.545 44.2908C49.0675 44.9056 48.9656 45.3959 48.8464 45.9476C48.7965 46.1787 48.833 46.5483 48.9111 46.7753C48.9893 47.0022 49.1456 47.0803 49.2912 47.1206C49.5671 47.1608 49.8054 47.1869 50.0154 47.2524C50.1212 47.2919 50.2254 47.344 50.4116 47.3976" stroke="#131313" stroke-width="1.06175" stroke-linecap="round"/>
<path d="M34.4243 120.032C34.5964 118.731 34.878 116.091 34.8092 115.446C34.7351 114.752 34.5562 114.13 34.2454 113.506C33.8334 112.68 33.6788 111.96 33.43 111.259C33.0436 110.171 33.0666 108.562 33.0078 106.946C32.9382 105.036 33.0878 104.009 33.0732 103.083C33.0607 102.284 32.9078 100.977 32.8318 100.124C32.8174 99.9622 32.7525 99.8224 32.5673 99.6772C32.1094 99.3182 31.4664 99.2045 30.9385 99.321C29.6546 99.6045 29.6781 100.814 29.2832 101.462C28.4539 102.824 27.8726 104.882 27.5772 105.943C27.4803 106.543 27.3795 107.048 27.2384 107.727C27.1526 108.244 27.038 109.109 26.92 110.002" stroke="#131313" stroke-width="1.06175" stroke-linecap="round"/>
<path d="M25.7235 111.28C24.7485 109.614 24.2346 108.314 23.7331 106.951C22.5154 103.64 22.2917 102.82 21.8574 101.72C20.7287 98.863 20.3679 97.7078 19.9508 96.5877C19.4759 95.3122 18.7703 94.276 18.2971 93.5602C17.8394 92.8679 17.0515 92.504 16.343 92.4262C16.0042 92.389 15.7564 92.7075 15.5551 92.9366C15.0603 93.4996 15.0408 94.491 14.8937 95.2104C14.686 96.2267 14.5891 97.3765 14.759 98.5455C14.9172 99.6347 15.6113 100.765 16.3282 102.448C16.7233 103.375 17.0495 103.866 17.4485 104.602C17.8033 105.257 18.1123 105.922 18.405 106.815C19.0485 108.778 19.3816 109.787 19.658 110.543C19.8193 110.872 19.9197 111.161 19.9658 111.457C19.9961 111.615 20.0407 111.791 20.0866 111.971" stroke="#131313" stroke-width="1.06175" stroke-linecap="round"/>
<path d="M19.5363 113.032C18.0674 112.258 16.9157 110.641 15.7686 108.476C15.1498 107.308 14.5324 105.96 13.7244 104.546C12.0547 101.625 10.8374 100.14 10.5634 100.019C9.95425 99.7486 9.54111 99.5918 9.21117 99.6328C8.34638 99.7405 8.19462 101.223 7.96569 102.817C7.81483 103.868 8.45942 104.887 8.82831 105.724C9.54394 107.346 10.1249 108.086 10.7441 108.955C11.8528 110.512 12.4505 111.201 13.0062 111.789C14.0997 112.948 15.6341 114.567 16.3399 115.174C16.981 115.774 17.5235 116.323 17.9482 116.858C18.1417 117.091 18.2906 117.246 18.6192 117.634" stroke="#131313" stroke-width="1.06175" stroke-linecap="round"/>
<path d="M18.369 117.795C18.8052 118.416 19.2776 118.929 19.6664 119.332C20.0304 119.71 20.3286 120.041 20.6216 120.396C20.9563 120.801 21.3289 121.189 21.7102 121.557C22.0079 121.844 22.376 122.321 22.8038 123.022C23.0945 123.498 23.0974 123.886 22.9596 124.679C22.8175 125.497 22.1464 125.972 21.6958 126.468C21.5307 126.65 21.2476 126.782 20.984 126.984C20.3285 127.486 18.4492 126.798 17.7546 126.469C16.8783 126.054 16.5762 125.556 16.1942 125.111C15.6281 124.346 15.389 123.931 15.284 123.702C15.2304 123.593 15.1761 123.496 15.1201 123.397" stroke="#131313" stroke-width="1.06175" stroke-linecap="round"/>
<path d="M15.8015 116.708C15.3571 117.168 15.1271 117.543 14.8134 118.122C14.6506 118.584 14.5054 119.333 14.4136 120.111C14.3858 120.406 14.3962 120.496 14.5136 120.807" stroke="#131313" stroke-width="1.06175" stroke-linecap="round"/>
<path d="M14.0263 122.62C13.8098 123.219 13.6386 123.627 13.5093 124.228C13.3355 125.036 13.2909 126.095 13.5328 126.49C13.7152 126.788 13.9012 127.118 14.1093 127.401C14.3444 127.721 14.6749 127.947 14.9906 128.156C15.3437 128.39 16.0788 128.447 16.5298 128.615C16.8936 128.751 17.1 129.054 17.7714 129.163C18.3009 129.249 18.6253 129.1 19.0194 128.868C19.364 128.569 19.6738 128.297 19.9338 128.046C19.9723 127.982 19.9824 127.906 19.9928 127.827" stroke="#131313" stroke-width="1.06175" stroke-linecap="round"/>
<path d="M20.0788 129.178C20.14 129.303 20.5652 129.633 21.2764 129.973C21.7614 130.205 22.4178 130.312 23.0922 130.499C23.461 130.601 23.8061 130.672 24.3384 130.791C25.6886 131.094 26.3537 130.852 26.8143 130.786C27.4279 130.697 28.4825 130.469 29.2421 130.303C31.0293 129.913 31.816 129.633 32.3938 129.199C32.755 128.928 32.9926 128.61 33.3659 128.238C33.6597 127.944 33.6957 127.312 33.8825 126.27C34.2074 124.457 34.2965 123.07 34.3033 122.796C34.3255 122.406 34.3858 121.652 34.4872 120.812C34.5204 120.488 34.5164 120.371 34.52 120.192" stroke="#131313" stroke-width="1.06175" stroke-linecap="round"/>
<path d="M26.8701 112.251C26.6411 113.31 26.5165 113.913 26.3142 115.107C26.1934 115.82 26.0688 117.126 26.0081 117.92C25.8809 119.584 26.0511 120.619 26.1017 121.249C26.1328 121.637 26.2265 122.155 26.3708 123.237C26.7037 125.224 26.9758 126.751 27.0759 127.253C27.1239 127.483 27.1659 127.665 27.2575 127.993" stroke="#131313" stroke-width="1.06175" stroke-linecap="round"/>
<path d="M22.7812 122.231C23.2816 121.975 23.8025 121.752 24.2565 121.603C24.5577 121.525 24.742 121.512 24.9141 121.508C25.0156 121.495 25.146 121.458 25.2804 121.42" stroke="#131313" stroke-width="1.06175" stroke-linecap="round"/>
<path d="M31.127 98.9312C31.2046 98.8042 31.557 98.4528 31.8736 98.1558C32.0155 98.0228 32.1365 97.9135 32.2318 97.8874C32.3133 97.9659 32.3876 98.4489 32.4486 99.1473C32.4734 99.4304 32.4855 99.5688 32.4859 99.802" stroke="#131313" stroke-width="1.06175" stroke-linecap="round"/>
<path d="M14.9876 93.9765C14.9305 93.7414 14.9047 93.6062 14.8515 93.2033C14.8304 93.0441 14.8092 92.7721 14.8036 92.4262C14.7956 91.9319 14.8105 91.3163 14.852 91.1675C14.8672 91.1132 14.9232 91.1245 14.9627 91.1333C15.1872 91.1837 15.5055 91.3849 15.7103 91.5074C15.8063 91.557 15.9947 91.6842 16.2174 91.8604C16.3013 91.9311 16.3261 91.9634 16.3488 92.0185" stroke="#131313" stroke-width="1.06175" stroke-linecap="round"/>
<path d="M7.92868 101.42C7.76614 101.001 7.50623 100.227 7.46069 100.009C7.42397 99.8338 7.34887 99.3466 7.34745 99.0257C7.34695 98.9129 7.36532 98.7422 7.45592 98.5856C7.66448 98.2252 8.16523 98.7285 8.38888 98.8254C8.55781 98.9144 8.66526 98.9914 8.73859 99.0285C8.77577 99.0453 8.81292 99.058 8.87125 99.0972" stroke="#131313" stroke-width="1.06175" stroke-linecap="round"/>
<path d="M35.3332 114.258C35.6974 114.258 36.8581 114.362 37.3068 114.507C37.7631 114.655 38.228 114.888 38.9778 115.414C39.491 115.775 39.6518 116.309 39.9145 116.928C40.3111 117.864 40.2048 118.706 40.2447 119.692C40.2539 119.919 40.2838 120.049 40.2973 121.068C40.3107 122.087 40.3107 123.99 40.2977 125.023C40.2803 126.399 40.1795 127.027 40.1397 127.569C40.0936 128.194 39.9425 128.661 39.9026 129.333C39.8595 130.059 39.7324 130.794 39.587 131.309C39.4464 131.806 39.2062 132.531 38.8897 133.06C38.6122 133.524 38.0479 133.667 37.2073 133.956C35.8333 134.428 34.9682 134.405 34.374 134.496C33.7636 134.591 31.8995 134.982 30.6867 135.181C30.2298 135.257 28.5527 135.274 27.3435 134.869C25.697 134.317 25.6958 133.379 25.5366 132.984C25.4311 132.562 25.326 132.194 25.221 131.905C25.168 131.772 25.1159 131.668 24.9832 131.403" stroke="#131313" stroke-width="1.06175" stroke-linecap="round"/>
<path d="M75.1256 91.8164C75.1186 91.8304 75.115 91.9948 75.1289 92.3063C75.1426 92.6099 75.2101 92.7899 75.2277 92.8463C75.2796 93.0122 75.3686 93.3396 75.4182 93.476C75.4467 93.5542 75.4818 93.6191 75.5343 93.74C75.6515 94.0097 75.7675 94.1978 75.8289 94.2784C75.9466 94.4331 76.0776 94.6031 76.1781 94.7089C76.2534 94.7882 76.3841 94.9309 76.51 95.0603C76.611 95.1639 76.7201 95.2669 76.794 95.3267C76.9813 95.454 77.0411 95.4752 77.0975 95.4857C77.1224 95.4893 77.1398 95.4893 77.1578 95.4893" stroke="#131313" stroke-width="1.06175" stroke-linecap="round"/>
<path d="M127.054 47.4336C127.211 47.4466 127.657 47.6821 128.159 48.0124C128.531 48.2571 128.858 48.8152 129.175 49.3879C129.591 50.1422 129.598 50.6367 129.665 51.1692C129.753 51.8772 129.639 52.444 129.508 52.6284C129.307 52.9101 128.877 53.2472 128.387 53.5585C127.962 53.8289 127.491 53.7504 126.773 53.7508C126.24 53.7511 125.605 53.225 125.123 52.9275C124.734 52.6876 124.431 52.4598 123.989 51.6646C123.594 50.9543 123.507 50.0618 123.395 49.4425C123.322 49.1103 123.269 48.8334 123.229 48.4977C123.216 48.3448 123.216 48.2273 123.216 48.1062" stroke="#131313" stroke-width="1.06175" stroke-linecap="round"/>
<path d="M97.7133 31.5442C97.5731 31.0768 97.5009 30.6725 97.0102 27.7839C96.5464 25.0543 95.5379 19.7776 94.9155 16.6713C94.293 13.565 94.0593 12.7939 93.9156 12.233C93.6901 11.3532 93.6302 10.7742 93.6645 10.3617C93.7287 9.59095 94.8064 9.63977 95.9802 9.18266C96.8188 8.85607 98.0887 8.18807 98.8209 7.80461C100.377 6.98976 101.512 6.14719 102.043 5.88659C102.364 5.72899 102.669 5.62599 102.928 5.61431C103.048 5.60892 103.141 5.57925 103.598 6.95766C104.055 8.33607 104.873 11.117 105.317 12.6898C105.839 14.5347 105.974 15.1357 106.256 16.0751C106.727 17.6432 106.872 18.9597 106.942 19.5602C107.011 20.1451 107.155 20.7067 107.261 21.5055C107.483 22.7717 107.651 23.7057 107.71 24.0237C107.745 24.178 107.792 24.3183 107.84 24.5335" stroke="#FF0404" stroke-width="1.06175" stroke-linecap="round"/>
<path d="M109.203 7.70023C109.063 8.86868 108.991 10.5222 109.026 12.3375C109.049 13.5496 109.367 14.3766 109.638 15.025C110.231 16.4426 111.067 18.3904 111.385 19.0278C111.845 19.9496 112.434 20.4426 112.849 20.8824C113.252 21.3099 114.154 21.2259 114.76 21.1087C115.663 20.9341 116.494 20.1183 117.555 19.6109C118.589 19.1163 119.421 17.8558 119.975 16.6675C120.269 16.0356 120.412 15.2689 120.531 13.7853C120.651 12.3018 120.698 10.1051 120.558 8.54116C120.419 6.97721 120.092 6.11257 119.724 5.35166C119.034 3.92149 118.434 3.1695 118.105 2.8519C117.641 2.40364 116.925 2.06054 116.312 1.75392C115.903 1.54931 114.76 1.51598 113.226 1.51563C112.482 1.51545 112.109 1.79782 111.755 2.03328C111.265 2.35908 110.578 3.65388 110.101 4.80533C109.914 5.25558 109.653 6.22941 109.347 7.54904C109.109 8.57418 108.945 9.9571 108.662 11.3964C108.566 11.9243 108.566 12.0412 108.554 12.1481C108.542 12.255 108.519 12.3485 108.495 12.6573" stroke="#FF0404" stroke-width="1.06175" stroke-linecap="round"/>
<path d="M123.073 21.8848C122.991 21.6391 123.045 20.6763 123.428 18.513C123.73 16.8088 124.357 13.8932 124.721 12.2249C125.085 10.5566 125.194 10.229 125.482 9.25512C125.771 8.28119 126.235 6.67079 126.637 5.5273C127.655 2.6386 128.254 1.37725 128.463 0.781311C128.506 0.657495 128.559 0.520356 128.655 0.531936C128.945 0.566713 129.274 1.77675 129.715 4.902C130.026 7.11319 130.046 10.6476 130.048 13.5123C130.05 16.377 129.914 18.4787 129.761 20.1482C129.502 22.9971 129.277 24.3917 129.263 24.7904C129.085 25.9327 128.863 27.3123 128.795 27.852C128.78 27.9765 128.78 28.1129 128.78 28.2536" stroke="#FF0404" stroke-width="1.06175" stroke-linecap="round"/>
<path d="M134.984 16.3438C134.819 18.0236 134.544 19.3396 134.268 20.6543C134.145 21.2383 133.966 22.4826 133.649 24.1889C133.395 25.5561 133.33 26.514 133.152 28.1566C133.009 29.4676 132.946 31.7645 132.903 33.0821C132.837 35.117 133.053 35.6412 133.191 35.958C133.251 36.0961 133.383 36.1383 133.657 35.8935C133.932 35.6486 134.369 35.1027 134.88 34.3166C135.392 33.5304 135.965 32.5205 136.697 30.7993C137.429 29.078 138.302 26.6761 138.807 25.3295C139.397 23.7555 139.833 22.7208 140.329 21.1662C141.012 19.0268 140.994 18.0857 141.09 17.4351C141.117 17.2575 141.105 17.0104 141.105 17.1841C141.105 18.8247 140.802 19.8673 140.348 22.1108C140.239 22.6516 140.223 23.0086 140.1 23.9284C139.976 24.8482 139.758 26.3221 139.632 27.4498C139.424 29.3093 139.396 30.4014 139.299 31.5118C138.997 34.9959 139.119 35.7777 139.051 36.6048C139.037 36.8264 139.037 37.0448 139.023 37.2255C139.009 37.4063 138.982 37.5427 138.954 37.6006" stroke="#FF0404" stroke-width="1.06175" stroke-linecap="round"/>
<path d="M144.02 34.0625C143.692 34.4992 143.469 35.0244 142.445 37.6902C141.528 40.0767 139.592 44.4775 138.567 46.9465C137.391 49.7804 137.157 50.6007 136.786 51.685C135.811 54.5344 135.86 55.4286 135.763 55.4984C135.722 55.4592 135.694 55.2681 135.707 54.9923C135.721 54.7164 135.775 54.3616 135.832 53.996" stroke="#FF0404" stroke-width="1.06175" stroke-linecap="round"/>
<path d="M139.636 44.7344C139.718 45.1463 140.375 45.9701 142.193 47.4175C142.667 47.7385 142.861 47.8766 143.176 48.1371C143.409 48.3158 143.791 48.5887 144.268 48.87" stroke="#FF0404" stroke-width="1.06175" stroke-linecap="round"/>
<path d="M148.569 38.4453C147.969 39.2096 147.386 40.1765 146.591 42.1231C146.035 43.4834 145.304 45.6528 144.542 48.0874C143.779 50.522 143.042 53.1696 142.554 55.0385C142.065 56.9074 141.846 57.9173 141.72 58.7241C141.594 59.531 141.567 60.1042 141.539 60.454C141.511 60.8039 141.484 60.9131 141.456 61.1083" stroke="#FF0404" stroke-width="1.06175" stroke-linecap="round"/>
<path d="M143.772 63.7574C143.772 63.7028 143.854 63.4291 144.265 62.6065C144.561 62.0124 145.166 61.1289 147.086 58.0445C149.005 54.9602 152.253 49.7196 153.967 46.979C155.682 44.2383 155.764 44.1564 155.819 44.1688C155.963 44.2008 155.931 45.3309 155.753 48.0199C155.637 49.7859 155.221 52.3465 154.779 54.7328C154.337 57.119 153.818 59.248 153.428 61.2455C153.038 63.243 152.793 65.0444 152.625 66.1089C152.264 67.9732 152.154 68.6631 152.058 69.0617C152.016 69.2693 151.989 69.4877 151.878 69.7954" stroke="#FF0404" stroke-width="1.06175" stroke-linecap="round"/>
<path d="M147.486 57.7305C147.646 57.8103 148 58.0361 149.068 58.7263C149.473 58.9875 149.943 59.3516 150.461 59.6841C152.176 60.6801 152.514 60.8571 152.756 61.002C152.854 61.067 152.901 61.1149 153.048 61.2126" stroke="#FF0404" stroke-width="1.06175" stroke-linecap="round"/>
<path d="M13.3611 69.9453C13.8894 69.4848 15.6098 67.8919 17.0113 66.5941C17.739 66.0299 18.343 65.5614 18.7736 65.1308C19.0069 64.8976 19.27 64.6344 19.5412 64.3633" stroke="#131313" stroke-width="0.637048" stroke-linecap="round"/>
<path d="M19.9399 63.7668C20.4024 63.9662 21.463 64.2293 23.5533 64.3978C25.0017 64.5145 26.1798 64.8952 28.6359 64.8972C30.2737 64.8985 31.0362 62.8418 31.6333 61.4463C31.9014 58.6693 31.704 54.2694 31.2076 53.0773C30.9086 52.4114 30.5139 51.622 29.9078 50.8086" stroke="#131313" stroke-width="0.637048" stroke-linecap="round"/>
<path d="M12.7633 70.5469C12.8291 70.5469 12.8949 70.5469 12.9945 70.6785C14.8007 73.0626 13.2298 78.8481 12.9307 79.9127C12.5519 81.2613 10.6421 81.974 9.37918 82.2751C8.01124 82.6011 6.52339 82.8393 4.53081 82.8412C3.73238 82.6439 2.99875 82.1136 2.2691 81.4497C1.93418 81.1806 1.67103 81.049 1.3999 80.5147" stroke="#131313" stroke-width="0.637048" stroke-linecap="round"/>
<path d="M21.0076 59.2277C21.0438 59.1551 21.1169 59.0271 22.0516 58.0375C22.9319 57.1385 24.6364 55.434 25.6776 54.3474C26.7189 53.2608 27.0453 52.8438 27.3816 52.4141" stroke="#131313" stroke-width="0.637048" stroke-linecap="round"/>
<path d="M24.8386 57.2695C24.8386 57.3578 24.8764 57.8995 24.962 58.7562C24.998 59.1171 25.0664 59.3261 25.2184 59.9524C25.3704 60.5787 25.616 61.6153 25.7897 62.2541C25.9634 62.8929 26.0579 63.1025 26.1552 63.3852" stroke="#131313" stroke-width="0.637048" stroke-linecap="round"/>
<path d="M26.2827 55.9961C26.2827 56.0584 26.2827 56.1423 26.474 57.2119C26.6561 58.2302 27.0479 60.2117 27.2724 61.3002C27.626 62.7664 27.7176 63.0601 27.8096 63.2066C27.8468 63.2701 27.8651 63.3116 27.939 63.3859" stroke="#131313" stroke-width="0.637048" stroke-linecap="round"/>
<path d="M18.1375 62.4648C17.9778 62.5557 17.6114 62.9675 16.9025 63.5742C14.9194 65.2712 14.3076 65.9505 13.8239 66.377C13.6631 66.5261 13.5247 66.6872 13.3759 66.8591C13.2954 66.94 13.2045 67.0081 13.1108 67.1472" stroke="#131313" stroke-width="0.637048" stroke-linecap="round"/>
<path d="M10.8386 69.6953C10.5425 69.946 9.7176 70.6786 8.27743 72.0386C7.40424 72.8631 5.95655 74.4383 5.02524 75.4729C3.75308 76.9847 3.35645 77.5672 3.26487 77.7731C3.21873 77.8881 3.17329 78.0244 3.12646 78.2338" stroke="#131313" stroke-width="0.637048" stroke-linecap="round"/>
<path d="M6.7041 75.7891C6.7041 75.8389 6.7041 75.8887 6.7041 76.0141C6.7041 76.1394 6.7041 76.3387 6.95575 77.0892C7.20741 77.8397 7.71071 79.1353 8.27549 80.5457" stroke="#131313" stroke-width="0.637048" stroke-linecap="round"/>
<path d="M7.93579 74.4297C7.93579 74.7291 8.07429 75.3258 8.28493 75.8977C8.32838 76.0156 8.33766 76.1408 8.53702 76.6566C8.73637 77.1724 9.11725 78.0763 9.33943 78.6349C9.56161 79.1935 9.61355 79.3792 9.64896 79.5244C9.68438 79.6696 9.70169 79.7687 9.71953 79.9083" stroke="#131313" stroke-width="0.637048" stroke-linecap="round"/>
<path d="M2.79816 78.09C2.71001 78.09 2.53371 78.0725 2.19411 77.9359C1.66994 77.725 1.24967 77.7095 1.06952 77.6963C0.924734 77.6856 0.670313 77.6917 0.530651 77.7224C0.39099 77.7531 0.373466 77.8144 0.364438 77.9073C0.313408 78.4327 0.584817 78.9121 0.757269 79.3579C0.823515 79.5217 0.919898 79.732 0.991455 79.8666C1.06301 80.0012 1.10682 80.0538 1.15196 80.161" stroke="#131313" stroke-width="0.637048" stroke-linecap="round"/>
<path d="M27.4091 52.1164C27.4091 52.0936 27.4091 52.0707 27.4091 51.6782C27.4091 51.2857 27.4091 50.5242 27.4053 50.1053C27.401 49.633 27.386 49.4944 27.4279 49.3675C27.4695 49.2414 27.7541 49.3777 27.9538 49.466C28.0888 49.5258 28.4673 49.6996 28.9976 49.9876C29.4392 50.3083 29.6081 50.5081 29.7622 50.6392C29.8008 50.6701 29.8389 50.7005 29.9012 50.755" stroke="#131313" stroke-width="0.637048" stroke-linecap="round"/>
<path d="M27.3958 49.2107C27.4106 49.0914 27.4704 48.7922 27.5602 48.3953C27.7363 47.6167 27.8003 47.4266 27.9049 47.3141C28.162 47.0376 28.7889 47.6349 29.1567 47.8225C29.5429 48.0195 29.9876 48.2936 30.3122 48.5351C30.5211 48.6904 30.6202 48.8651 30.643 48.9848C30.4416 49.329 30.186 49.7498 30.1111 49.9144C30.0807 49.99 30.0659 50.0494 30.0056 50.2006" stroke="#131313" stroke-width="0.637048" stroke-linecap="round"/>
<path d="M27.9231 47.1637C27.991 46.9383 28.1702 45.6362 28.4652 44.508C28.7349 43.4762 28.9631 42.576 29.5839 40.5635C29.8599 39.669 30.4294 37.8104 30.7851 36.7786C30.8493 36.5923 30.9101 36.3937 30.9549 36.2127C30.9746 36.133 31.0893 36.1214 31.1802 36.1211C31.5597 36.1197 31.9487 36.5043 32.4582 36.765C32.896 36.989 33.4408 37.2959 33.8956 37.5121C34.2303 37.6711 34.5066 37.9299 34.711 38.2693C34.9879 38.7294 34.8026 39.3786 34.6899 39.5367C34.4488 39.8752 33.6078 39.832 33.0837 39.7645C32.8991 39.7407 32.6316 39.6963 32.3601 39.8195C31.6822 40.1271 32.1551 41.0513 32.0532 41.6062C31.9495 42.1716 31.8604 42.523 31.7366 43.077C31.6171 43.611 31.4762 44.1509 31.318 44.6499C31.0856 45.383 31.001 45.8942 30.8652 46.291C30.7287 46.6899 30.7743 47.2058 30.7067 47.6939C30.684 47.7964 30.6616 47.886 30.6388 47.9769C30.6161 48.0679 30.5937 48.1575 30.5706 48.3177" stroke="#131313" stroke-width="0.637048" stroke-linecap="round"/>
<path d="M0.375977 76.5371C0.443762 76.2687 0.622719 74.7181 0.917252 73.3745C1.18659 72.1458 1.41446 71.0737 2.03437 68.6771C2.30992 67.6118 2.87865 65.3985 3.23385 64.1697C3.29796 63.9479 3.35858 63.7113 3.40332 63.4959C3.42305 63.4009 3.53754 63.3871 3.62837 63.3867C4.00733 63.385 4.39571 63.8431 4.90445 64.1535C5.34167 64.4203 5.88566 64.7857 6.33983 65.0432C6.67396 65.2326 6.9499 65.5408 7.15394 65.945C7.43047 66.4928 7.24545 67.266 7.13293 67.4543C6.89216 67.8574 6.05241 67.806 5.5291 67.7256C5.34476 67.6972 5.07764 67.6443 4.8065 67.7911C4.12958 68.1574 4.60178 69.258 4.5001 69.9189C4.39651 70.5922 4.30759 71.0106 4.18388 71.6703C4.0646 72.3063 3.92392 72.9493 3.76597 73.5435C3.53391 74.4165 3.44941 75.0253 3.31384 75.4978C3.17754 75.9729 3.223 76.5872 3.15556 77.1685C3.13285 77.2905 3.11048 77.3973 3.08777 77.5056C3.06506 77.6139 3.04269 77.7206 3.01965 77.9114" stroke="#131313" stroke-width="0.637048" stroke-linecap="round"/>
<path d="M18.2825 62.3717C18.2949 62.3717 18.3073 62.3717 18.3199 62.347C18.3324 62.3222 18.3448 62.2726 18.3326 61.5776C18.3204 60.8826 18.2832 59.5436 18.2889 58.8477C18.2945 58.1518 18.3441 58.1394 18.4068 58.133C18.7556 58.0975 19.3562 58.3009 19.8462 58.4891C20.0339 58.5519 20.396 58.689 20.8465 58.8766C21.0242 58.9527 21.0986 58.9899 21.2128 59.1034" stroke="#131313" stroke-width="0.637048" stroke-linecap="round"/>
<path d="M10.7071 69.6537C10.652 69.608 10.5964 69.4514 10.5417 68.8935C10.4931 68.3988 10.3773 67.4773 10.3209 66.8926C10.2644 66.308 10.2644 66.0889 10.3009 65.976C10.3494 65.8263 10.9971 65.9727 11.8037 66.1524C12.2903 66.2608 12.5227 66.3606 12.7216 66.4668C12.7999 66.5083 12.8832 66.5545 12.9706 66.6143C13.0124 66.6467 13.0489 66.6832 13.0866 66.7208" stroke="#131313" stroke-width="0.637048" stroke-linecap="round"/>
<path d="M11.3241 71.0418C11.3241 71.033 11.3241 71.0242 11.3021 71.0285C11.28 71.0327 11.2359 71.0504 10.7548 71.4738C10.2736 71.8973 9.35667 72.726 8.86227 73.1794C8.22896 73.7602 8.12769 73.9443 8.00279 74.1402C7.86176 74.3613 7.70931 74.5674 7.53097 74.737C7.34728 74.9118 7.15787 75.1461 6.99637 75.3381C6.93684 75.409 6.87173 75.5294 6.73882 75.7378C6.53608 76.0557 6.2845 76.3307 5.93037 76.7555C5.668 77.0702 5.25884 77.6035 5.03214 77.8892C4.73458 78.2643 4.66305 78.406 4.56513 78.5265C4.51138 78.5927 4.44932 78.6735 4.39588 78.7623C4.34915 78.84 4.39535 78.9318 4.44411 79.0117C4.58361 79.2403 4.87518 79.4207 5.06728 79.5907C5.2492 79.7516 5.56929 79.9642 5.7531 80.0984C5.93027 80.2278 6.14904 80.2233 6.45976 80.3298C6.87325 80.4715 7.20917 80.5084 7.48769 80.5218C8.10936 80.5516 8.58054 80.5087 8.76662 80.4819C9.07313 80.4379 9.45205 80.4464 9.7987 80.3755C10.3127 80.2703 10.4948 80.0283 10.6599 79.8548C10.939 79.5615 11.3118 79.0873 11.6749 78.5777C12.0988 77.9827 12.0716 77.2855 12.1211 77.0319C12.1457 76.9053 12.1432 76.7865 12.1699 76.4947C12.2303 75.8354 12.1702 75.3526 12.1569 75.2549C12.1182 74.972 12.0989 74.6673 12.0147 74.1742C11.933 73.6954 11.8317 73.3491 11.7431 73.0386C11.6003 72.2358 11.5205 71.8901 11.4493 71.5385C11.4221 71.4073 11.4133 71.372 11.4042 71.309" stroke="#131313" stroke-width="0.637048" stroke-linecap="round"/>
<path d="M28.7112 53.1992C28.6896 53.2754 28.4723 53.5366 27.6349 54.3358C26.9998 54.9419 25.8471 56.1612 25.2121 56.8075C24.5771 57.4538 24.5122 57.5079 24.3704 57.6495C24.0065 58.013 23.5507 58.5994 23.1355 59.2219C22.8301 59.6799 22.6955 59.9478 22.527 60.1976C21.9168 61.1026 21.8095 61.2929 21.564 61.6858C21.4324 61.8965 21.3281 62.0371 21.3167 62.1298C21.2995 62.2706 21.5568 62.3216 21.9043 62.4575C23.2265 62.9744 23.4378 63.0216 23.7876 63.1529C23.863 63.1812 23.9083 63.1752 24.3476 63.251C24.7868 63.3268 25.6207 63.4784 26.0773 63.5619C26.5882 63.6554 26.9362 63.6674 27.4172 63.662C27.9055 63.6565 28.2945 63.4384 28.8402 63.1763C29.3369 62.9378 29.6399 62.6731 29.7991 62.3233C29.9524 61.9863 30.2089 61.5035 30.259 61.2563C30.271 61.197 30.2752 61.1203 30.2808 60.6372C30.2864 60.1542 30.2864 59.2662 30.2756 58.7708C30.2592 58.0214 30.1446 57.6746 30.0842 57.3243C30.0023 56.8488 29.7298 55.8507 29.5487 55.4212C29.3177 54.8734 29.2153 54.5578 29.0236 54.0705C28.9633 53.933 28.9193 53.8234 28.8756 53.7033C28.8537 53.6481 28.832 53.6048 28.7769 53.5274" stroke="#131313" stroke-width="0.637048" stroke-linecap="round"/>
<path d="M0.682861 76.1562C0.737493 76.1562 0.853538 76.1744 1.26859 76.2987C1.63982 76.4099 2.34306 76.5984 2.71667 76.7012C3.09029 76.8039 3.11449 76.81 3.14813 76.8131C3.18177 76.8162 3.22412 76.8162 3.26775 76.8346" stroke="#131313" stroke-width="0.637048" stroke-linecap="round"/>
<path d="M0.33445 76.2305C0.346549 76.2426 0.352782 76.5997 0.346732 77.1465C0.340683 77.3423 0.328583 77.3726 0.32235 77.4396C0.316116 77.5066 0.316116 77.6094 0.33445 77.7704" stroke="#131313" stroke-width="0.637048" stroke-linecap="round"/>
<path d="M100.632 130.388C100.632 130.506 100.632 131.183 100.75 132.925C100.936 135.683 101.432 137.566 101.581 138.025C101.847 138.848 102.055 139.7 102.589 141.744C102.727 142.273 102.768 142.639 102.93 142.863C103.404 143.514 103.45 141.281 103.702 140.464C103.886 139.865 104.162 139.38 104.31 138.775C104.577 137.684 104.902 135.917 105.347 134.257C105.545 133.513 105.706 133.238 105.75 133.074C105.936 132.378 106.387 134.42 106.979 135.605C107.193 136.035 107.425 136.233 107.677 136.336C108.274 136.583 108.967 136.5 109.664 136.766C110.17 136.96 111.422 137.151 112.777 137.478C114.421 137.875 115.521 137.865 117.152 138.013C117.6 138.053 117.957 138.16 118.415 138.265C119.398 138.489 119.738 137.007 119.931 136.532C120.152 135.988 120.243 135.404 120.376 135.255C120.802 134.776 121.043 136.142 121.236 136.838C121.592 138.12 121.905 139.581 122.053 140.266C122.197 140.935 122.231 141.719 122.349 142.254C122.499 142.926 122.498 143.529 122.676 144.005C122.759 144.228 122.765 144.48 122.883 144.599C123.209 144.927 123.386 143.358 123.699 142.615C124.048 141.785 124.278 141.309 124.559 140.686C125.091 139.504 125.494 138.906 125.908 137.471C126.291 136.145 126.473 135.435 126.636 134.826C126.851 134.029 127.185 133.269 127.348 132.779C127.393 132.645 127.452 132.498 127.438 132.378C127.424 132.258 127.336 132.17 127.232 132.125C126.773 131.925 126.209 131.901 125.586 131.828C124.905 131.747 124.073 131.634 123.141 131.487C121.422 131.214 120.516 131.25 119.564 131.175C118.38 131.081 117.309 131.042 116.242 130.997C115.58 130.969 114.994 130.833 113.427 130.612C111.246 130.303 110.455 130.388 109.345 130.152C108.091 129.885 106.658 129.676 105.917 129.588C104.555 129.425 103.723 129.292 102.817 129.202C101.728 129.094 101.138 129.112 100.93 129.26C100.841 129.349 100.782 129.466 100.752 129.688C100.721 129.91 100.721 130.234 100.721 130.566" stroke="#131313" stroke-width="0.637048" stroke-linecap="round"/>
<path d="M104.096 147.706C104.096 147.445 104.139 146.661 104.183 146.026C104.235 145.263 104.619 144.542 104.772 143.851C104.836 143.565 105.142 142.536 105.492 141.019C105.794 139.706 106.018 139.209 106.203 138.878C106.501 138.349 106.739 140.427 106.848 140.985C106.933 141.412 107.023 141.848 107.056 142.579C107.077 143.035 107.177 143.529 107.263 143.955C107.381 144.535 108.354 144.209 110.423 144.253C112.119 144.289 112.463 144.471 112.932 144.548C113.357 144.617 114.054 144.734 114.702 144.886C115.39 145.048 115.913 145.084 116.353 145.17C116.554 145.21 116.724 145.411 116.931 145.498C117.025 145.538 117.117 145.499 117.183 145.445C117.612 145.092 117.838 144.168 118.177 143.382C118.397 142.873 118.669 142.551 119.051 141.374C119.248 140.768 119.369 140.365 119.51 140.19C119.566 140.121 119.673 140.188 119.75 140.275C120.078 140.646 120.198 141.364 120.472 142.424C120.741 143.466 120.68 144.745 120.735 145.736C120.781 146.589 120.811 147.027 120.866 147.724C120.927 148.512 120.986 148.905 121.062 149.364C121.091 149.536 121.074 149.798 120.911 149.932C120.123 150.582 118.895 150 118.006 149.946C117.208 149.897 115.643 149.803 114.717 149.738C114.161 149.699 113.647 149.498 113.089 149.465C112.527 149.431 111.921 149.258 111.319 149.137C110.41 148.955 108.843 148.755 108.281 148.689C107.583 148.608 106.676 148.361 106.217 148.296C105.838 148.242 105.409 148.165 104.819 148.056C104.665 148.033 104.514 148.033 104.393 148.023C104.271 148.012 104.185 147.99 103.899 147.968" stroke="#131313" stroke-width="0.637048" stroke-linecap="round"/>
<path d="M153.602 106.944C152.73 98.2271 152.053 79.8402 166.28 80.5199C173.483 80.864 177.818 87.405 182.432 91.4379" stroke="#131313" stroke-width="0.637048" stroke-linecap="round"/>
<path d="M150.997 109.487C151.018 109.105 151.879 108.094 158.055 104.62C163.517 101.672 173.706 96.3168 179.258 93.3681C184.81 90.4194 185.417 90.039 186.185 89.5954" stroke="#131313" stroke-width="0.637048" stroke-linecap="round"/>
<path d="M152.279 110.793C152.566 111.435 153.702 113.382 154.515 114.652C155.193 115.712 155.902 116.621 156.471 117.517C157.083 118.48 157.44 119.662 158.257 120.658C158.855 121.387 159.539 121.592 159.981 121.78C160.603 122.045 161.765 121.376 163.645 120.586C168.548 118.526 169.551 117.793 170.633 117.292C170.935 117.152 171.22 116.919 175.716 114.484C180.213 112.049 188.901 107.399 193.463 104.946C198.205 102.396 198.559 102.191 198.716 101.734C199.398 99.7489 197.49 99.0891 196.362 97.8347C195.489 96.8639 193.92 95.1805 191.162 92.6881C189.584 91.6925 189.139 91.2092 188.682 90.76C188.34 90.4817 187.776 90.1014 187.001 89.6188" stroke="#131313" stroke-width="0.637048" stroke-linecap="round"/>
<path d="M151.036 109.148C150.89 109.627 151.291 111.623 151.767 113.446C152.119 114.794 152.34 115.984 152.979 117.964C153.556 119.752 154.81 123.076 155.519 124.952C156.727 128.149 157.522 129.797 158.098 130.422C158.267 130.606 158.657 130.568 160.38 130.024C162.103 129.48 165.206 128.351 167.428 127.437C169.651 126.522 170.899 125.856 171.704 125.373C172.509 124.891 172.834 124.613 176.297 122.846C179.759 121.079 186.349 117.831 189.892 116.051C193.755 114.11 194.345 113.671 195.151 113.164C198.083 111.32 200.316 109.833 200.681 109.433C200.583 108.342 199.655 106.375 198.708 104.731C198.343 104.101 198.21 103.883 197.931 103.71" stroke="#131313" stroke-width="0.637048" stroke-linecap="round"/>
<path d="M177.157 113.347C177.243 113.76 177.691 114.529 178.516 115.251C179.247 115.891 179.907 115.832 180.588 115.893C181.771 116 182.161 115.715 182.58 115.638C183.523 115.463 184.064 114.281 184.425 113.757C185.294 112.496 185.381 110.826 185.355 110.315C185.339 110.182 185.317 110.064 185.282 109.938C185.247 109.812 185.199 109.682 185.151 109.547" stroke="#131313" stroke-width="0.637048" stroke-linecap="round"/>
<path d="M179.087 113.22C179.145 113.496 179.468 113.802 179.889 114.054C180.199 114.239 180.53 114.268 180.951 114.316C181.358 114.363 181.86 114.189 182.258 113.875C182.816 113.435 182.883 112.905 183.093 112.371C183.157 111.784 183.222 111.379 183.23 110.961C183.227 110.865 183.219 110.784 183.21 110.7" stroke="#131313" stroke-width="0.637048" stroke-linecap="round"/>
<path d="M152.08 108.129C149.747 95.5675 150.687 85.1025 158.45 80.2838C168.769 73.8779 176.812 82.7359 184.073 90.3261" stroke="#131313" stroke-width="0.637048" stroke-linecap="round"/>
<path d="M150.449 109.514C150.315 109.64 150.095 110.029 149.956 110.467C149.807 110.939 149.843 111.542 149.849 112.057C149.861 113.027 149.851 113.84 149.898 114.431C149.945 115.037 149.919 115.805 149.961 116.489C150.011 117.314 150.081 117.816 150.148 118.426C150.199 118.9 150.355 119.423 150.565 120.109C150.714 120.594 150.764 121.187 150.843 121.69C150.974 122.518 151.464 123.752 151.62 124.29C151.985 125.545 152.844 127.412 153.237 127.672C153.616 127.924 154.012 128.204 154.335 128.488C154.697 128.806 155.233 129.002 155.585 129.223C155.97 129.466 156.405 129.739 156.81 129.928C157.065 129.991 157.285 130.092 157.442 130.241C157.521 130.317 157.599 130.391 157.867 130.554" stroke="#131313" stroke-width="0.637048" stroke-linecap="round"/>
<path d="M168.035 106.354C168.052 106.348 168.749 105.937 170.605 104.887C171.886 104.162 173.931 103.185 175.33 102.535C176.729 101.884 177.44 101.626 177.864 101.462C178.756 101.117 179.698 100.667 180.168 100.446C180.244 100.408 180.324 100.36 180.409 100.319C180.494 100.278 180.58 100.246 180.67 100.214" stroke="#131313" stroke-width="0.637048" stroke-linecap="round"/>
<path d="M180.651 100.161C180.689 100.049 180.61 99.7214 180.531 99.2057C180.489 98.9352 180.502 97.7476 180.567 96.0991C180.593 95.4155 180.53 95.2499 180.508 95.1094C180.497 95.0389 180.545 94.9673 180.623 94.9379C181.029 94.7858 182.593 95.7758 183.57 96.2828C184.372 96.6645 185.032 97.001 185.202 97.117C185.289 97.1653 185.378 97.1921 185.54 97.2531" stroke="#131313" stroke-width="0.637048" stroke-linecap="round"/>
<path d="M167.935 106.569C167.695 106.558 167.112 106.374 166.609 106.19C165.898 105.929 165.139 105.743 164.372 105.567C163.686 105.409 163.384 105.389 163.263 105.413C163.298 105.755 163.434 106.182 163.647 106.852C163.841 107.412 164.206 108.417 164.583 109.453" stroke="#131313" stroke-width="0.637048" stroke-linecap="round"/>
<path d="M164.659 109.667C164.51 109.8 164.187 109.997 163.837 110.262C163.08 110.837 162.545 111.741 162.118 112.106C161.901 112.292 161.766 112.502 161.757 112.614C161.732 112.917 163.412 112.594 164.404 112.514C164.731 112.488 164.988 112.481 165.104 112.527C165.462 112.67 164.891 113.621 164.674 114.445C164.334 115.736 164.478 116.253 164.529 116.532C164.54 116.594 164.656 116.585 164.729 116.569C165.037 116.5 165.616 115.43 166.27 114.623C166.413 114.442 166.581 114.204 166.708 114.057C166.836 113.91 166.916 113.862 166.98 113.759" stroke="#131313" stroke-width="0.637048" stroke-linecap="round"/>
<path d="M185.746 97.6562C186.04 97.7063 186.647 97.9611 187.006 98.1285C187.396 98.3101 188.981 97.7071 189.86 97.5275C189.936 97.5121 190.013 97.5117 190.087 97.5242C190.162 97.5366 190.233 97.5697 190.247 97.634C190.437 98.4792 189.003 99.5237 188.753 99.8721C188.632 100.041 188.49 100.186 188.407 100.365C188.367 100.449 188.334 100.52 188.442 100.55C189.126 100.741 189.562 100.471 189.995 100.57C190.188 100.614 190.336 100.744 190.491 100.816C190.565 100.85 190.601 100.924 190.423 101.029C189.847 101.279 189.362 101.495 189.155 101.63C189.021 101.698 188.831 101.768 188.496 101.949" stroke="#131313" stroke-width="0.637048" stroke-linecap="round"/>
<path d="M167.099 113.667C167.146 113.589 167.829 113.311 168.878 113.096C169.645 112.938 169.932 112.895 170.457 112.795C170.724 112.745 170.951 112.646 171.425 112.497C171.791 112.381 172.399 112.15 173.115 111.897C173.831 111.645 174.633 111.368 175.172 111.157C175.711 110.947 175.962 110.81 176.357 110.643C176.753 110.476 177.284 110.283 178.292 109.781C179.3 109.279 180.767 108.475 181.569 108.021C182.475 107.509 182.936 107.165 183.548 106.761C184.064 106.42 184.969 105.623 185.645 105.123C186.125 104.769 186.846 104.18 187.355 103.719C187.569 103.525 187.846 103.192 188.054 102.948C188.105 102.899 188.162 102.848 188.204 102.795C188.246 102.742 188.271 102.687 188.363 102.562" stroke="#131313" stroke-width="0.637048" stroke-linecap="round"/>
<path d="M172.779 106.176C172.773 106.159 172.81 106.183 172.943 106.314C173.035 106.412 173.179 106.576 173.287 106.714C173.395 106.852 173.462 106.959 173.599 107.101" stroke="#131313" stroke-width="0.637048" stroke-linecap="round"/>
<path d="M178.05 103.375C178.112 103.39 178.263 103.543 178.401 103.674C178.516 103.822 178.712 103.996 178.827 104.116C178.878 104.165 178.915 104.189 178.996 104.255" stroke="#131313" stroke-width="0.637048" stroke-linecap="round"/>
<path d="M176.151 106.997C176.189 107.049 176.333 107.186 176.497 107.321C176.639 107.439 176.933 107.612 177.256 107.728C177.454 107.799 177.636 107.822 177.856 107.814C178.009 107.808 178.039 107.573 178.109 107.386C178.228 107.067 178.099 106.64 178.056 106.457C178.045 106.413 178.033 106.38 178.025 106.345C178.017 106.309 178.013 106.273 177.991 106.186" stroke="#131313" stroke-width="0.637048" stroke-linecap="round"/>
<path d="M200.325 97.5462C200.265 97.429 200.047 97.0208 199.57 95.9986C199.159 95.117 199.027 94.364 199.039 94.0107C199.048 93.7168 199.139 93.5172 199.26 93.3688C199.416 93.1752 199.606 93.0674 199.726 93.0147C199.979 92.9041 200.4 93.283 200.772 93.6039C201.073 93.8643 201.272 94.5204 201.536 95.1767C201.619 95.3811 201.658 95.2963 201.684 95.1039C201.804 94.2172 201.855 93.9127 202.117 93.267C202.286 92.8525 202.409 92.5042 202.673 92.2932C202.909 92.1046 203.205 92.1427 203.355 92.1931C203.625 92.2846 203.83 92.5616 204.115 93.2959C204.284 93.7295 204.038 94.0435 203.863 94.2826C203.643 94.5825 203.559 94.9869 203.445 95.3958C203.4 95.5589 203.386 95.7154 203.391 95.8271C203.404 96.1113 203.959 95.613 204.378 95.3992C204.938 95.1138 205.426 95.0267 205.584 95.0042C205.876 94.9627 206.301 95.3179 206.595 95.5716C206.805 95.7522 206.951 96.0449 207.153 96.5745C207.304 96.9702 206.855 97.4108 206.573 97.6704C205.928 98.2649 204.224 98.4913 203.832 98.528C203.511 98.5581 203.054 98.5494 202.744 98.5911C202.401 98.6373 202.064 98.524 201.656 98.4364C201.284 98.3527 201.031 98.2352 200.862 98.1048C200.786 98.044 200.734 97.9939 200.679 97.9423" stroke="#131313" stroke-width="0.637048" stroke-linecap="round"/>
<path d="M199.344 92.9129C199.329 92.6667 199.326 92.3507 199.336 92.1591C199.347 91.9668 199.408 91.7781 199.485 91.6049C199.504 91.562 199.532 91.5273 199.577 91.5476C199.687 91.6458 199.847 91.9053 200.015 92.2502C200.089 92.416 200.143 92.5631 200.198 92.7147" stroke="#131313" stroke-width="0.637048" stroke-linecap="round"/>
<path d="M203.332 91.7767C203.349 91.6962 203.401 91.3797 203.515 91.0988C203.637 90.7955 203.716 90.6746 203.747 90.6305C203.88 90.4384 203.981 91.2216 204 91.5045C203.987 91.7232 203.954 91.9425 203.909 92.1032C203.887 92.1726 203.867 92.2172 203.805 92.3059" stroke="#131313" stroke-width="0.637048" stroke-linecap="round"/>
<path d="M207.124 95.7242C207.37 95.7092 207.571 95.6735 207.722 95.6373C207.781 95.6232 207.81 95.6606 207.808 95.69C207.77 95.7506 207.645 95.8429 207.478 95.9501C207.401 95.9971 207.339 96.029 207.209 96.1137" stroke="#131313" stroke-width="0.637048" stroke-linecap="round"/>
<path d="M147.837 121.02C147.808 120.892 147.713 120.439 147.422 119.349C147.171 118.409 146.788 117.747 146.552 117.484C146.357 117.264 146.158 117.17 145.971 117.134C145.726 117.086 145.512 117.125 145.386 117.162C145.121 117.239 145.042 117.8 144.963 118.285C144.899 118.678 145.168 119.309 145.387 119.982C145.455 120.191 145.371 120.151 145.227 120.021C144.566 119.418 144.331 119.217 143.715 118.891C143.32 118.682 143.002 118.494 142.664 118.502C142.362 118.509 142.159 118.728 142.077 118.863C141.928 119.107 141.949 119.451 142.202 120.197C142.352 120.637 142.742 120.72 143.03 120.791C143.391 120.879 143.715 121.136 144.065 121.376C144.204 121.471 144.315 121.583 144.383 121.672C144.555 121.898 143.81 121.872 143.352 121.978C142.74 122.118 142.31 122.365 142.174 122.449C141.924 122.605 141.826 123.15 141.763 123.534C141.719 123.807 141.794 124.125 141.98 124.661C142.119 125.061 142.746 125.11 143.128 125.128C144.004 125.17 145.456 124.248 145.78 124.025C146.046 123.841 146.39 123.541 146.654 123.375C146.947 123.189 147.132 122.886 147.389 122.557C147.62 122.254 147.739 122.001 147.785 121.793C147.803 121.698 147.812 121.625 147.82 121.551" stroke="#131313" stroke-width="0.637048" stroke-linecap="round"/>
<path d="M145.616 116.846C145.469 116.648 145.269 116.404 145.138 116.264C145.007 116.123 144.839 116.018 144.668 115.934C144.626 115.914 144.583 115.905 144.561 115.949C144.54 116.095 144.584 116.397 144.677 116.769C144.726 116.944 144.78 117.091 144.835 117.243" stroke="#131313" stroke-width="0.637048" stroke-linecap="round"/>
<path d="M141.827 118.531C141.762 118.48 141.518 118.271 141.251 118.128C140.962 117.975 140.824 117.933 140.772 117.919C140.547 117.857 140.973 118.522 141.14 118.751C141.29 118.91 141.456 119.057 141.594 119.152C141.655 119.191 141.699 119.212 141.804 119.24" stroke="#131313" stroke-width="0.637048" stroke-linecap="round"/>
<path d="M141.457 123.995C141.259 124.141 141.081 124.243 140.943 124.312C140.889 124.339 140.89 124.387 140.911 124.408C140.979 124.43 141.134 124.42 141.331 124.396C141.42 124.382 141.488 124.366 141.642 124.348" stroke="#131313" stroke-width="0.637048" stroke-linecap="round"/>
</svg>
