<svg width="171" height="157" viewBox="0 0 171 157" fill="none" xmlns="http://www.w3.org/2000/svg">
<path d="M45.3499 60.8871C45.4079 60.3608 46.2812 59.0773 47.1227 58.3067C47.4374 58.0185 48.6842 57.3714 50.4285 56.5211C52.0519 55.7297 53.2387 55.6364 54.6101 55.2711C55.5663 55.0164 57.0854 54.7606 59.098 54.5529C61.1107 54.3451 63.5798 54.2289 64.9535 54.1836C66.9433 54.1972 67.7628 54.2553 68.7025 54.2998C68.9098 54.3143 69.055 54.3434 69.2927 54.3733" stroke="#131313" stroke-width="0.965343" stroke-linecap="round"/>
<path d="M45.2622 61.3305C45.2622 61.8252 45.3203 62.8832 45.5109 63.4263C45.7138 64.0046 46.4312 65.4571 47.2542 66.9152C47.6908 67.6887 48.7181 68.6885 49.8316 69.8024C50.885 70.8563 51.4504 71.1576 51.9358 71.467C52.8748 72.0654 54.6175 73.036 55.2073 73.3741C55.9426 73.7955 57.172 74.0342 58.3441 74.2402C59.0146 74.3581 60.0715 74.3582 61.513 73.584C62.2482 73.1891 62.6595 72.6875 63.2026 72.3349C63.979 71.8309 64.8601 70.7527 65.3887 70.1207C65.8883 69.5233 66.5009 68.0609 67.0907 66.865C67.8432 65.3391 68.3811 63.2758 68.6615 62.4039C68.921 61.5967 69.0272 60.2847 69.1315 59.3666C69.1751 59.0453 69.2341 58.6915 69.2781 58.0352C69.293 57.5533 69.293 56.769 69.293 55.9609" stroke="#131313" stroke-width="0.965343" stroke-linecap="round"/>
<path d="M78.0293 53.4278C78.2907 53.0783 79.2282 52.3733 82.4297 50.8671C83.4767 50.3746 84.6664 50.0899 86.8771 49.8377C89.0879 49.5855 92.3122 49.4403 94.1476 49.38C96.3305 49.3082 96.9811 49.4367 97.9296 49.5683C100.797 49.8478 101.382 50.023 101.924 50.2281C102.175 50.317 102.379 50.3751 102.852 50.523" stroke="#131313" stroke-width="0.965343" stroke-linecap="round"/>
<path d="M77.9414 55.1002C77.9414 55.4206 78.0576 56.3572 78.2777 57.2973C78.5103 58.2913 79.4906 59.4627 80.1693 60.3645C80.8054 61.2097 81.2846 61.7285 81.6371 62.2139C82.034 62.7605 82.605 63.4309 83.1617 63.9445C83.9185 64.6426 84.5116 64.9872 84.9522 65.3243C85.5865 65.8097 86.096 66.0435 88.3196 66.7609C89.292 67.0746 91.2781 67.1007 93.7533 66.9413C95.7625 66.812 97.2119 65.2301 98.3408 64.0576C98.9741 63.3998 99.5903 62.1228 100.528 60.4231C101.166 59.2651 101.735 58.5077 102.116 57.7467C102.734 55.8123 103.029 53.8714 103.175 52.4661C103.205 51.9956 103.205 51.4436 103.205 50.875" stroke="#131313" stroke-width="0.965343" stroke-linecap="round"/>
<path d="M49.2417 70.0881C49.2417 70.1851 49.2902 70.3806 49.4971 70.8436C49.8676 71.6727 50.9247 73.0189 52.0998 74.4024C52.9639 75.4197 53.7217 75.9409 54.3093 76.4179C55.8414 77.6616 56.6379 77.9267 57.3471 78.232C58.206 78.6019 59.2057 78.8321 60.128 78.9192C60.801 78.9827 61.6353 78.932 62.4665 78.5172C63.4052 78.0487 64.0826 77.3681 64.5268 76.8629C64.6697 76.7004 65.5245 75.5617 66.7974 73.7388C67.5743 72.626 67.7851 72.0003 68.0291 71.4888C68.4628 70.5795 68.5942 69.7956 68.6673 69.1022C68.789 67.6085 68.9124 66.3672 68.9859 65.6598C69.0109 65.2193 69.0109 64.613 69.0109 63.9883" stroke="#131313" stroke-width="0.965343" stroke-linecap="round"/>
<path d="M80.4753 61.3407C80.4753 61.6332 80.6209 62.2197 81.5252 63.7601C81.8929 64.3864 82.5772 65.2284 83.2048 65.9442C83.7281 66.5411 84.1955 67.0451 84.7239 67.5247C85.4159 68.1527 86.4987 68.8354 87.0745 69.2514C87.6309 69.6533 88.3117 69.9135 88.91 70.1458C90.5037 70.7645 91.9621 70.5757 93.1107 70.5764C94.5058 70.5773 95.7557 69.7952 96.8595 68.878C97.662 68.2113 98.1603 67.37 98.6726 66.541C99.0011 66.0093 99.4273 65.227 99.8462 64.2451C100.746 62.1364 101.126 60.5603 101.248 59.9609C101.298 59.7011 101.322 59.5314 101.347 59.3954C101.371 59.2595 101.395 59.1624 101.42 59.0625" stroke="#131313" stroke-width="0.965343" stroke-linecap="round"/>
<path d="M55.163 59.2778C55.2166 60.0502 55.504 61.2036 55.6945 61.9002C55.9464 62.8213 56.4588 63.9413 56.8038 64.8411C57.1608 65.772 57.2912 66.1864 57.5256 66.5653C57.5814 66.6555 57.616 66.7276 57.6969 66.7823C58.0455 67.0178 58.4268 66.7839 58.9407 66.5496C59.422 66.3301 59.8698 66.1171 60.3753 65.837C60.5637 65.7326 60.6833 65.5932 60.7823 65.4045C60.9169 65.1482 60.9003 64.3001 60.8378 63.1291C60.7599 61.6701 60.2519 60.9589 60.1339 60.4702C59.9715 59.7977 59.5656 58.9909 59.3585 58.6835C59.1892 58.432 59.0606 58.2499 58.9258 58.1688C58.0049 57.614 56.1567 58.7354 55.8138 58.8624C55.6339 58.952 55.4526 59.0786 55.2547 59.2315C55.1462 59.313 55.0212 59.4023 54.73 59.6025" stroke="#131313" stroke-width="0.965343" stroke-linecap="round"/>
<path d="M89.2622 53.3817C89.2622 53.596 89.2622 54.1172 89.4051 55.4452C89.5044 56.3681 89.8338 57.7734 90.0078 58.5807C90.2173 59.5528 90.3263 59.9644 90.434 60.5398C90.5702 61.2674 90.7593 61.7343 90.8402 61.8694C90.919 62.0008 91.0835 62.0596 91.2724 62.0867C91.7828 62.1598 92.4708 61.8263 92.8334 61.6634C93.1428 61.5244 93.4288 61.3392 93.8074 60.9338C94.2734 60.4349 93.8813 59.211 93.5487 58.1409C93.1029 56.7068 92.9611 56.036 92.7993 55.4328C92.4585 54.1624 92.3658 53.8342 92.2397 53.5451C92.1753 53.3976 92.0773 53.274 91.9246 53.166C91.4105 52.9849 90.9423 52.9487 90.3209 52.9037C90.06 52.8945 89.6671 52.8945 89.2622 52.8945" stroke="#131313" stroke-width="0.965343" stroke-linecap="round"/>
<path d="M72.356 72.2329C72.5956 72.209 73.1741 72.0171 74.1019 71.6551C74.5143 71.4942 75.4374 71.0535 76.8706 70.5112C78.7723 69.7916 79.4007 69.7958 80.1124 69.6992C80.6181 69.6305 80.995 69.4577 81.1398 69.4693C81.6827 69.5127 80.7792 70.9268 80.6825 71.4227C80.5971 71.8613 80.3448 72.2792 80.2843 72.7495C80.1778 73.5781 79.935 74.1356 79.8257 74.7286C79.7093 75.3597 79.6932 75.8023 79.6566 76.4057C79.6404 76.673 79.5961 76.9853 79.5484 77.2391C79.4756 77.6253 78.5623 76.6523 78.0656 76.2407C77.3033 75.609 76.6552 75.2028 75.883 74.8288C74.8395 74.3235 74.1704 74.1414 73.5046 73.7548C72.9359 73.392 72.7187 73.1748 72.5504 72.9468C72.4537 72.7904 72.3343 72.5514 72.2112 72.2329" stroke="#131313" stroke-width="0.965343" stroke-linecap="round"/>
<path d="M79.3127 77.2598C79.3265 77.5789 79.5747 78.1866 79.861 78.7321C80.0283 79.0508 80.3262 79.2743 80.6044 79.5041C81.0244 79.851 81.4097 79.9282 81.7791 80.0191C82.3692 80.1644 83.1347 80.0408 83.4959 79.8949C83.7652 79.786 83.9964 79.5545 84.2956 79.2353C84.5466 78.9675 84.7196 78.4585 85.0046 77.4582C85.1091 77.1506 85.2205 76.7072 85.3247 76.0414C85.3602 75.7196 85.3602 75.4306 85.3602 75.1328" stroke="#131313" stroke-width="0.965343" stroke-linecap="round"/>
<path d="M79.2294 77.0117C79.2431 77.136 79.3261 77.4688 79.4721 77.8373C79.6523 78.2921 79.5905 78.6224 79.6739 79.0814C79.7488 79.4933 79.7298 80.2456 79.6815 80.8055C79.6467 81.2075 79.4387 81.4735 79.1956 81.7859C78.9958 82.0425 78.7439 82.155 78.3967 82.3218C78.0663 82.4805 77.7296 82.4336 77.1463 82.2744C76.7278 82.1603 76.3683 81.7546 75.5137 80.9492C75.0729 80.3908 74.9757 80.1681 74.8787 79.9883C74.8231 79.8636 74.7543 79.6709 74.6833 79.4724" stroke="#131313" stroke-width="0.965343" stroke-linecap="round"/>
<path d="M69.3269 52.1076C69.1676 52.0932 68.8775 52.0639 68.6152 52.0205C68.3093 51.9767 67.53 51.8903 66.404 51.7594C65.9404 51.7148 65.6956 51.7148 65.4434 51.7148" stroke="#131313" stroke-width="0.965343" stroke-linecap="round"/>
<path d="M76.4832 51.4918C76.817 51.1872 77.1071 50.9254 77.3622 50.7362C77.718 50.4166 78.5 49.9235 79.4362 49.4588C79.8828 49.2533 80.2716 49.1093 80.6721 48.9609" stroke="#131313" stroke-width="0.965343" stroke-linecap="round"/>
<path d="M60.0338 49.604C59.2515 49.604 58.2267 49.7495 57.0614 49.9462C56.0705 50.1134 55.33 50.3142 55.0488 50.3998C53.6996 50.8108 51.6782 51.7353 51.4338 51.7849C50.7722 51.9192 50.5027 50.5391 50.2806 50.0466C50.0022 49.4289 51.8437 48.6262 52.5204 48.3427C52.7878 48.2308 53.3633 47.988 54.1345 47.7553C54.5838 47.6198 55.4439 47.3763 57.0195 46.9117C59.9926 46.0349 60.3514 46.2713 60.5348 46.2709C60.694 46.3676 60.769 47.4373 60.6598 48.993C60.5506 49.554 60.3323 49.651 60.1073 49.751" stroke="#131313" stroke-width="0.965343" stroke-linecap="round"/>
<path d="M79.9534 45.2883C80.1942 45.1505 80.7149 44.9419 81.0616 44.8207C81.1654 44.7844 81.2861 44.7515 82.4552 44.5364C83.6243 44.3213 85.8387 43.9265 87.2112 43.7231C88.5837 43.5197 89.0472 43.5197 89.286 43.2193C90.3039 41.9385 89.4207 41.2496 89.3775 40.8598C89.3306 40.4358 89.3167 40.0886 89.2649 39.7323C89.2533 39.6526 89.2303 39.585 89.1957 39.5239C89.1611 39.4628 89.1096 39.4113 89.0144 39.3848C88.5714 39.2613 87.831 39.5476 86.8843 39.8771C85.769 40.2653 85.022 40.4662 84.0576 40.7099C83.268 40.9095 82.6115 41.1081 82.0099 41.3256C81.3751 41.555 80.7701 41.75 80.3622 41.9324C80.0395 42.0767 80.1448 42.7363 80.118 44.1041C80.1266 44.3858 80.1438 44.4716 80.1526 44.5931C80.1614 44.7146 80.1614 44.8691 80.1614 45.0282" stroke="#131313" stroke-width="0.965343" stroke-linecap="round"/>
<path d="M56.1777 83.0206C55.2062 83.2259 54.9077 83.4121 53.2952 84.3259C52.6569 84.6877 52.2712 84.8897 51.6457 85.4582C51.2118 85.8527 51.2974 86.2725 51.3344 86.5619C51.3858 86.9643 52.0793 87.0954 52.5301 87.2183C52.928 87.3267 54.3524 87.2839 55.4824 87.0979C55.7681 87.0509 56.1878 86.9305 56.9996 86.6699C57.8113 86.4094 58.996 85.9836 59.8007 85.6624C61.5763 84.9538 61.8985 84.4623 62.0581 84.1436C62.1281 84.0038 62.124 83.6404 62.0777 83.1734C62.0467 82.8607 61.7509 82.7407 61.5459 82.6565C61.3204 82.564 61.0778 82.6094 60.3822 82.5813C59.7795 82.557 58.6684 82.5718 57.8186 82.6366C55.7671 83.02 55.2836 83.2624 54.7509 83.4865C54.5515 83.581 54.496 83.6365 54.4388 83.6937" stroke="#131313" stroke-width="0.965343" stroke-linecap="round"/>
<path d="M105.556 68.0308C105.371 68.0678 104.923 68.2911 104.176 68.7303C103.902 68.8912 103.558 69.1325 102.916 69.5698C101.29 70.6764 101.089 71.2642 100.864 71.6196C100.667 71.9305 100.695 72.2739 100.704 72.8902C100.706 73.0257 100.787 73.0784 100.955 73.1255C101.774 73.356 102.948 73.0997 104.216 72.7628C104.525 72.6808 104.955 72.4821 105.747 72.2122C106.744 71.8726 107.647 71.2311 108.301 70.7734C108.887 70.3628 109.314 69.9583 109.575 69.6683C109.99 69.2089 110.192 68.7443 110.306 68.3219C110.393 67.9982 109.84 67.7144 109.354 67.4799C108.777 67.2015 107.432 67.1894 106.616 67.3938C106.123 67.6168 105.615 67.8244 105.232 67.9643C105.071 68.0302 104.979 68.0858 104.883 68.143" stroke="#131313" stroke-width="0.965343" stroke-linecap="round"/>
<path d="M69.9224 35.7227C69.3122 38.3142 68.1824 43.2484 68.0525 44.837C68.002 45.4552 67.8735 45.9168 67.7205 46.1228C67.0794 46.9862 66.7468 43.6695 65.7761 40.8827C65.5678 40.2848 65.5171 40.0819 65.3895 39.952C65.1256 39.6833 64.6471 39.7192 64.2382 39.7699C63.1703 39.9024 62.1385 40.7429 61.3177 41.0757C59.9029 41.6492 57.023 42.8395 55.9117 43.5343C55.7239 43.6516 55.5289 43.7648 55.3737 43.7156C54.6102 43.4738 54.9617 42.1816 54.758 41.6951C54.6662 41.4757 54.3515 41.4622 53.8658 41.7912C51.552 43.3581 51.2773 44.684 50.6847 45.5571C50.07 46.4628 49.3805 47.9089 48.9931 49.0148C48.5587 50.255 48.3014 51.2936 47.994 52.345C47.9133 52.6211 47.9417 52.9322 47.8403 53.1397C47.3976 54.0452 45.8943 53.5532 45.5108 53.68C44.4649 54.0258 44.3572 55.8004 44.1766 57.3375C43.8914 59.7646 43.6901 60.67 43.5102 61.9758C43.2683 63.7324 43.3304 66.0868 43.5087 67.9713C43.6942 69.9326 44.4555 71.4298 44.7384 72.6088C44.8126 72.9183 44.9167 73.2221 44.7914 73.4042C44.6661 73.5864 44.3111 73.6371 43.9506 73.435C42.2674 72.4911 42.1038 70.2155 41.7433 69.005C41.5475 68.3475 41.18 67.7484 40.8733 67.4656C40.0007 66.6608 40.5113 70.609 40.8187 71.8656C41.1559 73.2436 41.4828 75.4171 42.2006 77.4999C42.8125 79.2752 43.0721 80.8584 43.355 81.8068C43.4893 82.2574 43.6378 82.7552 43.5364 83.2417C43.4581 83.6169 42.8201 83.6283 42.4112 83.7313C41.1846 82.5124 39.6951 79.6411 39.184 78.1831C38.9266 77.5367 38.6729 77.0802 38.4116 76.6099" stroke="#131313" stroke-width="0.965343" stroke-linecap="round"/>
<path d="M69.9487 36.0174C70.2227 36.3368 70.5904 37.1602 71.2079 38.0559C72.0588 39.29 72.4712 39.9608 73.2732 40.9246C73.5692 41.2803 73.6649 41.6613 73.8942 41.7315C75.6685 42.275 74.1703 37.0308 74.4222 36.341C74.5508 35.9889 77.45 36.0174 81.3961 36.0401C82.981 36.0493 83.4849 36.1551 83.9668 35.9506C84.5513 35.7026 83.9943 34.7796 83.9241 34.6185C83.3637 33.3329 87.4269 36.2432 89.4702 37.344C90.8165 38.0694 91.698 38.9061 92.9379 39.9601C94.1538 40.9937 95.1402 42.3896 95.9002 43.5861C96.2911 44.2015 96.7512 44.5982 96.8661 44.6691C97.9422 45.3327 96.4785 41.5828 96.1109 40.1976C95.8831 39.3393 95.6056 38.5454 95.3991 37.8101C95.3458 37.6205 95.2393 37.4439 95.3061 37.4865C96.3557 38.1574 97.3432 39.4101 98.3318 40.2596C99.2983 41.0901 101.053 42.8881 103.514 45.9668C104.379 47.0479 104.919 48.1285 105.768 50.0313C106.379 51.4017 106.482 52.5841 106.596 52.7004C108.472 54.6102 106.94 46.2504 107.191 46.6848C107.834 47.7951 108.862 48.9959 109.898 51.0399C111.023 53.8646 112.032 56.3375 112.356 57.4941C112.402 57.6786 112.448 57.8603 112.632 58.3229" stroke="#131313" stroke-width="0.965343" stroke-linecap="round"/>
<path d="M65.7339 23.8558C65.1607 23.411 64.1427 22.3911 61.9398 20.9532C60.2498 19.8501 57.8812 19.0629 56.6006 18.9038C56.2187 18.8563 55.711 18.8712 55.5452 18.9977C56.081 19.8911 58.1151 21.9233 59.5952 23.2778C59.8521 23.4704 60.1051 23.6602 60.3659 23.8558" stroke="#131313" stroke-width="0.965343" stroke-linecap="round"/>
<path d="M65.5425 23.855C65.5425 23.092 65.7955 21.4356 66.4982 20.1846C66.6681 19.8821 66.8807 19.5798 67.105 19.5117C68.0961 20.4617 68.6732 22.0625 68.7691 22.7316C68.8016 23.0843 68.8016 23.4639 68.8016 23.855" stroke="#131313" stroke-width="0.965343" stroke-linecap="round"/>
<path d="M42.2091 84.1581C42.165 84.4681 42.0754 85.3555 42.3855 86.3591C42.7743 87.6176 43.4091 88.1645 43.9443 88.9436C44.4554 89.6876 45.0582 90.2572 45.7029 90.749C46.5825 91.4198 47.771 92.0827 48.7973 92.7749C50.393 93.8512 51.9564 93.868 53.0302 94.0464C53.4772 94.1207 56.3476 94.1807 60.511 94.1587C62.3383 94.149 63.6254 94.003 65.6907 93.8259C66.7899 93.7317 67.9765 93.4725 69.3396 93.1604C70.7027 92.8484 72.2021 92.4515 74.7164 91.9383C77.2308 91.4252 80.7146 90.8078 83.6339 90.181C86.5531 89.5543 88.8022 88.9369 90.0711 88.5747C92.2322 87.9579 94.6234 87.1489 96.3265 86.5428C97.5831 86.0957 99.8779 85.1898 101.428 84.4494C102.537 83.92 103.809 83.2708 105.324 82.0246C106.319 81.205 108.431 79.8043 109.937 78.4158C110.975 77.458 111.961 76.0572 113.276 74.0981C114.127 72.8308 114.548 70.8454 114.905 69.9514C115.302 68.9561 115.307 64.5966 115.174 62.111C114.908 61.1328 114.375 59.7083 113.906 58.6379C113.751 58.3692 113.53 58.1046 113.303 57.832" stroke="#131313" stroke-width="0.965343" stroke-linecap="round"/>
<path d="M54.4715 25.8082C55.6492 24.9974 58.7572 24.0004 60.3215 23.7617M51.2087 29.4186C50.8602 29.7264 47.0444 31.047 42.9769 31.8155C39.8601 32.4044 38.7236 33.3568 37.7673 33.9048C36.9942 34.3479 36.3712 35.2985 35.8421 36.0713C35.4001 36.7168 35.0735 37.6096 34.8086 38.2785C34.4913 39.0799 34.0602 39.8769 33.8767 40.5871C33.6884 41.3159 33.5741 41.9838 33.3305 42.6326C33.0688 43.3297 32.7236 43.9279 32.3992 44.5768C31.9858 45.4034 31.5498 46.5597 30.6999 48.0768C30.1629 49.0353 29.9289 50.0032 29.7254 50.6922C29.4686 51.5615 29.3214 52.4723 29.2187 53.3647C29.0109 55.1716 29.1975 57.6169 29.3396 58.4273C29.3887 58.7069 29.3603 59.1114 29.4405 59.2979C29.5207 59.4844 29.6811 59.4443 29.8439 59.2633C30.6323 58.3866 30.8159 57.5828 31.3834 57.0348C31.9295 56.5074 31.5887 58.9534 31.4065 59.7444C31.2365 60.4821 30.9812 61.3423 30.7181 62.1138C30.3837 63.0948 30.2521 64.1782 30.1908 64.9692C30.1323 65.7235 29.9289 66.9291 29.6446 68.8532C29.5406 69.557 29.5632 70.1333 29.5024 71.3805C29.2794 75.9602 29.6033 76.8562 29.805 78.1102C29.9481 79.0001 30.1695 79.8939 30.4727 80.3623C30.8905 81.0079 31.0201 78.6473 31.2831 77.2293C31.3438 76.9023 31.3846 76.6618 31.5055 76.3374C31.6264 76.013 31.8269 75.612 31.9301 76.3878C32.5857 81.3118 32.1549 82.4018 32.2959 83.3168C32.4169 84.1022 32.641 84.8757 32.8621 85.7451C33.1225 86.7686 33.6118 87.4699 33.8542 87.5719C35.613 88.3125 35.5158 82.4942 35.9399 81.7214C36.3041 81.0576 36.8913 83.0531 37.398 83.7827C37.881 84.4784 38.6726 84.7566 39.3214 85.0397C39.6446 85.2013 39.9703 85.324 40.3135 85.4249C40.4964 85.4857 40.6969 85.5658 41.1464 85.6485" stroke="#131313" stroke-width="0.965343" stroke-linecap="round"/>
<path d="M54.2977 25.6703C53.7957 24.9367 52.3208 23.6548 51.1694 22.9143C49.3015 21.7132 47.6061 20.5545 46.7168 20.1261C46.1681 19.8619 45.0706 19.3694 43.425 18.5626C40.9043 17.3269 38.8691 17.2227 37.6463 16.827C36.9432 16.5994 35.6065 16.5619 34.2008 16.3813C33.9477 16.3488 33.8199 16.2987 33.6874 16.3635C33.0298 16.685 32.9296 18.0715 32.6966 19.1636C32.4586 20.2797 32.071 22.5864 31.9874 23.9936C31.941 24.7736 31.8395 25.6254 31.7895 27.8309C31.7484 29.6441 31.7722 31.9585 31.8222 32.7331C31.8663 33.4181 32.1343 34.2654 32.2179 34.9594C32.3073 35.7018 32.7278 36.6713 33.1067 37.662C33.2224 37.9266 33.353 38.2204 33.4856 38.5024C33.6181 38.7843 33.7487 39.0455 33.8833 39.5124" stroke="#131313" stroke-width="0.965343" stroke-linecap="round"/>
<path d="M34.8149 19.6719C35.1439 19.6719 36.4646 19.8594 37.5115 20.0385C38.9146 20.2784 40.6848 21.0914 41.5832 21.5049C43.4394 22.3592 43.8123 22.7496 44.7221 23.3045C45.5885 23.833 46.0844 24.3112 46.63 24.9265C47.4427 25.8429 48.6364 26.8149 49.3664 27.4977C49.7099 27.8884 50.4168 28.5953 50.9294 29.049C51.0129 29.1204 51.0832 29.1907 51.2267 29.2632" stroke="#131313" stroke-width="0.965343" stroke-linecap="round"/>
<path d="M43.3445 22.905C43.3033 22.905 43.2622 22.905 41.8907 22.8501C40.5192 22.7953 37.8185 22.6856 36.4479 22.6565C35.0772 22.6275 35.1183 22.6823 35.1601 22.7311C35.2396 22.8241 35.3676 22.8908 36.2667 23.3025C37.0876 23.6783 38.6328 24.4271 39.4719 24.8221C40.5967 25.3517 40.989 25.508 41.1631 25.6667C41.2711 25.7651 41.1569 25.9645 41.0948 26.089C40.9701 26.3387 40.3161 26.8606 39.9526 27.3556C39.6734 27.7357 39.4138 28.7009 39.3421 29.1774C39.2732 29.6358 40.2537 28.7225 41.5831 28.2807C42.4638 27.988 44.0872 27.4987 44.9343 27.2785C45.7813 27.0583 45.8087 27.1406 45.8229 27.2104C45.9409 27.7934 45.6293 28.7749 45.5948 29.0453C45.5605 29.3139 45.5188 29.6198 45.5115 30.4002C45.5099 30.5758 45.5321 30.6443 45.5734 30.6864C45.8919 31.0113 47.851 30.5659 48.6023 30.4002" stroke="#131313" stroke-width="0.965343" stroke-linecap="round"/>
<path d="M69.0933 23.1254C70.0215 22.4378 73.1028 20.1133 74.4928 20.1133M80.4394 21.8895C85.983 20.852 91.3808 20.5869 96.5606 22.6039C98.3018 23.2818 99.4546 24.5055 100.436 24.895C101.532 25.3295 102.185 26.0541 103.042 26.7258C103.407 27.0121 103.817 27.1947 103.961 27.4591C104.612 28.6601 100.402 27.8054 99.7501 28.0503C99.3919 28.1847 99.1786 28.5382 99.1169 28.8832C98.957 29.7773 101.323 30.3677 104.073 31.021C105.657 31.3972 106.863 31.9162 107.806 32.3852C108.516 32.7385 109.23 33.1791 109.882 33.6468C110.643 34.193 111.306 34.8473 112.08 35.3768C112.938 35.9639 113.585 36.6378 114.339 37.249C115.602 38.2724 116.558 39.5273 117.088 40.0995C117.578 40.628 117.903 41.3593 118.471 42.6398C119.248 44.3913 119.613 45.0256 119.655 45.3102C119.696 45.593 118.2 45.5972 116.672 45.7181C116.218 45.754 116.474 46.0808 117.445 47.7369C118.416 49.3929 120.109 52.4559 121.142 54.3563C122.52 56.8897 123.032 58.3316 123.397 59.653C123.803 61.1182 124.332 63.1276 124.379 64.8288C124.385 65.0755 123.895 65.0157 123.548 64.9149C122.241 64.5362 121.614 63.6356 120.757 63.2051C120.383 63.0171 119.942 63.0616 119.717 63.0818C118.38 63.2017 121.042 66.7767 119.741 67.1102C118.175 67.5116 116.54 65.9642 115.597 64.9149" stroke="#131313" stroke-width="0.965343" stroke-linecap="round"/>
<path d="M74.5748 20.0773C74.4654 19.6802 74.5376 18.5851 74.647 17.6935C74.8725 15.856 75.3745 14.218 75.9921 11.7456C76.6911 8.94707 77.382 7.35212 77.6719 6.7001C78.7304 4.31956 79.093 3.27374 79.8779 1.66723C80.0923 1.22844 80.3719 1.00701 80.6262 0.770161C81.9989 -0.508111 85.2937 2.7902 86.5665 3.93615C87.6588 4.91952 88.6435 5.95619 89.5236 6.92874C90.2091 7.68623 90.9824 8.73272 91.8018 9.98971C92.3867 10.8869 92.8794 11.8681 93.335 12.926C93.8251 14.0639 94.411 15.4782 94.6664 16.517C95.079 18.1947 95.5421 18.7252 95.797 19.6906C96.053 20.4766 96.1624 21.0236 96.2713 21.4235C96.344 21.6428 96.4523 21.8955 96.5639 22.3747" stroke="#131313" stroke-width="0.965343" stroke-linecap="round"/>
<path d="M79.9346 21.9474C79.9346 21.8478 79.9346 20.8001 79.947 19.2282C79.9526 18.5272 80.01 17.6775 80.0225 16.4709C80.0298 15.7616 80.1104 15.158 80.2478 14.156C80.5943 11.6286 80.8645 11.0571 81.0909 10.4268C81.5222 9.22657 81.7687 7.93975 82.1224 7.13022C82.1982 7.00304 82.273 6.92831 82.3364 6.82754C82.3998 6.72678 82.4496 6.60224 82.5009 6.39844" stroke="#131313" stroke-width="0.965343" stroke-linecap="round"/>
<path d="M81.3388 10.6286C81.3388 10.5889 81.3388 10.5491 81.3686 10.4988C81.3984 10.4485 81.458 10.3889 82.1447 10.0501C82.8313 9.7113 84.1432 9.09512 84.9085 8.75782C85.8388 8.34777 86.1164 8.31993 86.2667 8.32956C86.3432 8.33447 86.3971 8.43859 86.4278 8.59881C86.5031 8.99157 86.3393 9.50169 85.94 10.1516C84.8745 11.8856 84.1119 12.2718 83.7695 12.6552C83.675 12.7609 83.53 12.8946 83.5279 12.9365C83.521 13.0745 83.9475 12.8175 84.7049 12.5784C85.3244 12.3828 86.4164 12.0212 87.4566 11.827C89.4283 11.4588 90.4737 11.6719 90.5637 11.8619C90.7899 12.3393 90.7953 12.6555 90.7556 12.8359C90.6577 13.2799 89.6955 13.5379 88.4709 13.93C87.9836 14.086 87.5054 14.2619 86.3781 14.6507C85.524 14.9453 84.1179 15.4966 83.3313 15.8029C82.5446 16.1092 82.4254 16.1688 82.4335 16.2294C82.4588 16.4178 84.036 16.6694 86.0734 17.0907C86.91 17.2637 87.0802 17.4542 87.2106 17.6144C87.5688 18.0546 87.1826 19.0986 86.9413 19.4717C86.6451 19.9299 85.7394 20.4044 84.8555 20.7866C84.5661 20.9117 83.8348 21.1675 82.4934 21.4783C81.0328 21.6898 80.1751 21.7717 80.0049 21.7816C79.9143 21.7916 79.8149 21.8114 79.592 21.7717" stroke="#131313" stroke-width="0.965343" stroke-linecap="round"/>
<path d="M61.2935 94.124C61.2935 95.0651 61.3718 97.048 61.6287 97.6817C61.8805 98.3027 62.2405 98.9468 63.1293 99.8172C63.664 100.341 64.6115 100.333 65.5229 100.433C65.8816 100.473 67.8809 100.532 70.8067 100.513C72.1673 100.504 72.6052 100.374 72.9404 100.315C73.3096 100.25 76.0229 99.8641 79.9379 99.1527C82.1799 98.7453 83.2429 98.3178 85.0995 97.6669C86.2687 97.257 87.8248 96.7383 90.7203 95.7148C92.4962 95.0871 94.8299 94.0647 96.1187 93.5407C97.9644 92.7903 99.3774 92.071 100.59 91.2984C101.696 90.5933 102.627 89.7759 103.774 88.7482C104.567 88.0373 105.396 87.2838 105.912 86.6109C106.27 85.2308 106.113 83.4863 105.817 82.9137C105.678 82.6544 105.56 82.4586 105.083 82.0195" stroke="#131313" stroke-width="0.965343" stroke-linecap="round"/>
<path d="M66.8559 94.4531C66.7752 95.6534 67.0414 98.0782 67.6335 99.0611C67.9958 99.6624 68.3337 99.9899 68.6426 100.34C69.1395 100.717 69.6243 101.04 69.8389 101.121C69.9469 101.148 70.0534 101.148 70.1631 101.148" stroke="#131313" stroke-width="0.965343" stroke-linecap="round"/>
<path d="M72.5024 92.7578C72.5024 93.5314 72.5557 94.9874 72.7303 95.5653C72.8905 96.0954 73.2268 96.7329 73.4962 97.3403C73.9262 97.8647 74.2496 98.4559 74.5311 98.8601C74.6255 98.9415 74.732 98.9948 74.8417 99.0496" stroke="#131313" stroke-width="0.965343" stroke-linecap="round"/>
<path d="M78.5523 91.3086C78.4716 92.1894 78.6313 94.0721 78.8874 94.7481C79.155 95.4542 79.3315 95.8774 79.9748 97.1116C80.1381 97.4907 80.2454 97.7069 80.4064 97.9081C80.4874 98.0029 80.5673 98.0828 80.6496 98.2457" stroke="#131313" stroke-width="0.965343" stroke-linecap="round"/>
<path d="M84.844 90.4219C84.844 90.5275 85.0569 91.3318 85.3001 91.9654C85.7696 93.1885 86.2685 94.184 86.4432 94.6281C86.6444 95.3125 86.9671 96.12 87.1958 96.7383C87.2631 96.8742 87.343 96.9541 87.5059 96.7943" stroke="#131313" stroke-width="0.965343" stroke-linecap="round"/>
<path d="M90.0066 88.7266C90.1937 88.833 90.7293 89.5816 91.2682 90.5109C92.1014 91.8692 92.7476 92.9437 93.1376 93.7249C93.2324 93.9141 93.3122 94.1004 93.4752 94.4537" stroke="#131313" stroke-width="0.965343" stroke-linecap="round"/>
<path d="M96.2174 86.8672C96.19 87.0003 96.6707 87.5367 97.7855 88.3288C99.0124 89.5541 99.4424 90.0921 99.6985 90.5757C99.7658 90.7108 99.8457 90.8439 99.928 90.9811" stroke="#131313" stroke-width="0.965343" stroke-linecap="round"/>
<path d="M101.138 85.0117C101.566 85.1714 102.373 85.7087 102.817 86.166C103.181 86.8113 103.45 87.4026 103.612 87.9003C103.639 88.0221 103.639 88.1286 103.639 88.2383" stroke="#131313" stroke-width="0.965343" stroke-linecap="round"/>
<path d="M60.3804 98.4062C60.0828 98.5545 59.0394 99.4485 58.1745 100.387C56.8822 101.789 55.7036 103.231 54.9359 104.336C54.2696 105.295 53.5 107.71 52.9867 109.074C52.8564 109.859 52.5936 110.722 52.5374 111.132C52.5183 111.357 52.5183 111.617 52.5183 111.884" stroke="#131313" stroke-width="0.965343" stroke-linecap="round"/>
<path d="M107.216 83.9149C107.699 83.7667 108.748 83.2433 109.755 82.794C110.293 82.5543 111.277 82.3111 113.441 82.1398C115.606 81.9685 118.942 81.9314 120.919 81.9494C124.136 82.1179 125.624 82.3403 126.831 82.5666C127.019 82.6042 127.168 82.6413 127.545 82.6795" stroke="#131313" stroke-width="0.965343" stroke-linecap="round"/>
<path d="M33.5032 128.627C34.0869 128.203 35.2641 127.026 36.2528 125.665C36.931 124.732 36.9223 123.713 37.2976 121.982C38.2908 117.402 36.8197 116.124 36.551 114.68C36.4131 113.938 36.3369 113.287 36.2568 111.669C35.9294 105.063 36.6561 103.775 37.1364 102.677C37.2447 102.435 37.2976 102.223 37.3248 102.008C37.3521 101.793 37.3521 101.581 37.3521 101.363" stroke="#131313" stroke-width="0.965343" stroke-linecap="round"/>
<path d="M37.3521 101.367C37.3521 101.155 37.3521 100.57 37.2992 99.7424C37.2618 99.1588 36.8726 98.8026 36.4997 98.5621C35.6826 98.0349 33.5192 98.3199 32.0365 98.6391C30.8663 98.891 30.1386 100.081 29.4169 101.068C28.1944 102.74 28.1596 104.193 28.024 105.532C27.9976 105.854 27.9447 106.172 27.9174 106.521C27.8901 106.869 27.8901 107.24 27.8901 107.621" stroke="#131313" stroke-width="0.965343" stroke-linecap="round"/>
<path d="M27.7352 110.733C27.2746 110.58 26.4565 109.864 24.942 108.376C23.503 106.963 21.9361 105.038 20.3461 103.318C19.3154 102.26 18.1892 101.391 16.4259 100.112C15.2727 99.3916 13.5949 98.5272 11.8662 97.6367" stroke="#131313" stroke-width="0.965343" stroke-linecap="round"/>
<path d="M10.6334 97.4805C10.5318 97.4805 10.0726 97.4805 9.35469 97.7347C8.48744 98.0418 8.63057 99.3262 8.7831 100.017C9.17021 101.771 12.2019 105.458 13.9937 107.799C15.3048 109.29 16.5312 110.416 17.7167 111.165C17.9748 111.294 18.229 111.396 18.645 111.655" stroke="#131313" stroke-width="0.965343" stroke-linecap="round"/>
<path d="M8.78457 102.258C7.91871 102.258 5.96512 102.359 4.83427 102.718C3.89098 103.018 3.2412 103.795 2.95617 104.642C2.53799 105.884 3.28742 107.182 4.18333 108.671C5.43162 110.746 6.57215 110.935 7.34326 111.678C7.95568 112.164 9.03416 113.138 10.4177 114.42C11.0894 114.99 11.6995 115.397 12.3281 115.816" stroke="#131313" stroke-width="0.965343" stroke-linecap="round"/>
<path d="M9.70919 117.352C9.50582 117.045 8.27944 116.329 7.19634 115.89C6.00697 115.407 5.09331 114.683 4.1404 114.451C3.21315 114.224 2.36938 114.169 1.18845 114.193C0.917933 114.198 0.776318 114.421 0.672322 114.653C0.44331 115.161 0.465102 116.113 0.515945 117.165C0.588166 118.658 2.46491 119.506 4.05335 120.506C5.60337 121.483 7.49678 121.715 8.93192 122.203C10.1067 122.636 11.1436 123.051 11.8099 123.307C12.1204 123.411 12.3746 123.462 12.6365 123.515" stroke="#131313" stroke-width="0.965343" stroke-linecap="round"/>
<path d="M12.0974 123.398C12.4413 123.513 13.038 123.925 13.9358 124.524C14.463 124.877 15.0187 125.284 15.6862 125.791C16.0899 126.097 16.4455 126.481 16.9759 126.953C17.4322 127.359 17.8282 127.886 18.7235 128.552C19.4474 129.091 20.2412 129.588 21.1065 130.05C22.1406 130.602 22.5699 130.603 23.534 130.879C24.7562 131.229 25.3545 131.271 26.561 131.455C27.4445 131.589 28.2316 131.502 28.7278 131.41C30.3358 131.111 32.2299 129.754 33.4463 128.692" stroke="#131313" stroke-width="0.965343" stroke-linecap="round"/>
<path d="M25.9929 112.75C26.0573 112.966 26.5314 113.398 26.9993 113.585C27.2808 113.697 27.4665 113.207 27.5637 112.958C27.6571 112.719 27.8131 112.234 27.8999 110.661C27.9224 109.475 27.9009 107.501 27.8684 106.376C27.8359 105.252 27.793 105.038 27.7487 104.816" stroke="#131313" stroke-width="0.965343" stroke-linecap="round"/>
<path d="M24.7694 111.137C24.6721 111.185 24.3301 112.086 23.7904 113.9C23.5138 114.829 23.3481 115.811 23.2357 116.956C22.9976 119.384 23.0982 120.939 23.1472 121.32C23.2191 121.877 23.4897 122.852 23.7245 123.508C23.9084 124.06 24.1303 124.651 24.2158 124.883C24.277 125.019 24.3743 125.189 24.5483 125.512" stroke="#131313" stroke-width="0.965343" stroke-linecap="round"/>
<path d="M16.9351 120.406C17.5097 120.065 18.0652 119.68 18.5348 119.488C19.4074 119.126 20.7752 118.826 21.8194 118.698C22.3294 118.676 23.1751 118.676 24.0464 118.676" stroke="#131313" stroke-width="0.965343" stroke-linecap="round"/>
<path d="M9.94116 117.205C9.95132 117.257 10.1831 117.405 10.4534 117.516C10.7476 117.637 11.0301 117.702 11.2891 117.739C11.7249 117.801 12.0656 117.492 12.2899 117.29C12.4625 117.134 12.4701 116.899 12.4756 116.455C12.4177 116.168 12.312 115.957 12.0956 115.603C12.0266 115.512 11.9532 115.439 11.8777 115.363" stroke="#131313" stroke-width="0.965343" stroke-linecap="round"/>
<path d="M27.3643 132.219C27.7048 132.468 28.6438 132.906 29.1757 133.094C29.9275 133.36 30.6438 133.75 31.2085 134.078C31.7011 134.365 32.9214 134.407 33.9125 134.455C34.5465 134.486 35.0847 133.971 35.8506 133.55C36.9005 132.973 37.428 132.005 38.1189 131.299C38.7221 130.682 38.9964 129.72 39.5555 128.707C40.8789 126.31 41.4317 125.347 41.7164 124.529C42.1068 123.408 41.563 121.653 41.1554 121.136C40.7325 120.6 40.3116 120.214 39.609 119.62C39.3116 119.431 39.0912 119.275 38.8886 119.118C38.7788 119.055 38.655 119.024 38.4336 118.992" stroke="#131313" stroke-width="0.965343" stroke-linecap="round"/>
<path d="M31.74 130.336C31.8055 130.633 32.0367 130.864 32.3672 131.112C32.6464 131.323 32.9626 131.559 34.9243 132.623C35.5954 132.987 36.0717 132.916 36.3781 132.867C36.4691 132.85 36.5838 132.834 36.7165 132.809C36.8492 132.784 36.9966 132.751 37.2973 132.618" stroke="#131313" stroke-width="0.965343" stroke-linecap="round"/>
<path d="M34.469 128.496C34.5017 128.677 35.1577 129.302 35.7817 129.735C36.6748 130.355 36.9648 130.562 37.2878 130.72C37.7741 130.779 38.4375 130.762 38.6682 130.737C38.8007 130.729 38.9644 130.729 39.1332 130.729" stroke="#131313" stroke-width="0.965343" stroke-linecap="round"/>
<path d="M36.4041 125.422C36.4532 125.686 37.0114 126.146 38.5322 127.443C38.9326 127.72 39.0993 127.77 39.2313 127.795C39.2978 127.804 39.3633 127.804 39.53 127.754" stroke="#131313" stroke-width="0.965343" stroke-linecap="round"/>
<path d="M37.0986 121.848C37.6598 121.88 38.0235 122.012 38.4612 122.252C39.185 122.648 40.0718 123.349 40.4551 123.814C40.6523 124.078 40.8195 124.295 40.9022 124.427C40.9356 124.493 40.952 124.559 41.1177 124.726" stroke="#131313" stroke-width="0.965343" stroke-linecap="round"/>
<path d="M7.62646 78.3516C8.85706 78.9458 10.1498 79.5128 11.2818 79.9806C12.0399 80.2939 14.076 81.2463 16.9641 82.4627C18.466 83.0306 19.4877 83.4074 20.6608 83.8589C21.2149 84.053 21.6855 84.1763 22.4006 84.446" stroke="#FF0404" stroke-width="0.965343" stroke-linecap="round"/>
<path d="M6.25325 82.7316C6.31871 82.0148 6.39243 81.2076 6.7195 79.6046C7.34969 76.5161 8.18642 74.4336 8.36545 74.0254C8.5083 73.5736 8.81091 72.9114 9.32355 71.9477C9.5971 71.4039 9.89784 70.7487 10.2077 70.0738" stroke="#FF0404" stroke-width="0.965343" stroke-linecap="round"/>
<path d="M18.9582 78.1711C18.8871 78.0843 16.8874 76.1727 13.8922 72.844C11.2395 69.8957 10.0098 67.8269 9.60998 67.1017C9.19376 66.3467 9.18237 65.762 9.09652 65.3697C9.05644 65.1865 9.08669 65.0245 9.35301 64.966C11.3021 64.5385 13.4559 65.9442 15.6909 66.9581C18.2074 68.2738 20.3855 69.5775 21.4441 70.403C21.9019 70.7721 22.1987 71.0401 22.5044 71.3163" stroke="#FF0404" stroke-width="0.965343" stroke-linecap="round"/>
<path d="M13.9694 72.8474C13.9116 72.6012 13.9836 71.3595 14.2375 69.4584C14.5889 68.2488 14.8522 67.6171 14.9709 67.2033C15.0316 66.9849 15.0933 66.7496 15.1788 66.2659" stroke="#FF0404" stroke-width="0.965343" stroke-linecap="round"/>
<path d="M13.6565 60.2891C14.1657 60.456 15.3898 61.2139 17.4026 62.4295C20.2265 64.3154 22.3252 65.7031 22.8034 66.0096C23.0137 66.1711 23.1584 66.3449 23.2965 66.6447" stroke="#FF0404" stroke-width="0.965343" stroke-linecap="round"/>
<path d="M13.3054 60.1328C13.1379 59.7549 13.1805 57.503 13.7252 55.7355C14.2795 53.9368 14.9757 53.3536 15.6256 52.8855C15.8928 52.6931 16.1595 52.8084 16.4309 52.9542C17.0328 53.2777 17.522 53.9037 17.8724 54.5027C18.0782 54.9279 18.1776 55.6244 18.1376 57.3954C18.0651 58.6414 17.8869 60.5926 17.7033 62.6028" stroke="#FF0404" stroke-width="0.965343" stroke-linecap="round"/>
<path d="M25.5384 56.7491C24.7265 56.3525 22.8634 54.6505 20.706 52.727C16.3163 48.8131 15.7137 48.4311 15.6163 48.1594C15.5684 48.0259 15.7613 47.8696 16.1888 47.8259C17.3272 47.7095 19.0885 48.2088 20.9174 48.8004C23.4802 49.9081 24.819 50.3966 25.1309 50.5261C25.287 50.6012 25.439 50.6954 25.7053 50.9241" stroke="#FF0404" stroke-width="0.965343" stroke-linecap="round"/>
<path d="M20.2196 52.3699C20.1399 52.3627 20.0447 52.0729 19.9953 51.2812C20.0656 50.0587 20.2382 49.0488 20.4463 48.5415C20.5493 48.3058 20.6472 48.1139 20.748 47.9163" stroke="#FF0404" stroke-width="0.965343" stroke-linecap="round"/>
<path d="M22.052 37.9899C21.6092 37.8576 19.709 37.9266 18.6695 38.1699C17.9606 38.3358 17.3831 38.4815 17.1227 38.6562C16.5927 39.0118 16.3445 39.7917 16.2117 40.3953C16.1585 40.6371 16.0692 41.1156 16.1381 41.8552C16.282 43.3996 17.6075 44.0129 18.431 44.565C19.2545 45.1171 20.0619 45.3122 21.2196 45.5254C23.8784 46.0152 25.235 45.3582 26.1497 44.906C26.9474 44.5117 27.428 43.8438 27.9662 43.1431C28.4288 42.5408 28.6964 42.0299 29.001 41.0496C29.1174 40.1165 29.1219 39.4029 28.9833 39.0847C28.8911 38.9223 28.7544 38.7582 28.4397 38.4814" stroke="#FF0404" stroke-width="0.965343" stroke-linecap="round"/>
<path d="M62.967 108.209C62.6292 109.081 62.2522 110.508 62.016 113.634C61.9827 115.782 62.1252 119.069 62.1809 121.131C62.2366 123.194 62.2012 123.932 62.3218 125.082" stroke="#131313" stroke-width="0.965343" stroke-linecap="round"/>
<path d="M67.1599 106.34C66.8946 107.619 66.5628 109.219 66.2105 111.202C65.8302 113.341 65.8344 115.019 65.812 116.082C65.7882 117.21 65.5653 119.745 65.5164 122.846C65.5772 124.281 65.6436 124.735 65.6714 125.077C65.6929 125.26 65.7291 125.464 65.7664 125.674" stroke="#131313" stroke-width="0.965343" stroke-linecap="round"/>
<path d="M70.8086 107.098C70.8008 107.135 70.793 107.173 70.5872 108.544C70.3814 109.914 69.9778 112.617 69.8291 116.279C69.6805 119.94 69.799 124.478 69.9211 129.153" stroke="#131313" stroke-width="0.965343" stroke-linecap="round"/>
<path d="M57.9881 117.88C58.0634 117.896 60.0956 117.375 63.7797 116.496C65.4704 116.146 66.798 115.989 68.365 115.719C69.932 115.449 71.6983 115.07 73.5181 114.679" stroke="#131313" stroke-width="0.965343" stroke-linecap="round"/>
<path d="M75.2295 113.492C75.2649 113.793 75.3192 114.838 75.394 116.324C75.4381 117.201 75.5971 117.796 75.8578 119.03C76.3723 121.467 76.638 123.161 76.7548 123.37C76.8136 123.475 76.9001 123.561 77.1975 123.256C77.4948 122.952 78.0079 122.25 78.403 121.67C78.7982 121.091 79.0601 120.655 79.4688 119.287C79.8776 117.919 80.4254 115.632 80.6978 114.501C80.9703 113.37 80.9508 113.464 80.9355 113.597C80.9007 113.899 80.9066 114.271 80.8959 114.799C80.88 115.587 80.8239 117.165 80.9058 118.974C81.0436 120.411 81.2326 121.633 81.48 122.419C81.5313 122.591 81.5814 122.821 81.7753 123.089" stroke="#131313" stroke-width="0.965343" stroke-linecap="round"/>
<path d="M83.48 109.859C83.5865 110.763 83.8027 112.34 84.1003 114.182C84.2717 115.242 84.5008 115.907 84.7468 117.151C84.9435 118.042 85.2862 119.461 85.5306 120.573C85.775 121.685 85.9107 122.448 86.021 123.376" stroke="#131313" stroke-width="0.965343" stroke-linecap="round"/>
<path d="M83.2693 109.444C83.255 109.269 83.7515 108.779 85.0348 108.119C86.9097 107.155 87.6529 107.262 88.4477 107.129C88.6233 107.099 88.7476 107.116 88.8361 107.171C89.433 107.54 88.8233 109.865 87.9671 111.44C87.4657 112.362 86.3927 113.374 85.6182 114.233C84.8689 115.064 84.605 115.534 84.3947 115.774C84.303 115.879 84.1854 115.893 84.1421 115.799C84.0121 115.516 84.1832 115.177 84.2957 114.99C84.4295 114.769 85.1337 114.387 86.3718 113.829C87.7139 113.225 89.021 113.063 90.0031 112.97C91.5365 112.825 92.7424 113.116 93.3199 113.531C93.6681 113.781 93.5005 114.507 93.5606 115.176C93.601 115.626 93.3595 116.626 93.0869 117.465C92.9967 117.743 92.447 118.294 91.6541 119.204C90.3802 120.665 89.5869 120.871 88.6249 121.217C88.4083 121.296 88.2714 121.366 88.1491 121.416C88.0267 121.465 87.923 121.493 87.5879 121.548" stroke="#131313" stroke-width="0.965343" stroke-linecap="round"/>
<path d="M96.6796 114.499C96.9378 114.39 97.458 113.988 98.0724 113.479C98.933 112.767 99.7979 112.105 100.301 111.61C100.756 111.161 101.059 110.69 101.341 110.032C101.806 108.947 101.799 108.09 101.752 107.88C101.694 107.625 101.473 107.384 101.103 107.198C100.666 106.978 99.9978 107.04 99.3175 107.162C98.719 107.27 98.3952 107.637 98.1145 107.896C97.679 108.299 97.2604 108.894 96.8331 109.595C96.312 110.45 96.1021 111.134 95.9182 111.801C95.5187 113.252 95.3293 114.417 95.3937 114.893C95.5479 116.034 96.1599 116.72 96.8462 117.329C97.0368 117.499 97.2519 117.533 97.506 117.577C97.8602 117.638 98.6523 117.262 99.8595 116.569C101.298 115.742 101.905 114.782 102.027 114.544C102.139 114.357 102.224 114.21 102.311 114.055C102.366 113.966 102.443 113.856 102.522 113.742" stroke="#131313" stroke-width="0.965343" stroke-linecap="round"/>
<path d="M96.0435 103.598C96.0363 103.632 96.0355 103.723 96.0754 103.967C96.1124 104.138 96.1832 104.405 96.2298 104.581C96.2765 104.757 96.2967 104.833 96.3482 105.028" stroke="#131313" stroke-width="0.965343" stroke-linecap="round"/>
<path d="M97.8511 103.316C97.8951 103.452 97.9392 103.587 97.9696 103.794C98 104.001 98.0154 104.274 98.1034 104.735" stroke="#131313" stroke-width="0.965343" stroke-linecap="round"/>
<path d="M106.978 115.563C106.872 115.456 106.793 114.798 106.713 113.942C106.685 113.637 106.677 113.187 106.562 112.092C106.447 110.997 106.23 109.27 106.123 108.052C105.958 106.18 106.106 105.044 106.215 104.314C106.268 103.954 106.273 103.721 106.338 103.561C106.353 103.525 106.413 103.66 107.089 104.717C107.765 105.774 109.075 107.77 109.773 108.846C110.649 110.197 110.725 110.555 110.804 110.743C110.843 110.835 110.863 110.927 110.92 110.759C111.116 110.177 111.166 109.573 111.199 109.259C111.236 108.904 111.464 107.517 111.709 105.612C111.821 104.74 111.966 103.641 112.277 102.296C112.377 101.865 112.442 101.965 112.477 102.208C112.57 102.835 112.681 103.71 112.973 105.14C113.168 106.095 113.385 107.531 113.548 108.374C113.754 109.434 114.07 110.382 114.355 111.548C114.456 112.059 114.459 112.254 114.463 112.49C114.469 112.621 114.48 112.772 114.54 113.003" stroke="#131313" stroke-width="0.965343" stroke-linecap="round"/>
<path d="M116.948 111.664C116.958 111.679 117.165 111.827 117.426 112.033C118.108 112.572 118.173 113.278 118.216 113.776C118.22 113.948 118.21 114.182 118.195 114.353C118.18 114.523 118.159 114.624 118.138 114.727" stroke="#131313" stroke-width="0.965343" stroke-linecap="round"/>
<path d="M118.955 98.4805C119.534 99.0539 120.026 99.7143 121.885 102.019C122.318 102.555 122.455 102.84 123.242 103.82C124.029 104.801 125.447 106.481 126.24 107.376C127.034 108.272 127.159 108.333 127.289 108.395" stroke="#131313" stroke-width="0.965343" stroke-linecap="round"/>
<path d="M124.893 96.671C124.609 97.3739 123.838 99.5806 122.856 102.541C122.431 103.99 122.225 104.65 121.817 106.112C121.544 107.255 121.137 109.215 120.719 111.233" stroke="#131313" stroke-width="0.965343" stroke-linecap="round"/>
<path d="M129.478 109.481C129.424 108.741 129.301 106.965 129.132 105.343C128.889 103.002 128.845 101.235 128.851 100.783C128.873 99.3539 129.067 97.2943 129.123 96.6058C129.169 96.0289 129.288 95.554 129.345 95.4425C129.483 95.1754 130.272 97.1789 131.2 99.2769C132.026 101.141 132.749 103.467 133.053 104.552C133.35 105.314 133.573 105.92 133.792 106.473C133.851 106.608 133.93 106.728 133.99 106.953" stroke="#131313" stroke-width="0.965343" stroke-linecap="round"/>
<path d="M135.746 103.498C136.062 103.237 136.498 103.023 138.047 102.114C138.843 101.648 139.618 100.814 140.373 99.9667C141.005 99.2563 141.392 98.0624 141.592 97.2123C141.647 96.9789 141.371 96.8049 141.185 96.6571C140.946 96.4682 140.616 96.451 140.323 96.4444C139.6 96.428 139.221 96.9674 138.734 97.2602C137.976 97.7163 137.104 98.8604 136.496 100.101C136.243 100.616 135.947 102.215 135.831 103.349C135.776 103.885 136.255 104.713 136.793 105.588C137.212 106.27 137.887 106.431 138.401 106.473C138.945 106.517 140.294 105.846 142.053 105.044C142.742 104.711 143.017 104.531 143.213 104.384C143.409 104.237 143.518 104.13 143.63 104.02" stroke="#131313" stroke-width="0.965343" stroke-linecap="round"/>
<path d="M143.525 90.7305C143.622 91.2982 143.72 91.8659 143.879 92.621C144.039 93.3762 144.257 94.3015 144.798 96.0599C145.34 97.8182 146.196 100.382 146.658 101.794C147.159 103.391 147.26 103.672 147.351 103.848C147.383 103.934 147.387 104.013 147.423 104.22" stroke="#131313" stroke-width="0.965343" stroke-linecap="round"/>
<path d="M145.558 98.6481C145.719 98.1175 145.897 97.8731 146.248 97.6056C146.492 97.4189 146.887 97.1166 147.384 96.8223C147.745 96.6079 148.061 96.4735 148.544 96.2988C149.376 95.9975 150.131 96.0167 150.628 96.0556C151.406 96.1165 152.049 96.362 152.373 96.5573C152.629 96.711 152.887 97.0224 153.216 97.4425C153.544 97.8612 153.704 98.3465 153.81 98.7335C153.885 99.0101 153.831 99.3479 153.777 99.7911C153.72 100.27 153.526 100.76 153.308 101.195C153.137 101.535 152.903 101.787 152.518 102.135C151.875 102.716 151.24 103.059 150.622 103.276C150.16 103.41 149.397 103.595 148.978 103.698C148.558 103.8 148.504 103.814 148.33 103.843" stroke="#131313" stroke-width="0.965343" stroke-linecap="round"/>
<path d="M143.39 90.735C143.899 90.0079 144.295 89.7046 145.361 89.2422C145.925 88.9977 146.891 88.7379 147.48 88.5349C148.268 88.2334 148.546 88.0835 148.674 87.9885C148.73 87.9418 148.764 87.8982 148.844 87.8239" stroke="#131313" stroke-width="0.965343" stroke-linecap="round"/>
<path d="M97.1106 125.973C97.2283 126.711 97.3461 127.45 97.9064 129.4C98.4667 131.349 99.4661 134.488 100.09 136.349C101.252 139.345 101.499 139.72 101.593 139.802C101.632 139.799 101.652 139.704 101.672 139.607" stroke="#131313" stroke-width="0.965343" stroke-linecap="round"/>
<path d="M99.2058 125.586C99.3083 125.804 99.4538 126.182 99.6032 126.66C99.6599 126.873 99.6778 127.024 100.317 128.698C100.955 130.373 102.214 133.565 103.554 137.012" stroke="#131313" stroke-width="0.965343" stroke-linecap="round"/>
<path d="M100.924 123.77C100.947 123.897 100.97 124.025 101.839 125.895C102.708 127.764 104.423 131.371 105.404 133.532C106.384 135.694 106.579 136.301 106.69 136.739C106.801 137.177 106.823 137.428 106.944 137.93" stroke="#131313" stroke-width="0.965343" stroke-linecap="round"/>
<path d="M97.5182 135.162C97.6628 134.821 98.2863 134.082 99.9622 133.032C101.208 132.251 103.417 131.242 104.62 130.631C105.823 130.02 105.994 129.907 106.128 129.81C106.261 129.712 106.351 129.632 106.617 129.436" stroke="#131313" stroke-width="0.965343" stroke-linecap="round"/>
<path d="M103.918 122.629C103.977 122.641 104.107 122.76 104.801 123.351C105.381 123.846 106.481 124.67 107.294 125.255C108.106 125.84 108.612 126.145 109.062 126.388C109.878 126.827 110.56 127.127 111.028 127.371C111.321 127.503 111.518 127.605 111.762 127.734C111.912 127.796 112.116 127.854 112.325 127.913" stroke="#131313" stroke-width="0.965343" stroke-linecap="round"/>
<path d="M111.244 121.449C111.526 122.461 111.734 123.272 111.85 123.984C112.006 124.945 112.033 125.726 112.11 126.175C112.196 126.672 112.193 127.203 112.279 128.385C112.347 129.312 112.38 130.908 112.366 132.043C112.351 133.179 112.267 133.807 112.223 134.207C112.178 134.761 112.121 135.338 112.037 136.004C112.009 136.251 112.012 136.313 111.996 136.466" stroke="#131313" stroke-width="0.965343" stroke-linecap="round"/>
<path d="M116.629 127.825C116.853 127.41 117.415 126.499 117.811 125.675C118.122 125.028 118.504 124.32 118.795 123.514C119.126 122.6 119.059 121.732 118.812 121.131C118.698 120.853 118.537 120.662 118.272 120.52C117.668 120.196 117.102 120.236 116.882 120.283C116.578 120.349 115.949 121.015 115.397 121.828C115.235 122.067 115.116 122.472 114.926 123.122C114.736 123.773 114.517 124.681 114.441 125.456C114.304 126.839 114.581 127.662 114.708 128.022C114.825 128.355 115.027 128.948 115.372 129.71C115.653 130.328 115.964 130.652 116.266 130.908C116.779 131.343 117.523 131.582 118.118 131.667C118.703 131.75 119.275 131.45 120.235 130.859C120.85 130.481 121.369 129.744 121.956 128.706C122.303 128.093 122.576 127.213 122.753 126.706C122.929 126.198 122.957 126.065 122.99 125.94C123.024 125.814 123.063 125.699 123.104 125.581" stroke="#131313" stroke-width="0.965343" stroke-linecap="round"/>
<path d="M113.25 117.387C113.322 117.556 113.395 117.724 113.49 118.054C113.584 118.383 113.699 118.868 113.879 119.52" stroke="#131313" stroke-width="0.965343" stroke-linecap="round"/>
<path d="M114.681 117.453C114.783 117.628 114.885 117.803 114.95 117.942C115.016 118.081 115.042 118.178 115.071 118.339C115.099 118.501 115.13 118.722 115.188 119.049" stroke="#131313" stroke-width="0.965343" stroke-linecap="round"/>
<path d="M116.578 127.75C116.481 128.126 116.289 128.493 116.107 128.67C115.992 128.801 115.913 128.901 115.841 128.992C115.795 129.05 115.73 129.133 115.663 129.218" stroke="#131313" stroke-width="0.965343" stroke-linecap="round"/>
<path d="M126.794 127.726C126.65 127.442 126.343 126.719 125.672 125.055C125.232 123.965 124.34 121.973 123.777 120.755C122.715 118.456 122.331 117.643 122.133 117.054C122.042 116.784 122 116.401 121.99 116.08C121.974 115.595 123.486 117.061 124.379 117.708C124.552 117.833 124.768 117.916 125.531 118.454C126.294 118.992 127.607 119.971 128.345 120.539C129.224 121.215 129.468 121.468 129.7 121.58C129.792 121.625 129.87 121.503 129.94 121.289C130.119 120.747 130.038 119.605 129.804 118.155C129.497 116.255 129.428 115.647 129.403 114.291C129.398 114.008 129.43 113.911 129.441 113.798C129.464 113.56 130.411 115.143 131.499 116.771C131.862 117.292 132.266 117.812 133.06 118.876C133.628 119.692 134.53 121.066 135.444 122.555" stroke="#131313" stroke-width="0.965343" stroke-linecap="round"/>
<path d="M138.08 120.711L138.242 120.745" stroke="#131313" stroke-width="0.965343" stroke-linecap="round"/>
<path d="M137.865 78.6115C147.21 83.1575 158.174 77.9296 163.709 70.0543C168.773 62.8494 175.778 43.7234 162.692 40.766C154.571 38.9306 146.625 42.5456 141.649 48.9787C136.709 55.3661 127.801 73.7159 137.865 78.6115Z" stroke="#131313" stroke-width="0.579206" stroke-linecap="round"/>
<path d="M153.928 67.546C154.876 68.3424 155.916 72.2681 155.173 71.243C150.948 65.4129 140.915 67.8726 138.707 69.7036C137.784 70.4695 139.103 68.2891 140.491 67.5461C143.734 65.809 150.909 65.0096 153.928 67.546Z" stroke="#131313" stroke-width="0.579206" stroke-linecap="round"/>
<path d="M160.109 59.7708C160.489 60.6586 162.017 64.3785 161.625 63.8884C152.82 52.8758 143.814 58.9135 139.308 59.4452C142.919 55.9474 156.838 52.1266 160.109 59.7708Z" stroke="#131313" stroke-width="0.579206" stroke-linecap="round"/>
<path d="M163.736 48.7614C164.108 49.8191 164.125 54.5248 164.045 54.2184C162.25 47.3328 156.033 47.6375 146.856 49.6797C145.219 50.0442 150.374 47.1427 153.33 46.0971C158.025 44.4364 162.289 44.6463 163.736 48.7614Z" stroke="#131313" stroke-width="0.579206" stroke-linecap="round"/>
<circle cx="81.7645" cy="136.173" r="4.63365" fill="#FF0404"/>
<circle cx="49.5992" cy="136.173" r="4.63365" fill="#FF0404"/>
<path d="M47.5527 140.184C44.9656 138.987 43.8943 137.247 44.9849 134.779C46.0853 132.288 49.7566 131.245 52.2479 132.686C55.1765 134.381 55.6616 138.582 51.5879 140.184" stroke="#131313" stroke-width="0.965343" stroke-linecap="round"/>
<path d="M79.7952 140.184C77.208 138.987 76.1367 137.247 77.2274 134.779C78.3277 132.288 81.999 131.245 84.4903 132.686C87.4189 134.381 87.9041 138.582 83.8303 140.184" stroke="#131313" stroke-width="0.965343" stroke-linecap="round"/>
<rect x="43.614" y="140.379" width="11.0049" height="16.1019" fill="#FF0404"/>
<rect x="75.8567" y="140.379" width="11.0049" height="16.1019" fill="#FF0404"/>
<path d="M47.7601 140.375C47.7601 140.443 43.7185 140.375 43.7185 140.375C43.7185 140.375 43.6139 156.479 43.614 156.479C43.6141 156.479 55.0406 156.479 55.0406 156.479L54.8359 140.443H51.5082" stroke="#131313" stroke-width="0.965343" stroke-linecap="round"/>
<path d="M80.0028 140.375C80.0028 140.443 75.9612 140.375 75.9612 140.375C75.9612 140.375 75.8566 156.479 75.8567 156.479C75.8568 156.479 87.2833 156.479 87.2833 156.479L87.0785 140.443H83.7509" stroke="#131313" stroke-width="0.965343" stroke-linecap="round"/>
<path d="M69.5888 140.25C67.8737 140.493 65.4945 141.941 65.3353 143.861C65.1762 141.941 62.8109 140.503 61.0957 140.259C56.3623 139.588 53.6545 144.503 55.6903 147.691C57.1692 150.007 61.7542 151.646 65.3353 155.525C68.9164 151.646 73.5153 149.998 74.9943 147.682C77.03 144.494 74.3223 139.578 69.5888 140.25Z" fill="url(#paint0_linear_14939_789)"/>
<path d="M65.3749 144.056C65.2157 142.137 62.8365 140.688 61.1214 140.445C56.3879 139.773 53.6802 144.689 55.7159 147.877C57.1949 150.193 61.7938 151.832 65.3749 155.71" stroke="#131313" stroke-width="0.965343" stroke-linecap="round"/>
<path d="M65.3612 144.044C65.5204 142.125 67.8995 140.677 69.6147 140.433C74.3481 139.762 77.0559 144.677 75.0201 147.865C73.5412 150.181 68.9423 151.83 65.3612 155.708" stroke="#131313" stroke-width="0.965343" stroke-linecap="round"/>
<defs>
<linearGradient id="paint0_linear_14939_789" x1="65.3423" y1="140.188" x2="65.3423" y2="155.525" gradientUnits="userSpaceOnUse">
<stop stop-color="#1757EB"/>
<stop offset="0.25" stop-color="#7076FF"/>
<stop offset="0.5" stop-color="#D1AAFF"/>
<stop offset="0.75" stop-color="#FF73B2"/>
<stop offset="1" stop-color="#FF126B"/>
</linearGradient>
</defs>
</svg>
